%TF.GenerationSoftware,KiCad,Pcbnew,8.0.7*%
%TF.CreationDate,2025-08-15T01:52:05+02:00*%
%TF.ProjectId,Arduino,41726475-696e-46f2-9e6b-696361645f70,1*%
%TF.SameCoordinates,Original*%
%TF.FileFunction,Legend,Top*%
%TF.FilePolarity,Positive*%
%FSLAX46Y46*%
G04 Gerber Fmt 4.6, Leading zero omitted, Abs format (unit mm)*
G04 Created by KiCad (PCBNEW 8.0.7) date 2025-08-15 01:52:05*
%MOMM*%
%LPD*%
G01*
G04 APERTURE LIST*
%ADD10C,0.100000*%
%ADD11C,0.125000*%
%ADD12C,0.375000*%
%ADD13C,0.150000*%
%ADD14C,0.120000*%
G04 APERTURE END LIST*
D10*
X160350000Y-120800000D02*
X175850000Y-120800000D01*
X175300000Y-84800000D02*
X142300000Y-84800000D01*
X156372419Y-79991353D02*
X156372419Y-79324687D01*
X156372419Y-79324687D02*
X157372419Y-79753258D01*
X133774800Y-81843734D02*
X133822419Y-81700877D01*
X133822419Y-81700877D02*
X133822419Y-81462782D01*
X133822419Y-81462782D02*
X133774800Y-81367544D01*
X133774800Y-81367544D02*
X133727180Y-81319925D01*
X133727180Y-81319925D02*
X133631942Y-81272306D01*
X133631942Y-81272306D02*
X133536704Y-81272306D01*
X133536704Y-81272306D02*
X133441466Y-81319925D01*
X133441466Y-81319925D02*
X133393847Y-81367544D01*
X133393847Y-81367544D02*
X133346228Y-81462782D01*
X133346228Y-81462782D02*
X133298609Y-81653258D01*
X133298609Y-81653258D02*
X133250990Y-81748496D01*
X133250990Y-81748496D02*
X133203371Y-81796115D01*
X133203371Y-81796115D02*
X133108133Y-81843734D01*
X133108133Y-81843734D02*
X133012895Y-81843734D01*
X133012895Y-81843734D02*
X132917657Y-81796115D01*
X132917657Y-81796115D02*
X132870038Y-81748496D01*
X132870038Y-81748496D02*
X132822419Y-81653258D01*
X132822419Y-81653258D02*
X132822419Y-81415163D01*
X132822419Y-81415163D02*
X132870038Y-81272306D01*
X133822419Y-80843734D02*
X132822419Y-80843734D01*
X132822419Y-80843734D02*
X132822419Y-80605639D01*
X132822419Y-80605639D02*
X132870038Y-80462782D01*
X132870038Y-80462782D02*
X132965276Y-80367544D01*
X132965276Y-80367544D02*
X133060514Y-80319925D01*
X133060514Y-80319925D02*
X133250990Y-80272306D01*
X133250990Y-80272306D02*
X133393847Y-80272306D01*
X133393847Y-80272306D02*
X133584323Y-80319925D01*
X133584323Y-80319925D02*
X133679561Y-80367544D01*
X133679561Y-80367544D02*
X133774800Y-80462782D01*
X133774800Y-80462782D02*
X133822419Y-80605639D01*
X133822419Y-80605639D02*
X133822419Y-80843734D01*
X133536704Y-79891353D02*
X133536704Y-79415163D01*
X133822419Y-79986591D02*
X132822419Y-79653258D01*
X132822419Y-79653258D02*
X133822419Y-79319925D01*
X153300990Y-79703258D02*
X153253371Y-79798496D01*
X153253371Y-79798496D02*
X153205752Y-79846115D01*
X153205752Y-79846115D02*
X153110514Y-79893734D01*
X153110514Y-79893734D02*
X153062895Y-79893734D01*
X153062895Y-79893734D02*
X152967657Y-79846115D01*
X152967657Y-79846115D02*
X152920038Y-79798496D01*
X152920038Y-79798496D02*
X152872419Y-79703258D01*
X152872419Y-79703258D02*
X152872419Y-79512782D01*
X152872419Y-79512782D02*
X152920038Y-79417544D01*
X152920038Y-79417544D02*
X152967657Y-79369925D01*
X152967657Y-79369925D02*
X153062895Y-79322306D01*
X153062895Y-79322306D02*
X153110514Y-79322306D01*
X153110514Y-79322306D02*
X153205752Y-79369925D01*
X153205752Y-79369925D02*
X153253371Y-79417544D01*
X153253371Y-79417544D02*
X153300990Y-79512782D01*
X153300990Y-79512782D02*
X153300990Y-79703258D01*
X153300990Y-79703258D02*
X153348609Y-79798496D01*
X153348609Y-79798496D02*
X153396228Y-79846115D01*
X153396228Y-79846115D02*
X153491466Y-79893734D01*
X153491466Y-79893734D02*
X153681942Y-79893734D01*
X153681942Y-79893734D02*
X153777180Y-79846115D01*
X153777180Y-79846115D02*
X153824800Y-79798496D01*
X153824800Y-79798496D02*
X153872419Y-79703258D01*
X153872419Y-79703258D02*
X153872419Y-79512782D01*
X153872419Y-79512782D02*
X153824800Y-79417544D01*
X153824800Y-79417544D02*
X153777180Y-79369925D01*
X153777180Y-79369925D02*
X153681942Y-79322306D01*
X153681942Y-79322306D02*
X153491466Y-79322306D01*
X153491466Y-79322306D02*
X153396228Y-79369925D01*
X153396228Y-79369925D02*
X153348609Y-79417544D01*
X153348609Y-79417544D02*
X153300990Y-79512782D01*
X134322419Y-123238972D02*
X135322419Y-122905639D01*
X135322419Y-122905639D02*
X134322419Y-122572306D01*
X135227180Y-121667544D02*
X135274800Y-121715163D01*
X135274800Y-121715163D02*
X135322419Y-121858020D01*
X135322419Y-121858020D02*
X135322419Y-121953258D01*
X135322419Y-121953258D02*
X135274800Y-122096115D01*
X135274800Y-122096115D02*
X135179561Y-122191353D01*
X135179561Y-122191353D02*
X135084323Y-122238972D01*
X135084323Y-122238972D02*
X134893847Y-122286591D01*
X134893847Y-122286591D02*
X134750990Y-122286591D01*
X134750990Y-122286591D02*
X134560514Y-122238972D01*
X134560514Y-122238972D02*
X134465276Y-122191353D01*
X134465276Y-122191353D02*
X134370038Y-122096115D01*
X134370038Y-122096115D02*
X134322419Y-121953258D01*
X134322419Y-121953258D02*
X134322419Y-121858020D01*
X134322419Y-121858020D02*
X134370038Y-121715163D01*
X134370038Y-121715163D02*
X134417657Y-121667544D01*
X135227180Y-120667544D02*
X135274800Y-120715163D01*
X135274800Y-120715163D02*
X135322419Y-120858020D01*
X135322419Y-120858020D02*
X135322419Y-120953258D01*
X135322419Y-120953258D02*
X135274800Y-121096115D01*
X135274800Y-121096115D02*
X135179561Y-121191353D01*
X135179561Y-121191353D02*
X135084323Y-121238972D01*
X135084323Y-121238972D02*
X134893847Y-121286591D01*
X134893847Y-121286591D02*
X134750990Y-121286591D01*
X134750990Y-121286591D02*
X134560514Y-121238972D01*
X134560514Y-121238972D02*
X134465276Y-121191353D01*
X134465276Y-121191353D02*
X134370038Y-121096115D01*
X134370038Y-121096115D02*
X134322419Y-120953258D01*
X134322419Y-120953258D02*
X134322419Y-120858020D01*
X134322419Y-120858020D02*
X134370038Y-120715163D01*
X134370038Y-120715163D02*
X134417657Y-120667544D01*
X164205752Y-79467544D02*
X164872419Y-79467544D01*
X163824800Y-79705639D02*
X164539085Y-79943734D01*
X164539085Y-79943734D02*
X164539085Y-79324687D01*
X171372419Y-84188972D02*
X171372419Y-83617544D01*
X172372419Y-83903258D02*
X171372419Y-83903258D01*
X171372419Y-83379448D02*
X172372419Y-82712782D01*
X171372419Y-82712782D02*
X172372419Y-83379448D01*
X171991466Y-82331829D02*
X171991466Y-81569925D01*
X171705752Y-81093734D02*
X171991466Y-80331830D01*
X171991466Y-80331830D02*
X172277180Y-81093734D01*
X172372419Y-79331830D02*
X172372419Y-79903258D01*
X172372419Y-79617544D02*
X171372419Y-79617544D01*
X171372419Y-79617544D02*
X171515276Y-79712782D01*
X171515276Y-79712782D02*
X171610514Y-79808020D01*
X171610514Y-79808020D02*
X171658133Y-79903258D01*
X146322419Y-122624687D02*
X145846228Y-122958020D01*
X146322419Y-123196115D02*
X145322419Y-123196115D01*
X145322419Y-123196115D02*
X145322419Y-122815163D01*
X145322419Y-122815163D02*
X145370038Y-122719925D01*
X145370038Y-122719925D02*
X145417657Y-122672306D01*
X145417657Y-122672306D02*
X145512895Y-122624687D01*
X145512895Y-122624687D02*
X145655752Y-122624687D01*
X145655752Y-122624687D02*
X145750990Y-122672306D01*
X145750990Y-122672306D02*
X145798609Y-122719925D01*
X145798609Y-122719925D02*
X145846228Y-122815163D01*
X145846228Y-122815163D02*
X145846228Y-123196115D01*
X145798609Y-122196115D02*
X145798609Y-121862782D01*
X146322419Y-121719925D02*
X146322419Y-122196115D01*
X146322419Y-122196115D02*
X145322419Y-122196115D01*
X145322419Y-122196115D02*
X145322419Y-121719925D01*
X146274800Y-121338972D02*
X146322419Y-121196115D01*
X146322419Y-121196115D02*
X146322419Y-120958020D01*
X146322419Y-120958020D02*
X146274800Y-120862782D01*
X146274800Y-120862782D02*
X146227180Y-120815163D01*
X146227180Y-120815163D02*
X146131942Y-120767544D01*
X146131942Y-120767544D02*
X146036704Y-120767544D01*
X146036704Y-120767544D02*
X145941466Y-120815163D01*
X145941466Y-120815163D02*
X145893847Y-120862782D01*
X145893847Y-120862782D02*
X145846228Y-120958020D01*
X145846228Y-120958020D02*
X145798609Y-121148496D01*
X145798609Y-121148496D02*
X145750990Y-121243734D01*
X145750990Y-121243734D02*
X145703371Y-121291353D01*
X145703371Y-121291353D02*
X145608133Y-121338972D01*
X145608133Y-121338972D02*
X145512895Y-121338972D01*
X145512895Y-121338972D02*
X145417657Y-121291353D01*
X145417657Y-121291353D02*
X145370038Y-121243734D01*
X145370038Y-121243734D02*
X145322419Y-121148496D01*
X145322419Y-121148496D02*
X145322419Y-120910401D01*
X145322419Y-120910401D02*
X145370038Y-120767544D01*
X145798609Y-120338972D02*
X145798609Y-120005639D01*
X146322419Y-119862782D02*
X146322419Y-120338972D01*
X146322419Y-120338972D02*
X145322419Y-120338972D01*
X145322419Y-120338972D02*
X145322419Y-119862782D01*
X145322419Y-119577067D02*
X145322419Y-119005639D01*
X146322419Y-119291353D02*
X145322419Y-119291353D01*
X157822419Y-123238972D02*
X158822419Y-122905639D01*
X158822419Y-122905639D02*
X157822419Y-122572306D01*
X158822419Y-122238972D02*
X157822419Y-122238972D01*
X158822419Y-121762782D02*
X157822419Y-121762782D01*
X157822419Y-121762782D02*
X158822419Y-121191354D01*
X158822419Y-121191354D02*
X157822419Y-121191354D01*
X166936704Y-123143734D02*
X166936704Y-122667544D01*
X167222419Y-123238972D02*
X166222419Y-122905639D01*
X166222419Y-122905639D02*
X167222419Y-122572306D01*
X166317657Y-122286591D02*
X166270038Y-122238972D01*
X166270038Y-122238972D02*
X166222419Y-122143734D01*
X166222419Y-122143734D02*
X166222419Y-121905639D01*
X166222419Y-121905639D02*
X166270038Y-121810401D01*
X166270038Y-121810401D02*
X166317657Y-121762782D01*
X166317657Y-121762782D02*
X166412895Y-121715163D01*
X166412895Y-121715163D02*
X166508133Y-121715163D01*
X166508133Y-121715163D02*
X166650990Y-121762782D01*
X166650990Y-121762782D02*
X167222419Y-122334210D01*
X167222419Y-122334210D02*
X167222419Y-121715163D01*
X168917657Y-79893734D02*
X168870038Y-79846115D01*
X168870038Y-79846115D02*
X168822419Y-79750877D01*
X168822419Y-79750877D02*
X168822419Y-79512782D01*
X168822419Y-79512782D02*
X168870038Y-79417544D01*
X168870038Y-79417544D02*
X168917657Y-79369925D01*
X168917657Y-79369925D02*
X169012895Y-79322306D01*
X169012895Y-79322306D02*
X169108133Y-79322306D01*
X169108133Y-79322306D02*
X169250990Y-79369925D01*
X169250990Y-79369925D02*
X169822419Y-79941353D01*
X169822419Y-79941353D02*
X169822419Y-79322306D01*
X145941466Y-81638972D02*
X145893847Y-81591353D01*
X145893847Y-81591353D02*
X145846228Y-81496115D01*
X145846228Y-81496115D02*
X145941466Y-81305639D01*
X145941466Y-81305639D02*
X145893847Y-81210401D01*
X145893847Y-81210401D02*
X145846228Y-81162782D01*
X146322419Y-80258020D02*
X146322419Y-80829448D01*
X146322419Y-80543734D02*
X145322419Y-80543734D01*
X145322419Y-80543734D02*
X145465276Y-80638972D01*
X145465276Y-80638972D02*
X145560514Y-80734210D01*
X145560514Y-80734210D02*
X145608133Y-80829448D01*
X146322419Y-79305639D02*
X146322419Y-79877067D01*
X146322419Y-79591353D02*
X145322419Y-79591353D01*
X145322419Y-79591353D02*
X145465276Y-79686591D01*
X145465276Y-79686591D02*
X145560514Y-79781829D01*
X145560514Y-79781829D02*
X145608133Y-79877067D01*
D11*
X161935404Y-123127287D02*
X161935404Y-122651097D01*
X162221119Y-123222525D02*
X161221119Y-122889192D01*
X161221119Y-122889192D02*
X162221119Y-122555859D01*
X161221119Y-122032049D02*
X161221119Y-121936811D01*
X161221119Y-121936811D02*
X161268738Y-121841573D01*
X161268738Y-121841573D02*
X161316357Y-121793954D01*
X161316357Y-121793954D02*
X161411595Y-121746335D01*
X161411595Y-121746335D02*
X161602071Y-121698716D01*
X161602071Y-121698716D02*
X161840166Y-121698716D01*
X161840166Y-121698716D02*
X162030642Y-121746335D01*
X162030642Y-121746335D02*
X162125880Y-121793954D01*
X162125880Y-121793954D02*
X162173500Y-121841573D01*
X162173500Y-121841573D02*
X162221119Y-121936811D01*
X162221119Y-121936811D02*
X162221119Y-122032049D01*
X162221119Y-122032049D02*
X162173500Y-122127287D01*
X162173500Y-122127287D02*
X162125880Y-122174906D01*
X162125880Y-122174906D02*
X162030642Y-122222525D01*
X162030642Y-122222525D02*
X161840166Y-122270144D01*
X161840166Y-122270144D02*
X161602071Y-122270144D01*
X161602071Y-122270144D02*
X161411595Y-122222525D01*
X161411595Y-122222525D02*
X161316357Y-122174906D01*
X161316357Y-122174906D02*
X161268738Y-122127287D01*
X161268738Y-122127287D02*
X161221119Y-122032049D01*
D10*
X160606265Y-120386704D02*
X161082455Y-120386704D01*
X160511027Y-120672419D02*
X160844360Y-119672419D01*
X160844360Y-119672419D02*
X161177693Y-120672419D01*
X161511027Y-120672419D02*
X161511027Y-119672419D01*
X161511027Y-119672419D02*
X162082455Y-120672419D01*
X162082455Y-120672419D02*
X162082455Y-119672419D01*
X162511027Y-120386704D02*
X162987217Y-120386704D01*
X162415789Y-120672419D02*
X162749122Y-119672419D01*
X162749122Y-119672419D02*
X163082455Y-120672419D01*
X163891979Y-120672419D02*
X163415789Y-120672419D01*
X163415789Y-120672419D02*
X163415789Y-119672419D01*
X164415789Y-119672419D02*
X164606265Y-119672419D01*
X164606265Y-119672419D02*
X164701503Y-119720038D01*
X164701503Y-119720038D02*
X164796741Y-119815276D01*
X164796741Y-119815276D02*
X164844360Y-120005752D01*
X164844360Y-120005752D02*
X164844360Y-120339085D01*
X164844360Y-120339085D02*
X164796741Y-120529561D01*
X164796741Y-120529561D02*
X164701503Y-120624800D01*
X164701503Y-120624800D02*
X164606265Y-120672419D01*
X164606265Y-120672419D02*
X164415789Y-120672419D01*
X164415789Y-120672419D02*
X164320551Y-120624800D01*
X164320551Y-120624800D02*
X164225313Y-120529561D01*
X164225313Y-120529561D02*
X164177694Y-120339085D01*
X164177694Y-120339085D02*
X164177694Y-120005752D01*
X164177694Y-120005752D02*
X164225313Y-119815276D01*
X164225313Y-119815276D02*
X164320551Y-119720038D01*
X164320551Y-119720038D02*
X164415789Y-119672419D01*
X165796741Y-119720038D02*
X165701503Y-119672419D01*
X165701503Y-119672419D02*
X165558646Y-119672419D01*
X165558646Y-119672419D02*
X165415789Y-119720038D01*
X165415789Y-119720038D02*
X165320551Y-119815276D01*
X165320551Y-119815276D02*
X165272932Y-119910514D01*
X165272932Y-119910514D02*
X165225313Y-120100990D01*
X165225313Y-120100990D02*
X165225313Y-120243847D01*
X165225313Y-120243847D02*
X165272932Y-120434323D01*
X165272932Y-120434323D02*
X165320551Y-120529561D01*
X165320551Y-120529561D02*
X165415789Y-120624800D01*
X165415789Y-120624800D02*
X165558646Y-120672419D01*
X165558646Y-120672419D02*
X165653884Y-120672419D01*
X165653884Y-120672419D02*
X165796741Y-120624800D01*
X165796741Y-120624800D02*
X165844360Y-120577180D01*
X165844360Y-120577180D02*
X165844360Y-120243847D01*
X165844360Y-120243847D02*
X165653884Y-120243847D01*
X167034837Y-120672419D02*
X167034837Y-119672419D01*
X167511027Y-120672419D02*
X167511027Y-119672419D01*
X167511027Y-119672419D02*
X168082455Y-120672419D01*
X168082455Y-120672419D02*
X168082455Y-119672419D01*
X167361027Y-90922419D02*
X167932455Y-90922419D01*
X167646741Y-91922419D02*
X167646741Y-90922419D01*
X168170551Y-90922419D02*
X168837217Y-91922419D01*
X168837217Y-90922419D02*
X168170551Y-91922419D01*
X150322419Y-122719925D02*
X150322419Y-123196115D01*
X150322419Y-123196115D02*
X150798609Y-123243734D01*
X150798609Y-123243734D02*
X150750990Y-123196115D01*
X150750990Y-123196115D02*
X150703371Y-123100877D01*
X150703371Y-123100877D02*
X150703371Y-122862782D01*
X150703371Y-122862782D02*
X150750990Y-122767544D01*
X150750990Y-122767544D02*
X150798609Y-122719925D01*
X150798609Y-122719925D02*
X150893847Y-122672306D01*
X150893847Y-122672306D02*
X151131942Y-122672306D01*
X151131942Y-122672306D02*
X151227180Y-122719925D01*
X151227180Y-122719925D02*
X151274800Y-122767544D01*
X151274800Y-122767544D02*
X151322419Y-122862782D01*
X151322419Y-122862782D02*
X151322419Y-123100877D01*
X151322419Y-123100877D02*
X151274800Y-123196115D01*
X151274800Y-123196115D02*
X151227180Y-123243734D01*
X150322419Y-122386591D02*
X151322419Y-122053258D01*
X151322419Y-122053258D02*
X150322419Y-121719925D01*
X137677693Y-86872419D02*
X137106265Y-86872419D01*
X137391979Y-86872419D02*
X137391979Y-85872419D01*
X137391979Y-85872419D02*
X137296741Y-86015276D01*
X137296741Y-86015276D02*
X137201503Y-86110514D01*
X137201503Y-86110514D02*
X137106265Y-86158133D01*
X138011027Y-85872419D02*
X138630074Y-85872419D01*
X138630074Y-85872419D02*
X138296741Y-86253371D01*
X138296741Y-86253371D02*
X138439598Y-86253371D01*
X138439598Y-86253371D02*
X138534836Y-86300990D01*
X138534836Y-86300990D02*
X138582455Y-86348609D01*
X138582455Y-86348609D02*
X138630074Y-86443847D01*
X138630074Y-86443847D02*
X138630074Y-86681942D01*
X138630074Y-86681942D02*
X138582455Y-86777180D01*
X138582455Y-86777180D02*
X138534836Y-86824800D01*
X138534836Y-86824800D02*
X138439598Y-86872419D01*
X138439598Y-86872419D02*
X138153884Y-86872419D01*
X138153884Y-86872419D02*
X138058646Y-86824800D01*
X138058646Y-86824800D02*
X138011027Y-86777180D01*
X138820551Y-86967657D02*
X139582455Y-86967657D01*
X139820551Y-86872419D02*
X139820551Y-85872419D01*
X139820551Y-85872419D02*
X140201503Y-85872419D01*
X140201503Y-85872419D02*
X140296741Y-85920038D01*
X140296741Y-85920038D02*
X140344360Y-85967657D01*
X140344360Y-85967657D02*
X140391979Y-86062895D01*
X140391979Y-86062895D02*
X140391979Y-86205752D01*
X140391979Y-86205752D02*
X140344360Y-86300990D01*
X140344360Y-86300990D02*
X140296741Y-86348609D01*
X140296741Y-86348609D02*
X140201503Y-86396228D01*
X140201503Y-86396228D02*
X139820551Y-86396228D01*
X140820551Y-86872419D02*
X140820551Y-85872419D01*
X141296741Y-86872419D02*
X141296741Y-85872419D01*
X141296741Y-85872419D02*
X141868169Y-86872419D01*
X141868169Y-86872419D02*
X141868169Y-85872419D01*
X148491466Y-81638972D02*
X148443847Y-81591353D01*
X148443847Y-81591353D02*
X148396228Y-81496115D01*
X148396228Y-81496115D02*
X148491466Y-81305639D01*
X148491466Y-81305639D02*
X148443847Y-81210401D01*
X148443847Y-81210401D02*
X148396228Y-81162782D01*
X148872419Y-80258020D02*
X148872419Y-80829448D01*
X148872419Y-80543734D02*
X147872419Y-80543734D01*
X147872419Y-80543734D02*
X148015276Y-80638972D01*
X148015276Y-80638972D02*
X148110514Y-80734210D01*
X148110514Y-80734210D02*
X148158133Y-80829448D01*
X147872419Y-79638972D02*
X147872419Y-79543734D01*
X147872419Y-79543734D02*
X147920038Y-79448496D01*
X147920038Y-79448496D02*
X147967657Y-79400877D01*
X147967657Y-79400877D02*
X148062895Y-79353258D01*
X148062895Y-79353258D02*
X148253371Y-79305639D01*
X148253371Y-79305639D02*
X148491466Y-79305639D01*
X148491466Y-79305639D02*
X148681942Y-79353258D01*
X148681942Y-79353258D02*
X148777180Y-79400877D01*
X148777180Y-79400877D02*
X148824800Y-79448496D01*
X148824800Y-79448496D02*
X148872419Y-79543734D01*
X148872419Y-79543734D02*
X148872419Y-79638972D01*
X148872419Y-79638972D02*
X148824800Y-79734210D01*
X148824800Y-79734210D02*
X148777180Y-79781829D01*
X148777180Y-79781829D02*
X148681942Y-79829448D01*
X148681942Y-79829448D02*
X148491466Y-79877067D01*
X148491466Y-79877067D02*
X148253371Y-79877067D01*
X148253371Y-79877067D02*
X148062895Y-79829448D01*
X148062895Y-79829448D02*
X147967657Y-79781829D01*
X147967657Y-79781829D02*
X147920038Y-79734210D01*
X147920038Y-79734210D02*
X147872419Y-79638972D01*
X169436704Y-123143734D02*
X169436704Y-122667544D01*
X169722419Y-123238972D02*
X168722419Y-122905639D01*
X168722419Y-122905639D02*
X169722419Y-122572306D01*
X168722419Y-122334210D02*
X168722419Y-121715163D01*
X168722419Y-121715163D02*
X169103371Y-122048496D01*
X169103371Y-122048496D02*
X169103371Y-121905639D01*
X169103371Y-121905639D02*
X169150990Y-121810401D01*
X169150990Y-121810401D02*
X169198609Y-121762782D01*
X169198609Y-121762782D02*
X169293847Y-121715163D01*
X169293847Y-121715163D02*
X169531942Y-121715163D01*
X169531942Y-121715163D02*
X169627180Y-121762782D01*
X169627180Y-121762782D02*
X169674800Y-121810401D01*
X169674800Y-121810401D02*
X169722419Y-121905639D01*
X169722419Y-121905639D02*
X169722419Y-122191353D01*
X169722419Y-122191353D02*
X169674800Y-122286591D01*
X169674800Y-122286591D02*
X169627180Y-122334210D01*
X141272419Y-81119925D02*
X141272419Y-81596115D01*
X141272419Y-81596115D02*
X140272419Y-81596115D01*
X141272419Y-80262782D02*
X141272419Y-80834210D01*
X141272419Y-80548496D02*
X140272419Y-80548496D01*
X140272419Y-80548496D02*
X140415276Y-80643734D01*
X140415276Y-80643734D02*
X140510514Y-80738972D01*
X140510514Y-80738972D02*
X140558133Y-80834210D01*
X140272419Y-79929448D02*
X140272419Y-79310401D01*
X140272419Y-79310401D02*
X140653371Y-79643734D01*
X140653371Y-79643734D02*
X140653371Y-79500877D01*
X140653371Y-79500877D02*
X140700990Y-79405639D01*
X140700990Y-79405639D02*
X140748609Y-79358020D01*
X140748609Y-79358020D02*
X140843847Y-79310401D01*
X140843847Y-79310401D02*
X141081942Y-79310401D01*
X141081942Y-79310401D02*
X141177180Y-79358020D01*
X141177180Y-79358020D02*
X141224800Y-79405639D01*
X141224800Y-79405639D02*
X141272419Y-79500877D01*
X141272419Y-79500877D02*
X141272419Y-79786591D01*
X141272419Y-79786591D02*
X141224800Y-79881829D01*
X141224800Y-79881829D02*
X141177180Y-79929448D01*
X136803884Y-97822419D02*
X136803884Y-96822419D01*
X136803884Y-96822419D02*
X137184836Y-96822419D01*
X137184836Y-96822419D02*
X137280074Y-96870038D01*
X137280074Y-96870038D02*
X137327693Y-96917657D01*
X137327693Y-96917657D02*
X137375312Y-97012895D01*
X137375312Y-97012895D02*
X137375312Y-97155752D01*
X137375312Y-97155752D02*
X137327693Y-97250990D01*
X137327693Y-97250990D02*
X137280074Y-97298609D01*
X137280074Y-97298609D02*
X137184836Y-97346228D01*
X137184836Y-97346228D02*
X136803884Y-97346228D01*
X137994360Y-96822419D02*
X138184836Y-96822419D01*
X138184836Y-96822419D02*
X138280074Y-96870038D01*
X138280074Y-96870038D02*
X138375312Y-96965276D01*
X138375312Y-96965276D02*
X138422931Y-97155752D01*
X138422931Y-97155752D02*
X138422931Y-97489085D01*
X138422931Y-97489085D02*
X138375312Y-97679561D01*
X138375312Y-97679561D02*
X138280074Y-97774800D01*
X138280074Y-97774800D02*
X138184836Y-97822419D01*
X138184836Y-97822419D02*
X137994360Y-97822419D01*
X137994360Y-97822419D02*
X137899122Y-97774800D01*
X137899122Y-97774800D02*
X137803884Y-97679561D01*
X137803884Y-97679561D02*
X137756265Y-97489085D01*
X137756265Y-97489085D02*
X137756265Y-97155752D01*
X137756265Y-97155752D02*
X137803884Y-96965276D01*
X137803884Y-96965276D02*
X137899122Y-96870038D01*
X137899122Y-96870038D02*
X137994360Y-96822419D01*
X138756265Y-96822419D02*
X138994360Y-97822419D01*
X138994360Y-97822419D02*
X139184836Y-97108133D01*
X139184836Y-97108133D02*
X139375312Y-97822419D01*
X139375312Y-97822419D02*
X139613408Y-96822419D01*
X139994360Y-97298609D02*
X140327693Y-97298609D01*
X140470550Y-97822419D02*
X139994360Y-97822419D01*
X139994360Y-97822419D02*
X139994360Y-96822419D01*
X139994360Y-96822419D02*
X140470550Y-96822419D01*
X141470550Y-97822419D02*
X141137217Y-97346228D01*
X140899122Y-97822419D02*
X140899122Y-96822419D01*
X140899122Y-96822419D02*
X141280074Y-96822419D01*
X141280074Y-96822419D02*
X141375312Y-96870038D01*
X141375312Y-96870038D02*
X141422931Y-96917657D01*
X141422931Y-96917657D02*
X141470550Y-97012895D01*
X141470550Y-97012895D02*
X141470550Y-97155752D01*
X141470550Y-97155752D02*
X141422931Y-97250990D01*
X141422931Y-97250990D02*
X141375312Y-97298609D01*
X141375312Y-97298609D02*
X141280074Y-97346228D01*
X141280074Y-97346228D02*
X140899122Y-97346228D01*
D11*
X164435404Y-123127287D02*
X164435404Y-122651097D01*
X164721119Y-123222525D02*
X163721119Y-122889192D01*
X163721119Y-122889192D02*
X164721119Y-122555859D01*
X164721119Y-121698716D02*
X164721119Y-122270144D01*
X164721119Y-121984430D02*
X163721119Y-121984430D01*
X163721119Y-121984430D02*
X163863976Y-122079668D01*
X163863976Y-122079668D02*
X163959214Y-122174906D01*
X163959214Y-122174906D02*
X164006833Y-122270144D01*
D10*
X166991466Y-80688972D02*
X166943847Y-80641353D01*
X166943847Y-80641353D02*
X166896228Y-80546115D01*
X166896228Y-80546115D02*
X166991466Y-80355639D01*
X166991466Y-80355639D02*
X166943847Y-80260401D01*
X166943847Y-80260401D02*
X166896228Y-80212782D01*
X166372419Y-79927067D02*
X166372419Y-79308020D01*
X166372419Y-79308020D02*
X166753371Y-79641353D01*
X166753371Y-79641353D02*
X166753371Y-79498496D01*
X166753371Y-79498496D02*
X166800990Y-79403258D01*
X166800990Y-79403258D02*
X166848609Y-79355639D01*
X166848609Y-79355639D02*
X166943847Y-79308020D01*
X166943847Y-79308020D02*
X167181942Y-79308020D01*
X167181942Y-79308020D02*
X167277180Y-79355639D01*
X167277180Y-79355639D02*
X167324800Y-79403258D01*
X167324800Y-79403258D02*
X167372419Y-79498496D01*
X167372419Y-79498496D02*
X167372419Y-79784210D01*
X167372419Y-79784210D02*
X167324800Y-79879448D01*
X167324800Y-79879448D02*
X167277180Y-79927067D01*
X147822419Y-123191353D02*
X147822419Y-122572306D01*
X147822419Y-122572306D02*
X148203371Y-122905639D01*
X148203371Y-122905639D02*
X148203371Y-122762782D01*
X148203371Y-122762782D02*
X148250990Y-122667544D01*
X148250990Y-122667544D02*
X148298609Y-122619925D01*
X148298609Y-122619925D02*
X148393847Y-122572306D01*
X148393847Y-122572306D02*
X148631942Y-122572306D01*
X148631942Y-122572306D02*
X148727180Y-122619925D01*
X148727180Y-122619925D02*
X148774800Y-122667544D01*
X148774800Y-122667544D02*
X148822419Y-122762782D01*
X148822419Y-122762782D02*
X148822419Y-123048496D01*
X148822419Y-123048496D02*
X148774800Y-123143734D01*
X148774800Y-123143734D02*
X148727180Y-123191353D01*
X148727180Y-122143734D02*
X148774800Y-122096115D01*
X148774800Y-122096115D02*
X148822419Y-122143734D01*
X148822419Y-122143734D02*
X148774800Y-122191353D01*
X148774800Y-122191353D02*
X148727180Y-122143734D01*
X148727180Y-122143734D02*
X148822419Y-122143734D01*
X147822419Y-121762782D02*
X147822419Y-121143735D01*
X147822419Y-121143735D02*
X148203371Y-121477068D01*
X148203371Y-121477068D02*
X148203371Y-121334211D01*
X148203371Y-121334211D02*
X148250990Y-121238973D01*
X148250990Y-121238973D02*
X148298609Y-121191354D01*
X148298609Y-121191354D02*
X148393847Y-121143735D01*
X148393847Y-121143735D02*
X148631942Y-121143735D01*
X148631942Y-121143735D02*
X148727180Y-121191354D01*
X148727180Y-121191354D02*
X148774800Y-121238973D01*
X148774800Y-121238973D02*
X148822419Y-121334211D01*
X148822419Y-121334211D02*
X148822419Y-121619925D01*
X148822419Y-121619925D02*
X148774800Y-121715163D01*
X148774800Y-121715163D02*
X148727180Y-121762782D01*
X147822419Y-120858020D02*
X148822419Y-120524687D01*
X148822419Y-120524687D02*
X147822419Y-120191354D01*
X143441466Y-81638972D02*
X143393847Y-81591353D01*
X143393847Y-81591353D02*
X143346228Y-81496115D01*
X143346228Y-81496115D02*
X143441466Y-81305639D01*
X143441466Y-81305639D02*
X143393847Y-81210401D01*
X143393847Y-81210401D02*
X143346228Y-81162782D01*
X143822419Y-80258020D02*
X143822419Y-80829448D01*
X143822419Y-80543734D02*
X142822419Y-80543734D01*
X142822419Y-80543734D02*
X142965276Y-80638972D01*
X142965276Y-80638972D02*
X143060514Y-80734210D01*
X143060514Y-80734210D02*
X143108133Y-80829448D01*
X142917657Y-79877067D02*
X142870038Y-79829448D01*
X142870038Y-79829448D02*
X142822419Y-79734210D01*
X142822419Y-79734210D02*
X142822419Y-79496115D01*
X142822419Y-79496115D02*
X142870038Y-79400877D01*
X142870038Y-79400877D02*
X142917657Y-79353258D01*
X142917657Y-79353258D02*
X143012895Y-79305639D01*
X143012895Y-79305639D02*
X143108133Y-79305639D01*
X143108133Y-79305639D02*
X143250990Y-79353258D01*
X143250990Y-79353258D02*
X143822419Y-79924686D01*
X143822419Y-79924686D02*
X143822419Y-79305639D01*
X174872419Y-83674687D02*
X174396228Y-84008020D01*
X174872419Y-84246115D02*
X173872419Y-84246115D01*
X173872419Y-84246115D02*
X173872419Y-83865163D01*
X173872419Y-83865163D02*
X173920038Y-83769925D01*
X173920038Y-83769925D02*
X173967657Y-83722306D01*
X173967657Y-83722306D02*
X174062895Y-83674687D01*
X174062895Y-83674687D02*
X174205752Y-83674687D01*
X174205752Y-83674687D02*
X174300990Y-83722306D01*
X174300990Y-83722306D02*
X174348609Y-83769925D01*
X174348609Y-83769925D02*
X174396228Y-83865163D01*
X174396228Y-83865163D02*
X174396228Y-84246115D01*
X173872419Y-83341353D02*
X174872419Y-82674687D01*
X173872419Y-82674687D02*
X174872419Y-83341353D01*
X174205752Y-81531830D02*
X174491466Y-82293734D01*
X174491466Y-82293734D02*
X174777180Y-81531830D01*
X174491466Y-81055639D02*
X174491466Y-80293735D01*
X173872419Y-79627068D02*
X173872419Y-79531830D01*
X173872419Y-79531830D02*
X173920038Y-79436592D01*
X173920038Y-79436592D02*
X173967657Y-79388973D01*
X173967657Y-79388973D02*
X174062895Y-79341354D01*
X174062895Y-79341354D02*
X174253371Y-79293735D01*
X174253371Y-79293735D02*
X174491466Y-79293735D01*
X174491466Y-79293735D02*
X174681942Y-79341354D01*
X174681942Y-79341354D02*
X174777180Y-79388973D01*
X174777180Y-79388973D02*
X174824800Y-79436592D01*
X174824800Y-79436592D02*
X174872419Y-79531830D01*
X174872419Y-79531830D02*
X174872419Y-79627068D01*
X174872419Y-79627068D02*
X174824800Y-79722306D01*
X174824800Y-79722306D02*
X174777180Y-79769925D01*
X174777180Y-79769925D02*
X174681942Y-79817544D01*
X174681942Y-79817544D02*
X174491466Y-79865163D01*
X174491466Y-79865163D02*
X174253371Y-79865163D01*
X174253371Y-79865163D02*
X174062895Y-79817544D01*
X174062895Y-79817544D02*
X173967657Y-79769925D01*
X173967657Y-79769925D02*
X173920038Y-79722306D01*
X173920038Y-79722306D02*
X173872419Y-79627068D01*
X125553884Y-125012475D02*
X125553884Y-124012475D01*
X125553884Y-124012475D02*
X125934836Y-124012475D01*
X125934836Y-124012475D02*
X126030074Y-124060094D01*
X126030074Y-124060094D02*
X126077693Y-124107713D01*
X126077693Y-124107713D02*
X126125312Y-124202951D01*
X126125312Y-124202951D02*
X126125312Y-124345808D01*
X126125312Y-124345808D02*
X126077693Y-124441046D01*
X126077693Y-124441046D02*
X126030074Y-124488665D01*
X126030074Y-124488665D02*
X125934836Y-124536284D01*
X125934836Y-124536284D02*
X125553884Y-124536284D01*
X126744360Y-124012475D02*
X126934836Y-124012475D01*
X126934836Y-124012475D02*
X127030074Y-124060094D01*
X127030074Y-124060094D02*
X127125312Y-124155332D01*
X127125312Y-124155332D02*
X127172931Y-124345808D01*
X127172931Y-124345808D02*
X127172931Y-124679141D01*
X127172931Y-124679141D02*
X127125312Y-124869617D01*
X127125312Y-124869617D02*
X127030074Y-124964856D01*
X127030074Y-124964856D02*
X126934836Y-125012475D01*
X126934836Y-125012475D02*
X126744360Y-125012475D01*
X126744360Y-125012475D02*
X126649122Y-124964856D01*
X126649122Y-124964856D02*
X126553884Y-124869617D01*
X126553884Y-124869617D02*
X126506265Y-124679141D01*
X126506265Y-124679141D02*
X126506265Y-124345808D01*
X126506265Y-124345808D02*
X126553884Y-124155332D01*
X126553884Y-124155332D02*
X126649122Y-124060094D01*
X126649122Y-124060094D02*
X126744360Y-124012475D01*
X127506265Y-124012475D02*
X127744360Y-125012475D01*
X127744360Y-125012475D02*
X127934836Y-124298189D01*
X127934836Y-124298189D02*
X128125312Y-125012475D01*
X128125312Y-125012475D02*
X128363408Y-124012475D01*
X128744360Y-124488665D02*
X129077693Y-124488665D01*
X129220550Y-125012475D02*
X128744360Y-125012475D01*
X128744360Y-125012475D02*
X128744360Y-124012475D01*
X128744360Y-124012475D02*
X129220550Y-124012475D01*
X130220550Y-125012475D02*
X129887217Y-124536284D01*
X129649122Y-125012475D02*
X129649122Y-124012475D01*
X129649122Y-124012475D02*
X130030074Y-124012475D01*
X130030074Y-124012475D02*
X130125312Y-124060094D01*
X130125312Y-124060094D02*
X130172931Y-124107713D01*
X130172931Y-124107713D02*
X130220550Y-124202951D01*
X130220550Y-124202951D02*
X130220550Y-124345808D01*
X130220550Y-124345808D02*
X130172931Y-124441046D01*
X130172931Y-124441046D02*
X130125312Y-124488665D01*
X130125312Y-124488665D02*
X130030074Y-124536284D01*
X130030074Y-124536284D02*
X129649122Y-124536284D01*
X125553884Y-126622419D02*
X125553884Y-125622419D01*
X125553884Y-125622419D02*
X125887217Y-126336704D01*
X125887217Y-126336704D02*
X126220550Y-125622419D01*
X126220550Y-125622419D02*
X126220550Y-126622419D01*
X126887217Y-125622419D02*
X127077693Y-125622419D01*
X127077693Y-125622419D02*
X127172931Y-125670038D01*
X127172931Y-125670038D02*
X127268169Y-125765276D01*
X127268169Y-125765276D02*
X127315788Y-125955752D01*
X127315788Y-125955752D02*
X127315788Y-126289085D01*
X127315788Y-126289085D02*
X127268169Y-126479561D01*
X127268169Y-126479561D02*
X127172931Y-126574800D01*
X127172931Y-126574800D02*
X127077693Y-126622419D01*
X127077693Y-126622419D02*
X126887217Y-126622419D01*
X126887217Y-126622419D02*
X126791979Y-126574800D01*
X126791979Y-126574800D02*
X126696741Y-126479561D01*
X126696741Y-126479561D02*
X126649122Y-126289085D01*
X126649122Y-126289085D02*
X126649122Y-125955752D01*
X126649122Y-125955752D02*
X126696741Y-125765276D01*
X126696741Y-125765276D02*
X126791979Y-125670038D01*
X126791979Y-125670038D02*
X126887217Y-125622419D01*
X127744360Y-126622419D02*
X127744360Y-125622419D01*
X127744360Y-125622419D02*
X127982455Y-125622419D01*
X127982455Y-125622419D02*
X128125312Y-125670038D01*
X128125312Y-125670038D02*
X128220550Y-125765276D01*
X128220550Y-125765276D02*
X128268169Y-125860514D01*
X128268169Y-125860514D02*
X128315788Y-126050990D01*
X128315788Y-126050990D02*
X128315788Y-126193847D01*
X128315788Y-126193847D02*
X128268169Y-126384323D01*
X128268169Y-126384323D02*
X128220550Y-126479561D01*
X128220550Y-126479561D02*
X128125312Y-126574800D01*
X128125312Y-126574800D02*
X127982455Y-126622419D01*
X127982455Y-126622419D02*
X127744360Y-126622419D01*
X128744360Y-126098609D02*
X129077693Y-126098609D01*
X129220550Y-126622419D02*
X128744360Y-126622419D01*
X128744360Y-126622419D02*
X128744360Y-125622419D01*
X128744360Y-125622419D02*
X129220550Y-125622419D01*
X173125312Y-91922419D02*
X172791979Y-91446228D01*
X172553884Y-91922419D02*
X172553884Y-90922419D01*
X172553884Y-90922419D02*
X172934836Y-90922419D01*
X172934836Y-90922419D02*
X173030074Y-90970038D01*
X173030074Y-90970038D02*
X173077693Y-91017657D01*
X173077693Y-91017657D02*
X173125312Y-91112895D01*
X173125312Y-91112895D02*
X173125312Y-91255752D01*
X173125312Y-91255752D02*
X173077693Y-91350990D01*
X173077693Y-91350990D02*
X173030074Y-91398609D01*
X173030074Y-91398609D02*
X172934836Y-91446228D01*
X172934836Y-91446228D02*
X172553884Y-91446228D01*
X173458646Y-90922419D02*
X174125312Y-91922419D01*
X174125312Y-90922419D02*
X173458646Y-91922419D01*
X114122419Y-80074687D02*
X113646228Y-80408020D01*
X114122419Y-80646115D02*
X113122419Y-80646115D01*
X113122419Y-80646115D02*
X113122419Y-80265163D01*
X113122419Y-80265163D02*
X113170038Y-80169925D01*
X113170038Y-80169925D02*
X113217657Y-80122306D01*
X113217657Y-80122306D02*
X113312895Y-80074687D01*
X113312895Y-80074687D02*
X113455752Y-80074687D01*
X113455752Y-80074687D02*
X113550990Y-80122306D01*
X113550990Y-80122306D02*
X113598609Y-80169925D01*
X113598609Y-80169925D02*
X113646228Y-80265163D01*
X113646228Y-80265163D02*
X113646228Y-80646115D01*
X113598609Y-79646115D02*
X113598609Y-79312782D01*
X114122419Y-79169925D02*
X114122419Y-79646115D01*
X114122419Y-79646115D02*
X113122419Y-79646115D01*
X113122419Y-79646115D02*
X113122419Y-79169925D01*
X114074800Y-78788972D02*
X114122419Y-78646115D01*
X114122419Y-78646115D02*
X114122419Y-78408020D01*
X114122419Y-78408020D02*
X114074800Y-78312782D01*
X114074800Y-78312782D02*
X114027180Y-78265163D01*
X114027180Y-78265163D02*
X113931942Y-78217544D01*
X113931942Y-78217544D02*
X113836704Y-78217544D01*
X113836704Y-78217544D02*
X113741466Y-78265163D01*
X113741466Y-78265163D02*
X113693847Y-78312782D01*
X113693847Y-78312782D02*
X113646228Y-78408020D01*
X113646228Y-78408020D02*
X113598609Y-78598496D01*
X113598609Y-78598496D02*
X113550990Y-78693734D01*
X113550990Y-78693734D02*
X113503371Y-78741353D01*
X113503371Y-78741353D02*
X113408133Y-78788972D01*
X113408133Y-78788972D02*
X113312895Y-78788972D01*
X113312895Y-78788972D02*
X113217657Y-78741353D01*
X113217657Y-78741353D02*
X113170038Y-78693734D01*
X113170038Y-78693734D02*
X113122419Y-78598496D01*
X113122419Y-78598496D02*
X113122419Y-78360401D01*
X113122419Y-78360401D02*
X113170038Y-78217544D01*
X113598609Y-77788972D02*
X113598609Y-77455639D01*
X114122419Y-77312782D02*
X114122419Y-77788972D01*
X114122419Y-77788972D02*
X113122419Y-77788972D01*
X113122419Y-77788972D02*
X113122419Y-77312782D01*
X113122419Y-77027067D02*
X113122419Y-76455639D01*
X114122419Y-76741353D02*
X113122419Y-76741353D01*
X159441466Y-80688972D02*
X159393847Y-80641353D01*
X159393847Y-80641353D02*
X159346228Y-80546115D01*
X159346228Y-80546115D02*
X159441466Y-80355639D01*
X159441466Y-80355639D02*
X159393847Y-80260401D01*
X159393847Y-80260401D02*
X159346228Y-80212782D01*
X158822419Y-79403258D02*
X158822419Y-79593734D01*
X158822419Y-79593734D02*
X158870038Y-79688972D01*
X158870038Y-79688972D02*
X158917657Y-79736591D01*
X158917657Y-79736591D02*
X159060514Y-79831829D01*
X159060514Y-79831829D02*
X159250990Y-79879448D01*
X159250990Y-79879448D02*
X159631942Y-79879448D01*
X159631942Y-79879448D02*
X159727180Y-79831829D01*
X159727180Y-79831829D02*
X159774800Y-79784210D01*
X159774800Y-79784210D02*
X159822419Y-79688972D01*
X159822419Y-79688972D02*
X159822419Y-79498496D01*
X159822419Y-79498496D02*
X159774800Y-79403258D01*
X159774800Y-79403258D02*
X159727180Y-79355639D01*
X159727180Y-79355639D02*
X159631942Y-79308020D01*
X159631942Y-79308020D02*
X159393847Y-79308020D01*
X159393847Y-79308020D02*
X159298609Y-79355639D01*
X159298609Y-79355639D02*
X159250990Y-79403258D01*
X159250990Y-79403258D02*
X159203371Y-79498496D01*
X159203371Y-79498496D02*
X159203371Y-79688972D01*
X159203371Y-79688972D02*
X159250990Y-79784210D01*
X159250990Y-79784210D02*
X159298609Y-79831829D01*
X159298609Y-79831829D02*
X159393847Y-79879448D01*
X131822419Y-123196115D02*
X132631942Y-123196115D01*
X132631942Y-123196115D02*
X132727180Y-123148496D01*
X132727180Y-123148496D02*
X132774800Y-123100877D01*
X132774800Y-123100877D02*
X132822419Y-123005639D01*
X132822419Y-123005639D02*
X132822419Y-122815163D01*
X132822419Y-122815163D02*
X132774800Y-122719925D01*
X132774800Y-122719925D02*
X132727180Y-122672306D01*
X132727180Y-122672306D02*
X132631942Y-122624687D01*
X132631942Y-122624687D02*
X131822419Y-122624687D01*
X132774800Y-122196115D02*
X132822419Y-122053258D01*
X132822419Y-122053258D02*
X132822419Y-121815163D01*
X132822419Y-121815163D02*
X132774800Y-121719925D01*
X132774800Y-121719925D02*
X132727180Y-121672306D01*
X132727180Y-121672306D02*
X132631942Y-121624687D01*
X132631942Y-121624687D02*
X132536704Y-121624687D01*
X132536704Y-121624687D02*
X132441466Y-121672306D01*
X132441466Y-121672306D02*
X132393847Y-121719925D01*
X132393847Y-121719925D02*
X132346228Y-121815163D01*
X132346228Y-121815163D02*
X132298609Y-122005639D01*
X132298609Y-122005639D02*
X132250990Y-122100877D01*
X132250990Y-122100877D02*
X132203371Y-122148496D01*
X132203371Y-122148496D02*
X132108133Y-122196115D01*
X132108133Y-122196115D02*
X132012895Y-122196115D01*
X132012895Y-122196115D02*
X131917657Y-122148496D01*
X131917657Y-122148496D02*
X131870038Y-122100877D01*
X131870038Y-122100877D02*
X131822419Y-122005639D01*
X131822419Y-122005639D02*
X131822419Y-121767544D01*
X131822419Y-121767544D02*
X131870038Y-121624687D01*
X132298609Y-120862782D02*
X132346228Y-120719925D01*
X132346228Y-120719925D02*
X132393847Y-120672306D01*
X132393847Y-120672306D02*
X132489085Y-120624687D01*
X132489085Y-120624687D02*
X132631942Y-120624687D01*
X132631942Y-120624687D02*
X132727180Y-120672306D01*
X132727180Y-120672306D02*
X132774800Y-120719925D01*
X132774800Y-120719925D02*
X132822419Y-120815163D01*
X132822419Y-120815163D02*
X132822419Y-121196115D01*
X132822419Y-121196115D02*
X131822419Y-121196115D01*
X131822419Y-121196115D02*
X131822419Y-120862782D01*
X131822419Y-120862782D02*
X131870038Y-120767544D01*
X131870038Y-120767544D02*
X131917657Y-120719925D01*
X131917657Y-120719925D02*
X132012895Y-120672306D01*
X132012895Y-120672306D02*
X132108133Y-120672306D01*
X132108133Y-120672306D02*
X132203371Y-120719925D01*
X132203371Y-120719925D02*
X132250990Y-120767544D01*
X132250990Y-120767544D02*
X132298609Y-120862782D01*
X132298609Y-120862782D02*
X132298609Y-121196115D01*
X137920038Y-81372306D02*
X137872419Y-81467544D01*
X137872419Y-81467544D02*
X137872419Y-81610401D01*
X137872419Y-81610401D02*
X137920038Y-81753258D01*
X137920038Y-81753258D02*
X138015276Y-81848496D01*
X138015276Y-81848496D02*
X138110514Y-81896115D01*
X138110514Y-81896115D02*
X138300990Y-81943734D01*
X138300990Y-81943734D02*
X138443847Y-81943734D01*
X138443847Y-81943734D02*
X138634323Y-81896115D01*
X138634323Y-81896115D02*
X138729561Y-81848496D01*
X138729561Y-81848496D02*
X138824800Y-81753258D01*
X138824800Y-81753258D02*
X138872419Y-81610401D01*
X138872419Y-81610401D02*
X138872419Y-81515163D01*
X138872419Y-81515163D02*
X138824800Y-81372306D01*
X138824800Y-81372306D02*
X138777180Y-81324687D01*
X138777180Y-81324687D02*
X138443847Y-81324687D01*
X138443847Y-81324687D02*
X138443847Y-81515163D01*
X138872419Y-80896115D02*
X137872419Y-80896115D01*
X137872419Y-80896115D02*
X138872419Y-80324687D01*
X138872419Y-80324687D02*
X137872419Y-80324687D01*
X138872419Y-79848496D02*
X137872419Y-79848496D01*
X137872419Y-79848496D02*
X137872419Y-79610401D01*
X137872419Y-79610401D02*
X137920038Y-79467544D01*
X137920038Y-79467544D02*
X138015276Y-79372306D01*
X138015276Y-79372306D02*
X138110514Y-79324687D01*
X138110514Y-79324687D02*
X138300990Y-79277068D01*
X138300990Y-79277068D02*
X138443847Y-79277068D01*
X138443847Y-79277068D02*
X138634323Y-79324687D01*
X138634323Y-79324687D02*
X138729561Y-79372306D01*
X138729561Y-79372306D02*
X138824800Y-79467544D01*
X138824800Y-79467544D02*
X138872419Y-79610401D01*
X138872419Y-79610401D02*
X138872419Y-79848496D01*
X161941466Y-80738972D02*
X161893847Y-80691353D01*
X161893847Y-80691353D02*
X161846228Y-80596115D01*
X161846228Y-80596115D02*
X161941466Y-80405639D01*
X161941466Y-80405639D02*
X161893847Y-80310401D01*
X161893847Y-80310401D02*
X161846228Y-80262782D01*
X161322419Y-79405639D02*
X161322419Y-79881829D01*
X161322419Y-79881829D02*
X161798609Y-79929448D01*
X161798609Y-79929448D02*
X161750990Y-79881829D01*
X161750990Y-79881829D02*
X161703371Y-79786591D01*
X161703371Y-79786591D02*
X161703371Y-79548496D01*
X161703371Y-79548496D02*
X161750990Y-79453258D01*
X161750990Y-79453258D02*
X161798609Y-79405639D01*
X161798609Y-79405639D02*
X161893847Y-79358020D01*
X161893847Y-79358020D02*
X162131942Y-79358020D01*
X162131942Y-79358020D02*
X162227180Y-79405639D01*
X162227180Y-79405639D02*
X162274800Y-79453258D01*
X162274800Y-79453258D02*
X162322419Y-79548496D01*
X162322419Y-79548496D02*
X162322419Y-79786591D01*
X162322419Y-79786591D02*
X162274800Y-79881829D01*
X162274800Y-79881829D02*
X162227180Y-79929448D01*
X137441466Y-123046115D02*
X137441466Y-122284211D01*
X137822419Y-122665163D02*
X137060514Y-122665163D01*
X136822419Y-121331830D02*
X136822419Y-121808020D01*
X136822419Y-121808020D02*
X137298609Y-121855639D01*
X137298609Y-121855639D02*
X137250990Y-121808020D01*
X137250990Y-121808020D02*
X137203371Y-121712782D01*
X137203371Y-121712782D02*
X137203371Y-121474687D01*
X137203371Y-121474687D02*
X137250990Y-121379449D01*
X137250990Y-121379449D02*
X137298609Y-121331830D01*
X137298609Y-121331830D02*
X137393847Y-121284211D01*
X137393847Y-121284211D02*
X137631942Y-121284211D01*
X137631942Y-121284211D02*
X137727180Y-121331830D01*
X137727180Y-121331830D02*
X137774800Y-121379449D01*
X137774800Y-121379449D02*
X137822419Y-121474687D01*
X137822419Y-121474687D02*
X137822419Y-121712782D01*
X137822419Y-121712782D02*
X137774800Y-121808020D01*
X137774800Y-121808020D02*
X137727180Y-121855639D01*
X136822419Y-120998496D02*
X137822419Y-120665163D01*
X137822419Y-120665163D02*
X136822419Y-120331830D01*
X171936704Y-123043734D02*
X171936704Y-122567544D01*
X172222419Y-123138972D02*
X171222419Y-122805639D01*
X171222419Y-122805639D02*
X172222419Y-122472306D01*
X171555752Y-121710401D02*
X172222419Y-121710401D01*
X171174800Y-121948496D02*
X171889085Y-122186591D01*
X171889085Y-122186591D02*
X171889085Y-121567544D01*
X131324800Y-81793734D02*
X131372419Y-81650877D01*
X131372419Y-81650877D02*
X131372419Y-81412782D01*
X131372419Y-81412782D02*
X131324800Y-81317544D01*
X131324800Y-81317544D02*
X131277180Y-81269925D01*
X131277180Y-81269925D02*
X131181942Y-81222306D01*
X131181942Y-81222306D02*
X131086704Y-81222306D01*
X131086704Y-81222306D02*
X130991466Y-81269925D01*
X130991466Y-81269925D02*
X130943847Y-81317544D01*
X130943847Y-81317544D02*
X130896228Y-81412782D01*
X130896228Y-81412782D02*
X130848609Y-81603258D01*
X130848609Y-81603258D02*
X130800990Y-81698496D01*
X130800990Y-81698496D02*
X130753371Y-81746115D01*
X130753371Y-81746115D02*
X130658133Y-81793734D01*
X130658133Y-81793734D02*
X130562895Y-81793734D01*
X130562895Y-81793734D02*
X130467657Y-81746115D01*
X130467657Y-81746115D02*
X130420038Y-81698496D01*
X130420038Y-81698496D02*
X130372419Y-81603258D01*
X130372419Y-81603258D02*
X130372419Y-81365163D01*
X130372419Y-81365163D02*
X130420038Y-81222306D01*
X131277180Y-80222306D02*
X131324800Y-80269925D01*
X131324800Y-80269925D02*
X131372419Y-80412782D01*
X131372419Y-80412782D02*
X131372419Y-80508020D01*
X131372419Y-80508020D02*
X131324800Y-80650877D01*
X131324800Y-80650877D02*
X131229561Y-80746115D01*
X131229561Y-80746115D02*
X131134323Y-80793734D01*
X131134323Y-80793734D02*
X130943847Y-80841353D01*
X130943847Y-80841353D02*
X130800990Y-80841353D01*
X130800990Y-80841353D02*
X130610514Y-80793734D01*
X130610514Y-80793734D02*
X130515276Y-80746115D01*
X130515276Y-80746115D02*
X130420038Y-80650877D01*
X130420038Y-80650877D02*
X130372419Y-80508020D01*
X130372419Y-80508020D02*
X130372419Y-80412782D01*
X130372419Y-80412782D02*
X130420038Y-80269925D01*
X130420038Y-80269925D02*
X130467657Y-80222306D01*
X131372419Y-79317544D02*
X131372419Y-79793734D01*
X131372419Y-79793734D02*
X130372419Y-79793734D01*
X174436704Y-123043734D02*
X174436704Y-122567544D01*
X174722419Y-123138972D02*
X173722419Y-122805639D01*
X173722419Y-122805639D02*
X174722419Y-122472306D01*
X173722419Y-121662782D02*
X173722419Y-122138972D01*
X173722419Y-122138972D02*
X174198609Y-122186591D01*
X174198609Y-122186591D02*
X174150990Y-122138972D01*
X174150990Y-122138972D02*
X174103371Y-122043734D01*
X174103371Y-122043734D02*
X174103371Y-121805639D01*
X174103371Y-121805639D02*
X174150990Y-121710401D01*
X174150990Y-121710401D02*
X174198609Y-121662782D01*
X174198609Y-121662782D02*
X174293847Y-121615163D01*
X174293847Y-121615163D02*
X174531942Y-121615163D01*
X174531942Y-121615163D02*
X174627180Y-121662782D01*
X174627180Y-121662782D02*
X174674800Y-121710401D01*
X174674800Y-121710401D02*
X174722419Y-121805639D01*
X174722419Y-121805639D02*
X174722419Y-122043734D01*
X174722419Y-122043734D02*
X174674800Y-122138972D01*
X174674800Y-122138972D02*
X174627180Y-122186591D01*
X142603884Y-84672419D02*
X142603884Y-83672419D01*
X142603884Y-83672419D02*
X142841979Y-83672419D01*
X142841979Y-83672419D02*
X142984836Y-83720038D01*
X142984836Y-83720038D02*
X143080074Y-83815276D01*
X143080074Y-83815276D02*
X143127693Y-83910514D01*
X143127693Y-83910514D02*
X143175312Y-84100990D01*
X143175312Y-84100990D02*
X143175312Y-84243847D01*
X143175312Y-84243847D02*
X143127693Y-84434323D01*
X143127693Y-84434323D02*
X143080074Y-84529561D01*
X143080074Y-84529561D02*
X142984836Y-84624800D01*
X142984836Y-84624800D02*
X142841979Y-84672419D01*
X142841979Y-84672419D02*
X142603884Y-84672419D01*
X143603884Y-84672419D02*
X143603884Y-83672419D01*
X144603883Y-83720038D02*
X144508645Y-83672419D01*
X144508645Y-83672419D02*
X144365788Y-83672419D01*
X144365788Y-83672419D02*
X144222931Y-83720038D01*
X144222931Y-83720038D02*
X144127693Y-83815276D01*
X144127693Y-83815276D02*
X144080074Y-83910514D01*
X144080074Y-83910514D02*
X144032455Y-84100990D01*
X144032455Y-84100990D02*
X144032455Y-84243847D01*
X144032455Y-84243847D02*
X144080074Y-84434323D01*
X144080074Y-84434323D02*
X144127693Y-84529561D01*
X144127693Y-84529561D02*
X144222931Y-84624800D01*
X144222931Y-84624800D02*
X144365788Y-84672419D01*
X144365788Y-84672419D02*
X144461026Y-84672419D01*
X144461026Y-84672419D02*
X144603883Y-84624800D01*
X144603883Y-84624800D02*
X144651502Y-84577180D01*
X144651502Y-84577180D02*
X144651502Y-84243847D01*
X144651502Y-84243847D02*
X144461026Y-84243847D01*
X145080074Y-84672419D02*
X145080074Y-83672419D01*
X145413407Y-83672419D02*
X145984835Y-83672419D01*
X145699121Y-84672419D02*
X145699121Y-83672419D01*
X146270550Y-84386704D02*
X146746740Y-84386704D01*
X146175312Y-84672419D02*
X146508645Y-83672419D01*
X146508645Y-83672419D02*
X146841978Y-84672419D01*
X147651502Y-84672419D02*
X147175312Y-84672419D01*
X147175312Y-84672419D02*
X147175312Y-83672419D01*
X150365788Y-84291466D02*
X151127693Y-84291466D01*
X154365788Y-84672419D02*
X154365788Y-83672419D01*
X154365788Y-83672419D02*
X154746740Y-83672419D01*
X154746740Y-83672419D02*
X154841978Y-83720038D01*
X154841978Y-83720038D02*
X154889597Y-83767657D01*
X154889597Y-83767657D02*
X154937216Y-83862895D01*
X154937216Y-83862895D02*
X154937216Y-84005752D01*
X154937216Y-84005752D02*
X154889597Y-84100990D01*
X154889597Y-84100990D02*
X154841978Y-84148609D01*
X154841978Y-84148609D02*
X154746740Y-84196228D01*
X154746740Y-84196228D02*
X154365788Y-84196228D01*
X155270550Y-83672419D02*
X155508645Y-84672419D01*
X155508645Y-84672419D02*
X155699121Y-83958133D01*
X155699121Y-83958133D02*
X155889597Y-84672419D01*
X155889597Y-84672419D02*
X156127693Y-83672419D01*
X156508645Y-84672419D02*
X156508645Y-83672419D01*
X156508645Y-83672419D02*
X156841978Y-84386704D01*
X156841978Y-84386704D02*
X157175311Y-83672419D01*
X157175311Y-83672419D02*
X157175311Y-84672419D01*
X157508645Y-84291466D02*
X157556264Y-84243847D01*
X157556264Y-84243847D02*
X157651502Y-84196228D01*
X157651502Y-84196228D02*
X157841978Y-84291466D01*
X157841978Y-84291466D02*
X157937216Y-84243847D01*
X157937216Y-84243847D02*
X157984835Y-84196228D01*
X152870038Y-122672306D02*
X152822419Y-122767544D01*
X152822419Y-122767544D02*
X152822419Y-122910401D01*
X152822419Y-122910401D02*
X152870038Y-123053258D01*
X152870038Y-123053258D02*
X152965276Y-123148496D01*
X152965276Y-123148496D02*
X153060514Y-123196115D01*
X153060514Y-123196115D02*
X153250990Y-123243734D01*
X153250990Y-123243734D02*
X153393847Y-123243734D01*
X153393847Y-123243734D02*
X153584323Y-123196115D01*
X153584323Y-123196115D02*
X153679561Y-123148496D01*
X153679561Y-123148496D02*
X153774800Y-123053258D01*
X153774800Y-123053258D02*
X153822419Y-122910401D01*
X153822419Y-122910401D02*
X153822419Y-122815163D01*
X153822419Y-122815163D02*
X153774800Y-122672306D01*
X153774800Y-122672306D02*
X153727180Y-122624687D01*
X153727180Y-122624687D02*
X153393847Y-122624687D01*
X153393847Y-122624687D02*
X153393847Y-122815163D01*
X153822419Y-122196115D02*
X152822419Y-122196115D01*
X152822419Y-122196115D02*
X153822419Y-121624687D01*
X153822419Y-121624687D02*
X152822419Y-121624687D01*
X153822419Y-121148496D02*
X152822419Y-121148496D01*
X152822419Y-121148496D02*
X152822419Y-120910401D01*
X152822419Y-120910401D02*
X152870038Y-120767544D01*
X152870038Y-120767544D02*
X152965276Y-120672306D01*
X152965276Y-120672306D02*
X153060514Y-120624687D01*
X153060514Y-120624687D02*
X153250990Y-120577068D01*
X153250990Y-120577068D02*
X153393847Y-120577068D01*
X153393847Y-120577068D02*
X153584323Y-120624687D01*
X153584323Y-120624687D02*
X153679561Y-120672306D01*
X153679561Y-120672306D02*
X153774800Y-120767544D01*
X153774800Y-120767544D02*
X153822419Y-120910401D01*
X153822419Y-120910401D02*
X153822419Y-121148496D01*
X155370038Y-122672306D02*
X155322419Y-122767544D01*
X155322419Y-122767544D02*
X155322419Y-122910401D01*
X155322419Y-122910401D02*
X155370038Y-123053258D01*
X155370038Y-123053258D02*
X155465276Y-123148496D01*
X155465276Y-123148496D02*
X155560514Y-123196115D01*
X155560514Y-123196115D02*
X155750990Y-123243734D01*
X155750990Y-123243734D02*
X155893847Y-123243734D01*
X155893847Y-123243734D02*
X156084323Y-123196115D01*
X156084323Y-123196115D02*
X156179561Y-123148496D01*
X156179561Y-123148496D02*
X156274800Y-123053258D01*
X156274800Y-123053258D02*
X156322419Y-122910401D01*
X156322419Y-122910401D02*
X156322419Y-122815163D01*
X156322419Y-122815163D02*
X156274800Y-122672306D01*
X156274800Y-122672306D02*
X156227180Y-122624687D01*
X156227180Y-122624687D02*
X155893847Y-122624687D01*
X155893847Y-122624687D02*
X155893847Y-122815163D01*
X156322419Y-122196115D02*
X155322419Y-122196115D01*
X155322419Y-122196115D02*
X156322419Y-121624687D01*
X156322419Y-121624687D02*
X155322419Y-121624687D01*
X156322419Y-121148496D02*
X155322419Y-121148496D01*
X155322419Y-121148496D02*
X155322419Y-120910401D01*
X155322419Y-120910401D02*
X155370038Y-120767544D01*
X155370038Y-120767544D02*
X155465276Y-120672306D01*
X155465276Y-120672306D02*
X155560514Y-120624687D01*
X155560514Y-120624687D02*
X155750990Y-120577068D01*
X155750990Y-120577068D02*
X155893847Y-120577068D01*
X155893847Y-120577068D02*
X156084323Y-120624687D01*
X156084323Y-120624687D02*
X156179561Y-120672306D01*
X156179561Y-120672306D02*
X156274800Y-120767544D01*
X156274800Y-120767544D02*
X156322419Y-120910401D01*
X156322419Y-120910401D02*
X156322419Y-121148496D01*
D12*
X138260995Y-94690976D02*
X138260995Y-90690976D01*
X138260995Y-90690976D02*
X138975281Y-90690976D01*
X138975281Y-90690976D02*
X139403852Y-90881452D01*
X139403852Y-90881452D02*
X139689567Y-91262404D01*
X139689567Y-91262404D02*
X139832424Y-91643357D01*
X139832424Y-91643357D02*
X139975281Y-92405261D01*
X139975281Y-92405261D02*
X139975281Y-92976690D01*
X139975281Y-92976690D02*
X139832424Y-93738595D01*
X139832424Y-93738595D02*
X139689567Y-94119547D01*
X139689567Y-94119547D02*
X139403852Y-94500500D01*
X139403852Y-94500500D02*
X138975281Y-94690976D01*
X138975281Y-94690976D02*
X138260995Y-94690976D01*
X141260995Y-94690976D02*
X141260995Y-90690976D01*
X143260995Y-92786214D02*
X143260995Y-94690976D01*
X142260995Y-90690976D02*
X143260995Y-92786214D01*
X143260995Y-92786214D02*
X144260995Y-90690976D01*
X147403852Y-93548119D02*
X148832424Y-93548119D01*
X147118138Y-94690976D02*
X148118138Y-90690976D01*
X148118138Y-90690976D02*
X149118138Y-94690976D01*
X151832424Y-94690976D02*
X150832424Y-92786214D01*
X150118138Y-94690976D02*
X150118138Y-90690976D01*
X150118138Y-90690976D02*
X151260995Y-90690976D01*
X151260995Y-90690976D02*
X151546710Y-90881452D01*
X151546710Y-90881452D02*
X151689567Y-91071928D01*
X151689567Y-91071928D02*
X151832424Y-91452880D01*
X151832424Y-91452880D02*
X151832424Y-92024309D01*
X151832424Y-92024309D02*
X151689567Y-92405261D01*
X151689567Y-92405261D02*
X151546710Y-92595738D01*
X151546710Y-92595738D02*
X151260995Y-92786214D01*
X151260995Y-92786214D02*
X150118138Y-92786214D01*
X153118138Y-94690976D02*
X153118138Y-90690976D01*
X153118138Y-90690976D02*
X153832424Y-90690976D01*
X153832424Y-90690976D02*
X154260995Y-90881452D01*
X154260995Y-90881452D02*
X154546710Y-91262404D01*
X154546710Y-91262404D02*
X154689567Y-91643357D01*
X154689567Y-91643357D02*
X154832424Y-92405261D01*
X154832424Y-92405261D02*
X154832424Y-92976690D01*
X154832424Y-92976690D02*
X154689567Y-93738595D01*
X154689567Y-93738595D02*
X154546710Y-94119547D01*
X154546710Y-94119547D02*
X154260995Y-94500500D01*
X154260995Y-94500500D02*
X153832424Y-94690976D01*
X153832424Y-94690976D02*
X153118138Y-94690976D01*
X156118138Y-90690976D02*
X156118138Y-93929071D01*
X156118138Y-93929071D02*
X156260995Y-94310023D01*
X156260995Y-94310023D02*
X156403853Y-94500500D01*
X156403853Y-94500500D02*
X156689567Y-94690976D01*
X156689567Y-94690976D02*
X157260995Y-94690976D01*
X157260995Y-94690976D02*
X157546710Y-94500500D01*
X157546710Y-94500500D02*
X157689567Y-94310023D01*
X157689567Y-94310023D02*
X157832424Y-93929071D01*
X157832424Y-93929071D02*
X157832424Y-90690976D01*
X159260995Y-94690976D02*
X159260995Y-90690976D01*
X160689566Y-94690976D02*
X160689566Y-90690976D01*
X160689566Y-90690976D02*
X162403852Y-94690976D01*
X162403852Y-94690976D02*
X162403852Y-90690976D01*
X164403852Y-90690976D02*
X164975280Y-90690976D01*
X164975280Y-90690976D02*
X165260995Y-90881452D01*
X165260995Y-90881452D02*
X165546709Y-91262404D01*
X165546709Y-91262404D02*
X165689566Y-92024309D01*
X165689566Y-92024309D02*
X165689566Y-93357642D01*
X165689566Y-93357642D02*
X165546709Y-94119547D01*
X165546709Y-94119547D02*
X165260995Y-94500500D01*
X165260995Y-94500500D02*
X164975280Y-94690976D01*
X164975280Y-94690976D02*
X164403852Y-94690976D01*
X164403852Y-94690976D02*
X164118138Y-94500500D01*
X164118138Y-94500500D02*
X163832423Y-94119547D01*
X163832423Y-94119547D02*
X163689566Y-93357642D01*
X163689566Y-93357642D02*
X163689566Y-92024309D01*
X163689566Y-92024309D02*
X163832423Y-91262404D01*
X163832423Y-91262404D02*
X164118138Y-90881452D01*
X164118138Y-90881452D02*
X164403852Y-90690976D01*
D10*
X174603884Y-96172419D02*
X174603884Y-95172419D01*
X175651502Y-96077180D02*
X175603883Y-96124800D01*
X175603883Y-96124800D02*
X175461026Y-96172419D01*
X175461026Y-96172419D02*
X175365788Y-96172419D01*
X175365788Y-96172419D02*
X175222931Y-96124800D01*
X175222931Y-96124800D02*
X175127693Y-96029561D01*
X175127693Y-96029561D02*
X175080074Y-95934323D01*
X175080074Y-95934323D02*
X175032455Y-95743847D01*
X175032455Y-95743847D02*
X175032455Y-95600990D01*
X175032455Y-95600990D02*
X175080074Y-95410514D01*
X175080074Y-95410514D02*
X175127693Y-95315276D01*
X175127693Y-95315276D02*
X175222931Y-95220038D01*
X175222931Y-95220038D02*
X175365788Y-95172419D01*
X175365788Y-95172419D02*
X175461026Y-95172419D01*
X175461026Y-95172419D02*
X175603883Y-95220038D01*
X175603883Y-95220038D02*
X175651502Y-95267657D01*
X176032455Y-96124800D02*
X176175312Y-96172419D01*
X176175312Y-96172419D02*
X176413407Y-96172419D01*
X176413407Y-96172419D02*
X176508645Y-96124800D01*
X176508645Y-96124800D02*
X176556264Y-96077180D01*
X176556264Y-96077180D02*
X176603883Y-95981942D01*
X176603883Y-95981942D02*
X176603883Y-95886704D01*
X176603883Y-95886704D02*
X176556264Y-95791466D01*
X176556264Y-95791466D02*
X176508645Y-95743847D01*
X176508645Y-95743847D02*
X176413407Y-95696228D01*
X176413407Y-95696228D02*
X176222931Y-95648609D01*
X176222931Y-95648609D02*
X176127693Y-95600990D01*
X176127693Y-95600990D02*
X176080074Y-95553371D01*
X176080074Y-95553371D02*
X176032455Y-95458133D01*
X176032455Y-95458133D02*
X176032455Y-95362895D01*
X176032455Y-95362895D02*
X176080074Y-95267657D01*
X176080074Y-95267657D02*
X176127693Y-95220038D01*
X176127693Y-95220038D02*
X176222931Y-95172419D01*
X176222931Y-95172419D02*
X176461026Y-95172419D01*
X176461026Y-95172419D02*
X176603883Y-95220038D01*
X177032455Y-96172419D02*
X177032455Y-95172419D01*
X177032455Y-95172419D02*
X177413407Y-95172419D01*
X177413407Y-95172419D02*
X177508645Y-95220038D01*
X177508645Y-95220038D02*
X177556264Y-95267657D01*
X177556264Y-95267657D02*
X177603883Y-95362895D01*
X177603883Y-95362895D02*
X177603883Y-95505752D01*
X177603883Y-95505752D02*
X177556264Y-95600990D01*
X177556264Y-95600990D02*
X177508645Y-95648609D01*
X177508645Y-95648609D02*
X177413407Y-95696228D01*
X177413407Y-95696228D02*
X177032455Y-95696228D01*
X151372419Y-79798496D02*
X151372419Y-79608020D01*
X151372419Y-79608020D02*
X151324800Y-79512782D01*
X151324800Y-79512782D02*
X151277180Y-79465163D01*
X151277180Y-79465163D02*
X151134323Y-79369925D01*
X151134323Y-79369925D02*
X150943847Y-79322306D01*
X150943847Y-79322306D02*
X150562895Y-79322306D01*
X150562895Y-79322306D02*
X150467657Y-79369925D01*
X150467657Y-79369925D02*
X150420038Y-79417544D01*
X150420038Y-79417544D02*
X150372419Y-79512782D01*
X150372419Y-79512782D02*
X150372419Y-79703258D01*
X150372419Y-79703258D02*
X150420038Y-79798496D01*
X150420038Y-79798496D02*
X150467657Y-79846115D01*
X150467657Y-79846115D02*
X150562895Y-79893734D01*
X150562895Y-79893734D02*
X150800990Y-79893734D01*
X150800990Y-79893734D02*
X150896228Y-79846115D01*
X150896228Y-79846115D02*
X150943847Y-79798496D01*
X150943847Y-79798496D02*
X150991466Y-79703258D01*
X150991466Y-79703258D02*
X150991466Y-79512782D01*
X150991466Y-79512782D02*
X150943847Y-79417544D01*
X150943847Y-79417544D02*
X150896228Y-79369925D01*
X150896228Y-79369925D02*
X150800990Y-79322306D01*
D13*
X138711905Y-83754819D02*
X138711905Y-82754819D01*
X138711905Y-82754819D02*
X138950000Y-82754819D01*
X138950000Y-82754819D02*
X139092857Y-82802438D01*
X139092857Y-82802438D02*
X139188095Y-82897676D01*
X139188095Y-82897676D02*
X139235714Y-82992914D01*
X139235714Y-82992914D02*
X139283333Y-83183390D01*
X139283333Y-83183390D02*
X139283333Y-83326247D01*
X139283333Y-83326247D02*
X139235714Y-83516723D01*
X139235714Y-83516723D02*
X139188095Y-83611961D01*
X139188095Y-83611961D02*
X139092857Y-83707200D01*
X139092857Y-83707200D02*
X138950000Y-83754819D01*
X138950000Y-83754819D02*
X138711905Y-83754819D01*
X140188095Y-82754819D02*
X139711905Y-82754819D01*
X139711905Y-82754819D02*
X139664286Y-83231009D01*
X139664286Y-83231009D02*
X139711905Y-83183390D01*
X139711905Y-83183390D02*
X139807143Y-83135771D01*
X139807143Y-83135771D02*
X140045238Y-83135771D01*
X140045238Y-83135771D02*
X140140476Y-83183390D01*
X140140476Y-83183390D02*
X140188095Y-83231009D01*
X140188095Y-83231009D02*
X140235714Y-83326247D01*
X140235714Y-83326247D02*
X140235714Y-83564342D01*
X140235714Y-83564342D02*
X140188095Y-83659580D01*
X140188095Y-83659580D02*
X140140476Y-83707200D01*
X140140476Y-83707200D02*
X140045238Y-83754819D01*
X140045238Y-83754819D02*
X139807143Y-83754819D01*
X139807143Y-83754819D02*
X139711905Y-83707200D01*
X139711905Y-83707200D02*
X139664286Y-83659580D01*
X159983333Y-105859580D02*
X159935714Y-105907200D01*
X159935714Y-105907200D02*
X159792857Y-105954819D01*
X159792857Y-105954819D02*
X159697619Y-105954819D01*
X159697619Y-105954819D02*
X159554762Y-105907200D01*
X159554762Y-105907200D02*
X159459524Y-105811961D01*
X159459524Y-105811961D02*
X159411905Y-105716723D01*
X159411905Y-105716723D02*
X159364286Y-105526247D01*
X159364286Y-105526247D02*
X159364286Y-105383390D01*
X159364286Y-105383390D02*
X159411905Y-105192914D01*
X159411905Y-105192914D02*
X159459524Y-105097676D01*
X159459524Y-105097676D02*
X159554762Y-105002438D01*
X159554762Y-105002438D02*
X159697619Y-104954819D01*
X159697619Y-104954819D02*
X159792857Y-104954819D01*
X159792857Y-104954819D02*
X159935714Y-105002438D01*
X159935714Y-105002438D02*
X159983333Y-105050057D01*
X160935714Y-105954819D02*
X160364286Y-105954819D01*
X160650000Y-105954819D02*
X160650000Y-104954819D01*
X160650000Y-104954819D02*
X160554762Y-105097676D01*
X160554762Y-105097676D02*
X160459524Y-105192914D01*
X160459524Y-105192914D02*
X160364286Y-105240533D01*
D10*
X134883333Y-106662180D02*
X134835714Y-106709800D01*
X134835714Y-106709800D02*
X134692857Y-106757419D01*
X134692857Y-106757419D02*
X134597619Y-106757419D01*
X134597619Y-106757419D02*
X134454762Y-106709800D01*
X134454762Y-106709800D02*
X134359524Y-106614561D01*
X134359524Y-106614561D02*
X134311905Y-106519323D01*
X134311905Y-106519323D02*
X134264286Y-106328847D01*
X134264286Y-106328847D02*
X134264286Y-106185990D01*
X134264286Y-106185990D02*
X134311905Y-105995514D01*
X134311905Y-105995514D02*
X134359524Y-105900276D01*
X134359524Y-105900276D02*
X134454762Y-105805038D01*
X134454762Y-105805038D02*
X134597619Y-105757419D01*
X134597619Y-105757419D02*
X134692857Y-105757419D01*
X134692857Y-105757419D02*
X134835714Y-105805038D01*
X134835714Y-105805038D02*
X134883333Y-105852657D01*
X135740476Y-106090752D02*
X135740476Y-106757419D01*
X135502381Y-105709800D02*
X135264286Y-106424085D01*
X135264286Y-106424085D02*
X135883333Y-106424085D01*
X130511905Y-118157419D02*
X130511905Y-117157419D01*
X130511905Y-117157419D02*
X130750000Y-117157419D01*
X130750000Y-117157419D02*
X130892857Y-117205038D01*
X130892857Y-117205038D02*
X130988095Y-117300276D01*
X130988095Y-117300276D02*
X131035714Y-117395514D01*
X131035714Y-117395514D02*
X131083333Y-117585990D01*
X131083333Y-117585990D02*
X131083333Y-117728847D01*
X131083333Y-117728847D02*
X131035714Y-117919323D01*
X131035714Y-117919323D02*
X130988095Y-118014561D01*
X130988095Y-118014561D02*
X130892857Y-118109800D01*
X130892857Y-118109800D02*
X130750000Y-118157419D01*
X130750000Y-118157419D02*
X130511905Y-118157419D01*
X132035714Y-118157419D02*
X131464286Y-118157419D01*
X131750000Y-118157419D02*
X131750000Y-117157419D01*
X131750000Y-117157419D02*
X131654762Y-117300276D01*
X131654762Y-117300276D02*
X131559524Y-117395514D01*
X131559524Y-117395514D02*
X131464286Y-117443133D01*
X130183333Y-83757419D02*
X129850000Y-83281228D01*
X129611905Y-83757419D02*
X129611905Y-82757419D01*
X129611905Y-82757419D02*
X129992857Y-82757419D01*
X129992857Y-82757419D02*
X130088095Y-82805038D01*
X130088095Y-82805038D02*
X130135714Y-82852657D01*
X130135714Y-82852657D02*
X130183333Y-82947895D01*
X130183333Y-82947895D02*
X130183333Y-83090752D01*
X130183333Y-83090752D02*
X130135714Y-83185990D01*
X130135714Y-83185990D02*
X130088095Y-83233609D01*
X130088095Y-83233609D02*
X129992857Y-83281228D01*
X129992857Y-83281228D02*
X129611905Y-83281228D01*
X130516667Y-82757419D02*
X131135714Y-82757419D01*
X131135714Y-82757419D02*
X130802381Y-83138371D01*
X130802381Y-83138371D02*
X130945238Y-83138371D01*
X130945238Y-83138371D02*
X131040476Y-83185990D01*
X131040476Y-83185990D02*
X131088095Y-83233609D01*
X131088095Y-83233609D02*
X131135714Y-83328847D01*
X131135714Y-83328847D02*
X131135714Y-83566942D01*
X131135714Y-83566942D02*
X131088095Y-83662180D01*
X131088095Y-83662180D02*
X131040476Y-83709800D01*
X131040476Y-83709800D02*
X130945238Y-83757419D01*
X130945238Y-83757419D02*
X130659524Y-83757419D01*
X130659524Y-83757419D02*
X130564286Y-83709800D01*
X130564286Y-83709800D02*
X130516667Y-83662180D01*
X134883333Y-112662180D02*
X134835714Y-112709800D01*
X134835714Y-112709800D02*
X134692857Y-112757419D01*
X134692857Y-112757419D02*
X134597619Y-112757419D01*
X134597619Y-112757419D02*
X134454762Y-112709800D01*
X134454762Y-112709800D02*
X134359524Y-112614561D01*
X134359524Y-112614561D02*
X134311905Y-112519323D01*
X134311905Y-112519323D02*
X134264286Y-112328847D01*
X134264286Y-112328847D02*
X134264286Y-112185990D01*
X134264286Y-112185990D02*
X134311905Y-111995514D01*
X134311905Y-111995514D02*
X134359524Y-111900276D01*
X134359524Y-111900276D02*
X134454762Y-111805038D01*
X134454762Y-111805038D02*
X134597619Y-111757419D01*
X134597619Y-111757419D02*
X134692857Y-111757419D01*
X134692857Y-111757419D02*
X134835714Y-111805038D01*
X134835714Y-111805038D02*
X134883333Y-111852657D01*
X135788095Y-111757419D02*
X135311905Y-111757419D01*
X135311905Y-111757419D02*
X135264286Y-112233609D01*
X135264286Y-112233609D02*
X135311905Y-112185990D01*
X135311905Y-112185990D02*
X135407143Y-112138371D01*
X135407143Y-112138371D02*
X135645238Y-112138371D01*
X135645238Y-112138371D02*
X135740476Y-112185990D01*
X135740476Y-112185990D02*
X135788095Y-112233609D01*
X135788095Y-112233609D02*
X135835714Y-112328847D01*
X135835714Y-112328847D02*
X135835714Y-112566942D01*
X135835714Y-112566942D02*
X135788095Y-112662180D01*
X135788095Y-112662180D02*
X135740476Y-112709800D01*
X135740476Y-112709800D02*
X135645238Y-112757419D01*
X135645238Y-112757419D02*
X135407143Y-112757419D01*
X135407143Y-112757419D02*
X135311905Y-112709800D01*
X135311905Y-112709800D02*
X135264286Y-112662180D01*
X128783333Y-112662180D02*
X128735714Y-112709800D01*
X128735714Y-112709800D02*
X128592857Y-112757419D01*
X128592857Y-112757419D02*
X128497619Y-112757419D01*
X128497619Y-112757419D02*
X128354762Y-112709800D01*
X128354762Y-112709800D02*
X128259524Y-112614561D01*
X128259524Y-112614561D02*
X128211905Y-112519323D01*
X128211905Y-112519323D02*
X128164286Y-112328847D01*
X128164286Y-112328847D02*
X128164286Y-112185990D01*
X128164286Y-112185990D02*
X128211905Y-111995514D01*
X128211905Y-111995514D02*
X128259524Y-111900276D01*
X128259524Y-111900276D02*
X128354762Y-111805038D01*
X128354762Y-111805038D02*
X128497619Y-111757419D01*
X128497619Y-111757419D02*
X128592857Y-111757419D01*
X128592857Y-111757419D02*
X128735714Y-111805038D01*
X128735714Y-111805038D02*
X128783333Y-111852657D01*
X129640476Y-111757419D02*
X129450000Y-111757419D01*
X129450000Y-111757419D02*
X129354762Y-111805038D01*
X129354762Y-111805038D02*
X129307143Y-111852657D01*
X129307143Y-111852657D02*
X129211905Y-111995514D01*
X129211905Y-111995514D02*
X129164286Y-112185990D01*
X129164286Y-112185990D02*
X129164286Y-112566942D01*
X129164286Y-112566942D02*
X129211905Y-112662180D01*
X129211905Y-112662180D02*
X129259524Y-112709800D01*
X129259524Y-112709800D02*
X129354762Y-112757419D01*
X129354762Y-112757419D02*
X129545238Y-112757419D01*
X129545238Y-112757419D02*
X129640476Y-112709800D01*
X129640476Y-112709800D02*
X129688095Y-112662180D01*
X129688095Y-112662180D02*
X129735714Y-112566942D01*
X129735714Y-112566942D02*
X129735714Y-112328847D01*
X129735714Y-112328847D02*
X129688095Y-112233609D01*
X129688095Y-112233609D02*
X129640476Y-112185990D01*
X129640476Y-112185990D02*
X129545238Y-112138371D01*
X129545238Y-112138371D02*
X129354762Y-112138371D01*
X129354762Y-112138371D02*
X129259524Y-112185990D01*
X129259524Y-112185990D02*
X129211905Y-112233609D01*
X129211905Y-112233609D02*
X129164286Y-112328847D01*
D13*
X159883333Y-100859580D02*
X159835714Y-100907200D01*
X159835714Y-100907200D02*
X159692857Y-100954819D01*
X159692857Y-100954819D02*
X159597619Y-100954819D01*
X159597619Y-100954819D02*
X159454762Y-100907200D01*
X159454762Y-100907200D02*
X159359524Y-100811961D01*
X159359524Y-100811961D02*
X159311905Y-100716723D01*
X159311905Y-100716723D02*
X159264286Y-100526247D01*
X159264286Y-100526247D02*
X159264286Y-100383390D01*
X159264286Y-100383390D02*
X159311905Y-100192914D01*
X159311905Y-100192914D02*
X159359524Y-100097676D01*
X159359524Y-100097676D02*
X159454762Y-100002438D01*
X159454762Y-100002438D02*
X159597619Y-99954819D01*
X159597619Y-99954819D02*
X159692857Y-99954819D01*
X159692857Y-99954819D02*
X159835714Y-100002438D01*
X159835714Y-100002438D02*
X159883333Y-100050057D01*
X160264286Y-100050057D02*
X160311905Y-100002438D01*
X160311905Y-100002438D02*
X160407143Y-99954819D01*
X160407143Y-99954819D02*
X160645238Y-99954819D01*
X160645238Y-99954819D02*
X160740476Y-100002438D01*
X160740476Y-100002438D02*
X160788095Y-100050057D01*
X160788095Y-100050057D02*
X160835714Y-100145295D01*
X160835714Y-100145295D02*
X160835714Y-100240533D01*
X160835714Y-100240533D02*
X160788095Y-100383390D01*
X160788095Y-100383390D02*
X160216667Y-100954819D01*
X160216667Y-100954819D02*
X160835714Y-100954819D01*
D10*
X129683333Y-100957419D02*
X129350000Y-100481228D01*
X129111905Y-100957419D02*
X129111905Y-99957419D01*
X129111905Y-99957419D02*
X129492857Y-99957419D01*
X129492857Y-99957419D02*
X129588095Y-100005038D01*
X129588095Y-100005038D02*
X129635714Y-100052657D01*
X129635714Y-100052657D02*
X129683333Y-100147895D01*
X129683333Y-100147895D02*
X129683333Y-100290752D01*
X129683333Y-100290752D02*
X129635714Y-100385990D01*
X129635714Y-100385990D02*
X129588095Y-100433609D01*
X129588095Y-100433609D02*
X129492857Y-100481228D01*
X129492857Y-100481228D02*
X129111905Y-100481228D01*
X130064286Y-100052657D02*
X130111905Y-100005038D01*
X130111905Y-100005038D02*
X130207143Y-99957419D01*
X130207143Y-99957419D02*
X130445238Y-99957419D01*
X130445238Y-99957419D02*
X130540476Y-100005038D01*
X130540476Y-100005038D02*
X130588095Y-100052657D01*
X130588095Y-100052657D02*
X130635714Y-100147895D01*
X130635714Y-100147895D02*
X130635714Y-100243133D01*
X130635714Y-100243133D02*
X130588095Y-100385990D01*
X130588095Y-100385990D02*
X130016667Y-100957419D01*
X130016667Y-100957419D02*
X130635714Y-100957419D01*
D13*
X167371905Y-88854819D02*
X167371905Y-87854819D01*
X167371905Y-87854819D02*
X167610000Y-87854819D01*
X167610000Y-87854819D02*
X167752857Y-87902438D01*
X167752857Y-87902438D02*
X167848095Y-87997676D01*
X167848095Y-87997676D02*
X167895714Y-88092914D01*
X167895714Y-88092914D02*
X167943333Y-88283390D01*
X167943333Y-88283390D02*
X167943333Y-88426247D01*
X167943333Y-88426247D02*
X167895714Y-88616723D01*
X167895714Y-88616723D02*
X167848095Y-88711961D01*
X167848095Y-88711961D02*
X167752857Y-88807200D01*
X167752857Y-88807200D02*
X167610000Y-88854819D01*
X167610000Y-88854819D02*
X167371905Y-88854819D01*
X168800476Y-88188152D02*
X168800476Y-88854819D01*
X168562381Y-87807200D02*
X168324286Y-88521485D01*
X168324286Y-88521485D02*
X168943333Y-88521485D01*
D10*
X128833333Y-106662180D02*
X128785714Y-106709800D01*
X128785714Y-106709800D02*
X128642857Y-106757419D01*
X128642857Y-106757419D02*
X128547619Y-106757419D01*
X128547619Y-106757419D02*
X128404762Y-106709800D01*
X128404762Y-106709800D02*
X128309524Y-106614561D01*
X128309524Y-106614561D02*
X128261905Y-106519323D01*
X128261905Y-106519323D02*
X128214286Y-106328847D01*
X128214286Y-106328847D02*
X128214286Y-106185990D01*
X128214286Y-106185990D02*
X128261905Y-105995514D01*
X128261905Y-105995514D02*
X128309524Y-105900276D01*
X128309524Y-105900276D02*
X128404762Y-105805038D01*
X128404762Y-105805038D02*
X128547619Y-105757419D01*
X128547619Y-105757419D02*
X128642857Y-105757419D01*
X128642857Y-105757419D02*
X128785714Y-105805038D01*
X128785714Y-105805038D02*
X128833333Y-105852657D01*
X129166667Y-105757419D02*
X129785714Y-105757419D01*
X129785714Y-105757419D02*
X129452381Y-106138371D01*
X129452381Y-106138371D02*
X129595238Y-106138371D01*
X129595238Y-106138371D02*
X129690476Y-106185990D01*
X129690476Y-106185990D02*
X129738095Y-106233609D01*
X129738095Y-106233609D02*
X129785714Y-106328847D01*
X129785714Y-106328847D02*
X129785714Y-106566942D01*
X129785714Y-106566942D02*
X129738095Y-106662180D01*
X129738095Y-106662180D02*
X129690476Y-106709800D01*
X129690476Y-106709800D02*
X129595238Y-106757419D01*
X129595238Y-106757419D02*
X129309524Y-106757419D01*
X129309524Y-106757419D02*
X129214286Y-106709800D01*
X129214286Y-106709800D02*
X129166667Y-106662180D01*
X130183333Y-87457419D02*
X129850000Y-86981228D01*
X129611905Y-87457419D02*
X129611905Y-86457419D01*
X129611905Y-86457419D02*
X129992857Y-86457419D01*
X129992857Y-86457419D02*
X130088095Y-86505038D01*
X130088095Y-86505038D02*
X130135714Y-86552657D01*
X130135714Y-86552657D02*
X130183333Y-86647895D01*
X130183333Y-86647895D02*
X130183333Y-86790752D01*
X130183333Y-86790752D02*
X130135714Y-86885990D01*
X130135714Y-86885990D02*
X130088095Y-86933609D01*
X130088095Y-86933609D02*
X129992857Y-86981228D01*
X129992857Y-86981228D02*
X129611905Y-86981228D01*
X131135714Y-87457419D02*
X130564286Y-87457419D01*
X130850000Y-87457419D02*
X130850000Y-86457419D01*
X130850000Y-86457419D02*
X130754762Y-86600276D01*
X130754762Y-86600276D02*
X130659524Y-86695514D01*
X130659524Y-86695514D02*
X130564286Y-86743133D01*
D13*
X138311905Y-101054819D02*
X138311905Y-100054819D01*
X138311905Y-100054819D02*
X138550000Y-100054819D01*
X138550000Y-100054819D02*
X138692857Y-100102438D01*
X138692857Y-100102438D02*
X138788095Y-100197676D01*
X138788095Y-100197676D02*
X138835714Y-100292914D01*
X138835714Y-100292914D02*
X138883333Y-100483390D01*
X138883333Y-100483390D02*
X138883333Y-100626247D01*
X138883333Y-100626247D02*
X138835714Y-100816723D01*
X138835714Y-100816723D02*
X138788095Y-100911961D01*
X138788095Y-100911961D02*
X138692857Y-101007200D01*
X138692857Y-101007200D02*
X138550000Y-101054819D01*
X138550000Y-101054819D02*
X138311905Y-101054819D01*
X139264286Y-100150057D02*
X139311905Y-100102438D01*
X139311905Y-100102438D02*
X139407143Y-100054819D01*
X139407143Y-100054819D02*
X139645238Y-100054819D01*
X139645238Y-100054819D02*
X139740476Y-100102438D01*
X139740476Y-100102438D02*
X139788095Y-100150057D01*
X139788095Y-100150057D02*
X139835714Y-100245295D01*
X139835714Y-100245295D02*
X139835714Y-100340533D01*
X139835714Y-100340533D02*
X139788095Y-100483390D01*
X139788095Y-100483390D02*
X139216667Y-101054819D01*
X139216667Y-101054819D02*
X139835714Y-101054819D01*
D10*
X152473809Y-102881228D02*
X152473809Y-103357419D01*
X152140476Y-102357419D02*
X152473809Y-102881228D01*
X152473809Y-102881228D02*
X152807142Y-102357419D01*
X153664285Y-103357419D02*
X153092857Y-103357419D01*
X153378571Y-103357419D02*
X153378571Y-102357419D01*
X153378571Y-102357419D02*
X153283333Y-102500276D01*
X153283333Y-102500276D02*
X153188095Y-102595514D01*
X153188095Y-102595514D02*
X153092857Y-102643133D01*
D13*
X172541905Y-88854819D02*
X172541905Y-87854819D01*
X172541905Y-87854819D02*
X172780000Y-87854819D01*
X172780000Y-87854819D02*
X172922857Y-87902438D01*
X172922857Y-87902438D02*
X173018095Y-87997676D01*
X173018095Y-87997676D02*
X173065714Y-88092914D01*
X173065714Y-88092914D02*
X173113333Y-88283390D01*
X173113333Y-88283390D02*
X173113333Y-88426247D01*
X173113333Y-88426247D02*
X173065714Y-88616723D01*
X173065714Y-88616723D02*
X173018095Y-88711961D01*
X173018095Y-88711961D02*
X172922857Y-88807200D01*
X172922857Y-88807200D02*
X172780000Y-88854819D01*
X172780000Y-88854819D02*
X172541905Y-88854819D01*
X173446667Y-87854819D02*
X174065714Y-87854819D01*
X174065714Y-87854819D02*
X173732381Y-88235771D01*
X173732381Y-88235771D02*
X173875238Y-88235771D01*
X173875238Y-88235771D02*
X173970476Y-88283390D01*
X173970476Y-88283390D02*
X174018095Y-88331009D01*
X174018095Y-88331009D02*
X174065714Y-88426247D01*
X174065714Y-88426247D02*
X174065714Y-88664342D01*
X174065714Y-88664342D02*
X174018095Y-88759580D01*
X174018095Y-88759580D02*
X173970476Y-88807200D01*
X173970476Y-88807200D02*
X173875238Y-88854819D01*
X173875238Y-88854819D02*
X173589524Y-88854819D01*
X173589524Y-88854819D02*
X173494286Y-88807200D01*
X173494286Y-88807200D02*
X173446667Y-88759580D01*
%TO.C,SW1*%
D10*
X114900000Y-75350000D02*
X122300000Y-75350000D01*
X122300000Y-81750000D01*
X114900000Y-81750000D01*
X114900000Y-75350000D01*
D14*
%TO.C,D5*%
X137890000Y-82064000D02*
X137890000Y-82220000D01*
X137890000Y-84380000D02*
X137890000Y-84536000D01*
X137890000Y-82064484D02*
G75*
G02*
X141121397Y-82219939I1560000J-1235516D01*
G01*
X138409039Y-82220000D02*
G75*
G02*
X140490910Y-82219951I1040961J-1080000D01*
G01*
X140490910Y-84380049D02*
G75*
G02*
X138409039Y-84380000I-1040910J1080049D01*
G01*
X141121397Y-84380061D02*
G75*
G02*
X137890000Y-84535516I-1671397J1080061D01*
G01*
%TO.C,C1*%
X157680000Y-104130000D02*
X157680000Y-104445000D01*
X157680000Y-104130000D02*
X162620000Y-104130000D01*
X157680000Y-106555000D02*
X157680000Y-106870000D01*
X157680000Y-106870000D02*
X162620000Y-106870000D01*
X162620000Y-104130000D02*
X162620000Y-104445000D01*
X162620000Y-106555000D02*
X162620000Y-106870000D01*
%TO.C,J1*%
D10*
X160350000Y-123800000D02*
X175850000Y-123800000D01*
X175850000Y-126800000D01*
X160350000Y-126800000D01*
X160350000Y-123800000D01*
%TO.C,C4*%
X137650000Y-106250000D02*
G75*
G02*
X132450000Y-106250000I-2600000J0D01*
G01*
X132450000Y-106250000D02*
G75*
G02*
X137650000Y-106250000I2600000J0D01*
G01*
%TO.C,D1*%
X124750000Y-116200000D02*
X137750000Y-116200000D01*
X137750000Y-119200000D01*
X124750000Y-119200000D01*
X124750000Y-116200000D01*
%TO.C,R3*%
X136850000Y-84800000D02*
X123850000Y-84800000D01*
X123850000Y-81800000D01*
X136850000Y-81800000D01*
X136850000Y-84800000D01*
%TO.C,C5*%
X137650000Y-112250000D02*
G75*
G02*
X132450000Y-112250000I-2600000J0D01*
G01*
X132450000Y-112250000D02*
G75*
G02*
X137650000Y-112250000I2600000J0D01*
G01*
%TO.C,C6*%
X131550000Y-112250000D02*
G75*
G02*
X126350000Y-112250000I-2600000J0D01*
G01*
X126350000Y-112250000D02*
G75*
G02*
X131550000Y-112250000I2600000J0D01*
G01*
D14*
%TO.C,C2*%
X157630000Y-99130000D02*
X157630000Y-99445000D01*
X157630000Y-99130000D02*
X162570000Y-99130000D01*
X157630000Y-101555000D02*
X157630000Y-101870000D01*
X157630000Y-101870000D02*
X162570000Y-101870000D01*
X162570000Y-99130000D02*
X162570000Y-99445000D01*
X162570000Y-101555000D02*
X162570000Y-101870000D01*
%TO.C,J3*%
D10*
X129350000Y-75800000D02*
X154850000Y-75800000D01*
X154850000Y-78800000D01*
X129350000Y-78800000D01*
X129350000Y-75800000D01*
D14*
%TO.C,U2*%
X127390000Y-91090000D02*
X128115000Y-91090000D01*
X127390000Y-91815000D02*
X127390000Y-91090000D01*
X127390000Y-95585000D02*
X127390000Y-96310000D01*
X127390000Y-96310000D02*
X128115000Y-96310000D01*
X131885000Y-91090000D02*
X132370000Y-91090000D01*
X132610000Y-91815000D02*
X132610000Y-91390000D01*
X132610000Y-95585000D02*
X132610000Y-96310000D01*
X132610000Y-96310000D02*
X131885000Y-96310000D01*
X132940000Y-91330000D02*
X132610000Y-91090000D01*
X132940000Y-90850000D01*
X132940000Y-91330000D01*
G36*
X132940000Y-91330000D02*
G01*
X132610000Y-91090000D01*
X132940000Y-90850000D01*
X132940000Y-91330000D01*
G37*
%TO.C,R2*%
D10*
X123350000Y-99000000D02*
X136350000Y-99000000D01*
X136350000Y-102000000D01*
X123350000Y-102000000D01*
X123350000Y-99000000D01*
%TO.C,J6*%
X130850000Y-123800000D02*
X138850000Y-123800000D01*
X138850000Y-126800000D01*
X130850000Y-126800000D01*
X130850000Y-123800000D01*
D14*
%TO.C,D4*%
X169670000Y-87320000D02*
X169670000Y-87164000D01*
X169670000Y-89636000D02*
X169670000Y-89480000D01*
X166438603Y-87319939D02*
G75*
G02*
X169670000Y-87164484I1671397J-1080061D01*
G01*
X167069090Y-87319951D02*
G75*
G02*
X169150961Y-87320000I1040910J-1080049D01*
G01*
X169150961Y-89480000D02*
G75*
G02*
X167069090Y-89480049I-1040961J1080000D01*
G01*
X169670000Y-89635516D02*
G75*
G02*
X166438603Y-89480061I-1560000J1235516D01*
G01*
%TO.C,J2*%
D10*
X175900000Y-78800000D02*
X155400000Y-78800000D01*
X155400000Y-75800000D01*
X175900000Y-75800000D01*
X175900000Y-78800000D01*
%TO.C,J7*%
X139350000Y-123800000D02*
X159850000Y-123800000D01*
X159850000Y-126800000D01*
X139350000Y-126800000D01*
X139350000Y-123800000D01*
%TO.C,C3*%
X131600000Y-106250000D02*
G75*
G02*
X126400000Y-106250000I-2600000J0D01*
G01*
X126400000Y-106250000D02*
G75*
G02*
X131600000Y-106250000I2600000J0D01*
G01*
D14*
%TO.C,U3*%
X112980000Y-103190000D02*
X117621000Y-103190000D01*
X112980000Y-106459000D02*
X114490000Y-106459000D01*
X112980000Y-110160000D02*
X114490000Y-110160000D01*
X112980000Y-113430000D02*
X112980000Y-103190000D01*
X112980000Y-113430000D02*
X117621000Y-113430000D01*
X114490000Y-113430000D02*
X114490000Y-103190000D01*
X117621000Y-113430000D02*
X117621000Y-103190000D01*
%TO.C,R1*%
D10*
X123850000Y-85500000D02*
X136850000Y-85500000D01*
X136850000Y-88500000D01*
X123850000Y-88500000D01*
X123850000Y-85500000D01*
D14*
%TO.C,D2*%
X140540000Y-99420000D02*
X140540000Y-99264000D01*
X140540000Y-101736000D02*
X140540000Y-101580000D01*
X137308603Y-99419939D02*
G75*
G02*
X140540000Y-99264484I1671397J-1080061D01*
G01*
X137939090Y-99419951D02*
G75*
G02*
X140020961Y-99420000I1040910J-1080049D01*
G01*
X140020961Y-101580000D02*
G75*
G02*
X137939090Y-101580049I-1040961J1080000D01*
G01*
X140540000Y-101735516D02*
G75*
G02*
X137308603Y-101580061I-1560000J1235516D01*
G01*
D10*
%TO.C,Y1*%
X150500000Y-105500000D02*
X150500000Y-100500000D01*
X155300000Y-100500000D02*
X155300000Y-105500000D01*
X150500000Y-100500000D02*
G75*
G02*
X155300000Y-100500000I2400000J0D01*
G01*
X155300000Y-105500000D02*
G75*
G02*
X150500000Y-105500000I-2400000J0D01*
G01*
D14*
%TO.C,U1*%
X140030000Y-111060000D02*
X140030000Y-116360000D01*
X140030000Y-116360000D02*
X175710000Y-116360000D01*
X175710000Y-111060000D02*
X140030000Y-111060000D01*
X175710000Y-112710000D02*
X175710000Y-111060000D01*
X175710000Y-116360000D02*
X175710000Y-114710000D01*
X175710000Y-114710000D02*
G75*
G02*
X175710000Y-112710000I0J1000000D01*
G01*
%TO.C,J8*%
X105440000Y-85620000D02*
X113800000Y-85620000D01*
X105440000Y-97940000D02*
X105440000Y-85620000D01*
X113800000Y-97940000D02*
X105440000Y-97940000D01*
X117900000Y-97940000D02*
X122160000Y-97940000D01*
X122160000Y-85620000D02*
X117900000Y-85620000D01*
X122160000Y-97940000D02*
X122160000Y-85620000D01*
X122380000Y-93030000D02*
X122880000Y-93530000D01*
X122880000Y-92530000D02*
X122380000Y-93030000D01*
X122880000Y-93530000D02*
X122880000Y-92530000D01*
%TO.C,J4*%
D10*
X173150000Y-104900000D02*
X178650000Y-104900000D01*
X178650000Y-96900000D01*
X173150000Y-96900000D01*
X173150000Y-104900000D01*
D14*
%TO.C,J5*%
X108350000Y-115792500D02*
X123050000Y-115792500D01*
X108350000Y-124992500D02*
X108350000Y-115792500D01*
X117150000Y-124992500D02*
X108350000Y-124992500D01*
X122200000Y-115592500D02*
X123250000Y-115592500D01*
X123050000Y-115792500D02*
X123050000Y-118392500D01*
X123050000Y-122292500D02*
X123050000Y-124992500D01*
X123050000Y-124992500D02*
X121150000Y-124992500D01*
X123250000Y-116642500D02*
X123250000Y-115592500D01*
%TO.C,D3*%
X171720000Y-87164000D02*
X171720000Y-87320000D01*
X171720000Y-89480000D02*
X171720000Y-89636000D01*
X171720000Y-87164484D02*
G75*
G02*
X174951397Y-87319939I1560000J-1235516D01*
G01*
X172239039Y-87320000D02*
G75*
G02*
X174320910Y-87319951I1040961J-1080000D01*
G01*
X174320910Y-89480049D02*
G75*
G02*
X172239039Y-89480000I-1040910J1080049D01*
G01*
X174951397Y-89480061D02*
G75*
G02*
X171720000Y-89635516I-1671397J1080061D01*
G01*
%TD*%
M02*
