%TF.GenerationSoftware,KiCad,Pcbnew,8.0.7*%
%TF.CreationDate,2025-08-15T01:06:22+02:00*%
%TF.ProjectId,Arduino,41726475-696e-46f2-9e6b-696361645f70,rev?*%
%TF.SameCoordinates,Original*%
%TF.FileFunction,Copper,L2,Bot*%
%TF.FilePolarity,Positive*%
%FSLAX46Y46*%
G04 Gerber Fmt 4.6, Leading zero omitted, Abs format (unit mm)*
G04 Created by KiCad (PCBNEW 8.0.7) date 2025-08-15 01:06:22*
%MOMM*%
%LPD*%
G01*
G04 APERTURE LIST*
G04 Aperture macros list*
%AMRoundRect*
0 Rectangle with rounded corners*
0 $1 Rounding radius*
0 $2 $3 $4 $5 $6 $7 $8 $9 X,Y pos of 4 corners*
0 Add a 4 corners polygon primitive as box body*
4,1,4,$2,$3,$4,$5,$6,$7,$8,$9,$2,$3,0*
0 Add four circle primitives for the rounded corners*
1,1,$1+$1,$2,$3*
1,1,$1+$1,$4,$5*
1,1,$1+$1,$6,$7*
1,1,$1+$1,$8,$9*
0 Add four rect primitives between the rounded corners*
20,1,$1+$1,$2,$3,$4,$5,0*
20,1,$1+$1,$4,$5,$6,$7,0*
20,1,$1+$1,$6,$7,$8,$9,0*
20,1,$1+$1,$8,$9,$2,$3,0*%
G04 Aperture macros list end*
%TA.AperFunction,ComponentPad*%
%ADD10R,1.800000X1.800000*%
%TD*%
%TA.AperFunction,ComponentPad*%
%ADD11C,1.800000*%
%TD*%
%TA.AperFunction,ComponentPad*%
%ADD12C,1.600000*%
%TD*%
%TA.AperFunction,ComponentPad*%
%ADD13C,1.524000*%
%TD*%
%TA.AperFunction,ComponentPad*%
%ADD14R,2.000000X1.905000*%
%TD*%
%TA.AperFunction,ComponentPad*%
%ADD15O,2.000000X1.905000*%
%TD*%
%TA.AperFunction,ComponentPad*%
%ADD16R,1.600000X1.600000*%
%TD*%
%TA.AperFunction,ComponentPad*%
%ADD17O,1.600000X1.600000*%
%TD*%
%TA.AperFunction,ComponentPad*%
%ADD18R,1.700000X1.700000*%
%TD*%
%TA.AperFunction,ComponentPad*%
%ADD19C,1.700000*%
%TD*%
%TA.AperFunction,ComponentPad*%
%ADD20C,3.500000*%
%TD*%
%TA.AperFunction,ComponentPad*%
%ADD21R,3.500000X3.500000*%
%TD*%
%TA.AperFunction,ComponentPad*%
%ADD22RoundRect,0.750000X-0.750000X-1.000000X0.750000X-1.000000X0.750000X1.000000X-0.750000X1.000000X0*%
%TD*%
%TA.AperFunction,ComponentPad*%
%ADD23RoundRect,0.875000X-0.875000X-0.875000X0.875000X-0.875000X0.875000X0.875000X-0.875000X0.875000X0*%
%TD*%
%TA.AperFunction,ViaPad*%
%ADD24C,0.600000*%
%TD*%
%TA.AperFunction,Conductor*%
%ADD25C,0.250000*%
%TD*%
%TA.AperFunction,Conductor*%
%ADD26C,0.500000*%
%TD*%
%TA.AperFunction,Conductor*%
%ADD27C,0.700000*%
%TD*%
%TA.AperFunction,Conductor*%
%ADD28C,0.200000*%
%TD*%
G04 APERTURE END LIST*
D10*
%TO.P,D5,1,K*%
%TO.N,Net-(D5-K)*%
X129330000Y-79000000D03*
D11*
%TO.P,D5,2,A*%
%TO.N,Net-(D5-A)*%
X131870000Y-79000000D03*
%TD*%
D12*
%TO.P,C1,1*%
%TO.N,Net-(U1-XTAL1{slash}PB6)*%
X148800000Y-101200000D03*
%TO.P,C1,2*%
%TO.N,GND*%
X153800000Y-101200000D03*
%TD*%
D13*
%TO.P,J1,1,Pin_1*%
%TO.N,Net-(J1-Pin_1)*%
X153000000Y-121000000D03*
%TO.P,J1,2,Pin_2*%
%TO.N,Net-(J1-Pin_2)*%
X155500000Y-121000000D03*
%TO.P,J1,3,Pin_3*%
%TO.N,Net-(J1-Pin_3)*%
X158000000Y-121000000D03*
%TO.P,J1,4,Pin_4*%
%TO.N,Net-(J1-Pin_4)*%
X160500000Y-121000000D03*
%TO.P,J1,5,Pin_5*%
%TO.N,/SDA*%
X163000000Y-121000000D03*
%TO.P,J1,6,Pin_6*%
%TO.N,/SCL*%
X165500000Y-121000000D03*
%TD*%
%TO.P,C4,1*%
%TO.N,VCC*%
X125200000Y-101950000D03*
%TO.P,C4,2*%
%TO.N,GND*%
X127200000Y-101950000D03*
%TD*%
%TO.P,D1,1,K*%
%TO.N,Net-(D1-K)*%
X117400000Y-113400000D03*
%TO.P,D1,2,A*%
%TO.N,/VIN*%
X127400000Y-113400000D03*
%TD*%
%TO.P,R3,1*%
%TO.N,Net-(D5-K)*%
X126500000Y-79000000D03*
%TO.P,R3,2*%
%TO.N,GND*%
X116500000Y-79000000D03*
%TD*%
%TO.P,C5,1*%
%TO.N,Net-(D1-K)*%
X125200000Y-107950000D03*
%TO.P,C5,2*%
%TO.N,GND*%
X127200000Y-107950000D03*
%TD*%
%TO.P,C6,2*%
%TO.N,GND*%
X121100000Y-107950000D03*
%TO.P,C6,1*%
%TO.N,Net-(D1-K)*%
X119100000Y-107950000D03*
%TD*%
D12*
%TO.P,C2,1*%
%TO.N,Net-(U1-XTAL2{slash}PB7)*%
X148750000Y-96200000D03*
%TO.P,C2,2*%
%TO.N,GND*%
X153750000Y-96200000D03*
%TD*%
D13*
%TO.P,J3,1,Pin_1*%
%TO.N,/SCL*%
X122000000Y-73000000D03*
%TO.P,J3,2,Pin_2*%
%TO.N,/SDA*%
X124500000Y-73000000D03*
%TO.P,J3,3,Pin_3*%
%TO.N,unconnected-(J3-Pin_3-Pad3)*%
X127000000Y-73000000D03*
%TO.P,J3,4,Pin_4*%
%TO.N,GND*%
X129500000Y-73000000D03*
%TO.P,J3,5,Pin_5*%
%TO.N,Net-(D5-A)*%
X132000000Y-73000000D03*
%TO.P,J3,6,Pin_6*%
%TO.N,Net-(J3-Pin_6)*%
X134500000Y-73000000D03*
%TO.P,J3,7,Pin_7*%
%TO.N,Net-(J3-Pin_7)*%
X137000000Y-73000000D03*
%TO.P,J3,8,Pin_8*%
%TO.N,Net-(J3-Pin_8)*%
X139500000Y-73000000D03*
%TO.P,J3,9,Pin_9*%
%TO.N,Net-(J3-Pin_9)*%
X142000000Y-73000000D03*
%TO.P,J3,10,Pin_10*%
%TO.N,Net-(J3-Pin_10)*%
X144500000Y-73000000D03*
%TD*%
%TO.P,R2,1*%
%TO.N,VCC*%
X116000000Y-96200000D03*
%TO.P,R2,2*%
%TO.N,Net-(D2-A)*%
X126000000Y-96200000D03*
%TD*%
%TO.P,J6,1,Pin_1*%
%TO.N,/USB_5V*%
X123500000Y-121000000D03*
%TO.P,J6,2,Pin_2*%
%TO.N,VCC*%
X126000000Y-121000000D03*
%TO.P,J6,3,Pin_3*%
%TO.N,/+5V*%
X128500000Y-121000000D03*
%TD*%
D10*
%TO.P,D4,1,K*%
%TO.N,/TXD*%
X160530000Y-84100000D03*
D11*
%TO.P,D4,2,A*%
%TO.N,Net-(D4-A)*%
X157990000Y-84100000D03*
%TD*%
D13*
%TO.P,J2,1,Pin_1*%
%TO.N,/RXD*%
X165550000Y-73000000D03*
%TO.P,J2,2,Pin_2*%
%TO.N,/TXD*%
X163050000Y-73000000D03*
%TO.P,J2,3,Pin_3*%
%TO.N,Net-(J2-Pin_3)*%
X160550000Y-73000000D03*
%TO.P,J2,4,Pin_4*%
%TO.N,Net-(J2-Pin_4)*%
X158050000Y-73000000D03*
%TO.P,J2,5,Pin_5*%
%TO.N,Net-(J2-Pin_5)*%
X155550000Y-73000000D03*
%TO.P,J2,6,Pin_6*%
%TO.N,Net-(J2-Pin_6)*%
X153050000Y-73000000D03*
%TO.P,J2,7,Pin_7*%
%TO.N,Net-(J2-Pin_7)*%
X150550000Y-73000000D03*
%TO.P,J2,8,Pin_8*%
%TO.N,Net-(J2-Pin_8)*%
X148050000Y-73000000D03*
%TD*%
%TO.P,J7,1,Pin_1*%
%TO.N,unconnected-(J7-Pin_1-Pad1)*%
X132000000Y-121000000D03*
%TO.P,J7,2,Pin_2*%
%TO.N,unconnected-(J7-Pin_2-Pad2)*%
X134500000Y-121000000D03*
%TO.P,J7,3,Pin_3*%
%TO.N,/RST*%
X137000000Y-121000000D03*
%TO.P,J7,4,Pin_4*%
%TO.N,/+3.3V*%
X139500000Y-121000000D03*
%TO.P,J7,5,Pin_5*%
%TO.N,VCC*%
X142000000Y-121000000D03*
%TO.P,J7,6,Pin_6*%
%TO.N,GND*%
X144500000Y-121000000D03*
%TO.P,J7,7,Pin_7*%
X147000000Y-121000000D03*
%TO.P,J7,8,Pin_8*%
%TO.N,/VIN*%
X149500000Y-121000000D03*
%TD*%
%TO.P,C3,1*%
%TO.N,VCC*%
X119150000Y-101950000D03*
%TO.P,C3,2*%
%TO.N,GND*%
X121150000Y-101950000D03*
%TD*%
D14*
%TO.P,U3,1,VI*%
%TO.N,Net-(D1-K)*%
X107400000Y-106550000D03*
D15*
%TO.P,U3,2,GND*%
%TO.N,GND*%
X107400000Y-104010000D03*
%TO.P,U3,3,VO*%
%TO.N,/+5V*%
X107400000Y-101470000D03*
%TD*%
D13*
%TO.P,R1,1*%
%TO.N,/RST*%
X116500000Y-82700000D03*
%TO.P,R1,2*%
%TO.N,VCC*%
X126500000Y-82700000D03*
%TD*%
D10*
%TO.P,D2,1,K*%
%TO.N,GND*%
X131400000Y-96200000D03*
D11*
%TO.P,D2,2,A*%
%TO.N,Net-(D2-A)*%
X128860000Y-96200000D03*
%TD*%
D13*
%TO.P,SW1,1,A*%
%TO.N,/RST*%
X107000000Y-72000000D03*
%TO.P,SW1,2,B*%
%TO.N,GND*%
X112500000Y-72000000D03*
%TO.P,SW1,3*%
%TO.N,N/C*%
X112500000Y-76500000D03*
%TO.P,SW1,4*%
X107050000Y-76500000D03*
%TD*%
%TO.P,Y1,1,1*%
%TO.N,Net-(U1-XTAL2{slash}PB7)*%
X144050000Y-96200000D03*
%TO.P,Y1,2,2*%
%TO.N,Net-(U1-XTAL1{slash}PB6)*%
X144050000Y-101200000D03*
%TD*%
D16*
%TO.P,U1,1,~{RESET}/PC6*%
%TO.N,/RST*%
X165530000Y-105600000D03*
D17*
%TO.P,U1,2,PD0*%
%TO.N,Net-(D3-K)*%
X162990000Y-105600000D03*
%TO.P,U1,3,PD1*%
%TO.N,Net-(D4-A)*%
X160450000Y-105600000D03*
%TO.P,U1,4,PD2*%
%TO.N,Net-(J2-Pin_3)*%
X157910000Y-105600000D03*
%TO.P,U1,5,PD3*%
%TO.N,Net-(J2-Pin_4)*%
X155370000Y-105600000D03*
%TO.P,U1,6,PD4*%
%TO.N,Net-(J2-Pin_5)*%
X152830000Y-105600000D03*
%TO.P,U1,7,VCC*%
%TO.N,VCC*%
X150290000Y-105600000D03*
%TO.P,U1,8,GND*%
%TO.N,GND*%
X147750000Y-105600000D03*
%TO.P,U1,9,XTAL1/PB6*%
%TO.N,Net-(U1-XTAL1{slash}PB6)*%
X145210000Y-105600000D03*
%TO.P,U1,10,XTAL2/PB7*%
%TO.N,Net-(U1-XTAL2{slash}PB7)*%
X142670000Y-105600000D03*
%TO.P,U1,11,PD5*%
%TO.N,Net-(J2-Pin_6)*%
X140130000Y-105600000D03*
%TO.P,U1,12,PD6*%
%TO.N,Net-(J2-Pin_7)*%
X137590000Y-105600000D03*
%TO.P,U1,13,PD7*%
%TO.N,Net-(J2-Pin_8)*%
X135050000Y-105600000D03*
%TO.P,U1,14,PB0*%
%TO.N,Net-(D5-A)*%
X132510000Y-105600000D03*
%TO.P,U1,15,PB1*%
%TO.N,Net-(J3-Pin_6)*%
X132510000Y-113220000D03*
%TO.P,U1,16,PB2*%
%TO.N,Net-(J3-Pin_7)*%
X135050000Y-113220000D03*
%TO.P,U1,17,PB3*%
%TO.N,Net-(J3-Pin_8)*%
X137590000Y-113220000D03*
%TO.P,U1,18,PB4*%
%TO.N,Net-(J3-Pin_9)*%
X140130000Y-113220000D03*
%TO.P,U1,19,PB5*%
%TO.N,Net-(J3-Pin_10)*%
X142670000Y-113220000D03*
%TO.P,U1,20,AVCC*%
%TO.N,VCC*%
X145210000Y-113220000D03*
%TO.P,U1,21,AREF*%
X147750000Y-113220000D03*
%TO.P,U1,22,GND*%
%TO.N,GND*%
X150290000Y-113220000D03*
%TO.P,U1,23,PC0*%
%TO.N,Net-(J1-Pin_1)*%
X152830000Y-113220000D03*
%TO.P,U1,24,PC1*%
%TO.N,Net-(J1-Pin_2)*%
X155370000Y-113220000D03*
%TO.P,U1,25,PC2*%
%TO.N,Net-(J1-Pin_3)*%
X157910000Y-113220000D03*
%TO.P,U1,26,PC3*%
%TO.N,Net-(J1-Pin_4)*%
X160450000Y-113220000D03*
%TO.P,U1,27,PC4*%
%TO.N,/SDA*%
X162990000Y-113220000D03*
%TO.P,U1,28,PC5*%
%TO.N,/SCL*%
X165530000Y-113220000D03*
%TD*%
D18*
%TO.P,J8,1,VBUS*%
%TO.N,/USB_5V*%
X111710000Y-88730000D03*
D19*
%TO.P,J8,2,D-*%
%TO.N,Net-(J8-D-)*%
X111710000Y-86230000D03*
%TO.P,J8,3,D+*%
%TO.N,Net-(J8-D+)*%
X109710000Y-86230000D03*
%TO.P,J8,4,GND*%
%TO.N,GND*%
X109710000Y-88730000D03*
D20*
%TO.P,J8,5,Shield*%
X107000000Y-93500000D03*
X107000000Y-81460000D03*
%TD*%
D13*
%TO.P,J4,1,Pin_1*%
%TO.N,Net-(J3-Pin_9)*%
X165800000Y-99100000D03*
%TO.P,J4,2,Pin_2*%
%TO.N,VCC*%
X165800000Y-96600000D03*
%TO.P,J4,3,Pin_3*%
%TO.N,Net-(J3-Pin_10)*%
X165800000Y-94100000D03*
%TO.P,J4,4,Pin_4*%
%TO.N,Net-(J3-Pin_8)*%
X168300000Y-99100000D03*
%TO.P,J4,5,Pin_5*%
%TO.N,/RST*%
X168300000Y-96600000D03*
%TO.P,J4,6,Pin_6*%
%TO.N,GND*%
X168300000Y-94100000D03*
%TD*%
D21*
%TO.P,J5,1*%
%TO.N,/VIN*%
X113300000Y-116092500D03*
D22*
%TO.P,J5,2*%
%TO.N,GND*%
X107300000Y-116092500D03*
D23*
%TO.P,J5,3*%
X110300000Y-120792500D03*
%TD*%
D10*
%TO.P,D3,1,K*%
%TO.N,Net-(D3-K)*%
X163160000Y-84100000D03*
D11*
%TO.P,D3,2,A*%
%TO.N,/RXD*%
X165700000Y-84100000D03*
%TD*%
D24*
%TO.N,GND*%
X151200000Y-85000000D03*
%TO.N,Net-(J2-Pin_6)*%
X140100000Y-89400000D03*
%TO.N,Net-(J2-Pin_7)*%
X137600000Y-89300000D03*
%TO.N,Net-(J2-Pin_8)*%
X135100000Y-89300000D03*
%TO.N,Net-(J3-Pin_8)*%
X156600000Y-115800000D03*
%TO.N,Net-(J3-Pin_9)*%
X151500000Y-115300000D03*
%TO.N,/TXD*%
X154700000Y-89900000D03*
X153300000Y-91300000D03*
%TO.N,/RST*%
X128000000Y-89237251D03*
%TO.N,/+3.3V*%
X111400000Y-101900000D03*
%TD*%
D25*
%TO.N,/SDA*%
X170100000Y-106110000D02*
X162990000Y-113220000D01*
X166372466Y-89397466D02*
X169975000Y-93000000D01*
X170100000Y-93000000D02*
X170100000Y-106110000D01*
X166372466Y-87477325D02*
X166372466Y-89397466D01*
X166000251Y-71913000D02*
X167000000Y-72912749D01*
X125587000Y-71913000D02*
X166000251Y-71913000D01*
X169975000Y-93000000D02*
X170100000Y-93000000D01*
X167000000Y-86849791D02*
X166372466Y-87477325D01*
X167000000Y-72912749D02*
X167000000Y-86849791D01*
X124500000Y-73000000D02*
X125587000Y-71913000D01*
%TO.N,Net-(J3-Pin_7)*%
X136465000Y-73535000D02*
X137000000Y-73000000D01*
X136465000Y-111805000D02*
X136465000Y-73535000D01*
X135050000Y-113220000D02*
X136465000Y-111805000D01*
%TO.N,Net-(J3-Pin_6)*%
X133738001Y-111991999D02*
X132510000Y-113220000D01*
X133738001Y-73761999D02*
X133738001Y-111991999D01*
X134500000Y-73000000D02*
X133738001Y-73761999D01*
%TO.N,Net-(J2-Pin_6)*%
X140130000Y-89430000D02*
X140130000Y-105600000D01*
X140100000Y-89400000D02*
X140130000Y-89430000D01*
%TO.N,Net-(J2-Pin_7)*%
X137590000Y-89810000D02*
X137590000Y-105600000D01*
X137600000Y-89800000D02*
X137590000Y-89810000D01*
X137600000Y-89300000D02*
X137600000Y-89800000D01*
%TO.N,Net-(J2-Pin_8)*%
X135050000Y-89350000D02*
X135050000Y-105600000D01*
X135100000Y-89300000D02*
X135050000Y-89350000D01*
D26*
%TO.N,Net-(D5-A)*%
X132770000Y-79900000D02*
X132770000Y-105340000D01*
X132770000Y-105340000D02*
X132510000Y-105600000D01*
X131870000Y-79000000D02*
X132770000Y-79900000D01*
D25*
%TO.N,Net-(J3-Pin_8)*%
X141255000Y-74755000D02*
X141255000Y-109555000D01*
X139500000Y-73000000D02*
X141255000Y-74755000D01*
X141255000Y-109555000D02*
X137590000Y-113220000D01*
%TO.N,Net-(J3-Pin_9)*%
X144085000Y-102702251D02*
X145137000Y-101650251D01*
X145137000Y-76137000D02*
X142000000Y-73000000D01*
X140130000Y-113220000D02*
X144085000Y-109265000D01*
X144085000Y-109265000D02*
X144085000Y-102702251D01*
X145137000Y-101650251D02*
X145137000Y-76137000D01*
%TO.N,Net-(J3-Pin_10)*%
X146625000Y-75125000D02*
X144500000Y-73000000D01*
X146625000Y-109265000D02*
X146625000Y-75125000D01*
X142670000Y-113220000D02*
X146625000Y-109265000D01*
%TO.N,Net-(J2-Pin_5)*%
X155550000Y-102880000D02*
X155550000Y-73000000D01*
X152830000Y-105600000D02*
X155550000Y-102880000D01*
%TO.N,Net-(J2-Pin_4)*%
X156050000Y-103200000D02*
X155370000Y-103880000D01*
X156050000Y-75000000D02*
X156050000Y-103200000D01*
X158050000Y-73000000D02*
X156050000Y-75000000D01*
X155370000Y-103880000D02*
X155370000Y-105600000D01*
%TO.N,Net-(J2-Pin_3)*%
X160550000Y-77050000D02*
X160550000Y-73000000D01*
X156500000Y-104190000D02*
X156500000Y-81100000D01*
X157910000Y-105600000D02*
X156500000Y-104190000D01*
X156500000Y-81100000D02*
X160550000Y-77050000D01*
%TO.N,Net-(J3-Pin_8)*%
X156075000Y-115925000D02*
X140295000Y-115925000D01*
X156200000Y-115800000D02*
X156075000Y-115925000D01*
X156600000Y-115800000D02*
X156200000Y-115800000D01*
X140295000Y-115925000D02*
X137590000Y-113220000D01*
%TO.N,Net-(J3-Pin_9)*%
X142210000Y-115300000D02*
X140130000Y-113220000D01*
X151500000Y-115300000D02*
X142210000Y-115300000D01*
%TO.N,Net-(J3-Pin_10)*%
X143795000Y-114345000D02*
X142670000Y-113220000D01*
X155835991Y-114345000D02*
X143795000Y-114345000D01*
X156500000Y-113680991D02*
X155835991Y-114345000D01*
X156500000Y-113039009D02*
X156500000Y-113680991D01*
X157444009Y-112095000D02*
X156500000Y-113039009D01*
X158085991Y-112095000D02*
X157444009Y-112095000D01*
X164115000Y-106065991D02*
X158085991Y-112095000D01*
X165800000Y-94100000D02*
X164115000Y-95785000D01*
X164115000Y-95785000D02*
X164115000Y-106065991D01*
%TO.N,/RST*%
X166887000Y-104243000D02*
X165530000Y-105600000D01*
X166887000Y-98013000D02*
X166887000Y-104243000D01*
X168300000Y-96600000D02*
X166887000Y-98013000D01*
X138087000Y-119913000D02*
X137000000Y-121000000D01*
X139950251Y-119913000D02*
X138087000Y-119913000D01*
X140587000Y-120549749D02*
X139950251Y-119913000D01*
X140587000Y-121450251D02*
X140587000Y-120549749D01*
X141223749Y-122087000D02*
X140587000Y-121450251D01*
X149950251Y-122087000D02*
X141223749Y-122087000D01*
X154112251Y-117925000D02*
X149950251Y-122087000D01*
X155438251Y-117925000D02*
X154112251Y-117925000D01*
X159035000Y-112095000D02*
X159035000Y-114328251D01*
X159035000Y-114328251D02*
X155438251Y-117925000D01*
X165530000Y-105600000D02*
X159035000Y-112095000D01*
%TO.N,Net-(D3-K)*%
X163160000Y-105430000D02*
X162990000Y-105600000D01*
X163160000Y-84100000D02*
X163160000Y-105430000D01*
%TO.N,Net-(D4-A)*%
X157990000Y-103140000D02*
X160450000Y-105600000D01*
X157990000Y-84100000D02*
X157990000Y-103140000D01*
%TO.N,/TXD*%
X153300000Y-91300000D02*
X154700000Y-89900000D01*
%TO.N,/RST*%
X132375749Y-119913000D02*
X135913000Y-119913000D01*
X123949573Y-111486824D02*
X132375749Y-119913000D01*
X128000000Y-89237251D02*
X123949573Y-93287678D01*
X128000000Y-82500000D02*
X128000000Y-89237251D01*
X123949573Y-93287678D02*
X123949573Y-111486824D01*
X127113000Y-81613000D02*
X128000000Y-82500000D01*
X135913000Y-119913000D02*
X137000000Y-121000000D01*
X117587000Y-81613000D02*
X127113000Y-81613000D01*
X116500000Y-82700000D02*
X117587000Y-81613000D01*
X107000000Y-73200000D02*
X116500000Y-82700000D01*
X107000000Y-72000000D02*
X107000000Y-73200000D01*
%TO.N,/+3.3V*%
X138413000Y-122087000D02*
X139500000Y-121000000D01*
X111400000Y-101900000D02*
X111400000Y-101937251D01*
X111400000Y-101937251D02*
X131549749Y-122087000D01*
X131549749Y-122087000D02*
X138413000Y-122087000D01*
D27*
%TO.N,VCC*%
X116000000Y-93200000D02*
X126500000Y-82700000D01*
X116000000Y-96200000D02*
X116000000Y-93200000D01*
D26*
%TO.N,GND*%
X127200000Y-100400000D02*
X131400000Y-96200000D01*
X127200000Y-101950000D02*
X127200000Y-100400000D01*
D27*
%TO.N,VCC*%
X147750000Y-108140000D02*
X150290000Y-105600000D01*
X147750000Y-113220000D02*
X147750000Y-108140000D01*
%TO.N,/USB_5V*%
X105800000Y-107900000D02*
X111000000Y-113100000D01*
X111710000Y-94987644D02*
X105800000Y-100897644D01*
X111710000Y-88730000D02*
X111710000Y-94987644D01*
X105800000Y-100897644D02*
X105800000Y-107900000D01*
X111000000Y-113100000D02*
X114907500Y-113100000D01*
X114907500Y-113100000D02*
X122807500Y-121000000D01*
X122807500Y-121000000D02*
X123500000Y-121000000D01*
%TO.N,/+5V*%
X108970000Y-101470000D02*
X128500000Y-121000000D01*
X107400000Y-101470000D02*
X108970000Y-101470000D01*
%TO.N,/VIN*%
X147100000Y-118600000D02*
X132600000Y-118600000D01*
X132600000Y-118600000D02*
X127400000Y-113400000D01*
X149500000Y-121000000D02*
X147100000Y-118600000D01*
D28*
%TO.N,Net-(D5-A)*%
X132600000Y-105510000D02*
X132510000Y-105600000D01*
%TD*%
%TA.AperFunction,Conductor*%
%TO.N,GND*%
G36*
X106081730Y-70920185D02*
G01*
X106127485Y-70972989D01*
X106137429Y-71042147D01*
X106108404Y-71105703D01*
X106102372Y-71112181D01*
X106029175Y-71185377D01*
X105902466Y-71366338D01*
X105902465Y-71366340D01*
X105809107Y-71566548D01*
X105809104Y-71566554D01*
X105751930Y-71779929D01*
X105751929Y-71779937D01*
X105732677Y-71999997D01*
X105732677Y-72000002D01*
X105751929Y-72220062D01*
X105751930Y-72220070D01*
X105809104Y-72433445D01*
X105809105Y-72433447D01*
X105809106Y-72433450D01*
X105902346Y-72633405D01*
X105902466Y-72633662D01*
X105902468Y-72633666D01*
X106029170Y-72814615D01*
X106029175Y-72814621D01*
X106185378Y-72970824D01*
X106185384Y-72970829D01*
X106227043Y-72999999D01*
X106300937Y-73051740D01*
X106321623Y-73066224D01*
X106365248Y-73120801D01*
X106374500Y-73167799D01*
X106374500Y-73261611D01*
X106398535Y-73382444D01*
X106398540Y-73382461D01*
X106445685Y-73496280D01*
X106445686Y-73496282D01*
X106445688Y-73496286D01*
X106459755Y-73517338D01*
X106473726Y-73538248D01*
X106473727Y-73538249D01*
X106473728Y-73538250D01*
X106514142Y-73598733D01*
X106514145Y-73598736D01*
X106514148Y-73598740D01*
X106605586Y-73690178D01*
X106605608Y-73690198D01*
X115231613Y-82316203D01*
X115265098Y-82377526D01*
X115263707Y-82435976D01*
X115251931Y-82479926D01*
X115251930Y-82479933D01*
X115232677Y-82699997D01*
X115232677Y-82700002D01*
X115251929Y-82920062D01*
X115251930Y-82920070D01*
X115309104Y-83133445D01*
X115309105Y-83133447D01*
X115309106Y-83133450D01*
X115317816Y-83152128D01*
X115402466Y-83333662D01*
X115402468Y-83333666D01*
X115529170Y-83514615D01*
X115529175Y-83514621D01*
X115685378Y-83670824D01*
X115685384Y-83670829D01*
X115866333Y-83797531D01*
X115866335Y-83797532D01*
X115866338Y-83797534D01*
X116066550Y-83890894D01*
X116279932Y-83948070D01*
X116437123Y-83961822D01*
X116499998Y-83967323D01*
X116500000Y-83967323D01*
X116500002Y-83967323D01*
X116559346Y-83962131D01*
X116720068Y-83948070D01*
X116933450Y-83890894D01*
X117133662Y-83797534D01*
X117314620Y-83670826D01*
X117470826Y-83514620D01*
X117597534Y-83333662D01*
X117690894Y-83133450D01*
X117748070Y-82920068D01*
X117766806Y-82705908D01*
X117767323Y-82700002D01*
X117767323Y-82699997D01*
X117757474Y-82587419D01*
X117748070Y-82479932D01*
X117736292Y-82435976D01*
X117737955Y-82366128D01*
X117768388Y-82316201D01*
X117809774Y-82274817D01*
X117871098Y-82241333D01*
X117897453Y-82238500D01*
X125155022Y-82238500D01*
X125222061Y-82258185D01*
X125267816Y-82310989D01*
X125277760Y-82380147D01*
X125274798Y-82394585D01*
X125263708Y-82435976D01*
X125251930Y-82479930D01*
X125251929Y-82479937D01*
X125232677Y-82699997D01*
X125232677Y-82700004D01*
X125232829Y-82701742D01*
X125232677Y-82702498D01*
X125232677Y-82705413D01*
X125232091Y-82705413D01*
X125219061Y-82770242D01*
X125196982Y-82800228D01*
X115339375Y-92657834D01*
X115339372Y-92657838D01*
X115246299Y-92797130D01*
X115246292Y-92797143D01*
X115200962Y-92906583D01*
X115182185Y-92951913D01*
X115182182Y-92951925D01*
X115149500Y-93116228D01*
X115149500Y-95213691D01*
X115129815Y-95280730D01*
X115113181Y-95301372D01*
X115029175Y-95385377D01*
X114902466Y-95566338D01*
X114902465Y-95566340D01*
X114809107Y-95766548D01*
X114809104Y-95766554D01*
X114751930Y-95979929D01*
X114751929Y-95979937D01*
X114732677Y-96199997D01*
X114732677Y-96200002D01*
X114751929Y-96420062D01*
X114751930Y-96420070D01*
X114809104Y-96633445D01*
X114809105Y-96633447D01*
X114809106Y-96633450D01*
X114819762Y-96656301D01*
X114902466Y-96833662D01*
X114902468Y-96833666D01*
X115029170Y-97014615D01*
X115029175Y-97014621D01*
X115185378Y-97170824D01*
X115185384Y-97170829D01*
X115366333Y-97297531D01*
X115366335Y-97297532D01*
X115366338Y-97297534D01*
X115566550Y-97390894D01*
X115779932Y-97448070D01*
X115937123Y-97461822D01*
X115999998Y-97467323D01*
X116000000Y-97467323D01*
X116000002Y-97467323D01*
X116055017Y-97462509D01*
X116220068Y-97448070D01*
X116433450Y-97390894D01*
X116633662Y-97297534D01*
X116814620Y-97170826D01*
X116970826Y-97014620D01*
X117097534Y-96833662D01*
X117190894Y-96633450D01*
X117248070Y-96420068D01*
X117267323Y-96200000D01*
X117248070Y-95979932D01*
X117190894Y-95766550D01*
X117097534Y-95566339D01*
X116970826Y-95385380D01*
X116970824Y-95385377D01*
X116886819Y-95301372D01*
X116853334Y-95240049D01*
X116850500Y-95213691D01*
X116850500Y-93603649D01*
X116870185Y-93536610D01*
X116886814Y-93515973D01*
X126399771Y-84003015D01*
X126461092Y-83969532D01*
X126494586Y-83967404D01*
X126494586Y-83967323D01*
X126495876Y-83967323D01*
X126498265Y-83967171D01*
X126500000Y-83967323D01*
X126720068Y-83948070D01*
X126933450Y-83890894D01*
X127133662Y-83797534D01*
X127179378Y-83765523D01*
X127245582Y-83743197D01*
X127313350Y-83760207D01*
X127361163Y-83811155D01*
X127374500Y-83867099D01*
X127374500Y-88692396D01*
X127355494Y-88758368D01*
X127274210Y-88887729D01*
X127214630Y-89058001D01*
X127209326Y-89105076D01*
X127182258Y-89169490D01*
X127173787Y-89178872D01*
X125231915Y-91120745D01*
X123550843Y-92801817D01*
X123550840Y-92801820D01*
X123519983Y-92832677D01*
X123463716Y-92888943D01*
X123450243Y-92909107D01*
X123395262Y-92991390D01*
X123395258Y-92991397D01*
X123366178Y-93061605D01*
X123348112Y-93105219D01*
X123348108Y-93105233D01*
X123324073Y-93226067D01*
X123324073Y-111548435D01*
X123348108Y-111669268D01*
X123348113Y-111669285D01*
X123395258Y-111783105D01*
X123395263Y-111783114D01*
X123412927Y-111809549D01*
X123412928Y-111809550D01*
X123463713Y-111885555D01*
X123463714Y-111885556D01*
X123463715Y-111885557D01*
X123550840Y-111972682D01*
X123550841Y-111972682D01*
X123557908Y-111979749D01*
X123557907Y-111979749D01*
X123557911Y-111979752D01*
X131329062Y-119750904D01*
X131362547Y-119812227D01*
X131357563Y-119881919D01*
X131315691Y-119937852D01*
X131312505Y-119940160D01*
X131185375Y-120029177D01*
X131029177Y-120185375D01*
X130909477Y-120356325D01*
X130854900Y-120399949D01*
X130785401Y-120407142D01*
X130723047Y-120375620D01*
X130720221Y-120372882D01*
X119627834Y-109280495D01*
X119594349Y-109219172D01*
X119599333Y-109149480D01*
X119641205Y-109093547D01*
X119663100Y-109080437D01*
X119733662Y-109047534D01*
X119914620Y-108920826D01*
X120070826Y-108764620D01*
X120197534Y-108583662D01*
X120262346Y-108444671D01*
X120287042Y-108409403D01*
X120719000Y-107977445D01*
X120719000Y-108000160D01*
X120744964Y-108097061D01*
X120795124Y-108183940D01*
X120866060Y-108254876D01*
X120952939Y-108305036D01*
X121049840Y-108331000D01*
X121072553Y-108331000D01*
X120401810Y-109001740D01*
X120466590Y-109047099D01*
X120466592Y-109047100D01*
X120666715Y-109140419D01*
X120666729Y-109140424D01*
X120880013Y-109197573D01*
X120880023Y-109197575D01*
X121099999Y-109216821D01*
X121100001Y-109216821D01*
X121319976Y-109197575D01*
X121319986Y-109197573D01*
X121533270Y-109140424D01*
X121533284Y-109140419D01*
X121733407Y-109047100D01*
X121733417Y-109047094D01*
X121798188Y-109001741D01*
X121127448Y-108331000D01*
X121150160Y-108331000D01*
X121247061Y-108305036D01*
X121333940Y-108254876D01*
X121404876Y-108183940D01*
X121455036Y-108097061D01*
X121481000Y-108000160D01*
X121481000Y-107977447D01*
X122151741Y-108648188D01*
X122197094Y-108583417D01*
X122197100Y-108583407D01*
X122290419Y-108383284D01*
X122290424Y-108383270D01*
X122347573Y-108169986D01*
X122347575Y-108169976D01*
X122366821Y-107950000D01*
X122366821Y-107949999D01*
X122347575Y-107730023D01*
X122347573Y-107730013D01*
X122290424Y-107516729D01*
X122290420Y-107516720D01*
X122197096Y-107316586D01*
X122151741Y-107251811D01*
X122151740Y-107251810D01*
X121481000Y-107922551D01*
X121481000Y-107899840D01*
X121455036Y-107802939D01*
X121404876Y-107716060D01*
X121333940Y-107645124D01*
X121247061Y-107594964D01*
X121150160Y-107569000D01*
X121127447Y-107569000D01*
X121798188Y-106898258D01*
X121733411Y-106852901D01*
X121733405Y-106852898D01*
X121533284Y-106759580D01*
X121533270Y-106759575D01*
X121319986Y-106702426D01*
X121319976Y-106702424D01*
X121100001Y-106683179D01*
X121099999Y-106683179D01*
X120880023Y-106702424D01*
X120880013Y-106702426D01*
X120666729Y-106759575D01*
X120666720Y-106759579D01*
X120466590Y-106852901D01*
X120401811Y-106898258D01*
X121072554Y-107569000D01*
X121049840Y-107569000D01*
X120952939Y-107594964D01*
X120866060Y-107645124D01*
X120795124Y-107716060D01*
X120744964Y-107802939D01*
X120719000Y-107899840D01*
X120719000Y-107922553D01*
X120287043Y-107490596D01*
X120262342Y-107455320D01*
X120253664Y-107436711D01*
X120197534Y-107316339D01*
X120070826Y-107135380D01*
X119914620Y-106979174D01*
X119914616Y-106979171D01*
X119914615Y-106979170D01*
X119733666Y-106852468D01*
X119733662Y-106852466D01*
X119710874Y-106841840D01*
X119533450Y-106759106D01*
X119533447Y-106759105D01*
X119533445Y-106759104D01*
X119320070Y-106701930D01*
X119320062Y-106701929D01*
X119100002Y-106682677D01*
X119099998Y-106682677D01*
X118879937Y-106701929D01*
X118879929Y-106701930D01*
X118666554Y-106759104D01*
X118666548Y-106759107D01*
X118466340Y-106852465D01*
X118466338Y-106852466D01*
X118285377Y-106979175D01*
X118129175Y-107135377D01*
X118002466Y-107316338D01*
X118002462Y-107316345D01*
X117969566Y-107386890D01*
X117923393Y-107439329D01*
X117856200Y-107458480D01*
X117789319Y-107438263D01*
X117769504Y-107422165D01*
X112297336Y-101949997D01*
X117882677Y-101949997D01*
X117882677Y-101950002D01*
X117901929Y-102170062D01*
X117901930Y-102170070D01*
X117959104Y-102383445D01*
X117959105Y-102383447D01*
X117959106Y-102383450D01*
X118015770Y-102504966D01*
X118052466Y-102583662D01*
X118052468Y-102583666D01*
X118179170Y-102764615D01*
X118179175Y-102764621D01*
X118335378Y-102920824D01*
X118335384Y-102920829D01*
X118516333Y-103047531D01*
X118516335Y-103047532D01*
X118516338Y-103047534D01*
X118716550Y-103140894D01*
X118929932Y-103198070D01*
X119087123Y-103211822D01*
X119149998Y-103217323D01*
X119150000Y-103217323D01*
X119150002Y-103217323D01*
X119205017Y-103212509D01*
X119370068Y-103198070D01*
X119583450Y-103140894D01*
X119783662Y-103047534D01*
X119964620Y-102920826D01*
X120120826Y-102764620D01*
X120247534Y-102583662D01*
X120312346Y-102444671D01*
X120337042Y-102409403D01*
X120769000Y-101977445D01*
X120769000Y-102000160D01*
X120794964Y-102097061D01*
X120845124Y-102183940D01*
X120916060Y-102254876D01*
X121002939Y-102305036D01*
X121099840Y-102331000D01*
X121122553Y-102331000D01*
X120451810Y-103001740D01*
X120516590Y-103047099D01*
X120516592Y-103047100D01*
X120716715Y-103140419D01*
X120716729Y-103140424D01*
X120930013Y-103197573D01*
X120930023Y-103197575D01*
X121149999Y-103216821D01*
X121150001Y-103216821D01*
X121369976Y-103197575D01*
X121369986Y-103197573D01*
X121583270Y-103140424D01*
X121583284Y-103140419D01*
X121783407Y-103047100D01*
X121783417Y-103047094D01*
X121848188Y-103001741D01*
X121177448Y-102331000D01*
X121200160Y-102331000D01*
X121297061Y-102305036D01*
X121383940Y-102254876D01*
X121454876Y-102183940D01*
X121505036Y-102097061D01*
X121531000Y-102000160D01*
X121531000Y-101977447D01*
X122201741Y-102648188D01*
X122247094Y-102583417D01*
X122247100Y-102583407D01*
X122340419Y-102383284D01*
X122340424Y-102383270D01*
X122397573Y-102169986D01*
X122397575Y-102169976D01*
X122416821Y-101950000D01*
X122416821Y-101949999D01*
X122397575Y-101730023D01*
X122397573Y-101730013D01*
X122340424Y-101516729D01*
X122340420Y-101516720D01*
X122247096Y-101316586D01*
X122201741Y-101251811D01*
X122201740Y-101251810D01*
X121531000Y-101922551D01*
X121531000Y-101899840D01*
X121505036Y-101802939D01*
X121454876Y-101716060D01*
X121383940Y-101645124D01*
X121297061Y-101594964D01*
X121200160Y-101569000D01*
X121177447Y-101569000D01*
X121848188Y-100898258D01*
X121783411Y-100852901D01*
X121783405Y-100852898D01*
X121583284Y-100759580D01*
X121583270Y-100759575D01*
X121369986Y-100702426D01*
X121369976Y-100702424D01*
X121150001Y-100683179D01*
X121149999Y-100683179D01*
X120930023Y-100702424D01*
X120930013Y-100702426D01*
X120716729Y-100759575D01*
X120716720Y-100759579D01*
X120516590Y-100852901D01*
X120451811Y-100898258D01*
X121122554Y-101569000D01*
X121099840Y-101569000D01*
X121002939Y-101594964D01*
X120916060Y-101645124D01*
X120845124Y-101716060D01*
X120794964Y-101802939D01*
X120769000Y-101899840D01*
X120769000Y-101922553D01*
X120337043Y-101490596D01*
X120312342Y-101455320D01*
X120285491Y-101397738D01*
X120247534Y-101316339D01*
X120165460Y-101199124D01*
X120120827Y-101135381D01*
X120079881Y-101094435D01*
X119964620Y-100979174D01*
X119964616Y-100979171D01*
X119964615Y-100979170D01*
X119783666Y-100852468D01*
X119783662Y-100852466D01*
X119700907Y-100813877D01*
X119583450Y-100759106D01*
X119583447Y-100759105D01*
X119583445Y-100759104D01*
X119370070Y-100701930D01*
X119370062Y-100701929D01*
X119150002Y-100682677D01*
X119149998Y-100682677D01*
X118929937Y-100701929D01*
X118929929Y-100701930D01*
X118716554Y-100759104D01*
X118716548Y-100759107D01*
X118516340Y-100852465D01*
X118516338Y-100852466D01*
X118335377Y-100979175D01*
X118179175Y-101135377D01*
X118052466Y-101316338D01*
X118052465Y-101316340D01*
X117959107Y-101516548D01*
X117959104Y-101516554D01*
X117901930Y-101729929D01*
X117901929Y-101729937D01*
X117882677Y-101949997D01*
X112297336Y-101949997D01*
X112230941Y-101883602D01*
X112197456Y-101822279D01*
X112195402Y-101809803D01*
X112185369Y-101720750D01*
X112185368Y-101720745D01*
X112163656Y-101658695D01*
X112125789Y-101550478D01*
X112104577Y-101516720D01*
X112047957Y-101426610D01*
X112029816Y-101397738D01*
X111902262Y-101270184D01*
X111749523Y-101174211D01*
X111579254Y-101114631D01*
X111579249Y-101114630D01*
X111400004Y-101094435D01*
X111399996Y-101094435D01*
X111220750Y-101114630D01*
X111220745Y-101114631D01*
X111050476Y-101174211D01*
X110897737Y-101270184D01*
X110770184Y-101397737D01*
X110674210Y-101550478D01*
X110630276Y-101676037D01*
X110589554Y-101732813D01*
X110524601Y-101758561D01*
X110456040Y-101745105D01*
X110425553Y-101722764D01*
X109512165Y-100809375D01*
X109512161Y-100809372D01*
X109372866Y-100716297D01*
X109372863Y-100716296D01*
X109263416Y-100670962D01*
X109263414Y-100670961D01*
X109218086Y-100652185D01*
X109218074Y-100652182D01*
X109053771Y-100619500D01*
X109053767Y-100619500D01*
X108688763Y-100619500D01*
X108621724Y-100599815D01*
X108588446Y-100568387D01*
X108555786Y-100523434D01*
X108394066Y-100361714D01*
X108209038Y-100227283D01*
X108171303Y-100208056D01*
X108006102Y-100123881D01*
X107955306Y-100075906D01*
X107938511Y-100008085D01*
X107961049Y-99941950D01*
X107974710Y-99925721D01*
X112370626Y-95529806D01*
X112446530Y-95416210D01*
X112463700Y-95390514D01*
X112463701Y-95390511D01*
X112463704Y-95390507D01*
X112509035Y-95281062D01*
X112509037Y-95281061D01*
X112527032Y-95237618D01*
X112527816Y-95235726D01*
X112529120Y-95229174D01*
X112560499Y-95071415D01*
X112560500Y-95071412D01*
X112560500Y-90196976D01*
X112580185Y-90129937D01*
X112632989Y-90084182D01*
X112660135Y-90076736D01*
X112659932Y-90075876D01*
X112667479Y-90074092D01*
X112667481Y-90074091D01*
X112667483Y-90074091D01*
X112802331Y-90023796D01*
X112917546Y-89937546D01*
X113003796Y-89822331D01*
X113054091Y-89687483D01*
X113060500Y-89627873D01*
X113060499Y-87832128D01*
X113054091Y-87772517D01*
X113011853Y-87659272D01*
X113003797Y-87637671D01*
X113003793Y-87637664D01*
X112917547Y-87522455D01*
X112917544Y-87522452D01*
X112802335Y-87436206D01*
X112802328Y-87436202D01*
X112700051Y-87398056D01*
X112644117Y-87356185D01*
X112619700Y-87290721D01*
X112634551Y-87222448D01*
X112655703Y-87194193D01*
X112668866Y-87181030D01*
X112748495Y-87101401D01*
X112884035Y-86907830D01*
X112983903Y-86693663D01*
X113045063Y-86465408D01*
X113065659Y-86230000D01*
X113045063Y-85994592D01*
X112983903Y-85766337D01*
X112884035Y-85552171D01*
X112847854Y-85500498D01*
X112748494Y-85358597D01*
X112581402Y-85191506D01*
X112581395Y-85191501D01*
X112387834Y-85055967D01*
X112387830Y-85055965D01*
X112370477Y-85047873D01*
X112173663Y-84956097D01*
X112173659Y-84956096D01*
X112173655Y-84956094D01*
X111945413Y-84894938D01*
X111945403Y-84894936D01*
X111710001Y-84874341D01*
X111709999Y-84874341D01*
X111474596Y-84894936D01*
X111474586Y-84894938D01*
X111246344Y-84956094D01*
X111246335Y-84956098D01*
X111032171Y-85055964D01*
X111032169Y-85055965D01*
X110838596Y-85191506D01*
X110797679Y-85232423D01*
X110736356Y-85265908D01*
X110666664Y-85260922D01*
X110622318Y-85232422D01*
X110581402Y-85191506D01*
X110581395Y-85191501D01*
X110387834Y-85055967D01*
X110387830Y-85055965D01*
X110370477Y-85047873D01*
X110173663Y-84956097D01*
X110173659Y-84956096D01*
X110173655Y-84956094D01*
X109945413Y-84894938D01*
X109945403Y-84894936D01*
X109710001Y-84874341D01*
X109709999Y-84874341D01*
X109474596Y-84894936D01*
X109474586Y-84894938D01*
X109246344Y-84956094D01*
X109246335Y-84956098D01*
X109032171Y-85055964D01*
X109032169Y-85055965D01*
X108838597Y-85191505D01*
X108671505Y-85358597D01*
X108535965Y-85552169D01*
X108535964Y-85552171D01*
X108436098Y-85766335D01*
X108436094Y-85766344D01*
X108374938Y-85994586D01*
X108374936Y-85994596D01*
X108354341Y-86229999D01*
X108354341Y-86230000D01*
X108374936Y-86465403D01*
X108374938Y-86465413D01*
X108436094Y-86693655D01*
X108436096Y-86693659D01*
X108436097Y-86693663D01*
X108514263Y-86861289D01*
X108535965Y-86907830D01*
X108535967Y-86907834D01*
X108594526Y-86991464D01*
X108655537Y-87078597D01*
X108671501Y-87101395D01*
X108671506Y-87101402D01*
X108838597Y-87268493D01*
X108838603Y-87268498D01*
X108876278Y-87294878D01*
X108944250Y-87342473D01*
X108996031Y-87378730D01*
X109039656Y-87433307D01*
X109046850Y-87502805D01*
X109015327Y-87565160D01*
X108996032Y-87581880D01*
X108948627Y-87615073D01*
X108948626Y-87615073D01*
X109613250Y-88279697D01*
X109532447Y-88301349D01*
X109427554Y-88361909D01*
X109341909Y-88447554D01*
X109281349Y-88552447D01*
X109259697Y-88633250D01*
X108595073Y-87968626D01*
X108595073Y-87968627D01*
X108536400Y-88052421D01*
X108536399Y-88052423D01*
X108436570Y-88266507D01*
X108436566Y-88266516D01*
X108375432Y-88494673D01*
X108375430Y-88494684D01*
X108354843Y-88729998D01*
X108354843Y-88730001D01*
X108375430Y-88965315D01*
X108375432Y-88965326D01*
X108436566Y-89193483D01*
X108436570Y-89193492D01*
X108536398Y-89407576D01*
X108595073Y-89491372D01*
X109259697Y-88826748D01*
X109281349Y-88907553D01*
X109341909Y-89012446D01*
X109427554Y-89098091D01*
X109532447Y-89158651D01*
X109613249Y-89180302D01*
X108948626Y-89844926D01*
X109032417Y-89903598D01*
X109032421Y-89903600D01*
X109246507Y-90003429D01*
X109246516Y-90003433D01*
X109474673Y-90064567D01*
X109474684Y-90064569D01*
X109709998Y-90085157D01*
X109710002Y-90085157D01*
X109945315Y-90064569D01*
X109945326Y-90064567D01*
X110173483Y-90003433D01*
X110173492Y-90003430D01*
X110364080Y-89914557D01*
X110433157Y-89904065D01*
X110496941Y-89932585D01*
X110501708Y-89936988D01*
X110617664Y-90023793D01*
X110617671Y-90023797D01*
X110752517Y-90074091D01*
X110760062Y-90075874D01*
X110759523Y-90078151D01*
X110813287Y-90100408D01*
X110853147Y-90157793D01*
X110859500Y-90196975D01*
X110859500Y-94583992D01*
X110839815Y-94651031D01*
X110823181Y-94671673D01*
X105139375Y-100355478D01*
X105139372Y-100355482D01*
X105046299Y-100494774D01*
X105046292Y-100494787D01*
X105016656Y-100566338D01*
X104982185Y-100649557D01*
X104982182Y-100649569D01*
X104949500Y-100813872D01*
X104949500Y-107983771D01*
X104982181Y-108148073D01*
X104982184Y-108148082D01*
X105046296Y-108302863D01*
X105046297Y-108302866D01*
X105139372Y-108442161D01*
X105139375Y-108442165D01*
X110457834Y-113760624D01*
X110457842Y-113760630D01*
X110597127Y-113853697D01*
X110597131Y-113853699D01*
X110597138Y-113853704D01*
X110643081Y-113872734D01*
X110751918Y-113917816D01*
X110916228Y-113950499D01*
X110916232Y-113950500D01*
X110916233Y-113950500D01*
X110916234Y-113950500D01*
X110983433Y-113950500D01*
X111050472Y-113970185D01*
X111096227Y-114022989D01*
X111106171Y-114092147D01*
X111099615Y-114117833D01*
X111055908Y-114235017D01*
X111049501Y-114294616D01*
X111049500Y-114294635D01*
X111049500Y-117890370D01*
X111049501Y-117890376D01*
X111055908Y-117949983D01*
X111106202Y-118084828D01*
X111106206Y-118084835D01*
X111192452Y-118200044D01*
X111192455Y-118200047D01*
X111307664Y-118286293D01*
X111307673Y-118286298D01*
X111356506Y-118304511D01*
X111412440Y-118346381D01*
X111436858Y-118411845D01*
X111422007Y-118480118D01*
X111372603Y-118529524D01*
X111306598Y-118544518D01*
X111268625Y-118542501D01*
X111268579Y-118542500D01*
X110550000Y-118542500D01*
X110550000Y-120292500D01*
X110050000Y-120292500D01*
X110050000Y-118542500D01*
X109331423Y-118542500D01*
X109331411Y-118542501D01*
X109278808Y-118545294D01*
X109049012Y-118589737D01*
X108830024Y-118672379D01*
X108628158Y-118790839D01*
X108628151Y-118790844D01*
X108449213Y-118941711D01*
X108449211Y-118941713D01*
X108298344Y-119120651D01*
X108298339Y-119120658D01*
X108179879Y-119322524D01*
X108097237Y-119541512D01*
X108052794Y-119771308D01*
X108052794Y-119771309D01*
X108050001Y-119823882D01*
X108050000Y-119823921D01*
X108050000Y-120542500D01*
X108866988Y-120542500D01*
X108834075Y-120599507D01*
X108800000Y-120726674D01*
X108800000Y-120858326D01*
X108834075Y-120985493D01*
X108866988Y-121042500D01*
X108050001Y-121042500D01*
X108050001Y-121761088D01*
X108052794Y-121813691D01*
X108097237Y-122043487D01*
X108179879Y-122262475D01*
X108298339Y-122464341D01*
X108298344Y-122464348D01*
X108449209Y-122643284D01*
X108493585Y-122680698D01*
X108532150Y-122738961D01*
X108533094Y-122808824D01*
X108496118Y-122868107D01*
X108432960Y-122897988D01*
X108413656Y-122899500D01*
X103724500Y-122899500D01*
X103657461Y-122879815D01*
X103611706Y-122827011D01*
X103600500Y-122775500D01*
X103600500Y-115028303D01*
X105300000Y-115028303D01*
X105300000Y-115842500D01*
X106800000Y-115842500D01*
X106800000Y-116342500D01*
X105300001Y-116342500D01*
X105300001Y-117156697D01*
X105310400Y-117288832D01*
X105365377Y-117507019D01*
X105458428Y-117711874D01*
X105458431Y-117711880D01*
X105586559Y-117896823D01*
X105586569Y-117896835D01*
X105745664Y-118055930D01*
X105745676Y-118055940D01*
X105930619Y-118184068D01*
X105930625Y-118184071D01*
X106135480Y-118277122D01*
X106353667Y-118332099D01*
X106485810Y-118342499D01*
X107049999Y-118342499D01*
X107050000Y-118342498D01*
X107050000Y-117525512D01*
X107107007Y-117558425D01*
X107234174Y-117592500D01*
X107365826Y-117592500D01*
X107492993Y-117558425D01*
X107550000Y-117525512D01*
X107550000Y-118342499D01*
X108114182Y-118342499D01*
X108114197Y-118342498D01*
X108246332Y-118332099D01*
X108464519Y-118277122D01*
X108669374Y-118184071D01*
X108669380Y-118184068D01*
X108854323Y-118055940D01*
X108854335Y-118055930D01*
X109013430Y-117896835D01*
X109013440Y-117896823D01*
X109141568Y-117711880D01*
X109141571Y-117711874D01*
X109234622Y-117507019D01*
X109289599Y-117288832D01*
X109299999Y-117156696D01*
X109300000Y-117156684D01*
X109300000Y-116342500D01*
X107800000Y-116342500D01*
X107800000Y-115842500D01*
X109299999Y-115842500D01*
X109299999Y-115028317D01*
X109299998Y-115028302D01*
X109289599Y-114896167D01*
X109234622Y-114677980D01*
X109141571Y-114473125D01*
X109141568Y-114473119D01*
X109013440Y-114288176D01*
X109013430Y-114288164D01*
X108854335Y-114129069D01*
X108854323Y-114129059D01*
X108669380Y-114000931D01*
X108669374Y-114000928D01*
X108464519Y-113907877D01*
X108246332Y-113852900D01*
X108114196Y-113842500D01*
X107550000Y-113842500D01*
X107550000Y-114659488D01*
X107492993Y-114626575D01*
X107365826Y-114592500D01*
X107234174Y-114592500D01*
X107107007Y-114626575D01*
X107050000Y-114659488D01*
X107050000Y-113842500D01*
X106485817Y-113842500D01*
X106485802Y-113842501D01*
X106353667Y-113852900D01*
X106135480Y-113907877D01*
X105930625Y-114000928D01*
X105930619Y-114000931D01*
X105745676Y-114129059D01*
X105745664Y-114129069D01*
X105586569Y-114288164D01*
X105586559Y-114288176D01*
X105458431Y-114473119D01*
X105458428Y-114473125D01*
X105365377Y-114677980D01*
X105310400Y-114896167D01*
X105300000Y-115028303D01*
X103600500Y-115028303D01*
X103600500Y-93500000D01*
X104745172Y-93500000D01*
X104764462Y-93794312D01*
X104764464Y-93794324D01*
X104822001Y-94083584D01*
X104822005Y-94083599D01*
X104916812Y-94362888D01*
X105047258Y-94627406D01*
X105047265Y-94627419D01*
X105211123Y-94872649D01*
X105240405Y-94906040D01*
X106017173Y-94129271D01*
X106111388Y-94258946D01*
X106241054Y-94388612D01*
X106370727Y-94482825D01*
X105593958Y-95259593D01*
X105627350Y-95288876D01*
X105872580Y-95452734D01*
X105872593Y-95452741D01*
X106137111Y-95583187D01*
X106416400Y-95677994D01*
X106416415Y-95677998D01*
X106705675Y-95735535D01*
X106705687Y-95735537D01*
X107000000Y-95754827D01*
X107294312Y-95735537D01*
X107294324Y-95735535D01*
X107583584Y-95677998D01*
X107583599Y-95677994D01*
X107862888Y-95583187D01*
X108127406Y-95452741D01*
X108127419Y-95452734D01*
X108372648Y-95288877D01*
X108406039Y-95259593D01*
X107629271Y-94482825D01*
X107758946Y-94388612D01*
X107888612Y-94258946D01*
X107982825Y-94129271D01*
X108759593Y-94906039D01*
X108788877Y-94872648D01*
X108952734Y-94627419D01*
X108952741Y-94627406D01*
X109083187Y-94362888D01*
X109177994Y-94083599D01*
X109177998Y-94083584D01*
X109235535Y-93794324D01*
X109235537Y-93794312D01*
X109254827Y-93500000D01*
X109235537Y-93205687D01*
X109235535Y-93205675D01*
X109177998Y-92916415D01*
X109177994Y-92916400D01*
X109083187Y-92637111D01*
X108952741Y-92372593D01*
X108952734Y-92372580D01*
X108788876Y-92127350D01*
X108759593Y-92093958D01*
X107982825Y-92870726D01*
X107888612Y-92741054D01*
X107758946Y-92611388D01*
X107629271Y-92517174D01*
X108406040Y-91740405D01*
X108372649Y-91711123D01*
X108127419Y-91547265D01*
X108127406Y-91547258D01*
X107862888Y-91416812D01*
X107583599Y-91322005D01*
X107583584Y-91322001D01*
X107294324Y-91264464D01*
X107294312Y-91264462D01*
X107000000Y-91245172D01*
X106705687Y-91264462D01*
X106705675Y-91264464D01*
X106416415Y-91322001D01*
X106416400Y-91322005D01*
X106137111Y-91416812D01*
X105872593Y-91547258D01*
X105872580Y-91547265D01*
X105627346Y-91711126D01*
X105627339Y-91711131D01*
X105593959Y-91740403D01*
X105593959Y-91740405D01*
X106370728Y-92517174D01*
X106241054Y-92611388D01*
X106111388Y-92741054D01*
X106017174Y-92870727D01*
X105240405Y-92093959D01*
X105240403Y-92093959D01*
X105211131Y-92127339D01*
X105211126Y-92127346D01*
X105047265Y-92372580D01*
X105047258Y-92372593D01*
X104916812Y-92637111D01*
X104822005Y-92916400D01*
X104822001Y-92916415D01*
X104764464Y-93205675D01*
X104764462Y-93205687D01*
X104745172Y-93500000D01*
X103600500Y-93500000D01*
X103600500Y-81460000D01*
X104745172Y-81460000D01*
X104764462Y-81754312D01*
X104764464Y-81754324D01*
X104822001Y-82043584D01*
X104822005Y-82043599D01*
X104916812Y-82322888D01*
X105047258Y-82587406D01*
X105047265Y-82587419D01*
X105211123Y-82832649D01*
X105240405Y-82866040D01*
X106017173Y-82089271D01*
X106111388Y-82218946D01*
X106241054Y-82348612D01*
X106370727Y-82442825D01*
X105593958Y-83219593D01*
X105627350Y-83248876D01*
X105872580Y-83412734D01*
X105872593Y-83412741D01*
X106137111Y-83543187D01*
X106416400Y-83637994D01*
X106416415Y-83637998D01*
X106705675Y-83695535D01*
X106705687Y-83695537D01*
X107000000Y-83714827D01*
X107294312Y-83695537D01*
X107294324Y-83695535D01*
X107583584Y-83637998D01*
X107583599Y-83637994D01*
X107862888Y-83543187D01*
X108127406Y-83412741D01*
X108127419Y-83412734D01*
X108372648Y-83248877D01*
X108406039Y-83219593D01*
X107629271Y-82442825D01*
X107758946Y-82348612D01*
X107888612Y-82218946D01*
X107982825Y-82089271D01*
X108759593Y-82866039D01*
X108788877Y-82832648D01*
X108952734Y-82587419D01*
X108952741Y-82587406D01*
X109083187Y-82322888D01*
X109177994Y-82043599D01*
X109177998Y-82043584D01*
X109235535Y-81754324D01*
X109235537Y-81754312D01*
X109254827Y-81460000D01*
X109235537Y-81165687D01*
X109235535Y-81165675D01*
X109177998Y-80876415D01*
X109177994Y-80876400D01*
X109083187Y-80597111D01*
X108952741Y-80332593D01*
X108952734Y-80332580D01*
X108788876Y-80087350D01*
X108759593Y-80053958D01*
X107982825Y-80830726D01*
X107888612Y-80701054D01*
X107758946Y-80571388D01*
X107629271Y-80477174D01*
X108406040Y-79700405D01*
X108372649Y-79671123D01*
X108127419Y-79507265D01*
X108127406Y-79507258D01*
X107862888Y-79376812D01*
X107583599Y-79282005D01*
X107583584Y-79282001D01*
X107294324Y-79224464D01*
X107294312Y-79224462D01*
X107000000Y-79205172D01*
X106705687Y-79224462D01*
X106705675Y-79224464D01*
X106416415Y-79282001D01*
X106416400Y-79282005D01*
X106137111Y-79376812D01*
X105872593Y-79507258D01*
X105872580Y-79507265D01*
X105627346Y-79671126D01*
X105627339Y-79671131D01*
X105593959Y-79700403D01*
X105593959Y-79700405D01*
X106370728Y-80477174D01*
X106241054Y-80571388D01*
X106111388Y-80701054D01*
X106017174Y-80830727D01*
X105240405Y-80053959D01*
X105240403Y-80053959D01*
X105211131Y-80087339D01*
X105211126Y-80087346D01*
X105047265Y-80332580D01*
X105047258Y-80332593D01*
X104916812Y-80597111D01*
X104822005Y-80876400D01*
X104822001Y-80876415D01*
X104764464Y-81165675D01*
X104764462Y-81165687D01*
X104745172Y-81460000D01*
X103600500Y-81460000D01*
X103600500Y-76499997D01*
X105782677Y-76499997D01*
X105782677Y-76500002D01*
X105801929Y-76720062D01*
X105801930Y-76720070D01*
X105859104Y-76933445D01*
X105859105Y-76933447D01*
X105859106Y-76933450D01*
X105952466Y-77133662D01*
X105952468Y-77133666D01*
X106079170Y-77314615D01*
X106079175Y-77314621D01*
X106235378Y-77470824D01*
X106235384Y-77470829D01*
X106416333Y-77597531D01*
X106416335Y-77597532D01*
X106416338Y-77597534D01*
X106616550Y-77690894D01*
X106829932Y-77748070D01*
X106987123Y-77761822D01*
X107049998Y-77767323D01*
X107050000Y-77767323D01*
X107050002Y-77767323D01*
X107105017Y-77762509D01*
X107270068Y-77748070D01*
X107483450Y-77690894D01*
X107683662Y-77597534D01*
X107864620Y-77470826D01*
X108020826Y-77314620D01*
X108147534Y-77133662D01*
X108240894Y-76933450D01*
X108298070Y-76720068D01*
X108317323Y-76500000D01*
X108298070Y-76279932D01*
X108240894Y-76066550D01*
X108147534Y-75866339D01*
X108020826Y-75685380D01*
X107864620Y-75529174D01*
X107864616Y-75529171D01*
X107864615Y-75529170D01*
X107683666Y-75402468D01*
X107683662Y-75402466D01*
X107644254Y-75384090D01*
X107483450Y-75309106D01*
X107483447Y-75309105D01*
X107483445Y-75309104D01*
X107270070Y-75251930D01*
X107270062Y-75251929D01*
X107050002Y-75232677D01*
X107049998Y-75232677D01*
X106829937Y-75251929D01*
X106829929Y-75251930D01*
X106616554Y-75309104D01*
X106616548Y-75309107D01*
X106416340Y-75402465D01*
X106416338Y-75402466D01*
X106235377Y-75529175D01*
X106079175Y-75685377D01*
X105952466Y-75866338D01*
X105952465Y-75866340D01*
X105859107Y-76066548D01*
X105859104Y-76066554D01*
X105801930Y-76279929D01*
X105801929Y-76279937D01*
X105782677Y-76499997D01*
X103600500Y-76499997D01*
X103600500Y-71024500D01*
X103620185Y-70957461D01*
X103672989Y-70911706D01*
X103724500Y-70900500D01*
X106014691Y-70900500D01*
X106081730Y-70920185D01*
G37*
%TD.AperFunction*%
%TA.AperFunction,Conductor*%
G36*
X115755702Y-115151437D02*
G01*
X115762180Y-115157469D01*
X122265331Y-121660620D01*
X122265334Y-121660622D01*
X122265338Y-121660626D01*
X122404637Y-121753704D01*
X122490454Y-121789249D01*
X122530682Y-121816128D01*
X122685380Y-121970826D01*
X122685383Y-121970828D01*
X122685384Y-121970829D01*
X122866333Y-122097531D01*
X122866335Y-122097532D01*
X122866338Y-122097534D01*
X123066550Y-122190894D01*
X123279932Y-122248070D01*
X123437123Y-122261822D01*
X123499998Y-122267323D01*
X123500000Y-122267323D01*
X123500002Y-122267323D01*
X123555414Y-122262475D01*
X123720068Y-122248070D01*
X123933450Y-122190894D01*
X124133662Y-122097534D01*
X124314620Y-121970826D01*
X124470826Y-121814620D01*
X124597534Y-121633662D01*
X124637618Y-121547700D01*
X124683790Y-121495261D01*
X124750983Y-121476109D01*
X124817864Y-121496324D01*
X124862382Y-121547701D01*
X124902464Y-121633658D01*
X124902468Y-121633666D01*
X125029170Y-121814615D01*
X125029175Y-121814621D01*
X125185378Y-121970824D01*
X125185384Y-121970829D01*
X125366333Y-122097531D01*
X125366335Y-122097532D01*
X125366338Y-122097534D01*
X125566550Y-122190894D01*
X125779932Y-122248070D01*
X125937123Y-122261822D01*
X125999998Y-122267323D01*
X126000000Y-122267323D01*
X126000002Y-122267323D01*
X126055414Y-122262475D01*
X126220068Y-122248070D01*
X126433450Y-122190894D01*
X126633662Y-122097534D01*
X126814620Y-121970826D01*
X126970826Y-121814620D01*
X127097534Y-121633662D01*
X127137618Y-121547700D01*
X127183790Y-121495261D01*
X127250983Y-121476109D01*
X127317864Y-121496324D01*
X127362382Y-121547701D01*
X127402464Y-121633658D01*
X127402468Y-121633666D01*
X127529170Y-121814615D01*
X127529175Y-121814621D01*
X127685378Y-121970824D01*
X127685384Y-121970829D01*
X127866333Y-122097531D01*
X127866335Y-122097532D01*
X127866338Y-122097534D01*
X128066550Y-122190894D01*
X128279932Y-122248070D01*
X128437123Y-122261822D01*
X128499998Y-122267323D01*
X128500000Y-122267323D01*
X128500002Y-122267323D01*
X128555414Y-122262475D01*
X128720068Y-122248070D01*
X128933450Y-122190894D01*
X129133662Y-122097534D01*
X129314620Y-121970826D01*
X129470826Y-121814620D01*
X129597534Y-121633662D01*
X129690894Y-121433450D01*
X129694165Y-121421245D01*
X129703081Y-121387967D01*
X129739445Y-121328306D01*
X129802291Y-121297776D01*
X129871667Y-121306070D01*
X129910537Y-121332378D01*
X131060765Y-122482606D01*
X131060794Y-122482637D01*
X131151012Y-122572855D01*
X131151016Y-122572858D01*
X131253456Y-122641307D01*
X131253462Y-122641310D01*
X131253463Y-122641311D01*
X131300846Y-122660938D01*
X131300849Y-122660939D01*
X131355252Y-122704780D01*
X131377317Y-122771074D01*
X131360038Y-122838773D01*
X131308901Y-122886384D01*
X131253396Y-122899500D01*
X119297182Y-122899500D01*
X119230143Y-122879815D01*
X119184388Y-122827011D01*
X119174444Y-122757853D01*
X119203469Y-122694297D01*
X119232753Y-122669552D01*
X119246918Y-122660938D01*
X119314147Y-122620055D01*
X119537053Y-122438708D01*
X119733189Y-122228698D01*
X119898901Y-121993936D01*
X120031104Y-121738797D01*
X120127334Y-121468032D01*
X120185798Y-121186686D01*
X120205408Y-120900000D01*
X120185798Y-120613314D01*
X120127334Y-120331968D01*
X120075235Y-120185377D01*
X120031105Y-120061206D01*
X120031106Y-120061206D01*
X119898901Y-119806064D01*
X119733187Y-119571299D01*
X119638752Y-119470185D01*
X119537053Y-119361292D01*
X119314147Y-119179945D01*
X119314146Y-119179944D01*
X119068617Y-119030634D01*
X118805063Y-118916158D01*
X118805061Y-118916157D01*
X118805058Y-118916156D01*
X118675578Y-118879877D01*
X118528364Y-118838630D01*
X118528359Y-118838629D01*
X118528358Y-118838629D01*
X118386018Y-118819064D01*
X118243679Y-118799500D01*
X118243678Y-118799500D01*
X117956322Y-118799500D01*
X117956321Y-118799500D01*
X117671642Y-118838629D01*
X117671635Y-118838630D01*
X117463861Y-118896845D01*
X117394942Y-118916156D01*
X117394939Y-118916156D01*
X117394936Y-118916158D01*
X117394935Y-118916158D01*
X117131382Y-119030634D01*
X116885853Y-119179944D01*
X116662950Y-119361289D01*
X116466812Y-119571299D01*
X116301098Y-119806064D01*
X116168894Y-120061206D01*
X116072667Y-120331962D01*
X116072666Y-120331965D01*
X116014201Y-120613319D01*
X115994592Y-120900000D01*
X116014201Y-121186680D01*
X116014201Y-121186684D01*
X116014202Y-121186686D01*
X116035984Y-121291509D01*
X116072666Y-121468034D01*
X116072667Y-121468037D01*
X116168894Y-121738793D01*
X116168893Y-121738793D01*
X116301098Y-121993935D01*
X116466812Y-122228700D01*
X116502884Y-122267323D01*
X116662947Y-122438708D01*
X116827839Y-122572857D01*
X116885853Y-122620055D01*
X116967247Y-122669552D01*
X117014299Y-122721204D01*
X117025956Y-122790094D01*
X116998518Y-122854351D01*
X116940696Y-122893573D01*
X116902818Y-122899500D01*
X112186344Y-122899500D01*
X112119305Y-122879815D01*
X112073550Y-122827011D01*
X112063606Y-122757853D01*
X112092631Y-122694297D01*
X112106415Y-122680698D01*
X112150790Y-122643284D01*
X112301655Y-122464348D01*
X112301660Y-122464341D01*
X112420120Y-122262475D01*
X112502762Y-122043487D01*
X112547205Y-121813691D01*
X112547205Y-121813690D01*
X112549998Y-121761117D01*
X112550000Y-121761078D01*
X112550000Y-121042500D01*
X111733012Y-121042500D01*
X111765925Y-120985493D01*
X111800000Y-120858326D01*
X111800000Y-120726674D01*
X111765925Y-120599507D01*
X111733012Y-120542500D01*
X112549999Y-120542500D01*
X112549999Y-119823923D01*
X112549998Y-119823911D01*
X112547205Y-119771308D01*
X112502762Y-119541512D01*
X112420120Y-119322524D01*
X112301660Y-119120658D01*
X112301655Y-119120651D01*
X112150788Y-118941713D01*
X112150786Y-118941711D01*
X111971848Y-118790844D01*
X111971841Y-118790839D01*
X111769975Y-118672379D01*
X111550984Y-118589736D01*
X111545840Y-118588741D01*
X111483760Y-118556680D01*
X111448869Y-118496146D01*
X111452244Y-118426358D01*
X111492814Y-118369473D01*
X111557697Y-118343552D01*
X111569374Y-118342999D01*
X115097872Y-118342999D01*
X115157483Y-118336591D01*
X115292331Y-118286296D01*
X115407546Y-118200046D01*
X115493796Y-118084831D01*
X115544091Y-117949983D01*
X115550500Y-117890373D01*
X115550499Y-115245149D01*
X115570184Y-115178111D01*
X115622987Y-115132356D01*
X115692146Y-115122412D01*
X115755702Y-115151437D01*
G37*
%TD.AperFunction*%
%TA.AperFunction,Conductor*%
G36*
X146763388Y-119470185D02*
G01*
X146784030Y-119486819D01*
X146840791Y-119543580D01*
X146874276Y-119604903D01*
X146869292Y-119674595D01*
X146827420Y-119730528D01*
X146785203Y-119751036D01*
X146566729Y-119809575D01*
X146566720Y-119809579D01*
X146366590Y-119902901D01*
X146301811Y-119948258D01*
X146972553Y-120619000D01*
X146949840Y-120619000D01*
X146852939Y-120644964D01*
X146766060Y-120695124D01*
X146695124Y-120766060D01*
X146644964Y-120852939D01*
X146619000Y-120949840D01*
X146619000Y-120972553D01*
X145948258Y-120301811D01*
X145902901Y-120366590D01*
X145862382Y-120453483D01*
X145816209Y-120505922D01*
X145749016Y-120525074D01*
X145682135Y-120504858D01*
X145637618Y-120453483D01*
X145597096Y-120366586D01*
X145551741Y-120301811D01*
X145551740Y-120301810D01*
X144881000Y-120972551D01*
X144881000Y-120949840D01*
X144855036Y-120852939D01*
X144804876Y-120766060D01*
X144733940Y-120695124D01*
X144647061Y-120644964D01*
X144550160Y-120619000D01*
X144527447Y-120619000D01*
X145198188Y-119948258D01*
X145133411Y-119902901D01*
X145133405Y-119902898D01*
X144933284Y-119809580D01*
X144933270Y-119809575D01*
X144719986Y-119752426D01*
X144719976Y-119752424D01*
X144500001Y-119733179D01*
X144499999Y-119733179D01*
X144280023Y-119752424D01*
X144280013Y-119752426D01*
X144066729Y-119809575D01*
X144066720Y-119809579D01*
X143866590Y-119902901D01*
X143801811Y-119948258D01*
X144472554Y-120619000D01*
X144449840Y-120619000D01*
X144352939Y-120644964D01*
X144266060Y-120695124D01*
X144195124Y-120766060D01*
X144144964Y-120852939D01*
X144119000Y-120949840D01*
X144119000Y-120972553D01*
X143448258Y-120301811D01*
X143402901Y-120366590D01*
X143362658Y-120452891D01*
X143316485Y-120505330D01*
X143249292Y-120524482D01*
X143182411Y-120504266D01*
X143137894Y-120452891D01*
X143113875Y-120401383D01*
X143097534Y-120366339D01*
X142970826Y-120185380D01*
X142814620Y-120029174D01*
X142814616Y-120029171D01*
X142814615Y-120029170D01*
X142633666Y-119902468D01*
X142633662Y-119902466D01*
X142602007Y-119887705D01*
X142433450Y-119809106D01*
X142433447Y-119809105D01*
X142433445Y-119809104D01*
X142220070Y-119751930D01*
X142220062Y-119751929D01*
X142000002Y-119732677D01*
X141999998Y-119732677D01*
X141779937Y-119751929D01*
X141779929Y-119751930D01*
X141566554Y-119809104D01*
X141566548Y-119809107D01*
X141366340Y-119902465D01*
X141366338Y-119902466D01*
X141185377Y-120029175D01*
X141155878Y-120058675D01*
X141094555Y-120092160D01*
X141024863Y-120087176D01*
X140980516Y-120058675D01*
X140584022Y-119662181D01*
X140550537Y-119600858D01*
X140555521Y-119531166D01*
X140597393Y-119475233D01*
X140662857Y-119450816D01*
X140671703Y-119450500D01*
X146696349Y-119450500D01*
X146763388Y-119470185D01*
G37*
%TD.AperFunction*%
%TA.AperFunction,Conductor*%
G36*
X108678114Y-102396750D02*
G01*
X108722462Y-102425251D01*
X125840382Y-119543171D01*
X125873867Y-119604494D01*
X125868883Y-119674186D01*
X125827011Y-119730119D01*
X125784795Y-119750627D01*
X125566554Y-119809104D01*
X125566548Y-119809107D01*
X125366340Y-119902465D01*
X125366338Y-119902466D01*
X125185377Y-120029175D01*
X125029175Y-120185377D01*
X124902466Y-120366338D01*
X124902465Y-120366340D01*
X124862382Y-120452299D01*
X124816209Y-120504738D01*
X124749016Y-120523890D01*
X124682135Y-120503674D01*
X124637618Y-120452299D01*
X124613875Y-120401383D01*
X124597534Y-120366339D01*
X124470826Y-120185380D01*
X124314620Y-120029174D01*
X124314616Y-120029171D01*
X124314615Y-120029170D01*
X124133666Y-119902468D01*
X124133662Y-119902466D01*
X124102007Y-119887705D01*
X123933450Y-119809106D01*
X123933447Y-119809105D01*
X123933445Y-119809104D01*
X123720070Y-119751930D01*
X123720062Y-119751929D01*
X123500002Y-119732677D01*
X123499998Y-119732677D01*
X123279937Y-119751929D01*
X123279929Y-119751930D01*
X123066554Y-119809104D01*
X123066543Y-119809108D01*
X122976683Y-119851011D01*
X122907606Y-119861503D01*
X122843822Y-119832983D01*
X122836598Y-119826310D01*
X117800268Y-114789980D01*
X117766783Y-114728657D01*
X117771767Y-114658965D01*
X117813639Y-114603032D01*
X117835545Y-114589917D01*
X118033662Y-114497534D01*
X118214620Y-114370826D01*
X118370826Y-114214620D01*
X118497534Y-114033662D01*
X118590894Y-113833450D01*
X118648070Y-113620068D01*
X118663919Y-113438905D01*
X118667323Y-113400002D01*
X118667323Y-113399997D01*
X118660103Y-113317474D01*
X118648070Y-113179932D01*
X118590894Y-112966550D01*
X118497534Y-112766339D01*
X118370826Y-112585380D01*
X118214620Y-112429174D01*
X118214616Y-112429171D01*
X118214615Y-112429170D01*
X118033666Y-112302468D01*
X118033662Y-112302466D01*
X118030437Y-112300962D01*
X117833450Y-112209106D01*
X117833447Y-112209105D01*
X117833445Y-112209104D01*
X117620070Y-112151930D01*
X117620062Y-112151929D01*
X117400002Y-112132677D01*
X117399998Y-112132677D01*
X117179937Y-112151929D01*
X117179929Y-112151930D01*
X116966554Y-112209104D01*
X116966548Y-112209107D01*
X116766340Y-112302465D01*
X116766338Y-112302466D01*
X116585377Y-112429175D01*
X116429175Y-112585377D01*
X116302466Y-112766338D01*
X116302465Y-112766340D01*
X116210083Y-112964454D01*
X116163910Y-113016893D01*
X116096717Y-113036045D01*
X116029836Y-113015829D01*
X116010020Y-112999730D01*
X115449665Y-112439375D01*
X115449661Y-112439372D01*
X115310366Y-112346297D01*
X115310363Y-112346296D01*
X115200916Y-112300962D01*
X115200914Y-112300961D01*
X115155586Y-112282185D01*
X115155574Y-112282182D01*
X114991271Y-112249500D01*
X114991267Y-112249500D01*
X111403651Y-112249500D01*
X111336612Y-112229815D01*
X111315970Y-112213181D01*
X107317469Y-108214680D01*
X107283984Y-108153357D01*
X107288968Y-108083665D01*
X107330840Y-108027732D01*
X107396304Y-108003315D01*
X107405150Y-108002999D01*
X108447871Y-108002999D01*
X108447872Y-108002999D01*
X108507483Y-107996591D01*
X108642331Y-107946296D01*
X108757546Y-107860046D01*
X108843796Y-107744831D01*
X108894091Y-107609983D01*
X108900500Y-107550373D01*
X108900499Y-105549628D01*
X108894091Y-105490017D01*
X108850563Y-105373313D01*
X108843797Y-105355171D01*
X108843793Y-105355164D01*
X108757547Y-105239955D01*
X108757544Y-105239952D01*
X108642335Y-105153706D01*
X108642326Y-105153701D01*
X108613974Y-105143127D01*
X108558040Y-105101257D01*
X108533622Y-105035792D01*
X108548473Y-104967519D01*
X108556988Y-104954059D01*
X108689788Y-104771276D01*
X108793582Y-104567570D01*
X108864234Y-104350128D01*
X108878509Y-104260000D01*
X107890748Y-104260000D01*
X107912518Y-104222292D01*
X107950000Y-104082409D01*
X107950000Y-103937591D01*
X107912518Y-103797708D01*
X107890748Y-103760000D01*
X108878509Y-103760000D01*
X108864234Y-103669871D01*
X108793582Y-103452429D01*
X108689788Y-103248723D01*
X108555402Y-103063757D01*
X108393742Y-102902097D01*
X108309135Y-102840626D01*
X108266470Y-102785296D01*
X108260491Y-102715682D01*
X108293097Y-102653887D01*
X108309125Y-102639999D01*
X108394066Y-102578286D01*
X108547103Y-102425248D01*
X108608423Y-102391766D01*
X108678114Y-102396750D01*
G37*
%TD.AperFunction*%
%TA.AperFunction,Conductor*%
G36*
X127408116Y-96370046D02*
G01*
X127461994Y-96414531D01*
X127479510Y-96453593D01*
X127530843Y-96656301D01*
X127624075Y-96868848D01*
X127751016Y-97063147D01*
X127751019Y-97063151D01*
X127751021Y-97063153D01*
X127908216Y-97233913D01*
X127908219Y-97233915D01*
X127908222Y-97233918D01*
X128091365Y-97376464D01*
X128091371Y-97376468D01*
X128091374Y-97376470D01*
X128295497Y-97486936D01*
X128409487Y-97526068D01*
X128515015Y-97562297D01*
X128515017Y-97562297D01*
X128515019Y-97562298D01*
X128743951Y-97600500D01*
X128743952Y-97600500D01*
X128976048Y-97600500D01*
X128976049Y-97600500D01*
X129204981Y-97562298D01*
X129424503Y-97486936D01*
X129628626Y-97376470D01*
X129811784Y-97233913D01*
X129820511Y-97224432D01*
X129880394Y-97188441D01*
X129950232Y-97190538D01*
X130007850Y-97230060D01*
X130027924Y-97265080D01*
X130056645Y-97342086D01*
X130056649Y-97342093D01*
X130142809Y-97457187D01*
X130142812Y-97457190D01*
X130257906Y-97543350D01*
X130257913Y-97543354D01*
X130392620Y-97593596D01*
X130392627Y-97593598D01*
X130452155Y-97599999D01*
X130452172Y-97600000D01*
X131150000Y-97600000D01*
X131150000Y-96575277D01*
X131226306Y-96619333D01*
X131340756Y-96650000D01*
X131459244Y-96650000D01*
X131573694Y-96619333D01*
X131650000Y-96575277D01*
X131650000Y-97600000D01*
X131895500Y-97600000D01*
X131962539Y-97619685D01*
X132008294Y-97672489D01*
X132019500Y-97724000D01*
X132019500Y-104314783D01*
X131999815Y-104381822D01*
X131947906Y-104427165D01*
X131857266Y-104469431D01*
X131670858Y-104599954D01*
X131509954Y-104760858D01*
X131379432Y-104947265D01*
X131379431Y-104947267D01*
X131283261Y-105153502D01*
X131283258Y-105153511D01*
X131224366Y-105373302D01*
X131224364Y-105373313D01*
X131204532Y-105599998D01*
X131204532Y-105600000D01*
X131224364Y-105826686D01*
X131224366Y-105826697D01*
X131283258Y-106046488D01*
X131283261Y-106046497D01*
X131379431Y-106252732D01*
X131379432Y-106252734D01*
X131509954Y-106439141D01*
X131670858Y-106600045D01*
X131670861Y-106600047D01*
X131857266Y-106730568D01*
X132063504Y-106826739D01*
X132063509Y-106826740D01*
X132063511Y-106826741D01*
X132069796Y-106828425D01*
X132283308Y-106885635D01*
X132445230Y-106899801D01*
X132509998Y-106905468D01*
X132510000Y-106905468D01*
X132510002Y-106905468D01*
X132566807Y-106900498D01*
X132736692Y-106885635D01*
X132956409Y-106826762D01*
X133026257Y-106828425D01*
X133084120Y-106867587D01*
X133111624Y-106931816D01*
X133112501Y-106946537D01*
X133112501Y-111681545D01*
X133092816Y-111748584D01*
X133076182Y-111769227D01*
X132924821Y-111920587D01*
X132863498Y-111954071D01*
X132805048Y-111952680D01*
X132736697Y-111934366D01*
X132736693Y-111934365D01*
X132736692Y-111934365D01*
X132579209Y-111920587D01*
X132510001Y-111914532D01*
X132509998Y-111914532D01*
X132283313Y-111934364D01*
X132283302Y-111934366D01*
X132063511Y-111993258D01*
X132063502Y-111993261D01*
X131857267Y-112089431D01*
X131857265Y-112089432D01*
X131670858Y-112219954D01*
X131509954Y-112380858D01*
X131379432Y-112567265D01*
X131379431Y-112567267D01*
X131283261Y-112773502D01*
X131283258Y-112773511D01*
X131224366Y-112993302D01*
X131224364Y-112993313D01*
X131204532Y-113219998D01*
X131204532Y-113220000D01*
X131224364Y-113446686D01*
X131224366Y-113446697D01*
X131283258Y-113666488D01*
X131283261Y-113666497D01*
X131365334Y-113842501D01*
X131379432Y-113872734D01*
X131410999Y-113917817D01*
X131509954Y-114059141D01*
X131670858Y-114220045D01*
X131717693Y-114252839D01*
X131857266Y-114350568D01*
X132063504Y-114446739D01*
X132283308Y-114505635D01*
X132440780Y-114519412D01*
X132509998Y-114525468D01*
X132510000Y-114525468D01*
X132510002Y-114525468D01*
X132566673Y-114520509D01*
X132736692Y-114505635D01*
X132956496Y-114446739D01*
X133162734Y-114350568D01*
X133349139Y-114220047D01*
X133510047Y-114059139D01*
X133640568Y-113872734D01*
X133667618Y-113814724D01*
X133713790Y-113762285D01*
X133780983Y-113743133D01*
X133847865Y-113763348D01*
X133892381Y-113814724D01*
X133919432Y-113872734D01*
X133950999Y-113917817D01*
X134049954Y-114059141D01*
X134210858Y-114220045D01*
X134257693Y-114252839D01*
X134397266Y-114350568D01*
X134603504Y-114446739D01*
X134823308Y-114505635D01*
X134980780Y-114519412D01*
X135049998Y-114525468D01*
X135050000Y-114525468D01*
X135050002Y-114525468D01*
X135106673Y-114520509D01*
X135276692Y-114505635D01*
X135496496Y-114446739D01*
X135702734Y-114350568D01*
X135889139Y-114220047D01*
X136050047Y-114059139D01*
X136180568Y-113872734D01*
X136207618Y-113814724D01*
X136253790Y-113762285D01*
X136320983Y-113743133D01*
X136387865Y-113763348D01*
X136432381Y-113814724D01*
X136459432Y-113872734D01*
X136490999Y-113917817D01*
X136589954Y-114059141D01*
X136750858Y-114220045D01*
X136797693Y-114252839D01*
X136937266Y-114350568D01*
X137143504Y-114446739D01*
X137363308Y-114505635D01*
X137520780Y-114519412D01*
X137589998Y-114525468D01*
X137590000Y-114525468D01*
X137590002Y-114525468D01*
X137646673Y-114520509D01*
X137816692Y-114505635D01*
X137885048Y-114487319D01*
X137954897Y-114488982D01*
X138004822Y-114519413D01*
X139896263Y-116410855D01*
X139896267Y-116410858D01*
X139998710Y-116479309D01*
X139998711Y-116479309D01*
X139998715Y-116479312D01*
X140065396Y-116506931D01*
X140065398Y-116506933D01*
X140112543Y-116526461D01*
X140112548Y-116526463D01*
X140132597Y-116530451D01*
X140166196Y-116537134D01*
X140233392Y-116550501D01*
X140233394Y-116550501D01*
X140362721Y-116550501D01*
X140362741Y-116550500D01*
X155628799Y-116550500D01*
X155695838Y-116570185D01*
X155741593Y-116622989D01*
X155751537Y-116692147D01*
X155722512Y-116755703D01*
X155716480Y-116762181D01*
X155215480Y-117263181D01*
X155154157Y-117296666D01*
X155127799Y-117299500D01*
X154050640Y-117299500D01*
X153990222Y-117311518D01*
X153929799Y-117323537D01*
X153929794Y-117323538D01*
X153895797Y-117337620D01*
X153882648Y-117343067D01*
X153860420Y-117352274D01*
X153815964Y-117370688D01*
X153805808Y-117377475D01*
X153805700Y-117377547D01*
X153713519Y-117439140D01*
X153674071Y-117478589D01*
X153626393Y-117526267D01*
X153626390Y-117526270D01*
X150779777Y-120372882D01*
X150718454Y-120406367D01*
X150648762Y-120401383D01*
X150592829Y-120359511D01*
X150590521Y-120356324D01*
X150552350Y-120301810D01*
X150470826Y-120185380D01*
X150314620Y-120029174D01*
X150314616Y-120029171D01*
X150314615Y-120029170D01*
X150133666Y-119902468D01*
X150133662Y-119902466D01*
X150102007Y-119887705D01*
X149933450Y-119809106D01*
X149933447Y-119809105D01*
X149933445Y-119809104D01*
X149720070Y-119751930D01*
X149720062Y-119751929D01*
X149500002Y-119732677D01*
X149499993Y-119732677D01*
X149498255Y-119732829D01*
X149497499Y-119732677D01*
X149494587Y-119732677D01*
X149494587Y-119732091D01*
X149429756Y-119719061D01*
X149399771Y-119696982D01*
X147642165Y-117939375D01*
X147642161Y-117939372D01*
X147502866Y-117846297D01*
X147502863Y-117846296D01*
X147393416Y-117800962D01*
X147393414Y-117800961D01*
X147348086Y-117782185D01*
X147348074Y-117782182D01*
X147183771Y-117749500D01*
X147183767Y-117749500D01*
X133003651Y-117749500D01*
X132936612Y-117729815D01*
X132915970Y-117713181D01*
X128703017Y-113500228D01*
X128669532Y-113438905D01*
X128667405Y-113405414D01*
X128667323Y-113405414D01*
X128667323Y-113404116D01*
X128667171Y-113401731D01*
X128667323Y-113400000D01*
X128648070Y-113179932D01*
X128590894Y-112966550D01*
X128497534Y-112766339D01*
X128370826Y-112585380D01*
X128214620Y-112429174D01*
X128214616Y-112429171D01*
X128214615Y-112429170D01*
X128033666Y-112302468D01*
X128033662Y-112302466D01*
X128030437Y-112300962D01*
X127833450Y-112209106D01*
X127833447Y-112209105D01*
X127833445Y-112209104D01*
X127620070Y-112151930D01*
X127620062Y-112151929D01*
X127400002Y-112132677D01*
X127399998Y-112132677D01*
X127179937Y-112151929D01*
X127179929Y-112151930D01*
X126966554Y-112209104D01*
X126966548Y-112209107D01*
X126766340Y-112302465D01*
X126766338Y-112302466D01*
X126585377Y-112429175D01*
X126429177Y-112585375D01*
X126309477Y-112756325D01*
X126254900Y-112799949D01*
X126185401Y-112807142D01*
X126123047Y-112775620D01*
X126120221Y-112772882D01*
X125400944Y-112053605D01*
X124611392Y-111264052D01*
X124577907Y-111202729D01*
X124575073Y-111176371D01*
X124575073Y-109246247D01*
X124594758Y-109179208D01*
X124647562Y-109133453D01*
X124716720Y-109123509D01*
X124751473Y-109133863D01*
X124766550Y-109140894D01*
X124979932Y-109198070D01*
X125137123Y-109211822D01*
X125199998Y-109217323D01*
X125200000Y-109217323D01*
X125200002Y-109217323D01*
X125255017Y-109212509D01*
X125420068Y-109198070D01*
X125633450Y-109140894D01*
X125833662Y-109047534D01*
X126014620Y-108920826D01*
X126170826Y-108764620D01*
X126297534Y-108583662D01*
X126362346Y-108444671D01*
X126387042Y-108409403D01*
X126819000Y-107977445D01*
X126819000Y-108000160D01*
X126844964Y-108097061D01*
X126895124Y-108183940D01*
X126966060Y-108254876D01*
X127052939Y-108305036D01*
X127149840Y-108331000D01*
X127172553Y-108331000D01*
X126501810Y-109001740D01*
X126566590Y-109047099D01*
X126566592Y-109047100D01*
X126766715Y-109140419D01*
X126766729Y-109140424D01*
X126980013Y-109197573D01*
X126980023Y-109197575D01*
X127199999Y-109216821D01*
X127200001Y-109216821D01*
X127419976Y-109197575D01*
X127419986Y-109197573D01*
X127633270Y-109140424D01*
X127633284Y-109140419D01*
X127833407Y-109047100D01*
X127833417Y-109047094D01*
X127898188Y-109001741D01*
X127227448Y-108331000D01*
X127250160Y-108331000D01*
X127347061Y-108305036D01*
X127433940Y-108254876D01*
X127504876Y-108183940D01*
X127555036Y-108097061D01*
X127581000Y-108000160D01*
X127581000Y-107977447D01*
X128251741Y-108648188D01*
X128297094Y-108583417D01*
X128297100Y-108583407D01*
X128390419Y-108383284D01*
X128390424Y-108383270D01*
X128447573Y-108169986D01*
X128447575Y-108169976D01*
X128466821Y-107950000D01*
X128466821Y-107949999D01*
X128447575Y-107730023D01*
X128447573Y-107730013D01*
X128390424Y-107516729D01*
X128390420Y-107516720D01*
X128297096Y-107316586D01*
X128251741Y-107251811D01*
X128251740Y-107251810D01*
X127581000Y-107922551D01*
X127581000Y-107899840D01*
X127555036Y-107802939D01*
X127504876Y-107716060D01*
X127433940Y-107645124D01*
X127347061Y-107594964D01*
X127250160Y-107569000D01*
X127227447Y-107569000D01*
X127898188Y-106898258D01*
X127833411Y-106852901D01*
X127833405Y-106852898D01*
X127633284Y-106759580D01*
X127633270Y-106759575D01*
X127419986Y-106702426D01*
X127419976Y-106702424D01*
X127200001Y-106683179D01*
X127199999Y-106683179D01*
X126980023Y-106702424D01*
X126980013Y-106702426D01*
X126766729Y-106759575D01*
X126766720Y-106759579D01*
X126566590Y-106852901D01*
X126501811Y-106898258D01*
X127172554Y-107569000D01*
X127149840Y-107569000D01*
X127052939Y-107594964D01*
X126966060Y-107645124D01*
X126895124Y-107716060D01*
X126844964Y-107802939D01*
X126819000Y-107899840D01*
X126819000Y-107922553D01*
X126387043Y-107490596D01*
X126362342Y-107455320D01*
X126353664Y-107436711D01*
X126297534Y-107316339D01*
X126170826Y-107135380D01*
X126014620Y-106979174D01*
X126014616Y-106979171D01*
X126014615Y-106979170D01*
X125833666Y-106852468D01*
X125833662Y-106852466D01*
X125810874Y-106841840D01*
X125633450Y-106759106D01*
X125633447Y-106759105D01*
X125633445Y-106759104D01*
X125420070Y-106701930D01*
X125420062Y-106701929D01*
X125200002Y-106682677D01*
X125199998Y-106682677D01*
X124979937Y-106701929D01*
X124979929Y-106701930D01*
X124766554Y-106759104D01*
X124766547Y-106759107D01*
X124751476Y-106766135D01*
X124682398Y-106776626D01*
X124618615Y-106748105D01*
X124580376Y-106689628D01*
X124575073Y-106653752D01*
X124575073Y-103246247D01*
X124594758Y-103179208D01*
X124647562Y-103133453D01*
X124716720Y-103123509D01*
X124751473Y-103133863D01*
X124766550Y-103140894D01*
X124979932Y-103198070D01*
X125137123Y-103211822D01*
X125199998Y-103217323D01*
X125200000Y-103217323D01*
X125200002Y-103217323D01*
X125255017Y-103212509D01*
X125420068Y-103198070D01*
X125633450Y-103140894D01*
X125833662Y-103047534D01*
X126014620Y-102920826D01*
X126170826Y-102764620D01*
X126297534Y-102583662D01*
X126362346Y-102444671D01*
X126387042Y-102409403D01*
X126819000Y-101977445D01*
X126819000Y-102000160D01*
X126844964Y-102097061D01*
X126895124Y-102183940D01*
X126966060Y-102254876D01*
X127052939Y-102305036D01*
X127149840Y-102331000D01*
X127172553Y-102331000D01*
X126501810Y-103001740D01*
X126566590Y-103047099D01*
X126566592Y-103047100D01*
X126766715Y-103140419D01*
X126766729Y-103140424D01*
X126980013Y-103197573D01*
X126980023Y-103197575D01*
X127199999Y-103216821D01*
X127200001Y-103216821D01*
X127419976Y-103197575D01*
X127419986Y-103197573D01*
X127633270Y-103140424D01*
X127633284Y-103140419D01*
X127833407Y-103047100D01*
X127833417Y-103047094D01*
X127898188Y-103001741D01*
X127227448Y-102331000D01*
X127250160Y-102331000D01*
X127347061Y-102305036D01*
X127433940Y-102254876D01*
X127504876Y-102183940D01*
X127555036Y-102097061D01*
X127581000Y-102000160D01*
X127581000Y-101977447D01*
X128251741Y-102648188D01*
X128297094Y-102583417D01*
X128297100Y-102583407D01*
X128390419Y-102383284D01*
X128390424Y-102383270D01*
X128447573Y-102169986D01*
X128447575Y-102169976D01*
X128466821Y-101950000D01*
X128466821Y-101949999D01*
X128447575Y-101730023D01*
X128447573Y-101730013D01*
X128390424Y-101516729D01*
X128390420Y-101516720D01*
X128297096Y-101316586D01*
X128251741Y-101251811D01*
X128251740Y-101251810D01*
X127581000Y-101922551D01*
X127581000Y-101899840D01*
X127555036Y-101802939D01*
X127504876Y-101716060D01*
X127433940Y-101645124D01*
X127347061Y-101594964D01*
X127250160Y-101569000D01*
X127227447Y-101569000D01*
X127898188Y-100898258D01*
X127833411Y-100852901D01*
X127833405Y-100852898D01*
X127633284Y-100759580D01*
X127633270Y-100759575D01*
X127419986Y-100702426D01*
X127419976Y-100702424D01*
X127200001Y-100683179D01*
X127199999Y-100683179D01*
X126980023Y-100702424D01*
X126980013Y-100702426D01*
X126766729Y-100759575D01*
X126766720Y-100759579D01*
X126566590Y-100852901D01*
X126501811Y-100898258D01*
X127172554Y-101569000D01*
X127149840Y-101569000D01*
X127052939Y-101594964D01*
X126966060Y-101645124D01*
X126895124Y-101716060D01*
X126844964Y-101802939D01*
X126819000Y-101899840D01*
X126819000Y-101922553D01*
X126387043Y-101490596D01*
X126362342Y-101455320D01*
X126335491Y-101397738D01*
X126297534Y-101316339D01*
X126215460Y-101199124D01*
X126170827Y-101135381D01*
X126129881Y-101094435D01*
X126014620Y-100979174D01*
X126014616Y-100979171D01*
X126014615Y-100979170D01*
X125833666Y-100852468D01*
X125833662Y-100852466D01*
X125750907Y-100813877D01*
X125633450Y-100759106D01*
X125633447Y-100759105D01*
X125633445Y-100759104D01*
X125420070Y-100701930D01*
X125420062Y-100701929D01*
X125200002Y-100682677D01*
X125199998Y-100682677D01*
X124979937Y-100701929D01*
X124979929Y-100701930D01*
X124766554Y-100759104D01*
X124766547Y-100759107D01*
X124751476Y-100766135D01*
X124682398Y-100776626D01*
X124618615Y-100748105D01*
X124580376Y-100689628D01*
X124575073Y-100653752D01*
X124575073Y-96690892D01*
X124594758Y-96623853D01*
X124647562Y-96578098D01*
X124716720Y-96568154D01*
X124780276Y-96597179D01*
X124811454Y-96638486D01*
X124819761Y-96656300D01*
X124902466Y-96833662D01*
X124902468Y-96833666D01*
X125029170Y-97014615D01*
X125029175Y-97014621D01*
X125185378Y-97170824D01*
X125185384Y-97170829D01*
X125366333Y-97297531D01*
X125366335Y-97297532D01*
X125366338Y-97297534D01*
X125566550Y-97390894D01*
X125779932Y-97448070D01*
X125937123Y-97461822D01*
X125999998Y-97467323D01*
X126000000Y-97467323D01*
X126000002Y-97467323D01*
X126055017Y-97462509D01*
X126220068Y-97448070D01*
X126433450Y-97390894D01*
X126633662Y-97297534D01*
X126814620Y-97170826D01*
X126970826Y-97014620D01*
X127097534Y-96833662D01*
X127190894Y-96633450D01*
X127239530Y-96451939D01*
X127275894Y-96392280D01*
X127338741Y-96361751D01*
X127408116Y-96370046D01*
G37*
%TD.AperFunction*%
%TA.AperFunction,Conductor*%
G36*
X161787865Y-106143348D02*
G01*
X161832382Y-106194725D01*
X161859429Y-106252728D01*
X161859432Y-106252734D01*
X161989954Y-106439141D01*
X162150858Y-106600045D01*
X162150861Y-106600047D01*
X162337266Y-106730568D01*
X162337267Y-106730568D01*
X162337268Y-106730569D01*
X162341961Y-106733279D01*
X162340689Y-106735480D01*
X162385117Y-106774637D01*
X162404237Y-106841840D01*
X162383988Y-106908711D01*
X162367922Y-106928477D01*
X157863220Y-111433181D01*
X157801897Y-111466666D01*
X157775539Y-111469500D01*
X157382398Y-111469500D01*
X157321980Y-111481518D01*
X157278752Y-111490116D01*
X157261555Y-111493537D01*
X157147725Y-111540687D01*
X157045274Y-111609142D01*
X157045271Y-111609145D01*
X156409483Y-112244934D01*
X156348160Y-112278419D01*
X156278468Y-112273435D01*
X156234121Y-112244934D01*
X156209141Y-112219954D01*
X156022734Y-112089432D01*
X156022732Y-112089431D01*
X155816497Y-111993261D01*
X155816488Y-111993258D01*
X155596697Y-111934366D01*
X155596693Y-111934365D01*
X155596692Y-111934365D01*
X155596691Y-111934364D01*
X155596686Y-111934364D01*
X155370002Y-111914532D01*
X155369998Y-111914532D01*
X155143313Y-111934364D01*
X155143302Y-111934366D01*
X154923511Y-111993258D01*
X154923502Y-111993261D01*
X154717267Y-112089431D01*
X154717265Y-112089432D01*
X154530858Y-112219954D01*
X154369954Y-112380858D01*
X154239432Y-112567265D01*
X154239431Y-112567267D01*
X154212382Y-112625275D01*
X154166209Y-112677714D01*
X154099016Y-112696866D01*
X154032135Y-112676650D01*
X153987618Y-112625275D01*
X153969015Y-112585381D01*
X153960568Y-112567266D01*
X153830047Y-112380861D01*
X153830045Y-112380858D01*
X153669141Y-112219954D01*
X153482734Y-112089432D01*
X153482732Y-112089431D01*
X153276497Y-111993261D01*
X153276488Y-111993258D01*
X153056697Y-111934366D01*
X153056693Y-111934365D01*
X153056692Y-111934365D01*
X153056691Y-111934364D01*
X153056686Y-111934364D01*
X152830002Y-111914532D01*
X152829998Y-111914532D01*
X152603313Y-111934364D01*
X152603302Y-111934366D01*
X152383511Y-111993258D01*
X152383502Y-111993261D01*
X152177267Y-112089431D01*
X152177265Y-112089432D01*
X151990858Y-112219954D01*
X151829954Y-112380858D01*
X151788981Y-112439375D01*
X151699432Y-112567266D01*
X151699315Y-112567518D01*
X151672106Y-112625867D01*
X151625933Y-112678306D01*
X151558739Y-112697457D01*
X151491858Y-112677241D01*
X151447342Y-112625865D01*
X151420135Y-112567520D01*
X151420134Y-112567518D01*
X151289657Y-112381179D01*
X151128820Y-112220342D01*
X150942482Y-112089865D01*
X150736328Y-111993734D01*
X150540000Y-111941127D01*
X150540000Y-112904314D01*
X150535606Y-112899920D01*
X150444394Y-112847259D01*
X150342661Y-112820000D01*
X150237339Y-112820000D01*
X150135606Y-112847259D01*
X150044394Y-112899920D01*
X150040000Y-112904314D01*
X150040000Y-111941127D01*
X149843671Y-111993734D01*
X149637517Y-112089865D01*
X149451179Y-112220342D01*
X149290342Y-112381179D01*
X149159867Y-112567515D01*
X149132657Y-112625867D01*
X149086484Y-112678306D01*
X149019290Y-112697457D01*
X148952409Y-112677241D01*
X148907893Y-112625865D01*
X148889014Y-112585380D01*
X148880568Y-112567266D01*
X148750047Y-112380861D01*
X148750045Y-112380858D01*
X148636819Y-112267632D01*
X148603334Y-112206309D01*
X148600500Y-112179951D01*
X148600500Y-108543649D01*
X148620185Y-108476610D01*
X148636814Y-108455973D01*
X150154695Y-106938091D01*
X150216016Y-106904608D01*
X150253178Y-106902246D01*
X150290000Y-106905468D01*
X150516692Y-106885635D01*
X150736496Y-106826739D01*
X150942734Y-106730568D01*
X151129139Y-106600047D01*
X151290047Y-106439139D01*
X151420568Y-106252734D01*
X151447618Y-106194724D01*
X151493790Y-106142285D01*
X151560983Y-106123133D01*
X151627865Y-106143348D01*
X151672382Y-106194725D01*
X151699429Y-106252728D01*
X151699432Y-106252734D01*
X151829954Y-106439141D01*
X151990858Y-106600045D01*
X151990861Y-106600047D01*
X152177266Y-106730568D01*
X152383504Y-106826739D01*
X152383509Y-106826740D01*
X152383511Y-106826741D01*
X152389796Y-106828425D01*
X152603308Y-106885635D01*
X152765230Y-106899801D01*
X152829998Y-106905468D01*
X152830000Y-106905468D01*
X152830002Y-106905468D01*
X152886807Y-106900498D01*
X153056692Y-106885635D01*
X153276496Y-106826739D01*
X153482734Y-106730568D01*
X153669139Y-106600047D01*
X153830047Y-106439139D01*
X153960568Y-106252734D01*
X153987618Y-106194724D01*
X154033790Y-106142285D01*
X154100983Y-106123133D01*
X154167865Y-106143348D01*
X154212382Y-106194725D01*
X154239429Y-106252728D01*
X154239432Y-106252734D01*
X154369954Y-106439141D01*
X154530858Y-106600045D01*
X154530861Y-106600047D01*
X154717266Y-106730568D01*
X154923504Y-106826739D01*
X154923509Y-106826740D01*
X154923511Y-106826741D01*
X154929796Y-106828425D01*
X155143308Y-106885635D01*
X155305230Y-106899801D01*
X155369998Y-106905468D01*
X155370000Y-106905468D01*
X155370002Y-106905468D01*
X155426807Y-106900498D01*
X155596692Y-106885635D01*
X155816496Y-106826739D01*
X156022734Y-106730568D01*
X156209139Y-106600047D01*
X156370047Y-106439139D01*
X156500568Y-106252734D01*
X156527618Y-106194724D01*
X156573790Y-106142285D01*
X156640983Y-106123133D01*
X156707865Y-106143348D01*
X156752382Y-106194725D01*
X156779429Y-106252728D01*
X156779432Y-106252734D01*
X156909954Y-106439141D01*
X157070858Y-106600045D01*
X157070861Y-106600047D01*
X157257266Y-106730568D01*
X157463504Y-106826739D01*
X157463509Y-106826740D01*
X157463511Y-106826741D01*
X157469796Y-106828425D01*
X157683308Y-106885635D01*
X157845230Y-106899801D01*
X157909998Y-106905468D01*
X157910000Y-106905468D01*
X157910002Y-106905468D01*
X157966807Y-106900498D01*
X158136692Y-106885635D01*
X158356496Y-106826739D01*
X158562734Y-106730568D01*
X158749139Y-106600047D01*
X158910047Y-106439139D01*
X159040568Y-106252734D01*
X159067618Y-106194724D01*
X159113790Y-106142285D01*
X159180983Y-106123133D01*
X159247865Y-106143348D01*
X159292382Y-106194725D01*
X159319429Y-106252728D01*
X159319432Y-106252734D01*
X159449954Y-106439141D01*
X159610858Y-106600045D01*
X159610861Y-106600047D01*
X159797266Y-106730568D01*
X160003504Y-106826739D01*
X160003509Y-106826740D01*
X160003511Y-106826741D01*
X160009796Y-106828425D01*
X160223308Y-106885635D01*
X160385230Y-106899801D01*
X160449998Y-106905468D01*
X160450000Y-106905468D01*
X160450002Y-106905468D01*
X160506807Y-106900498D01*
X160676692Y-106885635D01*
X160896496Y-106826739D01*
X161102734Y-106730568D01*
X161289139Y-106600047D01*
X161450047Y-106439139D01*
X161580568Y-106252734D01*
X161607618Y-106194724D01*
X161653790Y-106142285D01*
X161720983Y-106123133D01*
X161787865Y-106143348D01*
G37*
%TD.AperFunction*%
%TA.AperFunction,Conductor*%
G36*
X146772061Y-72558185D02*
G01*
X146817816Y-72610989D01*
X146827760Y-72680147D01*
X146824798Y-72694585D01*
X146816500Y-72725558D01*
X146801930Y-72779930D01*
X146801929Y-72779937D01*
X146782677Y-72999997D01*
X146782677Y-73000000D01*
X146801929Y-73220062D01*
X146801930Y-73220070D01*
X146859104Y-73433445D01*
X146859105Y-73433447D01*
X146859106Y-73433450D01*
X146936182Y-73598740D01*
X146952466Y-73633662D01*
X146952468Y-73633666D01*
X147079170Y-73814615D01*
X147079175Y-73814621D01*
X147235378Y-73970824D01*
X147235384Y-73970829D01*
X147416333Y-74097531D01*
X147416335Y-74097532D01*
X147416338Y-74097534D01*
X147616550Y-74190894D01*
X147829932Y-74248070D01*
X147987123Y-74261822D01*
X148049998Y-74267323D01*
X148050000Y-74267323D01*
X148050002Y-74267323D01*
X148105017Y-74262509D01*
X148270068Y-74248070D01*
X148483450Y-74190894D01*
X148683662Y-74097534D01*
X148864620Y-73970826D01*
X149020826Y-73814620D01*
X149147534Y-73633662D01*
X149187618Y-73547700D01*
X149233790Y-73495261D01*
X149300983Y-73476109D01*
X149367864Y-73496324D01*
X149412382Y-73547701D01*
X149452464Y-73633658D01*
X149452468Y-73633666D01*
X149579170Y-73814615D01*
X149579175Y-73814621D01*
X149735378Y-73970824D01*
X149735384Y-73970829D01*
X149916333Y-74097531D01*
X149916335Y-74097532D01*
X149916338Y-74097534D01*
X150116550Y-74190894D01*
X150329932Y-74248070D01*
X150487123Y-74261822D01*
X150549998Y-74267323D01*
X150550000Y-74267323D01*
X150550002Y-74267323D01*
X150605017Y-74262509D01*
X150770068Y-74248070D01*
X150983450Y-74190894D01*
X151183662Y-74097534D01*
X151364620Y-73970826D01*
X151520826Y-73814620D01*
X151647534Y-73633662D01*
X151687618Y-73547700D01*
X151733790Y-73495261D01*
X151800983Y-73476109D01*
X151867864Y-73496324D01*
X151912382Y-73547701D01*
X151952464Y-73633658D01*
X151952468Y-73633666D01*
X152079170Y-73814615D01*
X152079175Y-73814621D01*
X152235378Y-73970824D01*
X152235384Y-73970829D01*
X152416333Y-74097531D01*
X152416335Y-74097532D01*
X152416338Y-74097534D01*
X152616550Y-74190894D01*
X152829932Y-74248070D01*
X152987123Y-74261822D01*
X153049998Y-74267323D01*
X153050000Y-74267323D01*
X153050002Y-74267323D01*
X153105017Y-74262509D01*
X153270068Y-74248070D01*
X153483450Y-74190894D01*
X153683662Y-74097534D01*
X153864620Y-73970826D01*
X154020826Y-73814620D01*
X154147534Y-73633662D01*
X154187618Y-73547700D01*
X154233790Y-73495261D01*
X154300983Y-73476109D01*
X154367864Y-73496324D01*
X154412382Y-73547701D01*
X154452464Y-73633658D01*
X154452468Y-73633666D01*
X154579170Y-73814615D01*
X154579175Y-73814621D01*
X154735378Y-73970824D01*
X154735384Y-73970829D01*
X154769633Y-73994810D01*
X154850937Y-74051740D01*
X154871623Y-74066224D01*
X154915248Y-74120801D01*
X154924500Y-74167799D01*
X154924500Y-88980973D01*
X154904815Y-89048012D01*
X154852011Y-89093767D01*
X154786618Y-89104193D01*
X154700005Y-89094435D01*
X154699996Y-89094435D01*
X154520750Y-89114630D01*
X154520745Y-89114631D01*
X154350476Y-89174211D01*
X154197737Y-89270184D01*
X154070184Y-89397737D01*
X153974210Y-89550478D01*
X153914630Y-89720750D01*
X153909326Y-89767825D01*
X153882258Y-89832239D01*
X153873787Y-89841621D01*
X153241621Y-90473787D01*
X153180298Y-90507272D01*
X153167825Y-90509326D01*
X153120750Y-90514630D01*
X152950478Y-90574210D01*
X152797737Y-90670184D01*
X152670184Y-90797737D01*
X152574211Y-90950476D01*
X152514631Y-91120745D01*
X152514630Y-91120750D01*
X152494435Y-91299996D01*
X152494435Y-91300003D01*
X152514630Y-91479249D01*
X152514631Y-91479254D01*
X152574211Y-91649523D01*
X152635595Y-91747214D01*
X152670184Y-91802262D01*
X152797738Y-91929816D01*
X152950478Y-92025789D01*
X153120745Y-92085368D01*
X153120750Y-92085369D01*
X153299996Y-92105565D01*
X153300000Y-92105565D01*
X153300004Y-92105565D01*
X153479249Y-92085369D01*
X153479252Y-92085368D01*
X153479255Y-92085368D01*
X153649522Y-92025789D01*
X153802262Y-91929816D01*
X153929816Y-91802262D01*
X154025789Y-91649522D01*
X154085368Y-91479255D01*
X154090672Y-91432173D01*
X154117737Y-91367763D01*
X154126201Y-91358387D01*
X154712819Y-90771770D01*
X154774142Y-90738285D01*
X154843834Y-90743269D01*
X154899767Y-90785141D01*
X154924184Y-90850605D01*
X154924500Y-90859451D01*
X154924500Y-95347558D01*
X154904815Y-95414597D01*
X154852011Y-95460352D01*
X154841366Y-95462185D01*
X154150000Y-96153551D01*
X154150000Y-96147339D01*
X154122741Y-96045606D01*
X154070080Y-95954394D01*
X153995606Y-95879920D01*
X153904394Y-95827259D01*
X153802661Y-95800000D01*
X153796445Y-95800000D01*
X154475472Y-95120974D01*
X154402478Y-95069863D01*
X154196331Y-94973735D01*
X154196317Y-94973730D01*
X153976610Y-94914860D01*
X153976599Y-94914858D01*
X153750002Y-94895034D01*
X153749998Y-94895034D01*
X153523400Y-94914858D01*
X153523389Y-94914860D01*
X153303682Y-94973730D01*
X153303673Y-94973734D01*
X153097516Y-95069866D01*
X153097512Y-95069868D01*
X153024526Y-95120973D01*
X153024526Y-95120974D01*
X153703553Y-95800000D01*
X153697339Y-95800000D01*
X153595606Y-95827259D01*
X153504394Y-95879920D01*
X153429920Y-95954394D01*
X153377259Y-96045606D01*
X153350000Y-96147339D01*
X153350000Y-96153552D01*
X152670974Y-95474526D01*
X152670973Y-95474526D01*
X152619868Y-95547512D01*
X152619866Y-95547516D01*
X152523734Y-95753673D01*
X152523730Y-95753682D01*
X152464860Y-95973389D01*
X152464858Y-95973400D01*
X152445034Y-96199997D01*
X152445034Y-96200002D01*
X152464858Y-96426599D01*
X152464860Y-96426610D01*
X152523730Y-96646317D01*
X152523735Y-96646331D01*
X152619863Y-96852478D01*
X152670974Y-96925472D01*
X153350000Y-96246446D01*
X153350000Y-96252661D01*
X153377259Y-96354394D01*
X153429920Y-96445606D01*
X153504394Y-96520080D01*
X153595606Y-96572741D01*
X153697339Y-96600000D01*
X153703553Y-96600000D01*
X153024526Y-97279025D01*
X153097513Y-97330132D01*
X153097521Y-97330136D01*
X153303668Y-97426264D01*
X153303682Y-97426269D01*
X153523389Y-97485139D01*
X153523400Y-97485141D01*
X153749998Y-97504966D01*
X153750002Y-97504966D01*
X153976599Y-97485141D01*
X153976610Y-97485139D01*
X154196317Y-97426269D01*
X154196331Y-97426264D01*
X154402478Y-97330136D01*
X154475471Y-97279024D01*
X153796447Y-96600000D01*
X153802661Y-96600000D01*
X153904394Y-96572741D01*
X153995606Y-96520080D01*
X154070080Y-96445606D01*
X154122741Y-96354394D01*
X154150000Y-96252661D01*
X154150000Y-96246447D01*
X154843222Y-96939669D01*
X154858189Y-96942677D01*
X154908374Y-96991290D01*
X154924500Y-97052440D01*
X154924500Y-100377690D01*
X154904815Y-100444729D01*
X154888181Y-100465371D01*
X154200000Y-101153552D01*
X154200000Y-101147339D01*
X154172741Y-101045606D01*
X154120080Y-100954394D01*
X154045606Y-100879920D01*
X153954394Y-100827259D01*
X153852661Y-100800000D01*
X153846445Y-100800000D01*
X154525472Y-100120974D01*
X154452478Y-100069863D01*
X154246331Y-99973735D01*
X154246317Y-99973730D01*
X154026610Y-99914860D01*
X154026599Y-99914858D01*
X153800002Y-99895034D01*
X153799998Y-99895034D01*
X153573400Y-99914858D01*
X153573389Y-99914860D01*
X153353682Y-99973730D01*
X153353673Y-99973734D01*
X153147516Y-100069866D01*
X153147512Y-100069868D01*
X153074526Y-100120973D01*
X153074526Y-100120974D01*
X153753553Y-100800000D01*
X153747339Y-100800000D01*
X153645606Y-100827259D01*
X153554394Y-100879920D01*
X153479920Y-100954394D01*
X153427259Y-101045606D01*
X153400000Y-101147339D01*
X153400000Y-101153552D01*
X152720974Y-100474526D01*
X152720973Y-100474526D01*
X152669868Y-100547512D01*
X152669866Y-100547516D01*
X152573734Y-100753673D01*
X152573730Y-100753682D01*
X152514860Y-100973389D01*
X152514858Y-100973400D01*
X152495034Y-101199997D01*
X152495034Y-101200002D01*
X152514858Y-101426599D01*
X152514860Y-101426610D01*
X152573730Y-101646317D01*
X152573735Y-101646331D01*
X152669863Y-101852478D01*
X152720974Y-101925472D01*
X153400000Y-101246446D01*
X153400000Y-101252661D01*
X153427259Y-101354394D01*
X153479920Y-101445606D01*
X153554394Y-101520080D01*
X153645606Y-101572741D01*
X153747339Y-101600000D01*
X153753553Y-101600000D01*
X153074526Y-102279025D01*
X153147513Y-102330132D01*
X153147521Y-102330136D01*
X153353668Y-102426264D01*
X153353682Y-102426269D01*
X153573389Y-102485139D01*
X153573400Y-102485141D01*
X153799998Y-102504966D01*
X153800002Y-102504966D01*
X154026599Y-102485141D01*
X154026610Y-102485139D01*
X154246317Y-102426269D01*
X154246331Y-102426264D01*
X154452478Y-102330136D01*
X154525471Y-102279024D01*
X153846447Y-101600000D01*
X153852661Y-101600000D01*
X153954394Y-101572741D01*
X154045606Y-101520080D01*
X154120080Y-101445606D01*
X154172741Y-101354394D01*
X154200000Y-101252661D01*
X154200000Y-101246447D01*
X154888181Y-101934628D01*
X154921666Y-101995951D01*
X154924500Y-102022309D01*
X154924500Y-102569547D01*
X154904815Y-102636586D01*
X154888181Y-102657228D01*
X153244822Y-104300586D01*
X153183499Y-104334071D01*
X153125049Y-104332680D01*
X153056699Y-104314367D01*
X153056702Y-104314367D01*
X153056692Y-104314365D01*
X153056689Y-104314364D01*
X153056686Y-104314364D01*
X152830001Y-104294532D01*
X152829998Y-104294532D01*
X152603313Y-104314364D01*
X152603302Y-104314366D01*
X152383511Y-104373258D01*
X152383502Y-104373261D01*
X152177267Y-104469431D01*
X152177265Y-104469432D01*
X151990858Y-104599954D01*
X151829954Y-104760858D01*
X151699432Y-104947265D01*
X151699431Y-104947267D01*
X151672382Y-105005275D01*
X151626209Y-105057714D01*
X151559016Y-105076866D01*
X151492135Y-105056650D01*
X151447618Y-105005275D01*
X151430012Y-104967519D01*
X151420568Y-104947266D01*
X151290047Y-104760861D01*
X151290045Y-104760858D01*
X151129141Y-104599954D01*
X150942734Y-104469432D01*
X150942732Y-104469431D01*
X150736497Y-104373261D01*
X150736488Y-104373258D01*
X150516697Y-104314366D01*
X150516693Y-104314365D01*
X150516692Y-104314365D01*
X150516691Y-104314364D01*
X150516686Y-104314364D01*
X150290002Y-104294532D01*
X150289998Y-104294532D01*
X150063313Y-104314364D01*
X150063302Y-104314366D01*
X149843511Y-104373258D01*
X149843502Y-104373261D01*
X149637267Y-104469431D01*
X149637265Y-104469432D01*
X149450858Y-104599954D01*
X149289954Y-104760858D01*
X149159433Y-104947264D01*
X149159432Y-104947266D01*
X149159315Y-104947518D01*
X149132106Y-105005867D01*
X149085933Y-105058306D01*
X149018739Y-105077457D01*
X148951858Y-105057241D01*
X148907342Y-105005865D01*
X148880135Y-104947520D01*
X148880134Y-104947518D01*
X148749657Y-104761179D01*
X148588820Y-104600342D01*
X148402482Y-104469865D01*
X148196328Y-104373734D01*
X148000000Y-104321127D01*
X148000000Y-105284314D01*
X147995606Y-105279920D01*
X147904394Y-105227259D01*
X147802661Y-105200000D01*
X147697339Y-105200000D01*
X147595606Y-105227259D01*
X147504394Y-105279920D01*
X147500000Y-105284314D01*
X147500000Y-104321127D01*
X147499999Y-104321126D01*
X147406594Y-104346155D01*
X147336744Y-104344492D01*
X147278881Y-104305330D01*
X147251377Y-104241101D01*
X147250500Y-104226380D01*
X147250500Y-101250767D01*
X147265663Y-101199124D01*
X147482739Y-101199124D01*
X147493477Y-101215832D01*
X147498028Y-101239960D01*
X147514364Y-101426686D01*
X147514366Y-101426697D01*
X147573258Y-101646488D01*
X147573261Y-101646497D01*
X147669431Y-101852732D01*
X147669432Y-101852734D01*
X147799954Y-102039141D01*
X147960858Y-102200045D01*
X147960861Y-102200047D01*
X148147266Y-102330568D01*
X148353504Y-102426739D01*
X148573308Y-102485635D01*
X148735230Y-102499801D01*
X148799998Y-102505468D01*
X148800000Y-102505468D01*
X148800002Y-102505468D01*
X148856673Y-102500509D01*
X149026692Y-102485635D01*
X149246496Y-102426739D01*
X149452734Y-102330568D01*
X149639139Y-102200047D01*
X149800047Y-102039139D01*
X149930568Y-101852734D01*
X150026739Y-101646496D01*
X150085635Y-101426692D01*
X150105468Y-101200000D01*
X150105391Y-101199124D01*
X150086215Y-100979937D01*
X150085635Y-100973308D01*
X150039198Y-100800000D01*
X150026741Y-100753511D01*
X150026738Y-100753502D01*
X150009389Y-100716297D01*
X149930568Y-100547266D01*
X149800047Y-100360861D01*
X149800045Y-100360858D01*
X149639141Y-100199954D01*
X149452734Y-100069432D01*
X149452732Y-100069431D01*
X149246497Y-99973261D01*
X149246488Y-99973258D01*
X149026697Y-99914366D01*
X149026693Y-99914365D01*
X149026692Y-99914365D01*
X149026691Y-99914364D01*
X149026686Y-99914364D01*
X148800002Y-99894532D01*
X148799998Y-99894532D01*
X148573313Y-99914364D01*
X148573302Y-99914366D01*
X148353511Y-99973258D01*
X148353502Y-99973261D01*
X148147267Y-100069431D01*
X148147265Y-100069432D01*
X147960858Y-100199954D01*
X147799954Y-100360858D01*
X147669432Y-100547265D01*
X147669431Y-100547267D01*
X147573261Y-100753502D01*
X147573258Y-100753511D01*
X147514366Y-100973302D01*
X147514364Y-100973313D01*
X147498028Y-101160039D01*
X147482739Y-101199124D01*
X147265663Y-101199124D01*
X147265896Y-101198331D01*
X147252931Y-101173664D01*
X147250500Y-101149232D01*
X147250500Y-96570411D01*
X147270185Y-96503372D01*
X147322989Y-96457617D01*
X147392147Y-96447673D01*
X147455703Y-96476698D01*
X147493477Y-96535476D01*
X147494275Y-96538318D01*
X147523258Y-96646488D01*
X147523261Y-96646497D01*
X147619431Y-96852732D01*
X147619432Y-96852734D01*
X147749954Y-97039141D01*
X147910858Y-97200045D01*
X147910861Y-97200047D01*
X148097266Y-97330568D01*
X148303504Y-97426739D01*
X148303509Y-97426740D01*
X148303511Y-97426741D01*
X148338059Y-97435998D01*
X148523308Y-97485635D01*
X148685230Y-97499801D01*
X148749998Y-97505468D01*
X148750000Y-97505468D01*
X148750002Y-97505468D01*
X148806673Y-97500509D01*
X148976692Y-97485635D01*
X149196496Y-97426739D01*
X149402734Y-97330568D01*
X149589139Y-97200047D01*
X149750047Y-97039139D01*
X149880568Y-96852734D01*
X149976739Y-96646496D01*
X150035635Y-96426692D01*
X150055468Y-96200000D01*
X150035635Y-95973308D01*
X149978405Y-95759722D01*
X149976741Y-95753511D01*
X149976738Y-95753502D01*
X149918763Y-95629175D01*
X149880568Y-95547266D01*
X149750047Y-95360861D01*
X149750045Y-95360858D01*
X149589141Y-95199954D01*
X149402734Y-95069432D01*
X149402732Y-95069431D01*
X149196497Y-94973261D01*
X149196488Y-94973258D01*
X148976697Y-94914366D01*
X148976693Y-94914365D01*
X148976692Y-94914365D01*
X148976691Y-94914364D01*
X148976686Y-94914364D01*
X148750002Y-94894532D01*
X148749998Y-94894532D01*
X148523313Y-94914364D01*
X148523302Y-94914366D01*
X148303511Y-94973258D01*
X148303502Y-94973261D01*
X148097267Y-95069431D01*
X148097265Y-95069432D01*
X147910858Y-95199954D01*
X147749954Y-95360858D01*
X147619432Y-95547265D01*
X147619431Y-95547267D01*
X147523261Y-95753502D01*
X147523258Y-95753511D01*
X147494275Y-95861681D01*
X147457910Y-95921342D01*
X147395063Y-95951871D01*
X147325688Y-95943576D01*
X147271810Y-95899091D01*
X147250535Y-95832539D01*
X147250500Y-95829588D01*
X147250500Y-75063393D01*
X147250499Y-75063389D01*
X147226463Y-74942548D01*
X147202147Y-74883844D01*
X147179312Y-74828715D01*
X147162256Y-74803190D01*
X147110858Y-74726267D01*
X147110856Y-74726264D01*
X147020637Y-74636045D01*
X147020606Y-74636016D01*
X145768386Y-73383796D01*
X145734901Y-73322473D01*
X145736291Y-73264023D01*
X145748070Y-73220068D01*
X145767323Y-73000000D01*
X145764770Y-72970824D01*
X145754457Y-72852939D01*
X145748070Y-72779932D01*
X145725203Y-72694592D01*
X145726866Y-72624744D01*
X145766028Y-72566881D01*
X145830256Y-72539377D01*
X145844978Y-72538500D01*
X146705022Y-72538500D01*
X146772061Y-72558185D01*
G37*
%TD.AperFunction*%
%TA.AperFunction,Conductor*%
G36*
X167919000Y-94150160D02*
G01*
X167944964Y-94247061D01*
X167995124Y-94333940D01*
X168066060Y-94404876D01*
X168152939Y-94455036D01*
X168249840Y-94481000D01*
X168272553Y-94481000D01*
X167601810Y-95151740D01*
X167666589Y-95197098D01*
X167752891Y-95237342D01*
X167805330Y-95283514D01*
X167824482Y-95350708D01*
X167804266Y-95417589D01*
X167752891Y-95462106D01*
X167666340Y-95502465D01*
X167666338Y-95502466D01*
X167485377Y-95629175D01*
X167329175Y-95785377D01*
X167202466Y-95966338D01*
X167202465Y-95966340D01*
X167162382Y-96052299D01*
X167116209Y-96104738D01*
X167049016Y-96123890D01*
X166982135Y-96103674D01*
X166937618Y-96052299D01*
X166916290Y-96006561D01*
X166897534Y-95966339D01*
X166800150Y-95827259D01*
X166770827Y-95785381D01*
X166694553Y-95709107D01*
X166614620Y-95629174D01*
X166614616Y-95629171D01*
X166614615Y-95629170D01*
X166433666Y-95502468D01*
X166433658Y-95502464D01*
X166347701Y-95462382D01*
X166295261Y-95416210D01*
X166276109Y-95349017D01*
X166296324Y-95282136D01*
X166347701Y-95237618D01*
X166351754Y-95235728D01*
X166433662Y-95197534D01*
X166614620Y-95070826D01*
X166770826Y-94914620D01*
X166897534Y-94733662D01*
X166937894Y-94647108D01*
X166984066Y-94594669D01*
X167051259Y-94575517D01*
X167118140Y-94595732D01*
X167162658Y-94647109D01*
X167202898Y-94733405D01*
X167202901Y-94733411D01*
X167248258Y-94798187D01*
X167248258Y-94798188D01*
X167919000Y-94127446D01*
X167919000Y-94150160D01*
G37*
%TD.AperFunction*%
%TA.AperFunction,Conductor*%
G36*
X111769730Y-70920185D02*
G01*
X111790372Y-70936819D01*
X112472554Y-71619000D01*
X112449840Y-71619000D01*
X112352939Y-71644964D01*
X112266060Y-71695124D01*
X112195124Y-71766060D01*
X112144964Y-71852939D01*
X112119000Y-71949840D01*
X112119000Y-71972553D01*
X111448258Y-71301811D01*
X111402901Y-71366590D01*
X111309579Y-71566720D01*
X111309575Y-71566729D01*
X111252426Y-71780013D01*
X111252424Y-71780023D01*
X111233179Y-71999999D01*
X111233179Y-72000000D01*
X111252424Y-72219976D01*
X111252426Y-72219986D01*
X111309575Y-72433270D01*
X111309580Y-72433284D01*
X111402898Y-72633405D01*
X111402901Y-72633411D01*
X111448258Y-72698187D01*
X111448258Y-72698188D01*
X112119000Y-72027446D01*
X112119000Y-72050160D01*
X112144964Y-72147061D01*
X112195124Y-72233940D01*
X112266060Y-72304876D01*
X112352939Y-72355036D01*
X112449840Y-72381000D01*
X112472553Y-72381000D01*
X111801810Y-73051740D01*
X111866590Y-73097099D01*
X111866592Y-73097100D01*
X112066715Y-73190419D01*
X112066729Y-73190424D01*
X112280013Y-73247573D01*
X112280023Y-73247575D01*
X112499999Y-73266821D01*
X112500001Y-73266821D01*
X112719976Y-73247575D01*
X112719986Y-73247573D01*
X112933270Y-73190424D01*
X112933284Y-73190419D01*
X113133407Y-73097100D01*
X113133417Y-73097094D01*
X113198188Y-73051741D01*
X112527448Y-72381000D01*
X112550160Y-72381000D01*
X112647061Y-72355036D01*
X112733940Y-72304876D01*
X112804876Y-72233940D01*
X112855036Y-72147061D01*
X112881000Y-72050160D01*
X112881000Y-72027447D01*
X113551741Y-72698188D01*
X113597094Y-72633417D01*
X113597100Y-72633407D01*
X113690419Y-72433284D01*
X113690424Y-72433270D01*
X113747573Y-72219986D01*
X113747575Y-72219976D01*
X113766821Y-72000000D01*
X113766821Y-71999999D01*
X113747575Y-71780023D01*
X113747573Y-71780013D01*
X113690424Y-71566729D01*
X113690420Y-71566720D01*
X113597096Y-71366586D01*
X113551741Y-71301811D01*
X113551740Y-71301810D01*
X112881000Y-71972551D01*
X112881000Y-71949840D01*
X112855036Y-71852939D01*
X112804876Y-71766060D01*
X112733940Y-71695124D01*
X112647061Y-71644964D01*
X112550160Y-71619000D01*
X112527447Y-71619000D01*
X113209628Y-70936819D01*
X113270951Y-70903334D01*
X113297309Y-70900500D01*
X116902818Y-70900500D01*
X116969857Y-70920185D01*
X117015612Y-70972989D01*
X117025556Y-71042147D01*
X116996531Y-71105703D01*
X116967247Y-71130448D01*
X116885853Y-71179944D01*
X116662950Y-71361289D01*
X116662947Y-71361291D01*
X116662947Y-71361292D01*
X116658003Y-71366586D01*
X116466812Y-71571299D01*
X116301098Y-71806064D01*
X116168894Y-72061206D01*
X116072667Y-72331962D01*
X116072666Y-72331965D01*
X116014201Y-72613319D01*
X115994592Y-72900000D01*
X116014201Y-73186680D01*
X116014201Y-73186684D01*
X116014202Y-73186686D01*
X116030272Y-73264020D01*
X116072666Y-73468034D01*
X116072667Y-73468037D01*
X116168894Y-73738793D01*
X116168893Y-73738793D01*
X116301098Y-73993935D01*
X116466812Y-74228700D01*
X116538998Y-74305991D01*
X116662947Y-74438708D01*
X116885853Y-74620055D01*
X117060510Y-74726267D01*
X117131382Y-74769365D01*
X117268031Y-74828719D01*
X117394942Y-74883844D01*
X117671642Y-74961371D01*
X117921920Y-74995771D01*
X117956321Y-75000500D01*
X117956322Y-75000500D01*
X118243679Y-75000500D01*
X118274370Y-74996281D01*
X118528358Y-74961371D01*
X118805058Y-74883844D01*
X118931990Y-74828710D01*
X119068617Y-74769365D01*
X119068620Y-74769363D01*
X119068625Y-74769361D01*
X119314147Y-74620055D01*
X119537053Y-74438708D01*
X119733189Y-74228698D01*
X119898901Y-73993936D01*
X120031104Y-73738797D01*
X120127334Y-73468032D01*
X120185798Y-73186686D01*
X120205408Y-72900000D01*
X120185798Y-72613314D01*
X120127334Y-72331968D01*
X120117705Y-72304876D01*
X120031105Y-72061206D01*
X120031106Y-72061206D01*
X119898901Y-71806064D01*
X119733187Y-71571299D01*
X119648207Y-71480309D01*
X119537053Y-71361292D01*
X119314147Y-71179945D01*
X119314146Y-71179944D01*
X119232753Y-71130448D01*
X119185701Y-71078796D01*
X119174044Y-71009906D01*
X119201482Y-70945649D01*
X119259304Y-70906427D01*
X119297182Y-70900500D01*
X166341324Y-70900500D01*
X166408363Y-70920185D01*
X166429005Y-70936819D01*
X167563181Y-72070995D01*
X167596666Y-72132318D01*
X167599500Y-72158676D01*
X167599500Y-72328295D01*
X167579815Y-72395334D01*
X167527011Y-72441089D01*
X167457853Y-72451033D01*
X167394297Y-72422008D01*
X167387819Y-72415976D01*
X166493179Y-71521338D01*
X166493176Y-71521334D01*
X166493176Y-71521335D01*
X166486109Y-71514268D01*
X166486109Y-71514267D01*
X166398984Y-71427142D01*
X166398983Y-71427141D01*
X166398982Y-71427140D01*
X166347760Y-71392915D01*
X166296537Y-71358688D01*
X166296534Y-71358686D01*
X166296531Y-71358685D01*
X166216043Y-71325347D01*
X166182704Y-71311537D01*
X166172678Y-71309543D01*
X166122280Y-71299518D01*
X166061861Y-71287500D01*
X166061858Y-71287500D01*
X166061857Y-71287500D01*
X125648607Y-71287500D01*
X125525393Y-71287500D01*
X125525389Y-71287500D01*
X125464971Y-71299518D01*
X125427259Y-71307019D01*
X125404550Y-71311536D01*
X125404548Y-71311537D01*
X125371207Y-71325347D01*
X125290719Y-71358684D01*
X125290705Y-71358692D01*
X125188272Y-71427138D01*
X125188264Y-71427144D01*
X125101139Y-71514270D01*
X124883795Y-71731613D01*
X124822472Y-71765098D01*
X124764021Y-71763707D01*
X124720068Y-71751930D01*
X124500002Y-71732677D01*
X124499998Y-71732677D01*
X124279937Y-71751929D01*
X124279929Y-71751930D01*
X124066554Y-71809104D01*
X124066548Y-71809107D01*
X123866340Y-71902465D01*
X123866338Y-71902466D01*
X123685377Y-72029175D01*
X123529175Y-72185377D01*
X123402466Y-72366338D01*
X123402465Y-72366340D01*
X123362382Y-72452299D01*
X123316209Y-72504738D01*
X123249016Y-72523890D01*
X123182135Y-72503674D01*
X123137618Y-72452299D01*
X123120680Y-72415976D01*
X123097534Y-72366339D01*
X122995115Y-72220068D01*
X122970827Y-72185381D01*
X122892760Y-72107314D01*
X122814620Y-72029174D01*
X122814616Y-72029171D01*
X122814615Y-72029170D01*
X122633666Y-71902468D01*
X122633662Y-71902466D01*
X122558040Y-71867203D01*
X122433450Y-71809106D01*
X122433447Y-71809105D01*
X122433445Y-71809104D01*
X122220070Y-71751930D01*
X122220062Y-71751929D01*
X122000002Y-71732677D01*
X121999998Y-71732677D01*
X121779937Y-71751929D01*
X121779929Y-71751930D01*
X121566554Y-71809104D01*
X121566548Y-71809107D01*
X121366340Y-71902465D01*
X121366338Y-71902466D01*
X121185377Y-72029175D01*
X121029175Y-72185377D01*
X120902466Y-72366338D01*
X120902465Y-72366340D01*
X120809107Y-72566548D01*
X120809104Y-72566554D01*
X120751930Y-72779929D01*
X120751929Y-72779937D01*
X120732677Y-72999997D01*
X120732677Y-73000000D01*
X120751929Y-73220062D01*
X120751930Y-73220070D01*
X120809104Y-73433445D01*
X120809105Y-73433447D01*
X120809106Y-73433450D01*
X120886182Y-73598740D01*
X120902466Y-73633662D01*
X120902468Y-73633666D01*
X121029170Y-73814615D01*
X121029175Y-73814621D01*
X121185378Y-73970824D01*
X121185384Y-73970829D01*
X121366333Y-74097531D01*
X121366335Y-74097532D01*
X121366338Y-74097534D01*
X121566550Y-74190894D01*
X121779932Y-74248070D01*
X121937123Y-74261822D01*
X121999998Y-74267323D01*
X122000000Y-74267323D01*
X122000002Y-74267323D01*
X122055017Y-74262509D01*
X122220068Y-74248070D01*
X122433450Y-74190894D01*
X122633662Y-74097534D01*
X122814620Y-73970826D01*
X122970826Y-73814620D01*
X123097534Y-73633662D01*
X123137618Y-73547700D01*
X123183790Y-73495261D01*
X123250983Y-73476109D01*
X123317864Y-73496324D01*
X123362382Y-73547701D01*
X123402464Y-73633658D01*
X123402468Y-73633666D01*
X123529170Y-73814615D01*
X123529175Y-73814621D01*
X123685378Y-73970824D01*
X123685384Y-73970829D01*
X123866333Y-74097531D01*
X123866335Y-74097532D01*
X123866338Y-74097534D01*
X124066550Y-74190894D01*
X124279932Y-74248070D01*
X124437123Y-74261822D01*
X124499998Y-74267323D01*
X124500000Y-74267323D01*
X124500002Y-74267323D01*
X124555017Y-74262509D01*
X124720068Y-74248070D01*
X124933450Y-74190894D01*
X125133662Y-74097534D01*
X125314620Y-73970826D01*
X125470826Y-73814620D01*
X125597534Y-73633662D01*
X125637618Y-73547700D01*
X125683790Y-73495261D01*
X125750983Y-73476109D01*
X125817864Y-73496324D01*
X125862382Y-73547701D01*
X125902464Y-73633658D01*
X125902468Y-73633666D01*
X126029170Y-73814615D01*
X126029175Y-73814621D01*
X126185378Y-73970824D01*
X126185384Y-73970829D01*
X126366333Y-74097531D01*
X126366335Y-74097532D01*
X126366338Y-74097534D01*
X126566550Y-74190894D01*
X126779932Y-74248070D01*
X126937123Y-74261822D01*
X126999998Y-74267323D01*
X127000000Y-74267323D01*
X127000002Y-74267323D01*
X127055017Y-74262509D01*
X127220068Y-74248070D01*
X127433450Y-74190894D01*
X127633662Y-74097534D01*
X127814620Y-73970826D01*
X127970826Y-73814620D01*
X128097534Y-73633662D01*
X128137894Y-73547108D01*
X128184066Y-73494669D01*
X128251259Y-73475517D01*
X128318140Y-73495732D01*
X128362658Y-73547109D01*
X128402898Y-73633405D01*
X128402901Y-73633411D01*
X128448258Y-73698187D01*
X128448258Y-73698188D01*
X129119000Y-73027446D01*
X129119000Y-73050160D01*
X129144964Y-73147061D01*
X129195124Y-73233940D01*
X129266060Y-73304876D01*
X129352939Y-73355036D01*
X129449840Y-73381000D01*
X129472553Y-73381000D01*
X128801810Y-74051740D01*
X128866590Y-74097099D01*
X128866592Y-74097100D01*
X129066715Y-74190419D01*
X129066729Y-74190424D01*
X129280013Y-74247573D01*
X129280023Y-74247575D01*
X129499999Y-74266821D01*
X129500001Y-74266821D01*
X129719976Y-74247575D01*
X129719986Y-74247573D01*
X129933270Y-74190424D01*
X129933284Y-74190419D01*
X130133407Y-74097100D01*
X130133417Y-74097094D01*
X130198188Y-74051741D01*
X129527448Y-73381000D01*
X129550160Y-73381000D01*
X129647061Y-73355036D01*
X129733940Y-73304876D01*
X129804876Y-73233940D01*
X129855036Y-73147061D01*
X129881000Y-73050160D01*
X129881000Y-73027447D01*
X130551741Y-73698188D01*
X130597094Y-73633417D01*
X130597097Y-73633412D01*
X130637340Y-73547110D01*
X130683512Y-73494670D01*
X130750705Y-73475517D01*
X130817587Y-73495732D01*
X130862105Y-73547108D01*
X130877232Y-73579547D01*
X130902464Y-73633658D01*
X130902466Y-73633661D01*
X130902468Y-73633666D01*
X131029170Y-73814615D01*
X131029175Y-73814621D01*
X131185378Y-73970824D01*
X131185384Y-73970829D01*
X131366333Y-74097531D01*
X131366335Y-74097532D01*
X131366338Y-74097534D01*
X131566550Y-74190894D01*
X131779932Y-74248070D01*
X131937123Y-74261822D01*
X131999998Y-74267323D01*
X132000000Y-74267323D01*
X132000002Y-74267323D01*
X132055017Y-74262509D01*
X132220068Y-74248070D01*
X132433450Y-74190894D01*
X132633662Y-74097534D01*
X132814620Y-73970826D01*
X132900820Y-73884626D01*
X132962143Y-73851141D01*
X133031835Y-73856125D01*
X133087768Y-73897997D01*
X133112185Y-73963461D01*
X133112501Y-73972307D01*
X133112501Y-77964106D01*
X133092816Y-78031145D01*
X133040012Y-78076900D01*
X132970854Y-78086844D01*
X132907298Y-78057819D01*
X132897278Y-78048096D01*
X132821784Y-77966087D01*
X132821779Y-77966083D01*
X132821777Y-77966081D01*
X132638634Y-77823535D01*
X132638628Y-77823531D01*
X132434504Y-77713064D01*
X132434495Y-77713061D01*
X132214984Y-77637702D01*
X132024450Y-77605908D01*
X131986049Y-77599500D01*
X131753951Y-77599500D01*
X131715550Y-77605908D01*
X131525015Y-77637702D01*
X131305504Y-77713061D01*
X131305495Y-77713064D01*
X131101371Y-77823531D01*
X131101365Y-77823535D01*
X130918222Y-77966081D01*
X130918218Y-77966085D01*
X130909866Y-77975158D01*
X130849979Y-78011148D01*
X130780141Y-78009047D01*
X130722525Y-77969522D01*
X130702455Y-77934507D01*
X130673797Y-77857671D01*
X130673793Y-77857664D01*
X130587547Y-77742455D01*
X130587544Y-77742452D01*
X130472335Y-77656206D01*
X130472328Y-77656202D01*
X130337482Y-77605908D01*
X130337483Y-77605908D01*
X130277883Y-77599501D01*
X130277881Y-77599500D01*
X130277873Y-77599500D01*
X130277864Y-77599500D01*
X128382129Y-77599500D01*
X128382123Y-77599501D01*
X128322516Y-77605908D01*
X128187671Y-77656202D01*
X128187664Y-77656206D01*
X128072455Y-77742452D01*
X128072452Y-77742455D01*
X127986206Y-77857664D01*
X127986202Y-77857671D01*
X127935908Y-77992517D01*
X127929501Y-78052116D01*
X127929500Y-78052135D01*
X127929500Y-78518915D01*
X127909815Y-78585954D01*
X127857011Y-78631709D01*
X127787853Y-78641653D01*
X127724297Y-78612628D01*
X127693118Y-78571320D01*
X127597534Y-78366340D01*
X127597533Y-78366338D01*
X127470827Y-78185381D01*
X127422293Y-78136847D01*
X127314620Y-78029174D01*
X127314616Y-78029171D01*
X127314615Y-78029170D01*
X127133666Y-77902468D01*
X127133662Y-77902466D01*
X127037583Y-77857664D01*
X126933450Y-77809106D01*
X126933447Y-77809105D01*
X126933445Y-77809104D01*
X126720070Y-77751930D01*
X126720062Y-77751929D01*
X126500002Y-77732677D01*
X126499998Y-77732677D01*
X126279937Y-77751929D01*
X126279929Y-77751930D01*
X126066554Y-77809104D01*
X126066548Y-77809107D01*
X125866340Y-77902465D01*
X125866338Y-77902466D01*
X125685377Y-78029175D01*
X125529175Y-78185377D01*
X125402466Y-78366338D01*
X125402465Y-78366340D01*
X125309107Y-78566548D01*
X125309104Y-78566554D01*
X125251930Y-78779929D01*
X125251929Y-78779937D01*
X125232677Y-78999997D01*
X125232677Y-79000002D01*
X125251929Y-79220062D01*
X125251930Y-79220070D01*
X125309104Y-79433445D01*
X125309105Y-79433447D01*
X125309106Y-79433450D01*
X125402346Y-79633405D01*
X125402466Y-79633662D01*
X125402468Y-79633666D01*
X125529170Y-79814615D01*
X125529175Y-79814621D01*
X125685378Y-79970824D01*
X125685384Y-79970829D01*
X125866333Y-80097531D01*
X125866335Y-80097532D01*
X125866338Y-80097534D01*
X126066550Y-80190894D01*
X126279932Y-80248070D01*
X126437123Y-80261822D01*
X126499998Y-80267323D01*
X126500000Y-80267323D01*
X126500002Y-80267323D01*
X126555017Y-80262509D01*
X126720068Y-80248070D01*
X126933450Y-80190894D01*
X127133662Y-80097534D01*
X127314620Y-79970826D01*
X127470826Y-79814620D01*
X127597534Y-79633662D01*
X127690894Y-79433450D01*
X127690895Y-79433446D01*
X127693118Y-79428679D01*
X127739290Y-79376239D01*
X127806483Y-79357087D01*
X127873364Y-79377302D01*
X127918699Y-79430467D01*
X127929500Y-79481083D01*
X127929500Y-79947870D01*
X127929501Y-79947876D01*
X127935908Y-80007483D01*
X127986202Y-80142328D01*
X127986206Y-80142335D01*
X128072452Y-80257544D01*
X128072455Y-80257547D01*
X128187664Y-80343793D01*
X128187671Y-80343797D01*
X128322517Y-80394091D01*
X128322516Y-80394091D01*
X128329444Y-80394835D01*
X128382127Y-80400500D01*
X130277872Y-80400499D01*
X130337483Y-80394091D01*
X130472331Y-80343796D01*
X130587546Y-80257546D01*
X130673796Y-80142331D01*
X130690505Y-80097533D01*
X130702455Y-80065493D01*
X130744326Y-80009559D01*
X130809790Y-79985141D01*
X130878063Y-79999992D01*
X130909866Y-80024843D01*
X130917302Y-80032920D01*
X130918215Y-80033912D01*
X130918222Y-80033918D01*
X131101365Y-80176464D01*
X131101371Y-80176468D01*
X131101374Y-80176470D01*
X131305497Y-80286936D01*
X131412549Y-80323687D01*
X131525015Y-80362297D01*
X131525017Y-80362297D01*
X131525019Y-80362298D01*
X131753951Y-80400500D01*
X131753952Y-80400500D01*
X131895500Y-80400500D01*
X131962539Y-80420185D01*
X132008294Y-80472989D01*
X132019500Y-80524500D01*
X132019500Y-94676000D01*
X131999815Y-94743039D01*
X131947011Y-94788794D01*
X131895500Y-94800000D01*
X131650000Y-94800000D01*
X131650000Y-95824722D01*
X131573694Y-95780667D01*
X131459244Y-95750000D01*
X131340756Y-95750000D01*
X131226306Y-95780667D01*
X131150000Y-95824722D01*
X131150000Y-94800000D01*
X130452155Y-94800000D01*
X130392627Y-94806401D01*
X130392620Y-94806403D01*
X130257913Y-94856645D01*
X130257906Y-94856649D01*
X130142812Y-94942809D01*
X130142809Y-94942812D01*
X130056649Y-95057906D01*
X130056646Y-95057911D01*
X130027924Y-95134920D01*
X129986052Y-95190853D01*
X129920588Y-95215270D01*
X129852315Y-95200418D01*
X129820514Y-95175571D01*
X129811784Y-95166087D01*
X129811779Y-95166083D01*
X129811777Y-95166081D01*
X129628634Y-95023535D01*
X129628628Y-95023531D01*
X129424504Y-94913064D01*
X129424495Y-94913061D01*
X129204984Y-94837702D01*
X129017404Y-94806401D01*
X128976049Y-94799500D01*
X128743951Y-94799500D01*
X128702596Y-94806401D01*
X128515015Y-94837702D01*
X128295504Y-94913061D01*
X128295495Y-94913064D01*
X128091371Y-95023531D01*
X128091365Y-95023535D01*
X127908222Y-95166081D01*
X127908219Y-95166084D01*
X127908216Y-95166086D01*
X127908216Y-95166087D01*
X127879270Y-95197531D01*
X127751016Y-95336852D01*
X127624075Y-95531151D01*
X127530841Y-95743703D01*
X127530841Y-95743704D01*
X127479509Y-95946406D01*
X127443970Y-96006561D01*
X127381549Y-96037953D01*
X127312066Y-96030615D01*
X127257581Y-95986876D01*
X127239529Y-95948058D01*
X127239086Y-95946406D01*
X127190894Y-95766550D01*
X127097534Y-95566339D01*
X127017992Y-95452741D01*
X126970827Y-95385381D01*
X126903209Y-95317763D01*
X126814620Y-95229174D01*
X126814616Y-95229171D01*
X126814615Y-95229170D01*
X126633666Y-95102468D01*
X126633662Y-95102466D01*
X126633660Y-95102465D01*
X126433450Y-95009106D01*
X126433447Y-95009105D01*
X126433445Y-95009104D01*
X126220070Y-94951930D01*
X126220062Y-94951929D01*
X126000002Y-94932677D01*
X125999998Y-94932677D01*
X125779937Y-94951929D01*
X125779929Y-94951930D01*
X125566554Y-95009104D01*
X125566548Y-95009107D01*
X125366340Y-95102465D01*
X125366338Y-95102466D01*
X125185377Y-95229175D01*
X125029175Y-95385377D01*
X124902466Y-95566338D01*
X124902465Y-95566340D01*
X124811455Y-95761512D01*
X124765283Y-95813951D01*
X124698089Y-95833103D01*
X124631208Y-95812887D01*
X124585873Y-95759722D01*
X124575073Y-95709107D01*
X124575073Y-93598129D01*
X124594758Y-93531090D01*
X124611387Y-93510453D01*
X128058379Y-90063460D01*
X128119700Y-90029977D01*
X128132156Y-90027925D01*
X128179255Y-90022619D01*
X128349522Y-89963040D01*
X128502262Y-89867067D01*
X128629816Y-89739513D01*
X128725789Y-89586773D01*
X128785368Y-89416506D01*
X128786374Y-89407576D01*
X128805565Y-89237254D01*
X128805565Y-89237247D01*
X128785369Y-89058001D01*
X128785368Y-89057996D01*
X128763135Y-88994457D01*
X128725789Y-88887729D01*
X128644505Y-88758367D01*
X128625500Y-88692396D01*
X128625500Y-82438393D01*
X128625499Y-82438389D01*
X128613393Y-82377526D01*
X128601463Y-82317548D01*
X128554311Y-82203714D01*
X128554310Y-82203713D01*
X128554307Y-82203707D01*
X128485859Y-82101268D01*
X128455184Y-82070593D01*
X128398733Y-82014142D01*
X128398732Y-82014141D01*
X127605927Y-81221337D01*
X127605925Y-81221334D01*
X127605925Y-81221335D01*
X127598858Y-81214268D01*
X127598858Y-81214267D01*
X127511733Y-81127142D01*
X127511732Y-81127141D01*
X127511731Y-81127140D01*
X127460509Y-81092915D01*
X127409286Y-81058688D01*
X127409283Y-81058686D01*
X127409280Y-81058685D01*
X127328792Y-81025347D01*
X127295453Y-81011537D01*
X127285427Y-81009543D01*
X127235029Y-80999518D01*
X127174610Y-80987500D01*
X127174607Y-80987500D01*
X127174606Y-80987500D01*
X117648607Y-80987500D01*
X117525393Y-80987500D01*
X117525389Y-80987500D01*
X117464971Y-80999518D01*
X117427259Y-81007019D01*
X117404550Y-81011536D01*
X117404548Y-81011537D01*
X117371207Y-81025347D01*
X117290719Y-81058684D01*
X117290705Y-81058692D01*
X117188272Y-81127138D01*
X117188264Y-81127144D01*
X117101139Y-81214270D01*
X116883795Y-81431613D01*
X116822472Y-81465098D01*
X116764021Y-81463707D01*
X116720068Y-81451930D01*
X116500002Y-81432677D01*
X116499998Y-81432677D01*
X116353288Y-81445512D01*
X116279932Y-81451930D01*
X116279930Y-81451930D01*
X116279926Y-81451931D01*
X116235976Y-81463707D01*
X116166126Y-81462043D01*
X116116203Y-81431613D01*
X113684589Y-78999999D01*
X115233179Y-78999999D01*
X115233179Y-79000000D01*
X115252424Y-79219976D01*
X115252426Y-79219986D01*
X115309575Y-79433270D01*
X115309580Y-79433284D01*
X115402898Y-79633405D01*
X115402901Y-79633411D01*
X115448258Y-79698187D01*
X115448258Y-79698188D01*
X116119000Y-79027446D01*
X116119000Y-79050160D01*
X116144964Y-79147061D01*
X116195124Y-79233940D01*
X116266060Y-79304876D01*
X116352939Y-79355036D01*
X116449840Y-79381000D01*
X116472553Y-79381000D01*
X115801810Y-80051740D01*
X115866590Y-80097099D01*
X115866592Y-80097100D01*
X116066715Y-80190419D01*
X116066729Y-80190424D01*
X116280013Y-80247573D01*
X116280023Y-80247575D01*
X116499999Y-80266821D01*
X116500001Y-80266821D01*
X116719976Y-80247575D01*
X116719986Y-80247573D01*
X116933270Y-80190424D01*
X116933284Y-80190419D01*
X117133407Y-80097100D01*
X117133417Y-80097094D01*
X117198188Y-80051741D01*
X116527448Y-79381000D01*
X116550160Y-79381000D01*
X116647061Y-79355036D01*
X116733940Y-79304876D01*
X116804876Y-79233940D01*
X116855036Y-79147061D01*
X116881000Y-79050160D01*
X116881000Y-79027447D01*
X117551741Y-79698188D01*
X117597094Y-79633417D01*
X117597100Y-79633407D01*
X117690419Y-79433284D01*
X117690424Y-79433270D01*
X117747573Y-79219986D01*
X117747575Y-79219976D01*
X117766821Y-79000000D01*
X117766821Y-78999999D01*
X117747575Y-78780023D01*
X117747573Y-78780013D01*
X117690424Y-78566729D01*
X117690420Y-78566720D01*
X117597096Y-78366586D01*
X117551741Y-78301811D01*
X117551740Y-78301810D01*
X116881000Y-78972551D01*
X116881000Y-78949840D01*
X116855036Y-78852939D01*
X116804876Y-78766060D01*
X116733940Y-78695124D01*
X116647061Y-78644964D01*
X116550160Y-78619000D01*
X116527447Y-78619000D01*
X117198188Y-77948258D01*
X117133411Y-77902901D01*
X117133405Y-77902898D01*
X116933284Y-77809580D01*
X116933270Y-77809575D01*
X116719986Y-77752426D01*
X116719976Y-77752424D01*
X116500001Y-77733179D01*
X116499999Y-77733179D01*
X116280023Y-77752424D01*
X116280013Y-77752426D01*
X116066729Y-77809575D01*
X116066720Y-77809579D01*
X115866590Y-77902901D01*
X115801811Y-77948258D01*
X116472554Y-78619000D01*
X116449840Y-78619000D01*
X116352939Y-78644964D01*
X116266060Y-78695124D01*
X116195124Y-78766060D01*
X116144964Y-78852939D01*
X116119000Y-78949840D01*
X116119000Y-78972553D01*
X115448258Y-78301811D01*
X115402901Y-78366590D01*
X115309579Y-78566720D01*
X115309575Y-78566729D01*
X115252426Y-78780013D01*
X115252424Y-78780023D01*
X115233179Y-78999999D01*
X113684589Y-78999999D01*
X112643814Y-77959224D01*
X112610329Y-77897901D01*
X112615313Y-77828209D01*
X112657185Y-77772276D01*
X112714950Y-77750210D01*
X112714739Y-77749009D01*
X112720060Y-77748070D01*
X112720068Y-77748070D01*
X112933450Y-77690894D01*
X113133662Y-77597534D01*
X113314620Y-77470826D01*
X113470826Y-77314620D01*
X113597534Y-77133662D01*
X113690894Y-76933450D01*
X113748070Y-76720068D01*
X113767323Y-76500000D01*
X113748070Y-76279932D01*
X113690894Y-76066550D01*
X113597534Y-75866339D01*
X113470826Y-75685380D01*
X113314620Y-75529174D01*
X113314616Y-75529171D01*
X113314615Y-75529170D01*
X113133666Y-75402468D01*
X113133662Y-75402466D01*
X113094254Y-75384090D01*
X112933450Y-75309106D01*
X112933447Y-75309105D01*
X112933445Y-75309104D01*
X112720070Y-75251930D01*
X112720062Y-75251929D01*
X112500002Y-75232677D01*
X112499998Y-75232677D01*
X112279937Y-75251929D01*
X112279929Y-75251930D01*
X112066554Y-75309104D01*
X112066548Y-75309107D01*
X111866340Y-75402465D01*
X111866338Y-75402466D01*
X111685377Y-75529175D01*
X111529175Y-75685377D01*
X111402466Y-75866338D01*
X111402465Y-75866340D01*
X111309107Y-76066548D01*
X111309104Y-76066554D01*
X111251930Y-76279929D01*
X111250991Y-76285261D01*
X111249745Y-76285041D01*
X111226525Y-76344389D01*
X111169931Y-76385362D01*
X111100168Y-76389234D01*
X111040775Y-76356185D01*
X107822699Y-73138109D01*
X107789214Y-73076786D01*
X107794198Y-73007094D01*
X107822699Y-72962747D01*
X107885446Y-72900000D01*
X107970826Y-72814620D01*
X108097534Y-72633662D01*
X108190894Y-72433450D01*
X108248070Y-72220068D01*
X108267323Y-72000000D01*
X108248070Y-71779932D01*
X108190894Y-71566550D01*
X108097534Y-71366339D01*
X107970826Y-71185380D01*
X107970824Y-71185377D01*
X107897628Y-71112181D01*
X107864143Y-71050858D01*
X107869127Y-70981166D01*
X107910999Y-70925233D01*
X107976463Y-70900816D01*
X107985309Y-70900500D01*
X111702691Y-70900500D01*
X111769730Y-70920185D01*
G37*
%TD.AperFunction*%
%TA.AperFunction,Conductor*%
G36*
X169356089Y-94802536D02*
G01*
X169408191Y-94813007D01*
X169458375Y-94861622D01*
X169474500Y-94922769D01*
X169474500Y-95689691D01*
X169454815Y-95756730D01*
X169402011Y-95802485D01*
X169332853Y-95812429D01*
X169269297Y-95783404D01*
X169262819Y-95777373D01*
X169194553Y-95709107D01*
X169114620Y-95629174D01*
X169114616Y-95629171D01*
X169114615Y-95629170D01*
X168933666Y-95502468D01*
X168933663Y-95502466D01*
X168933662Y-95502466D01*
X168873744Y-95474526D01*
X168847108Y-95462105D01*
X168794669Y-95415932D01*
X168775517Y-95348739D01*
X168795733Y-95281858D01*
X168847110Y-95237340D01*
X168933412Y-95197097D01*
X168933417Y-95197094D01*
X168998188Y-95151741D01*
X168327448Y-94481000D01*
X168350160Y-94481000D01*
X168447061Y-94455036D01*
X168533940Y-94404876D01*
X168604876Y-94333940D01*
X168655036Y-94247061D01*
X168681000Y-94150160D01*
X168681000Y-94127446D01*
X169356089Y-94802536D01*
G37*
%TD.AperFunction*%
%TA.AperFunction,Conductor*%
G36*
X164708063Y-85099992D02*
G01*
X164739866Y-85124843D01*
X164745046Y-85130469D01*
X164748215Y-85133912D01*
X164748222Y-85133918D01*
X164931365Y-85276464D01*
X164931371Y-85276468D01*
X164931374Y-85276470D01*
X165135497Y-85386936D01*
X165249487Y-85426068D01*
X165355015Y-85462297D01*
X165355017Y-85462297D01*
X165355019Y-85462298D01*
X165583951Y-85500500D01*
X165583952Y-85500500D01*
X165816048Y-85500500D01*
X165816049Y-85500500D01*
X166044981Y-85462298D01*
X166210238Y-85405564D01*
X166280035Y-85402415D01*
X166340457Y-85437501D01*
X166372317Y-85499683D01*
X166374500Y-85522846D01*
X166374500Y-86539338D01*
X166354815Y-86606377D01*
X166338181Y-86627019D01*
X165886610Y-87078589D01*
X165886604Y-87078597D01*
X165818158Y-87181030D01*
X165818150Y-87181044D01*
X165784813Y-87261532D01*
X165781930Y-87268493D01*
X165771003Y-87294870D01*
X165771001Y-87294878D01*
X165746966Y-87415714D01*
X165746966Y-87415719D01*
X165746966Y-89335859D01*
X165746966Y-89459073D01*
X165746966Y-89459075D01*
X165746965Y-89459075D01*
X165755358Y-89501264D01*
X165755358Y-89501266D01*
X165771001Y-89579911D01*
X165771004Y-89579922D01*
X165773843Y-89586774D01*
X165779505Y-89600444D01*
X165780858Y-89603708D01*
X165780859Y-89603714D01*
X165780860Y-89603714D01*
X165818154Y-89693752D01*
X165848731Y-89739513D01*
X165851182Y-89743180D01*
X165851183Y-89743182D01*
X165886606Y-89796197D01*
X165886607Y-89796198D01*
X165886608Y-89796199D01*
X165973733Y-89883324D01*
X165973734Y-89883324D01*
X165980801Y-89890391D01*
X165980800Y-89890391D01*
X165980804Y-89890394D01*
X168770379Y-92679969D01*
X168803864Y-92741292D01*
X168798880Y-92810984D01*
X168757008Y-92866917D01*
X168691544Y-92891334D01*
X168650605Y-92887425D01*
X168519986Y-92852426D01*
X168519976Y-92852424D01*
X168300001Y-92833179D01*
X168299999Y-92833179D01*
X168080023Y-92852424D01*
X168080013Y-92852426D01*
X167866729Y-92909575D01*
X167866720Y-92909579D01*
X167666590Y-93002901D01*
X167601811Y-93048258D01*
X168272554Y-93719000D01*
X168249840Y-93719000D01*
X168152939Y-93744964D01*
X168066060Y-93795124D01*
X167995124Y-93866060D01*
X167944964Y-93952939D01*
X167919000Y-94049840D01*
X167919000Y-94072553D01*
X167248258Y-93401811D01*
X167202901Y-93466590D01*
X167162658Y-93552891D01*
X167116485Y-93605330D01*
X167049292Y-93624482D01*
X166982411Y-93604266D01*
X166937894Y-93552891D01*
X166897534Y-93466340D01*
X166897533Y-93466338D01*
X166770827Y-93285381D01*
X166711513Y-93226067D01*
X166614620Y-93129174D01*
X166614616Y-93129171D01*
X166614615Y-93129170D01*
X166433666Y-93002468D01*
X166433662Y-93002466D01*
X166409924Y-92991397D01*
X166233450Y-92909106D01*
X166233447Y-92909105D01*
X166233445Y-92909104D01*
X166020070Y-92851930D01*
X166020062Y-92851929D01*
X165800002Y-92832677D01*
X165799998Y-92832677D01*
X165579937Y-92851929D01*
X165579929Y-92851930D01*
X165366554Y-92909104D01*
X165366548Y-92909107D01*
X165166340Y-93002465D01*
X165166338Y-93002466D01*
X164985377Y-93129175D01*
X164829175Y-93285377D01*
X164702466Y-93466338D01*
X164702465Y-93466340D01*
X164609107Y-93666548D01*
X164609104Y-93666554D01*
X164551930Y-93879929D01*
X164551929Y-93879937D01*
X164532677Y-94099997D01*
X164532677Y-94100002D01*
X164551930Y-94320066D01*
X164551930Y-94320070D01*
X164563707Y-94364021D01*
X164562044Y-94433871D01*
X164531613Y-94483795D01*
X163997181Y-95018228D01*
X163935858Y-95051713D01*
X163866167Y-95046729D01*
X163810233Y-95004858D01*
X163785816Y-94939393D01*
X163785500Y-94930547D01*
X163785500Y-85624499D01*
X163805185Y-85557460D01*
X163857989Y-85511705D01*
X163909500Y-85500499D01*
X164107871Y-85500499D01*
X164107872Y-85500499D01*
X164167483Y-85494091D01*
X164302331Y-85443796D01*
X164417546Y-85357546D01*
X164503796Y-85242331D01*
X164503798Y-85242326D01*
X164532455Y-85165493D01*
X164574326Y-85109559D01*
X164639790Y-85085141D01*
X164708063Y-85099992D01*
G37*
%TD.AperFunction*%
%TD*%
M02*
