%TF.GenerationSoftware,KiCad,Pcbnew,8.0.7*%
%TF.CreationDate,2025-08-15T01:06:22+02:00*%
%TF.ProjectId,Arduino,41726475-696e-46f2-9e6b-696361645f70,rev?*%
%TF.SameCoordinates,Original*%
%TF.FileFunction,Legend,Bot*%
%TF.FilePolarity,Positive*%
%FSLAX46Y46*%
G04 Gerber Fmt 4.6, Leading zero omitted, Abs format (unit mm)*
G04 Created by KiCad (PCBNEW 8.0.7) date 2025-08-15 01:06:22*
%MOMM*%
%LPD*%
G01*
G04 APERTURE LIST*
%ADD10C,0.100000*%
G04 APERTURE END LIST*
D10*
X165905639Y-114242587D02*
X165715163Y-114242587D01*
X165715163Y-114242587D02*
X165619925Y-114290206D01*
X165619925Y-114290206D02*
X165524687Y-114385444D01*
X165524687Y-114385444D02*
X165477068Y-114575920D01*
X165477068Y-114575920D02*
X165477068Y-114909253D01*
X165477068Y-114909253D02*
X165524687Y-115099729D01*
X165524687Y-115099729D02*
X165619925Y-115194968D01*
X165619925Y-115194968D02*
X165715163Y-115242587D01*
X165715163Y-115242587D02*
X165905639Y-115242587D01*
X165905639Y-115242587D02*
X166000877Y-115194968D01*
X166000877Y-115194968D02*
X166096115Y-115099729D01*
X166096115Y-115099729D02*
X166143734Y-114909253D01*
X166143734Y-114909253D02*
X166143734Y-114575920D01*
X166143734Y-114575920D02*
X166096115Y-114385444D01*
X166096115Y-114385444D02*
X166000877Y-114290206D01*
X166000877Y-114290206D02*
X165905639Y-114242587D01*
X165048496Y-115242587D02*
X165048496Y-114242587D01*
X165048496Y-114242587D02*
X164667544Y-114242587D01*
X164667544Y-114242587D02*
X164572306Y-114290206D01*
X164572306Y-114290206D02*
X164524687Y-114337825D01*
X164524687Y-114337825D02*
X164477068Y-114433063D01*
X164477068Y-114433063D02*
X164477068Y-114575920D01*
X164477068Y-114575920D02*
X164524687Y-114671158D01*
X164524687Y-114671158D02*
X164572306Y-114718777D01*
X164572306Y-114718777D02*
X164667544Y-114766396D01*
X164667544Y-114766396D02*
X165048496Y-114766396D01*
X164048496Y-114718777D02*
X163715163Y-114718777D01*
X163572306Y-115242587D02*
X164048496Y-115242587D01*
X164048496Y-115242587D02*
X164048496Y-114242587D01*
X164048496Y-114242587D02*
X163572306Y-114242587D01*
X163143734Y-115242587D02*
X163143734Y-114242587D01*
X163143734Y-114242587D02*
X162572306Y-115242587D01*
X162572306Y-115242587D02*
X162572306Y-114242587D01*
X161381829Y-115194968D02*
X161238972Y-115242587D01*
X161238972Y-115242587D02*
X161000877Y-115242587D01*
X161000877Y-115242587D02*
X160905639Y-115194968D01*
X160905639Y-115194968D02*
X160858020Y-115147348D01*
X160858020Y-115147348D02*
X160810401Y-115052110D01*
X160810401Y-115052110D02*
X160810401Y-114956872D01*
X160810401Y-114956872D02*
X160858020Y-114861634D01*
X160858020Y-114861634D02*
X160905639Y-114814015D01*
X160905639Y-114814015D02*
X161000877Y-114766396D01*
X161000877Y-114766396D02*
X161191353Y-114718777D01*
X161191353Y-114718777D02*
X161286591Y-114671158D01*
X161286591Y-114671158D02*
X161334210Y-114623539D01*
X161334210Y-114623539D02*
X161381829Y-114528301D01*
X161381829Y-114528301D02*
X161381829Y-114433063D01*
X161381829Y-114433063D02*
X161334210Y-114337825D01*
X161334210Y-114337825D02*
X161286591Y-114290206D01*
X161286591Y-114290206D02*
X161191353Y-114242587D01*
X161191353Y-114242587D02*
X160953258Y-114242587D01*
X160953258Y-114242587D02*
X160810401Y-114290206D01*
X160191353Y-114242587D02*
X160000877Y-114242587D01*
X160000877Y-114242587D02*
X159905639Y-114290206D01*
X159905639Y-114290206D02*
X159810401Y-114385444D01*
X159810401Y-114385444D02*
X159762782Y-114575920D01*
X159762782Y-114575920D02*
X159762782Y-114909253D01*
X159762782Y-114909253D02*
X159810401Y-115099729D01*
X159810401Y-115099729D02*
X159905639Y-115194968D01*
X159905639Y-115194968D02*
X160000877Y-115242587D01*
X160000877Y-115242587D02*
X160191353Y-115242587D01*
X160191353Y-115242587D02*
X160286591Y-115194968D01*
X160286591Y-115194968D02*
X160381829Y-115099729D01*
X160381829Y-115099729D02*
X160429448Y-114909253D01*
X160429448Y-114909253D02*
X160429448Y-114575920D01*
X160429448Y-114575920D02*
X160381829Y-114385444D01*
X160381829Y-114385444D02*
X160286591Y-114290206D01*
X160286591Y-114290206D02*
X160191353Y-114242587D01*
X159334210Y-114242587D02*
X159334210Y-115052110D01*
X159334210Y-115052110D02*
X159286591Y-115147348D01*
X159286591Y-115147348D02*
X159238972Y-115194968D01*
X159238972Y-115194968D02*
X159143734Y-115242587D01*
X159143734Y-115242587D02*
X158953258Y-115242587D01*
X158953258Y-115242587D02*
X158858020Y-115194968D01*
X158858020Y-115194968D02*
X158810401Y-115147348D01*
X158810401Y-115147348D02*
X158762782Y-115052110D01*
X158762782Y-115052110D02*
X158762782Y-114242587D01*
X157715163Y-115242587D02*
X158048496Y-114766396D01*
X158286591Y-115242587D02*
X158286591Y-114242587D01*
X158286591Y-114242587D02*
X157905639Y-114242587D01*
X157905639Y-114242587D02*
X157810401Y-114290206D01*
X157810401Y-114290206D02*
X157762782Y-114337825D01*
X157762782Y-114337825D02*
X157715163Y-114433063D01*
X157715163Y-114433063D02*
X157715163Y-114575920D01*
X157715163Y-114575920D02*
X157762782Y-114671158D01*
X157762782Y-114671158D02*
X157810401Y-114718777D01*
X157810401Y-114718777D02*
X157905639Y-114766396D01*
X157905639Y-114766396D02*
X158286591Y-114766396D01*
X156715163Y-115147348D02*
X156762782Y-115194968D01*
X156762782Y-115194968D02*
X156905639Y-115242587D01*
X156905639Y-115242587D02*
X157000877Y-115242587D01*
X157000877Y-115242587D02*
X157143734Y-115194968D01*
X157143734Y-115194968D02*
X157238972Y-115099729D01*
X157238972Y-115099729D02*
X157286591Y-115004491D01*
X157286591Y-115004491D02*
X157334210Y-114814015D01*
X157334210Y-114814015D02*
X157334210Y-114671158D01*
X157334210Y-114671158D02*
X157286591Y-114480682D01*
X157286591Y-114480682D02*
X157238972Y-114385444D01*
X157238972Y-114385444D02*
X157143734Y-114290206D01*
X157143734Y-114290206D02*
X157000877Y-114242587D01*
X157000877Y-114242587D02*
X156905639Y-114242587D01*
X156905639Y-114242587D02*
X156762782Y-114290206D01*
X156762782Y-114290206D02*
X156715163Y-114337825D01*
X156286591Y-114718777D02*
X155953258Y-114718777D01*
X155810401Y-115242587D02*
X156286591Y-115242587D01*
X156286591Y-115242587D02*
X156286591Y-114242587D01*
X156286591Y-114242587D02*
X155810401Y-114242587D01*
X154619924Y-115242587D02*
X154619924Y-114242587D01*
X154191353Y-115194968D02*
X154048496Y-115242587D01*
X154048496Y-115242587D02*
X153810401Y-115242587D01*
X153810401Y-115242587D02*
X153715163Y-115194968D01*
X153715163Y-115194968D02*
X153667544Y-115147348D01*
X153667544Y-115147348D02*
X153619925Y-115052110D01*
X153619925Y-115052110D02*
X153619925Y-114956872D01*
X153619925Y-114956872D02*
X153667544Y-114861634D01*
X153667544Y-114861634D02*
X153715163Y-114814015D01*
X153715163Y-114814015D02*
X153810401Y-114766396D01*
X153810401Y-114766396D02*
X154000877Y-114718777D01*
X154000877Y-114718777D02*
X154096115Y-114671158D01*
X154096115Y-114671158D02*
X154143734Y-114623539D01*
X154143734Y-114623539D02*
X154191353Y-114528301D01*
X154191353Y-114528301D02*
X154191353Y-114433063D01*
X154191353Y-114433063D02*
X154143734Y-114337825D01*
X154143734Y-114337825D02*
X154096115Y-114290206D01*
X154096115Y-114290206D02*
X154000877Y-114242587D01*
X154000877Y-114242587D02*
X153762782Y-114242587D01*
X153762782Y-114242587D02*
X153619925Y-114290206D01*
X151953258Y-115242587D02*
X152429448Y-115242587D01*
X152429448Y-115242587D02*
X152429448Y-114242587D01*
X151429448Y-114242587D02*
X151238972Y-114242587D01*
X151238972Y-114242587D02*
X151143734Y-114290206D01*
X151143734Y-114290206D02*
X151048496Y-114385444D01*
X151048496Y-114385444D02*
X151000877Y-114575920D01*
X151000877Y-114575920D02*
X151000877Y-114909253D01*
X151000877Y-114909253D02*
X151048496Y-115099729D01*
X151048496Y-115099729D02*
X151143734Y-115194968D01*
X151143734Y-115194968D02*
X151238972Y-115242587D01*
X151238972Y-115242587D02*
X151429448Y-115242587D01*
X151429448Y-115242587D02*
X151524686Y-115194968D01*
X151524686Y-115194968D02*
X151619924Y-115099729D01*
X151619924Y-115099729D02*
X151667543Y-114909253D01*
X151667543Y-114909253D02*
X151667543Y-114575920D01*
X151667543Y-114575920D02*
X151619924Y-114385444D01*
X151619924Y-114385444D02*
X151524686Y-114290206D01*
X151524686Y-114290206D02*
X151429448Y-114242587D01*
X150715162Y-114242587D02*
X150381829Y-115242587D01*
X150381829Y-115242587D02*
X150048496Y-114242587D01*
X149715162Y-114718777D02*
X149381829Y-114718777D01*
X149238972Y-115242587D02*
X149715162Y-115242587D01*
X149715162Y-115242587D02*
X149715162Y-114242587D01*
X149715162Y-114242587D02*
X149238972Y-114242587D01*
X166096115Y-116852531D02*
X166096115Y-115852531D01*
X166096115Y-115852531D02*
X165858020Y-115852531D01*
X165858020Y-115852531D02*
X165715163Y-115900150D01*
X165715163Y-115900150D02*
X165619925Y-115995388D01*
X165619925Y-115995388D02*
X165572306Y-116090626D01*
X165572306Y-116090626D02*
X165524687Y-116281102D01*
X165524687Y-116281102D02*
X165524687Y-116423959D01*
X165524687Y-116423959D02*
X165572306Y-116614435D01*
X165572306Y-116614435D02*
X165619925Y-116709673D01*
X165619925Y-116709673D02*
X165715163Y-116804912D01*
X165715163Y-116804912D02*
X165858020Y-116852531D01*
X165858020Y-116852531D02*
X166096115Y-116852531D01*
X165096115Y-116328721D02*
X164762782Y-116328721D01*
X164619925Y-116852531D02*
X165096115Y-116852531D01*
X165096115Y-116852531D02*
X165096115Y-115852531D01*
X165096115Y-115852531D02*
X164619925Y-115852531D01*
X164238972Y-116804912D02*
X164096115Y-116852531D01*
X164096115Y-116852531D02*
X163858020Y-116852531D01*
X163858020Y-116852531D02*
X163762782Y-116804912D01*
X163762782Y-116804912D02*
X163715163Y-116757292D01*
X163715163Y-116757292D02*
X163667544Y-116662054D01*
X163667544Y-116662054D02*
X163667544Y-116566816D01*
X163667544Y-116566816D02*
X163715163Y-116471578D01*
X163715163Y-116471578D02*
X163762782Y-116423959D01*
X163762782Y-116423959D02*
X163858020Y-116376340D01*
X163858020Y-116376340D02*
X164048496Y-116328721D01*
X164048496Y-116328721D02*
X164143734Y-116281102D01*
X164143734Y-116281102D02*
X164191353Y-116233483D01*
X164191353Y-116233483D02*
X164238972Y-116138245D01*
X164238972Y-116138245D02*
X164238972Y-116043007D01*
X164238972Y-116043007D02*
X164191353Y-115947769D01*
X164191353Y-115947769D02*
X164143734Y-115900150D01*
X164143734Y-115900150D02*
X164048496Y-115852531D01*
X164048496Y-115852531D02*
X163810401Y-115852531D01*
X163810401Y-115852531D02*
X163667544Y-115900150D01*
X163238972Y-116852531D02*
X163238972Y-115852531D01*
X162238973Y-115900150D02*
X162334211Y-115852531D01*
X162334211Y-115852531D02*
X162477068Y-115852531D01*
X162477068Y-115852531D02*
X162619925Y-115900150D01*
X162619925Y-115900150D02*
X162715163Y-115995388D01*
X162715163Y-115995388D02*
X162762782Y-116090626D01*
X162762782Y-116090626D02*
X162810401Y-116281102D01*
X162810401Y-116281102D02*
X162810401Y-116423959D01*
X162810401Y-116423959D02*
X162762782Y-116614435D01*
X162762782Y-116614435D02*
X162715163Y-116709673D01*
X162715163Y-116709673D02*
X162619925Y-116804912D01*
X162619925Y-116804912D02*
X162477068Y-116852531D01*
X162477068Y-116852531D02*
X162381830Y-116852531D01*
X162381830Y-116852531D02*
X162238973Y-116804912D01*
X162238973Y-116804912D02*
X162191354Y-116757292D01*
X162191354Y-116757292D02*
X162191354Y-116423959D01*
X162191354Y-116423959D02*
X162381830Y-116423959D01*
X161762782Y-116852531D02*
X161762782Y-115852531D01*
X161762782Y-115852531D02*
X161191354Y-116852531D01*
X161191354Y-116852531D02*
X161191354Y-115852531D01*
X160715163Y-116328721D02*
X160381830Y-116328721D01*
X160238973Y-116852531D02*
X160715163Y-116852531D01*
X160715163Y-116852531D02*
X160715163Y-115852531D01*
X160715163Y-115852531D02*
X160238973Y-115852531D01*
X159810401Y-116852531D02*
X159810401Y-115852531D01*
X159810401Y-115852531D02*
X159572306Y-115852531D01*
X159572306Y-115852531D02*
X159429449Y-115900150D01*
X159429449Y-115900150D02*
X159334211Y-115995388D01*
X159334211Y-115995388D02*
X159286592Y-116090626D01*
X159286592Y-116090626D02*
X159238973Y-116281102D01*
X159238973Y-116281102D02*
X159238973Y-116423959D01*
X159238973Y-116423959D02*
X159286592Y-116614435D01*
X159286592Y-116614435D02*
X159334211Y-116709673D01*
X159334211Y-116709673D02*
X159429449Y-116804912D01*
X159429449Y-116804912D02*
X159572306Y-116852531D01*
X159572306Y-116852531D02*
X159810401Y-116852531D01*
X158096115Y-116566816D02*
X157619925Y-116566816D01*
X158191353Y-116852531D02*
X157858020Y-115852531D01*
X157858020Y-115852531D02*
X157524687Y-116852531D01*
X157191353Y-116852531D02*
X157191353Y-115852531D01*
X157191353Y-115852531D02*
X156619925Y-116852531D01*
X156619925Y-116852531D02*
X156619925Y-115852531D01*
X156143734Y-116852531D02*
X156143734Y-115852531D01*
X156143734Y-115852531D02*
X155905639Y-115852531D01*
X155905639Y-115852531D02*
X155762782Y-115900150D01*
X155762782Y-115900150D02*
X155667544Y-115995388D01*
X155667544Y-115995388D02*
X155619925Y-116090626D01*
X155619925Y-116090626D02*
X155572306Y-116281102D01*
X155572306Y-116281102D02*
X155572306Y-116423959D01*
X155572306Y-116423959D02*
X155619925Y-116614435D01*
X155619925Y-116614435D02*
X155667544Y-116709673D01*
X155667544Y-116709673D02*
X155762782Y-116804912D01*
X155762782Y-116804912D02*
X155905639Y-116852531D01*
X155905639Y-116852531D02*
X156143734Y-116852531D01*
X154429448Y-116566816D02*
X153953258Y-116566816D01*
X154524686Y-116852531D02*
X154191353Y-115852531D01*
X154191353Y-115852531D02*
X153858020Y-116852531D01*
X153572305Y-116804912D02*
X153429448Y-116852531D01*
X153429448Y-116852531D02*
X153191353Y-116852531D01*
X153191353Y-116852531D02*
X153096115Y-116804912D01*
X153096115Y-116804912D02*
X153048496Y-116757292D01*
X153048496Y-116757292D02*
X153000877Y-116662054D01*
X153000877Y-116662054D02*
X153000877Y-116566816D01*
X153000877Y-116566816D02*
X153048496Y-116471578D01*
X153048496Y-116471578D02*
X153096115Y-116423959D01*
X153096115Y-116423959D02*
X153191353Y-116376340D01*
X153191353Y-116376340D02*
X153381829Y-116328721D01*
X153381829Y-116328721D02*
X153477067Y-116281102D01*
X153477067Y-116281102D02*
X153524686Y-116233483D01*
X153524686Y-116233483D02*
X153572305Y-116138245D01*
X153572305Y-116138245D02*
X153572305Y-116043007D01*
X153572305Y-116043007D02*
X153524686Y-115947769D01*
X153524686Y-115947769D02*
X153477067Y-115900150D01*
X153477067Y-115900150D02*
X153381829Y-115852531D01*
X153381829Y-115852531D02*
X153143734Y-115852531D01*
X153143734Y-115852531D02*
X153000877Y-115900150D01*
X152619924Y-116804912D02*
X152477067Y-116852531D01*
X152477067Y-116852531D02*
X152238972Y-116852531D01*
X152238972Y-116852531D02*
X152143734Y-116804912D01*
X152143734Y-116804912D02*
X152096115Y-116757292D01*
X152096115Y-116757292D02*
X152048496Y-116662054D01*
X152048496Y-116662054D02*
X152048496Y-116566816D01*
X152048496Y-116566816D02*
X152096115Y-116471578D01*
X152096115Y-116471578D02*
X152143734Y-116423959D01*
X152143734Y-116423959D02*
X152238972Y-116376340D01*
X152238972Y-116376340D02*
X152429448Y-116328721D01*
X152429448Y-116328721D02*
X152524686Y-116281102D01*
X152524686Y-116281102D02*
X152572305Y-116233483D01*
X152572305Y-116233483D02*
X152619924Y-116138245D01*
X152619924Y-116138245D02*
X152619924Y-116043007D01*
X152619924Y-116043007D02*
X152572305Y-115947769D01*
X152572305Y-115947769D02*
X152524686Y-115900150D01*
X152524686Y-115900150D02*
X152429448Y-115852531D01*
X152429448Y-115852531D02*
X152191353Y-115852531D01*
X152191353Y-115852531D02*
X152048496Y-115900150D01*
X151619924Y-116328721D02*
X151286591Y-116328721D01*
X151143734Y-116852531D02*
X151619924Y-116852531D01*
X151619924Y-116852531D02*
X151619924Y-115852531D01*
X151619924Y-115852531D02*
X151143734Y-115852531D01*
X150715162Y-116852531D02*
X150715162Y-115852531D01*
X150715162Y-115852531D02*
X150381829Y-116566816D01*
X150381829Y-116566816D02*
X150048496Y-115852531D01*
X150048496Y-115852531D02*
X150048496Y-116852531D01*
X149238972Y-116328721D02*
X149096115Y-116376340D01*
X149096115Y-116376340D02*
X149048496Y-116423959D01*
X149048496Y-116423959D02*
X149000877Y-116519197D01*
X149000877Y-116519197D02*
X149000877Y-116662054D01*
X149000877Y-116662054D02*
X149048496Y-116757292D01*
X149048496Y-116757292D02*
X149096115Y-116804912D01*
X149096115Y-116804912D02*
X149191353Y-116852531D01*
X149191353Y-116852531D02*
X149572305Y-116852531D01*
X149572305Y-116852531D02*
X149572305Y-115852531D01*
X149572305Y-115852531D02*
X149238972Y-115852531D01*
X149238972Y-115852531D02*
X149143734Y-115900150D01*
X149143734Y-115900150D02*
X149096115Y-115947769D01*
X149096115Y-115947769D02*
X149048496Y-116043007D01*
X149048496Y-116043007D02*
X149048496Y-116138245D01*
X149048496Y-116138245D02*
X149096115Y-116233483D01*
X149096115Y-116233483D02*
X149143734Y-116281102D01*
X149143734Y-116281102D02*
X149238972Y-116328721D01*
X149238972Y-116328721D02*
X149572305Y-116328721D01*
X148096115Y-116852531D02*
X148572305Y-116852531D01*
X148572305Y-116852531D02*
X148572305Y-115852531D01*
X147762781Y-116328721D02*
X147429448Y-116328721D01*
X147286591Y-116852531D02*
X147762781Y-116852531D01*
X147762781Y-116852531D02*
X147762781Y-115852531D01*
X147762781Y-115852531D02*
X147286591Y-115852531D01*
X146858019Y-116852531D02*
X146858019Y-115852531D01*
X146858019Y-115852531D02*
X146619924Y-115852531D01*
X146619924Y-115852531D02*
X146477067Y-115900150D01*
X146477067Y-115900150D02*
X146381829Y-115995388D01*
X146381829Y-115995388D02*
X146334210Y-116090626D01*
X146334210Y-116090626D02*
X146286591Y-116281102D01*
X146286591Y-116281102D02*
X146286591Y-116423959D01*
X146286591Y-116423959D02*
X146334210Y-116614435D01*
X146334210Y-116614435D02*
X146381829Y-116709673D01*
X146381829Y-116709673D02*
X146477067Y-116804912D01*
X146477067Y-116804912D02*
X146619924Y-116852531D01*
X146619924Y-116852531D02*
X146858019Y-116852531D01*
X145096114Y-116852531D02*
X145096114Y-115852531D01*
X144619924Y-116852531D02*
X144619924Y-115852531D01*
X144619924Y-115852531D02*
X144048496Y-116852531D01*
X144048496Y-116852531D02*
X144048496Y-115852531D01*
X142810400Y-116852531D02*
X142810400Y-115852531D01*
X142810400Y-115852531D02*
X142429448Y-115852531D01*
X142429448Y-115852531D02*
X142334210Y-115900150D01*
X142334210Y-115900150D02*
X142286591Y-115947769D01*
X142286591Y-115947769D02*
X142238972Y-116043007D01*
X142238972Y-116043007D02*
X142238972Y-116185864D01*
X142238972Y-116185864D02*
X142286591Y-116281102D01*
X142286591Y-116281102D02*
X142334210Y-116328721D01*
X142334210Y-116328721D02*
X142429448Y-116376340D01*
X142429448Y-116376340D02*
X142810400Y-116376340D01*
X141619924Y-115852531D02*
X141429448Y-115852531D01*
X141429448Y-115852531D02*
X141334210Y-115900150D01*
X141334210Y-115900150D02*
X141238972Y-115995388D01*
X141238972Y-115995388D02*
X141191353Y-116185864D01*
X141191353Y-116185864D02*
X141191353Y-116519197D01*
X141191353Y-116519197D02*
X141238972Y-116709673D01*
X141238972Y-116709673D02*
X141334210Y-116804912D01*
X141334210Y-116804912D02*
X141429448Y-116852531D01*
X141429448Y-116852531D02*
X141619924Y-116852531D01*
X141619924Y-116852531D02*
X141715162Y-116804912D01*
X141715162Y-116804912D02*
X141810400Y-116709673D01*
X141810400Y-116709673D02*
X141858019Y-116519197D01*
X141858019Y-116519197D02*
X141858019Y-116185864D01*
X141858019Y-116185864D02*
X141810400Y-115995388D01*
X141810400Y-115995388D02*
X141715162Y-115900150D01*
X141715162Y-115900150D02*
X141619924Y-115852531D01*
X140286591Y-116852531D02*
X140762781Y-116852531D01*
X140762781Y-116852531D02*
X140762781Y-115852531D01*
X140000876Y-116566816D02*
X139524686Y-116566816D01*
X140096114Y-116852531D02*
X139762781Y-115852531D01*
X139762781Y-115852531D02*
X139429448Y-116852531D01*
X139096114Y-116852531D02*
X139096114Y-115852531D01*
X139096114Y-115852531D02*
X138524686Y-116852531D01*
X138524686Y-116852531D02*
X138524686Y-115852531D01*
X138048495Y-116852531D02*
X138048495Y-115852531D01*
X138048495Y-115852531D02*
X137810400Y-115852531D01*
X137810400Y-115852531D02*
X137667543Y-115900150D01*
X137667543Y-115900150D02*
X137572305Y-115995388D01*
X137572305Y-115995388D02*
X137524686Y-116090626D01*
X137524686Y-116090626D02*
X137477067Y-116281102D01*
X137477067Y-116281102D02*
X137477067Y-116423959D01*
X137477067Y-116423959D02*
X137524686Y-116614435D01*
X137524686Y-116614435D02*
X137572305Y-116709673D01*
X137572305Y-116709673D02*
X137667543Y-116804912D01*
X137667543Y-116804912D02*
X137810400Y-116852531D01*
X137810400Y-116852531D02*
X138048495Y-116852531D01*
X166096115Y-118462475D02*
X166096115Y-117462475D01*
X166096115Y-117462475D02*
X165715163Y-117462475D01*
X165715163Y-117462475D02*
X165619925Y-117510094D01*
X165619925Y-117510094D02*
X165572306Y-117557713D01*
X165572306Y-117557713D02*
X165524687Y-117652951D01*
X165524687Y-117652951D02*
X165524687Y-117795808D01*
X165524687Y-117795808D02*
X165572306Y-117891046D01*
X165572306Y-117891046D02*
X165619925Y-117938665D01*
X165619925Y-117938665D02*
X165715163Y-117986284D01*
X165715163Y-117986284D02*
X166096115Y-117986284D01*
X164524687Y-118367236D02*
X164572306Y-118414856D01*
X164572306Y-118414856D02*
X164715163Y-118462475D01*
X164715163Y-118462475D02*
X164810401Y-118462475D01*
X164810401Y-118462475D02*
X164953258Y-118414856D01*
X164953258Y-118414856D02*
X165048496Y-118319617D01*
X165048496Y-118319617D02*
X165096115Y-118224379D01*
X165096115Y-118224379D02*
X165143734Y-118033903D01*
X165143734Y-118033903D02*
X165143734Y-117891046D01*
X165143734Y-117891046D02*
X165096115Y-117700570D01*
X165096115Y-117700570D02*
X165048496Y-117605332D01*
X165048496Y-117605332D02*
X164953258Y-117510094D01*
X164953258Y-117510094D02*
X164810401Y-117462475D01*
X164810401Y-117462475D02*
X164715163Y-117462475D01*
X164715163Y-117462475D02*
X164572306Y-117510094D01*
X164572306Y-117510094D02*
X164524687Y-117557713D01*
X163762782Y-117938665D02*
X163619925Y-117986284D01*
X163619925Y-117986284D02*
X163572306Y-118033903D01*
X163572306Y-118033903D02*
X163524687Y-118129141D01*
X163524687Y-118129141D02*
X163524687Y-118271998D01*
X163524687Y-118271998D02*
X163572306Y-118367236D01*
X163572306Y-118367236D02*
X163619925Y-118414856D01*
X163619925Y-118414856D02*
X163715163Y-118462475D01*
X163715163Y-118462475D02*
X164096115Y-118462475D01*
X164096115Y-118462475D02*
X164096115Y-117462475D01*
X164096115Y-117462475D02*
X163762782Y-117462475D01*
X163762782Y-117462475D02*
X163667544Y-117510094D01*
X163667544Y-117510094D02*
X163619925Y-117557713D01*
X163619925Y-117557713D02*
X163572306Y-117652951D01*
X163572306Y-117652951D02*
X163572306Y-117748189D01*
X163572306Y-117748189D02*
X163619925Y-117843427D01*
X163619925Y-117843427D02*
X163667544Y-117891046D01*
X163667544Y-117891046D02*
X163762782Y-117938665D01*
X163762782Y-117938665D02*
X164096115Y-117938665D01*
X162334210Y-118462475D02*
X162334210Y-117462475D01*
X162334210Y-117462475D02*
X162000877Y-118176760D01*
X162000877Y-118176760D02*
X161667544Y-117462475D01*
X161667544Y-117462475D02*
X161667544Y-118462475D01*
X161238972Y-118176760D02*
X160762782Y-118176760D01*
X161334210Y-118462475D02*
X161000877Y-117462475D01*
X161000877Y-117462475D02*
X160667544Y-118462475D01*
X160334210Y-118462475D02*
X160334210Y-117462475D01*
X160334210Y-117462475D02*
X159762782Y-118462475D01*
X159762782Y-118462475D02*
X159762782Y-117462475D01*
X159286591Y-117462475D02*
X159286591Y-118271998D01*
X159286591Y-118271998D02*
X159238972Y-118367236D01*
X159238972Y-118367236D02*
X159191353Y-118414856D01*
X159191353Y-118414856D02*
X159096115Y-118462475D01*
X159096115Y-118462475D02*
X158905639Y-118462475D01*
X158905639Y-118462475D02*
X158810401Y-118414856D01*
X158810401Y-118414856D02*
X158762782Y-118367236D01*
X158762782Y-118367236D02*
X158715163Y-118271998D01*
X158715163Y-118271998D02*
X158715163Y-117462475D01*
X157905639Y-117938665D02*
X158238972Y-117938665D01*
X158238972Y-118462475D02*
X158238972Y-117462475D01*
X158238972Y-117462475D02*
X157762782Y-117462475D01*
X157429448Y-118176760D02*
X156953258Y-118176760D01*
X157524686Y-118462475D02*
X157191353Y-117462475D01*
X157191353Y-117462475D02*
X156858020Y-118462475D01*
X155953258Y-118367236D02*
X156000877Y-118414856D01*
X156000877Y-118414856D02*
X156143734Y-118462475D01*
X156143734Y-118462475D02*
X156238972Y-118462475D01*
X156238972Y-118462475D02*
X156381829Y-118414856D01*
X156381829Y-118414856D02*
X156477067Y-118319617D01*
X156477067Y-118319617D02*
X156524686Y-118224379D01*
X156524686Y-118224379D02*
X156572305Y-118033903D01*
X156572305Y-118033903D02*
X156572305Y-117891046D01*
X156572305Y-117891046D02*
X156524686Y-117700570D01*
X156524686Y-117700570D02*
X156477067Y-117605332D01*
X156477067Y-117605332D02*
X156381829Y-117510094D01*
X156381829Y-117510094D02*
X156238972Y-117462475D01*
X156238972Y-117462475D02*
X156143734Y-117462475D01*
X156143734Y-117462475D02*
X156000877Y-117510094D01*
X156000877Y-117510094D02*
X155953258Y-117557713D01*
X155667543Y-117462475D02*
X155096115Y-117462475D01*
X155381829Y-118462475D02*
X155381829Y-117462475D01*
X154762781Y-117462475D02*
X154762781Y-118271998D01*
X154762781Y-118271998D02*
X154715162Y-118367236D01*
X154715162Y-118367236D02*
X154667543Y-118414856D01*
X154667543Y-118414856D02*
X154572305Y-118462475D01*
X154572305Y-118462475D02*
X154381829Y-118462475D01*
X154381829Y-118462475D02*
X154286591Y-118414856D01*
X154286591Y-118414856D02*
X154238972Y-118367236D01*
X154238972Y-118367236D02*
X154191353Y-118271998D01*
X154191353Y-118271998D02*
X154191353Y-117462475D01*
X153143734Y-118462475D02*
X153477067Y-117986284D01*
X153715162Y-118462475D02*
X153715162Y-117462475D01*
X153715162Y-117462475D02*
X153334210Y-117462475D01*
X153334210Y-117462475D02*
X153238972Y-117510094D01*
X153238972Y-117510094D02*
X153191353Y-117557713D01*
X153191353Y-117557713D02*
X153143734Y-117652951D01*
X153143734Y-117652951D02*
X153143734Y-117795808D01*
X153143734Y-117795808D02*
X153191353Y-117891046D01*
X153191353Y-117891046D02*
X153238972Y-117938665D01*
X153238972Y-117938665D02*
X153334210Y-117986284D01*
X153334210Y-117986284D02*
X153715162Y-117986284D01*
X152715162Y-117938665D02*
X152381829Y-117938665D01*
X152238972Y-118462475D02*
X152715162Y-118462475D01*
X152715162Y-118462475D02*
X152715162Y-117462475D01*
X152715162Y-117462475D02*
X152238972Y-117462475D01*
X151810400Y-118462475D02*
X151810400Y-117462475D01*
X151810400Y-117462475D02*
X151572305Y-117462475D01*
X151572305Y-117462475D02*
X151429448Y-117510094D01*
X151429448Y-117510094D02*
X151334210Y-117605332D01*
X151334210Y-117605332D02*
X151286591Y-117700570D01*
X151286591Y-117700570D02*
X151238972Y-117891046D01*
X151238972Y-117891046D02*
X151238972Y-118033903D01*
X151238972Y-118033903D02*
X151286591Y-118224379D01*
X151286591Y-118224379D02*
X151334210Y-118319617D01*
X151334210Y-118319617D02*
X151429448Y-118414856D01*
X151429448Y-118414856D02*
X151572305Y-118462475D01*
X151572305Y-118462475D02*
X151810400Y-118462475D01*
X150048495Y-118462475D02*
X150048495Y-117462475D01*
X149572305Y-118462475D02*
X149572305Y-117462475D01*
X149572305Y-117462475D02*
X149000877Y-118462475D01*
X149000877Y-118462475D02*
X149000877Y-117462475D01*
X147191353Y-118367236D02*
X147238972Y-118414856D01*
X147238972Y-118414856D02*
X147381829Y-118462475D01*
X147381829Y-118462475D02*
X147477067Y-118462475D01*
X147477067Y-118462475D02*
X147619924Y-118414856D01*
X147619924Y-118414856D02*
X147715162Y-118319617D01*
X147715162Y-118319617D02*
X147762781Y-118224379D01*
X147762781Y-118224379D02*
X147810400Y-118033903D01*
X147810400Y-118033903D02*
X147810400Y-117891046D01*
X147810400Y-117891046D02*
X147762781Y-117700570D01*
X147762781Y-117700570D02*
X147715162Y-117605332D01*
X147715162Y-117605332D02*
X147619924Y-117510094D01*
X147619924Y-117510094D02*
X147477067Y-117462475D01*
X147477067Y-117462475D02*
X147381829Y-117462475D01*
X147381829Y-117462475D02*
X147238972Y-117510094D01*
X147238972Y-117510094D02*
X147191353Y-117557713D01*
X146762781Y-118462475D02*
X146762781Y-117462475D01*
X146762781Y-117938665D02*
X146191353Y-117938665D01*
X146191353Y-118462475D02*
X146191353Y-117462475D01*
X145715162Y-118462475D02*
X145715162Y-117462475D01*
X145238972Y-118462475D02*
X145238972Y-117462475D01*
X145238972Y-117462475D02*
X144667544Y-118462475D01*
X144667544Y-118462475D02*
X144667544Y-117462475D01*
X144238972Y-118176760D02*
X143762782Y-118176760D01*
X144334210Y-118462475D02*
X144000877Y-117462475D01*
X144000877Y-117462475D02*
X143667544Y-118462475D01*
X166096115Y-120072419D02*
X166096115Y-119405752D01*
X166096115Y-119500990D02*
X166048496Y-119453371D01*
X166048496Y-119453371D02*
X165953258Y-119405752D01*
X165953258Y-119405752D02*
X165810401Y-119405752D01*
X165810401Y-119405752D02*
X165715163Y-119453371D01*
X165715163Y-119453371D02*
X165667544Y-119548609D01*
X165667544Y-119548609D02*
X165667544Y-120072419D01*
X165667544Y-119548609D02*
X165619925Y-119453371D01*
X165619925Y-119453371D02*
X165524687Y-119405752D01*
X165524687Y-119405752D02*
X165381830Y-119405752D01*
X165381830Y-119405752D02*
X165286591Y-119453371D01*
X165286591Y-119453371D02*
X165238972Y-119548609D01*
X165238972Y-119548609D02*
X165238972Y-120072419D01*
X164334211Y-120072419D02*
X164334211Y-119548609D01*
X164334211Y-119548609D02*
X164381830Y-119453371D01*
X164381830Y-119453371D02*
X164477068Y-119405752D01*
X164477068Y-119405752D02*
X164667544Y-119405752D01*
X164667544Y-119405752D02*
X164762782Y-119453371D01*
X164334211Y-120024800D02*
X164429449Y-120072419D01*
X164429449Y-120072419D02*
X164667544Y-120072419D01*
X164667544Y-120072419D02*
X164762782Y-120024800D01*
X164762782Y-120024800D02*
X164810401Y-119929561D01*
X164810401Y-119929561D02*
X164810401Y-119834323D01*
X164810401Y-119834323D02*
X164762782Y-119739085D01*
X164762782Y-119739085D02*
X164667544Y-119691466D01*
X164667544Y-119691466D02*
X164429449Y-119691466D01*
X164429449Y-119691466D02*
X164334211Y-119643847D01*
X164000877Y-119405752D02*
X163619925Y-119405752D01*
X163858020Y-119072419D02*
X163858020Y-119929561D01*
X163858020Y-119929561D02*
X163810401Y-120024800D01*
X163810401Y-120024800D02*
X163715163Y-120072419D01*
X163715163Y-120072419D02*
X163619925Y-120072419D01*
X162905639Y-120024800D02*
X163000877Y-120072419D01*
X163000877Y-120072419D02*
X163191353Y-120072419D01*
X163191353Y-120072419D02*
X163286591Y-120024800D01*
X163286591Y-120024800D02*
X163334210Y-119929561D01*
X163334210Y-119929561D02*
X163334210Y-119548609D01*
X163334210Y-119548609D02*
X163286591Y-119453371D01*
X163286591Y-119453371D02*
X163191353Y-119405752D01*
X163191353Y-119405752D02*
X163000877Y-119405752D01*
X163000877Y-119405752D02*
X162905639Y-119453371D01*
X162905639Y-119453371D02*
X162858020Y-119548609D01*
X162858020Y-119548609D02*
X162858020Y-119643847D01*
X162858020Y-119643847D02*
X163334210Y-119739085D01*
X162000877Y-119405752D02*
X162000877Y-120072419D01*
X162429448Y-119405752D02*
X162429448Y-119929561D01*
X162429448Y-119929561D02*
X162381829Y-120024800D01*
X162381829Y-120024800D02*
X162286591Y-120072419D01*
X162286591Y-120072419D02*
X162143734Y-120072419D01*
X162143734Y-120072419D02*
X162048496Y-120024800D01*
X162048496Y-120024800D02*
X162000877Y-119977180D01*
X161572305Y-120024800D02*
X161477067Y-120072419D01*
X161477067Y-120072419D02*
X161286591Y-120072419D01*
X161286591Y-120072419D02*
X161191353Y-120024800D01*
X161191353Y-120024800D02*
X161143734Y-119929561D01*
X161143734Y-119929561D02*
X161143734Y-119881942D01*
X161143734Y-119881942D02*
X161191353Y-119786704D01*
X161191353Y-119786704D02*
X161286591Y-119739085D01*
X161286591Y-119739085D02*
X161429448Y-119739085D01*
X161429448Y-119739085D02*
X161524686Y-119691466D01*
X161524686Y-119691466D02*
X161572305Y-119596228D01*
X161572305Y-119596228D02*
X161572305Y-119548609D01*
X161572305Y-119548609D02*
X161524686Y-119453371D01*
X161524686Y-119453371D02*
X161429448Y-119405752D01*
X161429448Y-119405752D02*
X161286591Y-119405752D01*
X161286591Y-119405752D02*
X161191353Y-119453371D01*
X160810400Y-119405752D02*
X160286591Y-119405752D01*
X160286591Y-119405752D02*
X160810400Y-120072419D01*
X160810400Y-120072419D02*
X160286591Y-120072419D01*
X159953257Y-119167657D02*
X159905638Y-119120038D01*
X159905638Y-119120038D02*
X159810400Y-119072419D01*
X159810400Y-119072419D02*
X159572305Y-119072419D01*
X159572305Y-119072419D02*
X159477067Y-119120038D01*
X159477067Y-119120038D02*
X159429448Y-119167657D01*
X159429448Y-119167657D02*
X159381829Y-119262895D01*
X159381829Y-119262895D02*
X159381829Y-119358133D01*
X159381829Y-119358133D02*
X159429448Y-119500990D01*
X159429448Y-119500990D02*
X160000876Y-120072419D01*
X160000876Y-120072419D02*
X159381829Y-120072419D01*
X158762781Y-119072419D02*
X158667543Y-119072419D01*
X158667543Y-119072419D02*
X158572305Y-119120038D01*
X158572305Y-119120038D02*
X158524686Y-119167657D01*
X158524686Y-119167657D02*
X158477067Y-119262895D01*
X158477067Y-119262895D02*
X158429448Y-119453371D01*
X158429448Y-119453371D02*
X158429448Y-119691466D01*
X158429448Y-119691466D02*
X158477067Y-119881942D01*
X158477067Y-119881942D02*
X158524686Y-119977180D01*
X158524686Y-119977180D02*
X158572305Y-120024800D01*
X158572305Y-120024800D02*
X158667543Y-120072419D01*
X158667543Y-120072419D02*
X158762781Y-120072419D01*
X158762781Y-120072419D02*
X158858019Y-120024800D01*
X158858019Y-120024800D02*
X158905638Y-119977180D01*
X158905638Y-119977180D02*
X158953257Y-119881942D01*
X158953257Y-119881942D02*
X159000876Y-119691466D01*
X159000876Y-119691466D02*
X159000876Y-119453371D01*
X159000876Y-119453371D02*
X158953257Y-119262895D01*
X158953257Y-119262895D02*
X158905638Y-119167657D01*
X158905638Y-119167657D02*
X158858019Y-119120038D01*
X158858019Y-119120038D02*
X158762781Y-119072419D01*
X157810400Y-119072419D02*
X157715162Y-119072419D01*
X157715162Y-119072419D02*
X157619924Y-119120038D01*
X157619924Y-119120038D02*
X157572305Y-119167657D01*
X157572305Y-119167657D02*
X157524686Y-119262895D01*
X157524686Y-119262895D02*
X157477067Y-119453371D01*
X157477067Y-119453371D02*
X157477067Y-119691466D01*
X157477067Y-119691466D02*
X157524686Y-119881942D01*
X157524686Y-119881942D02*
X157572305Y-119977180D01*
X157572305Y-119977180D02*
X157619924Y-120024800D01*
X157619924Y-120024800D02*
X157715162Y-120072419D01*
X157715162Y-120072419D02*
X157810400Y-120072419D01*
X157810400Y-120072419D02*
X157905638Y-120024800D01*
X157905638Y-120024800D02*
X157953257Y-119977180D01*
X157953257Y-119977180D02*
X158000876Y-119881942D01*
X158000876Y-119881942D02*
X158048495Y-119691466D01*
X158048495Y-119691466D02*
X158048495Y-119453371D01*
X158048495Y-119453371D02*
X158000876Y-119262895D01*
X158000876Y-119262895D02*
X157953257Y-119167657D01*
X157953257Y-119167657D02*
X157905638Y-119120038D01*
X157905638Y-119120038D02*
X157810400Y-119072419D01*
X156858019Y-119072419D02*
X156762781Y-119072419D01*
X156762781Y-119072419D02*
X156667543Y-119120038D01*
X156667543Y-119120038D02*
X156619924Y-119167657D01*
X156619924Y-119167657D02*
X156572305Y-119262895D01*
X156572305Y-119262895D02*
X156524686Y-119453371D01*
X156524686Y-119453371D02*
X156524686Y-119691466D01*
X156524686Y-119691466D02*
X156572305Y-119881942D01*
X156572305Y-119881942D02*
X156619924Y-119977180D01*
X156619924Y-119977180D02*
X156667543Y-120024800D01*
X156667543Y-120024800D02*
X156762781Y-120072419D01*
X156762781Y-120072419D02*
X156858019Y-120072419D01*
X156858019Y-120072419D02*
X156953257Y-120024800D01*
X156953257Y-120024800D02*
X157000876Y-119977180D01*
X157000876Y-119977180D02*
X157048495Y-119881942D01*
X157048495Y-119881942D02*
X157096114Y-119691466D01*
X157096114Y-119691466D02*
X157096114Y-119453371D01*
X157096114Y-119453371D02*
X157048495Y-119262895D01*
X157048495Y-119262895D02*
X157000876Y-119167657D01*
X157000876Y-119167657D02*
X156953257Y-119120038D01*
X156953257Y-119120038D02*
X156858019Y-119072419D01*
X155905638Y-119072419D02*
X155810400Y-119072419D01*
X155810400Y-119072419D02*
X155715162Y-119120038D01*
X155715162Y-119120038D02*
X155667543Y-119167657D01*
X155667543Y-119167657D02*
X155619924Y-119262895D01*
X155619924Y-119262895D02*
X155572305Y-119453371D01*
X155572305Y-119453371D02*
X155572305Y-119691466D01*
X155572305Y-119691466D02*
X155619924Y-119881942D01*
X155619924Y-119881942D02*
X155667543Y-119977180D01*
X155667543Y-119977180D02*
X155715162Y-120024800D01*
X155715162Y-120024800D02*
X155810400Y-120072419D01*
X155810400Y-120072419D02*
X155905638Y-120072419D01*
X155905638Y-120072419D02*
X156000876Y-120024800D01*
X156000876Y-120024800D02*
X156048495Y-119977180D01*
X156048495Y-119977180D02*
X156096114Y-119881942D01*
X156096114Y-119881942D02*
X156143733Y-119691466D01*
X156143733Y-119691466D02*
X156143733Y-119453371D01*
X156143733Y-119453371D02*
X156096114Y-119262895D01*
X156096114Y-119262895D02*
X156048495Y-119167657D01*
X156048495Y-119167657D02*
X156000876Y-119120038D01*
X156000876Y-119120038D02*
X155905638Y-119072419D01*
X155143733Y-119977180D02*
X155096114Y-120024800D01*
X155096114Y-120024800D02*
X155143733Y-120072419D01*
X155143733Y-120072419D02*
X155191352Y-120024800D01*
X155191352Y-120024800D02*
X155143733Y-119977180D01*
X155143733Y-119977180D02*
X155143733Y-120072419D01*
X154238972Y-119405752D02*
X154238972Y-120215276D01*
X154238972Y-120215276D02*
X154286591Y-120310514D01*
X154286591Y-120310514D02*
X154334210Y-120358133D01*
X154334210Y-120358133D02*
X154429448Y-120405752D01*
X154429448Y-120405752D02*
X154572305Y-120405752D01*
X154572305Y-120405752D02*
X154667543Y-120358133D01*
X154238972Y-120024800D02*
X154334210Y-120072419D01*
X154334210Y-120072419D02*
X154524686Y-120072419D01*
X154524686Y-120072419D02*
X154619924Y-120024800D01*
X154619924Y-120024800D02*
X154667543Y-119977180D01*
X154667543Y-119977180D02*
X154715162Y-119881942D01*
X154715162Y-119881942D02*
X154715162Y-119596228D01*
X154715162Y-119596228D02*
X154667543Y-119500990D01*
X154667543Y-119500990D02*
X154619924Y-119453371D01*
X154619924Y-119453371D02*
X154524686Y-119405752D01*
X154524686Y-119405752D02*
X154334210Y-119405752D01*
X154334210Y-119405752D02*
X154238972Y-119453371D01*
X153762781Y-120072419D02*
X153762781Y-119405752D01*
X153762781Y-119072419D02*
X153810400Y-119120038D01*
X153810400Y-119120038D02*
X153762781Y-119167657D01*
X153762781Y-119167657D02*
X153715162Y-119120038D01*
X153715162Y-119120038D02*
X153762781Y-119072419D01*
X153762781Y-119072419D02*
X153762781Y-119167657D01*
X153429448Y-119405752D02*
X153048496Y-119405752D01*
X153286591Y-119072419D02*
X153286591Y-119929561D01*
X153286591Y-119929561D02*
X153238972Y-120024800D01*
X153238972Y-120024800D02*
X153143734Y-120072419D01*
X153143734Y-120072419D02*
X153048496Y-120072419D01*
X152715162Y-120072419D02*
X152715162Y-119072419D01*
X152286591Y-120072419D02*
X152286591Y-119548609D01*
X152286591Y-119548609D02*
X152334210Y-119453371D01*
X152334210Y-119453371D02*
X152429448Y-119405752D01*
X152429448Y-119405752D02*
X152572305Y-119405752D01*
X152572305Y-119405752D02*
X152667543Y-119453371D01*
X152667543Y-119453371D02*
X152715162Y-119500990D01*
X151381829Y-119405752D02*
X151381829Y-120072419D01*
X151810400Y-119405752D02*
X151810400Y-119929561D01*
X151810400Y-119929561D02*
X151762781Y-120024800D01*
X151762781Y-120024800D02*
X151667543Y-120072419D01*
X151667543Y-120072419D02*
X151524686Y-120072419D01*
X151524686Y-120072419D02*
X151429448Y-120024800D01*
X151429448Y-120024800D02*
X151381829Y-119977180D01*
X150905638Y-120072419D02*
X150905638Y-119072419D01*
X150905638Y-119453371D02*
X150810400Y-119405752D01*
X150810400Y-119405752D02*
X150619924Y-119405752D01*
X150619924Y-119405752D02*
X150524686Y-119453371D01*
X150524686Y-119453371D02*
X150477067Y-119500990D01*
X150477067Y-119500990D02*
X150429448Y-119596228D01*
X150429448Y-119596228D02*
X150429448Y-119881942D01*
X150429448Y-119881942D02*
X150477067Y-119977180D01*
X150477067Y-119977180D02*
X150524686Y-120024800D01*
X150524686Y-120024800D02*
X150619924Y-120072419D01*
X150619924Y-120072419D02*
X150810400Y-120072419D01*
X150810400Y-120072419D02*
X150905638Y-120024800D01*
X150000876Y-119977180D02*
X149953257Y-120024800D01*
X149953257Y-120024800D02*
X150000876Y-120072419D01*
X150000876Y-120072419D02*
X150048495Y-120024800D01*
X150048495Y-120024800D02*
X150000876Y-119977180D01*
X150000876Y-119977180D02*
X150000876Y-120072419D01*
X149524686Y-120072419D02*
X149524686Y-119405752D01*
X149524686Y-119072419D02*
X149572305Y-119120038D01*
X149572305Y-119120038D02*
X149524686Y-119167657D01*
X149524686Y-119167657D02*
X149477067Y-119120038D01*
X149477067Y-119120038D02*
X149524686Y-119072419D01*
X149524686Y-119072419D02*
X149524686Y-119167657D01*
X148905639Y-120072419D02*
X149000877Y-120024800D01*
X149000877Y-120024800D02*
X149048496Y-119977180D01*
X149048496Y-119977180D02*
X149096115Y-119881942D01*
X149096115Y-119881942D02*
X149096115Y-119596228D01*
X149096115Y-119596228D02*
X149048496Y-119500990D01*
X149048496Y-119500990D02*
X149000877Y-119453371D01*
X149000877Y-119453371D02*
X148905639Y-119405752D01*
X148905639Y-119405752D02*
X148762782Y-119405752D01*
X148762782Y-119405752D02*
X148667544Y-119453371D01*
X148667544Y-119453371D02*
X148619925Y-119500990D01*
X148619925Y-119500990D02*
X148572306Y-119596228D01*
X148572306Y-119596228D02*
X148572306Y-119881942D01*
X148572306Y-119881942D02*
X148619925Y-119977180D01*
X148619925Y-119977180D02*
X148667544Y-120024800D01*
X148667544Y-120024800D02*
X148762782Y-120072419D01*
X148762782Y-120072419D02*
X148905639Y-120072419D01*
M02*
