%TF.GenerationSoftware,KiCad,Pcbnew,8.0.7*%
%TF.CreationDate,2025-08-15T01:06:22+02:00*%
%TF.ProjectId,Arduino,41726475-696e-46f2-9e6b-696361645f70,rev?*%
%TF.SameCoordinates,Original*%
%TF.FileFunction,Copper,L1,Top*%
%TF.FilePolarity,Positive*%
%FSLAX46Y46*%
G04 Gerber Fmt 4.6, Leading zero omitted, Abs format (unit mm)*
G04 Created by KiCad (PCBNEW 8.0.7) date 2025-08-15 01:06:22*
%MOMM*%
%LPD*%
G01*
G04 APERTURE LIST*
G04 Aperture macros list*
%AMRoundRect*
0 Rectangle with rounded corners*
0 $1 Rounding radius*
0 $2 $3 $4 $5 $6 $7 $8 $9 X,Y pos of 4 corners*
0 Add a 4 corners polygon primitive as box body*
4,1,4,$2,$3,$4,$5,$6,$7,$8,$9,$2,$3,0*
0 Add four circle primitives for the rounded corners*
1,1,$1+$1,$2,$3*
1,1,$1+$1,$4,$5*
1,1,$1+$1,$6,$7*
1,1,$1+$1,$8,$9*
0 Add four rect primitives between the rounded corners*
20,1,$1+$1,$2,$3,$4,$5,0*
20,1,$1+$1,$4,$5,$6,$7,0*
20,1,$1+$1,$6,$7,$8,$9,0*
20,1,$1+$1,$8,$9,$2,$3,0*%
G04 Aperture macros list end*
%TA.AperFunction,ComponentPad*%
%ADD10R,1.800000X1.800000*%
%TD*%
%TA.AperFunction,ComponentPad*%
%ADD11C,1.800000*%
%TD*%
%TA.AperFunction,ComponentPad*%
%ADD12C,1.600000*%
%TD*%
%TA.AperFunction,ComponentPad*%
%ADD13C,1.524000*%
%TD*%
%TA.AperFunction,SMDPad,CuDef*%
%ADD14RoundRect,0.062500X-0.062500X0.337500X-0.062500X-0.337500X0.062500X-0.337500X0.062500X0.337500X0*%
%TD*%
%TA.AperFunction,SMDPad,CuDef*%
%ADD15RoundRect,0.062500X-0.337500X0.062500X-0.337500X-0.062500X0.337500X-0.062500X0.337500X0.062500X0*%
%TD*%
%TA.AperFunction,HeatsinkPad*%
%ADD16R,3.350000X3.350000*%
%TD*%
%TA.AperFunction,ComponentPad*%
%ADD17R,2.000000X1.905000*%
%TD*%
%TA.AperFunction,ComponentPad*%
%ADD18O,2.000000X1.905000*%
%TD*%
%TA.AperFunction,ComponentPad*%
%ADD19R,1.600000X1.600000*%
%TD*%
%TA.AperFunction,ComponentPad*%
%ADD20O,1.600000X1.600000*%
%TD*%
%TA.AperFunction,ComponentPad*%
%ADD21R,1.700000X1.700000*%
%TD*%
%TA.AperFunction,ComponentPad*%
%ADD22C,1.700000*%
%TD*%
%TA.AperFunction,ComponentPad*%
%ADD23C,3.500000*%
%TD*%
%TA.AperFunction,ComponentPad*%
%ADD24R,3.500000X3.500000*%
%TD*%
%TA.AperFunction,ComponentPad*%
%ADD25RoundRect,0.750000X-0.750000X-1.000000X0.750000X-1.000000X0.750000X1.000000X-0.750000X1.000000X0*%
%TD*%
%TA.AperFunction,ComponentPad*%
%ADD26RoundRect,0.875000X-0.875000X-0.875000X0.875000X-0.875000X0.875000X0.875000X-0.875000X0.875000X0*%
%TD*%
%TA.AperFunction,ViaPad*%
%ADD27C,0.600000*%
%TD*%
%TA.AperFunction,Conductor*%
%ADD28C,0.250000*%
%TD*%
%TA.AperFunction,Conductor*%
%ADD29C,0.500000*%
%TD*%
%TA.AperFunction,Conductor*%
%ADD30C,0.700000*%
%TD*%
%TA.AperFunction,Conductor*%
%ADD31C,0.200000*%
%TD*%
%TA.AperFunction,Conductor*%
%ADD32C,0.640000*%
%TD*%
G04 APERTURE END LIST*
D10*
%TO.P,D5,1,K*%
%TO.N,Net-(D5-K)*%
X129330000Y-79000000D03*
D11*
%TO.P,D5,2,A*%
%TO.N,Net-(D5-A)*%
X131870000Y-79000000D03*
%TD*%
D12*
%TO.P,C1,1*%
%TO.N,Net-(U1-XTAL1{slash}PB6)*%
X148800000Y-101200000D03*
%TO.P,C1,2*%
%TO.N,GND*%
X153800000Y-101200000D03*
%TD*%
D13*
%TO.P,J1,1,Pin_1*%
%TO.N,Net-(J1-Pin_1)*%
X153000000Y-121000000D03*
%TO.P,J1,2,Pin_2*%
%TO.N,Net-(J1-Pin_2)*%
X155500000Y-121000000D03*
%TO.P,J1,3,Pin_3*%
%TO.N,Net-(J1-Pin_3)*%
X158000000Y-121000000D03*
%TO.P,J1,4,Pin_4*%
%TO.N,Net-(J1-Pin_4)*%
X160500000Y-121000000D03*
%TO.P,J1,5,Pin_5*%
%TO.N,/SDA*%
X163000000Y-121000000D03*
%TO.P,J1,6,Pin_6*%
%TO.N,/SCL*%
X165500000Y-121000000D03*
%TD*%
%TO.P,C4,1*%
%TO.N,VCC*%
X125200000Y-101950000D03*
%TO.P,C4,2*%
%TO.N,GND*%
X127200000Y-101950000D03*
%TD*%
%TO.P,D1,1,K*%
%TO.N,Net-(D1-K)*%
X117400000Y-113400000D03*
%TO.P,D1,2,A*%
%TO.N,/VIN*%
X127400000Y-113400000D03*
%TD*%
%TO.P,R3,1*%
%TO.N,Net-(D5-K)*%
X126500000Y-79000000D03*
%TO.P,R3,2*%
%TO.N,GND*%
X116500000Y-79000000D03*
%TD*%
%TO.P,C5,1*%
%TO.N,Net-(D1-K)*%
X125200000Y-107950000D03*
%TO.P,C5,2*%
%TO.N,GND*%
X127200000Y-107950000D03*
%TD*%
%TO.P,C6,2*%
%TO.N,GND*%
X121100000Y-107950000D03*
%TO.P,C6,1*%
%TO.N,Net-(D1-K)*%
X119100000Y-107950000D03*
%TD*%
D12*
%TO.P,C2,1*%
%TO.N,Net-(U1-XTAL2{slash}PB7)*%
X148750000Y-96200000D03*
%TO.P,C2,2*%
%TO.N,GND*%
X153750000Y-96200000D03*
%TD*%
D13*
%TO.P,J3,1,Pin_1*%
%TO.N,/SCL*%
X122000000Y-73000000D03*
%TO.P,J3,2,Pin_2*%
%TO.N,/SDA*%
X124500000Y-73000000D03*
%TO.P,J3,3,Pin_3*%
%TO.N,unconnected-(J3-Pin_3-Pad3)*%
X127000000Y-73000000D03*
%TO.P,J3,4,Pin_4*%
%TO.N,GND*%
X129500000Y-73000000D03*
%TO.P,J3,5,Pin_5*%
%TO.N,Net-(D5-A)*%
X132000000Y-73000000D03*
%TO.P,J3,6,Pin_6*%
%TO.N,Net-(J3-Pin_6)*%
X134500000Y-73000000D03*
%TO.P,J3,7,Pin_7*%
%TO.N,Net-(J3-Pin_7)*%
X137000000Y-73000000D03*
%TO.P,J3,8,Pin_8*%
%TO.N,Net-(J3-Pin_8)*%
X139500000Y-73000000D03*
%TO.P,J3,9,Pin_9*%
%TO.N,Net-(J3-Pin_9)*%
X142000000Y-73000000D03*
%TO.P,J3,10,Pin_10*%
%TO.N,Net-(J3-Pin_10)*%
X144500000Y-73000000D03*
%TD*%
D14*
%TO.P,U2,1,~{DCD}*%
%TO.N,unconnected-(U2-~{DCD}-Pad1)*%
X122650000Y-86950000D03*
%TO.P,U2,2,~{RI}/CLK*%
%TO.N,unconnected-(U2-~{RI}{slash}CLK-Pad2)*%
X122150000Y-86950000D03*
%TO.P,U2,3,GND*%
%TO.N,GND*%
X121650000Y-86950000D03*
%TO.P,U2,4,D+*%
%TO.N,Net-(J8-D+)*%
X121150000Y-86950000D03*
%TO.P,U2,5,D-*%
%TO.N,Net-(J8-D-)*%
X120650000Y-86950000D03*
%TO.P,U2,6,VDD*%
%TO.N,/+3.3V*%
X120150000Y-86950000D03*
%TO.P,U2,7,VREGIN*%
%TO.N,unconnected-(U2-VREGIN-Pad7)*%
X119650000Y-86950000D03*
D15*
%TO.P,U2,8,VBUS*%
%TO.N,VCC*%
X118700000Y-87900000D03*
%TO.P,U2,9,~{RST}*%
%TO.N,unconnected-(U2-~{RST}-Pad9)*%
X118700000Y-88400000D03*
%TO.P,U2,10,NC*%
%TO.N,unconnected-(U2-NC-Pad10)*%
X118700000Y-88900000D03*
%TO.P,U2,11,~{SUSPEND}*%
%TO.N,unconnected-(U2-~{SUSPEND}-Pad11)*%
X118700000Y-89400000D03*
%TO.P,U2,12,SUSPEND*%
%TO.N,unconnected-(U2-SUSPEND-Pad12)*%
X118700000Y-89900000D03*
%TO.P,U2,13,CHREN*%
%TO.N,unconnected-(U2-CHREN-Pad13)*%
X118700000Y-90400000D03*
%TO.P,U2,14,CHR1*%
%TO.N,unconnected-(U2-CHR1-Pad14)*%
X118700000Y-90900000D03*
D14*
%TO.P,U2,15,CHR0*%
%TO.N,unconnected-(U2-CHR0-Pad15)*%
X119650000Y-91850000D03*
%TO.P,U2,16,~{WAKEUP}/GPIO.3*%
%TO.N,unconnected-(U2-~{WAKEUP}{slash}GPIO.3-Pad16)*%
X120150000Y-91850000D03*
%TO.P,U2,17,RS485/GPIO.2*%
%TO.N,unconnected-(U2-RS485{slash}GPIO.2-Pad17)*%
X120650000Y-91850000D03*
%TO.P,U2,18,~{RXT}/GPIO.1*%
%TO.N,unconnected-(U2-~{RXT}{slash}GPIO.1-Pad18)*%
X121150000Y-91850000D03*
%TO.P,U2,19,~{TXT}/GPIO.0*%
%TO.N,unconnected-(U2-~{TXT}{slash}GPIO.0-Pad19)*%
X121650000Y-91850000D03*
%TO.P,U2,20,GPIO.6*%
%TO.N,unconnected-(U2-GPIO.6-Pad20)*%
X122150000Y-91850000D03*
%TO.P,U2,21,GPIO.5*%
%TO.N,unconnected-(U2-GPIO.5-Pad21)*%
X122650000Y-91850000D03*
D15*
%TO.P,U2,22,GPIO.4*%
%TO.N,unconnected-(U2-GPIO.4-Pad22)*%
X123600000Y-90900000D03*
%TO.P,U2,23,~{CTS}*%
%TO.N,unconnected-(U2-~{CTS}-Pad23)*%
X123600000Y-90400000D03*
%TO.P,U2,24,~{RTS}*%
%TO.N,unconnected-(U2-~{RTS}-Pad24)*%
X123600000Y-89900000D03*
%TO.P,U2,25,RXD*%
%TO.N,/TXD*%
X123600000Y-89400000D03*
%TO.P,U2,26,TXD*%
%TO.N,/RXD*%
X123600000Y-88900000D03*
%TO.P,U2,27,~{DSR}*%
%TO.N,unconnected-(U2-~{DSR}-Pad27)*%
X123600000Y-88400000D03*
%TO.P,U2,28,~{DTR}*%
%TO.N,/RST*%
X123600000Y-87900000D03*
D16*
%TO.P,U2,29,GND*%
%TO.N,GND*%
X121150000Y-89400000D03*
%TD*%
D13*
%TO.P,R2,1*%
%TO.N,VCC*%
X116000000Y-96200000D03*
%TO.P,R2,2*%
%TO.N,Net-(D2-A)*%
X126000000Y-96200000D03*
%TD*%
%TO.P,J6,1,Pin_1*%
%TO.N,/USB_5V*%
X123500000Y-121000000D03*
%TO.P,J6,2,Pin_2*%
%TO.N,VCC*%
X126000000Y-121000000D03*
%TO.P,J6,3,Pin_3*%
%TO.N,/+5V*%
X128500000Y-121000000D03*
%TD*%
D10*
%TO.P,D4,1,K*%
%TO.N,/TXD*%
X160530000Y-84100000D03*
D11*
%TO.P,D4,2,A*%
%TO.N,Net-(D4-A)*%
X157990000Y-84100000D03*
%TD*%
D13*
%TO.P,J2,1,Pin_1*%
%TO.N,/RXD*%
X165550000Y-73000000D03*
%TO.P,J2,2,Pin_2*%
%TO.N,/TXD*%
X163050000Y-73000000D03*
%TO.P,J2,3,Pin_3*%
%TO.N,Net-(J2-Pin_3)*%
X160550000Y-73000000D03*
%TO.P,J2,4,Pin_4*%
%TO.N,Net-(J2-Pin_4)*%
X158050000Y-73000000D03*
%TO.P,J2,5,Pin_5*%
%TO.N,Net-(J2-Pin_5)*%
X155550000Y-73000000D03*
%TO.P,J2,6,Pin_6*%
%TO.N,Net-(J2-Pin_6)*%
X153050000Y-73000000D03*
%TO.P,J2,7,Pin_7*%
%TO.N,Net-(J2-Pin_7)*%
X150550000Y-73000000D03*
%TO.P,J2,8,Pin_8*%
%TO.N,Net-(J2-Pin_8)*%
X148050000Y-73000000D03*
%TD*%
%TO.P,J7,1,Pin_1*%
%TO.N,unconnected-(J7-Pin_1-Pad1)*%
X132000000Y-121000000D03*
%TO.P,J7,2,Pin_2*%
%TO.N,unconnected-(J7-Pin_2-Pad2)*%
X134500000Y-121000000D03*
%TO.P,J7,3,Pin_3*%
%TO.N,/RST*%
X137000000Y-121000000D03*
%TO.P,J7,4,Pin_4*%
%TO.N,/+3.3V*%
X139500000Y-121000000D03*
%TO.P,J7,5,Pin_5*%
%TO.N,VCC*%
X142000000Y-121000000D03*
%TO.P,J7,6,Pin_6*%
%TO.N,GND*%
X144500000Y-121000000D03*
%TO.P,J7,7,Pin_7*%
X147000000Y-121000000D03*
%TO.P,J7,8,Pin_8*%
%TO.N,/VIN*%
X149500000Y-121000000D03*
%TD*%
%TO.P,C3,1*%
%TO.N,VCC*%
X119150000Y-101950000D03*
%TO.P,C3,2*%
%TO.N,GND*%
X121150000Y-101950000D03*
%TD*%
D17*
%TO.P,U3,1,VI*%
%TO.N,Net-(D1-K)*%
X107400000Y-106550000D03*
D18*
%TO.P,U3,2,GND*%
%TO.N,GND*%
X107400000Y-104010000D03*
%TO.P,U3,3,VO*%
%TO.N,/+5V*%
X107400000Y-101470000D03*
%TD*%
D13*
%TO.P,R1,1*%
%TO.N,/RST*%
X116500000Y-82700000D03*
%TO.P,R1,2*%
%TO.N,VCC*%
X126500000Y-82700000D03*
%TD*%
D10*
%TO.P,D2,1,K*%
%TO.N,GND*%
X131400000Y-96200000D03*
D11*
%TO.P,D2,2,A*%
%TO.N,Net-(D2-A)*%
X128860000Y-96200000D03*
%TD*%
D13*
%TO.P,SW1,1,A*%
%TO.N,/RST*%
X107000000Y-72000000D03*
%TO.P,SW1,2,B*%
%TO.N,GND*%
X112500000Y-72000000D03*
%TO.P,SW1,3*%
%TO.N,N/C*%
X112500000Y-76500000D03*
%TO.P,SW1,4*%
X107050000Y-76500000D03*
%TD*%
%TO.P,Y1,1,1*%
%TO.N,Net-(U1-XTAL2{slash}PB7)*%
X144050000Y-96200000D03*
%TO.P,Y1,2,2*%
%TO.N,Net-(U1-XTAL1{slash}PB6)*%
X144050000Y-101200000D03*
%TD*%
D19*
%TO.P,U1,1,~{RESET}/PC6*%
%TO.N,/RST*%
X165530000Y-105600000D03*
D20*
%TO.P,U1,2,PD0*%
%TO.N,Net-(D3-K)*%
X162990000Y-105600000D03*
%TO.P,U1,3,PD1*%
%TO.N,Net-(D4-A)*%
X160450000Y-105600000D03*
%TO.P,U1,4,PD2*%
%TO.N,Net-(J2-Pin_3)*%
X157910000Y-105600000D03*
%TO.P,U1,5,PD3*%
%TO.N,Net-(J2-Pin_4)*%
X155370000Y-105600000D03*
%TO.P,U1,6,PD4*%
%TO.N,Net-(J2-Pin_5)*%
X152830000Y-105600000D03*
%TO.P,U1,7,VCC*%
%TO.N,VCC*%
X150290000Y-105600000D03*
%TO.P,U1,8,GND*%
%TO.N,GND*%
X147750000Y-105600000D03*
%TO.P,U1,9,XTAL1/PB6*%
%TO.N,Net-(U1-XTAL1{slash}PB6)*%
X145210000Y-105600000D03*
%TO.P,U1,10,XTAL2/PB7*%
%TO.N,Net-(U1-XTAL2{slash}PB7)*%
X142670000Y-105600000D03*
%TO.P,U1,11,PD5*%
%TO.N,Net-(J2-Pin_6)*%
X140130000Y-105600000D03*
%TO.P,U1,12,PD6*%
%TO.N,Net-(J2-Pin_7)*%
X137590000Y-105600000D03*
%TO.P,U1,13,PD7*%
%TO.N,Net-(J2-Pin_8)*%
X135050000Y-105600000D03*
%TO.P,U1,14,PB0*%
%TO.N,Net-(D5-A)*%
X132510000Y-105600000D03*
%TO.P,U1,15,PB1*%
%TO.N,Net-(J3-Pin_6)*%
X132510000Y-113220000D03*
%TO.P,U1,16,PB2*%
%TO.N,Net-(J3-Pin_7)*%
X135050000Y-113220000D03*
%TO.P,U1,17,PB3*%
%TO.N,Net-(J3-Pin_8)*%
X137590000Y-113220000D03*
%TO.P,U1,18,PB4*%
%TO.N,Net-(J3-Pin_9)*%
X140130000Y-113220000D03*
%TO.P,U1,19,PB5*%
%TO.N,Net-(J3-Pin_10)*%
X142670000Y-113220000D03*
%TO.P,U1,20,AVCC*%
%TO.N,VCC*%
X145210000Y-113220000D03*
%TO.P,U1,21,AREF*%
X147750000Y-113220000D03*
%TO.P,U1,22,GND*%
%TO.N,GND*%
X150290000Y-113220000D03*
%TO.P,U1,23,PC0*%
%TO.N,Net-(J1-Pin_1)*%
X152830000Y-113220000D03*
%TO.P,U1,24,PC1*%
%TO.N,Net-(J1-Pin_2)*%
X155370000Y-113220000D03*
%TO.P,U1,25,PC2*%
%TO.N,Net-(J1-Pin_3)*%
X157910000Y-113220000D03*
%TO.P,U1,26,PC3*%
%TO.N,Net-(J1-Pin_4)*%
X160450000Y-113220000D03*
%TO.P,U1,27,PC4*%
%TO.N,/SDA*%
X162990000Y-113220000D03*
%TO.P,U1,28,PC5*%
%TO.N,/SCL*%
X165530000Y-113220000D03*
%TD*%
D21*
%TO.P,J8,1,VBUS*%
%TO.N,/USB_5V*%
X111710000Y-88730000D03*
D22*
%TO.P,J8,2,D-*%
%TO.N,Net-(J8-D-)*%
X111710000Y-86230000D03*
%TO.P,J8,3,D+*%
%TO.N,Net-(J8-D+)*%
X109710000Y-86230000D03*
%TO.P,J8,4,GND*%
%TO.N,GND*%
X109710000Y-88730000D03*
D23*
%TO.P,J8,5,Shield*%
X107000000Y-93500000D03*
X107000000Y-81460000D03*
%TD*%
D13*
%TO.P,J4,1,Pin_1*%
%TO.N,Net-(J3-Pin_9)*%
X165800000Y-99100000D03*
%TO.P,J4,2,Pin_2*%
%TO.N,VCC*%
X165800000Y-96600000D03*
%TO.P,J4,3,Pin_3*%
%TO.N,Net-(J3-Pin_10)*%
X165800000Y-94100000D03*
%TO.P,J4,4,Pin_4*%
%TO.N,Net-(J3-Pin_8)*%
X168300000Y-99100000D03*
%TO.P,J4,5,Pin_5*%
%TO.N,/RST*%
X168300000Y-96600000D03*
%TO.P,J4,6,Pin_6*%
%TO.N,GND*%
X168300000Y-94100000D03*
%TD*%
D24*
%TO.P,J5,1*%
%TO.N,/VIN*%
X113300000Y-116092500D03*
D25*
%TO.P,J5,2*%
%TO.N,GND*%
X107300000Y-116092500D03*
D26*
%TO.P,J5,3*%
X110300000Y-120792500D03*
%TD*%
D10*
%TO.P,D3,1,K*%
%TO.N,Net-(D3-K)*%
X163160000Y-84100000D03*
D11*
%TO.P,D3,2,A*%
%TO.N,/RXD*%
X165700000Y-84100000D03*
%TD*%
D27*
%TO.N,GND*%
X151200000Y-85000000D03*
%TO.N,Net-(J2-Pin_6)*%
X140100000Y-89400000D03*
%TO.N,Net-(J2-Pin_7)*%
X137600000Y-89300000D03*
%TO.N,Net-(J2-Pin_8)*%
X135100000Y-89300000D03*
%TO.N,Net-(J3-Pin_8)*%
X156600000Y-115800000D03*
%TO.N,Net-(J3-Pin_9)*%
X151500000Y-115300000D03*
%TO.N,/TXD*%
X154700000Y-89900000D03*
X153300000Y-91300000D03*
%TO.N,/RST*%
X128000000Y-89237251D03*
%TO.N,/+3.3V*%
X111400000Y-101900000D03*
%TD*%
D28*
%TO.N,GND*%
X146175000Y-90025000D02*
X151200000Y-85000000D01*
X132287749Y-90025000D02*
X146175000Y-90025000D01*
X123500000Y-81237251D02*
X132287749Y-90025000D01*
X123500000Y-79000000D02*
X123500000Y-81237251D01*
%TO.N,/SCL*%
X123087000Y-71913000D02*
X122000000Y-73000000D01*
X166000251Y-71913000D02*
X123087000Y-71913000D01*
X167100000Y-73012749D02*
X166000251Y-71913000D01*
X166300000Y-89250209D02*
X166300000Y-85232412D01*
X170432467Y-93382676D02*
X166300000Y-89250209D01*
X166300000Y-85232412D02*
X167100000Y-84432412D01*
X170432467Y-108317533D02*
X170432467Y-93382676D01*
X167100000Y-84432412D02*
X167100000Y-73012749D01*
X165530000Y-113220000D02*
X170432467Y-108317533D01*
%TO.N,Net-(J2-Pin_6)*%
X153050000Y-76450000D02*
X140100000Y-89400000D01*
X153050000Y-73000000D02*
X153050000Y-76450000D01*
%TO.N,Net-(J2-Pin_7)*%
X150550000Y-76350000D02*
X137600000Y-89300000D01*
X150550000Y-73000000D02*
X150550000Y-76350000D01*
%TO.N,Net-(J2-Pin_8)*%
X148050000Y-76350000D02*
X135100000Y-89300000D01*
X148050000Y-73000000D02*
X148050000Y-76350000D01*
%TO.N,Net-(D5-A)*%
X131870000Y-73130000D02*
X132000000Y-73000000D01*
X131870000Y-79000000D02*
X131870000Y-73130000D01*
D29*
%TO.N,Net-(D5-K)*%
X129330000Y-79000000D02*
X126500000Y-79000000D01*
D28*
%TO.N,Net-(U1-XTAL2{slash}PB7)*%
X144050000Y-96200000D02*
X142670000Y-97580000D01*
X142670000Y-97580000D02*
X142670000Y-105600000D01*
%TO.N,Net-(U1-XTAL1{slash}PB6)*%
X144050000Y-101200000D02*
X144050000Y-104440000D01*
X144050000Y-104440000D02*
X145210000Y-105600000D01*
%TO.N,Net-(U1-XTAL2{slash}PB7)*%
X148750000Y-96200000D02*
X144050000Y-96200000D01*
%TO.N,Net-(U1-XTAL1{slash}PB6)*%
X148800000Y-101200000D02*
X144050000Y-101200000D01*
%TO.N,Net-(J3-Pin_8)*%
X156600000Y-112939009D02*
X156600000Y-115800000D01*
X157539009Y-112000000D02*
X156600000Y-112939009D01*
X164115000Y-106065991D02*
X158180991Y-112000000D01*
X164115000Y-103285000D02*
X164115000Y-106065991D01*
X158180991Y-112000000D02*
X157539009Y-112000000D01*
X168300000Y-99100000D02*
X164115000Y-103285000D01*
%TO.N,Net-(J3-Pin_9)*%
X152364009Y-112095000D02*
X151500000Y-112959009D01*
X161865000Y-105775991D02*
X155545991Y-112095000D01*
X155545991Y-112095000D02*
X152364009Y-112095000D01*
X161865000Y-103035000D02*
X161865000Y-105775991D01*
X151500000Y-112959009D02*
X151500000Y-115300000D01*
X165800000Y-99100000D02*
X161865000Y-103035000D01*
D29*
%TO.N,/SCL*%
X165500000Y-113250000D02*
X165530000Y-113220000D01*
X165500000Y-121000000D02*
X165500000Y-113250000D01*
%TO.N,/SDA*%
X163000000Y-113230000D02*
X162990000Y-113220000D01*
X163000000Y-121000000D02*
X163000000Y-113230000D01*
%TO.N,Net-(J1-Pin_4)*%
X160500000Y-113270000D02*
X160450000Y-113220000D01*
X160500000Y-121000000D02*
X160500000Y-113270000D01*
%TO.N,Net-(J1-Pin_3)*%
X158000000Y-113310000D02*
X157910000Y-113220000D01*
X158000000Y-121000000D02*
X158000000Y-113310000D01*
%TO.N,Net-(J1-Pin_2)*%
X155500000Y-113350000D02*
X155370000Y-113220000D01*
X155500000Y-121000000D02*
X155500000Y-113350000D01*
%TO.N,Net-(J1-Pin_1)*%
X153000000Y-113390000D02*
X152830000Y-113220000D01*
X153000000Y-121000000D02*
X153000000Y-113390000D01*
D28*
%TO.N,/RXD*%
X165700000Y-73150000D02*
X165550000Y-73000000D01*
X165700000Y-84100000D02*
X165700000Y-73150000D01*
%TO.N,/TXD*%
X160530000Y-75520000D02*
X163050000Y-73000000D01*
X160530000Y-84100000D02*
X160530000Y-75520000D01*
X154730000Y-89900000D02*
X160530000Y-84100000D01*
X154700000Y-89900000D02*
X154730000Y-89900000D01*
X125949740Y-91300000D02*
X153300000Y-91300000D01*
X124049740Y-89400000D02*
X125949740Y-91300000D01*
X123600000Y-89400000D02*
X124049740Y-89400000D01*
%TO.N,/RXD*%
X159169276Y-90630724D02*
X165700000Y-84100000D01*
X128509589Y-90630724D02*
X159169276Y-90630724D01*
X123600000Y-88900000D02*
X126778865Y-88900000D01*
X126778865Y-88900000D02*
X128509589Y-90630724D01*
%TO.N,/RST*%
X126662749Y-87900000D02*
X128000000Y-89237251D01*
X123600000Y-87900000D02*
X126662749Y-87900000D01*
%TO.N,/+3.3V*%
X111400000Y-91800000D02*
X111400000Y-101900000D01*
X116975000Y-86225000D02*
X111400000Y-91800000D01*
%TO.N,GND*%
X121150000Y-89400000D02*
X121650000Y-88900000D01*
X121650000Y-88900000D02*
X121650000Y-86950000D01*
%TO.N,Net-(J8-D+)*%
X119922532Y-85000000D02*
X110940000Y-85000000D01*
X121150000Y-86227468D02*
X119922532Y-85000000D01*
X110940000Y-85000000D02*
X109710000Y-86230000D01*
X121150000Y-86950000D02*
X121150000Y-86227468D01*
%TO.N,Net-(J8-D-)*%
X112165000Y-85775000D02*
X111710000Y-86230000D01*
X120061136Y-85775000D02*
X112165000Y-85775000D01*
X120650000Y-86950000D02*
X120650000Y-86363864D01*
X120650000Y-86363864D02*
X120061136Y-85775000D01*
%TO.N,/+3.3V*%
X119874740Y-86225000D02*
X116975000Y-86225000D01*
X120150000Y-86500260D02*
X119874740Y-86225000D01*
X120150000Y-86950000D02*
X120150000Y-86500260D01*
D29*
%TO.N,Net-(D2-A)*%
X126000000Y-96200000D02*
X128860000Y-96200000D01*
D28*
%TO.N,VCC*%
X116000000Y-90150260D02*
X116000000Y-96200000D01*
X118250260Y-87900000D02*
X116000000Y-90150260D01*
X118700000Y-87900000D02*
X118250260Y-87900000D01*
D29*
%TO.N,GND*%
X167088000Y-92888000D02*
X168300000Y-94100000D01*
X157062000Y-92888000D02*
X167088000Y-92888000D01*
X153750000Y-96200000D02*
X157062000Y-92888000D01*
%TO.N,VCC*%
X151540000Y-104350000D02*
X150290000Y-105600000D01*
X158050000Y-104350000D02*
X151540000Y-104350000D01*
X165800000Y-96600000D02*
X158050000Y-104350000D01*
D30*
X125200000Y-100100000D02*
X126100000Y-99200000D01*
X126100000Y-99200000D02*
X119400000Y-99200000D01*
X128600000Y-99200000D02*
X126100000Y-99200000D01*
X125200000Y-101950000D02*
X125200000Y-100100000D01*
X119150000Y-101950000D02*
X119150000Y-99450000D01*
X119400000Y-99200000D02*
X119000000Y-99200000D01*
X119150000Y-99450000D02*
X119400000Y-99200000D01*
X130200000Y-116800000D02*
X130200000Y-100800000D01*
X130200000Y-100800000D02*
X128600000Y-99200000D01*
X119000000Y-99200000D02*
X116000000Y-96200000D01*
X128200000Y-118800000D02*
X130200000Y-116800000D01*
X145210000Y-113220000D02*
X147750000Y-113220000D01*
X139800000Y-118630000D02*
X145210000Y-113220000D01*
X139800000Y-118800000D02*
X139800000Y-118630000D01*
X139800000Y-118800000D02*
X142000000Y-121000000D01*
X128200000Y-118800000D02*
X139800000Y-118800000D01*
X126000000Y-121000000D02*
X128200000Y-118800000D01*
%TO.N,Net-(D1-K)*%
X119750000Y-113400000D02*
X125200000Y-107950000D01*
X117400000Y-113400000D02*
X119750000Y-113400000D01*
X117400000Y-109650000D02*
X119100000Y-107950000D01*
X117400000Y-113400000D02*
X117400000Y-109650000D01*
X114250000Y-113400000D02*
X107400000Y-106550000D01*
X117400000Y-113400000D02*
X114250000Y-113400000D01*
%TO.N,/VIN*%
X124707500Y-116092500D02*
X127400000Y-113400000D01*
X113300000Y-116092500D02*
X124707500Y-116092500D01*
D31*
%TO.N,GND*%
X121650000Y-84150000D02*
X116500000Y-79000000D01*
X121650000Y-86950000D02*
X121650000Y-84150000D01*
D29*
X153800000Y-96250000D02*
X153750000Y-96200000D01*
X153800000Y-101200000D02*
X153800000Y-96250000D01*
X152150000Y-101200000D02*
X153800000Y-101200000D01*
X147750000Y-105600000D02*
X152150000Y-101200000D01*
D30*
X150290000Y-108140000D02*
X147750000Y-105600000D01*
X150290000Y-113220000D02*
X150290000Y-108140000D01*
X150290000Y-117710000D02*
X147000000Y-121000000D01*
X150290000Y-113220000D02*
X150290000Y-117710000D01*
X144500000Y-121000000D02*
X147000000Y-121000000D01*
X113407500Y-120792500D02*
X110300000Y-120792500D01*
X115900000Y-118300000D02*
X113407500Y-120792500D01*
X120100000Y-118300000D02*
X115900000Y-118300000D01*
X120600000Y-118800000D02*
X120100000Y-118300000D01*
X120600000Y-120800000D02*
X120600000Y-118800000D01*
X122350000Y-122550000D02*
X120600000Y-120800000D01*
X142950000Y-122550000D02*
X122350000Y-122550000D01*
X144500000Y-121000000D02*
X142950000Y-122550000D01*
X127200000Y-106070000D02*
X125140000Y-104010000D01*
X127200000Y-107950000D02*
X127200000Y-106070000D01*
X121100000Y-107950000D02*
X121100000Y-106020000D01*
X121100000Y-106020000D02*
X119090000Y-104010000D01*
X125140000Y-104010000D02*
X119090000Y-104010000D01*
X127200000Y-101950000D02*
X125140000Y-104010000D01*
X119090000Y-104010000D02*
X107400000Y-104010000D01*
X121150000Y-101950000D02*
X119090000Y-104010000D01*
X123500000Y-79000000D02*
X129500000Y-73000000D01*
X116500000Y-79000000D02*
X123500000Y-79000000D01*
X113400000Y-71900000D02*
X116500000Y-75000000D01*
X116500000Y-75000000D02*
X116500000Y-79000000D01*
X108144551Y-79000000D02*
X116500000Y-79000000D01*
X107000000Y-80144551D02*
X108144551Y-79000000D01*
X107000000Y-81460000D02*
X107000000Y-80144551D01*
X108130000Y-88730000D02*
X107000000Y-87600000D01*
X109710000Y-88730000D02*
X108130000Y-88730000D01*
X107000000Y-87600000D02*
X107000000Y-81460000D01*
X107000000Y-93500000D02*
X107000000Y-87600000D01*
X105850000Y-102460000D02*
X105850000Y-94650000D01*
X105850000Y-94650000D02*
X107000000Y-93500000D01*
X107400000Y-104010000D02*
X105850000Y-102460000D01*
X105850000Y-105047500D02*
X106887500Y-104010000D01*
X106887500Y-104010000D02*
X107400000Y-104010000D01*
X105850000Y-114642500D02*
X105850000Y-105047500D01*
X107300000Y-116092500D02*
X105850000Y-114642500D01*
X110300000Y-119092500D02*
X107300000Y-116092500D01*
X110300000Y-120792500D02*
X110300000Y-119092500D01*
D32*
%TO.N,Net-(D1-K)*%
X117400000Y-113400000D02*
X117740000Y-113400000D01*
D31*
%TO.N,Net-(D5-A)*%
X132000000Y-78870000D02*
X131870000Y-79000000D01*
D29*
%TO.N,Net-(J1-Pin_4)*%
X160450000Y-120950000D02*
X160500000Y-121000000D01*
%TO.N,Net-(J1-Pin_2)*%
X155370000Y-120870000D02*
X155500000Y-121000000D01*
%TO.N,/SDA*%
X162990000Y-120990000D02*
X163000000Y-121000000D01*
%TO.N,Net-(J1-Pin_3)*%
X157910000Y-120910000D02*
X158000000Y-121000000D01*
%TO.N,/SCL*%
X165530000Y-120970000D02*
X165500000Y-121000000D01*
%TO.N,Net-(J1-Pin_1)*%
X152830000Y-120830000D02*
X153000000Y-121000000D01*
%TD*%
%TA.AperFunction,Conductor*%
%TO.N,GND*%
G36*
X106081730Y-70920185D02*
G01*
X106127485Y-70972989D01*
X106137429Y-71042147D01*
X106108404Y-71105703D01*
X106102372Y-71112181D01*
X106029175Y-71185377D01*
X105902466Y-71366338D01*
X105902465Y-71366340D01*
X105809107Y-71566548D01*
X105809104Y-71566554D01*
X105751930Y-71779929D01*
X105751929Y-71779937D01*
X105732677Y-71999997D01*
X105732677Y-72000002D01*
X105751929Y-72220062D01*
X105751930Y-72220070D01*
X105809104Y-72433445D01*
X105809105Y-72433447D01*
X105809106Y-72433450D01*
X105902346Y-72633405D01*
X105902466Y-72633662D01*
X105902468Y-72633666D01*
X106029170Y-72814615D01*
X106029175Y-72814621D01*
X106185378Y-72970824D01*
X106185384Y-72970829D01*
X106366333Y-73097531D01*
X106366335Y-73097532D01*
X106366338Y-73097534D01*
X106566550Y-73190894D01*
X106779932Y-73248070D01*
X106937123Y-73261822D01*
X106999998Y-73267323D01*
X107000000Y-73267323D01*
X107000002Y-73267323D01*
X107055017Y-73262509D01*
X107220068Y-73248070D01*
X107433450Y-73190894D01*
X107633662Y-73097534D01*
X107814620Y-72970826D01*
X107970826Y-72814620D01*
X108097534Y-72633662D01*
X108190894Y-72433450D01*
X108248070Y-72220068D01*
X108267323Y-72000000D01*
X108248070Y-71779932D01*
X108190894Y-71566550D01*
X108097534Y-71366339D01*
X107970826Y-71185380D01*
X107970824Y-71185377D01*
X107897628Y-71112181D01*
X107864143Y-71050858D01*
X107869127Y-70981166D01*
X107910999Y-70925233D01*
X107976463Y-70900816D01*
X107985309Y-70900500D01*
X111702691Y-70900500D01*
X111769730Y-70920185D01*
X111790372Y-70936819D01*
X112472554Y-71619000D01*
X112449840Y-71619000D01*
X112352939Y-71644964D01*
X112266060Y-71695124D01*
X112195124Y-71766060D01*
X112144964Y-71852939D01*
X112119000Y-71949840D01*
X112119000Y-71972553D01*
X111448258Y-71301811D01*
X111402901Y-71366590D01*
X111309579Y-71566720D01*
X111309575Y-71566729D01*
X111252426Y-71780013D01*
X111252424Y-71780023D01*
X111233179Y-71999999D01*
X111233179Y-72000000D01*
X111252424Y-72219976D01*
X111252426Y-72219986D01*
X111309575Y-72433270D01*
X111309580Y-72433284D01*
X111402898Y-72633405D01*
X111402901Y-72633411D01*
X111448258Y-72698187D01*
X111448258Y-72698188D01*
X112119000Y-72027446D01*
X112119000Y-72050160D01*
X112144964Y-72147061D01*
X112195124Y-72233940D01*
X112266060Y-72304876D01*
X112352939Y-72355036D01*
X112449840Y-72381000D01*
X112472553Y-72381000D01*
X111801810Y-73051740D01*
X111866590Y-73097099D01*
X111866592Y-73097100D01*
X112066715Y-73190419D01*
X112066729Y-73190424D01*
X112280013Y-73247573D01*
X112280023Y-73247575D01*
X112499999Y-73266821D01*
X112500001Y-73266821D01*
X112719976Y-73247575D01*
X112719986Y-73247573D01*
X112933270Y-73190424D01*
X112933284Y-73190419D01*
X113133407Y-73097100D01*
X113133417Y-73097094D01*
X113198188Y-73051741D01*
X112527448Y-72381000D01*
X112550160Y-72381000D01*
X112647061Y-72355036D01*
X112733940Y-72304876D01*
X112804876Y-72233940D01*
X112855036Y-72147061D01*
X112881000Y-72050160D01*
X112881000Y-72027447D01*
X113551741Y-72698188D01*
X113597094Y-72633417D01*
X113597100Y-72633407D01*
X113690419Y-72433284D01*
X113690424Y-72433270D01*
X113747573Y-72219986D01*
X113747575Y-72219976D01*
X113766821Y-72000000D01*
X113766821Y-71999999D01*
X113747575Y-71780023D01*
X113747573Y-71780013D01*
X113690424Y-71566729D01*
X113690420Y-71566720D01*
X113597096Y-71366586D01*
X113551741Y-71301811D01*
X113551740Y-71301810D01*
X112881000Y-71972551D01*
X112881000Y-71949840D01*
X112855036Y-71852939D01*
X112804876Y-71766060D01*
X112733940Y-71695124D01*
X112647061Y-71644964D01*
X112550160Y-71619000D01*
X112527447Y-71619000D01*
X113209628Y-70936819D01*
X113270951Y-70903334D01*
X113297309Y-70900500D01*
X116902818Y-70900500D01*
X116969857Y-70920185D01*
X117015612Y-70972989D01*
X117025556Y-71042147D01*
X116996531Y-71105703D01*
X116967247Y-71130448D01*
X116885853Y-71179944D01*
X116662950Y-71361289D01*
X116662947Y-71361291D01*
X116662947Y-71361292D01*
X116658003Y-71366586D01*
X116466812Y-71571299D01*
X116301098Y-71806064D01*
X116168894Y-72061206D01*
X116072667Y-72331962D01*
X116072666Y-72331965D01*
X116014201Y-72613319D01*
X115994592Y-72900000D01*
X116014201Y-73186680D01*
X116014201Y-73186684D01*
X116014202Y-73186686D01*
X116035984Y-73291509D01*
X116072666Y-73468034D01*
X116072667Y-73468037D01*
X116168894Y-73738793D01*
X116168893Y-73738793D01*
X116301098Y-73993935D01*
X116466812Y-74228700D01*
X116499446Y-74263642D01*
X116662947Y-74438708D01*
X116707373Y-74474851D01*
X116885853Y-74620055D01*
X117131382Y-74769365D01*
X117318237Y-74850526D01*
X117394942Y-74883844D01*
X117671642Y-74961371D01*
X117921920Y-74995771D01*
X117956321Y-75000500D01*
X117956322Y-75000500D01*
X118243679Y-75000500D01*
X118274370Y-74996281D01*
X118528358Y-74961371D01*
X118805058Y-74883844D01*
X118918015Y-74834779D01*
X119068617Y-74769365D01*
X119068620Y-74769363D01*
X119068625Y-74769361D01*
X119314147Y-74620055D01*
X119537053Y-74438708D01*
X119733189Y-74228698D01*
X119898901Y-73993936D01*
X120031104Y-73738797D01*
X120127334Y-73468032D01*
X120185798Y-73186686D01*
X120205408Y-72900000D01*
X120185798Y-72613314D01*
X120127334Y-72331968D01*
X120117705Y-72304876D01*
X120031105Y-72061206D01*
X120031106Y-72061206D01*
X119898901Y-71806064D01*
X119733187Y-71571299D01*
X119648207Y-71480309D01*
X119537053Y-71361292D01*
X119314147Y-71179945D01*
X119314146Y-71179944D01*
X119232753Y-71130448D01*
X119185701Y-71078796D01*
X119174044Y-71009906D01*
X119201482Y-70945649D01*
X119259304Y-70906427D01*
X119297182Y-70900500D01*
X166341324Y-70900500D01*
X166408363Y-70920185D01*
X166429005Y-70936819D01*
X167563181Y-72070995D01*
X167596666Y-72132318D01*
X167599500Y-72158676D01*
X167599500Y-72328297D01*
X167579815Y-72395336D01*
X167527011Y-72441091D01*
X167457853Y-72451035D01*
X167394297Y-72422010D01*
X167387819Y-72415978D01*
X166490449Y-71518608D01*
X166490429Y-71518586D01*
X166398984Y-71427141D01*
X166347760Y-71392915D01*
X166296537Y-71358688D01*
X166296534Y-71358686D01*
X166296531Y-71358685D01*
X166216043Y-71325347D01*
X166182704Y-71311537D01*
X166172678Y-71309543D01*
X166122280Y-71299518D01*
X166061861Y-71287500D01*
X166061858Y-71287500D01*
X166061857Y-71287500D01*
X123148607Y-71287500D01*
X123025393Y-71287500D01*
X123025389Y-71287500D01*
X122964971Y-71299518D01*
X122927259Y-71307019D01*
X122904550Y-71311536D01*
X122904548Y-71311537D01*
X122871207Y-71325347D01*
X122790719Y-71358684D01*
X122790705Y-71358692D01*
X122688272Y-71427138D01*
X122688264Y-71427144D01*
X122601139Y-71514270D01*
X122383795Y-71731613D01*
X122322472Y-71765098D01*
X122264021Y-71763707D01*
X122220068Y-71751930D01*
X122000002Y-71732677D01*
X121999998Y-71732677D01*
X121779937Y-71751929D01*
X121779929Y-71751930D01*
X121566554Y-71809104D01*
X121566548Y-71809107D01*
X121366340Y-71902465D01*
X121366338Y-71902466D01*
X121185377Y-72029175D01*
X121029175Y-72185377D01*
X120902466Y-72366338D01*
X120902465Y-72366340D01*
X120809107Y-72566548D01*
X120809104Y-72566554D01*
X120751930Y-72779929D01*
X120751929Y-72779937D01*
X120732677Y-72999997D01*
X120732677Y-73000000D01*
X120751929Y-73220062D01*
X120751930Y-73220070D01*
X120809104Y-73433445D01*
X120809105Y-73433447D01*
X120809106Y-73433450D01*
X120862382Y-73547701D01*
X120902466Y-73633662D01*
X120902468Y-73633666D01*
X121029170Y-73814615D01*
X121029175Y-73814621D01*
X121185378Y-73970824D01*
X121185384Y-73970829D01*
X121366333Y-74097531D01*
X121366335Y-74097532D01*
X121366338Y-74097534D01*
X121566550Y-74190894D01*
X121779932Y-74248070D01*
X121937123Y-74261822D01*
X121999998Y-74267323D01*
X122000000Y-74267323D01*
X122000002Y-74267323D01*
X122055017Y-74262509D01*
X122220068Y-74248070D01*
X122433450Y-74190894D01*
X122633662Y-74097534D01*
X122814620Y-73970826D01*
X122970826Y-73814620D01*
X123097534Y-73633662D01*
X123137618Y-73547700D01*
X123183790Y-73495261D01*
X123250983Y-73476109D01*
X123317864Y-73496324D01*
X123362382Y-73547701D01*
X123402464Y-73633658D01*
X123402468Y-73633666D01*
X123529170Y-73814615D01*
X123529175Y-73814621D01*
X123685378Y-73970824D01*
X123685384Y-73970829D01*
X123866333Y-74097531D01*
X123866335Y-74097532D01*
X123866338Y-74097534D01*
X124066550Y-74190894D01*
X124279932Y-74248070D01*
X124437123Y-74261822D01*
X124499998Y-74267323D01*
X124500000Y-74267323D01*
X124500002Y-74267323D01*
X124555017Y-74262509D01*
X124720068Y-74248070D01*
X124933450Y-74190894D01*
X125133662Y-74097534D01*
X125314620Y-73970826D01*
X125470826Y-73814620D01*
X125597534Y-73633662D01*
X125637618Y-73547700D01*
X125683790Y-73495261D01*
X125750983Y-73476109D01*
X125817864Y-73496324D01*
X125862382Y-73547701D01*
X125902464Y-73633658D01*
X125902468Y-73633666D01*
X126029170Y-73814615D01*
X126029175Y-73814621D01*
X126185378Y-73970824D01*
X126185384Y-73970829D01*
X126366333Y-74097531D01*
X126366335Y-74097532D01*
X126366338Y-74097534D01*
X126566550Y-74190894D01*
X126779932Y-74248070D01*
X126937123Y-74261822D01*
X126999998Y-74267323D01*
X127000000Y-74267323D01*
X127000002Y-74267323D01*
X127055017Y-74262509D01*
X127220068Y-74248070D01*
X127433450Y-74190894D01*
X127633662Y-74097534D01*
X127814620Y-73970826D01*
X127970826Y-73814620D01*
X128097534Y-73633662D01*
X128137894Y-73547108D01*
X128184066Y-73494669D01*
X128251259Y-73475517D01*
X128318140Y-73495732D01*
X128362658Y-73547109D01*
X128402898Y-73633405D01*
X128402901Y-73633411D01*
X128448258Y-73698187D01*
X128448258Y-73698188D01*
X129119000Y-73027446D01*
X129119000Y-73050160D01*
X129144964Y-73147061D01*
X129195124Y-73233940D01*
X129266060Y-73304876D01*
X129352939Y-73355036D01*
X129449840Y-73381000D01*
X129472553Y-73381000D01*
X128801810Y-74051740D01*
X128866590Y-74097099D01*
X128866592Y-74097100D01*
X129066715Y-74190419D01*
X129066729Y-74190424D01*
X129280013Y-74247573D01*
X129280023Y-74247575D01*
X129499999Y-74266821D01*
X129500001Y-74266821D01*
X129719976Y-74247575D01*
X129719986Y-74247573D01*
X129933270Y-74190424D01*
X129933284Y-74190419D01*
X130133407Y-74097100D01*
X130133417Y-74097094D01*
X130198188Y-74051741D01*
X129527448Y-73381000D01*
X129550160Y-73381000D01*
X129647061Y-73355036D01*
X129733940Y-73304876D01*
X129804876Y-73233940D01*
X129855036Y-73147061D01*
X129881000Y-73050160D01*
X129881000Y-73027447D01*
X130551741Y-73698188D01*
X130597094Y-73633417D01*
X130597097Y-73633412D01*
X130637340Y-73547110D01*
X130683512Y-73494670D01*
X130750705Y-73475517D01*
X130817587Y-73495732D01*
X130862105Y-73547108D01*
X130862106Y-73547110D01*
X130902464Y-73633658D01*
X130902466Y-73633661D01*
X130902468Y-73633666D01*
X130976079Y-73738793D01*
X131029174Y-73814620D01*
X131185380Y-73970826D01*
X131191619Y-73975194D01*
X131235246Y-74029768D01*
X131244500Y-74076772D01*
X131244500Y-77672185D01*
X131224815Y-77739224D01*
X131179518Y-77781239D01*
X131101380Y-77823525D01*
X131101365Y-77823535D01*
X130918222Y-77966081D01*
X130918218Y-77966085D01*
X130909866Y-77975158D01*
X130849979Y-78011148D01*
X130780141Y-78009047D01*
X130722525Y-77969522D01*
X130702455Y-77934507D01*
X130673797Y-77857671D01*
X130673793Y-77857664D01*
X130587547Y-77742455D01*
X130587544Y-77742452D01*
X130472335Y-77656206D01*
X130472328Y-77656202D01*
X130337482Y-77605908D01*
X130337483Y-77605908D01*
X130277883Y-77599501D01*
X130277881Y-77599500D01*
X130277873Y-77599500D01*
X130277864Y-77599500D01*
X128382129Y-77599500D01*
X128382123Y-77599501D01*
X128322516Y-77605908D01*
X128187671Y-77656202D01*
X128187664Y-77656206D01*
X128072455Y-77742452D01*
X128072452Y-77742455D01*
X127986206Y-77857664D01*
X127986202Y-77857671D01*
X127935908Y-77992517D01*
X127929501Y-78052116D01*
X127929500Y-78052135D01*
X127929500Y-78125500D01*
X127909815Y-78192539D01*
X127857011Y-78238294D01*
X127805500Y-78249500D01*
X127580274Y-78249500D01*
X127513235Y-78229815D01*
X127478700Y-78196624D01*
X127470828Y-78185382D01*
X127410946Y-78125500D01*
X127314620Y-78029174D01*
X127314616Y-78029171D01*
X127314615Y-78029170D01*
X127133666Y-77902468D01*
X127133662Y-77902466D01*
X127037583Y-77857664D01*
X126933450Y-77809106D01*
X126933447Y-77809105D01*
X126933445Y-77809104D01*
X126720070Y-77751930D01*
X126720062Y-77751929D01*
X126500002Y-77732677D01*
X126499998Y-77732677D01*
X126279937Y-77751929D01*
X126279929Y-77751930D01*
X126066554Y-77809104D01*
X126066548Y-77809107D01*
X125866340Y-77902465D01*
X125866338Y-77902466D01*
X125685377Y-78029175D01*
X125529175Y-78185377D01*
X125402466Y-78366338D01*
X125402465Y-78366340D01*
X125309107Y-78566548D01*
X125309104Y-78566554D01*
X125251930Y-78779929D01*
X125251929Y-78779937D01*
X125232677Y-78999997D01*
X125232677Y-79000002D01*
X125251929Y-79220062D01*
X125251930Y-79220070D01*
X125309104Y-79433445D01*
X125309105Y-79433447D01*
X125309106Y-79433450D01*
X125402346Y-79633405D01*
X125402466Y-79633662D01*
X125402468Y-79633666D01*
X125529170Y-79814615D01*
X125529175Y-79814621D01*
X125685378Y-79970824D01*
X125685384Y-79970829D01*
X125866333Y-80097531D01*
X125866335Y-80097532D01*
X125866338Y-80097534D01*
X126066550Y-80190894D01*
X126279932Y-80248070D01*
X126437123Y-80261822D01*
X126499998Y-80267323D01*
X126500000Y-80267323D01*
X126500002Y-80267323D01*
X126555017Y-80262509D01*
X126720068Y-80248070D01*
X126933450Y-80190894D01*
X127133662Y-80097534D01*
X127314620Y-79970826D01*
X127470826Y-79814620D01*
X127471603Y-79813509D01*
X127478700Y-79803376D01*
X127533277Y-79759751D01*
X127580274Y-79750500D01*
X127805501Y-79750500D01*
X127872540Y-79770185D01*
X127918295Y-79822989D01*
X127929501Y-79874500D01*
X127929501Y-79947876D01*
X127935908Y-80007483D01*
X127986202Y-80142328D01*
X127986206Y-80142335D01*
X128072452Y-80257544D01*
X128072455Y-80257547D01*
X128187664Y-80343793D01*
X128187671Y-80343797D01*
X128322517Y-80394091D01*
X128322516Y-80394091D01*
X128329444Y-80394835D01*
X128382127Y-80400500D01*
X130277872Y-80400499D01*
X130337483Y-80394091D01*
X130472331Y-80343796D01*
X130587546Y-80257546D01*
X130673796Y-80142331D01*
X130690505Y-80097533D01*
X130702455Y-80065493D01*
X130744326Y-80009559D01*
X130809790Y-79985141D01*
X130878063Y-79999992D01*
X130909866Y-80024843D01*
X130917302Y-80032920D01*
X130918215Y-80033912D01*
X130918222Y-80033918D01*
X131101365Y-80176464D01*
X131101371Y-80176468D01*
X131101374Y-80176470D01*
X131305497Y-80286936D01*
X131412549Y-80323687D01*
X131525015Y-80362297D01*
X131525017Y-80362297D01*
X131525019Y-80362298D01*
X131753951Y-80400500D01*
X131753952Y-80400500D01*
X131986048Y-80400500D01*
X131986049Y-80400500D01*
X132214981Y-80362298D01*
X132434503Y-80286936D01*
X132638626Y-80176470D01*
X132821784Y-80033913D01*
X132978979Y-79863153D01*
X133105924Y-79668849D01*
X133199157Y-79456300D01*
X133256134Y-79231305D01*
X133257073Y-79219976D01*
X133275300Y-79000006D01*
X133275300Y-78999993D01*
X133256135Y-78768702D01*
X133256133Y-78768691D01*
X133199157Y-78543699D01*
X133105924Y-78331151D01*
X132978983Y-78136852D01*
X132978980Y-78136849D01*
X132978979Y-78136847D01*
X132821784Y-77966087D01*
X132821779Y-77966083D01*
X132821777Y-77966081D01*
X132638634Y-77823535D01*
X132638619Y-77823525D01*
X132560482Y-77781239D01*
X132510891Y-77732020D01*
X132495500Y-77672185D01*
X132495500Y-74240955D01*
X132515185Y-74173916D01*
X132567093Y-74128574D01*
X132633662Y-74097534D01*
X132814620Y-73970826D01*
X132970826Y-73814620D01*
X133097534Y-73633662D01*
X133137618Y-73547700D01*
X133183790Y-73495261D01*
X133250983Y-73476109D01*
X133317864Y-73496324D01*
X133362382Y-73547701D01*
X133402464Y-73633658D01*
X133402468Y-73633666D01*
X133529170Y-73814615D01*
X133529175Y-73814621D01*
X133685378Y-73970824D01*
X133685384Y-73970829D01*
X133866333Y-74097531D01*
X133866335Y-74097532D01*
X133866338Y-74097534D01*
X134066550Y-74190894D01*
X134279932Y-74248070D01*
X134437123Y-74261822D01*
X134499998Y-74267323D01*
X134500000Y-74267323D01*
X134500002Y-74267323D01*
X134555017Y-74262509D01*
X134720068Y-74248070D01*
X134933450Y-74190894D01*
X135133662Y-74097534D01*
X135314620Y-73970826D01*
X135470826Y-73814620D01*
X135597534Y-73633662D01*
X135637618Y-73547700D01*
X135683790Y-73495261D01*
X135750983Y-73476109D01*
X135817864Y-73496324D01*
X135862382Y-73547701D01*
X135902464Y-73633658D01*
X135902468Y-73633666D01*
X136029170Y-73814615D01*
X136029175Y-73814621D01*
X136185378Y-73970824D01*
X136185384Y-73970829D01*
X136366333Y-74097531D01*
X136366335Y-74097532D01*
X136366338Y-74097534D01*
X136566550Y-74190894D01*
X136779932Y-74248070D01*
X136937123Y-74261822D01*
X136999998Y-74267323D01*
X137000000Y-74267323D01*
X137000002Y-74267323D01*
X137055017Y-74262509D01*
X137220068Y-74248070D01*
X137433450Y-74190894D01*
X137633662Y-74097534D01*
X137814620Y-73970826D01*
X137970826Y-73814620D01*
X138097534Y-73633662D01*
X138137618Y-73547700D01*
X138183790Y-73495261D01*
X138250983Y-73476109D01*
X138317864Y-73496324D01*
X138362382Y-73547701D01*
X138402464Y-73633658D01*
X138402468Y-73633666D01*
X138529170Y-73814615D01*
X138529175Y-73814621D01*
X138685378Y-73970824D01*
X138685384Y-73970829D01*
X138866333Y-74097531D01*
X138866335Y-74097532D01*
X138866338Y-74097534D01*
X139066550Y-74190894D01*
X139279932Y-74248070D01*
X139437123Y-74261822D01*
X139499998Y-74267323D01*
X139500000Y-74267323D01*
X139500002Y-74267323D01*
X139555017Y-74262509D01*
X139720068Y-74248070D01*
X139933450Y-74190894D01*
X140133662Y-74097534D01*
X140314620Y-73970826D01*
X140470826Y-73814620D01*
X140597534Y-73633662D01*
X140637618Y-73547700D01*
X140683790Y-73495261D01*
X140750983Y-73476109D01*
X140817864Y-73496324D01*
X140862382Y-73547701D01*
X140902464Y-73633658D01*
X140902468Y-73633666D01*
X141029170Y-73814615D01*
X141029175Y-73814621D01*
X141185378Y-73970824D01*
X141185384Y-73970829D01*
X141366333Y-74097531D01*
X141366335Y-74097532D01*
X141366338Y-74097534D01*
X141566550Y-74190894D01*
X141779932Y-74248070D01*
X141937123Y-74261822D01*
X141999998Y-74267323D01*
X142000000Y-74267323D01*
X142000002Y-74267323D01*
X142055017Y-74262509D01*
X142220068Y-74248070D01*
X142433450Y-74190894D01*
X142633662Y-74097534D01*
X142814620Y-73970826D01*
X142970826Y-73814620D01*
X143097534Y-73633662D01*
X143137618Y-73547700D01*
X143183790Y-73495261D01*
X143250983Y-73476109D01*
X143317864Y-73496324D01*
X143362382Y-73547701D01*
X143402464Y-73633658D01*
X143402468Y-73633666D01*
X143529170Y-73814615D01*
X143529175Y-73814621D01*
X143685378Y-73970824D01*
X143685384Y-73970829D01*
X143866333Y-74097531D01*
X143866335Y-74097532D01*
X143866338Y-74097534D01*
X144066550Y-74190894D01*
X144279932Y-74248070D01*
X144437123Y-74261822D01*
X144499998Y-74267323D01*
X144500000Y-74267323D01*
X144500002Y-74267323D01*
X144555017Y-74262509D01*
X144720068Y-74248070D01*
X144933450Y-74190894D01*
X145133662Y-74097534D01*
X145314620Y-73970826D01*
X145470826Y-73814620D01*
X145597534Y-73633662D01*
X145690894Y-73433450D01*
X145748070Y-73220068D01*
X145767323Y-73000000D01*
X145764770Y-72970824D01*
X145754457Y-72852939D01*
X145748070Y-72779932D01*
X145725203Y-72694592D01*
X145726866Y-72624744D01*
X145766028Y-72566881D01*
X145830256Y-72539377D01*
X145844978Y-72538500D01*
X146705022Y-72538500D01*
X146772061Y-72558185D01*
X146817816Y-72610989D01*
X146827760Y-72680147D01*
X146824798Y-72694585D01*
X146813054Y-72738415D01*
X146801930Y-72779930D01*
X146801929Y-72779937D01*
X146782677Y-72999997D01*
X146782677Y-73000000D01*
X146801929Y-73220062D01*
X146801930Y-73220070D01*
X146859104Y-73433445D01*
X146859105Y-73433447D01*
X146859106Y-73433450D01*
X146912382Y-73547701D01*
X146952466Y-73633662D01*
X146952468Y-73633666D01*
X147079170Y-73814615D01*
X147079175Y-73814621D01*
X147235378Y-73970824D01*
X147235384Y-73970829D01*
X147269633Y-73994810D01*
X147350937Y-74051740D01*
X147371623Y-74066224D01*
X147415248Y-74120801D01*
X147424500Y-74167799D01*
X147424500Y-76039547D01*
X147404815Y-76106586D01*
X147388181Y-76127228D01*
X135041621Y-88473787D01*
X134980298Y-88507272D01*
X134967825Y-88509326D01*
X134920750Y-88514630D01*
X134750478Y-88574210D01*
X134597737Y-88670184D01*
X134470184Y-88797737D01*
X134374211Y-88950476D01*
X134314631Y-89120745D01*
X134314630Y-89120750D01*
X134294435Y-89299996D01*
X134294435Y-89300003D01*
X134314630Y-89479249D01*
X134314631Y-89479254D01*
X134374211Y-89649523D01*
X134437045Y-89749522D01*
X134469138Y-89800598D01*
X134470186Y-89802265D01*
X134471501Y-89803914D01*
X134472017Y-89805180D01*
X134473889Y-89808158D01*
X134473367Y-89808485D01*
X134497908Y-89868601D01*
X134485150Y-89937296D01*
X134437278Y-89988189D01*
X134374552Y-90005224D01*
X128820042Y-90005224D01*
X128753003Y-89985539D01*
X128732361Y-89968905D01*
X128650792Y-89887336D01*
X128617307Y-89826013D01*
X128622291Y-89756321D01*
X128633479Y-89733683D01*
X128636610Y-89728700D01*
X128725789Y-89586773D01*
X128785368Y-89416506D01*
X128785369Y-89416500D01*
X128805565Y-89237254D01*
X128805565Y-89237247D01*
X128785369Y-89058001D01*
X128785368Y-89057996D01*
X128752941Y-88965326D01*
X128725789Y-88887729D01*
X128629816Y-88734989D01*
X128502262Y-88607435D01*
X128484950Y-88596557D01*
X128349521Y-88511461D01*
X128179249Y-88451881D01*
X128132174Y-88446577D01*
X128067760Y-88419510D01*
X128058378Y-88411038D01*
X127155677Y-87508338D01*
X127155674Y-87508334D01*
X127155674Y-87508335D01*
X127148607Y-87501268D01*
X127148607Y-87501267D01*
X127061482Y-87414142D01*
X127061481Y-87414141D01*
X127061480Y-87414140D01*
X127009637Y-87379500D01*
X126974744Y-87356185D01*
X126959035Y-87345688D01*
X126959032Y-87345686D01*
X126959029Y-87345685D01*
X126878541Y-87312347D01*
X126845202Y-87298537D01*
X126835176Y-87296543D01*
X126784778Y-87286518D01*
X126724359Y-87274500D01*
X126724356Y-87274500D01*
X126724355Y-87274500D01*
X123538394Y-87274500D01*
X123538391Y-87274500D01*
X123399499Y-87274500D01*
X123332460Y-87254815D01*
X123286705Y-87202011D01*
X123275499Y-87150500D01*
X123275499Y-86575596D01*
X123261011Y-86465536D01*
X123261009Y-86465531D01*
X123261009Y-86465528D01*
X123204279Y-86328571D01*
X123114036Y-86210964D01*
X122996429Y-86120721D01*
X122996425Y-86120719D01*
X122859472Y-86063991D01*
X122859470Y-86063990D01*
X122749401Y-86049500D01*
X122550596Y-86049500D01*
X122440531Y-86063989D01*
X122432678Y-86066094D01*
X122431802Y-86062824D01*
X122377853Y-86068567D01*
X122367477Y-86065518D01*
X122367323Y-86066095D01*
X122359470Y-86063990D01*
X122249401Y-86049500D01*
X122050596Y-86049500D01*
X121940529Y-86063989D01*
X121932681Y-86066093D01*
X121931856Y-86063015D01*
X121877229Y-86068842D01*
X121867355Y-86065989D01*
X121867197Y-86066582D01*
X121859346Y-86064478D01*
X121824744Y-86059923D01*
X121760848Y-86031656D01*
X121726371Y-85984439D01*
X121704312Y-85931183D01*
X121688066Y-85906870D01*
X121655353Y-85857911D01*
X121655353Y-85857910D01*
X121635858Y-85828735D01*
X121635853Y-85828729D01*
X121545637Y-85738513D01*
X121545606Y-85738484D01*
X120412730Y-84605608D01*
X120412710Y-84605586D01*
X120321265Y-84514141D01*
X120270041Y-84479915D01*
X120218819Y-84445689D01*
X120218818Y-84445688D01*
X120218815Y-84445686D01*
X120218812Y-84445685D01*
X120138324Y-84412347D01*
X120104986Y-84398538D01*
X120104987Y-84398538D01*
X120104984Y-84398537D01*
X120104980Y-84398536D01*
X120104976Y-84398535D01*
X119997969Y-84377250D01*
X119997968Y-84377250D01*
X119984143Y-84374500D01*
X119984139Y-84374500D01*
X119984138Y-84374500D01*
X111007741Y-84374500D01*
X111007721Y-84374499D01*
X111001607Y-84374499D01*
X110878394Y-84374499D01*
X110777597Y-84394548D01*
X110777592Y-84394548D01*
X110757549Y-84398536D01*
X110757547Y-84398536D01*
X110710397Y-84418067D01*
X110643719Y-84445685D01*
X110643717Y-84445686D01*
X110541266Y-84514141D01*
X110541263Y-84514144D01*
X110165646Y-84889762D01*
X110104323Y-84923247D01*
X110045872Y-84921856D01*
X109945413Y-84894938D01*
X109945403Y-84894936D01*
X109710001Y-84874341D01*
X109709999Y-84874341D01*
X109474596Y-84894936D01*
X109474586Y-84894938D01*
X109246344Y-84956094D01*
X109246335Y-84956098D01*
X109032171Y-85055964D01*
X109032169Y-85055965D01*
X108838597Y-85191505D01*
X108671505Y-85358597D01*
X108535965Y-85552169D01*
X108535964Y-85552171D01*
X108436098Y-85766335D01*
X108436094Y-85766344D01*
X108374938Y-85994586D01*
X108374936Y-85994596D01*
X108354341Y-86229999D01*
X108354341Y-86230000D01*
X108374936Y-86465403D01*
X108374938Y-86465413D01*
X108436094Y-86693655D01*
X108436096Y-86693659D01*
X108436097Y-86693663D01*
X108486193Y-86801093D01*
X108535965Y-86907830D01*
X108535967Y-86907834D01*
X108644281Y-87062521D01*
X108671505Y-87101401D01*
X108838599Y-87268495D01*
X108948840Y-87345687D01*
X108996031Y-87378730D01*
X109039656Y-87433307D01*
X109046850Y-87502805D01*
X109015327Y-87565160D01*
X108996032Y-87581880D01*
X108948627Y-87615073D01*
X108948626Y-87615073D01*
X109613250Y-88279697D01*
X109532447Y-88301349D01*
X109427554Y-88361909D01*
X109341909Y-88447554D01*
X109281349Y-88552447D01*
X109259697Y-88633250D01*
X108595073Y-87968626D01*
X108595073Y-87968627D01*
X108536400Y-88052421D01*
X108536399Y-88052423D01*
X108436570Y-88266507D01*
X108436566Y-88266516D01*
X108375432Y-88494673D01*
X108375430Y-88494684D01*
X108354843Y-88729998D01*
X108354843Y-88730001D01*
X108375430Y-88965315D01*
X108375432Y-88965326D01*
X108436566Y-89193483D01*
X108436570Y-89193492D01*
X108536398Y-89407576D01*
X108595073Y-89491372D01*
X109259697Y-88826748D01*
X109281349Y-88907553D01*
X109341909Y-89012446D01*
X109427554Y-89098091D01*
X109532447Y-89158651D01*
X109613249Y-89180302D01*
X108948626Y-89844926D01*
X109032417Y-89903598D01*
X109032421Y-89903600D01*
X109246507Y-90003429D01*
X109246516Y-90003433D01*
X109474673Y-90064567D01*
X109474684Y-90064569D01*
X109709998Y-90085157D01*
X109710002Y-90085157D01*
X109945315Y-90064569D01*
X109945326Y-90064567D01*
X110173483Y-90003433D01*
X110173492Y-90003430D01*
X110364080Y-89914557D01*
X110433157Y-89904065D01*
X110496941Y-89932585D01*
X110501708Y-89936988D01*
X110617664Y-90023793D01*
X110617671Y-90023797D01*
X110752517Y-90074091D01*
X110752516Y-90074091D01*
X110759444Y-90074835D01*
X110812127Y-90080500D01*
X111935547Y-90080499D01*
X112002586Y-90100184D01*
X112048341Y-90152987D01*
X112058285Y-90222146D01*
X112029260Y-90285702D01*
X112023228Y-90292180D01*
X111001269Y-91314140D01*
X110914144Y-91401264D01*
X110914138Y-91401272D01*
X110845690Y-91503708D01*
X110845688Y-91503713D01*
X110798540Y-91617538D01*
X110798537Y-91617546D01*
X110775272Y-91734517D01*
X110775268Y-91734536D01*
X110774500Y-91738393D01*
X110774500Y-101355145D01*
X110755494Y-101421117D01*
X110674211Y-101550476D01*
X110614631Y-101720745D01*
X110614630Y-101720750D01*
X110594435Y-101899996D01*
X110594435Y-101900003D01*
X110614630Y-102079249D01*
X110614631Y-102079254D01*
X110674211Y-102249523D01*
X110758259Y-102383284D01*
X110770184Y-102402262D01*
X110897738Y-102529816D01*
X111050478Y-102625789D01*
X111215507Y-102683535D01*
X111220745Y-102685368D01*
X111220750Y-102685369D01*
X111399996Y-102705565D01*
X111400000Y-102705565D01*
X111400004Y-102705565D01*
X111579249Y-102685369D01*
X111579252Y-102685368D01*
X111579255Y-102685368D01*
X111749522Y-102625789D01*
X111902262Y-102529816D01*
X112029816Y-102402262D01*
X112125789Y-102249522D01*
X112185368Y-102079255D01*
X112189888Y-102039139D01*
X112205565Y-101900003D01*
X112205565Y-101899996D01*
X112185369Y-101720750D01*
X112185368Y-101720745D01*
X112183729Y-101716060D01*
X112125789Y-101550478D01*
X112104577Y-101516720D01*
X112044506Y-101421117D01*
X112025500Y-101355145D01*
X112025500Y-92110452D01*
X112045185Y-92043413D01*
X112061819Y-92022771D01*
X117197772Y-86886819D01*
X117259095Y-86853334D01*
X117285453Y-86850500D01*
X118900500Y-86850500D01*
X118967539Y-86870185D01*
X119013294Y-86922989D01*
X119024500Y-86974500D01*
X119024500Y-87150500D01*
X119004815Y-87217539D01*
X118952011Y-87263294D01*
X118900500Y-87274500D01*
X118188649Y-87274500D01*
X118128231Y-87286518D01*
X118085003Y-87295116D01*
X118067806Y-87298537D01*
X117953976Y-87345687D01*
X117953967Y-87345692D01*
X117851528Y-87414140D01*
X117829467Y-87436202D01*
X117764402Y-87501267D01*
X117764399Y-87501270D01*
X115601270Y-89664399D01*
X115601267Y-89664402D01*
X115578186Y-89687483D01*
X115514140Y-89751528D01*
X115487393Y-89791560D01*
X115487391Y-89791563D01*
X115476120Y-89808431D01*
X115445688Y-89853974D01*
X115445686Y-89853976D01*
X115426623Y-89899999D01*
X115426624Y-89900000D01*
X115404128Y-89954312D01*
X115401970Y-89959521D01*
X115398536Y-89967809D01*
X115398535Y-89967814D01*
X115375156Y-90085354D01*
X115375156Y-90085358D01*
X115374500Y-90088652D01*
X115374500Y-95032201D01*
X115354815Y-95099240D01*
X115321623Y-95133776D01*
X115185377Y-95229175D01*
X115029175Y-95385377D01*
X114902466Y-95566338D01*
X114902465Y-95566340D01*
X114809107Y-95766548D01*
X114809104Y-95766554D01*
X114751930Y-95979929D01*
X114751929Y-95979937D01*
X114732677Y-96199997D01*
X114732677Y-96200002D01*
X114751929Y-96420062D01*
X114751930Y-96420070D01*
X114809104Y-96633445D01*
X114809105Y-96633447D01*
X114809106Y-96633450D01*
X114840570Y-96700924D01*
X114902466Y-96833662D01*
X114902468Y-96833666D01*
X115029170Y-97014615D01*
X115029175Y-97014621D01*
X115185378Y-97170824D01*
X115185384Y-97170829D01*
X115366333Y-97297531D01*
X115366335Y-97297532D01*
X115366338Y-97297534D01*
X115566550Y-97390894D01*
X115779932Y-97448070D01*
X116000000Y-97467323D01*
X116001727Y-97467171D01*
X116002480Y-97467323D01*
X116005414Y-97467323D01*
X116005414Y-97467912D01*
X116070225Y-97480929D01*
X116100228Y-97503017D01*
X118263181Y-99665970D01*
X118296666Y-99727293D01*
X118299500Y-99753651D01*
X118299500Y-100963691D01*
X118279815Y-101030730D01*
X118263181Y-101051372D01*
X118179175Y-101135377D01*
X118052466Y-101316338D01*
X118052465Y-101316340D01*
X117959107Y-101516548D01*
X117959104Y-101516554D01*
X117901930Y-101729929D01*
X117901929Y-101729937D01*
X117882677Y-101949997D01*
X117882677Y-101950002D01*
X117901929Y-102170062D01*
X117901930Y-102170070D01*
X117959104Y-102383445D01*
X117959105Y-102383447D01*
X117959106Y-102383450D01*
X118015770Y-102504966D01*
X118052466Y-102583662D01*
X118052468Y-102583666D01*
X118179170Y-102764615D01*
X118179175Y-102764621D01*
X118335378Y-102920824D01*
X118335384Y-102920829D01*
X118516333Y-103047531D01*
X118516335Y-103047532D01*
X118516338Y-103047534D01*
X118716550Y-103140894D01*
X118929932Y-103198070D01*
X119087123Y-103211822D01*
X119149998Y-103217323D01*
X119150000Y-103217323D01*
X119150002Y-103217323D01*
X119205017Y-103212509D01*
X119370068Y-103198070D01*
X119583450Y-103140894D01*
X119783662Y-103047534D01*
X119964620Y-102920826D01*
X120120826Y-102764620D01*
X120247534Y-102583662D01*
X120312346Y-102444671D01*
X120337042Y-102409403D01*
X120769000Y-101977445D01*
X120769000Y-102000160D01*
X120794964Y-102097061D01*
X120845124Y-102183940D01*
X120916060Y-102254876D01*
X121002939Y-102305036D01*
X121099840Y-102331000D01*
X121122553Y-102331000D01*
X120451810Y-103001740D01*
X120516590Y-103047099D01*
X120516592Y-103047100D01*
X120716715Y-103140419D01*
X120716729Y-103140424D01*
X120930013Y-103197573D01*
X120930023Y-103197575D01*
X121149999Y-103216821D01*
X121150001Y-103216821D01*
X121369976Y-103197575D01*
X121369986Y-103197573D01*
X121583270Y-103140424D01*
X121583284Y-103140419D01*
X121783407Y-103047100D01*
X121783417Y-103047094D01*
X121848188Y-103001741D01*
X121177448Y-102331000D01*
X121200160Y-102331000D01*
X121297061Y-102305036D01*
X121383940Y-102254876D01*
X121454876Y-102183940D01*
X121505036Y-102097061D01*
X121531000Y-102000160D01*
X121531000Y-101977447D01*
X122201741Y-102648188D01*
X122247094Y-102583417D01*
X122247100Y-102583407D01*
X122340419Y-102383284D01*
X122340424Y-102383270D01*
X122397573Y-102169986D01*
X122397575Y-102169976D01*
X122416821Y-101950000D01*
X122416821Y-101949999D01*
X122397575Y-101730023D01*
X122397573Y-101730013D01*
X122340424Y-101516729D01*
X122340420Y-101516720D01*
X122247096Y-101316586D01*
X122201741Y-101251811D01*
X122201740Y-101251810D01*
X121531000Y-101922551D01*
X121531000Y-101899840D01*
X121505036Y-101802939D01*
X121454876Y-101716060D01*
X121383940Y-101645124D01*
X121297061Y-101594964D01*
X121200160Y-101569000D01*
X121177447Y-101569000D01*
X121848188Y-100898258D01*
X121783411Y-100852901D01*
X121783405Y-100852898D01*
X121583284Y-100759580D01*
X121583270Y-100759575D01*
X121369986Y-100702426D01*
X121369976Y-100702424D01*
X121150001Y-100683179D01*
X121149999Y-100683179D01*
X120930023Y-100702424D01*
X120930013Y-100702426D01*
X120716729Y-100759575D01*
X120716720Y-100759579D01*
X120516590Y-100852901D01*
X120451811Y-100898258D01*
X121122554Y-101569000D01*
X121099840Y-101569000D01*
X121002939Y-101594964D01*
X120916060Y-101645124D01*
X120845124Y-101716060D01*
X120794964Y-101802939D01*
X120769000Y-101899840D01*
X120769000Y-101922553D01*
X120337043Y-101490596D01*
X120312342Y-101455320D01*
X120265863Y-101355646D01*
X120247534Y-101316339D01*
X120120826Y-101135380D01*
X120120824Y-101135377D01*
X120036819Y-101051372D01*
X120003334Y-100990049D01*
X120000500Y-100963691D01*
X120000500Y-100174500D01*
X120020185Y-100107461D01*
X120072989Y-100061706D01*
X120124500Y-100050500D01*
X124225500Y-100050500D01*
X124292539Y-100070185D01*
X124338294Y-100122989D01*
X124349500Y-100174500D01*
X124349500Y-100963691D01*
X124329815Y-101030730D01*
X124313181Y-101051372D01*
X124229175Y-101135377D01*
X124102466Y-101316338D01*
X124102465Y-101316340D01*
X124009107Y-101516548D01*
X124009104Y-101516554D01*
X123951930Y-101729929D01*
X123951929Y-101729937D01*
X123932677Y-101949997D01*
X123932677Y-101950002D01*
X123951929Y-102170062D01*
X123951930Y-102170070D01*
X124009104Y-102383445D01*
X124009105Y-102383447D01*
X124009106Y-102383450D01*
X124065770Y-102504966D01*
X124102466Y-102583662D01*
X124102468Y-102583666D01*
X124229170Y-102764615D01*
X124229175Y-102764621D01*
X124385378Y-102920824D01*
X124385384Y-102920829D01*
X124566333Y-103047531D01*
X124566335Y-103047532D01*
X124566338Y-103047534D01*
X124766550Y-103140894D01*
X124979932Y-103198070D01*
X125137123Y-103211822D01*
X125199998Y-103217323D01*
X125200000Y-103217323D01*
X125200002Y-103217323D01*
X125255017Y-103212509D01*
X125420068Y-103198070D01*
X125633450Y-103140894D01*
X125833662Y-103047534D01*
X126014620Y-102920826D01*
X126170826Y-102764620D01*
X126297534Y-102583662D01*
X126362346Y-102444671D01*
X126387042Y-102409403D01*
X126819000Y-101977445D01*
X126819000Y-102000160D01*
X126844964Y-102097061D01*
X126895124Y-102183940D01*
X126966060Y-102254876D01*
X127052939Y-102305036D01*
X127149840Y-102331000D01*
X127172553Y-102331000D01*
X126501810Y-103001740D01*
X126566590Y-103047099D01*
X126566592Y-103047100D01*
X126766715Y-103140419D01*
X126766729Y-103140424D01*
X126980013Y-103197573D01*
X126980023Y-103197575D01*
X127199999Y-103216821D01*
X127200001Y-103216821D01*
X127419976Y-103197575D01*
X127419986Y-103197573D01*
X127633270Y-103140424D01*
X127633284Y-103140419D01*
X127833407Y-103047100D01*
X127833417Y-103047094D01*
X127898188Y-103001741D01*
X127227448Y-102331000D01*
X127250160Y-102331000D01*
X127347061Y-102305036D01*
X127433940Y-102254876D01*
X127504876Y-102183940D01*
X127555036Y-102097061D01*
X127581000Y-102000160D01*
X127581000Y-101977447D01*
X128251741Y-102648188D01*
X128297094Y-102583417D01*
X128297100Y-102583407D01*
X128390419Y-102383284D01*
X128390424Y-102383270D01*
X128447573Y-102169986D01*
X128447575Y-102169976D01*
X128466821Y-101950000D01*
X128466821Y-101949999D01*
X128447575Y-101730023D01*
X128447573Y-101730013D01*
X128390424Y-101516729D01*
X128390420Y-101516720D01*
X128297096Y-101316586D01*
X128251741Y-101251811D01*
X128251740Y-101251810D01*
X127581000Y-101922551D01*
X127581000Y-101899840D01*
X127555036Y-101802939D01*
X127504876Y-101716060D01*
X127433940Y-101645124D01*
X127347061Y-101594964D01*
X127250160Y-101569000D01*
X127227447Y-101569000D01*
X127898188Y-100898258D01*
X127833411Y-100852901D01*
X127833405Y-100852898D01*
X127633284Y-100759580D01*
X127633270Y-100759575D01*
X127419986Y-100702426D01*
X127419976Y-100702424D01*
X127200001Y-100683179D01*
X127199999Y-100683179D01*
X126980023Y-100702424D01*
X126980013Y-100702426D01*
X126766729Y-100759575D01*
X126766720Y-100759579D01*
X126566590Y-100852901D01*
X126501811Y-100898258D01*
X127172554Y-101569000D01*
X127149840Y-101569000D01*
X127052939Y-101594964D01*
X126966060Y-101645124D01*
X126895124Y-101716060D01*
X126844964Y-101802939D01*
X126819000Y-101899840D01*
X126819000Y-101922553D01*
X126387043Y-101490596D01*
X126362342Y-101455320D01*
X126315863Y-101355646D01*
X126297534Y-101316339D01*
X126170826Y-101135380D01*
X126170824Y-101135377D01*
X126086819Y-101051372D01*
X126053334Y-100990049D01*
X126050500Y-100963691D01*
X126050500Y-100503650D01*
X126070185Y-100436611D01*
X126086819Y-100415969D01*
X126415969Y-100086819D01*
X126477292Y-100053334D01*
X126503650Y-100050500D01*
X128196349Y-100050500D01*
X128263388Y-100070185D01*
X128284030Y-100086819D01*
X129313181Y-101115970D01*
X129346666Y-101177293D01*
X129349500Y-101203651D01*
X129349500Y-116396348D01*
X129329815Y-116463387D01*
X129313181Y-116484029D01*
X127640396Y-118156814D01*
X126100227Y-119696982D01*
X126038904Y-119730467D01*
X126005413Y-119732595D01*
X126005413Y-119732677D01*
X126004132Y-119732677D01*
X126001740Y-119732829D01*
X126000002Y-119732677D01*
X125999998Y-119732677D01*
X125779937Y-119751929D01*
X125779929Y-119751930D01*
X125566554Y-119809104D01*
X125566548Y-119809107D01*
X125366340Y-119902465D01*
X125366338Y-119902466D01*
X125185377Y-120029175D01*
X125029175Y-120185377D01*
X124902466Y-120366338D01*
X124902465Y-120366340D01*
X124862382Y-120452299D01*
X124816209Y-120504738D01*
X124749016Y-120523890D01*
X124682135Y-120503674D01*
X124637618Y-120452299D01*
X124597651Y-120366590D01*
X124597534Y-120366339D01*
X124470826Y-120185380D01*
X124314620Y-120029174D01*
X124314616Y-120029171D01*
X124314615Y-120029170D01*
X124133666Y-119902468D01*
X124133662Y-119902466D01*
X124100242Y-119886882D01*
X123933450Y-119809106D01*
X123933447Y-119809105D01*
X123933445Y-119809104D01*
X123720070Y-119751930D01*
X123720062Y-119751929D01*
X123500002Y-119732677D01*
X123499998Y-119732677D01*
X123279937Y-119751929D01*
X123279929Y-119751930D01*
X123066554Y-119809104D01*
X123066548Y-119809107D01*
X122866340Y-119902465D01*
X122866338Y-119902466D01*
X122685377Y-120029175D01*
X122529175Y-120185377D01*
X122402466Y-120366338D01*
X122402465Y-120366340D01*
X122309107Y-120566548D01*
X122309104Y-120566554D01*
X122251930Y-120779929D01*
X122251929Y-120779937D01*
X122232677Y-120999997D01*
X122232677Y-121000002D01*
X122251929Y-121220062D01*
X122251930Y-121220070D01*
X122309104Y-121433445D01*
X122309105Y-121433447D01*
X122309106Y-121433450D01*
X122362382Y-121547701D01*
X122402466Y-121633662D01*
X122402468Y-121633666D01*
X122529170Y-121814615D01*
X122529175Y-121814621D01*
X122685378Y-121970824D01*
X122685384Y-121970829D01*
X122866333Y-122097531D01*
X122866335Y-122097532D01*
X122866338Y-122097534D01*
X123066550Y-122190894D01*
X123279932Y-122248070D01*
X123437123Y-122261822D01*
X123499998Y-122267323D01*
X123500000Y-122267323D01*
X123500002Y-122267323D01*
X123555414Y-122262475D01*
X123720068Y-122248070D01*
X123933450Y-122190894D01*
X124133662Y-122097534D01*
X124314620Y-121970826D01*
X124470826Y-121814620D01*
X124597534Y-121633662D01*
X124637618Y-121547700D01*
X124683790Y-121495261D01*
X124750983Y-121476109D01*
X124817864Y-121496324D01*
X124862382Y-121547701D01*
X124902464Y-121633658D01*
X124902468Y-121633666D01*
X125029170Y-121814615D01*
X125029175Y-121814621D01*
X125185378Y-121970824D01*
X125185384Y-121970829D01*
X125366333Y-122097531D01*
X125366335Y-122097532D01*
X125366338Y-122097534D01*
X125566550Y-122190894D01*
X125779932Y-122248070D01*
X125937123Y-122261822D01*
X125999998Y-122267323D01*
X126000000Y-122267323D01*
X126000002Y-122267323D01*
X126055414Y-122262475D01*
X126220068Y-122248070D01*
X126433450Y-122190894D01*
X126633662Y-122097534D01*
X126814620Y-121970826D01*
X126970826Y-121814620D01*
X127097534Y-121633662D01*
X127137618Y-121547700D01*
X127183790Y-121495261D01*
X127250983Y-121476109D01*
X127317864Y-121496324D01*
X127362382Y-121547701D01*
X127402464Y-121633658D01*
X127402468Y-121633666D01*
X127529170Y-121814615D01*
X127529175Y-121814621D01*
X127685378Y-121970824D01*
X127685384Y-121970829D01*
X127866333Y-122097531D01*
X127866335Y-122097532D01*
X127866338Y-122097534D01*
X128066550Y-122190894D01*
X128279932Y-122248070D01*
X128437123Y-122261822D01*
X128499998Y-122267323D01*
X128500000Y-122267323D01*
X128500002Y-122267323D01*
X128555414Y-122262475D01*
X128720068Y-122248070D01*
X128933450Y-122190894D01*
X129133662Y-122097534D01*
X129314620Y-121970826D01*
X129470826Y-121814620D01*
X129597534Y-121633662D01*
X129690894Y-121433450D01*
X129748070Y-121220068D01*
X129767323Y-121000000D01*
X129767279Y-120999500D01*
X129748070Y-120779937D01*
X129748070Y-120779932D01*
X129690894Y-120566550D01*
X129597534Y-120366339D01*
X129470826Y-120185380D01*
X129314620Y-120029174D01*
X129314616Y-120029171D01*
X129314615Y-120029170D01*
X129133666Y-119902468D01*
X129133658Y-119902464D01*
X129100242Y-119886882D01*
X129047802Y-119840710D01*
X129028650Y-119773517D01*
X129048865Y-119706635D01*
X129102031Y-119661301D01*
X129152646Y-119650500D01*
X131347355Y-119650500D01*
X131414394Y-119670185D01*
X131460149Y-119722989D01*
X131470093Y-119792147D01*
X131441068Y-119855703D01*
X131399759Y-119886882D01*
X131366344Y-119902463D01*
X131366338Y-119902466D01*
X131185377Y-120029175D01*
X131029175Y-120185377D01*
X130902466Y-120366338D01*
X130902465Y-120366340D01*
X130809107Y-120566548D01*
X130809104Y-120566554D01*
X130751930Y-120779929D01*
X130751929Y-120779937D01*
X130732677Y-120999997D01*
X130732677Y-121000002D01*
X130751929Y-121220062D01*
X130751930Y-121220070D01*
X130809104Y-121433445D01*
X130809105Y-121433447D01*
X130809106Y-121433450D01*
X130862382Y-121547701D01*
X130902466Y-121633662D01*
X130902468Y-121633666D01*
X131029170Y-121814615D01*
X131029175Y-121814621D01*
X131185378Y-121970824D01*
X131185384Y-121970829D01*
X131366333Y-122097531D01*
X131366335Y-122097532D01*
X131366338Y-122097534D01*
X131566550Y-122190894D01*
X131779932Y-122248070D01*
X131937123Y-122261822D01*
X131999998Y-122267323D01*
X132000000Y-122267323D01*
X132000002Y-122267323D01*
X132055414Y-122262475D01*
X132220068Y-122248070D01*
X132433450Y-122190894D01*
X132633662Y-122097534D01*
X132814620Y-121970826D01*
X132970826Y-121814620D01*
X133097534Y-121633662D01*
X133137618Y-121547700D01*
X133183790Y-121495261D01*
X133250983Y-121476109D01*
X133317864Y-121496324D01*
X133362382Y-121547701D01*
X133402464Y-121633658D01*
X133402468Y-121633666D01*
X133529170Y-121814615D01*
X133529175Y-121814621D01*
X133685378Y-121970824D01*
X133685384Y-121970829D01*
X133866333Y-122097531D01*
X133866335Y-122097532D01*
X133866338Y-122097534D01*
X134066550Y-122190894D01*
X134279932Y-122248070D01*
X134437123Y-122261822D01*
X134499998Y-122267323D01*
X134500000Y-122267323D01*
X134500002Y-122267323D01*
X134555414Y-122262475D01*
X134720068Y-122248070D01*
X134933450Y-122190894D01*
X135133662Y-122097534D01*
X135314620Y-121970826D01*
X135470826Y-121814620D01*
X135597534Y-121633662D01*
X135637618Y-121547700D01*
X135683790Y-121495261D01*
X135750983Y-121476109D01*
X135817864Y-121496324D01*
X135862382Y-121547701D01*
X135902464Y-121633658D01*
X135902468Y-121633666D01*
X136029170Y-121814615D01*
X136029175Y-121814621D01*
X136185378Y-121970824D01*
X136185384Y-121970829D01*
X136366333Y-122097531D01*
X136366335Y-122097532D01*
X136366338Y-122097534D01*
X136566550Y-122190894D01*
X136779932Y-122248070D01*
X136937123Y-122261822D01*
X136999998Y-122267323D01*
X137000000Y-122267323D01*
X137000002Y-122267323D01*
X137055414Y-122262475D01*
X137220068Y-122248070D01*
X137433450Y-122190894D01*
X137633662Y-122097534D01*
X137814620Y-121970826D01*
X137970826Y-121814620D01*
X138097534Y-121633662D01*
X138137618Y-121547700D01*
X138183790Y-121495261D01*
X138250983Y-121476109D01*
X138317864Y-121496324D01*
X138362382Y-121547701D01*
X138402464Y-121633658D01*
X138402468Y-121633666D01*
X138529170Y-121814615D01*
X138529175Y-121814621D01*
X138685378Y-121970824D01*
X138685384Y-121970829D01*
X138866333Y-122097531D01*
X138866335Y-122097532D01*
X138866338Y-122097534D01*
X139066550Y-122190894D01*
X139279932Y-122248070D01*
X139437123Y-122261822D01*
X139499998Y-122267323D01*
X139500000Y-122267323D01*
X139500002Y-122267323D01*
X139555414Y-122262475D01*
X139720068Y-122248070D01*
X139933450Y-122190894D01*
X140133662Y-122097534D01*
X140314620Y-121970826D01*
X140470826Y-121814620D01*
X140597534Y-121633662D01*
X140637618Y-121547700D01*
X140683790Y-121495261D01*
X140750983Y-121476109D01*
X140817864Y-121496324D01*
X140862382Y-121547701D01*
X140902464Y-121633658D01*
X140902468Y-121633666D01*
X141029170Y-121814615D01*
X141029175Y-121814621D01*
X141185378Y-121970824D01*
X141185384Y-121970829D01*
X141366333Y-122097531D01*
X141366335Y-122097532D01*
X141366338Y-122097534D01*
X141566550Y-122190894D01*
X141779932Y-122248070D01*
X141937123Y-122261822D01*
X141999998Y-122267323D01*
X142000000Y-122267323D01*
X142000002Y-122267323D01*
X142055414Y-122262475D01*
X142220068Y-122248070D01*
X142433450Y-122190894D01*
X142633662Y-122097534D01*
X142814620Y-121970826D01*
X142970826Y-121814620D01*
X143097534Y-121633662D01*
X143137894Y-121547108D01*
X143184066Y-121494669D01*
X143251259Y-121475517D01*
X143318140Y-121495732D01*
X143362658Y-121547109D01*
X143402898Y-121633405D01*
X143402901Y-121633411D01*
X143448258Y-121698187D01*
X143448258Y-121698188D01*
X144119000Y-121027446D01*
X144119000Y-121050160D01*
X144144964Y-121147061D01*
X144195124Y-121233940D01*
X144266060Y-121304876D01*
X144352939Y-121355036D01*
X144449840Y-121381000D01*
X144472553Y-121381000D01*
X143801810Y-122051740D01*
X143866590Y-122097099D01*
X143866592Y-122097100D01*
X144066715Y-122190419D01*
X144066729Y-122190424D01*
X144280013Y-122247573D01*
X144280023Y-122247575D01*
X144499999Y-122266821D01*
X144500001Y-122266821D01*
X144719976Y-122247575D01*
X144719986Y-122247573D01*
X144933270Y-122190424D01*
X144933284Y-122190419D01*
X145133407Y-122097100D01*
X145133417Y-122097094D01*
X145198188Y-122051741D01*
X144527448Y-121381000D01*
X144550160Y-121381000D01*
X144647061Y-121355036D01*
X144733940Y-121304876D01*
X144804876Y-121233940D01*
X144855036Y-121147061D01*
X144881000Y-121050160D01*
X144881000Y-121027447D01*
X145551741Y-121698188D01*
X145597094Y-121633417D01*
X145597100Y-121633407D01*
X145637618Y-121546517D01*
X145683790Y-121494077D01*
X145750983Y-121474925D01*
X145817864Y-121495140D01*
X145862382Y-121546517D01*
X145902898Y-121633405D01*
X145902901Y-121633411D01*
X145948258Y-121698187D01*
X145948258Y-121698188D01*
X146619000Y-121027446D01*
X146619000Y-121050160D01*
X146644964Y-121147061D01*
X146695124Y-121233940D01*
X146766060Y-121304876D01*
X146852939Y-121355036D01*
X146949840Y-121381000D01*
X146972553Y-121381000D01*
X146301810Y-122051740D01*
X146366590Y-122097099D01*
X146366592Y-122097100D01*
X146566715Y-122190419D01*
X146566729Y-122190424D01*
X146780013Y-122247573D01*
X146780023Y-122247575D01*
X146999999Y-122266821D01*
X147000001Y-122266821D01*
X147219976Y-122247575D01*
X147219986Y-122247573D01*
X147433270Y-122190424D01*
X147433284Y-122190419D01*
X147633407Y-122097100D01*
X147633417Y-122097094D01*
X147698188Y-122051741D01*
X147027448Y-121381000D01*
X147050160Y-121381000D01*
X147147061Y-121355036D01*
X147233940Y-121304876D01*
X147304876Y-121233940D01*
X147355036Y-121147061D01*
X147381000Y-121050160D01*
X147381000Y-121027447D01*
X148051741Y-121698188D01*
X148097094Y-121633417D01*
X148097097Y-121633412D01*
X148137340Y-121547110D01*
X148183512Y-121494670D01*
X148250705Y-121475517D01*
X148317587Y-121495732D01*
X148362105Y-121547108D01*
X148362106Y-121547110D01*
X148402464Y-121633658D01*
X148402466Y-121633661D01*
X148402468Y-121633666D01*
X148529170Y-121814615D01*
X148529175Y-121814621D01*
X148685378Y-121970824D01*
X148685384Y-121970829D01*
X148866333Y-122097531D01*
X148866335Y-122097532D01*
X148866338Y-122097534D01*
X149066550Y-122190894D01*
X149279932Y-122248070D01*
X149437123Y-122261822D01*
X149499998Y-122267323D01*
X149500000Y-122267323D01*
X149500002Y-122267323D01*
X149555414Y-122262475D01*
X149720068Y-122248070D01*
X149933450Y-122190894D01*
X150133662Y-122097534D01*
X150314620Y-121970826D01*
X150470826Y-121814620D01*
X150597534Y-121633662D01*
X150690894Y-121433450D01*
X150748070Y-121220068D01*
X150767323Y-121000000D01*
X150767279Y-120999500D01*
X150748070Y-120779937D01*
X150748070Y-120779932D01*
X150690894Y-120566550D01*
X150597534Y-120366339D01*
X150470826Y-120185380D01*
X150314620Y-120029174D01*
X150314616Y-120029171D01*
X150314615Y-120029170D01*
X150133666Y-119902468D01*
X150133662Y-119902466D01*
X150100242Y-119886882D01*
X149933450Y-119809106D01*
X149933447Y-119809105D01*
X149933445Y-119809104D01*
X149720070Y-119751930D01*
X149720062Y-119751929D01*
X149500002Y-119732677D01*
X149499998Y-119732677D01*
X149279937Y-119751929D01*
X149279929Y-119751930D01*
X149066554Y-119809104D01*
X149066548Y-119809107D01*
X148866340Y-119902465D01*
X148866338Y-119902466D01*
X148685377Y-120029175D01*
X148529175Y-120185377D01*
X148402466Y-120366338D01*
X148402462Y-120366345D01*
X148362104Y-120452892D01*
X148315931Y-120505331D01*
X148248738Y-120524482D01*
X148181857Y-120504265D01*
X148137341Y-120452890D01*
X148097098Y-120366589D01*
X148097097Y-120366587D01*
X148051741Y-120301811D01*
X148051740Y-120301810D01*
X147381000Y-120972551D01*
X147381000Y-120949840D01*
X147355036Y-120852939D01*
X147304876Y-120766060D01*
X147233940Y-120695124D01*
X147147061Y-120644964D01*
X147050160Y-120619000D01*
X147027447Y-120619000D01*
X147698188Y-119948258D01*
X147633411Y-119902901D01*
X147633405Y-119902898D01*
X147433284Y-119809580D01*
X147433270Y-119809575D01*
X147219986Y-119752426D01*
X147219976Y-119752424D01*
X147000001Y-119733179D01*
X146999999Y-119733179D01*
X146780023Y-119752424D01*
X146780013Y-119752426D01*
X146566729Y-119809575D01*
X146566720Y-119809579D01*
X146366590Y-119902901D01*
X146301811Y-119948258D01*
X146972554Y-120619000D01*
X146949840Y-120619000D01*
X146852939Y-120644964D01*
X146766060Y-120695124D01*
X146695124Y-120766060D01*
X146644964Y-120852939D01*
X146619000Y-120949840D01*
X146619000Y-120972553D01*
X145948258Y-120301811D01*
X145902901Y-120366590D01*
X145862382Y-120453483D01*
X145816209Y-120505922D01*
X145749016Y-120525074D01*
X145682135Y-120504858D01*
X145637618Y-120453483D01*
X145597096Y-120366586D01*
X145551741Y-120301811D01*
X145551740Y-120301810D01*
X144881000Y-120972551D01*
X144881000Y-120949840D01*
X144855036Y-120852939D01*
X144804876Y-120766060D01*
X144733940Y-120695124D01*
X144647061Y-120644964D01*
X144550160Y-120619000D01*
X144527447Y-120619000D01*
X145198188Y-119948258D01*
X145133411Y-119902901D01*
X145133405Y-119902898D01*
X144933284Y-119809580D01*
X144933270Y-119809575D01*
X144719986Y-119752426D01*
X144719976Y-119752424D01*
X144500001Y-119733179D01*
X144499999Y-119733179D01*
X144280023Y-119752424D01*
X144280013Y-119752426D01*
X144066729Y-119809575D01*
X144066720Y-119809579D01*
X143866590Y-119902901D01*
X143801811Y-119948258D01*
X144472554Y-120619000D01*
X144449840Y-120619000D01*
X144352939Y-120644964D01*
X144266060Y-120695124D01*
X144195124Y-120766060D01*
X144144964Y-120852939D01*
X144119000Y-120949840D01*
X144119000Y-120972553D01*
X143448258Y-120301811D01*
X143402901Y-120366590D01*
X143362658Y-120452891D01*
X143316485Y-120505330D01*
X143249292Y-120524482D01*
X143182411Y-120504266D01*
X143137894Y-120452891D01*
X143097651Y-120366590D01*
X143097534Y-120366339D01*
X142970826Y-120185380D01*
X142814620Y-120029174D01*
X142814616Y-120029171D01*
X142814615Y-120029170D01*
X142633666Y-119902468D01*
X142633662Y-119902466D01*
X142600242Y-119886882D01*
X142433450Y-119809106D01*
X142433447Y-119809105D01*
X142433445Y-119809104D01*
X142220070Y-119751930D01*
X142220062Y-119751929D01*
X142000002Y-119732677D01*
X141999993Y-119732677D01*
X141998255Y-119732829D01*
X141997499Y-119732677D01*
X141994587Y-119732677D01*
X141994587Y-119732091D01*
X141929756Y-119719061D01*
X141899771Y-119696982D01*
X141005469Y-118802680D01*
X140971984Y-118741357D01*
X140976968Y-118671665D01*
X141005469Y-118627318D01*
X143030754Y-116602033D01*
X145074695Y-114558091D01*
X145136016Y-114524608D01*
X145173178Y-114522246D01*
X145210000Y-114525468D01*
X145436692Y-114505635D01*
X145656496Y-114446739D01*
X145862734Y-114350568D01*
X146049139Y-114220047D01*
X146162368Y-114106817D01*
X146223689Y-114073334D01*
X146250048Y-114070500D01*
X146709952Y-114070500D01*
X146776991Y-114090185D01*
X146797628Y-114106814D01*
X146873180Y-114182366D01*
X146910862Y-114220048D01*
X146996621Y-114280096D01*
X147097266Y-114350568D01*
X147303504Y-114446739D01*
X147303509Y-114446740D01*
X147303511Y-114446741D01*
X147356415Y-114460916D01*
X147523308Y-114505635D01*
X147685230Y-114519801D01*
X147749998Y-114525468D01*
X147750000Y-114525468D01*
X147750002Y-114525468D01*
X147806673Y-114520509D01*
X147976692Y-114505635D01*
X148196496Y-114446739D01*
X148402734Y-114350568D01*
X148589139Y-114220047D01*
X148750047Y-114059139D01*
X148880568Y-113872734D01*
X148907895Y-113814129D01*
X148954064Y-113761695D01*
X149021257Y-113742542D01*
X149088139Y-113762757D01*
X149132657Y-113814133D01*
X149159865Y-113872482D01*
X149290342Y-114058820D01*
X149451179Y-114219657D01*
X149637517Y-114350134D01*
X149843673Y-114446265D01*
X149843682Y-114446269D01*
X150039999Y-114498872D01*
X150040000Y-114498871D01*
X150040000Y-113535686D01*
X150044394Y-113540080D01*
X150135606Y-113592741D01*
X150237339Y-113620000D01*
X150342661Y-113620000D01*
X150444394Y-113592741D01*
X150535606Y-113540080D01*
X150540000Y-113535686D01*
X150540000Y-114498871D01*
X150718406Y-114451068D01*
X150788256Y-114452731D01*
X150846119Y-114491893D01*
X150873623Y-114556122D01*
X150874500Y-114570843D01*
X150874500Y-114755145D01*
X150855494Y-114821117D01*
X150774211Y-114950476D01*
X150714631Y-115120745D01*
X150714630Y-115120750D01*
X150694435Y-115299996D01*
X150694435Y-115300003D01*
X150714630Y-115479249D01*
X150714631Y-115479254D01*
X150774211Y-115649523D01*
X150780337Y-115659272D01*
X150870184Y-115802262D01*
X150997738Y-115929816D01*
X151150478Y-116025789D01*
X151320745Y-116085368D01*
X151320750Y-116085369D01*
X151499996Y-116105565D01*
X151500000Y-116105565D01*
X151500004Y-116105565D01*
X151679249Y-116085369D01*
X151679252Y-116085368D01*
X151679255Y-116085368D01*
X151849522Y-116025789D01*
X152002262Y-115929816D01*
X152037819Y-115894259D01*
X152099142Y-115860774D01*
X152168834Y-115865758D01*
X152224767Y-115907630D01*
X152249184Y-115973094D01*
X152249500Y-115981940D01*
X152249500Y-119919726D01*
X152229815Y-119986765D01*
X152196625Y-120021299D01*
X152185389Y-120029166D01*
X152185382Y-120029172D01*
X152029172Y-120185381D01*
X151902466Y-120366338D01*
X151902465Y-120366340D01*
X151809107Y-120566548D01*
X151809104Y-120566554D01*
X151751930Y-120779929D01*
X151751929Y-120779937D01*
X151732677Y-120999997D01*
X151732677Y-121000002D01*
X151751929Y-121220062D01*
X151751930Y-121220070D01*
X151809104Y-121433445D01*
X151809105Y-121433447D01*
X151809106Y-121433450D01*
X151862382Y-121547701D01*
X151902466Y-121633662D01*
X151902468Y-121633666D01*
X152029170Y-121814615D01*
X152029175Y-121814621D01*
X152185378Y-121970824D01*
X152185384Y-121970829D01*
X152366333Y-122097531D01*
X152366335Y-122097532D01*
X152366338Y-122097534D01*
X152566550Y-122190894D01*
X152779932Y-122248070D01*
X152937123Y-122261822D01*
X152999998Y-122267323D01*
X153000000Y-122267323D01*
X153000002Y-122267323D01*
X153055414Y-122262475D01*
X153220068Y-122248070D01*
X153433450Y-122190894D01*
X153633662Y-122097534D01*
X153814620Y-121970826D01*
X153970826Y-121814620D01*
X154097534Y-121633662D01*
X154137618Y-121547700D01*
X154183790Y-121495261D01*
X154250983Y-121476109D01*
X154317864Y-121496324D01*
X154362382Y-121547701D01*
X154402464Y-121633658D01*
X154402468Y-121633666D01*
X154529170Y-121814615D01*
X154529175Y-121814621D01*
X154685378Y-121970824D01*
X154685384Y-121970829D01*
X154866333Y-122097531D01*
X154866335Y-122097532D01*
X154866338Y-122097534D01*
X155066550Y-122190894D01*
X155279932Y-122248070D01*
X155437123Y-122261822D01*
X155499998Y-122267323D01*
X155500000Y-122267323D01*
X155500002Y-122267323D01*
X155555414Y-122262475D01*
X155720068Y-122248070D01*
X155933450Y-122190894D01*
X156133662Y-122097534D01*
X156314620Y-121970826D01*
X156470826Y-121814620D01*
X156597534Y-121633662D01*
X156637618Y-121547700D01*
X156683790Y-121495261D01*
X156750983Y-121476109D01*
X156817864Y-121496324D01*
X156862382Y-121547701D01*
X156902464Y-121633658D01*
X156902468Y-121633666D01*
X157029170Y-121814615D01*
X157029175Y-121814621D01*
X157185378Y-121970824D01*
X157185384Y-121970829D01*
X157366333Y-122097531D01*
X157366335Y-122097532D01*
X157366338Y-122097534D01*
X157566550Y-122190894D01*
X157779932Y-122248070D01*
X157937123Y-122261822D01*
X157999998Y-122267323D01*
X158000000Y-122267323D01*
X158000002Y-122267323D01*
X158055414Y-122262475D01*
X158220068Y-122248070D01*
X158433450Y-122190894D01*
X158633662Y-122097534D01*
X158814620Y-121970826D01*
X158970826Y-121814620D01*
X159097534Y-121633662D01*
X159137618Y-121547700D01*
X159183790Y-121495261D01*
X159250983Y-121476109D01*
X159317864Y-121496324D01*
X159362382Y-121547701D01*
X159402464Y-121633658D01*
X159402468Y-121633666D01*
X159529170Y-121814615D01*
X159529175Y-121814621D01*
X159685378Y-121970824D01*
X159685384Y-121970829D01*
X159866333Y-122097531D01*
X159866335Y-122097532D01*
X159866338Y-122097534D01*
X160066550Y-122190894D01*
X160279932Y-122248070D01*
X160437123Y-122261822D01*
X160499998Y-122267323D01*
X160500000Y-122267323D01*
X160500002Y-122267323D01*
X160555414Y-122262475D01*
X160720068Y-122248070D01*
X160933450Y-122190894D01*
X161133662Y-122097534D01*
X161314620Y-121970826D01*
X161470826Y-121814620D01*
X161597534Y-121633662D01*
X161637618Y-121547700D01*
X161683790Y-121495261D01*
X161750983Y-121476109D01*
X161817864Y-121496324D01*
X161862382Y-121547701D01*
X161902464Y-121633658D01*
X161902468Y-121633666D01*
X162029170Y-121814615D01*
X162029175Y-121814621D01*
X162185378Y-121970824D01*
X162185384Y-121970829D01*
X162366333Y-122097531D01*
X162366335Y-122097532D01*
X162366338Y-122097534D01*
X162566550Y-122190894D01*
X162779932Y-122248070D01*
X162937123Y-122261822D01*
X162999998Y-122267323D01*
X163000000Y-122267323D01*
X163000002Y-122267323D01*
X163055414Y-122262475D01*
X163220068Y-122248070D01*
X163433450Y-122190894D01*
X163633662Y-122097534D01*
X163814620Y-121970826D01*
X163970826Y-121814620D01*
X164097534Y-121633662D01*
X164137618Y-121547700D01*
X164183790Y-121495261D01*
X164250983Y-121476109D01*
X164317864Y-121496324D01*
X164362382Y-121547701D01*
X164402464Y-121633658D01*
X164402468Y-121633666D01*
X164529170Y-121814615D01*
X164529175Y-121814621D01*
X164685378Y-121970824D01*
X164685384Y-121970829D01*
X164866333Y-122097531D01*
X164866335Y-122097532D01*
X164866338Y-122097534D01*
X165066550Y-122190894D01*
X165279932Y-122248070D01*
X165437123Y-122261822D01*
X165499998Y-122267323D01*
X165500000Y-122267323D01*
X165500002Y-122267323D01*
X165555414Y-122262475D01*
X165720068Y-122248070D01*
X165933450Y-122190894D01*
X166133662Y-122097534D01*
X166314620Y-121970826D01*
X166470826Y-121814620D01*
X166597534Y-121633662D01*
X166690894Y-121433450D01*
X166748070Y-121220068D01*
X166767323Y-121000000D01*
X166767279Y-120999500D01*
X166748070Y-120779937D01*
X166748070Y-120779932D01*
X166690894Y-120566550D01*
X166597534Y-120366339D01*
X166470826Y-120185380D01*
X166314620Y-120029174D01*
X166314616Y-120029171D01*
X166314610Y-120029166D01*
X166303375Y-120021299D01*
X166259751Y-119966722D01*
X166250500Y-119919726D01*
X166250500Y-116461368D01*
X166269893Y-116395320D01*
X166253416Y-116365365D01*
X166250500Y-116338631D01*
X166250500Y-114367668D01*
X166270185Y-114300629D01*
X166303375Y-114266094D01*
X166369139Y-114220047D01*
X166530047Y-114059139D01*
X166660568Y-113872734D01*
X166756739Y-113666496D01*
X166815635Y-113446692D01*
X166835468Y-113220000D01*
X166815635Y-112993308D01*
X166797318Y-112924947D01*
X166798981Y-112855101D01*
X166829410Y-112805178D01*
X170387821Y-109246768D01*
X170449142Y-109213285D01*
X170518834Y-109218269D01*
X170574767Y-109260141D01*
X170599184Y-109325605D01*
X170599500Y-109334451D01*
X170599500Y-115199555D01*
X170579815Y-115266594D01*
X170527011Y-115312349D01*
X170457853Y-115322293D01*
X170394297Y-115293268D01*
X170374196Y-115271063D01*
X170233191Y-115071304D01*
X170183632Y-115018240D01*
X170037053Y-114861292D01*
X169858194Y-114715780D01*
X169814146Y-114679944D01*
X169568617Y-114530634D01*
X169305063Y-114416158D01*
X169305061Y-114416157D01*
X169305058Y-114416156D01*
X169175578Y-114379877D01*
X169028364Y-114338630D01*
X169028359Y-114338629D01*
X169028358Y-114338629D01*
X168886018Y-114319064D01*
X168743679Y-114299500D01*
X168743678Y-114299500D01*
X168456322Y-114299500D01*
X168456321Y-114299500D01*
X168171642Y-114338629D01*
X168171635Y-114338630D01*
X167963861Y-114396845D01*
X167894942Y-114416156D01*
X167894939Y-114416156D01*
X167894936Y-114416158D01*
X167894935Y-114416158D01*
X167631382Y-114530634D01*
X167385853Y-114679944D01*
X167162950Y-114861289D01*
X166966812Y-115071299D01*
X166801098Y-115306064D01*
X166668894Y-115561206D01*
X166572667Y-115831962D01*
X166572666Y-115831965D01*
X166514201Y-116113319D01*
X166498211Y-116347093D01*
X166477870Y-116402148D01*
X166493477Y-116426433D01*
X166498211Y-116452906D01*
X166514201Y-116686680D01*
X166514201Y-116686684D01*
X166514202Y-116686686D01*
X166528008Y-116753124D01*
X166572666Y-116968034D01*
X166572667Y-116968037D01*
X166668894Y-117238793D01*
X166668893Y-117238793D01*
X166801098Y-117493935D01*
X166966812Y-117728700D01*
X166975329Y-117737819D01*
X167162947Y-117938708D01*
X167385853Y-118120055D01*
X167491117Y-118184068D01*
X167631382Y-118269365D01*
X167799756Y-118342499D01*
X167894942Y-118383844D01*
X168171642Y-118461371D01*
X168421920Y-118495771D01*
X168456321Y-118500500D01*
X168456322Y-118500500D01*
X168743679Y-118500500D01*
X168775355Y-118496146D01*
X169028358Y-118461371D01*
X169305058Y-118383844D01*
X169424187Y-118332099D01*
X169568617Y-118269365D01*
X169568620Y-118269363D01*
X169568625Y-118269361D01*
X169814147Y-118120055D01*
X170037053Y-117938708D01*
X170233189Y-117728698D01*
X170374196Y-117528935D01*
X170428937Y-117485518D01*
X170498462Y-117478589D01*
X170560697Y-117510347D01*
X170595882Y-117570711D01*
X170599500Y-117600444D01*
X170599500Y-118141324D01*
X170579815Y-118208363D01*
X170563181Y-118229005D01*
X167699502Y-121092683D01*
X167699500Y-121092686D01*
X167633608Y-121206812D01*
X167599500Y-121334108D01*
X167599500Y-122775500D01*
X167579815Y-122842539D01*
X167527011Y-122888294D01*
X167475500Y-122899500D01*
X119297182Y-122899500D01*
X119230143Y-122879815D01*
X119184388Y-122827011D01*
X119174444Y-122757853D01*
X119203469Y-122694297D01*
X119232753Y-122669552D01*
X119314147Y-122620055D01*
X119537053Y-122438708D01*
X119733189Y-122228698D01*
X119898901Y-121993936D01*
X120031104Y-121738797D01*
X120127334Y-121468032D01*
X120185798Y-121186686D01*
X120205408Y-120900000D01*
X120185798Y-120613314D01*
X120127334Y-120331968D01*
X120075235Y-120185377D01*
X120031105Y-120061206D01*
X120031106Y-120061206D01*
X119898901Y-119806064D01*
X119733187Y-119571299D01*
X119654554Y-119487105D01*
X119537053Y-119361292D01*
X119314147Y-119179945D01*
X119314146Y-119179944D01*
X119068617Y-119030634D01*
X118805063Y-118916158D01*
X118805061Y-118916157D01*
X118805058Y-118916156D01*
X118675578Y-118879877D01*
X118528364Y-118838630D01*
X118528359Y-118838629D01*
X118528358Y-118838629D01*
X118386018Y-118819064D01*
X118243679Y-118799500D01*
X118243678Y-118799500D01*
X117956322Y-118799500D01*
X117956321Y-118799500D01*
X117671642Y-118838629D01*
X117671635Y-118838630D01*
X117463861Y-118896845D01*
X117394942Y-118916156D01*
X117394939Y-118916156D01*
X117394936Y-118916158D01*
X117394935Y-118916158D01*
X117131382Y-119030634D01*
X116885853Y-119179944D01*
X116662950Y-119361289D01*
X116466812Y-119571299D01*
X116301098Y-119806064D01*
X116168894Y-120061206D01*
X116072667Y-120331962D01*
X116072666Y-120331965D01*
X116014201Y-120613319D01*
X115994592Y-120900000D01*
X116014201Y-121186680D01*
X116014201Y-121186684D01*
X116014202Y-121186686D01*
X116035984Y-121291509D01*
X116072666Y-121468034D01*
X116072667Y-121468037D01*
X116168894Y-121738793D01*
X116168893Y-121738793D01*
X116301098Y-121993935D01*
X116466812Y-122228700D01*
X116502415Y-122266821D01*
X116662947Y-122438708D01*
X116694463Y-122464348D01*
X116885853Y-122620055D01*
X116967247Y-122669552D01*
X117014299Y-122721204D01*
X117025956Y-122790094D01*
X116998518Y-122854351D01*
X116940696Y-122893573D01*
X116902818Y-122899500D01*
X112186344Y-122899500D01*
X112119305Y-122879815D01*
X112073550Y-122827011D01*
X112063606Y-122757853D01*
X112092631Y-122694297D01*
X112106415Y-122680698D01*
X112150790Y-122643284D01*
X112301655Y-122464348D01*
X112301660Y-122464341D01*
X112420120Y-122262475D01*
X112502762Y-122043487D01*
X112547205Y-121813691D01*
X112547205Y-121813690D01*
X112549998Y-121761117D01*
X112550000Y-121761078D01*
X112550000Y-121042500D01*
X111733012Y-121042500D01*
X111765925Y-120985493D01*
X111800000Y-120858326D01*
X111800000Y-120726674D01*
X111765925Y-120599507D01*
X111733012Y-120542500D01*
X112549999Y-120542500D01*
X112549999Y-119823923D01*
X112549998Y-119823911D01*
X112547205Y-119771308D01*
X112502762Y-119541512D01*
X112420120Y-119322524D01*
X112301660Y-119120658D01*
X112301655Y-119120651D01*
X112150788Y-118941713D01*
X112150786Y-118941711D01*
X111971848Y-118790844D01*
X111971841Y-118790839D01*
X111769975Y-118672379D01*
X111550984Y-118589736D01*
X111545840Y-118588741D01*
X111483760Y-118556680D01*
X111448869Y-118496146D01*
X111452244Y-118426358D01*
X111492814Y-118369473D01*
X111557697Y-118343552D01*
X111569374Y-118342999D01*
X115097872Y-118342999D01*
X115157483Y-118336591D01*
X115292331Y-118286296D01*
X115407546Y-118200046D01*
X115493796Y-118084831D01*
X115544091Y-117949983D01*
X115550500Y-117890373D01*
X115550500Y-117067000D01*
X115570185Y-116999961D01*
X115622989Y-116954206D01*
X115674500Y-116943000D01*
X124791268Y-116943000D01*
X124791269Y-116942999D01*
X124846038Y-116932105D01*
X124955574Y-116910318D01*
X124955578Y-116910316D01*
X124955582Y-116910316D01*
X125000915Y-116891537D01*
X125110363Y-116846204D01*
X125249662Y-116753127D01*
X127299772Y-114703015D01*
X127361093Y-114669532D01*
X127394586Y-114667405D01*
X127394586Y-114667323D01*
X127395878Y-114667323D01*
X127398266Y-114667171D01*
X127400000Y-114667323D01*
X127620068Y-114648070D01*
X127833450Y-114590894D01*
X128033662Y-114497534D01*
X128214620Y-114370826D01*
X128370826Y-114214620D01*
X128497534Y-114033662D01*
X128590894Y-113833450D01*
X128648070Y-113620068D01*
X128663239Y-113446686D01*
X128667323Y-113400002D01*
X128667323Y-113399997D01*
X128660103Y-113317474D01*
X128648070Y-113179932D01*
X128590894Y-112966550D01*
X128497534Y-112766339D01*
X128370826Y-112585380D01*
X128214620Y-112429174D01*
X128214616Y-112429171D01*
X128214615Y-112429170D01*
X128033666Y-112302468D01*
X128033662Y-112302466D01*
X128033660Y-112302465D01*
X127833450Y-112209106D01*
X127833447Y-112209105D01*
X127833445Y-112209104D01*
X127620070Y-112151930D01*
X127620062Y-112151929D01*
X127400002Y-112132677D01*
X127399998Y-112132677D01*
X127179937Y-112151929D01*
X127179929Y-112151930D01*
X126966554Y-112209104D01*
X126966548Y-112209107D01*
X126766340Y-112302465D01*
X126766338Y-112302466D01*
X126585377Y-112429175D01*
X126429175Y-112585377D01*
X126302466Y-112766338D01*
X126302465Y-112766340D01*
X126209107Y-112966548D01*
X126209104Y-112966554D01*
X126151930Y-113179929D01*
X126151929Y-113179937D01*
X126132677Y-113399997D01*
X126132677Y-113400002D01*
X126132829Y-113401740D01*
X126132677Y-113402496D01*
X126132677Y-113405413D01*
X126132091Y-113405413D01*
X126119062Y-113470240D01*
X126096982Y-113500227D01*
X124391530Y-115205681D01*
X124330207Y-115239166D01*
X124303849Y-115242000D01*
X115674499Y-115242000D01*
X115607460Y-115222315D01*
X115561705Y-115169511D01*
X115550499Y-115118000D01*
X115550499Y-114374500D01*
X115570184Y-114307461D01*
X115622988Y-114261706D01*
X115674499Y-114250500D01*
X116413692Y-114250500D01*
X116480731Y-114270185D01*
X116501373Y-114286819D01*
X116585378Y-114370824D01*
X116585384Y-114370829D01*
X116766333Y-114497531D01*
X116766335Y-114497532D01*
X116766338Y-114497534D01*
X116966550Y-114590894D01*
X117179932Y-114648070D01*
X117337123Y-114661822D01*
X117399998Y-114667323D01*
X117400000Y-114667323D01*
X117400002Y-114667323D01*
X117459346Y-114662131D01*
X117620068Y-114648070D01*
X117833450Y-114590894D01*
X118033662Y-114497534D01*
X118214620Y-114370826D01*
X118298627Y-114286819D01*
X118359950Y-114253334D01*
X118386308Y-114250500D01*
X119833768Y-114250500D01*
X119833769Y-114250499D01*
X119911606Y-114235017D01*
X119998074Y-114217818D01*
X119998078Y-114217816D01*
X119998082Y-114217816D01*
X120026685Y-114205967D01*
X120043408Y-114199040D01*
X120043409Y-114199039D01*
X120043415Y-114199037D01*
X120152863Y-114153704D01*
X120292162Y-114060627D01*
X125099772Y-109253015D01*
X125161093Y-109219532D01*
X125194586Y-109217405D01*
X125194586Y-109217323D01*
X125195878Y-109217323D01*
X125198266Y-109217171D01*
X125200000Y-109217323D01*
X125420068Y-109198070D01*
X125633450Y-109140894D01*
X125833662Y-109047534D01*
X126014620Y-108920826D01*
X126170826Y-108764620D01*
X126297534Y-108583662D01*
X126362346Y-108444671D01*
X126387042Y-108409403D01*
X126819000Y-107977445D01*
X126819000Y-108000160D01*
X126844964Y-108097061D01*
X126895124Y-108183940D01*
X126966060Y-108254876D01*
X127052939Y-108305036D01*
X127149840Y-108331000D01*
X127172553Y-108331000D01*
X126501810Y-109001740D01*
X126566590Y-109047099D01*
X126566592Y-109047100D01*
X126766715Y-109140419D01*
X126766729Y-109140424D01*
X126980013Y-109197573D01*
X126980023Y-109197575D01*
X127199999Y-109216821D01*
X127200001Y-109216821D01*
X127419976Y-109197575D01*
X127419986Y-109197573D01*
X127633270Y-109140424D01*
X127633284Y-109140419D01*
X127833407Y-109047100D01*
X127833417Y-109047094D01*
X127898188Y-109001741D01*
X127227448Y-108331000D01*
X127250160Y-108331000D01*
X127347061Y-108305036D01*
X127433940Y-108254876D01*
X127504876Y-108183940D01*
X127555036Y-108097061D01*
X127581000Y-108000160D01*
X127581000Y-107977447D01*
X128251741Y-108648188D01*
X128297094Y-108583417D01*
X128297100Y-108583407D01*
X128390419Y-108383284D01*
X128390424Y-108383270D01*
X128447573Y-108169986D01*
X128447575Y-108169976D01*
X128466821Y-107950000D01*
X128466821Y-107949999D01*
X128447575Y-107730023D01*
X128447573Y-107730013D01*
X128390424Y-107516729D01*
X128390420Y-107516720D01*
X128297096Y-107316586D01*
X128251741Y-107251811D01*
X128251740Y-107251810D01*
X127581000Y-107922551D01*
X127581000Y-107899840D01*
X127555036Y-107802939D01*
X127504876Y-107716060D01*
X127433940Y-107645124D01*
X127347061Y-107594964D01*
X127250160Y-107569000D01*
X127227447Y-107569000D01*
X127898188Y-106898258D01*
X127833411Y-106852901D01*
X127833405Y-106852898D01*
X127633284Y-106759580D01*
X127633270Y-106759575D01*
X127419986Y-106702426D01*
X127419976Y-106702424D01*
X127200001Y-106683179D01*
X127199999Y-106683179D01*
X126980023Y-106702424D01*
X126980013Y-106702426D01*
X126766729Y-106759575D01*
X126766720Y-106759579D01*
X126566590Y-106852901D01*
X126501811Y-106898258D01*
X127172554Y-107569000D01*
X127149840Y-107569000D01*
X127052939Y-107594964D01*
X126966060Y-107645124D01*
X126895124Y-107716060D01*
X126844964Y-107802939D01*
X126819000Y-107899840D01*
X126819000Y-107922553D01*
X126387043Y-107490596D01*
X126362342Y-107455320D01*
X126297534Y-107316340D01*
X126297533Y-107316338D01*
X126170827Y-107135381D01*
X126170823Y-107135377D01*
X126014620Y-106979174D01*
X126014616Y-106979171D01*
X126014615Y-106979170D01*
X125833666Y-106852468D01*
X125833662Y-106852466D01*
X125777482Y-106826269D01*
X125633450Y-106759106D01*
X125633447Y-106759105D01*
X125633445Y-106759104D01*
X125420070Y-106701930D01*
X125420062Y-106701929D01*
X125200002Y-106682677D01*
X125199998Y-106682677D01*
X124979937Y-106701929D01*
X124979929Y-106701930D01*
X124766554Y-106759104D01*
X124766548Y-106759107D01*
X124566340Y-106852465D01*
X124566338Y-106852466D01*
X124385377Y-106979175D01*
X124229175Y-107135377D01*
X124102466Y-107316338D01*
X124102465Y-107316340D01*
X124009107Y-107516548D01*
X124009104Y-107516554D01*
X123951930Y-107729929D01*
X123951929Y-107729937D01*
X123932677Y-107949997D01*
X123932677Y-107950002D01*
X123932829Y-107951740D01*
X123932677Y-107952496D01*
X123932677Y-107955413D01*
X123932091Y-107955413D01*
X123919062Y-108020240D01*
X123896982Y-108050227D01*
X119434030Y-112513181D01*
X119372707Y-112546666D01*
X119346349Y-112549500D01*
X118386308Y-112549500D01*
X118319269Y-112529815D01*
X118298627Y-112513181D01*
X118286819Y-112501373D01*
X118253334Y-112440050D01*
X118250500Y-112413692D01*
X118250500Y-110053650D01*
X118270185Y-109986611D01*
X118286819Y-109965969D01*
X118999772Y-109253015D01*
X119061093Y-109219532D01*
X119094586Y-109217405D01*
X119094586Y-109217323D01*
X119095878Y-109217323D01*
X119098266Y-109217171D01*
X119100000Y-109217323D01*
X119320068Y-109198070D01*
X119533450Y-109140894D01*
X119733662Y-109047534D01*
X119914620Y-108920826D01*
X120070826Y-108764620D01*
X120197534Y-108583662D01*
X120262346Y-108444671D01*
X120287042Y-108409403D01*
X120719000Y-107977445D01*
X120719000Y-108000160D01*
X120744964Y-108097061D01*
X120795124Y-108183940D01*
X120866060Y-108254876D01*
X120952939Y-108305036D01*
X121049840Y-108331000D01*
X121072553Y-108331000D01*
X120401810Y-109001740D01*
X120466590Y-109047099D01*
X120466592Y-109047100D01*
X120666715Y-109140419D01*
X120666729Y-109140424D01*
X120880013Y-109197573D01*
X120880023Y-109197575D01*
X121099999Y-109216821D01*
X121100001Y-109216821D01*
X121319976Y-109197575D01*
X121319986Y-109197573D01*
X121533270Y-109140424D01*
X121533284Y-109140419D01*
X121733407Y-109047100D01*
X121733417Y-109047094D01*
X121798188Y-109001741D01*
X121127448Y-108331000D01*
X121150160Y-108331000D01*
X121247061Y-108305036D01*
X121333940Y-108254876D01*
X121404876Y-108183940D01*
X121455036Y-108097061D01*
X121481000Y-108000160D01*
X121481000Y-107977447D01*
X122151741Y-108648188D01*
X122197094Y-108583417D01*
X122197100Y-108583407D01*
X122290419Y-108383284D01*
X122290424Y-108383270D01*
X122347573Y-108169986D01*
X122347575Y-108169976D01*
X122366821Y-107950000D01*
X122366821Y-107949999D01*
X122347575Y-107730023D01*
X122347573Y-107730013D01*
X122290424Y-107516729D01*
X122290420Y-107516720D01*
X122197096Y-107316586D01*
X122151741Y-107251811D01*
X122151740Y-107251810D01*
X121481000Y-107922551D01*
X121481000Y-107899840D01*
X121455036Y-107802939D01*
X121404876Y-107716060D01*
X121333940Y-107645124D01*
X121247061Y-107594964D01*
X121150160Y-107569000D01*
X121127447Y-107569000D01*
X121798188Y-106898258D01*
X121733411Y-106852901D01*
X121733405Y-106852898D01*
X121533284Y-106759580D01*
X121533270Y-106759575D01*
X121319986Y-106702426D01*
X121319976Y-106702424D01*
X121100001Y-106683179D01*
X121099999Y-106683179D01*
X120880023Y-106702424D01*
X120880013Y-106702426D01*
X120666729Y-106759575D01*
X120666720Y-106759579D01*
X120466590Y-106852901D01*
X120401811Y-106898258D01*
X121072554Y-107569000D01*
X121049840Y-107569000D01*
X120952939Y-107594964D01*
X120866060Y-107645124D01*
X120795124Y-107716060D01*
X120744964Y-107802939D01*
X120719000Y-107899840D01*
X120719000Y-107922553D01*
X120287043Y-107490596D01*
X120262342Y-107455320D01*
X120197534Y-107316340D01*
X120197533Y-107316338D01*
X120070827Y-107135381D01*
X120070823Y-107135377D01*
X119914620Y-106979174D01*
X119914616Y-106979171D01*
X119914615Y-106979170D01*
X119733666Y-106852468D01*
X119733662Y-106852466D01*
X119677482Y-106826269D01*
X119533450Y-106759106D01*
X119533447Y-106759105D01*
X119533445Y-106759104D01*
X119320070Y-106701930D01*
X119320062Y-106701929D01*
X119100002Y-106682677D01*
X119099998Y-106682677D01*
X118879937Y-106701929D01*
X118879929Y-106701930D01*
X118666554Y-106759104D01*
X118666548Y-106759107D01*
X118466340Y-106852465D01*
X118466338Y-106852466D01*
X118285377Y-106979175D01*
X118129175Y-107135377D01*
X118002466Y-107316338D01*
X118002465Y-107316340D01*
X117909107Y-107516548D01*
X117909104Y-107516554D01*
X117851930Y-107729929D01*
X117851929Y-107729937D01*
X117832677Y-107949997D01*
X117832677Y-107950002D01*
X117832829Y-107951740D01*
X117832677Y-107952496D01*
X117832677Y-107955413D01*
X117832091Y-107955413D01*
X117819062Y-108020240D01*
X117796982Y-108050227D01*
X116739375Y-109107834D01*
X116739372Y-109107838D01*
X116646299Y-109247130D01*
X116646292Y-109247143D01*
X116600962Y-109356583D01*
X116582185Y-109401913D01*
X116582182Y-109401925D01*
X116549500Y-109566228D01*
X116549500Y-112413692D01*
X116529815Y-112480731D01*
X116513181Y-112501373D01*
X116501373Y-112513181D01*
X116440050Y-112546666D01*
X116413692Y-112549500D01*
X114653651Y-112549500D01*
X114586612Y-112529815D01*
X114565970Y-112513181D01*
X108936818Y-106884029D01*
X108903333Y-106822706D01*
X108900499Y-106796348D01*
X108900499Y-105549629D01*
X108900498Y-105549623D01*
X108900497Y-105549616D01*
X108894091Y-105490017D01*
X108850561Y-105373308D01*
X108843797Y-105355171D01*
X108843793Y-105355164D01*
X108757547Y-105239955D01*
X108757544Y-105239952D01*
X108642335Y-105153706D01*
X108642326Y-105153701D01*
X108613974Y-105143127D01*
X108558040Y-105101257D01*
X108533622Y-105035792D01*
X108548473Y-104967519D01*
X108556988Y-104954059D01*
X108689788Y-104771276D01*
X108793582Y-104567570D01*
X108864234Y-104350128D01*
X108878509Y-104260000D01*
X107890748Y-104260000D01*
X107912518Y-104222292D01*
X107950000Y-104082409D01*
X107950000Y-103937591D01*
X107912518Y-103797708D01*
X107890748Y-103760000D01*
X108878509Y-103760000D01*
X108864234Y-103669871D01*
X108793582Y-103452429D01*
X108689788Y-103248723D01*
X108555402Y-103063757D01*
X108393742Y-102902097D01*
X108309135Y-102840626D01*
X108266470Y-102785296D01*
X108260491Y-102715682D01*
X108293097Y-102653887D01*
X108309125Y-102639999D01*
X108394066Y-102578286D01*
X108555786Y-102416566D01*
X108690217Y-102231538D01*
X108794048Y-102027758D01*
X108851000Y-101852478D01*
X108864721Y-101810249D01*
X108864721Y-101810248D01*
X108864722Y-101810245D01*
X108900500Y-101584354D01*
X108900500Y-101355646D01*
X108864722Y-101129755D01*
X108864721Y-101129751D01*
X108864721Y-101129750D01*
X108794049Y-100912244D01*
X108716260Y-100759575D01*
X108690217Y-100708462D01*
X108555786Y-100523434D01*
X108394066Y-100361714D01*
X108209038Y-100227283D01*
X108155400Y-100199953D01*
X108005255Y-100123450D01*
X107787748Y-100052778D01*
X107618326Y-100025944D01*
X107561854Y-100017000D01*
X107238146Y-100017000D01*
X107162849Y-100028926D01*
X107012253Y-100052778D01*
X107012250Y-100052778D01*
X106794744Y-100123450D01*
X106590961Y-100227283D01*
X106503412Y-100290892D01*
X106405934Y-100361714D01*
X106405932Y-100361716D01*
X106405931Y-100361716D01*
X106244216Y-100523431D01*
X106244216Y-100523432D01*
X106244214Y-100523434D01*
X106213042Y-100566339D01*
X106109783Y-100708461D01*
X106005950Y-100912244D01*
X105935278Y-101129750D01*
X105935278Y-101129753D01*
X105905687Y-101316586D01*
X105899500Y-101355646D01*
X105899500Y-101584354D01*
X105909343Y-101646497D01*
X105935278Y-101810246D01*
X105935278Y-101810249D01*
X106005950Y-102027755D01*
X106100298Y-102212922D01*
X106109783Y-102231538D01*
X106244214Y-102416566D01*
X106405934Y-102578286D01*
X106490864Y-102639991D01*
X106533529Y-102695321D01*
X106539508Y-102764935D01*
X106506902Y-102826730D01*
X106490864Y-102840627D01*
X106406257Y-102902097D01*
X106244597Y-103063757D01*
X106110211Y-103248723D01*
X106006417Y-103452429D01*
X105935765Y-103669871D01*
X105921491Y-103760000D01*
X106909252Y-103760000D01*
X106887482Y-103797708D01*
X106850000Y-103937591D01*
X106850000Y-104082409D01*
X106887482Y-104222292D01*
X106909252Y-104260000D01*
X105921491Y-104260000D01*
X105935765Y-104350128D01*
X106006417Y-104567570D01*
X106110213Y-104771279D01*
X106243011Y-104954060D01*
X106266491Y-105019866D01*
X106250666Y-105087920D01*
X106200560Y-105136615D01*
X106186026Y-105143127D01*
X106157671Y-105153702D01*
X106157664Y-105153706D01*
X106042455Y-105239952D01*
X106042452Y-105239955D01*
X105956206Y-105355164D01*
X105956202Y-105355171D01*
X105905908Y-105490017D01*
X105899746Y-105547339D01*
X105899501Y-105549623D01*
X105899500Y-105549635D01*
X105899500Y-107550370D01*
X105899501Y-107550376D01*
X105905908Y-107609983D01*
X105956202Y-107744828D01*
X105956206Y-107744835D01*
X106042452Y-107860044D01*
X106042455Y-107860047D01*
X106157664Y-107946293D01*
X106157671Y-107946297D01*
X106292517Y-107996591D01*
X106292516Y-107996591D01*
X106299444Y-107997335D01*
X106352127Y-108003000D01*
X107598848Y-108002999D01*
X107665887Y-108022684D01*
X107686529Y-108039318D01*
X113277530Y-113630319D01*
X113311015Y-113691642D01*
X113306031Y-113761334D01*
X113264159Y-113817267D01*
X113198695Y-113841684D01*
X113189849Y-113842000D01*
X111502129Y-113842000D01*
X111502123Y-113842001D01*
X111442516Y-113848408D01*
X111307671Y-113898702D01*
X111307664Y-113898706D01*
X111192455Y-113984952D01*
X111192452Y-113984955D01*
X111106206Y-114100164D01*
X111106202Y-114100171D01*
X111055908Y-114235017D01*
X111049501Y-114294616D01*
X111049500Y-114294635D01*
X111049500Y-117890370D01*
X111049501Y-117890376D01*
X111055908Y-117949983D01*
X111106202Y-118084828D01*
X111106206Y-118084835D01*
X111192452Y-118200044D01*
X111192455Y-118200047D01*
X111307664Y-118286293D01*
X111307673Y-118286298D01*
X111356506Y-118304511D01*
X111412440Y-118346381D01*
X111436858Y-118411845D01*
X111422007Y-118480118D01*
X111372603Y-118529524D01*
X111306598Y-118544518D01*
X111268625Y-118542501D01*
X111268579Y-118542500D01*
X110550000Y-118542500D01*
X110550000Y-120292500D01*
X110050000Y-120292500D01*
X110050000Y-118542500D01*
X109331423Y-118542500D01*
X109331411Y-118542501D01*
X109278808Y-118545294D01*
X109049012Y-118589737D01*
X108830024Y-118672379D01*
X108628158Y-118790839D01*
X108628151Y-118790844D01*
X108449213Y-118941711D01*
X108449211Y-118941713D01*
X108298344Y-119120651D01*
X108298339Y-119120658D01*
X108179879Y-119322524D01*
X108097237Y-119541512D01*
X108052794Y-119771308D01*
X108052794Y-119771309D01*
X108050001Y-119823882D01*
X108050000Y-119823921D01*
X108050000Y-120542500D01*
X108866988Y-120542500D01*
X108834075Y-120599507D01*
X108800000Y-120726674D01*
X108800000Y-120858326D01*
X108834075Y-120985493D01*
X108866988Y-121042500D01*
X108050001Y-121042500D01*
X108050001Y-121761088D01*
X108052794Y-121813691D01*
X108097237Y-122043487D01*
X108179879Y-122262475D01*
X108298339Y-122464341D01*
X108298344Y-122464348D01*
X108449209Y-122643284D01*
X108493585Y-122680698D01*
X108532150Y-122738961D01*
X108533094Y-122808824D01*
X108496118Y-122868107D01*
X108432960Y-122897988D01*
X108413656Y-122899500D01*
X103724500Y-122899500D01*
X103657461Y-122879815D01*
X103611706Y-122827011D01*
X103600500Y-122775500D01*
X103600500Y-115028303D01*
X105300000Y-115028303D01*
X105300000Y-115842500D01*
X106800000Y-115842500D01*
X106800000Y-116342500D01*
X105300001Y-116342500D01*
X105300001Y-117156697D01*
X105310400Y-117288832D01*
X105365377Y-117507019D01*
X105458428Y-117711874D01*
X105458431Y-117711880D01*
X105586559Y-117896823D01*
X105586569Y-117896835D01*
X105745664Y-118055930D01*
X105745676Y-118055940D01*
X105930619Y-118184068D01*
X105930625Y-118184071D01*
X106135480Y-118277122D01*
X106353667Y-118332099D01*
X106485810Y-118342499D01*
X107049999Y-118342499D01*
X107050000Y-118342498D01*
X107050000Y-117525512D01*
X107107007Y-117558425D01*
X107234174Y-117592500D01*
X107365826Y-117592500D01*
X107492993Y-117558425D01*
X107550000Y-117525512D01*
X107550000Y-118342499D01*
X108114182Y-118342499D01*
X108114197Y-118342498D01*
X108246332Y-118332099D01*
X108464519Y-118277122D01*
X108669374Y-118184071D01*
X108669380Y-118184068D01*
X108854323Y-118055940D01*
X108854335Y-118055930D01*
X109013430Y-117896835D01*
X109013440Y-117896823D01*
X109141568Y-117711880D01*
X109141571Y-117711874D01*
X109234622Y-117507019D01*
X109289599Y-117288832D01*
X109299999Y-117156696D01*
X109300000Y-117156684D01*
X109300000Y-116342500D01*
X107800000Y-116342500D01*
X107800000Y-115842500D01*
X109299999Y-115842500D01*
X109299999Y-115028317D01*
X109299998Y-115028302D01*
X109289599Y-114896167D01*
X109234622Y-114677980D01*
X109141571Y-114473125D01*
X109141568Y-114473119D01*
X109013440Y-114288176D01*
X109013430Y-114288164D01*
X108854335Y-114129069D01*
X108854323Y-114129059D01*
X108669380Y-114000931D01*
X108669374Y-114000928D01*
X108464519Y-113907877D01*
X108246332Y-113852900D01*
X108114196Y-113842500D01*
X107550000Y-113842500D01*
X107550000Y-114659488D01*
X107492993Y-114626575D01*
X107365826Y-114592500D01*
X107234174Y-114592500D01*
X107107007Y-114626575D01*
X107050000Y-114659488D01*
X107050000Y-113842500D01*
X106485817Y-113842500D01*
X106485802Y-113842501D01*
X106353667Y-113852900D01*
X106135480Y-113907877D01*
X105930625Y-114000928D01*
X105930619Y-114000931D01*
X105745676Y-114129059D01*
X105745664Y-114129069D01*
X105586569Y-114288164D01*
X105586559Y-114288176D01*
X105458431Y-114473119D01*
X105458428Y-114473125D01*
X105365377Y-114677980D01*
X105310400Y-114896167D01*
X105300000Y-115028303D01*
X103600500Y-115028303D01*
X103600500Y-93500000D01*
X104745172Y-93500000D01*
X104764462Y-93794312D01*
X104764464Y-93794324D01*
X104822001Y-94083584D01*
X104822005Y-94083599D01*
X104916812Y-94362888D01*
X105047258Y-94627406D01*
X105047265Y-94627419D01*
X105211123Y-94872649D01*
X105240405Y-94906040D01*
X106017173Y-94129271D01*
X106111388Y-94258946D01*
X106241054Y-94388612D01*
X106370727Y-94482825D01*
X105593958Y-95259593D01*
X105627350Y-95288876D01*
X105872580Y-95452734D01*
X105872593Y-95452741D01*
X106137111Y-95583187D01*
X106416400Y-95677994D01*
X106416415Y-95677998D01*
X106705675Y-95735535D01*
X106705687Y-95735537D01*
X107000000Y-95754827D01*
X107294312Y-95735537D01*
X107294324Y-95735535D01*
X107583584Y-95677998D01*
X107583599Y-95677994D01*
X107862888Y-95583187D01*
X108127406Y-95452741D01*
X108127419Y-95452734D01*
X108372648Y-95288877D01*
X108406039Y-95259593D01*
X107629271Y-94482825D01*
X107758946Y-94388612D01*
X107888612Y-94258946D01*
X107982825Y-94129271D01*
X108759593Y-94906039D01*
X108788877Y-94872648D01*
X108952734Y-94627419D01*
X108952741Y-94627406D01*
X109083187Y-94362888D01*
X109177994Y-94083599D01*
X109177998Y-94083584D01*
X109235535Y-93794324D01*
X109235537Y-93794312D01*
X109254827Y-93500000D01*
X109235537Y-93205687D01*
X109235535Y-93205675D01*
X109177998Y-92916415D01*
X109177994Y-92916400D01*
X109083187Y-92637111D01*
X108952741Y-92372593D01*
X108952734Y-92372580D01*
X108788876Y-92127350D01*
X108759593Y-92093958D01*
X107982825Y-92870726D01*
X107888612Y-92741054D01*
X107758946Y-92611388D01*
X107629271Y-92517174D01*
X108406040Y-91740405D01*
X108372649Y-91711123D01*
X108127419Y-91547265D01*
X108127406Y-91547258D01*
X107862888Y-91416812D01*
X107583599Y-91322005D01*
X107583584Y-91322001D01*
X107294324Y-91264464D01*
X107294312Y-91264462D01*
X107000000Y-91245172D01*
X106705687Y-91264462D01*
X106705675Y-91264464D01*
X106416415Y-91322001D01*
X106416400Y-91322005D01*
X106137111Y-91416812D01*
X105872593Y-91547258D01*
X105872580Y-91547265D01*
X105627346Y-91711126D01*
X105627339Y-91711131D01*
X105593959Y-91740403D01*
X105593959Y-91740405D01*
X106370728Y-92517174D01*
X106241054Y-92611388D01*
X106111388Y-92741054D01*
X106017174Y-92870727D01*
X105240405Y-92093959D01*
X105240403Y-92093959D01*
X105211131Y-92127339D01*
X105211126Y-92127346D01*
X105047265Y-92372580D01*
X105047258Y-92372593D01*
X104916812Y-92637111D01*
X104822005Y-92916400D01*
X104822001Y-92916415D01*
X104764464Y-93205675D01*
X104764462Y-93205687D01*
X104745172Y-93500000D01*
X103600500Y-93500000D01*
X103600500Y-81460000D01*
X104745172Y-81460000D01*
X104764462Y-81754312D01*
X104764464Y-81754324D01*
X104822001Y-82043584D01*
X104822005Y-82043599D01*
X104916812Y-82322888D01*
X105047258Y-82587406D01*
X105047265Y-82587419D01*
X105211123Y-82832649D01*
X105240405Y-82866040D01*
X106017173Y-82089271D01*
X106111388Y-82218946D01*
X106241054Y-82348612D01*
X106370727Y-82442825D01*
X105593958Y-83219593D01*
X105627350Y-83248876D01*
X105872580Y-83412734D01*
X105872593Y-83412741D01*
X106137111Y-83543187D01*
X106416400Y-83637994D01*
X106416415Y-83637998D01*
X106705675Y-83695535D01*
X106705687Y-83695537D01*
X107000000Y-83714827D01*
X107294312Y-83695537D01*
X107294324Y-83695535D01*
X107583584Y-83637998D01*
X107583599Y-83637994D01*
X107862888Y-83543187D01*
X108127406Y-83412741D01*
X108127419Y-83412734D01*
X108372648Y-83248877D01*
X108406039Y-83219593D01*
X107629271Y-82442825D01*
X107758946Y-82348612D01*
X107888612Y-82218946D01*
X107982825Y-82089271D01*
X108759593Y-82866039D01*
X108788877Y-82832648D01*
X108877512Y-82699997D01*
X115232677Y-82699997D01*
X115232677Y-82700002D01*
X115251929Y-82920062D01*
X115251930Y-82920070D01*
X115309104Y-83133445D01*
X115309105Y-83133447D01*
X115309106Y-83133450D01*
X115317816Y-83152128D01*
X115402466Y-83333662D01*
X115402468Y-83333666D01*
X115529170Y-83514615D01*
X115529175Y-83514621D01*
X115685378Y-83670824D01*
X115685384Y-83670829D01*
X115866333Y-83797531D01*
X115866335Y-83797532D01*
X115866338Y-83797534D01*
X116066550Y-83890894D01*
X116279932Y-83948070D01*
X116437123Y-83961822D01*
X116499998Y-83967323D01*
X116500000Y-83967323D01*
X116500002Y-83967323D01*
X116555017Y-83962509D01*
X116720068Y-83948070D01*
X116933450Y-83890894D01*
X117133662Y-83797534D01*
X117314620Y-83670826D01*
X117470826Y-83514620D01*
X117597534Y-83333662D01*
X117690894Y-83133450D01*
X117748070Y-82920068D01*
X117767323Y-82700000D01*
X117767323Y-82699997D01*
X125232677Y-82699997D01*
X125232677Y-82700002D01*
X125251929Y-82920062D01*
X125251930Y-82920070D01*
X125309104Y-83133445D01*
X125309105Y-83133447D01*
X125309106Y-83133450D01*
X125317816Y-83152128D01*
X125402466Y-83333662D01*
X125402468Y-83333666D01*
X125529170Y-83514615D01*
X125529175Y-83514621D01*
X125685378Y-83670824D01*
X125685384Y-83670829D01*
X125866333Y-83797531D01*
X125866335Y-83797532D01*
X125866338Y-83797534D01*
X126066550Y-83890894D01*
X126279932Y-83948070D01*
X126437123Y-83961822D01*
X126499998Y-83967323D01*
X126500000Y-83967323D01*
X126500002Y-83967323D01*
X126555017Y-83962509D01*
X126720068Y-83948070D01*
X126933450Y-83890894D01*
X127133662Y-83797534D01*
X127314620Y-83670826D01*
X127470826Y-83514620D01*
X127597534Y-83333662D01*
X127690894Y-83133450D01*
X127748070Y-82920068D01*
X127767323Y-82700000D01*
X127767279Y-82699501D01*
X127757474Y-82587419D01*
X127748070Y-82479932D01*
X127690894Y-82266550D01*
X127597534Y-82066339D01*
X127470826Y-81885380D01*
X127314620Y-81729174D01*
X127314616Y-81729171D01*
X127314615Y-81729170D01*
X127133666Y-81602468D01*
X127133662Y-81602466D01*
X127133660Y-81602465D01*
X126933450Y-81509106D01*
X126933447Y-81509105D01*
X126933445Y-81509104D01*
X126720070Y-81451930D01*
X126720062Y-81451929D01*
X126500002Y-81432677D01*
X126499998Y-81432677D01*
X126279937Y-81451929D01*
X126279929Y-81451930D01*
X126066554Y-81509104D01*
X126066548Y-81509107D01*
X125866340Y-81602465D01*
X125866338Y-81602466D01*
X125685377Y-81729175D01*
X125529175Y-81885377D01*
X125402466Y-82066338D01*
X125402465Y-82066340D01*
X125309107Y-82266548D01*
X125309104Y-82266554D01*
X125251930Y-82479929D01*
X125251929Y-82479937D01*
X125232677Y-82699997D01*
X117767323Y-82699997D01*
X117767279Y-82699501D01*
X117757474Y-82587419D01*
X117748070Y-82479932D01*
X117690894Y-82266550D01*
X117597534Y-82066339D01*
X117470826Y-81885380D01*
X117314620Y-81729174D01*
X117314616Y-81729171D01*
X117314615Y-81729170D01*
X117133666Y-81602468D01*
X117133662Y-81602466D01*
X117133660Y-81602465D01*
X116933450Y-81509106D01*
X116933447Y-81509105D01*
X116933445Y-81509104D01*
X116720070Y-81451930D01*
X116720062Y-81451929D01*
X116500002Y-81432677D01*
X116499998Y-81432677D01*
X116279937Y-81451929D01*
X116279929Y-81451930D01*
X116066554Y-81509104D01*
X116066548Y-81509107D01*
X115866340Y-81602465D01*
X115866338Y-81602466D01*
X115685377Y-81729175D01*
X115529175Y-81885377D01*
X115402466Y-82066338D01*
X115402465Y-82066340D01*
X115309107Y-82266548D01*
X115309104Y-82266554D01*
X115251930Y-82479929D01*
X115251929Y-82479937D01*
X115232677Y-82699997D01*
X108877512Y-82699997D01*
X108952734Y-82587419D01*
X108952741Y-82587406D01*
X109083187Y-82322888D01*
X109177994Y-82043599D01*
X109177998Y-82043584D01*
X109235535Y-81754324D01*
X109235537Y-81754312D01*
X109254827Y-81460000D01*
X109235537Y-81165687D01*
X109235535Y-81165675D01*
X109177998Y-80876415D01*
X109177994Y-80876400D01*
X109083187Y-80597111D01*
X108952741Y-80332593D01*
X108952734Y-80332580D01*
X108788876Y-80087350D01*
X108759593Y-80053958D01*
X107982825Y-80830726D01*
X107888612Y-80701054D01*
X107758946Y-80571388D01*
X107629271Y-80477174D01*
X108406040Y-79700405D01*
X108372649Y-79671123D01*
X108127419Y-79507265D01*
X108127406Y-79507258D01*
X107862888Y-79376812D01*
X107583599Y-79282005D01*
X107583584Y-79282001D01*
X107294324Y-79224464D01*
X107294312Y-79224462D01*
X107000000Y-79205172D01*
X106705687Y-79224462D01*
X106705675Y-79224464D01*
X106416415Y-79282001D01*
X106416400Y-79282005D01*
X106137111Y-79376812D01*
X105872593Y-79507258D01*
X105872580Y-79507265D01*
X105627346Y-79671126D01*
X105627339Y-79671131D01*
X105593959Y-79700403D01*
X105593959Y-79700405D01*
X106370728Y-80477174D01*
X106241054Y-80571388D01*
X106111388Y-80701054D01*
X106017174Y-80830727D01*
X105240405Y-80053959D01*
X105240403Y-80053959D01*
X105211131Y-80087339D01*
X105211126Y-80087346D01*
X105047265Y-80332580D01*
X105047258Y-80332593D01*
X104916812Y-80597111D01*
X104822005Y-80876400D01*
X104822001Y-80876415D01*
X104764464Y-81165675D01*
X104764462Y-81165687D01*
X104745172Y-81460000D01*
X103600500Y-81460000D01*
X103600500Y-78999999D01*
X115233179Y-78999999D01*
X115233179Y-79000000D01*
X115252424Y-79219976D01*
X115252426Y-79219986D01*
X115309575Y-79433270D01*
X115309580Y-79433284D01*
X115402898Y-79633405D01*
X115402901Y-79633411D01*
X115448258Y-79698187D01*
X115448258Y-79698188D01*
X116119000Y-79027446D01*
X116119000Y-79050160D01*
X116144964Y-79147061D01*
X116195124Y-79233940D01*
X116266060Y-79304876D01*
X116352939Y-79355036D01*
X116449840Y-79381000D01*
X116472553Y-79381000D01*
X115801810Y-80051740D01*
X115866590Y-80097099D01*
X115866592Y-80097100D01*
X116066715Y-80190419D01*
X116066729Y-80190424D01*
X116280013Y-80247573D01*
X116280023Y-80247575D01*
X116499999Y-80266821D01*
X116500001Y-80266821D01*
X116719976Y-80247575D01*
X116719986Y-80247573D01*
X116933270Y-80190424D01*
X116933284Y-80190419D01*
X117133407Y-80097100D01*
X117133417Y-80097094D01*
X117198188Y-80051741D01*
X116527448Y-79381000D01*
X116550160Y-79381000D01*
X116647061Y-79355036D01*
X116733940Y-79304876D01*
X116804876Y-79233940D01*
X116855036Y-79147061D01*
X116881000Y-79050160D01*
X116881000Y-79027447D01*
X117551741Y-79698188D01*
X117597094Y-79633417D01*
X117597100Y-79633407D01*
X117690419Y-79433284D01*
X117690424Y-79433270D01*
X117747573Y-79219986D01*
X117747575Y-79219976D01*
X117766821Y-79000000D01*
X117766821Y-78999999D01*
X117747575Y-78780023D01*
X117747573Y-78780013D01*
X117690424Y-78566729D01*
X117690420Y-78566720D01*
X117597096Y-78366586D01*
X117551741Y-78301811D01*
X117551740Y-78301810D01*
X116881000Y-78972551D01*
X116881000Y-78949840D01*
X116855036Y-78852939D01*
X116804876Y-78766060D01*
X116733940Y-78695124D01*
X116647061Y-78644964D01*
X116550160Y-78619000D01*
X116527447Y-78619000D01*
X117198188Y-77948258D01*
X117133411Y-77902901D01*
X117133405Y-77902898D01*
X116933284Y-77809580D01*
X116933270Y-77809575D01*
X116719986Y-77752426D01*
X116719976Y-77752424D01*
X116500001Y-77733179D01*
X116499999Y-77733179D01*
X116280023Y-77752424D01*
X116280013Y-77752426D01*
X116066729Y-77809575D01*
X116066720Y-77809579D01*
X115866590Y-77902901D01*
X115801811Y-77948258D01*
X116472554Y-78619000D01*
X116449840Y-78619000D01*
X116352939Y-78644964D01*
X116266060Y-78695124D01*
X116195124Y-78766060D01*
X116144964Y-78852939D01*
X116119000Y-78949840D01*
X116119000Y-78972553D01*
X115448258Y-78301811D01*
X115402901Y-78366590D01*
X115309579Y-78566720D01*
X115309575Y-78566729D01*
X115252426Y-78780013D01*
X115252424Y-78780023D01*
X115233179Y-78999999D01*
X103600500Y-78999999D01*
X103600500Y-76499997D01*
X105782677Y-76499997D01*
X105782677Y-76500002D01*
X105801929Y-76720062D01*
X105801930Y-76720070D01*
X105859104Y-76933445D01*
X105859105Y-76933447D01*
X105859106Y-76933450D01*
X105952466Y-77133662D01*
X105952468Y-77133666D01*
X106079170Y-77314615D01*
X106079175Y-77314621D01*
X106235378Y-77470824D01*
X106235384Y-77470829D01*
X106416333Y-77597531D01*
X106416335Y-77597532D01*
X106416338Y-77597534D01*
X106616550Y-77690894D01*
X106829932Y-77748070D01*
X106987123Y-77761822D01*
X107049998Y-77767323D01*
X107050000Y-77767323D01*
X107050002Y-77767323D01*
X107105017Y-77762509D01*
X107270068Y-77748070D01*
X107483450Y-77690894D01*
X107683662Y-77597534D01*
X107864620Y-77470826D01*
X108020826Y-77314620D01*
X108147534Y-77133662D01*
X108240894Y-76933450D01*
X108298070Y-76720068D01*
X108317323Y-76500000D01*
X108317323Y-76499997D01*
X111232677Y-76499997D01*
X111232677Y-76500002D01*
X111251929Y-76720062D01*
X111251930Y-76720070D01*
X111309104Y-76933445D01*
X111309105Y-76933447D01*
X111309106Y-76933450D01*
X111402466Y-77133662D01*
X111402468Y-77133666D01*
X111529170Y-77314615D01*
X111529175Y-77314621D01*
X111685378Y-77470824D01*
X111685384Y-77470829D01*
X111866333Y-77597531D01*
X111866335Y-77597532D01*
X111866338Y-77597534D01*
X112066550Y-77690894D01*
X112279932Y-77748070D01*
X112437123Y-77761822D01*
X112499998Y-77767323D01*
X112500000Y-77767323D01*
X112500002Y-77767323D01*
X112555017Y-77762509D01*
X112720068Y-77748070D01*
X112933450Y-77690894D01*
X113133662Y-77597534D01*
X113314620Y-77470826D01*
X113470826Y-77314620D01*
X113597534Y-77133662D01*
X113690894Y-76933450D01*
X113748070Y-76720068D01*
X113767323Y-76500000D01*
X113748070Y-76279932D01*
X113690894Y-76066550D01*
X113597534Y-75866339D01*
X113470826Y-75685380D01*
X113314620Y-75529174D01*
X113314616Y-75529171D01*
X113314615Y-75529170D01*
X113133666Y-75402468D01*
X113133662Y-75402466D01*
X112994444Y-75337548D01*
X112933450Y-75309106D01*
X112933447Y-75309105D01*
X112933445Y-75309104D01*
X112720070Y-75251930D01*
X112720062Y-75251929D01*
X112500002Y-75232677D01*
X112499998Y-75232677D01*
X112279937Y-75251929D01*
X112279929Y-75251930D01*
X112066554Y-75309104D01*
X112066548Y-75309107D01*
X111866340Y-75402465D01*
X111866338Y-75402466D01*
X111685377Y-75529175D01*
X111529175Y-75685377D01*
X111402466Y-75866338D01*
X111402465Y-75866340D01*
X111309107Y-76066548D01*
X111309104Y-76066554D01*
X111251930Y-76279929D01*
X111251929Y-76279937D01*
X111232677Y-76499997D01*
X108317323Y-76499997D01*
X108298070Y-76279932D01*
X108240894Y-76066550D01*
X108147534Y-75866339D01*
X108020826Y-75685380D01*
X107864620Y-75529174D01*
X107864616Y-75529171D01*
X107864615Y-75529170D01*
X107683666Y-75402468D01*
X107683662Y-75402466D01*
X107544444Y-75337548D01*
X107483450Y-75309106D01*
X107483447Y-75309105D01*
X107483445Y-75309104D01*
X107270070Y-75251930D01*
X107270062Y-75251929D01*
X107050002Y-75232677D01*
X107049998Y-75232677D01*
X106829937Y-75251929D01*
X106829929Y-75251930D01*
X106616554Y-75309104D01*
X106616548Y-75309107D01*
X106416340Y-75402465D01*
X106416338Y-75402466D01*
X106235377Y-75529175D01*
X106079175Y-75685377D01*
X105952466Y-75866338D01*
X105952465Y-75866340D01*
X105859107Y-76066548D01*
X105859104Y-76066554D01*
X105801930Y-76279929D01*
X105801929Y-76279937D01*
X105782677Y-76499997D01*
X103600500Y-76499997D01*
X103600500Y-71024500D01*
X103620185Y-70957461D01*
X103672989Y-70911706D01*
X103724500Y-70900500D01*
X106014691Y-70900500D01*
X106081730Y-70920185D01*
G37*
%TD.AperFunction*%
%TA.AperFunction,Conductor*%
G36*
X148000000Y-106878872D02*
G01*
X148196317Y-106826269D01*
X148196326Y-106826265D01*
X148402482Y-106730134D01*
X148588820Y-106599657D01*
X148749657Y-106438820D01*
X148880132Y-106252484D01*
X148907341Y-106194134D01*
X148953513Y-106141695D01*
X149020707Y-106122542D01*
X149087588Y-106142757D01*
X149132106Y-106194133D01*
X149159431Y-106252732D01*
X149159432Y-106252734D01*
X149289954Y-106439141D01*
X149450858Y-106600045D01*
X149450861Y-106600047D01*
X149637266Y-106730568D01*
X149843504Y-106826739D01*
X150063308Y-106885635D01*
X150225230Y-106899801D01*
X150289998Y-106905468D01*
X150290000Y-106905468D01*
X150290002Y-106905468D01*
X150346807Y-106900498D01*
X150516692Y-106885635D01*
X150736496Y-106826739D01*
X150942734Y-106730568D01*
X151129139Y-106600047D01*
X151290047Y-106439139D01*
X151420568Y-106252734D01*
X151447618Y-106194724D01*
X151493790Y-106142285D01*
X151560983Y-106123133D01*
X151627865Y-106143348D01*
X151672382Y-106194725D01*
X151699429Y-106252728D01*
X151699432Y-106252734D01*
X151829954Y-106439141D01*
X151990858Y-106600045D01*
X151990861Y-106600047D01*
X152177266Y-106730568D01*
X152383504Y-106826739D01*
X152603308Y-106885635D01*
X152765230Y-106899801D01*
X152829998Y-106905468D01*
X152830000Y-106905468D01*
X152830002Y-106905468D01*
X152886807Y-106900498D01*
X153056692Y-106885635D01*
X153276496Y-106826739D01*
X153482734Y-106730568D01*
X153669139Y-106600047D01*
X153830047Y-106439139D01*
X153960568Y-106252734D01*
X153987618Y-106194724D01*
X154033790Y-106142285D01*
X154100983Y-106123133D01*
X154167865Y-106143348D01*
X154212382Y-106194725D01*
X154239429Y-106252728D01*
X154239432Y-106252734D01*
X154369954Y-106439141D01*
X154530858Y-106600045D01*
X154530861Y-106600047D01*
X154717266Y-106730568D01*
X154923504Y-106826739D01*
X155143308Y-106885635D01*
X155305230Y-106899801D01*
X155369998Y-106905468D01*
X155370000Y-106905468D01*
X155370002Y-106905468D01*
X155426807Y-106900498D01*
X155596692Y-106885635D01*
X155816496Y-106826739D01*
X156022734Y-106730568D01*
X156209139Y-106600047D01*
X156370047Y-106439139D01*
X156500568Y-106252734D01*
X156527618Y-106194724D01*
X156573790Y-106142285D01*
X156640983Y-106123133D01*
X156707865Y-106143348D01*
X156752382Y-106194725D01*
X156779429Y-106252728D01*
X156779432Y-106252734D01*
X156909954Y-106439141D01*
X157070858Y-106600045D01*
X157070861Y-106600047D01*
X157257266Y-106730568D01*
X157463504Y-106826739D01*
X157683308Y-106885635D01*
X157845230Y-106899801D01*
X157909998Y-106905468D01*
X157910000Y-106905468D01*
X157910002Y-106905468D01*
X157966807Y-106900498D01*
X158136692Y-106885635D01*
X158356496Y-106826739D01*
X158562734Y-106730568D01*
X158749139Y-106600047D01*
X158910047Y-106439139D01*
X159040568Y-106252734D01*
X159067618Y-106194724D01*
X159113790Y-106142285D01*
X159180983Y-106123133D01*
X159247865Y-106143348D01*
X159292382Y-106194725D01*
X159319429Y-106252728D01*
X159319432Y-106252734D01*
X159449954Y-106439141D01*
X159610858Y-106600045D01*
X159610861Y-106600047D01*
X159797266Y-106730568D01*
X159797267Y-106730568D01*
X159797268Y-106730569D01*
X159801961Y-106733279D01*
X159800689Y-106735480D01*
X159845117Y-106774637D01*
X159864237Y-106841840D01*
X159843988Y-106908711D01*
X159827922Y-106928477D01*
X155323220Y-111433181D01*
X155261897Y-111466666D01*
X155235539Y-111469500D01*
X152302398Y-111469500D01*
X152241980Y-111481518D01*
X152198752Y-111490116D01*
X152181555Y-111493537D01*
X152067725Y-111540687D01*
X152067716Y-111540692D01*
X151965277Y-111609140D01*
X151921714Y-111652703D01*
X151878151Y-111696267D01*
X151329129Y-112245289D01*
X151267806Y-112278774D01*
X151198114Y-112273790D01*
X151153767Y-112245289D01*
X151128820Y-112220342D01*
X150942482Y-112089865D01*
X150736328Y-111993734D01*
X150540000Y-111941127D01*
X150540000Y-112904314D01*
X150535606Y-112899920D01*
X150444394Y-112847259D01*
X150342661Y-112820000D01*
X150237339Y-112820000D01*
X150135606Y-112847259D01*
X150044394Y-112899920D01*
X150040000Y-112904314D01*
X150040000Y-111941127D01*
X149843671Y-111993734D01*
X149637517Y-112089865D01*
X149451179Y-112220342D01*
X149290342Y-112381179D01*
X149159867Y-112567515D01*
X149132657Y-112625867D01*
X149086484Y-112678306D01*
X149019290Y-112697457D01*
X148952409Y-112677241D01*
X148907893Y-112625865D01*
X148889014Y-112585380D01*
X148880568Y-112567266D01*
X148750047Y-112380861D01*
X148750045Y-112380858D01*
X148589141Y-112219954D01*
X148402734Y-112089432D01*
X148402732Y-112089431D01*
X148196497Y-111993261D01*
X148196488Y-111993258D01*
X147976697Y-111934366D01*
X147976693Y-111934365D01*
X147976692Y-111934365D01*
X147976691Y-111934364D01*
X147976686Y-111934364D01*
X147750002Y-111914532D01*
X147749998Y-111914532D01*
X147523313Y-111934364D01*
X147523302Y-111934366D01*
X147303511Y-111993258D01*
X147303502Y-111993261D01*
X147097267Y-112089431D01*
X147097265Y-112089432D01*
X146910862Y-112219951D01*
X146862617Y-112268197D01*
X146797631Y-112333182D01*
X146736311Y-112366666D01*
X146709952Y-112369500D01*
X146250048Y-112369500D01*
X146183009Y-112349815D01*
X146162371Y-112333185D01*
X146049139Y-112219953D01*
X146049138Y-112219952D01*
X146049137Y-112219951D01*
X145862734Y-112089432D01*
X145862732Y-112089431D01*
X145656497Y-111993261D01*
X145656488Y-111993258D01*
X145436697Y-111934366D01*
X145436693Y-111934365D01*
X145436692Y-111934365D01*
X145436691Y-111934364D01*
X145436686Y-111934364D01*
X145210002Y-111914532D01*
X145209998Y-111914532D01*
X144983313Y-111934364D01*
X144983302Y-111934366D01*
X144763511Y-111993258D01*
X144763502Y-111993261D01*
X144557267Y-112089431D01*
X144557265Y-112089432D01*
X144370858Y-112219954D01*
X144209954Y-112380858D01*
X144079432Y-112567265D01*
X144079431Y-112567267D01*
X144052382Y-112625275D01*
X144006209Y-112677714D01*
X143939016Y-112696866D01*
X143872135Y-112676650D01*
X143827618Y-112625275D01*
X143809015Y-112585381D01*
X143800568Y-112567266D01*
X143670047Y-112380861D01*
X143670045Y-112380858D01*
X143509141Y-112219954D01*
X143322734Y-112089432D01*
X143322732Y-112089431D01*
X143116497Y-111993261D01*
X143116488Y-111993258D01*
X142896697Y-111934366D01*
X142896693Y-111934365D01*
X142896692Y-111934365D01*
X142896691Y-111934364D01*
X142896686Y-111934364D01*
X142670002Y-111914532D01*
X142669998Y-111914532D01*
X142443313Y-111934364D01*
X142443302Y-111934366D01*
X142223511Y-111993258D01*
X142223502Y-111993261D01*
X142017267Y-112089431D01*
X142017265Y-112089432D01*
X141830858Y-112219954D01*
X141669954Y-112380858D01*
X141539432Y-112567265D01*
X141539431Y-112567267D01*
X141512382Y-112625275D01*
X141466209Y-112677714D01*
X141399016Y-112696866D01*
X141332135Y-112676650D01*
X141287618Y-112625275D01*
X141269015Y-112585381D01*
X141260568Y-112567266D01*
X141130047Y-112380861D01*
X141130045Y-112380858D01*
X140969141Y-112219954D01*
X140782734Y-112089432D01*
X140782732Y-112089431D01*
X140576497Y-111993261D01*
X140576488Y-111993258D01*
X140356697Y-111934366D01*
X140356693Y-111934365D01*
X140356692Y-111934365D01*
X140356691Y-111934364D01*
X140356686Y-111934364D01*
X140130002Y-111914532D01*
X140129998Y-111914532D01*
X139903313Y-111934364D01*
X139903302Y-111934366D01*
X139683511Y-111993258D01*
X139683502Y-111993261D01*
X139477267Y-112089431D01*
X139477265Y-112089432D01*
X139290858Y-112219954D01*
X139129954Y-112380858D01*
X138999432Y-112567265D01*
X138999431Y-112567267D01*
X138972382Y-112625275D01*
X138926209Y-112677714D01*
X138859016Y-112696866D01*
X138792135Y-112676650D01*
X138747618Y-112625275D01*
X138729015Y-112585381D01*
X138720568Y-112567266D01*
X138590047Y-112380861D01*
X138590045Y-112380858D01*
X138429141Y-112219954D01*
X138242734Y-112089432D01*
X138242732Y-112089431D01*
X138036497Y-111993261D01*
X138036488Y-111993258D01*
X137816697Y-111934366D01*
X137816693Y-111934365D01*
X137816692Y-111934365D01*
X137816691Y-111934364D01*
X137816686Y-111934364D01*
X137590002Y-111914532D01*
X137589998Y-111914532D01*
X137363313Y-111934364D01*
X137363302Y-111934366D01*
X137143511Y-111993258D01*
X137143502Y-111993261D01*
X136937267Y-112089431D01*
X136937265Y-112089432D01*
X136750858Y-112219954D01*
X136589954Y-112380858D01*
X136459432Y-112567265D01*
X136459431Y-112567267D01*
X136432382Y-112625275D01*
X136386209Y-112677714D01*
X136319016Y-112696866D01*
X136252135Y-112676650D01*
X136207618Y-112625275D01*
X136189015Y-112585381D01*
X136180568Y-112567266D01*
X136050047Y-112380861D01*
X136050045Y-112380858D01*
X135889141Y-112219954D01*
X135702734Y-112089432D01*
X135702732Y-112089431D01*
X135496497Y-111993261D01*
X135496488Y-111993258D01*
X135276697Y-111934366D01*
X135276693Y-111934365D01*
X135276692Y-111934365D01*
X135276691Y-111934364D01*
X135276686Y-111934364D01*
X135050002Y-111914532D01*
X135049998Y-111914532D01*
X134823313Y-111934364D01*
X134823302Y-111934366D01*
X134603511Y-111993258D01*
X134603502Y-111993261D01*
X134397267Y-112089431D01*
X134397265Y-112089432D01*
X134210858Y-112219954D01*
X134049954Y-112380858D01*
X133919432Y-112567265D01*
X133919431Y-112567267D01*
X133892382Y-112625275D01*
X133846209Y-112677714D01*
X133779016Y-112696866D01*
X133712135Y-112676650D01*
X133667618Y-112625275D01*
X133649015Y-112585381D01*
X133640568Y-112567266D01*
X133510047Y-112380861D01*
X133510045Y-112380858D01*
X133349141Y-112219954D01*
X133162734Y-112089432D01*
X133162732Y-112089431D01*
X132956497Y-111993261D01*
X132956488Y-111993258D01*
X132736697Y-111934366D01*
X132736693Y-111934365D01*
X132736692Y-111934365D01*
X132736691Y-111934364D01*
X132736686Y-111934364D01*
X132510002Y-111914532D01*
X132509998Y-111914532D01*
X132283313Y-111934364D01*
X132283302Y-111934366D01*
X132063511Y-111993258D01*
X132063502Y-111993261D01*
X131857267Y-112089431D01*
X131857265Y-112089432D01*
X131670858Y-112219954D01*
X131509954Y-112380858D01*
X131379432Y-112567265D01*
X131379431Y-112567267D01*
X131286882Y-112765739D01*
X131240709Y-112818178D01*
X131173516Y-112837330D01*
X131106635Y-112817114D01*
X131061300Y-112763949D01*
X131050500Y-112713334D01*
X131050500Y-106106665D01*
X131070185Y-106039626D01*
X131122989Y-105993871D01*
X131192147Y-105983927D01*
X131255703Y-106012952D01*
X131286880Y-106054258D01*
X131328149Y-106142757D01*
X131379431Y-106252732D01*
X131379432Y-106252734D01*
X131509954Y-106439141D01*
X131670858Y-106600045D01*
X131670861Y-106600047D01*
X131857266Y-106730568D01*
X132063504Y-106826739D01*
X132283308Y-106885635D01*
X132445230Y-106899801D01*
X132509998Y-106905468D01*
X132510000Y-106905468D01*
X132510002Y-106905468D01*
X132566807Y-106900498D01*
X132736692Y-106885635D01*
X132956496Y-106826739D01*
X133162734Y-106730568D01*
X133349139Y-106600047D01*
X133510047Y-106439139D01*
X133640568Y-106252734D01*
X133667618Y-106194724D01*
X133713790Y-106142285D01*
X133780983Y-106123133D01*
X133847865Y-106143348D01*
X133892382Y-106194725D01*
X133919429Y-106252728D01*
X133919432Y-106252734D01*
X134049954Y-106439141D01*
X134210858Y-106600045D01*
X134210861Y-106600047D01*
X134397266Y-106730568D01*
X134603504Y-106826739D01*
X134823308Y-106885635D01*
X134985230Y-106899801D01*
X135049998Y-106905468D01*
X135050000Y-106905468D01*
X135050002Y-106905468D01*
X135106807Y-106900498D01*
X135276692Y-106885635D01*
X135496496Y-106826739D01*
X135702734Y-106730568D01*
X135889139Y-106600047D01*
X136050047Y-106439139D01*
X136180568Y-106252734D01*
X136207618Y-106194724D01*
X136253790Y-106142285D01*
X136320983Y-106123133D01*
X136387865Y-106143348D01*
X136432382Y-106194725D01*
X136459429Y-106252728D01*
X136459432Y-106252734D01*
X136589954Y-106439141D01*
X136750858Y-106600045D01*
X136750861Y-106600047D01*
X136937266Y-106730568D01*
X137143504Y-106826739D01*
X137363308Y-106885635D01*
X137525230Y-106899801D01*
X137589998Y-106905468D01*
X137590000Y-106905468D01*
X137590002Y-106905468D01*
X137646807Y-106900498D01*
X137816692Y-106885635D01*
X138036496Y-106826739D01*
X138242734Y-106730568D01*
X138429139Y-106600047D01*
X138590047Y-106439139D01*
X138720568Y-106252734D01*
X138747618Y-106194724D01*
X138793790Y-106142285D01*
X138860983Y-106123133D01*
X138927865Y-106143348D01*
X138972382Y-106194725D01*
X138999429Y-106252728D01*
X138999432Y-106252734D01*
X139129954Y-106439141D01*
X139290858Y-106600045D01*
X139290861Y-106600047D01*
X139477266Y-106730568D01*
X139683504Y-106826739D01*
X139903308Y-106885635D01*
X140065230Y-106899801D01*
X140129998Y-106905468D01*
X140130000Y-106905468D01*
X140130002Y-106905468D01*
X140186807Y-106900498D01*
X140356692Y-106885635D01*
X140576496Y-106826739D01*
X140782734Y-106730568D01*
X140969139Y-106600047D01*
X141130047Y-106439139D01*
X141260568Y-106252734D01*
X141287618Y-106194724D01*
X141333790Y-106142285D01*
X141400983Y-106123133D01*
X141467865Y-106143348D01*
X141512382Y-106194725D01*
X141539429Y-106252728D01*
X141539432Y-106252734D01*
X141669954Y-106439141D01*
X141830858Y-106600045D01*
X141830861Y-106600047D01*
X142017266Y-106730568D01*
X142223504Y-106826739D01*
X142443308Y-106885635D01*
X142605230Y-106899801D01*
X142669998Y-106905468D01*
X142670000Y-106905468D01*
X142670002Y-106905468D01*
X142726807Y-106900498D01*
X142896692Y-106885635D01*
X143116496Y-106826739D01*
X143322734Y-106730568D01*
X143509139Y-106600047D01*
X143670047Y-106439139D01*
X143800568Y-106252734D01*
X143827618Y-106194724D01*
X143873790Y-106142285D01*
X143940983Y-106123133D01*
X144007865Y-106143348D01*
X144052382Y-106194725D01*
X144079429Y-106252728D01*
X144079432Y-106252734D01*
X144209954Y-106439141D01*
X144370858Y-106600045D01*
X144370861Y-106600047D01*
X144557266Y-106730568D01*
X144763504Y-106826739D01*
X144983308Y-106885635D01*
X145145230Y-106899801D01*
X145209998Y-106905468D01*
X145210000Y-106905468D01*
X145210002Y-106905468D01*
X145266807Y-106900498D01*
X145436692Y-106885635D01*
X145656496Y-106826739D01*
X145862734Y-106730568D01*
X146049139Y-106600047D01*
X146210047Y-106439139D01*
X146340568Y-106252734D01*
X146367895Y-106194129D01*
X146414064Y-106141695D01*
X146481257Y-106122542D01*
X146548139Y-106142757D01*
X146592657Y-106194133D01*
X146619865Y-106252482D01*
X146750342Y-106438820D01*
X146911179Y-106599657D01*
X147097517Y-106730134D01*
X147303673Y-106826265D01*
X147303682Y-106826269D01*
X147499999Y-106878872D01*
X147500000Y-106878871D01*
X147500000Y-105915686D01*
X147504394Y-105920080D01*
X147595606Y-105972741D01*
X147697339Y-106000000D01*
X147802661Y-106000000D01*
X147904394Y-105972741D01*
X147995606Y-105920080D01*
X148000000Y-105915686D01*
X148000000Y-106878872D01*
G37*
%TD.AperFunction*%
%TA.AperFunction,Conductor*%
G36*
X169689303Y-93524102D02*
G01*
X169770648Y-93605447D01*
X169804133Y-93666770D01*
X169806967Y-93693128D01*
X169806967Y-94004816D01*
X169787282Y-94071855D01*
X169755401Y-94099479D01*
X169772028Y-94108904D01*
X169804536Y-94170751D01*
X169806967Y-94195183D01*
X169806967Y-96499075D01*
X169787282Y-96566114D01*
X169747390Y-96600679D01*
X169772028Y-96614645D01*
X169804536Y-96676492D01*
X169806967Y-96700924D01*
X169806967Y-98999075D01*
X169787282Y-99066114D01*
X169747390Y-99100679D01*
X169772028Y-99114645D01*
X169804536Y-99176492D01*
X169806967Y-99200924D01*
X169806967Y-108007080D01*
X169787282Y-108074119D01*
X169770648Y-108094761D01*
X165944822Y-111920586D01*
X165883499Y-111954071D01*
X165825049Y-111952680D01*
X165756699Y-111934367D01*
X165756702Y-111934367D01*
X165756692Y-111934365D01*
X165756689Y-111934364D01*
X165756686Y-111934364D01*
X165530001Y-111914532D01*
X165529998Y-111914532D01*
X165303313Y-111934364D01*
X165303302Y-111934366D01*
X165083511Y-111993258D01*
X165083502Y-111993261D01*
X164877267Y-112089431D01*
X164877265Y-112089432D01*
X164690858Y-112219954D01*
X164529954Y-112380858D01*
X164399432Y-112567265D01*
X164399431Y-112567267D01*
X164372382Y-112625275D01*
X164326209Y-112677714D01*
X164259016Y-112696866D01*
X164192135Y-112676650D01*
X164147618Y-112625275D01*
X164129015Y-112585381D01*
X164120568Y-112567266D01*
X163990047Y-112380861D01*
X163990045Y-112380858D01*
X163829141Y-112219954D01*
X163642734Y-112089432D01*
X163642732Y-112089431D01*
X163436497Y-111993261D01*
X163436488Y-111993258D01*
X163216697Y-111934366D01*
X163216693Y-111934365D01*
X163216692Y-111934365D01*
X163216691Y-111934364D01*
X163216686Y-111934364D01*
X162990002Y-111914532D01*
X162989998Y-111914532D01*
X162763313Y-111934364D01*
X162763302Y-111934366D01*
X162543511Y-111993258D01*
X162543502Y-111993261D01*
X162337267Y-112089431D01*
X162337265Y-112089432D01*
X162150858Y-112219954D01*
X161989954Y-112380858D01*
X161859432Y-112567265D01*
X161859431Y-112567267D01*
X161832382Y-112625275D01*
X161786209Y-112677714D01*
X161719016Y-112696866D01*
X161652135Y-112676650D01*
X161607618Y-112625275D01*
X161589015Y-112585381D01*
X161580568Y-112567266D01*
X161450047Y-112380861D01*
X161450045Y-112380858D01*
X161289141Y-112219954D01*
X161102734Y-112089432D01*
X161102732Y-112089431D01*
X160896497Y-111993261D01*
X160896488Y-111993258D01*
X160676697Y-111934366D01*
X160676693Y-111934365D01*
X160676692Y-111934365D01*
X160676691Y-111934364D01*
X160676686Y-111934364D01*
X160450002Y-111914532D01*
X160449998Y-111914532D01*
X160223313Y-111934364D01*
X160223302Y-111934366D01*
X160003511Y-111993258D01*
X160003502Y-111993261D01*
X159797267Y-112089431D01*
X159797265Y-112089432D01*
X159610858Y-112219954D01*
X159449954Y-112380858D01*
X159319432Y-112567265D01*
X159319431Y-112567267D01*
X159292382Y-112625275D01*
X159246209Y-112677714D01*
X159179016Y-112696866D01*
X159112135Y-112676650D01*
X159067618Y-112625275D01*
X159049015Y-112585381D01*
X159040568Y-112567266D01*
X158910047Y-112380861D01*
X158910045Y-112380858D01*
X158885064Y-112355877D01*
X158851579Y-112294554D01*
X158856563Y-112224862D01*
X158885062Y-112180517D01*
X164259638Y-106805941D01*
X164320959Y-106772458D01*
X164390651Y-106777442D01*
X164421626Y-106794356D01*
X164485056Y-106841840D01*
X164487668Y-106843795D01*
X164487671Y-106843797D01*
X164622517Y-106894091D01*
X164622516Y-106894091D01*
X164629444Y-106894835D01*
X164682127Y-106900500D01*
X166377872Y-106900499D01*
X166437483Y-106894091D01*
X166572331Y-106843796D01*
X166687546Y-106757546D01*
X166773796Y-106642331D01*
X166824091Y-106507483D01*
X166830500Y-106447873D01*
X166830499Y-104752128D01*
X166824091Y-104692517D01*
X166820335Y-104682447D01*
X166773797Y-104557671D01*
X166773793Y-104557664D01*
X166687547Y-104442455D01*
X166687544Y-104442452D01*
X166572335Y-104356206D01*
X166572328Y-104356202D01*
X166437482Y-104305908D01*
X166437483Y-104305908D01*
X166377883Y-104299501D01*
X166377881Y-104299500D01*
X166377873Y-104299500D01*
X166377865Y-104299500D01*
X164864500Y-104299500D01*
X164797461Y-104279815D01*
X164751706Y-104227011D01*
X164740500Y-104175500D01*
X164740500Y-103595451D01*
X164760185Y-103528412D01*
X164776814Y-103507775D01*
X167916204Y-100368384D01*
X167977525Y-100334901D01*
X168035976Y-100336292D01*
X168079932Y-100348070D01*
X168235887Y-100361714D01*
X168299998Y-100367323D01*
X168300000Y-100367323D01*
X168300002Y-100367323D01*
X168355017Y-100362509D01*
X168520068Y-100348070D01*
X168733450Y-100290894D01*
X168933662Y-100197534D01*
X169114620Y-100070826D01*
X169270826Y-99914620D01*
X169397534Y-99733662D01*
X169490894Y-99533450D01*
X169548070Y-99320068D01*
X169559439Y-99190117D01*
X169584891Y-99125048D01*
X169618736Y-99100539D01*
X169601764Y-99092788D01*
X169563990Y-99034010D01*
X169559439Y-99009882D01*
X169557040Y-98982465D01*
X169548070Y-98879932D01*
X169490894Y-98666550D01*
X169397534Y-98466339D01*
X169301940Y-98329815D01*
X169270827Y-98285381D01*
X169270823Y-98285377D01*
X169114620Y-98129174D01*
X169114616Y-98129171D01*
X169114615Y-98129170D01*
X168933666Y-98002468D01*
X168933658Y-98002464D01*
X168847701Y-97962382D01*
X168795261Y-97916210D01*
X168776109Y-97849017D01*
X168796324Y-97782136D01*
X168847701Y-97737618D01*
X168933662Y-97697534D01*
X169114620Y-97570826D01*
X169270826Y-97414620D01*
X169397534Y-97233662D01*
X169490894Y-97033450D01*
X169548070Y-96820068D01*
X169559439Y-96690117D01*
X169584891Y-96625048D01*
X169618736Y-96600539D01*
X169601764Y-96592788D01*
X169563990Y-96534010D01*
X169559439Y-96509882D01*
X169554200Y-96450000D01*
X169548070Y-96379932D01*
X169490894Y-96166550D01*
X169397534Y-95966339D01*
X169270826Y-95785380D01*
X169114620Y-95629174D01*
X169114616Y-95629171D01*
X169114615Y-95629170D01*
X168933666Y-95502468D01*
X168933663Y-95502466D01*
X168933662Y-95502466D01*
X168873744Y-95474526D01*
X168847108Y-95462105D01*
X168794669Y-95415932D01*
X168775517Y-95348739D01*
X168795733Y-95281858D01*
X168847110Y-95237340D01*
X168933412Y-95197097D01*
X168933417Y-95197094D01*
X168998188Y-95151741D01*
X168327448Y-94481000D01*
X168350160Y-94481000D01*
X168447061Y-94455036D01*
X168533940Y-94404876D01*
X168604876Y-94333940D01*
X168655036Y-94247061D01*
X168681000Y-94150160D01*
X168681000Y-94127446D01*
X169351741Y-94798188D01*
X169397094Y-94733417D01*
X169397100Y-94733407D01*
X169490419Y-94533284D01*
X169490424Y-94533270D01*
X169547573Y-94319986D01*
X169547575Y-94319975D01*
X169559439Y-94184376D01*
X169584891Y-94119307D01*
X169609013Y-94101839D01*
X169601764Y-94098529D01*
X169563990Y-94039751D01*
X169559439Y-94015624D01*
X169547575Y-93880023D01*
X169547573Y-93880013D01*
X169490424Y-93666729D01*
X169490421Y-93666720D01*
X169489241Y-93664190D01*
X169489055Y-93662969D01*
X169488572Y-93661641D01*
X169488839Y-93661543D01*
X169478748Y-93595113D01*
X169507266Y-93531328D01*
X169565742Y-93493088D01*
X169635609Y-93492532D01*
X169689303Y-93524102D01*
G37*
%TD.AperFunction*%
%TA.AperFunction,Conductor*%
G36*
X165329423Y-85453510D02*
G01*
X165355019Y-85462298D01*
X165570911Y-85498324D01*
X165633794Y-85528773D01*
X165670234Y-85588388D01*
X165674500Y-85620632D01*
X165674500Y-89311817D01*
X165679786Y-89338390D01*
X165679786Y-89338393D01*
X165679787Y-89338393D01*
X165679787Y-89338394D01*
X165692041Y-89400003D01*
X165698538Y-89432664D01*
X165698538Y-89432665D01*
X165707490Y-89454275D01*
X165707491Y-89454279D01*
X165745686Y-89546492D01*
X165745690Y-89546500D01*
X165772602Y-89586774D01*
X165772603Y-89586775D01*
X165814141Y-89648941D01*
X165814144Y-89648945D01*
X165905586Y-89740387D01*
X165905608Y-89740407D01*
X168875897Y-92710696D01*
X168909382Y-92772019D01*
X168904398Y-92841711D01*
X168862526Y-92897644D01*
X168797062Y-92922061D01*
X168738426Y-92911242D01*
X168738359Y-92911428D01*
X168737258Y-92911027D01*
X168735815Y-92910761D01*
X168733280Y-92909579D01*
X168733270Y-92909575D01*
X168519986Y-92852426D01*
X168519976Y-92852424D01*
X168300001Y-92833179D01*
X168299999Y-92833179D01*
X168080023Y-92852424D01*
X168080013Y-92852426D01*
X167866729Y-92909575D01*
X167866720Y-92909579D01*
X167666590Y-93002901D01*
X167601811Y-93048258D01*
X168272554Y-93719000D01*
X168249840Y-93719000D01*
X168152939Y-93744964D01*
X168066060Y-93795124D01*
X167995124Y-93866060D01*
X167944964Y-93952939D01*
X167919000Y-94049840D01*
X167919000Y-94072553D01*
X167248258Y-93401811D01*
X167202901Y-93466590D01*
X167162658Y-93552891D01*
X167116485Y-93605330D01*
X167049292Y-93624482D01*
X166982411Y-93604266D01*
X166937894Y-93552891D01*
X166897534Y-93466340D01*
X166897533Y-93466338D01*
X166770827Y-93285381D01*
X166712641Y-93227195D01*
X166614620Y-93129174D01*
X166614616Y-93129171D01*
X166614615Y-93129170D01*
X166433666Y-93002468D01*
X166433662Y-93002466D01*
X166433660Y-93002465D01*
X166233450Y-92909106D01*
X166233447Y-92909105D01*
X166233445Y-92909104D01*
X166020070Y-92851930D01*
X166020062Y-92851929D01*
X165800002Y-92832677D01*
X165799998Y-92832677D01*
X165579937Y-92851929D01*
X165579929Y-92851930D01*
X165366554Y-92909104D01*
X165366550Y-92909106D01*
X165350908Y-92916400D01*
X165166340Y-93002465D01*
X165166338Y-93002466D01*
X164985377Y-93129175D01*
X164829175Y-93285377D01*
X164702466Y-93466338D01*
X164702465Y-93466340D01*
X164637653Y-93605330D01*
X164610207Y-93664190D01*
X164609107Y-93666548D01*
X164609104Y-93666554D01*
X164551930Y-93879929D01*
X164551929Y-93879937D01*
X164532677Y-94099997D01*
X164532677Y-94100002D01*
X164551929Y-94320062D01*
X164551930Y-94320070D01*
X164609104Y-94533445D01*
X164609105Y-94533447D01*
X164609106Y-94533450D01*
X164657072Y-94636313D01*
X164702466Y-94733662D01*
X164702468Y-94733666D01*
X164829170Y-94914615D01*
X164829175Y-94914621D01*
X164985378Y-95070824D01*
X164985384Y-95070829D01*
X165166333Y-95197531D01*
X165166335Y-95197532D01*
X165166338Y-95197534D01*
X165234193Y-95229175D01*
X165252299Y-95237618D01*
X165304738Y-95283790D01*
X165323890Y-95350984D01*
X165303674Y-95417865D01*
X165252299Y-95462382D01*
X165166340Y-95502465D01*
X165166338Y-95502466D01*
X164985377Y-95629175D01*
X164829175Y-95785377D01*
X164702466Y-95966338D01*
X164702465Y-95966340D01*
X164609107Y-96166548D01*
X164609104Y-96166554D01*
X164551930Y-96379929D01*
X164551929Y-96379937D01*
X164532677Y-96599997D01*
X164532677Y-96600002D01*
X164544205Y-96731786D01*
X164530438Y-96800286D01*
X164508358Y-96830273D01*
X157775451Y-103563181D01*
X157714128Y-103596666D01*
X157687770Y-103599500D01*
X151466080Y-103599500D01*
X151321092Y-103628340D01*
X151321086Y-103628342D01*
X151184508Y-103684914D01*
X151184496Y-103684921D01*
X151135270Y-103717811D01*
X151135271Y-103717812D01*
X151061581Y-103767049D01*
X150555348Y-104273282D01*
X150494025Y-104306767D01*
X150456861Y-104309129D01*
X150290003Y-104294532D01*
X150289998Y-104294532D01*
X150063313Y-104314364D01*
X150063302Y-104314366D01*
X149843511Y-104373258D01*
X149843502Y-104373261D01*
X149637267Y-104469431D01*
X149637265Y-104469432D01*
X149450858Y-104599954D01*
X149289954Y-104760858D01*
X149159433Y-104947264D01*
X149159432Y-104947266D01*
X149159315Y-104947518D01*
X149132106Y-105005867D01*
X149085933Y-105058306D01*
X149018739Y-105077457D01*
X148951858Y-105057241D01*
X148907342Y-105005865D01*
X148880135Y-104947520D01*
X148880134Y-104947518D01*
X148749657Y-104761179D01*
X148588820Y-104600342D01*
X148402482Y-104469865D01*
X148196328Y-104373734D01*
X148000000Y-104321127D01*
X148000000Y-105284314D01*
X147995606Y-105279920D01*
X147904394Y-105227259D01*
X147802661Y-105200000D01*
X147697339Y-105200000D01*
X147595606Y-105227259D01*
X147504394Y-105279920D01*
X147500000Y-105284314D01*
X147500000Y-104321127D01*
X147303671Y-104373734D01*
X147097517Y-104469865D01*
X146911179Y-104600342D01*
X146750342Y-104761179D01*
X146619867Y-104947515D01*
X146592657Y-105005867D01*
X146546484Y-105058306D01*
X146479290Y-105077457D01*
X146412409Y-105057241D01*
X146367893Y-105005865D01*
X146343735Y-104954059D01*
X146340568Y-104947266D01*
X146210047Y-104760861D01*
X146210045Y-104760858D01*
X146049141Y-104599954D01*
X145862734Y-104469432D01*
X145862732Y-104469431D01*
X145656497Y-104373261D01*
X145656488Y-104373258D01*
X145436697Y-104314366D01*
X145436693Y-104314365D01*
X145436692Y-104314365D01*
X145436691Y-104314364D01*
X145436686Y-104314364D01*
X145210002Y-104294532D01*
X145209999Y-104294532D01*
X144983313Y-104314364D01*
X144983296Y-104314367D01*
X144914949Y-104332680D01*
X144845099Y-104331016D01*
X144795177Y-104300586D01*
X144711819Y-104217228D01*
X144678334Y-104155905D01*
X144675500Y-104129547D01*
X144675500Y-102367799D01*
X144695185Y-102300760D01*
X144728377Y-102266224D01*
X144744584Y-102254876D01*
X144864620Y-102170826D01*
X145020826Y-102014620D01*
X145116225Y-101878376D01*
X145170802Y-101834752D01*
X145217800Y-101825500D01*
X147585812Y-101825500D01*
X147652851Y-101845185D01*
X147687387Y-101878377D01*
X147799954Y-102039141D01*
X147960858Y-102200045D01*
X148005835Y-102231538D01*
X148147266Y-102330568D01*
X148353504Y-102426739D01*
X148573308Y-102485635D01*
X148735230Y-102499801D01*
X148799998Y-102505468D01*
X148800000Y-102505468D01*
X148800002Y-102505468D01*
X148856673Y-102500509D01*
X149026692Y-102485635D01*
X149246496Y-102426739D01*
X149452734Y-102330568D01*
X149639139Y-102200047D01*
X149800047Y-102039139D01*
X149930568Y-101852734D01*
X150026739Y-101646496D01*
X150085635Y-101426692D01*
X150105468Y-101200000D01*
X150105468Y-101199997D01*
X152495034Y-101199997D01*
X152495034Y-101200002D01*
X152514858Y-101426599D01*
X152514860Y-101426610D01*
X152573730Y-101646317D01*
X152573735Y-101646331D01*
X152669863Y-101852478D01*
X152720974Y-101925472D01*
X153400000Y-101246446D01*
X153400000Y-101252661D01*
X153427259Y-101354394D01*
X153479920Y-101445606D01*
X153554394Y-101520080D01*
X153645606Y-101572741D01*
X153747339Y-101600000D01*
X153753553Y-101600000D01*
X153074526Y-102279025D01*
X153147513Y-102330132D01*
X153147521Y-102330136D01*
X153353668Y-102426264D01*
X153353682Y-102426269D01*
X153573389Y-102485139D01*
X153573400Y-102485141D01*
X153799998Y-102504966D01*
X153800002Y-102504966D01*
X154026599Y-102485141D01*
X154026610Y-102485139D01*
X154246317Y-102426269D01*
X154246331Y-102426264D01*
X154452478Y-102330136D01*
X154525471Y-102279024D01*
X153846447Y-101600000D01*
X153852661Y-101600000D01*
X153954394Y-101572741D01*
X154045606Y-101520080D01*
X154120080Y-101445606D01*
X154172741Y-101354394D01*
X154200000Y-101252661D01*
X154200000Y-101246447D01*
X154879024Y-101925471D01*
X154930136Y-101852478D01*
X155026264Y-101646331D01*
X155026269Y-101646317D01*
X155085139Y-101426610D01*
X155085141Y-101426599D01*
X155104966Y-101200002D01*
X155104966Y-101199997D01*
X155085141Y-100973400D01*
X155085139Y-100973389D01*
X155026269Y-100753682D01*
X155026264Y-100753668D01*
X154930136Y-100547521D01*
X154930132Y-100547513D01*
X154879025Y-100474526D01*
X154200000Y-101153551D01*
X154200000Y-101147339D01*
X154172741Y-101045606D01*
X154120080Y-100954394D01*
X154045606Y-100879920D01*
X153954394Y-100827259D01*
X153852661Y-100800000D01*
X153846445Y-100800000D01*
X154525472Y-100120974D01*
X154452478Y-100069863D01*
X154246331Y-99973735D01*
X154246317Y-99973730D01*
X154026610Y-99914860D01*
X154026599Y-99914858D01*
X153800002Y-99895034D01*
X153799998Y-99895034D01*
X153573400Y-99914858D01*
X153573389Y-99914860D01*
X153353682Y-99973730D01*
X153353673Y-99973734D01*
X153147516Y-100069866D01*
X153147512Y-100069868D01*
X153074526Y-100120973D01*
X153074526Y-100120974D01*
X153753553Y-100800000D01*
X153747339Y-100800000D01*
X153645606Y-100827259D01*
X153554394Y-100879920D01*
X153479920Y-100954394D01*
X153427259Y-101045606D01*
X153400000Y-101147339D01*
X153400000Y-101153552D01*
X152720974Y-100474526D01*
X152720973Y-100474526D01*
X152669868Y-100547512D01*
X152669866Y-100547516D01*
X152573734Y-100753673D01*
X152573730Y-100753682D01*
X152514860Y-100973389D01*
X152514858Y-100973400D01*
X152495034Y-101199997D01*
X150105468Y-101199997D01*
X150103481Y-101177293D01*
X150098116Y-101115970D01*
X150085635Y-100973308D01*
X150026739Y-100753504D01*
X149930568Y-100547266D01*
X149825452Y-100397143D01*
X149800045Y-100360858D01*
X149639141Y-100199954D01*
X149452734Y-100069432D01*
X149452732Y-100069431D01*
X149246497Y-99973261D01*
X149246488Y-99973258D01*
X149026697Y-99914366D01*
X149026693Y-99914365D01*
X149026692Y-99914365D01*
X149026691Y-99914364D01*
X149026686Y-99914364D01*
X148800002Y-99894532D01*
X148799998Y-99894532D01*
X148573313Y-99914364D01*
X148573302Y-99914366D01*
X148353511Y-99973258D01*
X148353502Y-99973261D01*
X148147267Y-100069431D01*
X148147265Y-100069432D01*
X147960858Y-100199954D01*
X147799954Y-100360858D01*
X147687387Y-100521623D01*
X147632811Y-100565248D01*
X147585812Y-100574500D01*
X145217799Y-100574500D01*
X145150760Y-100554815D01*
X145116224Y-100521623D01*
X145020827Y-100385381D01*
X144953209Y-100317763D01*
X144864620Y-100229174D01*
X144864616Y-100229171D01*
X144864615Y-100229170D01*
X144683666Y-100102468D01*
X144683662Y-100102466D01*
X144615816Y-100070829D01*
X144483450Y-100009106D01*
X144483447Y-100009105D01*
X144483445Y-100009104D01*
X144270070Y-99951930D01*
X144270062Y-99951929D01*
X144050002Y-99932677D01*
X144049998Y-99932677D01*
X143829937Y-99951929D01*
X143829929Y-99951930D01*
X143616554Y-100009104D01*
X143616548Y-100009107D01*
X143471905Y-100076555D01*
X143402827Y-100087047D01*
X143339043Y-100058527D01*
X143300804Y-100000050D01*
X143295500Y-99964173D01*
X143295500Y-97890452D01*
X143315185Y-97823413D01*
X143331819Y-97802771D01*
X143437059Y-97697531D01*
X143666205Y-97468384D01*
X143727526Y-97434901D01*
X143785976Y-97436291D01*
X143829932Y-97448070D01*
X143987123Y-97461822D01*
X144049998Y-97467323D01*
X144050000Y-97467323D01*
X144050002Y-97467323D01*
X144109346Y-97462131D01*
X144270068Y-97448070D01*
X144483450Y-97390894D01*
X144683662Y-97297534D01*
X144864620Y-97170826D01*
X145020826Y-97014620D01*
X145116225Y-96878376D01*
X145170802Y-96834752D01*
X145217800Y-96825500D01*
X147535812Y-96825500D01*
X147602851Y-96845185D01*
X147637387Y-96878377D01*
X147749954Y-97039141D01*
X147910858Y-97200045D01*
X147910861Y-97200047D01*
X148097266Y-97330568D01*
X148303504Y-97426739D01*
X148523308Y-97485635D01*
X148685230Y-97499801D01*
X148749998Y-97505468D01*
X148750000Y-97505468D01*
X148750002Y-97505468D01*
X148806673Y-97500509D01*
X148976692Y-97485635D01*
X149196496Y-97426739D01*
X149402734Y-97330568D01*
X149589139Y-97200047D01*
X149750047Y-97039139D01*
X149880568Y-96852734D01*
X149976739Y-96646496D01*
X150035635Y-96426692D01*
X150055468Y-96200000D01*
X150055468Y-96199997D01*
X152445034Y-96199997D01*
X152445034Y-96200002D01*
X152464858Y-96426599D01*
X152464860Y-96426610D01*
X152523730Y-96646317D01*
X152523735Y-96646331D01*
X152619863Y-96852478D01*
X152670974Y-96925472D01*
X153350000Y-96246446D01*
X153350000Y-96252661D01*
X153377259Y-96354394D01*
X153429920Y-96445606D01*
X153504394Y-96520080D01*
X153595606Y-96572741D01*
X153697339Y-96600000D01*
X153703553Y-96600000D01*
X153024526Y-97279025D01*
X153097513Y-97330132D01*
X153097521Y-97330136D01*
X153303668Y-97426264D01*
X153303682Y-97426269D01*
X153523389Y-97485139D01*
X153523400Y-97485141D01*
X153749998Y-97504966D01*
X153750002Y-97504966D01*
X153976599Y-97485141D01*
X153976610Y-97485139D01*
X154196317Y-97426269D01*
X154196331Y-97426264D01*
X154402478Y-97330136D01*
X154475471Y-97279024D01*
X153796447Y-96600000D01*
X153802661Y-96600000D01*
X153904394Y-96572741D01*
X153995606Y-96520080D01*
X154070080Y-96445606D01*
X154122741Y-96354394D01*
X154150000Y-96252661D01*
X154150000Y-96246447D01*
X154829024Y-96925471D01*
X154880136Y-96852478D01*
X154976264Y-96646331D01*
X154976269Y-96646317D01*
X155035139Y-96426610D01*
X155035141Y-96426599D01*
X155054966Y-96200002D01*
X155054966Y-96199997D01*
X155035141Y-95973400D01*
X155035139Y-95973389D01*
X154976269Y-95753682D01*
X154976264Y-95753668D01*
X154880136Y-95547521D01*
X154880132Y-95547513D01*
X154829025Y-95474526D01*
X154150000Y-96153551D01*
X154150000Y-96147339D01*
X154122741Y-96045606D01*
X154070080Y-95954394D01*
X153995606Y-95879920D01*
X153904394Y-95827259D01*
X153802661Y-95800000D01*
X153796445Y-95800000D01*
X154475472Y-95120974D01*
X154402478Y-95069863D01*
X154196331Y-94973735D01*
X154196317Y-94973730D01*
X153976610Y-94914860D01*
X153976599Y-94914858D01*
X153750002Y-94895034D01*
X153749998Y-94895034D01*
X153523400Y-94914858D01*
X153523389Y-94914860D01*
X153303682Y-94973730D01*
X153303673Y-94973734D01*
X153097516Y-95069866D01*
X153097512Y-95069868D01*
X153024526Y-95120973D01*
X153024526Y-95120974D01*
X153703553Y-95800000D01*
X153697339Y-95800000D01*
X153595606Y-95827259D01*
X153504394Y-95879920D01*
X153429920Y-95954394D01*
X153377259Y-96045606D01*
X153350000Y-96147339D01*
X153350000Y-96153552D01*
X152670974Y-95474526D01*
X152670973Y-95474526D01*
X152619868Y-95547512D01*
X152619866Y-95547516D01*
X152523734Y-95753673D01*
X152523730Y-95753682D01*
X152464860Y-95973389D01*
X152464858Y-95973400D01*
X152445034Y-96199997D01*
X150055468Y-96199997D01*
X150055467Y-96199993D01*
X150047134Y-96104738D01*
X150035635Y-95973308D01*
X149980234Y-95766548D01*
X149976741Y-95753511D01*
X149976738Y-95753502D01*
X149918763Y-95629175D01*
X149880568Y-95547266D01*
X149750047Y-95360861D01*
X149750045Y-95360858D01*
X149589141Y-95199954D01*
X149402734Y-95069432D01*
X149402732Y-95069431D01*
X149196497Y-94973261D01*
X149196488Y-94973258D01*
X148976697Y-94914366D01*
X148976693Y-94914365D01*
X148976692Y-94914365D01*
X148976691Y-94914364D01*
X148976686Y-94914364D01*
X148750002Y-94894532D01*
X148749998Y-94894532D01*
X148523313Y-94914364D01*
X148523302Y-94914366D01*
X148303511Y-94973258D01*
X148303502Y-94973261D01*
X148097267Y-95069431D01*
X148097265Y-95069432D01*
X147910858Y-95199954D01*
X147749954Y-95360858D01*
X147637387Y-95521623D01*
X147582811Y-95565248D01*
X147535812Y-95574500D01*
X145217799Y-95574500D01*
X145150760Y-95554815D01*
X145116224Y-95521623D01*
X145020827Y-95385381D01*
X144968123Y-95332677D01*
X144864620Y-95229174D01*
X144864616Y-95229171D01*
X144864615Y-95229170D01*
X144683666Y-95102468D01*
X144683662Y-95102466D01*
X144615816Y-95070829D01*
X144483450Y-95009106D01*
X144483447Y-95009105D01*
X144483445Y-95009104D01*
X144270070Y-94951930D01*
X144270062Y-94951929D01*
X144050002Y-94932677D01*
X144049998Y-94932677D01*
X143829937Y-94951929D01*
X143829929Y-94951930D01*
X143616554Y-95009104D01*
X143616548Y-95009107D01*
X143416340Y-95102465D01*
X143416338Y-95102466D01*
X143235377Y-95229175D01*
X143079175Y-95385377D01*
X142952466Y-95566338D01*
X142952465Y-95566340D01*
X142859107Y-95766548D01*
X142859104Y-95766554D01*
X142801930Y-95979929D01*
X142801929Y-95979937D01*
X142782677Y-96199997D01*
X142782677Y-96200002D01*
X142786081Y-96238905D01*
X142801930Y-96420068D01*
X142809950Y-96450000D01*
X142813707Y-96464019D01*
X142812044Y-96533869D01*
X142781613Y-96583794D01*
X142271269Y-97094140D01*
X142184141Y-97181267D01*
X142176581Y-97192582D01*
X142171594Y-97200047D01*
X142115690Y-97283710D01*
X142115687Y-97283716D01*
X142096280Y-97330567D01*
X142096281Y-97330568D01*
X142068536Y-97397549D01*
X142068535Y-97397555D01*
X142044500Y-97518389D01*
X142044500Y-104385811D01*
X142024815Y-104452850D01*
X141991623Y-104487386D01*
X141830859Y-104599953D01*
X141669954Y-104760858D01*
X141539432Y-104947265D01*
X141539431Y-104947267D01*
X141512382Y-105005275D01*
X141466209Y-105057714D01*
X141399016Y-105076866D01*
X141332135Y-105056650D01*
X141287618Y-105005275D01*
X141263736Y-104954060D01*
X141260568Y-104947266D01*
X141130047Y-104760861D01*
X141130045Y-104760858D01*
X140969141Y-104599954D01*
X140782734Y-104469432D01*
X140782732Y-104469431D01*
X140576497Y-104373261D01*
X140576488Y-104373258D01*
X140356697Y-104314366D01*
X140356693Y-104314365D01*
X140356692Y-104314365D01*
X140356691Y-104314364D01*
X140356686Y-104314364D01*
X140130002Y-104294532D01*
X140129998Y-104294532D01*
X139903313Y-104314364D01*
X139903302Y-104314366D01*
X139683511Y-104373258D01*
X139683502Y-104373261D01*
X139477267Y-104469431D01*
X139477265Y-104469432D01*
X139290858Y-104599954D01*
X139129954Y-104760858D01*
X138999432Y-104947265D01*
X138999431Y-104947267D01*
X138972382Y-105005275D01*
X138926209Y-105057714D01*
X138859016Y-105076866D01*
X138792135Y-105056650D01*
X138747618Y-105005275D01*
X138723736Y-104954060D01*
X138720568Y-104947266D01*
X138590047Y-104760861D01*
X138590045Y-104760858D01*
X138429141Y-104599954D01*
X138242734Y-104469432D01*
X138242732Y-104469431D01*
X138036497Y-104373261D01*
X138036488Y-104373258D01*
X137816697Y-104314366D01*
X137816693Y-104314365D01*
X137816692Y-104314365D01*
X137816691Y-104314364D01*
X137816686Y-104314364D01*
X137590002Y-104294532D01*
X137589998Y-104294532D01*
X137363313Y-104314364D01*
X137363302Y-104314366D01*
X137143511Y-104373258D01*
X137143502Y-104373261D01*
X136937267Y-104469431D01*
X136937265Y-104469432D01*
X136750858Y-104599954D01*
X136589954Y-104760858D01*
X136459432Y-104947265D01*
X136459431Y-104947267D01*
X136432382Y-105005275D01*
X136386209Y-105057714D01*
X136319016Y-105076866D01*
X136252135Y-105056650D01*
X136207618Y-105005275D01*
X136183736Y-104954060D01*
X136180568Y-104947266D01*
X136050047Y-104760861D01*
X136050045Y-104760858D01*
X135889141Y-104599954D01*
X135702734Y-104469432D01*
X135702732Y-104469431D01*
X135496497Y-104373261D01*
X135496488Y-104373258D01*
X135276697Y-104314366D01*
X135276693Y-104314365D01*
X135276692Y-104314365D01*
X135276691Y-104314364D01*
X135276686Y-104314364D01*
X135050002Y-104294532D01*
X135049998Y-104294532D01*
X134823313Y-104314364D01*
X134823302Y-104314366D01*
X134603511Y-104373258D01*
X134603502Y-104373261D01*
X134397267Y-104469431D01*
X134397265Y-104469432D01*
X134210858Y-104599954D01*
X134049954Y-104760858D01*
X133919432Y-104947265D01*
X133919431Y-104947267D01*
X133892382Y-105005275D01*
X133846209Y-105057714D01*
X133779016Y-105076866D01*
X133712135Y-105056650D01*
X133667618Y-105005275D01*
X133643736Y-104954060D01*
X133640568Y-104947266D01*
X133510047Y-104760861D01*
X133510045Y-104760858D01*
X133349141Y-104599954D01*
X133162734Y-104469432D01*
X133162732Y-104469431D01*
X132956497Y-104373261D01*
X132956488Y-104373258D01*
X132736697Y-104314366D01*
X132736693Y-104314365D01*
X132736692Y-104314365D01*
X132736691Y-104314364D01*
X132736686Y-104314364D01*
X132510002Y-104294532D01*
X132509998Y-104294532D01*
X132283313Y-104314364D01*
X132283302Y-104314366D01*
X132063511Y-104373258D01*
X132063502Y-104373261D01*
X131857267Y-104469431D01*
X131857265Y-104469432D01*
X131670858Y-104599954D01*
X131509954Y-104760858D01*
X131379432Y-104947265D01*
X131379431Y-104947267D01*
X131286882Y-105145739D01*
X131240709Y-105198178D01*
X131173516Y-105217330D01*
X131106635Y-105197114D01*
X131061300Y-105143949D01*
X131050500Y-105093334D01*
X131050500Y-100716232D01*
X131050499Y-100716228D01*
X131017818Y-100551925D01*
X131017816Y-100551922D01*
X131017816Y-100551918D01*
X130996533Y-100500536D01*
X130993847Y-100494051D01*
X130953707Y-100397143D01*
X130953700Y-100397130D01*
X130860627Y-100257838D01*
X130860624Y-100257834D01*
X129142165Y-98539375D01*
X129142161Y-98539372D01*
X129002866Y-98446297D01*
X129002863Y-98446296D01*
X128893416Y-98400962D01*
X128893414Y-98400961D01*
X128848086Y-98382185D01*
X128848074Y-98382182D01*
X128683771Y-98349500D01*
X128683767Y-98349500D01*
X126183767Y-98349500D01*
X119483767Y-98349500D01*
X119403651Y-98349500D01*
X119336612Y-98329815D01*
X119315970Y-98313181D01*
X117303017Y-96300228D01*
X117269532Y-96238905D01*
X117267405Y-96205414D01*
X117267323Y-96205414D01*
X117267323Y-96204116D01*
X117267171Y-96201731D01*
X117267323Y-96200000D01*
X117267323Y-96199997D01*
X124732677Y-96199997D01*
X124732677Y-96200002D01*
X124751929Y-96420062D01*
X124751930Y-96420070D01*
X124809104Y-96633445D01*
X124809105Y-96633447D01*
X124809106Y-96633450D01*
X124840570Y-96700924D01*
X124902466Y-96833662D01*
X124902468Y-96833666D01*
X125029170Y-97014615D01*
X125029175Y-97014621D01*
X125185378Y-97170824D01*
X125185384Y-97170829D01*
X125366333Y-97297531D01*
X125366335Y-97297532D01*
X125366338Y-97297534D01*
X125566550Y-97390894D01*
X125779932Y-97448070D01*
X125937123Y-97461822D01*
X125999998Y-97467323D01*
X126000000Y-97467323D01*
X126000002Y-97467323D01*
X126059346Y-97462131D01*
X126220068Y-97448070D01*
X126433450Y-97390894D01*
X126633662Y-97297534D01*
X126814620Y-97170826D01*
X126970826Y-97014620D01*
X126971603Y-97013509D01*
X126978700Y-97003376D01*
X127033277Y-96959751D01*
X127080274Y-96950500D01*
X127610315Y-96950500D01*
X127677354Y-96970185D01*
X127714123Y-97006678D01*
X127751015Y-97063145D01*
X127751017Y-97063147D01*
X127751021Y-97063153D01*
X127908216Y-97233913D01*
X127908219Y-97233915D01*
X127908222Y-97233918D01*
X128091365Y-97376464D01*
X128091371Y-97376468D01*
X128091374Y-97376470D01*
X128295497Y-97486936D01*
X128387131Y-97518394D01*
X128515015Y-97562297D01*
X128515017Y-97562297D01*
X128515019Y-97562298D01*
X128743951Y-97600500D01*
X128743952Y-97600500D01*
X128976048Y-97600500D01*
X128976049Y-97600500D01*
X129204981Y-97562298D01*
X129424503Y-97486936D01*
X129628626Y-97376470D01*
X129811784Y-97233913D01*
X129820511Y-97224432D01*
X129880394Y-97188441D01*
X129950232Y-97190538D01*
X130007850Y-97230060D01*
X130027924Y-97265080D01*
X130056645Y-97342086D01*
X130056649Y-97342093D01*
X130142809Y-97457187D01*
X130142812Y-97457190D01*
X130257906Y-97543350D01*
X130257913Y-97543354D01*
X130392620Y-97593596D01*
X130392627Y-97593598D01*
X130452155Y-97599999D01*
X130452172Y-97600000D01*
X131150000Y-97600000D01*
X131150000Y-96575277D01*
X131226306Y-96619333D01*
X131340756Y-96650000D01*
X131459244Y-96650000D01*
X131573694Y-96619333D01*
X131650000Y-96575277D01*
X131650000Y-97600000D01*
X132347828Y-97600000D01*
X132347844Y-97599999D01*
X132407372Y-97593598D01*
X132407379Y-97593596D01*
X132542086Y-97543354D01*
X132542093Y-97543350D01*
X132657187Y-97457190D01*
X132657190Y-97457187D01*
X132743350Y-97342093D01*
X132743354Y-97342086D01*
X132793596Y-97207379D01*
X132793598Y-97207372D01*
X132799999Y-97147844D01*
X132800000Y-97147827D01*
X132800000Y-96450000D01*
X131775278Y-96450000D01*
X131819333Y-96373694D01*
X131850000Y-96259244D01*
X131850000Y-96140756D01*
X131819333Y-96026306D01*
X131775278Y-95950000D01*
X132800000Y-95950000D01*
X132800000Y-95252172D01*
X132799999Y-95252155D01*
X132793598Y-95192627D01*
X132793596Y-95192620D01*
X132743354Y-95057913D01*
X132743350Y-95057906D01*
X132657190Y-94942812D01*
X132657187Y-94942809D01*
X132542093Y-94856649D01*
X132542086Y-94856645D01*
X132407379Y-94806403D01*
X132407372Y-94806401D01*
X132347844Y-94800000D01*
X131650000Y-94800000D01*
X131650000Y-95824722D01*
X131573694Y-95780667D01*
X131459244Y-95750000D01*
X131340756Y-95750000D01*
X131226306Y-95780667D01*
X131150000Y-95824722D01*
X131150000Y-94800000D01*
X130452155Y-94800000D01*
X130392627Y-94806401D01*
X130392620Y-94806403D01*
X130257913Y-94856645D01*
X130257906Y-94856649D01*
X130142812Y-94942809D01*
X130142809Y-94942812D01*
X130056649Y-95057906D01*
X130056646Y-95057911D01*
X130027924Y-95134920D01*
X129986052Y-95190853D01*
X129920588Y-95215270D01*
X129852315Y-95200418D01*
X129820514Y-95175571D01*
X129811784Y-95166087D01*
X129811779Y-95166083D01*
X129811777Y-95166081D01*
X129628634Y-95023535D01*
X129628628Y-95023531D01*
X129424504Y-94913064D01*
X129424495Y-94913061D01*
X129204984Y-94837702D01*
X129017404Y-94806401D01*
X128976049Y-94799500D01*
X128743951Y-94799500D01*
X128702596Y-94806401D01*
X128515015Y-94837702D01*
X128295504Y-94913061D01*
X128295495Y-94913064D01*
X128091371Y-95023531D01*
X128091365Y-95023535D01*
X127908222Y-95166081D01*
X127908219Y-95166084D01*
X127908216Y-95166086D01*
X127908216Y-95166087D01*
X127795181Y-95288877D01*
X127751015Y-95336854D01*
X127714123Y-95393322D01*
X127660977Y-95438678D01*
X127610315Y-95449500D01*
X127080274Y-95449500D01*
X127013235Y-95429815D01*
X126978700Y-95396624D01*
X126970828Y-95385382D01*
X126918123Y-95332677D01*
X126814620Y-95229174D01*
X126814616Y-95229171D01*
X126814615Y-95229170D01*
X126633666Y-95102468D01*
X126633662Y-95102466D01*
X126565816Y-95070829D01*
X126433450Y-95009106D01*
X126433447Y-95009105D01*
X126433445Y-95009104D01*
X126220070Y-94951930D01*
X126220062Y-94951929D01*
X126000002Y-94932677D01*
X125999998Y-94932677D01*
X125779937Y-94951929D01*
X125779929Y-94951930D01*
X125566554Y-95009104D01*
X125566548Y-95009107D01*
X125366340Y-95102465D01*
X125366338Y-95102466D01*
X125185377Y-95229175D01*
X125029175Y-95385377D01*
X124902466Y-95566338D01*
X124902465Y-95566340D01*
X124809107Y-95766548D01*
X124809104Y-95766554D01*
X124751930Y-95979929D01*
X124751929Y-95979937D01*
X124732677Y-96199997D01*
X117267323Y-96199997D01*
X117248070Y-95979932D01*
X117190894Y-95766550D01*
X117097534Y-95566339D01*
X117017992Y-95452741D01*
X116970827Y-95385381D01*
X116918123Y-95332677D01*
X116814620Y-95229174D01*
X116678376Y-95133775D01*
X116634752Y-95079198D01*
X116625500Y-95032200D01*
X116625500Y-90460711D01*
X116645185Y-90393672D01*
X116661814Y-90373034D01*
X117590982Y-89443866D01*
X117652305Y-89410382D01*
X117721997Y-89415366D01*
X117777930Y-89457238D01*
X117801602Y-89515364D01*
X117813989Y-89609469D01*
X117816094Y-89617322D01*
X117812814Y-89618200D01*
X117818581Y-89672073D01*
X117815517Y-89682522D01*
X117816095Y-89682677D01*
X117813990Y-89690529D01*
X117799500Y-89800598D01*
X117799500Y-89999403D01*
X117813989Y-90109468D01*
X117816094Y-90117322D01*
X117812814Y-90118200D01*
X117818581Y-90172073D01*
X117815517Y-90182522D01*
X117816095Y-90182677D01*
X117813990Y-90190529D01*
X117799500Y-90300598D01*
X117799500Y-90499403D01*
X117813989Y-90609468D01*
X117816094Y-90617322D01*
X117812814Y-90618200D01*
X117818581Y-90672073D01*
X117815517Y-90682522D01*
X117816095Y-90682677D01*
X117813990Y-90690529D01*
X117799500Y-90800598D01*
X117799500Y-90999403D01*
X117813988Y-91109463D01*
X117813991Y-91109472D01*
X117864821Y-91232187D01*
X117870721Y-91246429D01*
X117960964Y-91364036D01*
X118078571Y-91454279D01*
X118215528Y-91511009D01*
X118325599Y-91525500D01*
X118900500Y-91525499D01*
X118967539Y-91545183D01*
X119013294Y-91597987D01*
X119024500Y-91649499D01*
X119024500Y-92224403D01*
X119038988Y-92334463D01*
X119038991Y-92334472D01*
X119079718Y-92432796D01*
X119095721Y-92471429D01*
X119185964Y-92589036D01*
X119303571Y-92679279D01*
X119440528Y-92736009D01*
X119550599Y-92750500D01*
X119749400Y-92750499D01*
X119749401Y-92750499D01*
X119766087Y-92748302D01*
X119859472Y-92736009D01*
X119859475Y-92736007D01*
X119867326Y-92733905D01*
X119868210Y-92737207D01*
X119921925Y-92731392D01*
X119932514Y-92734501D01*
X119932674Y-92733905D01*
X119940524Y-92736008D01*
X119940526Y-92736008D01*
X119940528Y-92736009D01*
X120050599Y-92750500D01*
X120249400Y-92750499D01*
X120249401Y-92750499D01*
X120266087Y-92748302D01*
X120359472Y-92736009D01*
X120359475Y-92736007D01*
X120367326Y-92733905D01*
X120368210Y-92737207D01*
X120421925Y-92731392D01*
X120432514Y-92734501D01*
X120432674Y-92733905D01*
X120440524Y-92736008D01*
X120440526Y-92736008D01*
X120440528Y-92736009D01*
X120550599Y-92750500D01*
X120749400Y-92750499D01*
X120749401Y-92750499D01*
X120766087Y-92748302D01*
X120859472Y-92736009D01*
X120859475Y-92736007D01*
X120867326Y-92733905D01*
X120868210Y-92737207D01*
X120921925Y-92731392D01*
X120932514Y-92734501D01*
X120932674Y-92733905D01*
X120940524Y-92736008D01*
X120940526Y-92736008D01*
X120940528Y-92736009D01*
X121050599Y-92750500D01*
X121249400Y-92750499D01*
X121249401Y-92750499D01*
X121266087Y-92748302D01*
X121359472Y-92736009D01*
X121359475Y-92736007D01*
X121367326Y-92733905D01*
X121368210Y-92737207D01*
X121421925Y-92731392D01*
X121432514Y-92734501D01*
X121432674Y-92733905D01*
X121440524Y-92736008D01*
X121440526Y-92736008D01*
X121440528Y-92736009D01*
X121550599Y-92750500D01*
X121749400Y-92750499D01*
X121749401Y-92750499D01*
X121766087Y-92748302D01*
X121859472Y-92736009D01*
X121859475Y-92736007D01*
X121867326Y-92733905D01*
X121868210Y-92737207D01*
X121921925Y-92731392D01*
X121932514Y-92734501D01*
X121932674Y-92733905D01*
X121940524Y-92736008D01*
X121940526Y-92736008D01*
X121940528Y-92736009D01*
X122050599Y-92750500D01*
X122249400Y-92750499D01*
X122249401Y-92750499D01*
X122266087Y-92748302D01*
X122359472Y-92736009D01*
X122359475Y-92736007D01*
X122367326Y-92733905D01*
X122368210Y-92737207D01*
X122421925Y-92731392D01*
X122432514Y-92734501D01*
X122432674Y-92733905D01*
X122440524Y-92736008D01*
X122440526Y-92736008D01*
X122440528Y-92736009D01*
X122550599Y-92750500D01*
X122749400Y-92750499D01*
X122749403Y-92750499D01*
X122859463Y-92736011D01*
X122859467Y-92736009D01*
X122859472Y-92736009D01*
X122996429Y-92679279D01*
X123114036Y-92589036D01*
X123204279Y-92471429D01*
X123261009Y-92334472D01*
X123275500Y-92224401D01*
X123275499Y-91649498D01*
X123295183Y-91582460D01*
X123347987Y-91536705D01*
X123399499Y-91525499D01*
X123974403Y-91525499D01*
X124084463Y-91511011D01*
X124084467Y-91511009D01*
X124084472Y-91511009D01*
X124221429Y-91454279D01*
X124339036Y-91364036D01*
X124429279Y-91246429D01*
X124486009Y-91109472D01*
X124498398Y-91015362D01*
X124526664Y-90951468D01*
X124584988Y-90912996D01*
X124654853Y-90912164D01*
X124709018Y-90943868D01*
X125460756Y-91695606D01*
X125460785Y-91695637D01*
X125551004Y-91785856D01*
X125551007Y-91785858D01*
X125627930Y-91837256D01*
X125653450Y-91854309D01*
X125653452Y-91854310D01*
X125653455Y-91854312D01*
X125720136Y-91881931D01*
X125720138Y-91881933D01*
X125767283Y-91901461D01*
X125767288Y-91901463D01*
X125796955Y-91907363D01*
X125823720Y-91912688D01*
X125823740Y-91912691D01*
X125823762Y-91912696D01*
X125888131Y-91925499D01*
X125888132Y-91925500D01*
X125888133Y-91925500D01*
X125888134Y-91925500D01*
X152755145Y-91925500D01*
X152821117Y-91944506D01*
X152945674Y-92022771D01*
X152950478Y-92025789D01*
X153045647Y-92059090D01*
X153120745Y-92085368D01*
X153120750Y-92085369D01*
X153299996Y-92105565D01*
X153300000Y-92105565D01*
X153300004Y-92105565D01*
X153479249Y-92085369D01*
X153479252Y-92085368D01*
X153479255Y-92085368D01*
X153649522Y-92025789D01*
X153802262Y-91929816D01*
X153929816Y-91802262D01*
X154025789Y-91649522D01*
X154085368Y-91479255D01*
X154088182Y-91454280D01*
X154098091Y-91366340D01*
X154125157Y-91301926D01*
X154182752Y-91262371D01*
X154221311Y-91256224D01*
X159230884Y-91256224D01*
X159230884Y-91256223D01*
X159320527Y-91238393D01*
X159320528Y-91238393D01*
X159331022Y-91236305D01*
X159351728Y-91232187D01*
X159351733Y-91232184D01*
X159351736Y-91232184D01*
X159385063Y-91218378D01*
X159385062Y-91218378D01*
X159385068Y-91218376D01*
X159465562Y-91185036D01*
X159528199Y-91143182D01*
X159568009Y-91116582D01*
X159655134Y-91029457D01*
X159655134Y-91029455D01*
X159665342Y-91019248D01*
X159665343Y-91019245D01*
X165201481Y-85483108D01*
X165262802Y-85449625D01*
X165329423Y-85453510D01*
G37*
%TD.AperFunction*%
%TA.AperFunction,Conductor*%
G36*
X167919000Y-94150160D02*
G01*
X167944964Y-94247061D01*
X167995124Y-94333940D01*
X168066060Y-94404876D01*
X168152939Y-94455036D01*
X168249840Y-94481000D01*
X168272553Y-94481000D01*
X167601810Y-95151740D01*
X167666589Y-95197098D01*
X167752891Y-95237342D01*
X167805330Y-95283514D01*
X167824482Y-95350708D01*
X167804266Y-95417589D01*
X167752891Y-95462106D01*
X167666340Y-95502465D01*
X167666338Y-95502466D01*
X167485377Y-95629175D01*
X167329175Y-95785377D01*
X167202466Y-95966338D01*
X167202465Y-95966340D01*
X167162382Y-96052299D01*
X167116209Y-96104738D01*
X167049016Y-96123890D01*
X166982135Y-96103674D01*
X166937618Y-96052299D01*
X166925497Y-96026306D01*
X166897534Y-95966339D01*
X166770826Y-95785380D01*
X166614620Y-95629174D01*
X166614616Y-95629171D01*
X166614615Y-95629170D01*
X166433666Y-95502468D01*
X166433658Y-95502464D01*
X166347701Y-95462382D01*
X166295261Y-95416210D01*
X166276109Y-95349017D01*
X166296324Y-95282136D01*
X166347701Y-95237618D01*
X166365807Y-95229175D01*
X166433662Y-95197534D01*
X166614620Y-95070826D01*
X166770826Y-94914620D01*
X166897534Y-94733662D01*
X166937894Y-94647108D01*
X166984066Y-94594669D01*
X167051259Y-94575517D01*
X167118140Y-94595732D01*
X167162658Y-94647109D01*
X167202898Y-94733405D01*
X167202901Y-94733411D01*
X167248258Y-94798187D01*
X167248258Y-94798188D01*
X167919000Y-94127446D01*
X167919000Y-94150160D01*
G37*
%TD.AperFunction*%
%TA.AperFunction,Conductor*%
G36*
X121708081Y-87708181D02*
G01*
X121725515Y-87719385D01*
X121726529Y-87720162D01*
X121767707Y-87776606D01*
X121775000Y-87818505D01*
X121775000Y-87846624D01*
X121859343Y-87835521D01*
X121867195Y-87833418D01*
X121868165Y-87837041D01*
X121920116Y-87830919D01*
X121932518Y-87834494D01*
X121932677Y-87833905D01*
X121940526Y-87836008D01*
X121940528Y-87836009D01*
X122050599Y-87850500D01*
X122249400Y-87850499D01*
X122249401Y-87850499D01*
X122278828Y-87846625D01*
X122359472Y-87836009D01*
X122359475Y-87836007D01*
X122367326Y-87833905D01*
X122368210Y-87837207D01*
X122421925Y-87831392D01*
X122432514Y-87834501D01*
X122432674Y-87833905D01*
X122440524Y-87836008D01*
X122440526Y-87836008D01*
X122440528Y-87836009D01*
X122550599Y-87850500D01*
X122575498Y-87850499D01*
X122642536Y-87870181D01*
X122688293Y-87922984D01*
X122699500Y-87974495D01*
X122699500Y-87999402D01*
X122713989Y-88109468D01*
X122716094Y-88117322D01*
X122712814Y-88118200D01*
X122718581Y-88172073D01*
X122715517Y-88182522D01*
X122716095Y-88182677D01*
X122713990Y-88190529D01*
X122699500Y-88300598D01*
X122699500Y-88499403D01*
X122713989Y-88609468D01*
X122716094Y-88617322D01*
X122712814Y-88618200D01*
X122718581Y-88672073D01*
X122715517Y-88682522D01*
X122716095Y-88682677D01*
X122713990Y-88690529D01*
X122699500Y-88800598D01*
X122699500Y-88999403D01*
X122713989Y-89109468D01*
X122716094Y-89117322D01*
X122712814Y-89118200D01*
X122718581Y-89172073D01*
X122715517Y-89182522D01*
X122716095Y-89182677D01*
X122713990Y-89190529D01*
X122699500Y-89300598D01*
X122699500Y-89499403D01*
X122713989Y-89609468D01*
X122716094Y-89617322D01*
X122712814Y-89618200D01*
X122718581Y-89672073D01*
X122715517Y-89682522D01*
X122716095Y-89682677D01*
X122713990Y-89690529D01*
X122699500Y-89800598D01*
X122699500Y-89999403D01*
X122713989Y-90109468D01*
X122716094Y-90117322D01*
X122712814Y-90118200D01*
X122718581Y-90172073D01*
X122715517Y-90182522D01*
X122716095Y-90182677D01*
X122713990Y-90190529D01*
X122699500Y-90300598D01*
X122699500Y-90499403D01*
X122713989Y-90609468D01*
X122716094Y-90617322D01*
X122712814Y-90618200D01*
X122718581Y-90672073D01*
X122715517Y-90682522D01*
X122716095Y-90682677D01*
X122713990Y-90690529D01*
X122699501Y-90800589D01*
X122699500Y-90800605D01*
X122699500Y-90825500D01*
X122679815Y-90892539D01*
X122627011Y-90938294D01*
X122575504Y-90949500D01*
X122550597Y-90949500D01*
X122440531Y-90963989D01*
X122432678Y-90966094D01*
X122431802Y-90962824D01*
X122377853Y-90968567D01*
X122367477Y-90965518D01*
X122367323Y-90966095D01*
X122359470Y-90963990D01*
X122249401Y-90949500D01*
X122050596Y-90949500D01*
X121940531Y-90963989D01*
X121932678Y-90966094D01*
X121931802Y-90962824D01*
X121877853Y-90968567D01*
X121867477Y-90965518D01*
X121867323Y-90966095D01*
X121859470Y-90963990D01*
X121749401Y-90949500D01*
X121550596Y-90949500D01*
X121440531Y-90963989D01*
X121432678Y-90966094D01*
X121431802Y-90962824D01*
X121377853Y-90968567D01*
X121367477Y-90965518D01*
X121367323Y-90966095D01*
X121359470Y-90963990D01*
X121249401Y-90949500D01*
X121050596Y-90949500D01*
X120940531Y-90963989D01*
X120932678Y-90966094D01*
X120931802Y-90962824D01*
X120877853Y-90968567D01*
X120867477Y-90965518D01*
X120867323Y-90966095D01*
X120859470Y-90963990D01*
X120749401Y-90949500D01*
X120550596Y-90949500D01*
X120440531Y-90963989D01*
X120432678Y-90966094D01*
X120431802Y-90962824D01*
X120377853Y-90968567D01*
X120367477Y-90965518D01*
X120367323Y-90966095D01*
X120359470Y-90963990D01*
X120249401Y-90949500D01*
X120050596Y-90949500D01*
X119940531Y-90963989D01*
X119932678Y-90966094D01*
X119931802Y-90962824D01*
X119877853Y-90968567D01*
X119867477Y-90965518D01*
X119867323Y-90966095D01*
X119859470Y-90963990D01*
X119749410Y-90949501D01*
X119749407Y-90949500D01*
X119749401Y-90949500D01*
X119749394Y-90949500D01*
X119724499Y-90949500D01*
X119657460Y-90929815D01*
X119611705Y-90877011D01*
X119600499Y-90825500D01*
X119600499Y-90800597D01*
X119586009Y-90690529D01*
X119586009Y-90690528D01*
X119586008Y-90690525D01*
X119583905Y-90682674D01*
X119587207Y-90681789D01*
X119581392Y-90628075D01*
X119584501Y-90617485D01*
X119583905Y-90617326D01*
X119586008Y-90609475D01*
X119586008Y-90609474D01*
X119586009Y-90609472D01*
X119600500Y-90499401D01*
X119600499Y-90300600D01*
X119586009Y-90190528D01*
X119586008Y-90190525D01*
X119583905Y-90182674D01*
X119587207Y-90181789D01*
X119581392Y-90128075D01*
X119584501Y-90117485D01*
X119583905Y-90117326D01*
X119586008Y-90109475D01*
X119586008Y-90109474D01*
X119586009Y-90109472D01*
X119600500Y-89999401D01*
X119600499Y-89800600D01*
X119599309Y-89791564D01*
X119591034Y-89728700D01*
X119586009Y-89690528D01*
X119586008Y-89690525D01*
X119583905Y-89682674D01*
X119587207Y-89681789D01*
X119581392Y-89628075D01*
X119584501Y-89617485D01*
X119583905Y-89617326D01*
X119586008Y-89609475D01*
X119586008Y-89609474D01*
X119586009Y-89609472D01*
X119600500Y-89499401D01*
X119600499Y-89300600D01*
X119600420Y-89300003D01*
X119592160Y-89237254D01*
X119586009Y-89190528D01*
X119586008Y-89190525D01*
X119583905Y-89182674D01*
X119587207Y-89181789D01*
X119581392Y-89128075D01*
X119584501Y-89117485D01*
X119583905Y-89117326D01*
X119586008Y-89109475D01*
X119586008Y-89109474D01*
X119586009Y-89109472D01*
X119600500Y-88999401D01*
X119600499Y-88800600D01*
X119600049Y-88797185D01*
X119586009Y-88690529D01*
X119586009Y-88690528D01*
X119586008Y-88690525D01*
X119583905Y-88682674D01*
X119587207Y-88681789D01*
X119581392Y-88628075D01*
X119584501Y-88617485D01*
X119583905Y-88617326D01*
X119586008Y-88609475D01*
X119586008Y-88609474D01*
X119586009Y-88609472D01*
X119600500Y-88499401D01*
X119600499Y-88300600D01*
X119586009Y-88190528D01*
X119586008Y-88190525D01*
X119583905Y-88182674D01*
X119587207Y-88181789D01*
X119581392Y-88128075D01*
X119584501Y-88117485D01*
X119583905Y-88117326D01*
X119586008Y-88109475D01*
X119586008Y-88109474D01*
X119586009Y-88109472D01*
X119600500Y-87999401D01*
X119600500Y-87974499D01*
X119620185Y-87907460D01*
X119672989Y-87861705D01*
X119724500Y-87850499D01*
X119749402Y-87850499D01*
X119778836Y-87846624D01*
X119859472Y-87836009D01*
X119859475Y-87836007D01*
X119867326Y-87833905D01*
X119868210Y-87837207D01*
X119921925Y-87831392D01*
X119932514Y-87834501D01*
X119932674Y-87833905D01*
X119940524Y-87836008D01*
X119940526Y-87836008D01*
X119940528Y-87836009D01*
X120050599Y-87850500D01*
X120249400Y-87850499D01*
X120249401Y-87850499D01*
X120278828Y-87846625D01*
X120359472Y-87836009D01*
X120359475Y-87836007D01*
X120367326Y-87833905D01*
X120368210Y-87837207D01*
X120421925Y-87831392D01*
X120432514Y-87834501D01*
X120432674Y-87833905D01*
X120440524Y-87836008D01*
X120440526Y-87836008D01*
X120440528Y-87836009D01*
X120550599Y-87850500D01*
X120749400Y-87850499D01*
X120749401Y-87850499D01*
X120778828Y-87846625D01*
X120859472Y-87836009D01*
X120859475Y-87836007D01*
X120867326Y-87833905D01*
X120868210Y-87837207D01*
X120921925Y-87831392D01*
X120932514Y-87834501D01*
X120932674Y-87833905D01*
X120940524Y-87836008D01*
X120940526Y-87836008D01*
X120940528Y-87836009D01*
X121050599Y-87850500D01*
X121249400Y-87850499D01*
X121249401Y-87850499D01*
X121278828Y-87846625D01*
X121359472Y-87836009D01*
X121359475Y-87836007D01*
X121367326Y-87833905D01*
X121368158Y-87837012D01*
X121422583Y-87831122D01*
X121432623Y-87834122D01*
X121432812Y-87833419D01*
X121440665Y-87835523D01*
X121524998Y-87846625D01*
X121525000Y-87846624D01*
X121525000Y-87818505D01*
X121544685Y-87751466D01*
X121573469Y-87720163D01*
X121574475Y-87719391D01*
X121639630Y-87694171D01*
X121708081Y-87708181D01*
G37*
%TD.AperFunction*%
%TA.AperFunction,Conductor*%
G36*
X149367864Y-73496324D02*
G01*
X149412382Y-73547701D01*
X149452464Y-73633658D01*
X149452468Y-73633666D01*
X149579170Y-73814615D01*
X149579175Y-73814621D01*
X149735378Y-73970824D01*
X149735384Y-73970829D01*
X149769633Y-73994810D01*
X149850937Y-74051740D01*
X149871623Y-74066224D01*
X149915248Y-74120801D01*
X149924500Y-74167799D01*
X149924500Y-76039547D01*
X149904815Y-76106586D01*
X149888181Y-76127228D01*
X137541621Y-88473787D01*
X137480298Y-88507272D01*
X137467825Y-88509326D01*
X137420750Y-88514630D01*
X137250478Y-88574210D01*
X137097737Y-88670184D01*
X136970184Y-88797737D01*
X136874211Y-88950476D01*
X136814631Y-89120745D01*
X136814630Y-89120750D01*
X136794435Y-89299996D01*
X136794435Y-89300003D01*
X136814630Y-89479249D01*
X136814631Y-89479254D01*
X136874211Y-89649523D01*
X136937045Y-89749522D01*
X136969138Y-89800598D01*
X136970186Y-89802265D01*
X136971501Y-89803914D01*
X136972017Y-89805180D01*
X136973889Y-89808158D01*
X136973367Y-89808485D01*
X136997908Y-89868601D01*
X136985150Y-89937296D01*
X136937278Y-89988189D01*
X136874552Y-90005224D01*
X135825448Y-90005224D01*
X135758409Y-89985539D01*
X135712654Y-89932735D01*
X135702710Y-89863577D01*
X135726546Y-89808431D01*
X135726111Y-89808158D01*
X135727884Y-89805335D01*
X135728499Y-89803914D01*
X135729813Y-89802265D01*
X135729816Y-89802262D01*
X135825789Y-89649522D01*
X135885368Y-89479255D01*
X135890672Y-89432173D01*
X135917737Y-89367763D01*
X135926201Y-89358387D01*
X148535858Y-76748733D01*
X148604312Y-76646285D01*
X148651463Y-76532451D01*
X148675501Y-76411606D01*
X148675501Y-76288393D01*
X148675501Y-76283283D01*
X148675500Y-76283257D01*
X148675500Y-74167799D01*
X148695185Y-74100760D01*
X148728377Y-74066224D01*
X148749061Y-74051741D01*
X148864620Y-73970826D01*
X149020826Y-73814620D01*
X149147534Y-73633662D01*
X149187618Y-73547700D01*
X149233790Y-73495261D01*
X149300983Y-73476109D01*
X149367864Y-73496324D01*
G37*
%TD.AperFunction*%
%TA.AperFunction,Conductor*%
G36*
X151867864Y-73496324D02*
G01*
X151912382Y-73547701D01*
X151952464Y-73633658D01*
X151952468Y-73633666D01*
X152079170Y-73814615D01*
X152079175Y-73814621D01*
X152235378Y-73970824D01*
X152235384Y-73970829D01*
X152269633Y-73994810D01*
X152350937Y-74051740D01*
X152371623Y-74066224D01*
X152415248Y-74120801D01*
X152424500Y-74167799D01*
X152424500Y-76139547D01*
X152404815Y-76206586D01*
X152388181Y-76227228D01*
X140041621Y-88573787D01*
X139980298Y-88607272D01*
X139967825Y-88609326D01*
X139920750Y-88614630D01*
X139750478Y-88674210D01*
X139597737Y-88770184D01*
X139470184Y-88897737D01*
X139374211Y-89050476D01*
X139314631Y-89220745D01*
X139314630Y-89220750D01*
X139294435Y-89399996D01*
X139294435Y-89400003D01*
X139314630Y-89579249D01*
X139314631Y-89579254D01*
X139374211Y-89749521D01*
X139374211Y-89749522D01*
X139411054Y-89808158D01*
X139415512Y-89815252D01*
X139434512Y-89882488D01*
X139414144Y-89949324D01*
X139360877Y-89994538D01*
X139310518Y-90005224D01*
X138325448Y-90005224D01*
X138258409Y-89985539D01*
X138212654Y-89932735D01*
X138202710Y-89863577D01*
X138226546Y-89808431D01*
X138226111Y-89808158D01*
X138227884Y-89805335D01*
X138228499Y-89803914D01*
X138229813Y-89802265D01*
X138229816Y-89802262D01*
X138325789Y-89649522D01*
X138385368Y-89479255D01*
X138390672Y-89432173D01*
X138417737Y-89367763D01*
X138426201Y-89358387D01*
X151035858Y-76748733D01*
X151104312Y-76646285D01*
X151151463Y-76532451D01*
X151175501Y-76411606D01*
X151175501Y-76288393D01*
X151175501Y-76283283D01*
X151175500Y-76283257D01*
X151175500Y-74167799D01*
X151195185Y-74100760D01*
X151228377Y-74066224D01*
X151249061Y-74051741D01*
X151364620Y-73970826D01*
X151520826Y-73814620D01*
X151647534Y-73633662D01*
X151687618Y-73547700D01*
X151733790Y-73495261D01*
X151800983Y-73476109D01*
X151867864Y-73496324D01*
G37*
%TD.AperFunction*%
%TA.AperFunction,Conductor*%
G36*
X159367864Y-73496324D02*
G01*
X159412382Y-73547701D01*
X159452464Y-73633658D01*
X159452468Y-73633666D01*
X159579170Y-73814615D01*
X159579175Y-73814621D01*
X159735378Y-73970824D01*
X159735384Y-73970829D01*
X159916333Y-74097531D01*
X159916335Y-74097532D01*
X159916338Y-74097534D01*
X160116550Y-74190894D01*
X160329932Y-74248070D01*
X160487123Y-74261822D01*
X160549998Y-74267323D01*
X160549999Y-74267323D01*
X160549999Y-74267322D01*
X160550000Y-74267323D01*
X160592069Y-74263642D01*
X160660567Y-74277408D01*
X160710751Y-74326022D01*
X160726685Y-74394051D01*
X160703311Y-74459895D01*
X160690557Y-74474851D01*
X160131270Y-75034139D01*
X160044144Y-75121264D01*
X160044138Y-75121272D01*
X159975690Y-75223708D01*
X159975688Y-75223713D01*
X159964001Y-75251929D01*
X159928538Y-75337544D01*
X159928535Y-75337556D01*
X159904500Y-75458389D01*
X159904500Y-82575500D01*
X159884815Y-82642539D01*
X159832011Y-82688294D01*
X159780501Y-82699500D01*
X159582130Y-82699500D01*
X159582123Y-82699501D01*
X159522516Y-82705908D01*
X159387671Y-82756202D01*
X159387664Y-82756206D01*
X159272455Y-82842452D01*
X159272452Y-82842455D01*
X159186206Y-82957664D01*
X159186203Y-82957670D01*
X159157544Y-83034508D01*
X159115672Y-83090441D01*
X159050208Y-83114858D01*
X158981935Y-83100006D01*
X158950135Y-83075158D01*
X158941784Y-83066087D01*
X158941778Y-83066082D01*
X158941777Y-83066081D01*
X158758634Y-82923535D01*
X158758628Y-82923531D01*
X158554504Y-82813064D01*
X158554495Y-82813061D01*
X158334984Y-82737702D01*
X158144450Y-82705908D01*
X158106049Y-82699500D01*
X157873951Y-82699500D01*
X157835550Y-82705908D01*
X157645015Y-82737702D01*
X157425504Y-82813061D01*
X157425495Y-82813064D01*
X157221371Y-82923531D01*
X157221365Y-82923535D01*
X157038222Y-83066081D01*
X157038219Y-83066084D01*
X157038216Y-83066086D01*
X157038216Y-83066087D01*
X156998669Y-83109047D01*
X156881016Y-83236852D01*
X156754075Y-83431151D01*
X156660842Y-83643699D01*
X156603866Y-83868691D01*
X156603864Y-83868702D01*
X156584700Y-84099993D01*
X156584700Y-84100006D01*
X156603864Y-84331297D01*
X156603866Y-84331308D01*
X156660842Y-84556300D01*
X156754075Y-84768848D01*
X156881016Y-84963147D01*
X156881019Y-84963151D01*
X156881021Y-84963153D01*
X157038216Y-85133913D01*
X157038219Y-85133915D01*
X157038222Y-85133918D01*
X157221365Y-85276464D01*
X157221371Y-85276468D01*
X157221374Y-85276470D01*
X157425497Y-85386936D01*
X157539487Y-85426068D01*
X157645015Y-85462297D01*
X157645017Y-85462297D01*
X157645019Y-85462298D01*
X157873951Y-85500500D01*
X157873952Y-85500500D01*
X157945547Y-85500500D01*
X158012586Y-85520185D01*
X158058341Y-85572989D01*
X158068285Y-85642147D01*
X158039260Y-85705703D01*
X158033228Y-85712181D01*
X154675430Y-89069978D01*
X154614107Y-89103463D01*
X154601633Y-89105517D01*
X154520750Y-89114630D01*
X154350478Y-89174210D01*
X154197737Y-89270184D01*
X154070184Y-89397737D01*
X153974211Y-89550476D01*
X153914631Y-89720745D01*
X153914630Y-89720750D01*
X153894986Y-89895107D01*
X153867920Y-89959521D01*
X153810325Y-89999076D01*
X153771766Y-90005224D01*
X140889482Y-90005224D01*
X140822443Y-89985539D01*
X140776688Y-89932735D01*
X140766744Y-89863577D01*
X140784488Y-89815252D01*
X140788774Y-89808431D01*
X140825789Y-89749522D01*
X140885368Y-89579255D01*
X140890672Y-89532173D01*
X140917737Y-89467763D01*
X140926201Y-89458387D01*
X153535858Y-76848733D01*
X153604312Y-76746285D01*
X153631932Y-76679603D01*
X153651463Y-76632452D01*
X153655451Y-76612402D01*
X153675501Y-76511606D01*
X153675501Y-76388393D01*
X153675501Y-76383283D01*
X153675500Y-76383257D01*
X153675500Y-74167799D01*
X153695185Y-74100760D01*
X153728377Y-74066224D01*
X153749061Y-74051741D01*
X153864620Y-73970826D01*
X154020826Y-73814620D01*
X154147534Y-73633662D01*
X154187618Y-73547700D01*
X154233790Y-73495261D01*
X154300983Y-73476109D01*
X154367864Y-73496324D01*
X154412382Y-73547701D01*
X154452464Y-73633658D01*
X154452468Y-73633666D01*
X154579170Y-73814615D01*
X154579175Y-73814621D01*
X154735378Y-73970824D01*
X154735384Y-73970829D01*
X154916333Y-74097531D01*
X154916335Y-74097532D01*
X154916338Y-74097534D01*
X155116550Y-74190894D01*
X155329932Y-74248070D01*
X155487123Y-74261822D01*
X155549998Y-74267323D01*
X155550000Y-74267323D01*
X155550002Y-74267323D01*
X155605017Y-74262509D01*
X155770068Y-74248070D01*
X155983450Y-74190894D01*
X156183662Y-74097534D01*
X156364620Y-73970826D01*
X156520826Y-73814620D01*
X156647534Y-73633662D01*
X156687618Y-73547700D01*
X156733790Y-73495261D01*
X156800983Y-73476109D01*
X156867864Y-73496324D01*
X156912382Y-73547701D01*
X156952464Y-73633658D01*
X156952468Y-73633666D01*
X157079170Y-73814615D01*
X157079175Y-73814621D01*
X157235378Y-73970824D01*
X157235384Y-73970829D01*
X157416333Y-74097531D01*
X157416335Y-74097532D01*
X157416338Y-74097534D01*
X157616550Y-74190894D01*
X157829932Y-74248070D01*
X157987123Y-74261822D01*
X158049998Y-74267323D01*
X158050000Y-74267323D01*
X158050002Y-74267323D01*
X158105017Y-74262509D01*
X158270068Y-74248070D01*
X158483450Y-74190894D01*
X158683662Y-74097534D01*
X158864620Y-73970826D01*
X159020826Y-73814620D01*
X159147534Y-73633662D01*
X159187618Y-73547700D01*
X159233790Y-73495261D01*
X159300983Y-73476109D01*
X159367864Y-73496324D01*
G37*
%TD.AperFunction*%
%TD*%
M02*
