%TF.GenerationSoftware,KiCad,Pcbnew,8.0.7*%
%TF.CreationDate,2025-08-15T01:52:05+02:00*%
%TF.ProjectId,Arduino,41726475-696e-46f2-9e6b-696361645f70,1*%
%TF.SameCoordinates,Original*%
%TF.FileFunction,Copper,L1,Top*%
%TF.FilePolarity,Positive*%
%FSLAX46Y46*%
G04 Gerber Fmt 4.6, Leading zero omitted, Abs format (unit mm)*
G04 Created by KiCad (PCBNEW 8.0.7) date 2025-08-15 01:52:05*
%MOMM*%
%LPD*%
G01*
G04 APERTURE LIST*
G04 Aperture macros list*
%AMRoundRect*
0 Rectangle with rounded corners*
0 $1 Rounding radius*
0 $2 $3 $4 $5 $6 $7 $8 $9 X,Y pos of 4 corners*
0 Add a 4 corners polygon primitive as box body*
4,1,4,$2,$3,$4,$5,$6,$7,$8,$9,$2,$3,0*
0 Add four circle primitives for the rounded corners*
1,1,$1+$1,$2,$3*
1,1,$1+$1,$4,$5*
1,1,$1+$1,$6,$7*
1,1,$1+$1,$8,$9*
0 Add four rect primitives between the rounded corners*
20,1,$1+$1,$2,$3,$4,$5,0*
20,1,$1+$1,$4,$5,$6,$7,0*
20,1,$1+$1,$6,$7,$8,$9,0*
20,1,$1+$1,$8,$9,$2,$3,0*%
G04 Aperture macros list end*
%TA.AperFunction,ComponentPad*%
%ADD10C,1.524000*%
%TD*%
%TA.AperFunction,ComponentPad*%
%ADD11R,1.800000X1.800000*%
%TD*%
%TA.AperFunction,ComponentPad*%
%ADD12C,1.800000*%
%TD*%
%TA.AperFunction,ComponentPad*%
%ADD13C,1.600000*%
%TD*%
%TA.AperFunction,SMDPad,CuDef*%
%ADD14RoundRect,0.062500X-0.062500X0.337500X-0.062500X-0.337500X0.062500X-0.337500X0.062500X0.337500X0*%
%TD*%
%TA.AperFunction,SMDPad,CuDef*%
%ADD15RoundRect,0.062500X-0.337500X0.062500X-0.337500X-0.062500X0.337500X-0.062500X0.337500X0.062500X0*%
%TD*%
%TA.AperFunction,HeatsinkPad*%
%ADD16R,3.350000X3.350000*%
%TD*%
%TA.AperFunction,ComponentPad*%
%ADD17R,2.000000X1.905000*%
%TD*%
%TA.AperFunction,ComponentPad*%
%ADD18O,2.000000X1.905000*%
%TD*%
%TA.AperFunction,ComponentPad*%
%ADD19R,1.600000X1.600000*%
%TD*%
%TA.AperFunction,ComponentPad*%
%ADD20O,1.600000X1.600000*%
%TD*%
%TA.AperFunction,ComponentPad*%
%ADD21R,1.700000X1.700000*%
%TD*%
%TA.AperFunction,ComponentPad*%
%ADD22C,1.700000*%
%TD*%
%TA.AperFunction,ComponentPad*%
%ADD23C,3.500000*%
%TD*%
%TA.AperFunction,ComponentPad*%
%ADD24R,3.500000X3.500000*%
%TD*%
%TA.AperFunction,ComponentPad*%
%ADD25RoundRect,0.750000X-0.750000X-1.000000X0.750000X-1.000000X0.750000X1.000000X-0.750000X1.000000X0*%
%TD*%
%TA.AperFunction,ComponentPad*%
%ADD26RoundRect,0.875000X-0.875000X-0.875000X0.875000X-0.875000X0.875000X0.875000X-0.875000X0.875000X0*%
%TD*%
%TA.AperFunction,ViaPad*%
%ADD27C,0.600000*%
%TD*%
%TA.AperFunction,Conductor*%
%ADD28C,0.500000*%
%TD*%
%TA.AperFunction,Conductor*%
%ADD29C,0.250000*%
%TD*%
%TA.AperFunction,Conductor*%
%ADD30C,0.700000*%
%TD*%
%TA.AperFunction,Conductor*%
%ADD31C,0.200000*%
%TD*%
%TA.AperFunction,Conductor*%
%ADD32C,0.640000*%
%TD*%
G04 APERTURE END LIST*
D10*
%TO.P,SW1,1,A*%
%TO.N,/RST*%
X115850000Y-76300000D03*
%TO.P,SW1,2,B*%
%TO.N,GND*%
X115850000Y-80800000D03*
%TO.P,SW1,3*%
%TO.N,N/C*%
X121350000Y-80800000D03*
%TO.P,SW1,4*%
X121350000Y-76300000D03*
%TD*%
D11*
%TO.P,D5,1,K*%
%TO.N,Net-(D5-K)*%
X138180000Y-83300000D03*
D12*
%TO.P,D5,2,A*%
%TO.N,Net-(D5-A)*%
X140720000Y-83300000D03*
%TD*%
D13*
%TO.P,C1,1*%
%TO.N,Net-(U1-XTAL1{slash}PB6)*%
X157650000Y-105500000D03*
%TO.P,C1,2*%
%TO.N,GND*%
X162650000Y-105500000D03*
%TD*%
D10*
%TO.P,J1,1,Pin_1*%
%TO.N,Net-(J1-Pin_1)*%
X161850000Y-125300000D03*
%TO.P,J1,2,Pin_2*%
%TO.N,Net-(J1-Pin_2)*%
X164350000Y-125300000D03*
%TO.P,J1,3,Pin_3*%
%TO.N,Net-(J1-Pin_3)*%
X166850000Y-125300000D03*
%TO.P,J1,4,Pin_4*%
%TO.N,Net-(J1-Pin_4)*%
X169350000Y-125300000D03*
%TO.P,J1,5,Pin_5*%
%TO.N,/SDA*%
X171850000Y-125300000D03*
%TO.P,J1,6,Pin_6*%
%TO.N,/SCL*%
X174350000Y-125300000D03*
%TD*%
%TO.P,C4,1*%
%TO.N,VCC*%
X134050000Y-106250000D03*
%TO.P,C4,2*%
%TO.N,GND*%
X136050000Y-106250000D03*
%TD*%
%TO.P,D1,1,K*%
%TO.N,Net-(D1-K)*%
X126250000Y-117700000D03*
%TO.P,D1,2,A*%
%TO.N,/VIN*%
X136250000Y-117700000D03*
%TD*%
%TO.P,R3,1*%
%TO.N,Net-(D5-K)*%
X135350000Y-83300000D03*
%TO.P,R3,2*%
%TO.N,GND*%
X125350000Y-83300000D03*
%TD*%
%TO.P,C5,1*%
%TO.N,Net-(D1-K)*%
X134050000Y-112250000D03*
%TO.P,C5,2*%
%TO.N,GND*%
X136050000Y-112250000D03*
%TD*%
%TO.P,C6,1*%
%TO.N,Net-(D1-K)*%
X127950000Y-112250000D03*
%TO.P,C6,2*%
%TO.N,GND*%
X129950000Y-112250000D03*
%TD*%
D13*
%TO.P,C2,1*%
%TO.N,Net-(U1-XTAL2{slash}PB7)*%
X157600000Y-100500000D03*
%TO.P,C2,2*%
%TO.N,GND*%
X162600000Y-100500000D03*
%TD*%
D10*
%TO.P,J3,1,Pin_1*%
%TO.N,/SCL*%
X130850000Y-77300000D03*
%TO.P,J3,2,Pin_2*%
%TO.N,/SDA*%
X133350000Y-77300000D03*
%TO.P,J3,3,Pin_3*%
%TO.N,unconnected-(J3-Pin_3-Pad3)*%
X135850000Y-77300000D03*
%TO.P,J3,4,Pin_4*%
%TO.N,GND*%
X138350000Y-77300000D03*
%TO.P,J3,5,Pin_5*%
%TO.N,Net-(D5-A)*%
X140850000Y-77300000D03*
%TO.P,J3,6,Pin_6*%
%TO.N,Net-(J3-Pin_6)*%
X143350000Y-77300000D03*
%TO.P,J3,7,Pin_7*%
%TO.N,Net-(J3-Pin_7)*%
X145850000Y-77300000D03*
%TO.P,J3,8,Pin_8*%
%TO.N,Net-(J3-Pin_8)*%
X148350000Y-77300000D03*
%TO.P,J3,9,Pin_9*%
%TO.N,Net-(J3-Pin_9)*%
X150850000Y-77300000D03*
%TO.P,J3,10,Pin_10*%
%TO.N,Net-(J3-Pin_10)*%
X153350000Y-77300000D03*
%TD*%
D14*
%TO.P,U2,1,~{DCD}*%
%TO.N,unconnected-(U2-~{DCD}-Pad1)*%
X131500000Y-91250000D03*
%TO.P,U2,2,~{RI}/CLK*%
%TO.N,unconnected-(U2-~{RI}{slash}CLK-Pad2)*%
X131000000Y-91250000D03*
%TO.P,U2,3,GND*%
%TO.N,GND*%
X130500000Y-91250000D03*
%TO.P,U2,4,D+*%
%TO.N,Net-(J8-D+)*%
X130000000Y-91250000D03*
%TO.P,U2,5,D-*%
%TO.N,Net-(J8-D-)*%
X129500000Y-91250000D03*
%TO.P,U2,6,VDD*%
%TO.N,/+3.3V*%
X129000000Y-91250000D03*
%TO.P,U2,7,VREGIN*%
%TO.N,unconnected-(U2-VREGIN-Pad7)*%
X128500000Y-91250000D03*
D15*
%TO.P,U2,8,VBUS*%
%TO.N,VCC*%
X127550000Y-92200000D03*
%TO.P,U2,9,~{RST}*%
%TO.N,unconnected-(U2-~{RST}-Pad9)*%
X127550000Y-92700000D03*
%TO.P,U2,10,NC*%
%TO.N,unconnected-(U2-NC-Pad10)*%
X127550000Y-93200000D03*
%TO.P,U2,11,~{SUSPEND}*%
%TO.N,unconnected-(U2-~{SUSPEND}-Pad11)*%
X127550000Y-93700000D03*
%TO.P,U2,12,SUSPEND*%
%TO.N,unconnected-(U2-SUSPEND-Pad12)*%
X127550000Y-94200000D03*
%TO.P,U2,13,CHREN*%
%TO.N,unconnected-(U2-CHREN-Pad13)*%
X127550000Y-94700000D03*
%TO.P,U2,14,CHR1*%
%TO.N,unconnected-(U2-CHR1-Pad14)*%
X127550000Y-95200000D03*
D14*
%TO.P,U2,15,CHR0*%
%TO.N,unconnected-(U2-CHR0-Pad15)*%
X128500000Y-96150000D03*
%TO.P,U2,16,~{WAKEUP}/GPIO.3*%
%TO.N,unconnected-(U2-~{WAKEUP}{slash}GPIO.3-Pad16)*%
X129000000Y-96150000D03*
%TO.P,U2,17,RS485/GPIO.2*%
%TO.N,unconnected-(U2-RS485{slash}GPIO.2-Pad17)*%
X129500000Y-96150000D03*
%TO.P,U2,18,~{RXT}/GPIO.1*%
%TO.N,unconnected-(U2-~{RXT}{slash}GPIO.1-Pad18)*%
X130000000Y-96150000D03*
%TO.P,U2,19,~{TXT}/GPIO.0*%
%TO.N,unconnected-(U2-~{TXT}{slash}GPIO.0-Pad19)*%
X130500000Y-96150000D03*
%TO.P,U2,20,GPIO.6*%
%TO.N,unconnected-(U2-GPIO.6-Pad20)*%
X131000000Y-96150000D03*
%TO.P,U2,21,GPIO.5*%
%TO.N,unconnected-(U2-GPIO.5-Pad21)*%
X131500000Y-96150000D03*
D15*
%TO.P,U2,22,GPIO.4*%
%TO.N,unconnected-(U2-GPIO.4-Pad22)*%
X132450000Y-95200000D03*
%TO.P,U2,23,~{CTS}*%
%TO.N,unconnected-(U2-~{CTS}-Pad23)*%
X132450000Y-94700000D03*
%TO.P,U2,24,~{RTS}*%
%TO.N,unconnected-(U2-~{RTS}-Pad24)*%
X132450000Y-94200000D03*
%TO.P,U2,25,RXD*%
%TO.N,/TXD*%
X132450000Y-93700000D03*
%TO.P,U2,26,TXD*%
%TO.N,/RXD*%
X132450000Y-93200000D03*
%TO.P,U2,27,~{DSR}*%
%TO.N,unconnected-(U2-~{DSR}-Pad27)*%
X132450000Y-92700000D03*
%TO.P,U2,28,~{DTR}*%
%TO.N,/RST*%
X132450000Y-92200000D03*
D16*
%TO.P,U2,29,GND*%
%TO.N,GND*%
X130000000Y-93700000D03*
%TD*%
D10*
%TO.P,R2,1*%
%TO.N,VCC*%
X124850000Y-100500000D03*
%TO.P,R2,2*%
%TO.N,Net-(D2-A)*%
X134850000Y-100500000D03*
%TD*%
%TO.P,J6,1,Pin_1*%
%TO.N,/USB_5V*%
X132350000Y-125300000D03*
%TO.P,J6,2,Pin_2*%
%TO.N,VCC*%
X134850000Y-125300000D03*
%TO.P,J6,3,Pin_3*%
%TO.N,/+5V*%
X137350000Y-125300000D03*
%TD*%
D11*
%TO.P,D4,1,K*%
%TO.N,/TXD*%
X169380000Y-88400000D03*
D12*
%TO.P,D4,2,A*%
%TO.N,Net-(D4-A)*%
X166840000Y-88400000D03*
%TD*%
D10*
%TO.P,J2,1,Pin_1*%
%TO.N,/RXD*%
X174400000Y-77300000D03*
%TO.P,J2,2,Pin_2*%
%TO.N,/TXD*%
X171900000Y-77300000D03*
%TO.P,J2,3,Pin_3*%
%TO.N,Net-(J2-Pin_3)*%
X169400000Y-77300000D03*
%TO.P,J2,4,Pin_4*%
%TO.N,Net-(J2-Pin_4)*%
X166900000Y-77300000D03*
%TO.P,J2,5,Pin_5*%
%TO.N,Net-(J2-Pin_5)*%
X164400000Y-77300000D03*
%TO.P,J2,6,Pin_6*%
%TO.N,Net-(J2-Pin_6)*%
X161900000Y-77300000D03*
%TO.P,J2,7,Pin_7*%
%TO.N,Net-(J2-Pin_7)*%
X159400000Y-77300000D03*
%TO.P,J2,8,Pin_8*%
%TO.N,Net-(J2-Pin_8)*%
X156900000Y-77300000D03*
%TD*%
%TO.P,J7,1,Pin_1*%
%TO.N,unconnected-(J7-Pin_1-Pad1)*%
X140850000Y-125300000D03*
%TO.P,J7,2,Pin_2*%
%TO.N,unconnected-(J7-Pin_2-Pad2)*%
X143350000Y-125300000D03*
%TO.P,J7,3,Pin_3*%
%TO.N,/RST*%
X145850000Y-125300000D03*
%TO.P,J7,4,Pin_4*%
%TO.N,/+3.3V*%
X148350000Y-125300000D03*
%TO.P,J7,5,Pin_5*%
%TO.N,VCC*%
X150850000Y-125300000D03*
%TO.P,J7,6,Pin_6*%
%TO.N,GND*%
X153350000Y-125300000D03*
%TO.P,J7,7,Pin_7*%
X155850000Y-125300000D03*
%TO.P,J7,8,Pin_8*%
%TO.N,/VIN*%
X158350000Y-125300000D03*
%TD*%
%TO.P,C3,1*%
%TO.N,VCC*%
X128000000Y-106250000D03*
%TO.P,C3,2*%
%TO.N,GND*%
X130000000Y-106250000D03*
%TD*%
D17*
%TO.P,U3,1,VI*%
%TO.N,Net-(D1-K)*%
X116250000Y-110850000D03*
D18*
%TO.P,U3,2,GND*%
%TO.N,GND*%
X116250000Y-108310000D03*
%TO.P,U3,3,VO*%
%TO.N,/+5V*%
X116250000Y-105770000D03*
%TD*%
D10*
%TO.P,R1,1*%
%TO.N,/RST*%
X125350000Y-87000000D03*
%TO.P,R1,2*%
%TO.N,VCC*%
X135350000Y-87000000D03*
%TD*%
D11*
%TO.P,D2,1,K*%
%TO.N,GND*%
X140250000Y-100500000D03*
D12*
%TO.P,D2,2,A*%
%TO.N,Net-(D2-A)*%
X137710000Y-100500000D03*
%TD*%
D10*
%TO.P,Y1,1,1*%
%TO.N,Net-(U1-XTAL2{slash}PB7)*%
X152900000Y-100500000D03*
%TO.P,Y1,2,2*%
%TO.N,Net-(U1-XTAL1{slash}PB6)*%
X152900000Y-105500000D03*
%TD*%
D19*
%TO.P,U1,1,~{RESET}/PC6*%
%TO.N,/RST*%
X174380000Y-109900000D03*
D20*
%TO.P,U1,2,PD0*%
%TO.N,Net-(D3-K)*%
X171840000Y-109900000D03*
%TO.P,U1,3,PD1*%
%TO.N,Net-(D4-A)*%
X169300000Y-109900000D03*
%TO.P,U1,4,PD2*%
%TO.N,Net-(J2-Pin_3)*%
X166760000Y-109900000D03*
%TO.P,U1,5,PD3*%
%TO.N,Net-(J2-Pin_4)*%
X164220000Y-109900000D03*
%TO.P,U1,6,PD4*%
%TO.N,Net-(J2-Pin_5)*%
X161680000Y-109900000D03*
%TO.P,U1,7,VCC*%
%TO.N,VCC*%
X159140000Y-109900000D03*
%TO.P,U1,8,GND*%
%TO.N,GND*%
X156600000Y-109900000D03*
%TO.P,U1,9,XTAL1/PB6*%
%TO.N,Net-(U1-XTAL1{slash}PB6)*%
X154060000Y-109900000D03*
%TO.P,U1,10,XTAL2/PB7*%
%TO.N,Net-(U1-XTAL2{slash}PB7)*%
X151520000Y-109900000D03*
%TO.P,U1,11,PD5*%
%TO.N,Net-(J2-Pin_6)*%
X148980000Y-109900000D03*
%TO.P,U1,12,PD6*%
%TO.N,Net-(J2-Pin_7)*%
X146440000Y-109900000D03*
%TO.P,U1,13,PD7*%
%TO.N,Net-(J2-Pin_8)*%
X143900000Y-109900000D03*
%TO.P,U1,14,PB0*%
%TO.N,Net-(D5-A)*%
X141360000Y-109900000D03*
%TO.P,U1,15,PB1*%
%TO.N,Net-(J3-Pin_6)*%
X141360000Y-117520000D03*
%TO.P,U1,16,PB2*%
%TO.N,Net-(J3-Pin_7)*%
X143900000Y-117520000D03*
%TO.P,U1,17,PB3*%
%TO.N,Net-(J3-Pin_8)*%
X146440000Y-117520000D03*
%TO.P,U1,18,PB4*%
%TO.N,Net-(J3-Pin_9)*%
X148980000Y-117520000D03*
%TO.P,U1,19,PB5*%
%TO.N,Net-(J3-Pin_10)*%
X151520000Y-117520000D03*
%TO.P,U1,20,AVCC*%
%TO.N,VCC*%
X154060000Y-117520000D03*
%TO.P,U1,21,AREF*%
X156600000Y-117520000D03*
%TO.P,U1,22,GND*%
%TO.N,GND*%
X159140000Y-117520000D03*
%TO.P,U1,23,PC0*%
%TO.N,Net-(J1-Pin_1)*%
X161680000Y-117520000D03*
%TO.P,U1,24,PC1*%
%TO.N,Net-(J1-Pin_2)*%
X164220000Y-117520000D03*
%TO.P,U1,25,PC2*%
%TO.N,Net-(J1-Pin_3)*%
X166760000Y-117520000D03*
%TO.P,U1,26,PC3*%
%TO.N,Net-(J1-Pin_4)*%
X169300000Y-117520000D03*
%TO.P,U1,27,PC4*%
%TO.N,/SDA*%
X171840000Y-117520000D03*
%TO.P,U1,28,PC5*%
%TO.N,/SCL*%
X174380000Y-117520000D03*
%TD*%
D21*
%TO.P,J8,1,VBUS*%
%TO.N,/USB_5V*%
X120560000Y-93030000D03*
D22*
%TO.P,J8,2,D-*%
%TO.N,Net-(J8-D-)*%
X120560000Y-90530000D03*
%TO.P,J8,3,D+*%
%TO.N,Net-(J8-D+)*%
X118560000Y-90530000D03*
%TO.P,J8,4,GND*%
%TO.N,GND*%
X118560000Y-93030000D03*
D23*
%TO.P,J8,5,Shield*%
X115850000Y-97800000D03*
X115850000Y-85760000D03*
%TD*%
D10*
%TO.P,J4,1,Pin_1*%
%TO.N,Net-(J3-Pin_9)*%
X174650000Y-103400000D03*
%TO.P,J4,2,Pin_2*%
%TO.N,VCC*%
X174650000Y-100900000D03*
%TO.P,J4,3,Pin_3*%
%TO.N,Net-(J3-Pin_10)*%
X174650000Y-98400000D03*
%TO.P,J4,4,Pin_4*%
%TO.N,Net-(J3-Pin_8)*%
X177150000Y-103400000D03*
%TO.P,J4,5,Pin_5*%
%TO.N,/RST*%
X177150000Y-100900000D03*
%TO.P,J4,6,Pin_6*%
%TO.N,GND*%
X177150000Y-98400000D03*
%TD*%
D24*
%TO.P,J5,1*%
%TO.N,/VIN*%
X122150000Y-120392500D03*
D25*
%TO.P,J5,2*%
%TO.N,GND*%
X116150000Y-120392500D03*
D26*
%TO.P,J5,3*%
X119150000Y-125092500D03*
%TD*%
D11*
%TO.P,D3,1,K*%
%TO.N,Net-(D3-K)*%
X172010000Y-88400000D03*
D12*
%TO.P,D3,2,A*%
%TO.N,/RXD*%
X174550000Y-88400000D03*
%TD*%
D27*
%TO.N,GND*%
X160050000Y-89300000D03*
%TO.N,/TXD*%
X162150000Y-95600000D03*
X163550000Y-94200000D03*
%TO.N,Net-(J2-Pin_6)*%
X148950000Y-93700000D03*
%TO.N,Net-(J2-Pin_8)*%
X143950000Y-93600000D03*
%TO.N,Net-(J2-Pin_7)*%
X146450000Y-93600000D03*
%TO.N,Net-(J3-Pin_9)*%
X160350000Y-119600000D03*
%TO.N,Net-(J3-Pin_8)*%
X165450000Y-120100000D03*
%TO.N,/RST*%
X136850000Y-93537251D03*
%TO.N,/+3.3V*%
X120250000Y-106200000D03*
%TD*%
D28*
%TO.N,GND*%
X115850000Y-85760000D02*
X115850000Y-80800000D01*
D29*
%TO.N,Net-(U1-XTAL1{slash}PB6)*%
X152900000Y-108740000D02*
X154060000Y-109900000D01*
X152900000Y-105500000D02*
X152900000Y-108740000D01*
X157650000Y-105500000D02*
X152900000Y-105500000D01*
D30*
%TO.N,GND*%
X114700000Y-109347500D02*
X115737500Y-108310000D01*
D29*
X155025000Y-94325000D02*
X160050000Y-89300000D01*
D30*
X129450000Y-125100000D02*
X129450000Y-123100000D01*
X153350000Y-125300000D02*
X151800000Y-126850000D01*
X159140000Y-117520000D02*
X159140000Y-122010000D01*
D28*
X156600000Y-109900000D02*
X161000000Y-105500000D01*
D30*
X136050000Y-106250000D02*
X133990000Y-108310000D01*
D28*
X162600000Y-100500000D02*
X165912000Y-97188000D01*
D30*
X136050000Y-110370000D02*
X133990000Y-108310000D01*
X131200000Y-126850000D02*
X129450000Y-125100000D01*
D29*
X141137749Y-94325000D02*
X155025000Y-94325000D01*
D30*
X129450000Y-123100000D02*
X128950000Y-122600000D01*
D28*
X175938000Y-97188000D02*
X177150000Y-98400000D01*
D30*
X115850000Y-85760000D02*
X115850000Y-84444551D01*
X114700000Y-106760000D02*
X114700000Y-98950000D01*
D31*
X130500000Y-91250000D02*
X130500000Y-88450000D01*
D30*
X119150000Y-123392500D02*
X116150000Y-120392500D01*
X159140000Y-117520000D02*
X159140000Y-112440000D01*
X130000000Y-106250000D02*
X127940000Y-108310000D01*
X159140000Y-122010000D02*
X155850000Y-125300000D01*
X122257500Y-125092500D02*
X119150000Y-125092500D01*
X128950000Y-122600000D02*
X124750000Y-122600000D01*
X151800000Y-126850000D02*
X131200000Y-126850000D01*
D28*
X162650000Y-100550000D02*
X162600000Y-100500000D01*
X161000000Y-105500000D02*
X162650000Y-105500000D01*
X165912000Y-97188000D02*
X175938000Y-97188000D01*
D29*
X132350000Y-85537251D02*
X141137749Y-94325000D01*
D30*
X116980000Y-93030000D02*
X115850000Y-91900000D01*
X159140000Y-112440000D02*
X156600000Y-109900000D01*
X124750000Y-122600000D02*
X122257500Y-125092500D01*
X133990000Y-108310000D02*
X127940000Y-108310000D01*
X114700000Y-98950000D02*
X115850000Y-97800000D01*
D29*
X130000000Y-93700000D02*
X130500000Y-93200000D01*
D30*
X118560000Y-93030000D02*
X116980000Y-93030000D01*
X136050000Y-112250000D02*
X136050000Y-110370000D01*
X125350000Y-83300000D02*
X132350000Y-83300000D01*
X127940000Y-108310000D02*
X116250000Y-108310000D01*
X115850000Y-91900000D02*
X115850000Y-85760000D01*
X115850000Y-84444551D02*
X116994551Y-83300000D01*
D29*
X130500000Y-93200000D02*
X130500000Y-91250000D01*
D30*
X116150000Y-120392500D02*
X114700000Y-118942500D01*
D28*
X162650000Y-105500000D02*
X162650000Y-100550000D01*
D30*
X153350000Y-125300000D02*
X155850000Y-125300000D01*
X116994551Y-83300000D02*
X125350000Y-83300000D01*
X132350000Y-83300000D02*
X138350000Y-77300000D01*
X129950000Y-110320000D02*
X127940000Y-108310000D01*
X119150000Y-125092500D02*
X119150000Y-123392500D01*
X115850000Y-97800000D02*
X115850000Y-91900000D01*
D31*
X130500000Y-88450000D02*
X125350000Y-83300000D01*
D30*
X114700000Y-118942500D02*
X114700000Y-109347500D01*
X129950000Y-112250000D02*
X129950000Y-110320000D01*
X115737500Y-108310000D02*
X116250000Y-108310000D01*
X116250000Y-108310000D02*
X114700000Y-106760000D01*
D29*
X132350000Y-83300000D02*
X132350000Y-85537251D01*
%TO.N,Net-(U1-XTAL2{slash}PB7)*%
X157600000Y-100500000D02*
X152900000Y-100500000D01*
X151520000Y-101880000D02*
X151520000Y-109900000D01*
X152900000Y-100500000D02*
X151520000Y-101880000D01*
%TO.N,VCC*%
X124850000Y-94450260D02*
X124850000Y-100500000D01*
D30*
X139050000Y-121100000D02*
X139050000Y-105100000D01*
X137450000Y-103500000D02*
X134950000Y-103500000D01*
X127850000Y-103500000D02*
X124850000Y-100500000D01*
D29*
X127100260Y-92200000D02*
X124850000Y-94450260D01*
D30*
X134950000Y-103500000D02*
X128250000Y-103500000D01*
X148650000Y-123100000D02*
X148650000Y-122930000D01*
D28*
X174650000Y-100900000D02*
X166900000Y-108650000D01*
D30*
X137050000Y-123100000D02*
X148650000Y-123100000D01*
X137050000Y-123100000D02*
X139050000Y-121100000D01*
D28*
X160390000Y-108650000D02*
X159140000Y-109900000D01*
D30*
X128000000Y-106250000D02*
X128000000Y-103750000D01*
X139050000Y-105100000D02*
X137450000Y-103500000D01*
D28*
X166900000Y-108650000D02*
X160390000Y-108650000D01*
D30*
X134850000Y-125300000D02*
X137050000Y-123100000D01*
X134050000Y-106250000D02*
X134050000Y-104400000D01*
X154060000Y-117520000D02*
X156600000Y-117520000D01*
X134050000Y-104400000D02*
X134950000Y-103500000D01*
D29*
X127550000Y-92200000D02*
X127100260Y-92200000D01*
D30*
X128250000Y-103500000D02*
X127850000Y-103500000D01*
X148650000Y-122930000D02*
X154060000Y-117520000D01*
X148650000Y-123100000D02*
X150850000Y-125300000D01*
X128000000Y-103750000D02*
X128250000Y-103500000D01*
%TO.N,Net-(D1-K)*%
X128600000Y-117700000D02*
X134050000Y-112250000D01*
X126250000Y-113950000D02*
X127950000Y-112250000D01*
X126250000Y-117700000D02*
X128600000Y-117700000D01*
X123100000Y-117700000D02*
X116250000Y-110850000D01*
D32*
X126250000Y-117700000D02*
X126590000Y-117700000D01*
D30*
X126250000Y-117700000D02*
X126250000Y-113950000D01*
X126250000Y-117700000D02*
X123100000Y-117700000D01*
%TO.N,/VIN*%
X122150000Y-120392500D02*
X133557500Y-120392500D01*
X133557500Y-120392500D02*
X136250000Y-117700000D01*
D28*
%TO.N,Net-(D2-A)*%
X134850000Y-100500000D02*
X137710000Y-100500000D01*
D29*
%TO.N,/RXD*%
X132450000Y-93200000D02*
X135628865Y-93200000D01*
X137359589Y-94930724D02*
X168019276Y-94930724D01*
X174550000Y-77450000D02*
X174400000Y-77300000D01*
X135628865Y-93200000D02*
X137359589Y-94930724D01*
X174550000Y-88400000D02*
X174550000Y-77450000D01*
X168019276Y-94930724D02*
X174550000Y-88400000D01*
%TO.N,/TXD*%
X169380000Y-88400000D02*
X169380000Y-79820000D01*
X132450000Y-93700000D02*
X132899740Y-93700000D01*
X132899740Y-93700000D02*
X134799740Y-95600000D01*
X163580000Y-94200000D02*
X169380000Y-88400000D01*
X163550000Y-94200000D02*
X163580000Y-94200000D01*
X134799740Y-95600000D02*
X162150000Y-95600000D01*
X169380000Y-79820000D02*
X171900000Y-77300000D01*
D28*
%TO.N,Net-(D5-K)*%
X138180000Y-83300000D02*
X135350000Y-83300000D01*
D29*
%TO.N,Net-(D5-A)*%
X140720000Y-83300000D02*
X140720000Y-77430000D01*
X140720000Y-77430000D02*
X140850000Y-77300000D01*
D31*
X140850000Y-83170000D02*
X140720000Y-83300000D01*
D28*
%TO.N,Net-(J1-Pin_4)*%
X169350000Y-125300000D02*
X169350000Y-117570000D01*
X169300000Y-125250000D02*
X169350000Y-125300000D01*
X169350000Y-117570000D02*
X169300000Y-117520000D01*
%TO.N,Net-(J1-Pin_2)*%
X164350000Y-117650000D02*
X164220000Y-117520000D01*
X164350000Y-125300000D02*
X164350000Y-117650000D01*
X164220000Y-125170000D02*
X164350000Y-125300000D01*
%TO.N,/SDA*%
X171850000Y-125300000D02*
X171850000Y-117530000D01*
X171850000Y-117530000D02*
X171840000Y-117520000D01*
X171840000Y-125290000D02*
X171850000Y-125300000D01*
%TO.N,Net-(J1-Pin_3)*%
X166850000Y-117610000D02*
X166760000Y-117520000D01*
X166760000Y-125210000D02*
X166850000Y-125300000D01*
X166850000Y-125300000D02*
X166850000Y-117610000D01*
%TO.N,/SCL*%
X174380000Y-125270000D02*
X174350000Y-125300000D01*
D29*
X174850251Y-76213000D02*
X131937000Y-76213000D01*
X175950000Y-88732412D02*
X175950000Y-77312749D01*
D28*
X174350000Y-117550000D02*
X174380000Y-117520000D01*
D29*
X174380000Y-117520000D02*
X179282467Y-112617533D01*
D28*
X174350000Y-125300000D02*
X174350000Y-117550000D01*
D29*
X175150000Y-89532412D02*
X175950000Y-88732412D01*
X179282467Y-112617533D02*
X179282467Y-97682676D01*
X175150000Y-93550209D02*
X175150000Y-89532412D01*
X179282467Y-97682676D02*
X175150000Y-93550209D01*
X175950000Y-77312749D02*
X174850251Y-76213000D01*
X131937000Y-76213000D02*
X130850000Y-77300000D01*
D28*
%TO.N,Net-(J1-Pin_1)*%
X161850000Y-125300000D02*
X161850000Y-117690000D01*
X161680000Y-125130000D02*
X161850000Y-125300000D01*
X161850000Y-117690000D02*
X161680000Y-117520000D01*
D29*
%TO.N,Net-(J2-Pin_6)*%
X161900000Y-80750000D02*
X148950000Y-93700000D01*
X161900000Y-77300000D02*
X161900000Y-80750000D01*
%TO.N,Net-(J2-Pin_8)*%
X156900000Y-77300000D02*
X156900000Y-80650000D01*
X156900000Y-80650000D02*
X143950000Y-93600000D01*
%TO.N,Net-(J2-Pin_7)*%
X159400000Y-77300000D02*
X159400000Y-80650000D01*
X159400000Y-80650000D02*
X146450000Y-93600000D01*
%TO.N,Net-(J3-Pin_9)*%
X174650000Y-103400000D02*
X170715000Y-107335000D01*
X170715000Y-110075991D02*
X164395991Y-116395000D01*
X170715000Y-107335000D02*
X170715000Y-110075991D01*
X160350000Y-117259009D02*
X160350000Y-119600000D01*
X161214009Y-116395000D02*
X160350000Y-117259009D01*
X164395991Y-116395000D02*
X161214009Y-116395000D01*
%TO.N,Net-(J3-Pin_8)*%
X165450000Y-117239009D02*
X165450000Y-120100000D01*
X172965000Y-110365991D02*
X167030991Y-116300000D01*
X167030991Y-116300000D02*
X166389009Y-116300000D01*
X177150000Y-103400000D02*
X172965000Y-107585000D01*
X166389009Y-116300000D02*
X165450000Y-117239009D01*
X172965000Y-107585000D02*
X172965000Y-110365991D01*
%TO.N,/RST*%
X135512749Y-92200000D02*
X136850000Y-93537251D01*
X132450000Y-92200000D02*
X135512749Y-92200000D01*
%TO.N,/+3.3V*%
X120250000Y-96100000D02*
X120250000Y-106200000D01*
X125825000Y-90525000D02*
X120250000Y-96100000D01*
X129000000Y-90800260D02*
X128724740Y-90525000D01*
X129000000Y-91250000D02*
X129000000Y-90800260D01*
X128724740Y-90525000D02*
X125825000Y-90525000D01*
%TO.N,Net-(J8-D+)*%
X119790000Y-89300000D02*
X118560000Y-90530000D01*
X128772532Y-89300000D02*
X119790000Y-89300000D01*
X130000000Y-90527468D02*
X128772532Y-89300000D01*
X130000000Y-91250000D02*
X130000000Y-90527468D01*
%TO.N,Net-(J8-D-)*%
X129500000Y-90663864D02*
X128911136Y-90075000D01*
X128911136Y-90075000D02*
X121015000Y-90075000D01*
X121015000Y-90075000D02*
X120560000Y-90530000D01*
X129500000Y-91250000D02*
X129500000Y-90663864D01*
%TD*%
%TA.AperFunction,Conductor*%
%TO.N,GND*%
G36*
X114931730Y-75220185D02*
G01*
X114977485Y-75272989D01*
X114987429Y-75342147D01*
X114958404Y-75405703D01*
X114952372Y-75412181D01*
X114879175Y-75485377D01*
X114752466Y-75666338D01*
X114752465Y-75666340D01*
X114659107Y-75866548D01*
X114659104Y-75866554D01*
X114601930Y-76079929D01*
X114601929Y-76079937D01*
X114582677Y-76299997D01*
X114582677Y-76300002D01*
X114601929Y-76520062D01*
X114601930Y-76520070D01*
X114659104Y-76733445D01*
X114659105Y-76733447D01*
X114659106Y-76733450D01*
X114752466Y-76933662D01*
X114752468Y-76933666D01*
X114879170Y-77114615D01*
X114879175Y-77114621D01*
X115035378Y-77270824D01*
X115035384Y-77270829D01*
X115216333Y-77397531D01*
X115216335Y-77397532D01*
X115216338Y-77397534D01*
X115416550Y-77490894D01*
X115629932Y-77548070D01*
X115787123Y-77561822D01*
X115849998Y-77567323D01*
X115850000Y-77567323D01*
X115850002Y-77567323D01*
X115905017Y-77562509D01*
X116070068Y-77548070D01*
X116283450Y-77490894D01*
X116483662Y-77397534D01*
X116664620Y-77270826D01*
X116820826Y-77114620D01*
X116947534Y-76933662D01*
X117040894Y-76733450D01*
X117098070Y-76520068D01*
X117117323Y-76300000D01*
X117098070Y-76079932D01*
X117040894Y-75866550D01*
X116947534Y-75666339D01*
X116820826Y-75485380D01*
X116820824Y-75485377D01*
X116747628Y-75412181D01*
X116714143Y-75350858D01*
X116719127Y-75281166D01*
X116760999Y-75225233D01*
X116826463Y-75200816D01*
X116835309Y-75200500D01*
X120364691Y-75200500D01*
X120431730Y-75220185D01*
X120477485Y-75272989D01*
X120487429Y-75342147D01*
X120458404Y-75405703D01*
X120452372Y-75412181D01*
X120379175Y-75485377D01*
X120252466Y-75666338D01*
X120252465Y-75666340D01*
X120159107Y-75866548D01*
X120159104Y-75866554D01*
X120101930Y-76079929D01*
X120101929Y-76079937D01*
X120082677Y-76299997D01*
X120082677Y-76300002D01*
X120101929Y-76520062D01*
X120101930Y-76520070D01*
X120159104Y-76733445D01*
X120159105Y-76733447D01*
X120159106Y-76733450D01*
X120252466Y-76933662D01*
X120252468Y-76933666D01*
X120379170Y-77114615D01*
X120379175Y-77114621D01*
X120535378Y-77270824D01*
X120535384Y-77270829D01*
X120716333Y-77397531D01*
X120716335Y-77397532D01*
X120716338Y-77397534D01*
X120916550Y-77490894D01*
X121129932Y-77548070D01*
X121287123Y-77561822D01*
X121349998Y-77567323D01*
X121350000Y-77567323D01*
X121350002Y-77567323D01*
X121405017Y-77562509D01*
X121570068Y-77548070D01*
X121783450Y-77490894D01*
X121983662Y-77397534D01*
X122164620Y-77270826D01*
X122320826Y-77114620D01*
X122447534Y-76933662D01*
X122540894Y-76733450D01*
X122598070Y-76520068D01*
X122617323Y-76300000D01*
X122598070Y-76079932D01*
X122540894Y-75866550D01*
X122447534Y-75666339D01*
X122320826Y-75485380D01*
X122320824Y-75485377D01*
X122247628Y-75412181D01*
X122214143Y-75350858D01*
X122219127Y-75281166D01*
X122260999Y-75225233D01*
X122326463Y-75200816D01*
X122335309Y-75200500D01*
X125752818Y-75200500D01*
X125819857Y-75220185D01*
X125865612Y-75272989D01*
X125875556Y-75342147D01*
X125846531Y-75405703D01*
X125817247Y-75430448D01*
X125735853Y-75479944D01*
X125512950Y-75661289D01*
X125512947Y-75661291D01*
X125512947Y-75661292D01*
X125493513Y-75682100D01*
X125316812Y-75871299D01*
X125151098Y-76106064D01*
X125018894Y-76361206D01*
X124922667Y-76631962D01*
X124922666Y-76631965D01*
X124864201Y-76913319D01*
X124844592Y-77200000D01*
X124864201Y-77486680D01*
X124864201Y-77486684D01*
X124864202Y-77486686D01*
X124885984Y-77591509D01*
X124922666Y-77768034D01*
X124922667Y-77768037D01*
X125018894Y-78038793D01*
X125018893Y-78038793D01*
X125151098Y-78293935D01*
X125316812Y-78528700D01*
X125349446Y-78563642D01*
X125512947Y-78738708D01*
X125557373Y-78774851D01*
X125735853Y-78920055D01*
X125981382Y-79069365D01*
X126168237Y-79150526D01*
X126244942Y-79183844D01*
X126521642Y-79261371D01*
X126771920Y-79295771D01*
X126806321Y-79300500D01*
X126806322Y-79300500D01*
X127093679Y-79300500D01*
X127124370Y-79296281D01*
X127378358Y-79261371D01*
X127655058Y-79183844D01*
X127768015Y-79134779D01*
X127918617Y-79069365D01*
X127918620Y-79069363D01*
X127918625Y-79069361D01*
X128164147Y-78920055D01*
X128387053Y-78738708D01*
X128583189Y-78528698D01*
X128748901Y-78293936D01*
X128881104Y-78038797D01*
X128977334Y-77768032D01*
X129035798Y-77486686D01*
X129055408Y-77200000D01*
X129035798Y-76913314D01*
X128977334Y-76631968D01*
X128925235Y-76485377D01*
X128881105Y-76361206D01*
X128881106Y-76361206D01*
X128748901Y-76106064D01*
X128583187Y-75871299D01*
X128498207Y-75780309D01*
X128387053Y-75661292D01*
X128164147Y-75479945D01*
X128164146Y-75479944D01*
X128082753Y-75430448D01*
X128035701Y-75378796D01*
X128024044Y-75309906D01*
X128051482Y-75245649D01*
X128109304Y-75206427D01*
X128147182Y-75200500D01*
X175191324Y-75200500D01*
X175258363Y-75220185D01*
X175279005Y-75236819D01*
X176413181Y-76370995D01*
X176446666Y-76432318D01*
X176449500Y-76458676D01*
X176449500Y-76628297D01*
X176429815Y-76695336D01*
X176377011Y-76741091D01*
X176307853Y-76751035D01*
X176244297Y-76722010D01*
X176237819Y-76715978D01*
X175340449Y-75818608D01*
X175340429Y-75818586D01*
X175248984Y-75727141D01*
X175197760Y-75692915D01*
X175146537Y-75658688D01*
X175146534Y-75658686D01*
X175146531Y-75658685D01*
X175066043Y-75625347D01*
X175032704Y-75611537D01*
X175022678Y-75609543D01*
X174972280Y-75599518D01*
X174911861Y-75587500D01*
X174911858Y-75587500D01*
X174911857Y-75587500D01*
X131998607Y-75587500D01*
X131875393Y-75587500D01*
X131875389Y-75587500D01*
X131814971Y-75599518D01*
X131777259Y-75607019D01*
X131754550Y-75611536D01*
X131754548Y-75611537D01*
X131721207Y-75625347D01*
X131640719Y-75658684D01*
X131640705Y-75658692D01*
X131538272Y-75727138D01*
X131538264Y-75727144D01*
X131451139Y-75814270D01*
X131233795Y-76031613D01*
X131172472Y-76065098D01*
X131114021Y-76063707D01*
X131070068Y-76051930D01*
X130850002Y-76032677D01*
X130849998Y-76032677D01*
X130629937Y-76051929D01*
X130629929Y-76051930D01*
X130416554Y-76109104D01*
X130416548Y-76109107D01*
X130216340Y-76202465D01*
X130216338Y-76202466D01*
X130035377Y-76329175D01*
X129879175Y-76485377D01*
X129752466Y-76666338D01*
X129752465Y-76666340D01*
X129659107Y-76866548D01*
X129659104Y-76866554D01*
X129601930Y-77079929D01*
X129601929Y-77079937D01*
X129582677Y-77299997D01*
X129582677Y-77300000D01*
X129601929Y-77520062D01*
X129601930Y-77520070D01*
X129659104Y-77733445D01*
X129659105Y-77733447D01*
X129659106Y-77733450D01*
X129712382Y-77847701D01*
X129752466Y-77933662D01*
X129752468Y-77933666D01*
X129879170Y-78114615D01*
X129879175Y-78114621D01*
X130035378Y-78270824D01*
X130035384Y-78270829D01*
X130216333Y-78397531D01*
X130216335Y-78397532D01*
X130216338Y-78397534D01*
X130416550Y-78490894D01*
X130629932Y-78548070D01*
X130787123Y-78561822D01*
X130849998Y-78567323D01*
X130850000Y-78567323D01*
X130850002Y-78567323D01*
X130905017Y-78562509D01*
X131070068Y-78548070D01*
X131283450Y-78490894D01*
X131483662Y-78397534D01*
X131664620Y-78270826D01*
X131820826Y-78114620D01*
X131947534Y-77933662D01*
X131987618Y-77847700D01*
X132033790Y-77795261D01*
X132100983Y-77776109D01*
X132167864Y-77796324D01*
X132212382Y-77847701D01*
X132252464Y-77933658D01*
X132252468Y-77933666D01*
X132379170Y-78114615D01*
X132379175Y-78114621D01*
X132535378Y-78270824D01*
X132535384Y-78270829D01*
X132716333Y-78397531D01*
X132716335Y-78397532D01*
X132716338Y-78397534D01*
X132916550Y-78490894D01*
X133129932Y-78548070D01*
X133287123Y-78561822D01*
X133349998Y-78567323D01*
X133350000Y-78567323D01*
X133350002Y-78567323D01*
X133405017Y-78562509D01*
X133570068Y-78548070D01*
X133783450Y-78490894D01*
X133983662Y-78397534D01*
X134164620Y-78270826D01*
X134320826Y-78114620D01*
X134447534Y-77933662D01*
X134487618Y-77847700D01*
X134533790Y-77795261D01*
X134600983Y-77776109D01*
X134667864Y-77796324D01*
X134712382Y-77847701D01*
X134752464Y-77933658D01*
X134752468Y-77933666D01*
X134879170Y-78114615D01*
X134879175Y-78114621D01*
X135035378Y-78270824D01*
X135035384Y-78270829D01*
X135216333Y-78397531D01*
X135216335Y-78397532D01*
X135216338Y-78397534D01*
X135416550Y-78490894D01*
X135629932Y-78548070D01*
X135787123Y-78561822D01*
X135849998Y-78567323D01*
X135850000Y-78567323D01*
X135850002Y-78567323D01*
X135905017Y-78562509D01*
X136070068Y-78548070D01*
X136283450Y-78490894D01*
X136483662Y-78397534D01*
X136664620Y-78270826D01*
X136820826Y-78114620D01*
X136947534Y-77933662D01*
X136987894Y-77847108D01*
X137034066Y-77794669D01*
X137101259Y-77775517D01*
X137168140Y-77795732D01*
X137212658Y-77847109D01*
X137252898Y-77933405D01*
X137252901Y-77933411D01*
X137298258Y-77998187D01*
X137298258Y-77998188D01*
X137969000Y-77327446D01*
X137969000Y-77350160D01*
X137994964Y-77447061D01*
X138045124Y-77533940D01*
X138116060Y-77604876D01*
X138202939Y-77655036D01*
X138299840Y-77681000D01*
X138322553Y-77681000D01*
X137651810Y-78351740D01*
X137716590Y-78397099D01*
X137716592Y-78397100D01*
X137916715Y-78490419D01*
X137916729Y-78490424D01*
X138130013Y-78547573D01*
X138130023Y-78547575D01*
X138349999Y-78566821D01*
X138350001Y-78566821D01*
X138569976Y-78547575D01*
X138569986Y-78547573D01*
X138783270Y-78490424D01*
X138783284Y-78490419D01*
X138983407Y-78397100D01*
X138983417Y-78397094D01*
X139048188Y-78351741D01*
X138377448Y-77681000D01*
X138400160Y-77681000D01*
X138497061Y-77655036D01*
X138583940Y-77604876D01*
X138654876Y-77533940D01*
X138705036Y-77447061D01*
X138731000Y-77350160D01*
X138731000Y-77327447D01*
X139401741Y-77998188D01*
X139447094Y-77933417D01*
X139447097Y-77933412D01*
X139487340Y-77847110D01*
X139533512Y-77794670D01*
X139600705Y-77775517D01*
X139667587Y-77795732D01*
X139712105Y-77847108D01*
X139712106Y-77847110D01*
X139752464Y-77933658D01*
X139752466Y-77933661D01*
X139752468Y-77933666D01*
X139826079Y-78038793D01*
X139879174Y-78114620D01*
X140035380Y-78270826D01*
X140041619Y-78275194D01*
X140085246Y-78329768D01*
X140094500Y-78376772D01*
X140094500Y-81972185D01*
X140074815Y-82039224D01*
X140029518Y-82081239D01*
X139951380Y-82123525D01*
X139951365Y-82123535D01*
X139768222Y-82266081D01*
X139768218Y-82266085D01*
X139759866Y-82275158D01*
X139699979Y-82311148D01*
X139630141Y-82309047D01*
X139572525Y-82269522D01*
X139552455Y-82234507D01*
X139523797Y-82157671D01*
X139523793Y-82157664D01*
X139437547Y-82042455D01*
X139437544Y-82042452D01*
X139322335Y-81956206D01*
X139322328Y-81956202D01*
X139187482Y-81905908D01*
X139187483Y-81905908D01*
X139127883Y-81899501D01*
X139127881Y-81899500D01*
X139127873Y-81899500D01*
X139127864Y-81899500D01*
X137232129Y-81899500D01*
X137232123Y-81899501D01*
X137172516Y-81905908D01*
X137037671Y-81956202D01*
X137037664Y-81956206D01*
X136922455Y-82042452D01*
X136922452Y-82042455D01*
X136836206Y-82157664D01*
X136836202Y-82157671D01*
X136785908Y-82292517D01*
X136779501Y-82352116D01*
X136779500Y-82352135D01*
X136779500Y-82425500D01*
X136759815Y-82492539D01*
X136707011Y-82538294D01*
X136655500Y-82549500D01*
X136430274Y-82549500D01*
X136363235Y-82529815D01*
X136328700Y-82496624D01*
X136320828Y-82485382D01*
X136260946Y-82425500D01*
X136164620Y-82329174D01*
X136164616Y-82329171D01*
X136164615Y-82329170D01*
X135983666Y-82202468D01*
X135983662Y-82202466D01*
X135887583Y-82157664D01*
X135783450Y-82109106D01*
X135783447Y-82109105D01*
X135783445Y-82109104D01*
X135570070Y-82051930D01*
X135570062Y-82051929D01*
X135350002Y-82032677D01*
X135349998Y-82032677D01*
X135129937Y-82051929D01*
X135129929Y-82051930D01*
X134916554Y-82109104D01*
X134916548Y-82109107D01*
X134716340Y-82202465D01*
X134716338Y-82202466D01*
X134535377Y-82329175D01*
X134379175Y-82485377D01*
X134252466Y-82666338D01*
X134252465Y-82666340D01*
X134159107Y-82866548D01*
X134159104Y-82866554D01*
X134101930Y-83079929D01*
X134101929Y-83079937D01*
X134082677Y-83299997D01*
X134082677Y-83300002D01*
X134101929Y-83520062D01*
X134101930Y-83520070D01*
X134159104Y-83733445D01*
X134159105Y-83733447D01*
X134159106Y-83733450D01*
X134252346Y-83933405D01*
X134252466Y-83933662D01*
X134252468Y-83933666D01*
X134379170Y-84114615D01*
X134379175Y-84114621D01*
X134535378Y-84270824D01*
X134535384Y-84270829D01*
X134716333Y-84397531D01*
X134716335Y-84397532D01*
X134716338Y-84397534D01*
X134916550Y-84490894D01*
X135129932Y-84548070D01*
X135287123Y-84561822D01*
X135349998Y-84567323D01*
X135350000Y-84567323D01*
X135350002Y-84567323D01*
X135405017Y-84562509D01*
X135570068Y-84548070D01*
X135783450Y-84490894D01*
X135983662Y-84397534D01*
X136164620Y-84270826D01*
X136320826Y-84114620D01*
X136321603Y-84113509D01*
X136328700Y-84103376D01*
X136383277Y-84059751D01*
X136430274Y-84050500D01*
X136655501Y-84050500D01*
X136722540Y-84070185D01*
X136768295Y-84122989D01*
X136779501Y-84174500D01*
X136779501Y-84247876D01*
X136785908Y-84307483D01*
X136836202Y-84442328D01*
X136836206Y-84442335D01*
X136922452Y-84557544D01*
X136922455Y-84557547D01*
X137037664Y-84643793D01*
X137037671Y-84643797D01*
X137172517Y-84694091D01*
X137172516Y-84694091D01*
X137179444Y-84694835D01*
X137232127Y-84700500D01*
X139127872Y-84700499D01*
X139187483Y-84694091D01*
X139322331Y-84643796D01*
X139437546Y-84557546D01*
X139523796Y-84442331D01*
X139540505Y-84397533D01*
X139552455Y-84365493D01*
X139594326Y-84309559D01*
X139659790Y-84285141D01*
X139728063Y-84299992D01*
X139759866Y-84324843D01*
X139767302Y-84332920D01*
X139768215Y-84333912D01*
X139768222Y-84333918D01*
X139951365Y-84476464D01*
X139951371Y-84476468D01*
X139951374Y-84476470D01*
X140155497Y-84586936D01*
X140262549Y-84623687D01*
X140375015Y-84662297D01*
X140375017Y-84662297D01*
X140375019Y-84662298D01*
X140603951Y-84700500D01*
X140603952Y-84700500D01*
X140836048Y-84700500D01*
X140836049Y-84700500D01*
X141064981Y-84662298D01*
X141284503Y-84586936D01*
X141488626Y-84476470D01*
X141671784Y-84333913D01*
X141828979Y-84163153D01*
X141955924Y-83968849D01*
X142049157Y-83756300D01*
X142106134Y-83531305D01*
X142107073Y-83519976D01*
X142125300Y-83300006D01*
X142125300Y-83299993D01*
X142106135Y-83068702D01*
X142106133Y-83068691D01*
X142049157Y-82843699D01*
X141955924Y-82631151D01*
X141828983Y-82436852D01*
X141828980Y-82436849D01*
X141828979Y-82436847D01*
X141671784Y-82266087D01*
X141671779Y-82266083D01*
X141671777Y-82266081D01*
X141488634Y-82123535D01*
X141488619Y-82123525D01*
X141410482Y-82081239D01*
X141360891Y-82032020D01*
X141345500Y-81972185D01*
X141345500Y-78540955D01*
X141365185Y-78473916D01*
X141417093Y-78428574D01*
X141483662Y-78397534D01*
X141664620Y-78270826D01*
X141820826Y-78114620D01*
X141947534Y-77933662D01*
X141987618Y-77847700D01*
X142033790Y-77795261D01*
X142100983Y-77776109D01*
X142167864Y-77796324D01*
X142212382Y-77847701D01*
X142252464Y-77933658D01*
X142252468Y-77933666D01*
X142379170Y-78114615D01*
X142379175Y-78114621D01*
X142535378Y-78270824D01*
X142535384Y-78270829D01*
X142716333Y-78397531D01*
X142716335Y-78397532D01*
X142716338Y-78397534D01*
X142916550Y-78490894D01*
X143129932Y-78548070D01*
X143287123Y-78561822D01*
X143349998Y-78567323D01*
X143350000Y-78567323D01*
X143350002Y-78567323D01*
X143405017Y-78562509D01*
X143570068Y-78548070D01*
X143783450Y-78490894D01*
X143983662Y-78397534D01*
X144164620Y-78270826D01*
X144320826Y-78114620D01*
X144447534Y-77933662D01*
X144487618Y-77847700D01*
X144533790Y-77795261D01*
X144600983Y-77776109D01*
X144667864Y-77796324D01*
X144712382Y-77847701D01*
X144752464Y-77933658D01*
X144752468Y-77933666D01*
X144879170Y-78114615D01*
X144879175Y-78114621D01*
X145035378Y-78270824D01*
X145035384Y-78270829D01*
X145216333Y-78397531D01*
X145216335Y-78397532D01*
X145216338Y-78397534D01*
X145416550Y-78490894D01*
X145629932Y-78548070D01*
X145787123Y-78561822D01*
X145849998Y-78567323D01*
X145850000Y-78567323D01*
X145850002Y-78567323D01*
X145905017Y-78562509D01*
X146070068Y-78548070D01*
X146283450Y-78490894D01*
X146483662Y-78397534D01*
X146664620Y-78270826D01*
X146820826Y-78114620D01*
X146947534Y-77933662D01*
X146987618Y-77847700D01*
X147033790Y-77795261D01*
X147100983Y-77776109D01*
X147167864Y-77796324D01*
X147212382Y-77847701D01*
X147252464Y-77933658D01*
X147252468Y-77933666D01*
X147379170Y-78114615D01*
X147379175Y-78114621D01*
X147535378Y-78270824D01*
X147535384Y-78270829D01*
X147716333Y-78397531D01*
X147716335Y-78397532D01*
X147716338Y-78397534D01*
X147916550Y-78490894D01*
X148129932Y-78548070D01*
X148287123Y-78561822D01*
X148349998Y-78567323D01*
X148350000Y-78567323D01*
X148350002Y-78567323D01*
X148405017Y-78562509D01*
X148570068Y-78548070D01*
X148783450Y-78490894D01*
X148983662Y-78397534D01*
X149164620Y-78270826D01*
X149320826Y-78114620D01*
X149447534Y-77933662D01*
X149487618Y-77847700D01*
X149533790Y-77795261D01*
X149600983Y-77776109D01*
X149667864Y-77796324D01*
X149712382Y-77847701D01*
X149752464Y-77933658D01*
X149752468Y-77933666D01*
X149879170Y-78114615D01*
X149879175Y-78114621D01*
X150035378Y-78270824D01*
X150035384Y-78270829D01*
X150216333Y-78397531D01*
X150216335Y-78397532D01*
X150216338Y-78397534D01*
X150416550Y-78490894D01*
X150629932Y-78548070D01*
X150787123Y-78561822D01*
X150849998Y-78567323D01*
X150850000Y-78567323D01*
X150850002Y-78567323D01*
X150905017Y-78562509D01*
X151070068Y-78548070D01*
X151283450Y-78490894D01*
X151483662Y-78397534D01*
X151664620Y-78270826D01*
X151820826Y-78114620D01*
X151947534Y-77933662D01*
X151987618Y-77847700D01*
X152033790Y-77795261D01*
X152100983Y-77776109D01*
X152167864Y-77796324D01*
X152212382Y-77847701D01*
X152252464Y-77933658D01*
X152252468Y-77933666D01*
X152379170Y-78114615D01*
X152379175Y-78114621D01*
X152535378Y-78270824D01*
X152535384Y-78270829D01*
X152716333Y-78397531D01*
X152716335Y-78397532D01*
X152716338Y-78397534D01*
X152916550Y-78490894D01*
X153129932Y-78548070D01*
X153287123Y-78561822D01*
X153349998Y-78567323D01*
X153350000Y-78567323D01*
X153350002Y-78567323D01*
X153405017Y-78562509D01*
X153570068Y-78548070D01*
X153783450Y-78490894D01*
X153983662Y-78397534D01*
X154164620Y-78270826D01*
X154320826Y-78114620D01*
X154447534Y-77933662D01*
X154540894Y-77733450D01*
X154598070Y-77520068D01*
X154617323Y-77300000D01*
X154614770Y-77270824D01*
X154604457Y-77152939D01*
X154598070Y-77079932D01*
X154575203Y-76994592D01*
X154576866Y-76924744D01*
X154616028Y-76866881D01*
X154680256Y-76839377D01*
X154694978Y-76838500D01*
X155555022Y-76838500D01*
X155622061Y-76858185D01*
X155667816Y-76910989D01*
X155677760Y-76980147D01*
X155674798Y-76994585D01*
X155673893Y-76997967D01*
X155651930Y-77079930D01*
X155651929Y-77079937D01*
X155632677Y-77299997D01*
X155632677Y-77300000D01*
X155651929Y-77520062D01*
X155651930Y-77520070D01*
X155709104Y-77733445D01*
X155709105Y-77733447D01*
X155709106Y-77733450D01*
X155762382Y-77847701D01*
X155802466Y-77933662D01*
X155802468Y-77933666D01*
X155929170Y-78114615D01*
X155929175Y-78114621D01*
X156085378Y-78270824D01*
X156085384Y-78270829D01*
X156119633Y-78294810D01*
X156200937Y-78351740D01*
X156221623Y-78366224D01*
X156265248Y-78420801D01*
X156274500Y-78467799D01*
X156274500Y-80339547D01*
X156254815Y-80406586D01*
X156238181Y-80427228D01*
X143891621Y-92773787D01*
X143830298Y-92807272D01*
X143817825Y-92809326D01*
X143770750Y-92814630D01*
X143600478Y-92874210D01*
X143447737Y-92970184D01*
X143320184Y-93097737D01*
X143224211Y-93250476D01*
X143164631Y-93420745D01*
X143164630Y-93420750D01*
X143144435Y-93599996D01*
X143144435Y-93600003D01*
X143164630Y-93779249D01*
X143164631Y-93779254D01*
X143224211Y-93949523D01*
X143287045Y-94049522D01*
X143319138Y-94100598D01*
X143320186Y-94102265D01*
X143321501Y-94103914D01*
X143322017Y-94105180D01*
X143323889Y-94108158D01*
X143323367Y-94108485D01*
X143347908Y-94168601D01*
X143335150Y-94237296D01*
X143287278Y-94288189D01*
X143224552Y-94305224D01*
X137670042Y-94305224D01*
X137603003Y-94285539D01*
X137582361Y-94268905D01*
X137500792Y-94187336D01*
X137467307Y-94126013D01*
X137472291Y-94056321D01*
X137483479Y-94033683D01*
X137486610Y-94028700D01*
X137575789Y-93886773D01*
X137635368Y-93716506D01*
X137635369Y-93716500D01*
X137655565Y-93537254D01*
X137655565Y-93537247D01*
X137635369Y-93358001D01*
X137635368Y-93357996D01*
X137602941Y-93265326D01*
X137575789Y-93187729D01*
X137479816Y-93034989D01*
X137352262Y-92907435D01*
X137334950Y-92896557D01*
X137199521Y-92811461D01*
X137029249Y-92751881D01*
X136982174Y-92746577D01*
X136917760Y-92719510D01*
X136908378Y-92711038D01*
X136005677Y-91808338D01*
X136005674Y-91808334D01*
X136005674Y-91808335D01*
X135998607Y-91801268D01*
X135998607Y-91801267D01*
X135911482Y-91714142D01*
X135911481Y-91714141D01*
X135911480Y-91714140D01*
X135859637Y-91679500D01*
X135824744Y-91656185D01*
X135809035Y-91645688D01*
X135809032Y-91645686D01*
X135809029Y-91645685D01*
X135728541Y-91612347D01*
X135695202Y-91598537D01*
X135685176Y-91596543D01*
X135634778Y-91586518D01*
X135574359Y-91574500D01*
X135574356Y-91574500D01*
X135574355Y-91574500D01*
X132388394Y-91574500D01*
X132388391Y-91574500D01*
X132249499Y-91574500D01*
X132182460Y-91554815D01*
X132136705Y-91502011D01*
X132125499Y-91450500D01*
X132125499Y-90875596D01*
X132111011Y-90765536D01*
X132111009Y-90765531D01*
X132111009Y-90765528D01*
X132054279Y-90628571D01*
X131964036Y-90510964D01*
X131846429Y-90420721D01*
X131846425Y-90420719D01*
X131709472Y-90363991D01*
X131709470Y-90363990D01*
X131599401Y-90349500D01*
X131400596Y-90349500D01*
X131290531Y-90363989D01*
X131282678Y-90366094D01*
X131281802Y-90362824D01*
X131227853Y-90368567D01*
X131217477Y-90365518D01*
X131217323Y-90366095D01*
X131209470Y-90363990D01*
X131099401Y-90349500D01*
X130900596Y-90349500D01*
X130790529Y-90363989D01*
X130782681Y-90366093D01*
X130781856Y-90363015D01*
X130727229Y-90368842D01*
X130717355Y-90365989D01*
X130717197Y-90366582D01*
X130709346Y-90364478D01*
X130674744Y-90359923D01*
X130610848Y-90331656D01*
X130576371Y-90284439D01*
X130554312Y-90231183D01*
X130538066Y-90206870D01*
X130505353Y-90157911D01*
X130505353Y-90157910D01*
X130485858Y-90128735D01*
X130485853Y-90128729D01*
X130395637Y-90038513D01*
X130395606Y-90038484D01*
X129262730Y-88905608D01*
X129262710Y-88905586D01*
X129171265Y-88814141D01*
X129120041Y-88779915D01*
X129068819Y-88745689D01*
X129068818Y-88745688D01*
X129068815Y-88745686D01*
X129068812Y-88745685D01*
X128988324Y-88712347D01*
X128954986Y-88698538D01*
X128954987Y-88698538D01*
X128954984Y-88698537D01*
X128954980Y-88698536D01*
X128954976Y-88698535D01*
X128847969Y-88677250D01*
X128847968Y-88677250D01*
X128834143Y-88674500D01*
X128834139Y-88674500D01*
X128834138Y-88674500D01*
X119857741Y-88674500D01*
X119857721Y-88674499D01*
X119851607Y-88674499D01*
X119728394Y-88674499D01*
X119627597Y-88694548D01*
X119627592Y-88694548D01*
X119607549Y-88698536D01*
X119607547Y-88698536D01*
X119560397Y-88718067D01*
X119493719Y-88745685D01*
X119493717Y-88745686D01*
X119391266Y-88814141D01*
X119391263Y-88814144D01*
X119015646Y-89189762D01*
X118954323Y-89223247D01*
X118895872Y-89221856D01*
X118795413Y-89194938D01*
X118795403Y-89194936D01*
X118560001Y-89174341D01*
X118559999Y-89174341D01*
X118324596Y-89194936D01*
X118324586Y-89194938D01*
X118096344Y-89256094D01*
X118096335Y-89256098D01*
X117882171Y-89355964D01*
X117882169Y-89355965D01*
X117688597Y-89491505D01*
X117521505Y-89658597D01*
X117385965Y-89852169D01*
X117385964Y-89852171D01*
X117286098Y-90066335D01*
X117286094Y-90066344D01*
X117224938Y-90294586D01*
X117224936Y-90294596D01*
X117204341Y-90529999D01*
X117204341Y-90530000D01*
X117224936Y-90765403D01*
X117224938Y-90765413D01*
X117286094Y-90993655D01*
X117286096Y-90993659D01*
X117286097Y-90993663D01*
X117336193Y-91101093D01*
X117385965Y-91207830D01*
X117385967Y-91207834D01*
X117494281Y-91362521D01*
X117521505Y-91401401D01*
X117688599Y-91568495D01*
X117798840Y-91645687D01*
X117846031Y-91678730D01*
X117889656Y-91733307D01*
X117896850Y-91802805D01*
X117865327Y-91865160D01*
X117846032Y-91881880D01*
X117798627Y-91915073D01*
X117798626Y-91915073D01*
X118463250Y-92579697D01*
X118382447Y-92601349D01*
X118277554Y-92661909D01*
X118191909Y-92747554D01*
X118131349Y-92852447D01*
X118109697Y-92933250D01*
X117445073Y-92268626D01*
X117445073Y-92268627D01*
X117386400Y-92352421D01*
X117386399Y-92352423D01*
X117286570Y-92566507D01*
X117286566Y-92566516D01*
X117225432Y-92794673D01*
X117225430Y-92794684D01*
X117204843Y-93029998D01*
X117204843Y-93030001D01*
X117225430Y-93265315D01*
X117225432Y-93265326D01*
X117286566Y-93493483D01*
X117286570Y-93493492D01*
X117386398Y-93707576D01*
X117445073Y-93791372D01*
X118109697Y-93126748D01*
X118131349Y-93207553D01*
X118191909Y-93312446D01*
X118277554Y-93398091D01*
X118382447Y-93458651D01*
X118463249Y-93480302D01*
X117798626Y-94144926D01*
X117882417Y-94203598D01*
X117882421Y-94203600D01*
X118096507Y-94303429D01*
X118096516Y-94303433D01*
X118324673Y-94364567D01*
X118324684Y-94364569D01*
X118559998Y-94385157D01*
X118560002Y-94385157D01*
X118795315Y-94364569D01*
X118795326Y-94364567D01*
X119023483Y-94303433D01*
X119023492Y-94303430D01*
X119214080Y-94214557D01*
X119283157Y-94204065D01*
X119346941Y-94232585D01*
X119351708Y-94236988D01*
X119467664Y-94323793D01*
X119467671Y-94323797D01*
X119602517Y-94374091D01*
X119602516Y-94374091D01*
X119609444Y-94374835D01*
X119662127Y-94380500D01*
X120785547Y-94380499D01*
X120852586Y-94400184D01*
X120898341Y-94452987D01*
X120908285Y-94522146D01*
X120879260Y-94585702D01*
X120873228Y-94592180D01*
X119851269Y-95614140D01*
X119764144Y-95701264D01*
X119764138Y-95701272D01*
X119695690Y-95803708D01*
X119695688Y-95803713D01*
X119648540Y-95917538D01*
X119648537Y-95917546D01*
X119625272Y-96034517D01*
X119625268Y-96034536D01*
X119624500Y-96038393D01*
X119624500Y-105655145D01*
X119605494Y-105721117D01*
X119524211Y-105850476D01*
X119464631Y-106020745D01*
X119464630Y-106020750D01*
X119444435Y-106199996D01*
X119444435Y-106200003D01*
X119464630Y-106379249D01*
X119464631Y-106379254D01*
X119524211Y-106549523D01*
X119608259Y-106683284D01*
X119620184Y-106702262D01*
X119747738Y-106829816D01*
X119900478Y-106925789D01*
X120065507Y-106983535D01*
X120070745Y-106985368D01*
X120070750Y-106985369D01*
X120249996Y-107005565D01*
X120250000Y-107005565D01*
X120250004Y-107005565D01*
X120429249Y-106985369D01*
X120429252Y-106985368D01*
X120429255Y-106985368D01*
X120599522Y-106925789D01*
X120752262Y-106829816D01*
X120879816Y-106702262D01*
X120975789Y-106549522D01*
X121035368Y-106379255D01*
X121039888Y-106339139D01*
X121055565Y-106200003D01*
X121055565Y-106199996D01*
X121035369Y-106020750D01*
X121035368Y-106020745D01*
X121033729Y-106016060D01*
X120975789Y-105850478D01*
X120954577Y-105816720D01*
X120894506Y-105721117D01*
X120875500Y-105655145D01*
X120875500Y-96410452D01*
X120895185Y-96343413D01*
X120911819Y-96322771D01*
X126047772Y-91186819D01*
X126109095Y-91153334D01*
X126135453Y-91150500D01*
X127750500Y-91150500D01*
X127817539Y-91170185D01*
X127863294Y-91222989D01*
X127874500Y-91274500D01*
X127874500Y-91450500D01*
X127854815Y-91517539D01*
X127802011Y-91563294D01*
X127750500Y-91574500D01*
X127038649Y-91574500D01*
X126978231Y-91586518D01*
X126935003Y-91595116D01*
X126917806Y-91598537D01*
X126803976Y-91645687D01*
X126803967Y-91645692D01*
X126701528Y-91714140D01*
X126679467Y-91736202D01*
X126614402Y-91801267D01*
X126614399Y-91801270D01*
X124451270Y-93964399D01*
X124451267Y-93964402D01*
X124428186Y-93987483D01*
X124364140Y-94051528D01*
X124337393Y-94091560D01*
X124337391Y-94091563D01*
X124326120Y-94108431D01*
X124295688Y-94153974D01*
X124295686Y-94153976D01*
X124276623Y-94199999D01*
X124276624Y-94200000D01*
X124254128Y-94254312D01*
X124251970Y-94259521D01*
X124248536Y-94267809D01*
X124248535Y-94267814D01*
X124225156Y-94385354D01*
X124225156Y-94385358D01*
X124224500Y-94388652D01*
X124224500Y-99332201D01*
X124204815Y-99399240D01*
X124171623Y-99433776D01*
X124035377Y-99529175D01*
X123879175Y-99685377D01*
X123752466Y-99866338D01*
X123752465Y-99866340D01*
X123659107Y-100066548D01*
X123659104Y-100066554D01*
X123601930Y-100279929D01*
X123601929Y-100279937D01*
X123582677Y-100499997D01*
X123582677Y-100500002D01*
X123601929Y-100720062D01*
X123601930Y-100720070D01*
X123659104Y-100933445D01*
X123659105Y-100933447D01*
X123659106Y-100933450D01*
X123690570Y-101000924D01*
X123752466Y-101133662D01*
X123752468Y-101133666D01*
X123879170Y-101314615D01*
X123879175Y-101314621D01*
X124035378Y-101470824D01*
X124035384Y-101470829D01*
X124216333Y-101597531D01*
X124216335Y-101597532D01*
X124216338Y-101597534D01*
X124416550Y-101690894D01*
X124629932Y-101748070D01*
X124850000Y-101767323D01*
X124851727Y-101767171D01*
X124852480Y-101767323D01*
X124855414Y-101767323D01*
X124855414Y-101767912D01*
X124920225Y-101780929D01*
X124950228Y-101803017D01*
X127113181Y-103965970D01*
X127146666Y-104027293D01*
X127149500Y-104053651D01*
X127149500Y-105263691D01*
X127129815Y-105330730D01*
X127113181Y-105351372D01*
X127029175Y-105435377D01*
X126902466Y-105616338D01*
X126902465Y-105616340D01*
X126809107Y-105816548D01*
X126809104Y-105816554D01*
X126751930Y-106029929D01*
X126751929Y-106029937D01*
X126732677Y-106249997D01*
X126732677Y-106250002D01*
X126751929Y-106470062D01*
X126751930Y-106470070D01*
X126809104Y-106683445D01*
X126809105Y-106683447D01*
X126809106Y-106683450D01*
X126865770Y-106804966D01*
X126902466Y-106883662D01*
X126902468Y-106883666D01*
X127029170Y-107064615D01*
X127029175Y-107064621D01*
X127185378Y-107220824D01*
X127185384Y-107220829D01*
X127366333Y-107347531D01*
X127366335Y-107347532D01*
X127366338Y-107347534D01*
X127566550Y-107440894D01*
X127779932Y-107498070D01*
X127937123Y-107511822D01*
X127999998Y-107517323D01*
X128000000Y-107517323D01*
X128000002Y-107517323D01*
X128055017Y-107512509D01*
X128220068Y-107498070D01*
X128433450Y-107440894D01*
X128633662Y-107347534D01*
X128814620Y-107220826D01*
X128970826Y-107064620D01*
X129097534Y-106883662D01*
X129162346Y-106744671D01*
X129187042Y-106709403D01*
X129619000Y-106277445D01*
X129619000Y-106300160D01*
X129644964Y-106397061D01*
X129695124Y-106483940D01*
X129766060Y-106554876D01*
X129852939Y-106605036D01*
X129949840Y-106631000D01*
X129972553Y-106631000D01*
X129301810Y-107301740D01*
X129366590Y-107347099D01*
X129366592Y-107347100D01*
X129566715Y-107440419D01*
X129566729Y-107440424D01*
X129780013Y-107497573D01*
X129780023Y-107497575D01*
X129999999Y-107516821D01*
X130000001Y-107516821D01*
X130219976Y-107497575D01*
X130219986Y-107497573D01*
X130433270Y-107440424D01*
X130433284Y-107440419D01*
X130633407Y-107347100D01*
X130633417Y-107347094D01*
X130698188Y-107301741D01*
X130027448Y-106631000D01*
X130050160Y-106631000D01*
X130147061Y-106605036D01*
X130233940Y-106554876D01*
X130304876Y-106483940D01*
X130355036Y-106397061D01*
X130381000Y-106300160D01*
X130381000Y-106277447D01*
X131051741Y-106948188D01*
X131097094Y-106883417D01*
X131097100Y-106883407D01*
X131190419Y-106683284D01*
X131190424Y-106683270D01*
X131247573Y-106469986D01*
X131247575Y-106469976D01*
X131266821Y-106250000D01*
X131266821Y-106249999D01*
X131247575Y-106030023D01*
X131247573Y-106030013D01*
X131190424Y-105816729D01*
X131190420Y-105816720D01*
X131097096Y-105616586D01*
X131051741Y-105551811D01*
X131051740Y-105551810D01*
X130381000Y-106222551D01*
X130381000Y-106199840D01*
X130355036Y-106102939D01*
X130304876Y-106016060D01*
X130233940Y-105945124D01*
X130147061Y-105894964D01*
X130050160Y-105869000D01*
X130027447Y-105869000D01*
X130698188Y-105198258D01*
X130633411Y-105152901D01*
X130633405Y-105152898D01*
X130433284Y-105059580D01*
X130433270Y-105059575D01*
X130219986Y-105002426D01*
X130219976Y-105002424D01*
X130000001Y-104983179D01*
X129999999Y-104983179D01*
X129780023Y-105002424D01*
X129780013Y-105002426D01*
X129566729Y-105059575D01*
X129566720Y-105059579D01*
X129366590Y-105152901D01*
X129301811Y-105198258D01*
X129972554Y-105869000D01*
X129949840Y-105869000D01*
X129852939Y-105894964D01*
X129766060Y-105945124D01*
X129695124Y-106016060D01*
X129644964Y-106102939D01*
X129619000Y-106199840D01*
X129619000Y-106222553D01*
X129187043Y-105790596D01*
X129162342Y-105755320D01*
X129115863Y-105655646D01*
X129097534Y-105616339D01*
X128970826Y-105435380D01*
X128970824Y-105435377D01*
X128886819Y-105351372D01*
X128853334Y-105290049D01*
X128850500Y-105263691D01*
X128850500Y-104474500D01*
X128870185Y-104407461D01*
X128922989Y-104361706D01*
X128974500Y-104350500D01*
X133075500Y-104350500D01*
X133142539Y-104370185D01*
X133188294Y-104422989D01*
X133199500Y-104474500D01*
X133199500Y-105263691D01*
X133179815Y-105330730D01*
X133163181Y-105351372D01*
X133079175Y-105435377D01*
X132952466Y-105616338D01*
X132952465Y-105616340D01*
X132859107Y-105816548D01*
X132859104Y-105816554D01*
X132801930Y-106029929D01*
X132801929Y-106029937D01*
X132782677Y-106249997D01*
X132782677Y-106250002D01*
X132801929Y-106470062D01*
X132801930Y-106470070D01*
X132859104Y-106683445D01*
X132859105Y-106683447D01*
X132859106Y-106683450D01*
X132915770Y-106804966D01*
X132952466Y-106883662D01*
X132952468Y-106883666D01*
X133079170Y-107064615D01*
X133079175Y-107064621D01*
X133235378Y-107220824D01*
X133235384Y-107220829D01*
X133416333Y-107347531D01*
X133416335Y-107347532D01*
X133416338Y-107347534D01*
X133616550Y-107440894D01*
X133829932Y-107498070D01*
X133987123Y-107511822D01*
X134049998Y-107517323D01*
X134050000Y-107517323D01*
X134050002Y-107517323D01*
X134105017Y-107512509D01*
X134270068Y-107498070D01*
X134483450Y-107440894D01*
X134683662Y-107347534D01*
X134864620Y-107220826D01*
X135020826Y-107064620D01*
X135147534Y-106883662D01*
X135212346Y-106744671D01*
X135237042Y-106709403D01*
X135669000Y-106277445D01*
X135669000Y-106300160D01*
X135694964Y-106397061D01*
X135745124Y-106483940D01*
X135816060Y-106554876D01*
X135902939Y-106605036D01*
X135999840Y-106631000D01*
X136022553Y-106631000D01*
X135351810Y-107301740D01*
X135416590Y-107347099D01*
X135416592Y-107347100D01*
X135616715Y-107440419D01*
X135616729Y-107440424D01*
X135830013Y-107497573D01*
X135830023Y-107497575D01*
X136049999Y-107516821D01*
X136050001Y-107516821D01*
X136269976Y-107497575D01*
X136269986Y-107497573D01*
X136483270Y-107440424D01*
X136483284Y-107440419D01*
X136683407Y-107347100D01*
X136683417Y-107347094D01*
X136748188Y-107301741D01*
X136077448Y-106631000D01*
X136100160Y-106631000D01*
X136197061Y-106605036D01*
X136283940Y-106554876D01*
X136354876Y-106483940D01*
X136405036Y-106397061D01*
X136431000Y-106300160D01*
X136431000Y-106277447D01*
X137101741Y-106948188D01*
X137147094Y-106883417D01*
X137147100Y-106883407D01*
X137240419Y-106683284D01*
X137240424Y-106683270D01*
X137297573Y-106469986D01*
X137297575Y-106469976D01*
X137316821Y-106250000D01*
X137316821Y-106249999D01*
X137297575Y-106030023D01*
X137297573Y-106030013D01*
X137240424Y-105816729D01*
X137240420Y-105816720D01*
X137147096Y-105616586D01*
X137101741Y-105551811D01*
X137101740Y-105551810D01*
X136431000Y-106222551D01*
X136431000Y-106199840D01*
X136405036Y-106102939D01*
X136354876Y-106016060D01*
X136283940Y-105945124D01*
X136197061Y-105894964D01*
X136100160Y-105869000D01*
X136077447Y-105869000D01*
X136748188Y-105198258D01*
X136683411Y-105152901D01*
X136683405Y-105152898D01*
X136483284Y-105059580D01*
X136483270Y-105059575D01*
X136269986Y-105002426D01*
X136269976Y-105002424D01*
X136050001Y-104983179D01*
X136049999Y-104983179D01*
X135830023Y-105002424D01*
X135830013Y-105002426D01*
X135616729Y-105059575D01*
X135616720Y-105059579D01*
X135416590Y-105152901D01*
X135351811Y-105198258D01*
X136022554Y-105869000D01*
X135999840Y-105869000D01*
X135902939Y-105894964D01*
X135816060Y-105945124D01*
X135745124Y-106016060D01*
X135694964Y-106102939D01*
X135669000Y-106199840D01*
X135669000Y-106222553D01*
X135237043Y-105790596D01*
X135212342Y-105755320D01*
X135165863Y-105655646D01*
X135147534Y-105616339D01*
X135020826Y-105435380D01*
X135020824Y-105435377D01*
X134936819Y-105351372D01*
X134903334Y-105290049D01*
X134900500Y-105263691D01*
X134900500Y-104803650D01*
X134920185Y-104736611D01*
X134936819Y-104715969D01*
X135265969Y-104386819D01*
X135327292Y-104353334D01*
X135353650Y-104350500D01*
X137046349Y-104350500D01*
X137113388Y-104370185D01*
X137134030Y-104386819D01*
X138163181Y-105415970D01*
X138196666Y-105477293D01*
X138199500Y-105503651D01*
X138199500Y-120696348D01*
X138179815Y-120763387D01*
X138163181Y-120784029D01*
X136490396Y-122456814D01*
X134950227Y-123996982D01*
X134888904Y-124030467D01*
X134855413Y-124032595D01*
X134855413Y-124032677D01*
X134854132Y-124032677D01*
X134851740Y-124032829D01*
X134850002Y-124032677D01*
X134849998Y-124032677D01*
X134629937Y-124051929D01*
X134629929Y-124051930D01*
X134416554Y-124109104D01*
X134416548Y-124109107D01*
X134216340Y-124202465D01*
X134216338Y-124202466D01*
X134035377Y-124329175D01*
X133879175Y-124485377D01*
X133752466Y-124666338D01*
X133752465Y-124666340D01*
X133712382Y-124752299D01*
X133666209Y-124804738D01*
X133599016Y-124823890D01*
X133532135Y-124803674D01*
X133487618Y-124752299D01*
X133447651Y-124666590D01*
X133447534Y-124666339D01*
X133320826Y-124485380D01*
X133164620Y-124329174D01*
X133164616Y-124329171D01*
X133164615Y-124329170D01*
X132983666Y-124202468D01*
X132983662Y-124202466D01*
X132950242Y-124186882D01*
X132783450Y-124109106D01*
X132783447Y-124109105D01*
X132783445Y-124109104D01*
X132570070Y-124051930D01*
X132570062Y-124051929D01*
X132350002Y-124032677D01*
X132349998Y-124032677D01*
X132129937Y-124051929D01*
X132129929Y-124051930D01*
X131916554Y-124109104D01*
X131916548Y-124109107D01*
X131716340Y-124202465D01*
X131716338Y-124202466D01*
X131535377Y-124329175D01*
X131379175Y-124485377D01*
X131252466Y-124666338D01*
X131252465Y-124666340D01*
X131159107Y-124866548D01*
X131159104Y-124866554D01*
X131101930Y-125079929D01*
X131101929Y-125079937D01*
X131082677Y-125299997D01*
X131082677Y-125300002D01*
X131101929Y-125520062D01*
X131101930Y-125520070D01*
X131159104Y-125733445D01*
X131159105Y-125733447D01*
X131159106Y-125733450D01*
X131212382Y-125847701D01*
X131252466Y-125933662D01*
X131252468Y-125933666D01*
X131379170Y-126114615D01*
X131379175Y-126114621D01*
X131535378Y-126270824D01*
X131535384Y-126270829D01*
X131716333Y-126397531D01*
X131716335Y-126397532D01*
X131716338Y-126397534D01*
X131916550Y-126490894D01*
X132129932Y-126548070D01*
X132287123Y-126561822D01*
X132349998Y-126567323D01*
X132350000Y-126567323D01*
X132350002Y-126567323D01*
X132405414Y-126562475D01*
X132570068Y-126548070D01*
X132783450Y-126490894D01*
X132983662Y-126397534D01*
X133164620Y-126270826D01*
X133320826Y-126114620D01*
X133447534Y-125933662D01*
X133487618Y-125847700D01*
X133533790Y-125795261D01*
X133600983Y-125776109D01*
X133667864Y-125796324D01*
X133712382Y-125847701D01*
X133752464Y-125933658D01*
X133752468Y-125933666D01*
X133879170Y-126114615D01*
X133879175Y-126114621D01*
X134035378Y-126270824D01*
X134035384Y-126270829D01*
X134216333Y-126397531D01*
X134216335Y-126397532D01*
X134216338Y-126397534D01*
X134416550Y-126490894D01*
X134629932Y-126548070D01*
X134787123Y-126561822D01*
X134849998Y-126567323D01*
X134850000Y-126567323D01*
X134850002Y-126567323D01*
X134905414Y-126562475D01*
X135070068Y-126548070D01*
X135283450Y-126490894D01*
X135483662Y-126397534D01*
X135664620Y-126270826D01*
X135820826Y-126114620D01*
X135947534Y-125933662D01*
X135987618Y-125847700D01*
X136033790Y-125795261D01*
X136100983Y-125776109D01*
X136167864Y-125796324D01*
X136212382Y-125847701D01*
X136252464Y-125933658D01*
X136252468Y-125933666D01*
X136379170Y-126114615D01*
X136379175Y-126114621D01*
X136535378Y-126270824D01*
X136535384Y-126270829D01*
X136716333Y-126397531D01*
X136716335Y-126397532D01*
X136716338Y-126397534D01*
X136916550Y-126490894D01*
X137129932Y-126548070D01*
X137287123Y-126561822D01*
X137349998Y-126567323D01*
X137350000Y-126567323D01*
X137350002Y-126567323D01*
X137405414Y-126562475D01*
X137570068Y-126548070D01*
X137783450Y-126490894D01*
X137983662Y-126397534D01*
X138164620Y-126270826D01*
X138320826Y-126114620D01*
X138447534Y-125933662D01*
X138540894Y-125733450D01*
X138598070Y-125520068D01*
X138617323Y-125300000D01*
X138617279Y-125299500D01*
X138598070Y-125079937D01*
X138598070Y-125079932D01*
X138540894Y-124866550D01*
X138447534Y-124666339D01*
X138320826Y-124485380D01*
X138164620Y-124329174D01*
X138164616Y-124329171D01*
X138164615Y-124329170D01*
X137983666Y-124202468D01*
X137983658Y-124202464D01*
X137950242Y-124186882D01*
X137897802Y-124140710D01*
X137878650Y-124073517D01*
X137898865Y-124006635D01*
X137952031Y-123961301D01*
X138002646Y-123950500D01*
X140197355Y-123950500D01*
X140264394Y-123970185D01*
X140310149Y-124022989D01*
X140320093Y-124092147D01*
X140291068Y-124155703D01*
X140249759Y-124186882D01*
X140216344Y-124202463D01*
X140216338Y-124202466D01*
X140035377Y-124329175D01*
X139879175Y-124485377D01*
X139752466Y-124666338D01*
X139752465Y-124666340D01*
X139659107Y-124866548D01*
X139659104Y-124866554D01*
X139601930Y-125079929D01*
X139601929Y-125079937D01*
X139582677Y-125299997D01*
X139582677Y-125300002D01*
X139601929Y-125520062D01*
X139601930Y-125520070D01*
X139659104Y-125733445D01*
X139659105Y-125733447D01*
X139659106Y-125733450D01*
X139712382Y-125847701D01*
X139752466Y-125933662D01*
X139752468Y-125933666D01*
X139879170Y-126114615D01*
X139879175Y-126114621D01*
X140035378Y-126270824D01*
X140035384Y-126270829D01*
X140216333Y-126397531D01*
X140216335Y-126397532D01*
X140216338Y-126397534D01*
X140416550Y-126490894D01*
X140629932Y-126548070D01*
X140787123Y-126561822D01*
X140849998Y-126567323D01*
X140850000Y-126567323D01*
X140850002Y-126567323D01*
X140905414Y-126562475D01*
X141070068Y-126548070D01*
X141283450Y-126490894D01*
X141483662Y-126397534D01*
X141664620Y-126270826D01*
X141820826Y-126114620D01*
X141947534Y-125933662D01*
X141987618Y-125847700D01*
X142033790Y-125795261D01*
X142100983Y-125776109D01*
X142167864Y-125796324D01*
X142212382Y-125847701D01*
X142252464Y-125933658D01*
X142252468Y-125933666D01*
X142379170Y-126114615D01*
X142379175Y-126114621D01*
X142535378Y-126270824D01*
X142535384Y-126270829D01*
X142716333Y-126397531D01*
X142716335Y-126397532D01*
X142716338Y-126397534D01*
X142916550Y-126490894D01*
X143129932Y-126548070D01*
X143287123Y-126561822D01*
X143349998Y-126567323D01*
X143350000Y-126567323D01*
X143350002Y-126567323D01*
X143405414Y-126562475D01*
X143570068Y-126548070D01*
X143783450Y-126490894D01*
X143983662Y-126397534D01*
X144164620Y-126270826D01*
X144320826Y-126114620D01*
X144447534Y-125933662D01*
X144487618Y-125847700D01*
X144533790Y-125795261D01*
X144600983Y-125776109D01*
X144667864Y-125796324D01*
X144712382Y-125847701D01*
X144752464Y-125933658D01*
X144752468Y-125933666D01*
X144879170Y-126114615D01*
X144879175Y-126114621D01*
X145035378Y-126270824D01*
X145035384Y-126270829D01*
X145216333Y-126397531D01*
X145216335Y-126397532D01*
X145216338Y-126397534D01*
X145416550Y-126490894D01*
X145629932Y-126548070D01*
X145787123Y-126561822D01*
X145849998Y-126567323D01*
X145850000Y-126567323D01*
X145850002Y-126567323D01*
X145905414Y-126562475D01*
X146070068Y-126548070D01*
X146283450Y-126490894D01*
X146483662Y-126397534D01*
X146664620Y-126270826D01*
X146820826Y-126114620D01*
X146947534Y-125933662D01*
X146987618Y-125847700D01*
X147033790Y-125795261D01*
X147100983Y-125776109D01*
X147167864Y-125796324D01*
X147212382Y-125847701D01*
X147252464Y-125933658D01*
X147252468Y-125933666D01*
X147379170Y-126114615D01*
X147379175Y-126114621D01*
X147535378Y-126270824D01*
X147535384Y-126270829D01*
X147716333Y-126397531D01*
X147716335Y-126397532D01*
X147716338Y-126397534D01*
X147916550Y-126490894D01*
X148129932Y-126548070D01*
X148287123Y-126561822D01*
X148349998Y-126567323D01*
X148350000Y-126567323D01*
X148350002Y-126567323D01*
X148405414Y-126562475D01*
X148570068Y-126548070D01*
X148783450Y-126490894D01*
X148983662Y-126397534D01*
X149164620Y-126270826D01*
X149320826Y-126114620D01*
X149447534Y-125933662D01*
X149487618Y-125847700D01*
X149533790Y-125795261D01*
X149600983Y-125776109D01*
X149667864Y-125796324D01*
X149712382Y-125847701D01*
X149752464Y-125933658D01*
X149752468Y-125933666D01*
X149879170Y-126114615D01*
X149879175Y-126114621D01*
X150035378Y-126270824D01*
X150035384Y-126270829D01*
X150216333Y-126397531D01*
X150216335Y-126397532D01*
X150216338Y-126397534D01*
X150416550Y-126490894D01*
X150629932Y-126548070D01*
X150787123Y-126561822D01*
X150849998Y-126567323D01*
X150850000Y-126567323D01*
X150850002Y-126567323D01*
X150905414Y-126562475D01*
X151070068Y-126548070D01*
X151283450Y-126490894D01*
X151483662Y-126397534D01*
X151664620Y-126270826D01*
X151820826Y-126114620D01*
X151947534Y-125933662D01*
X151987894Y-125847108D01*
X152034066Y-125794669D01*
X152101259Y-125775517D01*
X152168140Y-125795732D01*
X152212658Y-125847109D01*
X152252898Y-125933405D01*
X152252901Y-125933411D01*
X152298258Y-125998187D01*
X152298258Y-125998188D01*
X152969000Y-125327446D01*
X152969000Y-125350160D01*
X152994964Y-125447061D01*
X153045124Y-125533940D01*
X153116060Y-125604876D01*
X153202939Y-125655036D01*
X153299840Y-125681000D01*
X153322553Y-125681000D01*
X152651810Y-126351740D01*
X152716590Y-126397099D01*
X152716592Y-126397100D01*
X152916715Y-126490419D01*
X152916729Y-126490424D01*
X153130013Y-126547573D01*
X153130023Y-126547575D01*
X153349999Y-126566821D01*
X153350001Y-126566821D01*
X153569976Y-126547575D01*
X153569986Y-126547573D01*
X153783270Y-126490424D01*
X153783284Y-126490419D01*
X153983407Y-126397100D01*
X153983417Y-126397094D01*
X154048188Y-126351741D01*
X153377448Y-125681000D01*
X153400160Y-125681000D01*
X153497061Y-125655036D01*
X153583940Y-125604876D01*
X153654876Y-125533940D01*
X153705036Y-125447061D01*
X153731000Y-125350160D01*
X153731000Y-125327447D01*
X154401741Y-125998188D01*
X154447094Y-125933417D01*
X154447100Y-125933407D01*
X154487618Y-125846517D01*
X154533790Y-125794077D01*
X154600983Y-125774925D01*
X154667864Y-125795140D01*
X154712382Y-125846517D01*
X154752898Y-125933405D01*
X154752901Y-125933411D01*
X154798258Y-125998187D01*
X154798258Y-125998188D01*
X155469000Y-125327446D01*
X155469000Y-125350160D01*
X155494964Y-125447061D01*
X155545124Y-125533940D01*
X155616060Y-125604876D01*
X155702939Y-125655036D01*
X155799840Y-125681000D01*
X155822553Y-125681000D01*
X155151810Y-126351740D01*
X155216590Y-126397099D01*
X155216592Y-126397100D01*
X155416715Y-126490419D01*
X155416729Y-126490424D01*
X155630013Y-126547573D01*
X155630023Y-126547575D01*
X155849999Y-126566821D01*
X155850001Y-126566821D01*
X156069976Y-126547575D01*
X156069986Y-126547573D01*
X156283270Y-126490424D01*
X156283284Y-126490419D01*
X156483407Y-126397100D01*
X156483417Y-126397094D01*
X156548188Y-126351741D01*
X155877448Y-125681000D01*
X155900160Y-125681000D01*
X155997061Y-125655036D01*
X156083940Y-125604876D01*
X156154876Y-125533940D01*
X156205036Y-125447061D01*
X156231000Y-125350160D01*
X156231000Y-125327447D01*
X156901741Y-125998188D01*
X156947094Y-125933417D01*
X156947097Y-125933412D01*
X156987340Y-125847110D01*
X157033512Y-125794670D01*
X157100705Y-125775517D01*
X157167587Y-125795732D01*
X157212105Y-125847108D01*
X157212106Y-125847110D01*
X157252464Y-125933658D01*
X157252466Y-125933661D01*
X157252468Y-125933666D01*
X157379170Y-126114615D01*
X157379175Y-126114621D01*
X157535378Y-126270824D01*
X157535384Y-126270829D01*
X157716333Y-126397531D01*
X157716335Y-126397532D01*
X157716338Y-126397534D01*
X157916550Y-126490894D01*
X158129932Y-126548070D01*
X158287123Y-126561822D01*
X158349998Y-126567323D01*
X158350000Y-126567323D01*
X158350002Y-126567323D01*
X158405414Y-126562475D01*
X158570068Y-126548070D01*
X158783450Y-126490894D01*
X158983662Y-126397534D01*
X159164620Y-126270826D01*
X159320826Y-126114620D01*
X159447534Y-125933662D01*
X159540894Y-125733450D01*
X159598070Y-125520068D01*
X159617323Y-125300000D01*
X159617279Y-125299500D01*
X159598070Y-125079937D01*
X159598070Y-125079932D01*
X159540894Y-124866550D01*
X159447534Y-124666339D01*
X159320826Y-124485380D01*
X159164620Y-124329174D01*
X159164616Y-124329171D01*
X159164615Y-124329170D01*
X158983666Y-124202468D01*
X158983662Y-124202466D01*
X158950242Y-124186882D01*
X158783450Y-124109106D01*
X158783447Y-124109105D01*
X158783445Y-124109104D01*
X158570070Y-124051930D01*
X158570062Y-124051929D01*
X158350002Y-124032677D01*
X158349998Y-124032677D01*
X158129937Y-124051929D01*
X158129929Y-124051930D01*
X157916554Y-124109104D01*
X157916548Y-124109107D01*
X157716340Y-124202465D01*
X157716338Y-124202466D01*
X157535377Y-124329175D01*
X157379175Y-124485377D01*
X157252466Y-124666338D01*
X157252462Y-124666345D01*
X157212104Y-124752892D01*
X157165931Y-124805331D01*
X157098738Y-124824482D01*
X157031857Y-124804265D01*
X156987341Y-124752890D01*
X156947098Y-124666589D01*
X156947097Y-124666587D01*
X156901741Y-124601811D01*
X156901740Y-124601810D01*
X156231000Y-125272551D01*
X156231000Y-125249840D01*
X156205036Y-125152939D01*
X156154876Y-125066060D01*
X156083940Y-124995124D01*
X155997061Y-124944964D01*
X155900160Y-124919000D01*
X155877447Y-124919000D01*
X156548188Y-124248258D01*
X156483411Y-124202901D01*
X156483405Y-124202898D01*
X156283284Y-124109580D01*
X156283270Y-124109575D01*
X156069986Y-124052426D01*
X156069976Y-124052424D01*
X155850001Y-124033179D01*
X155849999Y-124033179D01*
X155630023Y-124052424D01*
X155630013Y-124052426D01*
X155416729Y-124109575D01*
X155416720Y-124109579D01*
X155216590Y-124202901D01*
X155151811Y-124248258D01*
X155822554Y-124919000D01*
X155799840Y-124919000D01*
X155702939Y-124944964D01*
X155616060Y-124995124D01*
X155545124Y-125066060D01*
X155494964Y-125152939D01*
X155469000Y-125249840D01*
X155469000Y-125272553D01*
X154798258Y-124601811D01*
X154752901Y-124666590D01*
X154712382Y-124753483D01*
X154666209Y-124805922D01*
X154599016Y-124825074D01*
X154532135Y-124804858D01*
X154487618Y-124753483D01*
X154447096Y-124666586D01*
X154401741Y-124601811D01*
X154401740Y-124601810D01*
X153731000Y-125272551D01*
X153731000Y-125249840D01*
X153705036Y-125152939D01*
X153654876Y-125066060D01*
X153583940Y-124995124D01*
X153497061Y-124944964D01*
X153400160Y-124919000D01*
X153377447Y-124919000D01*
X154048188Y-124248258D01*
X153983411Y-124202901D01*
X153983405Y-124202898D01*
X153783284Y-124109580D01*
X153783270Y-124109575D01*
X153569986Y-124052426D01*
X153569976Y-124052424D01*
X153350001Y-124033179D01*
X153349999Y-124033179D01*
X153130023Y-124052424D01*
X153130013Y-124052426D01*
X152916729Y-124109575D01*
X152916720Y-124109579D01*
X152716590Y-124202901D01*
X152651811Y-124248258D01*
X153322554Y-124919000D01*
X153299840Y-124919000D01*
X153202939Y-124944964D01*
X153116060Y-124995124D01*
X153045124Y-125066060D01*
X152994964Y-125152939D01*
X152969000Y-125249840D01*
X152969000Y-125272553D01*
X152298258Y-124601811D01*
X152252901Y-124666590D01*
X152212658Y-124752891D01*
X152166485Y-124805330D01*
X152099292Y-124824482D01*
X152032411Y-124804266D01*
X151987894Y-124752891D01*
X151947651Y-124666590D01*
X151947534Y-124666339D01*
X151820826Y-124485380D01*
X151664620Y-124329174D01*
X151664616Y-124329171D01*
X151664615Y-124329170D01*
X151483666Y-124202468D01*
X151483662Y-124202466D01*
X151450242Y-124186882D01*
X151283450Y-124109106D01*
X151283447Y-124109105D01*
X151283445Y-124109104D01*
X151070070Y-124051930D01*
X151070062Y-124051929D01*
X150850002Y-124032677D01*
X150849993Y-124032677D01*
X150848255Y-124032829D01*
X150847499Y-124032677D01*
X150844587Y-124032677D01*
X150844587Y-124032091D01*
X150779756Y-124019061D01*
X150749771Y-123996982D01*
X149855469Y-123102680D01*
X149821984Y-123041357D01*
X149826968Y-122971665D01*
X149855469Y-122927318D01*
X151880754Y-120902033D01*
X153924695Y-118858091D01*
X153986016Y-118824608D01*
X154023178Y-118822246D01*
X154060000Y-118825468D01*
X154286692Y-118805635D01*
X154506496Y-118746739D01*
X154712734Y-118650568D01*
X154899139Y-118520047D01*
X155012368Y-118406817D01*
X155073689Y-118373334D01*
X155100048Y-118370500D01*
X155559952Y-118370500D01*
X155626991Y-118390185D01*
X155647628Y-118406814D01*
X155723180Y-118482366D01*
X155760862Y-118520048D01*
X155846621Y-118580096D01*
X155947266Y-118650568D01*
X156153504Y-118746739D01*
X156153509Y-118746740D01*
X156153511Y-118746741D01*
X156206415Y-118760916D01*
X156373308Y-118805635D01*
X156535230Y-118819801D01*
X156599998Y-118825468D01*
X156600000Y-118825468D01*
X156600002Y-118825468D01*
X156656673Y-118820509D01*
X156826692Y-118805635D01*
X157046496Y-118746739D01*
X157252734Y-118650568D01*
X157439139Y-118520047D01*
X157600047Y-118359139D01*
X157730568Y-118172734D01*
X157757895Y-118114129D01*
X157804064Y-118061695D01*
X157871257Y-118042542D01*
X157938139Y-118062757D01*
X157982657Y-118114133D01*
X158009865Y-118172482D01*
X158140342Y-118358820D01*
X158301179Y-118519657D01*
X158487517Y-118650134D01*
X158693673Y-118746265D01*
X158693682Y-118746269D01*
X158889999Y-118798872D01*
X158890000Y-118798871D01*
X158890000Y-117835686D01*
X158894394Y-117840080D01*
X158985606Y-117892741D01*
X159087339Y-117920000D01*
X159192661Y-117920000D01*
X159294394Y-117892741D01*
X159385606Y-117840080D01*
X159390000Y-117835686D01*
X159390000Y-118798871D01*
X159568406Y-118751068D01*
X159638256Y-118752731D01*
X159696119Y-118791893D01*
X159723623Y-118856122D01*
X159724500Y-118870843D01*
X159724500Y-119055145D01*
X159705494Y-119121117D01*
X159624211Y-119250476D01*
X159564631Y-119420745D01*
X159564630Y-119420750D01*
X159544435Y-119599996D01*
X159544435Y-119600003D01*
X159564630Y-119779249D01*
X159564631Y-119779254D01*
X159624211Y-119949523D01*
X159630337Y-119959272D01*
X159720184Y-120102262D01*
X159847738Y-120229816D01*
X160000478Y-120325789D01*
X160170745Y-120385368D01*
X160170750Y-120385369D01*
X160349996Y-120405565D01*
X160350000Y-120405565D01*
X160350004Y-120405565D01*
X160529249Y-120385369D01*
X160529252Y-120385368D01*
X160529255Y-120385368D01*
X160699522Y-120325789D01*
X160852262Y-120229816D01*
X160887819Y-120194259D01*
X160949142Y-120160774D01*
X161018834Y-120165758D01*
X161074767Y-120207630D01*
X161099184Y-120273094D01*
X161099500Y-120281940D01*
X161099500Y-124219726D01*
X161079815Y-124286765D01*
X161046625Y-124321299D01*
X161035389Y-124329166D01*
X161035382Y-124329172D01*
X160879172Y-124485381D01*
X160752466Y-124666338D01*
X160752465Y-124666340D01*
X160659107Y-124866548D01*
X160659104Y-124866554D01*
X160601930Y-125079929D01*
X160601929Y-125079937D01*
X160582677Y-125299997D01*
X160582677Y-125300002D01*
X160601929Y-125520062D01*
X160601930Y-125520070D01*
X160659104Y-125733445D01*
X160659105Y-125733447D01*
X160659106Y-125733450D01*
X160712382Y-125847701D01*
X160752466Y-125933662D01*
X160752468Y-125933666D01*
X160879170Y-126114615D01*
X160879175Y-126114621D01*
X161035378Y-126270824D01*
X161035384Y-126270829D01*
X161216333Y-126397531D01*
X161216335Y-126397532D01*
X161216338Y-126397534D01*
X161416550Y-126490894D01*
X161629932Y-126548070D01*
X161787123Y-126561822D01*
X161849998Y-126567323D01*
X161850000Y-126567323D01*
X161850002Y-126567323D01*
X161905414Y-126562475D01*
X162070068Y-126548070D01*
X162283450Y-126490894D01*
X162483662Y-126397534D01*
X162664620Y-126270826D01*
X162820826Y-126114620D01*
X162947534Y-125933662D01*
X162987618Y-125847700D01*
X163033790Y-125795261D01*
X163100983Y-125776109D01*
X163167864Y-125796324D01*
X163212382Y-125847701D01*
X163252464Y-125933658D01*
X163252468Y-125933666D01*
X163379170Y-126114615D01*
X163379175Y-126114621D01*
X163535378Y-126270824D01*
X163535384Y-126270829D01*
X163716333Y-126397531D01*
X163716335Y-126397532D01*
X163716338Y-126397534D01*
X163916550Y-126490894D01*
X164129932Y-126548070D01*
X164287123Y-126561822D01*
X164349998Y-126567323D01*
X164350000Y-126567323D01*
X164350002Y-126567323D01*
X164405414Y-126562475D01*
X164570068Y-126548070D01*
X164783450Y-126490894D01*
X164983662Y-126397534D01*
X165164620Y-126270826D01*
X165320826Y-126114620D01*
X165447534Y-125933662D01*
X165487618Y-125847700D01*
X165533790Y-125795261D01*
X165600983Y-125776109D01*
X165667864Y-125796324D01*
X165712382Y-125847701D01*
X165752464Y-125933658D01*
X165752468Y-125933666D01*
X165879170Y-126114615D01*
X165879175Y-126114621D01*
X166035378Y-126270824D01*
X166035384Y-126270829D01*
X166216333Y-126397531D01*
X166216335Y-126397532D01*
X166216338Y-126397534D01*
X166416550Y-126490894D01*
X166629932Y-126548070D01*
X166787123Y-126561822D01*
X166849998Y-126567323D01*
X166850000Y-126567323D01*
X166850002Y-126567323D01*
X166905414Y-126562475D01*
X167070068Y-126548070D01*
X167283450Y-126490894D01*
X167483662Y-126397534D01*
X167664620Y-126270826D01*
X167820826Y-126114620D01*
X167947534Y-125933662D01*
X167987618Y-125847700D01*
X168033790Y-125795261D01*
X168100983Y-125776109D01*
X168167864Y-125796324D01*
X168212382Y-125847701D01*
X168252464Y-125933658D01*
X168252468Y-125933666D01*
X168379170Y-126114615D01*
X168379175Y-126114621D01*
X168535378Y-126270824D01*
X168535384Y-126270829D01*
X168716333Y-126397531D01*
X168716335Y-126397532D01*
X168716338Y-126397534D01*
X168916550Y-126490894D01*
X169129932Y-126548070D01*
X169287123Y-126561822D01*
X169349998Y-126567323D01*
X169350000Y-126567323D01*
X169350002Y-126567323D01*
X169405414Y-126562475D01*
X169570068Y-126548070D01*
X169783450Y-126490894D01*
X169983662Y-126397534D01*
X170164620Y-126270826D01*
X170320826Y-126114620D01*
X170447534Y-125933662D01*
X170487618Y-125847700D01*
X170533790Y-125795261D01*
X170600983Y-125776109D01*
X170667864Y-125796324D01*
X170712382Y-125847701D01*
X170752464Y-125933658D01*
X170752468Y-125933666D01*
X170879170Y-126114615D01*
X170879175Y-126114621D01*
X171035378Y-126270824D01*
X171035384Y-126270829D01*
X171216333Y-126397531D01*
X171216335Y-126397532D01*
X171216338Y-126397534D01*
X171416550Y-126490894D01*
X171629932Y-126548070D01*
X171787123Y-126561822D01*
X171849998Y-126567323D01*
X171850000Y-126567323D01*
X171850002Y-126567323D01*
X171905414Y-126562475D01*
X172070068Y-126548070D01*
X172283450Y-126490894D01*
X172483662Y-126397534D01*
X172664620Y-126270826D01*
X172820826Y-126114620D01*
X172947534Y-125933662D01*
X172987618Y-125847700D01*
X173033790Y-125795261D01*
X173100983Y-125776109D01*
X173167864Y-125796324D01*
X173212382Y-125847701D01*
X173252464Y-125933658D01*
X173252468Y-125933666D01*
X173379170Y-126114615D01*
X173379175Y-126114621D01*
X173535378Y-126270824D01*
X173535384Y-126270829D01*
X173716333Y-126397531D01*
X173716335Y-126397532D01*
X173716338Y-126397534D01*
X173916550Y-126490894D01*
X174129932Y-126548070D01*
X174287123Y-126561822D01*
X174349998Y-126567323D01*
X174350000Y-126567323D01*
X174350002Y-126567323D01*
X174405414Y-126562475D01*
X174570068Y-126548070D01*
X174783450Y-126490894D01*
X174983662Y-126397534D01*
X175164620Y-126270826D01*
X175320826Y-126114620D01*
X175447534Y-125933662D01*
X175540894Y-125733450D01*
X175598070Y-125520068D01*
X175617323Y-125300000D01*
X175617279Y-125299500D01*
X175598070Y-125079937D01*
X175598070Y-125079932D01*
X175540894Y-124866550D01*
X175447534Y-124666339D01*
X175320826Y-124485380D01*
X175164620Y-124329174D01*
X175164616Y-124329171D01*
X175164610Y-124329166D01*
X175153375Y-124321299D01*
X175109751Y-124266722D01*
X175100500Y-124219726D01*
X175100500Y-120761368D01*
X175119893Y-120695320D01*
X175103416Y-120665365D01*
X175100500Y-120638631D01*
X175100500Y-118667668D01*
X175120185Y-118600629D01*
X175153375Y-118566094D01*
X175219139Y-118520047D01*
X175380047Y-118359139D01*
X175510568Y-118172734D01*
X175606739Y-117966496D01*
X175665635Y-117746692D01*
X175685468Y-117520000D01*
X175665635Y-117293308D01*
X175647318Y-117224947D01*
X175648981Y-117155101D01*
X175679410Y-117105178D01*
X179237821Y-113546768D01*
X179299142Y-113513285D01*
X179368834Y-113518269D01*
X179424767Y-113560141D01*
X179449184Y-113625605D01*
X179449500Y-113634451D01*
X179449500Y-119499555D01*
X179429815Y-119566594D01*
X179377011Y-119612349D01*
X179307853Y-119622293D01*
X179244297Y-119593268D01*
X179224196Y-119571063D01*
X179083191Y-119371304D01*
X179033632Y-119318240D01*
X178887053Y-119161292D01*
X178708194Y-119015780D01*
X178664146Y-118979944D01*
X178418617Y-118830634D01*
X178155063Y-118716158D01*
X178155061Y-118716157D01*
X178155058Y-118716156D01*
X178025578Y-118679877D01*
X177878364Y-118638630D01*
X177878359Y-118638629D01*
X177878358Y-118638629D01*
X177736018Y-118619064D01*
X177593679Y-118599500D01*
X177593678Y-118599500D01*
X177306322Y-118599500D01*
X177306321Y-118599500D01*
X177021642Y-118638629D01*
X177021635Y-118638630D01*
X176813861Y-118696845D01*
X176744942Y-118716156D01*
X176744939Y-118716156D01*
X176744936Y-118716158D01*
X176744935Y-118716158D01*
X176481382Y-118830634D01*
X176235853Y-118979944D01*
X176012950Y-119161289D01*
X175816812Y-119371299D01*
X175651098Y-119606064D01*
X175518894Y-119861206D01*
X175422667Y-120131962D01*
X175422666Y-120131965D01*
X175364201Y-120413319D01*
X175348211Y-120647093D01*
X175327870Y-120702148D01*
X175343477Y-120726433D01*
X175348211Y-120752906D01*
X175364201Y-120986680D01*
X175364201Y-120986684D01*
X175364202Y-120986686D01*
X175378008Y-121053124D01*
X175422666Y-121268034D01*
X175422667Y-121268037D01*
X175518894Y-121538793D01*
X175518893Y-121538793D01*
X175651098Y-121793935D01*
X175816812Y-122028700D01*
X175825329Y-122037819D01*
X176012947Y-122238708D01*
X176235853Y-122420055D01*
X176341117Y-122484068D01*
X176481382Y-122569365D01*
X176649756Y-122642499D01*
X176744942Y-122683844D01*
X177021642Y-122761371D01*
X177271920Y-122795771D01*
X177306321Y-122800500D01*
X177306322Y-122800500D01*
X177593679Y-122800500D01*
X177625355Y-122796146D01*
X177878358Y-122761371D01*
X178155058Y-122683844D01*
X178274187Y-122632099D01*
X178418617Y-122569365D01*
X178418620Y-122569363D01*
X178418625Y-122569361D01*
X178664147Y-122420055D01*
X178887053Y-122238708D01*
X179083189Y-122028698D01*
X179224196Y-121828935D01*
X179278937Y-121785518D01*
X179348462Y-121778589D01*
X179410697Y-121810347D01*
X179445882Y-121870711D01*
X179449500Y-121900444D01*
X179449500Y-122441324D01*
X179429815Y-122508363D01*
X179413181Y-122529005D01*
X176549502Y-125392683D01*
X176549500Y-125392686D01*
X176483608Y-125506812D01*
X176449500Y-125634108D01*
X176449500Y-127075500D01*
X176429815Y-127142539D01*
X176377011Y-127188294D01*
X176325500Y-127199500D01*
X128147182Y-127199500D01*
X128080143Y-127179815D01*
X128034388Y-127127011D01*
X128024444Y-127057853D01*
X128053469Y-126994297D01*
X128082753Y-126969552D01*
X128164147Y-126920055D01*
X128387053Y-126738708D01*
X128583189Y-126528698D01*
X128748901Y-126293936D01*
X128881104Y-126038797D01*
X128977334Y-125768032D01*
X129035798Y-125486686D01*
X129055408Y-125200000D01*
X129035798Y-124913314D01*
X128977334Y-124631968D01*
X128925235Y-124485377D01*
X128881105Y-124361206D01*
X128881106Y-124361206D01*
X128748901Y-124106064D01*
X128583187Y-123871299D01*
X128504554Y-123787105D01*
X128387053Y-123661292D01*
X128164147Y-123479945D01*
X128164146Y-123479944D01*
X127918617Y-123330634D01*
X127655063Y-123216158D01*
X127655061Y-123216157D01*
X127655058Y-123216156D01*
X127525578Y-123179877D01*
X127378364Y-123138630D01*
X127378359Y-123138629D01*
X127378358Y-123138629D01*
X127236018Y-123119064D01*
X127093679Y-123099500D01*
X127093678Y-123099500D01*
X126806322Y-123099500D01*
X126806321Y-123099500D01*
X126521642Y-123138629D01*
X126521635Y-123138630D01*
X126313861Y-123196845D01*
X126244942Y-123216156D01*
X126244939Y-123216156D01*
X126244936Y-123216158D01*
X126244935Y-123216158D01*
X125981382Y-123330634D01*
X125735853Y-123479944D01*
X125512950Y-123661289D01*
X125316812Y-123871299D01*
X125151098Y-124106064D01*
X125018894Y-124361206D01*
X124922667Y-124631962D01*
X124922666Y-124631965D01*
X124864201Y-124913319D01*
X124844592Y-125200000D01*
X124864201Y-125486680D01*
X124864201Y-125486684D01*
X124864202Y-125486686D01*
X124885984Y-125591509D01*
X124922666Y-125768034D01*
X124922667Y-125768037D01*
X125018894Y-126038793D01*
X125018893Y-126038793D01*
X125151098Y-126293935D01*
X125316812Y-126528700D01*
X125352415Y-126566821D01*
X125512947Y-126738708D01*
X125544463Y-126764348D01*
X125735853Y-126920055D01*
X125817247Y-126969552D01*
X125864299Y-127021204D01*
X125875956Y-127090094D01*
X125848518Y-127154351D01*
X125790696Y-127193573D01*
X125752818Y-127199500D01*
X121036344Y-127199500D01*
X120969305Y-127179815D01*
X120923550Y-127127011D01*
X120913606Y-127057853D01*
X120942631Y-126994297D01*
X120956415Y-126980698D01*
X121000790Y-126943284D01*
X121151655Y-126764348D01*
X121151660Y-126764341D01*
X121270120Y-126562475D01*
X121352762Y-126343487D01*
X121397205Y-126113691D01*
X121397205Y-126113690D01*
X121399998Y-126061117D01*
X121400000Y-126061078D01*
X121400000Y-125342500D01*
X120583012Y-125342500D01*
X120615925Y-125285493D01*
X120650000Y-125158326D01*
X120650000Y-125026674D01*
X120615925Y-124899507D01*
X120583012Y-124842500D01*
X121399999Y-124842500D01*
X121399999Y-124123923D01*
X121399998Y-124123911D01*
X121397205Y-124071308D01*
X121352762Y-123841512D01*
X121270120Y-123622524D01*
X121151660Y-123420658D01*
X121151655Y-123420651D01*
X121000788Y-123241713D01*
X121000786Y-123241711D01*
X120821848Y-123090844D01*
X120821841Y-123090839D01*
X120619975Y-122972379D01*
X120400984Y-122889736D01*
X120395840Y-122888741D01*
X120333760Y-122856680D01*
X120298869Y-122796146D01*
X120302244Y-122726358D01*
X120342814Y-122669473D01*
X120407697Y-122643552D01*
X120419374Y-122642999D01*
X123947872Y-122642999D01*
X124007483Y-122636591D01*
X124142331Y-122586296D01*
X124257546Y-122500046D01*
X124343796Y-122384831D01*
X124394091Y-122249983D01*
X124400500Y-122190373D01*
X124400500Y-121367000D01*
X124420185Y-121299961D01*
X124472989Y-121254206D01*
X124524500Y-121243000D01*
X133641268Y-121243000D01*
X133641269Y-121242999D01*
X133696038Y-121232105D01*
X133805574Y-121210318D01*
X133805578Y-121210316D01*
X133805582Y-121210316D01*
X133850915Y-121191537D01*
X133960363Y-121146204D01*
X134099662Y-121053127D01*
X136149772Y-119003015D01*
X136211093Y-118969532D01*
X136244586Y-118967405D01*
X136244586Y-118967323D01*
X136245878Y-118967323D01*
X136248266Y-118967171D01*
X136250000Y-118967323D01*
X136470068Y-118948070D01*
X136683450Y-118890894D01*
X136883662Y-118797534D01*
X137064620Y-118670826D01*
X137220826Y-118514620D01*
X137347534Y-118333662D01*
X137440894Y-118133450D01*
X137498070Y-117920068D01*
X137513239Y-117746686D01*
X137517323Y-117700002D01*
X137517323Y-117699997D01*
X137510103Y-117617474D01*
X137498070Y-117479932D01*
X137440894Y-117266550D01*
X137347534Y-117066339D01*
X137220826Y-116885380D01*
X137064620Y-116729174D01*
X137064616Y-116729171D01*
X137064615Y-116729170D01*
X136883666Y-116602468D01*
X136883662Y-116602466D01*
X136883660Y-116602465D01*
X136683450Y-116509106D01*
X136683447Y-116509105D01*
X136683445Y-116509104D01*
X136470070Y-116451930D01*
X136470062Y-116451929D01*
X136250002Y-116432677D01*
X136249998Y-116432677D01*
X136029937Y-116451929D01*
X136029929Y-116451930D01*
X135816554Y-116509104D01*
X135816548Y-116509107D01*
X135616340Y-116602465D01*
X135616338Y-116602466D01*
X135435377Y-116729175D01*
X135279175Y-116885377D01*
X135152466Y-117066338D01*
X135152465Y-117066340D01*
X135059107Y-117266548D01*
X135059104Y-117266554D01*
X135001930Y-117479929D01*
X135001929Y-117479937D01*
X134982677Y-117699997D01*
X134982677Y-117700002D01*
X134982829Y-117701740D01*
X134982677Y-117702496D01*
X134982677Y-117705413D01*
X134982091Y-117705413D01*
X134969062Y-117770240D01*
X134946982Y-117800227D01*
X133241530Y-119505681D01*
X133180207Y-119539166D01*
X133153849Y-119542000D01*
X124524499Y-119542000D01*
X124457460Y-119522315D01*
X124411705Y-119469511D01*
X124400499Y-119418000D01*
X124400499Y-118674500D01*
X124420184Y-118607461D01*
X124472988Y-118561706D01*
X124524499Y-118550500D01*
X125263692Y-118550500D01*
X125330731Y-118570185D01*
X125351373Y-118586819D01*
X125435378Y-118670824D01*
X125435384Y-118670829D01*
X125616333Y-118797531D01*
X125616335Y-118797532D01*
X125616338Y-118797534D01*
X125816550Y-118890894D01*
X126029932Y-118948070D01*
X126187123Y-118961822D01*
X126249998Y-118967323D01*
X126250000Y-118967323D01*
X126250002Y-118967323D01*
X126309346Y-118962131D01*
X126470068Y-118948070D01*
X126683450Y-118890894D01*
X126883662Y-118797534D01*
X127064620Y-118670826D01*
X127148627Y-118586819D01*
X127209950Y-118553334D01*
X127236308Y-118550500D01*
X128683768Y-118550500D01*
X128683769Y-118550499D01*
X128761606Y-118535017D01*
X128848074Y-118517818D01*
X128848078Y-118517816D01*
X128848082Y-118517816D01*
X128876685Y-118505967D01*
X128893408Y-118499040D01*
X128893409Y-118499039D01*
X128893415Y-118499037D01*
X129002863Y-118453704D01*
X129142162Y-118360627D01*
X133949772Y-113553015D01*
X134011093Y-113519532D01*
X134044586Y-113517405D01*
X134044586Y-113517323D01*
X134045878Y-113517323D01*
X134048266Y-113517171D01*
X134050000Y-113517323D01*
X134270068Y-113498070D01*
X134483450Y-113440894D01*
X134683662Y-113347534D01*
X134864620Y-113220826D01*
X135020826Y-113064620D01*
X135147534Y-112883662D01*
X135212346Y-112744671D01*
X135237042Y-112709403D01*
X135669000Y-112277445D01*
X135669000Y-112300160D01*
X135694964Y-112397061D01*
X135745124Y-112483940D01*
X135816060Y-112554876D01*
X135902939Y-112605036D01*
X135999840Y-112631000D01*
X136022553Y-112631000D01*
X135351810Y-113301740D01*
X135416590Y-113347099D01*
X135416592Y-113347100D01*
X135616715Y-113440419D01*
X135616729Y-113440424D01*
X135830013Y-113497573D01*
X135830023Y-113497575D01*
X136049999Y-113516821D01*
X136050001Y-113516821D01*
X136269976Y-113497575D01*
X136269986Y-113497573D01*
X136483270Y-113440424D01*
X136483284Y-113440419D01*
X136683407Y-113347100D01*
X136683417Y-113347094D01*
X136748188Y-113301741D01*
X136077448Y-112631000D01*
X136100160Y-112631000D01*
X136197061Y-112605036D01*
X136283940Y-112554876D01*
X136354876Y-112483940D01*
X136405036Y-112397061D01*
X136431000Y-112300160D01*
X136431000Y-112277447D01*
X137101741Y-112948188D01*
X137147094Y-112883417D01*
X137147100Y-112883407D01*
X137240419Y-112683284D01*
X137240424Y-112683270D01*
X137297573Y-112469986D01*
X137297575Y-112469976D01*
X137316821Y-112250000D01*
X137316821Y-112249999D01*
X137297575Y-112030023D01*
X137297573Y-112030013D01*
X137240424Y-111816729D01*
X137240420Y-111816720D01*
X137147096Y-111616586D01*
X137101741Y-111551811D01*
X137101740Y-111551810D01*
X136431000Y-112222551D01*
X136431000Y-112199840D01*
X136405036Y-112102939D01*
X136354876Y-112016060D01*
X136283940Y-111945124D01*
X136197061Y-111894964D01*
X136100160Y-111869000D01*
X136077447Y-111869000D01*
X136748188Y-111198258D01*
X136683411Y-111152901D01*
X136683405Y-111152898D01*
X136483284Y-111059580D01*
X136483270Y-111059575D01*
X136269986Y-111002426D01*
X136269976Y-111002424D01*
X136050001Y-110983179D01*
X136049999Y-110983179D01*
X135830023Y-111002424D01*
X135830013Y-111002426D01*
X135616729Y-111059575D01*
X135616720Y-111059579D01*
X135416590Y-111152901D01*
X135351811Y-111198258D01*
X136022554Y-111869000D01*
X135999840Y-111869000D01*
X135902939Y-111894964D01*
X135816060Y-111945124D01*
X135745124Y-112016060D01*
X135694964Y-112102939D01*
X135669000Y-112199840D01*
X135669000Y-112222553D01*
X135237043Y-111790596D01*
X135212342Y-111755320D01*
X135147534Y-111616340D01*
X135147533Y-111616338D01*
X135020827Y-111435381D01*
X135020823Y-111435377D01*
X134864620Y-111279174D01*
X134864616Y-111279171D01*
X134864615Y-111279170D01*
X134683666Y-111152468D01*
X134683662Y-111152466D01*
X134627482Y-111126269D01*
X134483450Y-111059106D01*
X134483447Y-111059105D01*
X134483445Y-111059104D01*
X134270070Y-111001930D01*
X134270062Y-111001929D01*
X134050002Y-110982677D01*
X134049998Y-110982677D01*
X133829937Y-111001929D01*
X133829929Y-111001930D01*
X133616554Y-111059104D01*
X133616548Y-111059107D01*
X133416340Y-111152465D01*
X133416338Y-111152466D01*
X133235377Y-111279175D01*
X133079175Y-111435377D01*
X132952466Y-111616338D01*
X132952465Y-111616340D01*
X132859107Y-111816548D01*
X132859104Y-111816554D01*
X132801930Y-112029929D01*
X132801929Y-112029937D01*
X132782677Y-112249997D01*
X132782677Y-112250002D01*
X132782829Y-112251740D01*
X132782677Y-112252496D01*
X132782677Y-112255413D01*
X132782091Y-112255413D01*
X132769062Y-112320240D01*
X132746982Y-112350227D01*
X128284030Y-116813181D01*
X128222707Y-116846666D01*
X128196349Y-116849500D01*
X127236308Y-116849500D01*
X127169269Y-116829815D01*
X127148627Y-116813181D01*
X127136819Y-116801373D01*
X127103334Y-116740050D01*
X127100500Y-116713692D01*
X127100500Y-114353650D01*
X127120185Y-114286611D01*
X127136819Y-114265969D01*
X127849772Y-113553015D01*
X127911093Y-113519532D01*
X127944586Y-113517405D01*
X127944586Y-113517323D01*
X127945878Y-113517323D01*
X127948266Y-113517171D01*
X127950000Y-113517323D01*
X128170068Y-113498070D01*
X128383450Y-113440894D01*
X128583662Y-113347534D01*
X128764620Y-113220826D01*
X128920826Y-113064620D01*
X129047534Y-112883662D01*
X129112346Y-112744671D01*
X129137042Y-112709403D01*
X129569000Y-112277445D01*
X129569000Y-112300160D01*
X129594964Y-112397061D01*
X129645124Y-112483940D01*
X129716060Y-112554876D01*
X129802939Y-112605036D01*
X129899840Y-112631000D01*
X129922553Y-112631000D01*
X129251810Y-113301740D01*
X129316590Y-113347099D01*
X129316592Y-113347100D01*
X129516715Y-113440419D01*
X129516729Y-113440424D01*
X129730013Y-113497573D01*
X129730023Y-113497575D01*
X129949999Y-113516821D01*
X129950001Y-113516821D01*
X130169976Y-113497575D01*
X130169986Y-113497573D01*
X130383270Y-113440424D01*
X130383284Y-113440419D01*
X130583407Y-113347100D01*
X130583417Y-113347094D01*
X130648188Y-113301741D01*
X129977448Y-112631000D01*
X130000160Y-112631000D01*
X130097061Y-112605036D01*
X130183940Y-112554876D01*
X130254876Y-112483940D01*
X130305036Y-112397061D01*
X130331000Y-112300160D01*
X130331000Y-112277447D01*
X131001741Y-112948188D01*
X131047094Y-112883417D01*
X131047100Y-112883407D01*
X131140419Y-112683284D01*
X131140424Y-112683270D01*
X131197573Y-112469986D01*
X131197575Y-112469976D01*
X131216821Y-112250000D01*
X131216821Y-112249999D01*
X131197575Y-112030023D01*
X131197573Y-112030013D01*
X131140424Y-111816729D01*
X131140420Y-111816720D01*
X131047096Y-111616586D01*
X131001741Y-111551811D01*
X131001740Y-111551810D01*
X130331000Y-112222551D01*
X130331000Y-112199840D01*
X130305036Y-112102939D01*
X130254876Y-112016060D01*
X130183940Y-111945124D01*
X130097061Y-111894964D01*
X130000160Y-111869000D01*
X129977447Y-111869000D01*
X130648188Y-111198258D01*
X130583411Y-111152901D01*
X130583405Y-111152898D01*
X130383284Y-111059580D01*
X130383270Y-111059575D01*
X130169986Y-111002426D01*
X130169976Y-111002424D01*
X129950001Y-110983179D01*
X129949999Y-110983179D01*
X129730023Y-111002424D01*
X129730013Y-111002426D01*
X129516729Y-111059575D01*
X129516720Y-111059579D01*
X129316590Y-111152901D01*
X129251811Y-111198258D01*
X129922554Y-111869000D01*
X129899840Y-111869000D01*
X129802939Y-111894964D01*
X129716060Y-111945124D01*
X129645124Y-112016060D01*
X129594964Y-112102939D01*
X129569000Y-112199840D01*
X129569000Y-112222553D01*
X129137043Y-111790596D01*
X129112342Y-111755320D01*
X129047534Y-111616340D01*
X129047533Y-111616338D01*
X128920827Y-111435381D01*
X128920823Y-111435377D01*
X128764620Y-111279174D01*
X128764616Y-111279171D01*
X128764615Y-111279170D01*
X128583666Y-111152468D01*
X128583662Y-111152466D01*
X128527482Y-111126269D01*
X128383450Y-111059106D01*
X128383447Y-111059105D01*
X128383445Y-111059104D01*
X128170070Y-111001930D01*
X128170062Y-111001929D01*
X127950002Y-110982677D01*
X127949998Y-110982677D01*
X127729937Y-111001929D01*
X127729929Y-111001930D01*
X127516554Y-111059104D01*
X127516548Y-111059107D01*
X127316340Y-111152465D01*
X127316338Y-111152466D01*
X127135377Y-111279175D01*
X126979175Y-111435377D01*
X126852466Y-111616338D01*
X126852465Y-111616340D01*
X126759107Y-111816548D01*
X126759104Y-111816554D01*
X126701930Y-112029929D01*
X126701929Y-112029937D01*
X126682677Y-112249997D01*
X126682677Y-112250002D01*
X126682829Y-112251740D01*
X126682677Y-112252496D01*
X126682677Y-112255413D01*
X126682091Y-112255413D01*
X126669062Y-112320240D01*
X126646982Y-112350227D01*
X125589375Y-113407834D01*
X125589372Y-113407838D01*
X125496299Y-113547130D01*
X125496292Y-113547143D01*
X125450962Y-113656583D01*
X125432185Y-113701913D01*
X125432182Y-113701925D01*
X125399500Y-113866228D01*
X125399500Y-116713692D01*
X125379815Y-116780731D01*
X125363181Y-116801373D01*
X125351373Y-116813181D01*
X125290050Y-116846666D01*
X125263692Y-116849500D01*
X123503651Y-116849500D01*
X123436612Y-116829815D01*
X123415970Y-116813181D01*
X117786818Y-111184029D01*
X117753333Y-111122706D01*
X117750499Y-111096348D01*
X117750499Y-109849629D01*
X117750498Y-109849623D01*
X117750497Y-109849616D01*
X117744091Y-109790017D01*
X117700561Y-109673308D01*
X117693797Y-109655171D01*
X117693793Y-109655164D01*
X117607547Y-109539955D01*
X117607544Y-109539952D01*
X117492335Y-109453706D01*
X117492326Y-109453701D01*
X117463974Y-109443127D01*
X117408040Y-109401257D01*
X117383622Y-109335792D01*
X117398473Y-109267519D01*
X117406988Y-109254059D01*
X117539788Y-109071276D01*
X117643582Y-108867570D01*
X117714234Y-108650128D01*
X117728509Y-108560000D01*
X116740748Y-108560000D01*
X116762518Y-108522292D01*
X116800000Y-108382409D01*
X116800000Y-108237591D01*
X116762518Y-108097708D01*
X116740748Y-108060000D01*
X117728509Y-108060000D01*
X117714234Y-107969871D01*
X117643582Y-107752429D01*
X117539788Y-107548723D01*
X117405402Y-107363757D01*
X117243742Y-107202097D01*
X117159135Y-107140626D01*
X117116470Y-107085296D01*
X117110491Y-107015682D01*
X117143097Y-106953887D01*
X117159125Y-106939999D01*
X117244066Y-106878286D01*
X117405786Y-106716566D01*
X117540217Y-106531538D01*
X117644048Y-106327758D01*
X117701000Y-106152478D01*
X117714721Y-106110249D01*
X117714721Y-106110248D01*
X117714722Y-106110245D01*
X117750500Y-105884354D01*
X117750500Y-105655646D01*
X117714722Y-105429755D01*
X117714721Y-105429751D01*
X117714721Y-105429750D01*
X117644049Y-105212244D01*
X117566260Y-105059575D01*
X117540217Y-105008462D01*
X117405786Y-104823434D01*
X117244066Y-104661714D01*
X117059038Y-104527283D01*
X117005400Y-104499953D01*
X116855255Y-104423450D01*
X116637748Y-104352778D01*
X116468326Y-104325944D01*
X116411854Y-104317000D01*
X116088146Y-104317000D01*
X116012849Y-104328926D01*
X115862253Y-104352778D01*
X115862250Y-104352778D01*
X115644744Y-104423450D01*
X115440961Y-104527283D01*
X115353412Y-104590892D01*
X115255934Y-104661714D01*
X115255932Y-104661716D01*
X115255931Y-104661716D01*
X115094216Y-104823431D01*
X115094216Y-104823432D01*
X115094214Y-104823434D01*
X115063042Y-104866339D01*
X114959783Y-105008461D01*
X114855950Y-105212244D01*
X114785278Y-105429750D01*
X114785278Y-105429753D01*
X114755687Y-105616586D01*
X114749500Y-105655646D01*
X114749500Y-105884354D01*
X114759343Y-105946497D01*
X114785278Y-106110246D01*
X114785278Y-106110249D01*
X114855950Y-106327755D01*
X114950298Y-106512922D01*
X114959783Y-106531538D01*
X115094214Y-106716566D01*
X115255934Y-106878286D01*
X115340864Y-106939991D01*
X115383529Y-106995321D01*
X115389508Y-107064935D01*
X115356902Y-107126730D01*
X115340864Y-107140627D01*
X115256257Y-107202097D01*
X115094597Y-107363757D01*
X114960211Y-107548723D01*
X114856417Y-107752429D01*
X114785765Y-107969871D01*
X114771491Y-108060000D01*
X115759252Y-108060000D01*
X115737482Y-108097708D01*
X115700000Y-108237591D01*
X115700000Y-108382409D01*
X115737482Y-108522292D01*
X115759252Y-108560000D01*
X114771491Y-108560000D01*
X114785765Y-108650128D01*
X114856417Y-108867570D01*
X114960213Y-109071279D01*
X115093011Y-109254060D01*
X115116491Y-109319866D01*
X115100666Y-109387920D01*
X115050560Y-109436615D01*
X115036026Y-109443127D01*
X115007671Y-109453702D01*
X115007664Y-109453706D01*
X114892455Y-109539952D01*
X114892452Y-109539955D01*
X114806206Y-109655164D01*
X114806202Y-109655171D01*
X114755908Y-109790017D01*
X114749746Y-109847339D01*
X114749501Y-109849623D01*
X114749500Y-109849635D01*
X114749500Y-111850370D01*
X114749501Y-111850376D01*
X114755908Y-111909983D01*
X114806202Y-112044828D01*
X114806206Y-112044835D01*
X114892452Y-112160044D01*
X114892455Y-112160047D01*
X115007664Y-112246293D01*
X115007671Y-112246297D01*
X115142517Y-112296591D01*
X115142516Y-112296591D01*
X115149444Y-112297335D01*
X115202127Y-112303000D01*
X116448848Y-112302999D01*
X116515887Y-112322684D01*
X116536529Y-112339318D01*
X122127530Y-117930319D01*
X122161015Y-117991642D01*
X122156031Y-118061334D01*
X122114159Y-118117267D01*
X122048695Y-118141684D01*
X122039849Y-118142000D01*
X120352129Y-118142000D01*
X120352123Y-118142001D01*
X120292516Y-118148408D01*
X120157671Y-118198702D01*
X120157664Y-118198706D01*
X120042455Y-118284952D01*
X120042452Y-118284955D01*
X119956206Y-118400164D01*
X119956202Y-118400171D01*
X119905908Y-118535017D01*
X119899501Y-118594616D01*
X119899500Y-118594635D01*
X119899500Y-122190370D01*
X119899501Y-122190376D01*
X119905908Y-122249983D01*
X119956202Y-122384828D01*
X119956206Y-122384835D01*
X120042452Y-122500044D01*
X120042455Y-122500047D01*
X120157664Y-122586293D01*
X120157673Y-122586298D01*
X120206506Y-122604511D01*
X120262440Y-122646381D01*
X120286858Y-122711845D01*
X120272007Y-122780118D01*
X120222603Y-122829524D01*
X120156598Y-122844518D01*
X120118625Y-122842501D01*
X120118579Y-122842500D01*
X119400000Y-122842500D01*
X119400000Y-124592500D01*
X118900000Y-124592500D01*
X118900000Y-122842500D01*
X118181423Y-122842500D01*
X118181411Y-122842501D01*
X118128808Y-122845294D01*
X117899012Y-122889737D01*
X117680024Y-122972379D01*
X117478158Y-123090839D01*
X117478151Y-123090844D01*
X117299213Y-123241711D01*
X117299211Y-123241713D01*
X117148344Y-123420651D01*
X117148339Y-123420658D01*
X117029879Y-123622524D01*
X116947237Y-123841512D01*
X116902794Y-124071308D01*
X116902794Y-124071309D01*
X116900001Y-124123882D01*
X116900000Y-124123921D01*
X116900000Y-124842500D01*
X117716988Y-124842500D01*
X117684075Y-124899507D01*
X117650000Y-125026674D01*
X117650000Y-125158326D01*
X117684075Y-125285493D01*
X117716988Y-125342500D01*
X116900001Y-125342500D01*
X116900001Y-126061088D01*
X116902794Y-126113691D01*
X116947237Y-126343487D01*
X117029879Y-126562475D01*
X117148339Y-126764341D01*
X117148344Y-126764348D01*
X117299209Y-126943284D01*
X117343585Y-126980698D01*
X117382150Y-127038961D01*
X117383094Y-127108824D01*
X117346118Y-127168107D01*
X117282960Y-127197988D01*
X117263656Y-127199500D01*
X112574500Y-127199500D01*
X112507461Y-127179815D01*
X112461706Y-127127011D01*
X112450500Y-127075500D01*
X112450500Y-119328303D01*
X114150000Y-119328303D01*
X114150000Y-120142500D01*
X115650000Y-120142500D01*
X115650000Y-120642500D01*
X114150001Y-120642500D01*
X114150001Y-121456697D01*
X114160400Y-121588832D01*
X114215377Y-121807019D01*
X114308428Y-122011874D01*
X114308431Y-122011880D01*
X114436559Y-122196823D01*
X114436569Y-122196835D01*
X114595664Y-122355930D01*
X114595676Y-122355940D01*
X114780619Y-122484068D01*
X114780625Y-122484071D01*
X114985480Y-122577122D01*
X115203667Y-122632099D01*
X115335810Y-122642499D01*
X115899999Y-122642499D01*
X115900000Y-122642498D01*
X115900000Y-121825512D01*
X115957007Y-121858425D01*
X116084174Y-121892500D01*
X116215826Y-121892500D01*
X116342993Y-121858425D01*
X116400000Y-121825512D01*
X116400000Y-122642499D01*
X116964182Y-122642499D01*
X116964197Y-122642498D01*
X117096332Y-122632099D01*
X117314519Y-122577122D01*
X117519374Y-122484071D01*
X117519380Y-122484068D01*
X117704323Y-122355940D01*
X117704335Y-122355930D01*
X117863430Y-122196835D01*
X117863440Y-122196823D01*
X117991568Y-122011880D01*
X117991571Y-122011874D01*
X118084622Y-121807019D01*
X118139599Y-121588832D01*
X118149999Y-121456696D01*
X118150000Y-121456684D01*
X118150000Y-120642500D01*
X116650000Y-120642500D01*
X116650000Y-120142500D01*
X118149999Y-120142500D01*
X118149999Y-119328317D01*
X118149998Y-119328302D01*
X118139599Y-119196167D01*
X118084622Y-118977980D01*
X117991571Y-118773125D01*
X117991568Y-118773119D01*
X117863440Y-118588176D01*
X117863430Y-118588164D01*
X117704335Y-118429069D01*
X117704323Y-118429059D01*
X117519380Y-118300931D01*
X117519374Y-118300928D01*
X117314519Y-118207877D01*
X117096332Y-118152900D01*
X116964196Y-118142500D01*
X116400000Y-118142500D01*
X116400000Y-118959488D01*
X116342993Y-118926575D01*
X116215826Y-118892500D01*
X116084174Y-118892500D01*
X115957007Y-118926575D01*
X115900000Y-118959488D01*
X115900000Y-118142500D01*
X115335817Y-118142500D01*
X115335802Y-118142501D01*
X115203667Y-118152900D01*
X114985480Y-118207877D01*
X114780625Y-118300928D01*
X114780619Y-118300931D01*
X114595676Y-118429059D01*
X114595664Y-118429069D01*
X114436569Y-118588164D01*
X114436559Y-118588176D01*
X114308431Y-118773119D01*
X114308428Y-118773125D01*
X114215377Y-118977980D01*
X114160400Y-119196167D01*
X114150000Y-119328303D01*
X112450500Y-119328303D01*
X112450500Y-97800000D01*
X113595172Y-97800000D01*
X113614462Y-98094312D01*
X113614464Y-98094324D01*
X113672001Y-98383584D01*
X113672005Y-98383599D01*
X113766812Y-98662888D01*
X113897258Y-98927406D01*
X113897265Y-98927419D01*
X114061123Y-99172649D01*
X114090405Y-99206040D01*
X114867173Y-98429271D01*
X114961388Y-98558946D01*
X115091054Y-98688612D01*
X115220727Y-98782825D01*
X114443958Y-99559593D01*
X114477350Y-99588876D01*
X114722580Y-99752734D01*
X114722593Y-99752741D01*
X114987111Y-99883187D01*
X115266400Y-99977994D01*
X115266415Y-99977998D01*
X115555675Y-100035535D01*
X115555687Y-100035537D01*
X115850000Y-100054827D01*
X116144312Y-100035537D01*
X116144324Y-100035535D01*
X116433584Y-99977998D01*
X116433599Y-99977994D01*
X116712888Y-99883187D01*
X116977406Y-99752741D01*
X116977419Y-99752734D01*
X117222648Y-99588877D01*
X117256039Y-99559593D01*
X116479271Y-98782825D01*
X116608946Y-98688612D01*
X116738612Y-98558946D01*
X116832825Y-98429271D01*
X117609593Y-99206039D01*
X117638877Y-99172648D01*
X117802734Y-98927419D01*
X117802741Y-98927406D01*
X117933187Y-98662888D01*
X118027994Y-98383599D01*
X118027998Y-98383584D01*
X118085535Y-98094324D01*
X118085537Y-98094312D01*
X118104827Y-97800000D01*
X118085537Y-97505687D01*
X118085535Y-97505675D01*
X118027998Y-97216415D01*
X118027994Y-97216400D01*
X117933187Y-96937111D01*
X117802741Y-96672593D01*
X117802734Y-96672580D01*
X117638876Y-96427350D01*
X117609593Y-96393958D01*
X116832825Y-97170726D01*
X116738612Y-97041054D01*
X116608946Y-96911388D01*
X116479271Y-96817174D01*
X117256040Y-96040405D01*
X117222649Y-96011123D01*
X116977419Y-95847265D01*
X116977406Y-95847258D01*
X116712888Y-95716812D01*
X116433599Y-95622005D01*
X116433584Y-95622001D01*
X116144324Y-95564464D01*
X116144312Y-95564462D01*
X115850000Y-95545172D01*
X115555687Y-95564462D01*
X115555675Y-95564464D01*
X115266415Y-95622001D01*
X115266400Y-95622005D01*
X114987111Y-95716812D01*
X114722593Y-95847258D01*
X114722580Y-95847265D01*
X114477346Y-96011126D01*
X114477339Y-96011131D01*
X114443959Y-96040403D01*
X114443959Y-96040405D01*
X115220728Y-96817174D01*
X115091054Y-96911388D01*
X114961388Y-97041054D01*
X114867174Y-97170728D01*
X114090405Y-96393959D01*
X114090403Y-96393959D01*
X114061131Y-96427339D01*
X114061126Y-96427346D01*
X113897265Y-96672580D01*
X113897258Y-96672593D01*
X113766812Y-96937111D01*
X113672005Y-97216400D01*
X113672001Y-97216415D01*
X113614464Y-97505675D01*
X113614462Y-97505687D01*
X113595172Y-97800000D01*
X112450500Y-97800000D01*
X112450500Y-85760000D01*
X113595172Y-85760000D01*
X113614462Y-86054312D01*
X113614464Y-86054324D01*
X113672001Y-86343584D01*
X113672005Y-86343599D01*
X113766812Y-86622888D01*
X113897258Y-86887406D01*
X113897265Y-86887419D01*
X114061123Y-87132649D01*
X114090405Y-87166040D01*
X114867173Y-86389271D01*
X114961388Y-86518946D01*
X115091054Y-86648612D01*
X115220727Y-86742825D01*
X114443958Y-87519593D01*
X114477350Y-87548876D01*
X114722580Y-87712734D01*
X114722593Y-87712741D01*
X114987111Y-87843187D01*
X115266400Y-87937994D01*
X115266415Y-87937998D01*
X115555675Y-87995535D01*
X115555687Y-87995537D01*
X115850000Y-88014827D01*
X116144312Y-87995537D01*
X116144324Y-87995535D01*
X116433584Y-87937998D01*
X116433599Y-87937994D01*
X116712888Y-87843187D01*
X116977406Y-87712741D01*
X116977419Y-87712734D01*
X117222648Y-87548877D01*
X117256039Y-87519593D01*
X116479271Y-86742825D01*
X116608946Y-86648612D01*
X116738612Y-86518946D01*
X116832825Y-86389271D01*
X117609593Y-87166039D01*
X117638877Y-87132648D01*
X117727512Y-86999997D01*
X124082677Y-86999997D01*
X124082677Y-87000002D01*
X124101929Y-87220062D01*
X124101930Y-87220070D01*
X124159104Y-87433445D01*
X124159105Y-87433447D01*
X124159106Y-87433450D01*
X124167816Y-87452128D01*
X124252466Y-87633662D01*
X124252468Y-87633666D01*
X124379170Y-87814615D01*
X124379175Y-87814621D01*
X124535378Y-87970824D01*
X124535384Y-87970829D01*
X124716333Y-88097531D01*
X124716335Y-88097532D01*
X124716338Y-88097534D01*
X124916550Y-88190894D01*
X125129932Y-88248070D01*
X125287123Y-88261822D01*
X125349998Y-88267323D01*
X125350000Y-88267323D01*
X125350002Y-88267323D01*
X125405017Y-88262509D01*
X125570068Y-88248070D01*
X125783450Y-88190894D01*
X125983662Y-88097534D01*
X126164620Y-87970826D01*
X126320826Y-87814620D01*
X126447534Y-87633662D01*
X126540894Y-87433450D01*
X126598070Y-87220068D01*
X126617323Y-87000000D01*
X126617323Y-86999997D01*
X134082677Y-86999997D01*
X134082677Y-87000002D01*
X134101929Y-87220062D01*
X134101930Y-87220070D01*
X134159104Y-87433445D01*
X134159105Y-87433447D01*
X134159106Y-87433450D01*
X134167816Y-87452128D01*
X134252466Y-87633662D01*
X134252468Y-87633666D01*
X134379170Y-87814615D01*
X134379175Y-87814621D01*
X134535378Y-87970824D01*
X134535384Y-87970829D01*
X134716333Y-88097531D01*
X134716335Y-88097532D01*
X134716338Y-88097534D01*
X134916550Y-88190894D01*
X135129932Y-88248070D01*
X135287123Y-88261822D01*
X135349998Y-88267323D01*
X135350000Y-88267323D01*
X135350002Y-88267323D01*
X135405017Y-88262509D01*
X135570068Y-88248070D01*
X135783450Y-88190894D01*
X135983662Y-88097534D01*
X136164620Y-87970826D01*
X136320826Y-87814620D01*
X136447534Y-87633662D01*
X136540894Y-87433450D01*
X136598070Y-87220068D01*
X136617323Y-87000000D01*
X136617279Y-86999501D01*
X136607474Y-86887419D01*
X136598070Y-86779932D01*
X136540894Y-86566550D01*
X136447534Y-86366339D01*
X136320826Y-86185380D01*
X136164620Y-86029174D01*
X136164616Y-86029171D01*
X136164615Y-86029170D01*
X135983666Y-85902468D01*
X135983662Y-85902466D01*
X135983660Y-85902465D01*
X135783450Y-85809106D01*
X135783447Y-85809105D01*
X135783445Y-85809104D01*
X135570070Y-85751930D01*
X135570062Y-85751929D01*
X135350002Y-85732677D01*
X135349998Y-85732677D01*
X135129937Y-85751929D01*
X135129929Y-85751930D01*
X134916554Y-85809104D01*
X134916548Y-85809107D01*
X134716340Y-85902465D01*
X134716338Y-85902466D01*
X134535377Y-86029175D01*
X134379175Y-86185377D01*
X134252466Y-86366338D01*
X134252465Y-86366340D01*
X134159107Y-86566548D01*
X134159104Y-86566554D01*
X134101930Y-86779929D01*
X134101929Y-86779937D01*
X134082677Y-86999997D01*
X126617323Y-86999997D01*
X126617279Y-86999501D01*
X126607474Y-86887419D01*
X126598070Y-86779932D01*
X126540894Y-86566550D01*
X126447534Y-86366339D01*
X126320826Y-86185380D01*
X126164620Y-86029174D01*
X126164616Y-86029171D01*
X126164615Y-86029170D01*
X125983666Y-85902468D01*
X125983662Y-85902466D01*
X125983660Y-85902465D01*
X125783450Y-85809106D01*
X125783447Y-85809105D01*
X125783445Y-85809104D01*
X125570070Y-85751930D01*
X125570062Y-85751929D01*
X125350002Y-85732677D01*
X125349998Y-85732677D01*
X125129937Y-85751929D01*
X125129929Y-85751930D01*
X124916554Y-85809104D01*
X124916548Y-85809107D01*
X124716340Y-85902465D01*
X124716338Y-85902466D01*
X124535377Y-86029175D01*
X124379175Y-86185377D01*
X124252466Y-86366338D01*
X124252465Y-86366340D01*
X124159107Y-86566548D01*
X124159104Y-86566554D01*
X124101930Y-86779929D01*
X124101929Y-86779937D01*
X124082677Y-86999997D01*
X117727512Y-86999997D01*
X117802734Y-86887419D01*
X117802741Y-86887406D01*
X117933187Y-86622888D01*
X118027994Y-86343599D01*
X118027998Y-86343584D01*
X118085535Y-86054324D01*
X118085537Y-86054312D01*
X118104827Y-85760000D01*
X118085537Y-85465687D01*
X118085535Y-85465675D01*
X118027998Y-85176415D01*
X118027994Y-85176400D01*
X117933187Y-84897111D01*
X117802741Y-84632593D01*
X117802734Y-84632580D01*
X117638876Y-84387350D01*
X117609593Y-84353958D01*
X116832825Y-85130726D01*
X116738612Y-85001054D01*
X116608946Y-84871388D01*
X116479271Y-84777174D01*
X117256040Y-84000405D01*
X117222649Y-83971123D01*
X116977419Y-83807265D01*
X116977406Y-83807258D01*
X116712888Y-83676812D01*
X116433599Y-83582005D01*
X116433584Y-83582001D01*
X116144324Y-83524464D01*
X116144312Y-83524462D01*
X115850000Y-83505172D01*
X115555687Y-83524462D01*
X115555675Y-83524464D01*
X115266415Y-83582001D01*
X115266400Y-83582005D01*
X114987111Y-83676812D01*
X114722593Y-83807258D01*
X114722580Y-83807265D01*
X114477346Y-83971126D01*
X114477339Y-83971131D01*
X114443959Y-84000403D01*
X114443959Y-84000405D01*
X115220728Y-84777174D01*
X115091054Y-84871388D01*
X114961388Y-85001054D01*
X114867174Y-85130728D01*
X114090405Y-84353959D01*
X114090403Y-84353959D01*
X114061131Y-84387339D01*
X114061126Y-84387346D01*
X113897265Y-84632580D01*
X113897258Y-84632593D01*
X113766812Y-84897111D01*
X113672005Y-85176400D01*
X113672001Y-85176415D01*
X113614464Y-85465675D01*
X113614462Y-85465687D01*
X113595172Y-85760000D01*
X112450500Y-85760000D01*
X112450500Y-83299999D01*
X124083179Y-83299999D01*
X124083179Y-83300000D01*
X124102424Y-83519976D01*
X124102426Y-83519986D01*
X124159575Y-83733270D01*
X124159580Y-83733284D01*
X124252898Y-83933405D01*
X124252901Y-83933411D01*
X124298258Y-83998187D01*
X124298258Y-83998188D01*
X124969000Y-83327446D01*
X124969000Y-83350160D01*
X124994964Y-83447061D01*
X125045124Y-83533940D01*
X125116060Y-83604876D01*
X125202939Y-83655036D01*
X125299840Y-83681000D01*
X125322553Y-83681000D01*
X124651810Y-84351740D01*
X124716590Y-84397099D01*
X124716592Y-84397100D01*
X124916715Y-84490419D01*
X124916729Y-84490424D01*
X125130013Y-84547573D01*
X125130023Y-84547575D01*
X125349999Y-84566821D01*
X125350001Y-84566821D01*
X125569976Y-84547575D01*
X125569986Y-84547573D01*
X125783270Y-84490424D01*
X125783284Y-84490419D01*
X125983407Y-84397100D01*
X125983417Y-84397094D01*
X126048188Y-84351741D01*
X125377448Y-83681000D01*
X125400160Y-83681000D01*
X125497061Y-83655036D01*
X125583940Y-83604876D01*
X125654876Y-83533940D01*
X125705036Y-83447061D01*
X125731000Y-83350160D01*
X125731000Y-83327447D01*
X126401741Y-83998188D01*
X126447094Y-83933417D01*
X126447100Y-83933407D01*
X126540419Y-83733284D01*
X126540424Y-83733270D01*
X126597573Y-83519986D01*
X126597575Y-83519976D01*
X126616821Y-83300000D01*
X126616821Y-83299999D01*
X126597575Y-83080023D01*
X126597573Y-83080013D01*
X126540424Y-82866729D01*
X126540420Y-82866720D01*
X126447096Y-82666586D01*
X126401741Y-82601811D01*
X126401740Y-82601810D01*
X125731000Y-83272551D01*
X125731000Y-83249840D01*
X125705036Y-83152939D01*
X125654876Y-83066060D01*
X125583940Y-82995124D01*
X125497061Y-82944964D01*
X125400160Y-82919000D01*
X125377447Y-82919000D01*
X126048188Y-82248258D01*
X125983411Y-82202901D01*
X125983405Y-82202898D01*
X125783284Y-82109580D01*
X125783270Y-82109575D01*
X125569986Y-82052426D01*
X125569976Y-82052424D01*
X125350001Y-82033179D01*
X125349999Y-82033179D01*
X125130023Y-82052424D01*
X125130013Y-82052426D01*
X124916729Y-82109575D01*
X124916720Y-82109579D01*
X124716590Y-82202901D01*
X124651811Y-82248258D01*
X125322554Y-82919000D01*
X125299840Y-82919000D01*
X125202939Y-82944964D01*
X125116060Y-82995124D01*
X125045124Y-83066060D01*
X124994964Y-83152939D01*
X124969000Y-83249840D01*
X124969000Y-83272553D01*
X124298258Y-82601811D01*
X124252901Y-82666590D01*
X124159579Y-82866720D01*
X124159575Y-82866729D01*
X124102426Y-83080013D01*
X124102424Y-83080023D01*
X124083179Y-83299999D01*
X112450500Y-83299999D01*
X112450500Y-80799999D01*
X114583179Y-80799999D01*
X114583179Y-80800000D01*
X114602424Y-81019976D01*
X114602426Y-81019986D01*
X114659575Y-81233270D01*
X114659580Y-81233284D01*
X114752898Y-81433405D01*
X114752901Y-81433411D01*
X114798258Y-81498187D01*
X114798258Y-81498188D01*
X115469000Y-80827446D01*
X115469000Y-80850160D01*
X115494964Y-80947061D01*
X115545124Y-81033940D01*
X115616060Y-81104876D01*
X115702939Y-81155036D01*
X115799840Y-81181000D01*
X115822553Y-81181000D01*
X115151810Y-81851740D01*
X115216590Y-81897099D01*
X115216592Y-81897100D01*
X115416715Y-81990419D01*
X115416729Y-81990424D01*
X115630013Y-82047573D01*
X115630023Y-82047575D01*
X115849999Y-82066821D01*
X115850001Y-82066821D01*
X116069976Y-82047575D01*
X116069986Y-82047573D01*
X116283270Y-81990424D01*
X116283284Y-81990419D01*
X116483407Y-81897100D01*
X116483417Y-81897094D01*
X116548188Y-81851741D01*
X115877448Y-81181000D01*
X115900160Y-81181000D01*
X115997061Y-81155036D01*
X116083940Y-81104876D01*
X116154876Y-81033940D01*
X116205036Y-80947061D01*
X116231000Y-80850160D01*
X116231000Y-80827447D01*
X116901741Y-81498188D01*
X116947094Y-81433417D01*
X116947100Y-81433407D01*
X117040419Y-81233284D01*
X117040424Y-81233270D01*
X117097573Y-81019986D01*
X117097575Y-81019976D01*
X117116821Y-80800000D01*
X117116821Y-80799999D01*
X117116821Y-80799997D01*
X120082677Y-80799997D01*
X120082677Y-80800002D01*
X120101929Y-81020062D01*
X120101930Y-81020070D01*
X120159104Y-81233445D01*
X120159105Y-81233447D01*
X120159106Y-81233450D01*
X120252346Y-81433405D01*
X120252466Y-81433662D01*
X120252468Y-81433666D01*
X120379170Y-81614615D01*
X120379175Y-81614621D01*
X120535378Y-81770824D01*
X120535384Y-81770829D01*
X120716333Y-81897531D01*
X120716335Y-81897532D01*
X120716338Y-81897534D01*
X120916550Y-81990894D01*
X121129932Y-82048070D01*
X121287123Y-82061822D01*
X121349998Y-82067323D01*
X121350000Y-82067323D01*
X121350002Y-82067323D01*
X121405017Y-82062509D01*
X121570068Y-82048070D01*
X121783450Y-81990894D01*
X121983662Y-81897534D01*
X122164620Y-81770826D01*
X122320826Y-81614620D01*
X122447534Y-81433662D01*
X122540894Y-81233450D01*
X122598070Y-81020068D01*
X122617323Y-80800000D01*
X122598070Y-80579932D01*
X122540894Y-80366550D01*
X122447534Y-80166339D01*
X122320826Y-79985380D01*
X122164620Y-79829174D01*
X122164616Y-79829171D01*
X122164615Y-79829170D01*
X121983666Y-79702468D01*
X121983662Y-79702466D01*
X121844444Y-79637548D01*
X121783450Y-79609106D01*
X121783447Y-79609105D01*
X121783445Y-79609104D01*
X121570070Y-79551930D01*
X121570062Y-79551929D01*
X121350002Y-79532677D01*
X121349998Y-79532677D01*
X121129937Y-79551929D01*
X121129929Y-79551930D01*
X120916554Y-79609104D01*
X120916548Y-79609107D01*
X120716340Y-79702465D01*
X120716338Y-79702466D01*
X120535377Y-79829175D01*
X120379175Y-79985377D01*
X120252466Y-80166338D01*
X120252465Y-80166340D01*
X120159107Y-80366548D01*
X120159104Y-80366554D01*
X120101930Y-80579929D01*
X120101929Y-80579937D01*
X120082677Y-80799997D01*
X117116821Y-80799997D01*
X117097575Y-80580023D01*
X117097573Y-80580013D01*
X117040424Y-80366729D01*
X117040420Y-80366720D01*
X116947096Y-80166586D01*
X116901741Y-80101811D01*
X116901740Y-80101810D01*
X116231000Y-80772551D01*
X116231000Y-80749840D01*
X116205036Y-80652939D01*
X116154876Y-80566060D01*
X116083940Y-80495124D01*
X115997061Y-80444964D01*
X115900160Y-80419000D01*
X115877447Y-80419000D01*
X116548188Y-79748258D01*
X116483411Y-79702901D01*
X116483405Y-79702898D01*
X116283284Y-79609580D01*
X116283270Y-79609575D01*
X116069986Y-79552426D01*
X116069976Y-79552424D01*
X115850001Y-79533179D01*
X115849999Y-79533179D01*
X115630023Y-79552424D01*
X115630013Y-79552426D01*
X115416729Y-79609575D01*
X115416720Y-79609579D01*
X115216590Y-79702901D01*
X115151811Y-79748258D01*
X115822554Y-80419000D01*
X115799840Y-80419000D01*
X115702939Y-80444964D01*
X115616060Y-80495124D01*
X115545124Y-80566060D01*
X115494964Y-80652939D01*
X115469000Y-80749840D01*
X115469000Y-80772553D01*
X114798258Y-80101811D01*
X114752901Y-80166590D01*
X114659579Y-80366720D01*
X114659575Y-80366729D01*
X114602426Y-80580013D01*
X114602424Y-80580023D01*
X114583179Y-80799999D01*
X112450500Y-80799999D01*
X112450500Y-75324500D01*
X112470185Y-75257461D01*
X112522989Y-75211706D01*
X112574500Y-75200500D01*
X114864691Y-75200500D01*
X114931730Y-75220185D01*
G37*
%TD.AperFunction*%
%TA.AperFunction,Conductor*%
G36*
X156850000Y-111178872D02*
G01*
X157046317Y-111126269D01*
X157046326Y-111126265D01*
X157252482Y-111030134D01*
X157438820Y-110899657D01*
X157599657Y-110738820D01*
X157730132Y-110552484D01*
X157757341Y-110494134D01*
X157803513Y-110441695D01*
X157870707Y-110422542D01*
X157937588Y-110442757D01*
X157982106Y-110494133D01*
X158009431Y-110552732D01*
X158009432Y-110552734D01*
X158139954Y-110739141D01*
X158300858Y-110900045D01*
X158300861Y-110900047D01*
X158487266Y-111030568D01*
X158693504Y-111126739D01*
X158913308Y-111185635D01*
X159075230Y-111199801D01*
X159139998Y-111205468D01*
X159140000Y-111205468D01*
X159140002Y-111205468D01*
X159196807Y-111200498D01*
X159366692Y-111185635D01*
X159586496Y-111126739D01*
X159792734Y-111030568D01*
X159979139Y-110900047D01*
X160140047Y-110739139D01*
X160270568Y-110552734D01*
X160297618Y-110494724D01*
X160343790Y-110442285D01*
X160410983Y-110423133D01*
X160477865Y-110443348D01*
X160522382Y-110494725D01*
X160549429Y-110552728D01*
X160549432Y-110552734D01*
X160679954Y-110739141D01*
X160840858Y-110900045D01*
X160840861Y-110900047D01*
X161027266Y-111030568D01*
X161233504Y-111126739D01*
X161453308Y-111185635D01*
X161615230Y-111199801D01*
X161679998Y-111205468D01*
X161680000Y-111205468D01*
X161680002Y-111205468D01*
X161736807Y-111200498D01*
X161906692Y-111185635D01*
X162126496Y-111126739D01*
X162332734Y-111030568D01*
X162519139Y-110900047D01*
X162680047Y-110739139D01*
X162810568Y-110552734D01*
X162837618Y-110494724D01*
X162883790Y-110442285D01*
X162950983Y-110423133D01*
X163017865Y-110443348D01*
X163062382Y-110494725D01*
X163089429Y-110552728D01*
X163089432Y-110552734D01*
X163219954Y-110739141D01*
X163380858Y-110900045D01*
X163380861Y-110900047D01*
X163567266Y-111030568D01*
X163773504Y-111126739D01*
X163993308Y-111185635D01*
X164155230Y-111199801D01*
X164219998Y-111205468D01*
X164220000Y-111205468D01*
X164220002Y-111205468D01*
X164276807Y-111200498D01*
X164446692Y-111185635D01*
X164666496Y-111126739D01*
X164872734Y-111030568D01*
X165059139Y-110900047D01*
X165220047Y-110739139D01*
X165350568Y-110552734D01*
X165377618Y-110494724D01*
X165423790Y-110442285D01*
X165490983Y-110423133D01*
X165557865Y-110443348D01*
X165602382Y-110494725D01*
X165629429Y-110552728D01*
X165629432Y-110552734D01*
X165759954Y-110739141D01*
X165920858Y-110900045D01*
X165920861Y-110900047D01*
X166107266Y-111030568D01*
X166313504Y-111126739D01*
X166533308Y-111185635D01*
X166695230Y-111199801D01*
X166759998Y-111205468D01*
X166760000Y-111205468D01*
X166760002Y-111205468D01*
X166816807Y-111200498D01*
X166986692Y-111185635D01*
X167206496Y-111126739D01*
X167412734Y-111030568D01*
X167599139Y-110900047D01*
X167760047Y-110739139D01*
X167890568Y-110552734D01*
X167917618Y-110494724D01*
X167963790Y-110442285D01*
X168030983Y-110423133D01*
X168097865Y-110443348D01*
X168142382Y-110494725D01*
X168169429Y-110552728D01*
X168169432Y-110552734D01*
X168299954Y-110739141D01*
X168460858Y-110900045D01*
X168460861Y-110900047D01*
X168647266Y-111030568D01*
X168647267Y-111030568D01*
X168647268Y-111030569D01*
X168651961Y-111033279D01*
X168650689Y-111035480D01*
X168695117Y-111074637D01*
X168714237Y-111141840D01*
X168693988Y-111208711D01*
X168677922Y-111228477D01*
X164173220Y-115733181D01*
X164111897Y-115766666D01*
X164085539Y-115769500D01*
X161152398Y-115769500D01*
X161091980Y-115781518D01*
X161048752Y-115790116D01*
X161031555Y-115793537D01*
X160917725Y-115840687D01*
X160917716Y-115840692D01*
X160815277Y-115909140D01*
X160771714Y-115952703D01*
X160728151Y-115996267D01*
X160179129Y-116545289D01*
X160117806Y-116578774D01*
X160048114Y-116573790D01*
X160003767Y-116545289D01*
X159978820Y-116520342D01*
X159792482Y-116389865D01*
X159586328Y-116293734D01*
X159390000Y-116241127D01*
X159390000Y-117204314D01*
X159385606Y-117199920D01*
X159294394Y-117147259D01*
X159192661Y-117120000D01*
X159087339Y-117120000D01*
X158985606Y-117147259D01*
X158894394Y-117199920D01*
X158890000Y-117204314D01*
X158890000Y-116241127D01*
X158693671Y-116293734D01*
X158487517Y-116389865D01*
X158301179Y-116520342D01*
X158140342Y-116681179D01*
X158009867Y-116867515D01*
X157982657Y-116925867D01*
X157936484Y-116978306D01*
X157869290Y-116997457D01*
X157802409Y-116977241D01*
X157757893Y-116925865D01*
X157739014Y-116885380D01*
X157730568Y-116867266D01*
X157600047Y-116680861D01*
X157600045Y-116680858D01*
X157439141Y-116519954D01*
X157252734Y-116389432D01*
X157252732Y-116389431D01*
X157046497Y-116293261D01*
X157046488Y-116293258D01*
X156826697Y-116234366D01*
X156826693Y-116234365D01*
X156826692Y-116234365D01*
X156826691Y-116234364D01*
X156826686Y-116234364D01*
X156600002Y-116214532D01*
X156599998Y-116214532D01*
X156373313Y-116234364D01*
X156373302Y-116234366D01*
X156153511Y-116293258D01*
X156153502Y-116293261D01*
X155947267Y-116389431D01*
X155947265Y-116389432D01*
X155760862Y-116519951D01*
X155712617Y-116568197D01*
X155647631Y-116633182D01*
X155586311Y-116666666D01*
X155559952Y-116669500D01*
X155100048Y-116669500D01*
X155033009Y-116649815D01*
X155012371Y-116633185D01*
X154899139Y-116519953D01*
X154899138Y-116519952D01*
X154899137Y-116519951D01*
X154712734Y-116389432D01*
X154712732Y-116389431D01*
X154506497Y-116293261D01*
X154506488Y-116293258D01*
X154286697Y-116234366D01*
X154286693Y-116234365D01*
X154286692Y-116234365D01*
X154286691Y-116234364D01*
X154286686Y-116234364D01*
X154060002Y-116214532D01*
X154059998Y-116214532D01*
X153833313Y-116234364D01*
X153833302Y-116234366D01*
X153613511Y-116293258D01*
X153613502Y-116293261D01*
X153407267Y-116389431D01*
X153407265Y-116389432D01*
X153220858Y-116519954D01*
X153059954Y-116680858D01*
X152929432Y-116867265D01*
X152929431Y-116867267D01*
X152902382Y-116925275D01*
X152856209Y-116977714D01*
X152789016Y-116996866D01*
X152722135Y-116976650D01*
X152677618Y-116925275D01*
X152659015Y-116885381D01*
X152650568Y-116867266D01*
X152520047Y-116680861D01*
X152520045Y-116680858D01*
X152359141Y-116519954D01*
X152172734Y-116389432D01*
X152172732Y-116389431D01*
X151966497Y-116293261D01*
X151966488Y-116293258D01*
X151746697Y-116234366D01*
X151746693Y-116234365D01*
X151746692Y-116234365D01*
X151746691Y-116234364D01*
X151746686Y-116234364D01*
X151520002Y-116214532D01*
X151519998Y-116214532D01*
X151293313Y-116234364D01*
X151293302Y-116234366D01*
X151073511Y-116293258D01*
X151073502Y-116293261D01*
X150867267Y-116389431D01*
X150867265Y-116389432D01*
X150680858Y-116519954D01*
X150519954Y-116680858D01*
X150389432Y-116867265D01*
X150389431Y-116867267D01*
X150362382Y-116925275D01*
X150316209Y-116977714D01*
X150249016Y-116996866D01*
X150182135Y-116976650D01*
X150137618Y-116925275D01*
X150119015Y-116885381D01*
X150110568Y-116867266D01*
X149980047Y-116680861D01*
X149980045Y-116680858D01*
X149819141Y-116519954D01*
X149632734Y-116389432D01*
X149632732Y-116389431D01*
X149426497Y-116293261D01*
X149426488Y-116293258D01*
X149206697Y-116234366D01*
X149206693Y-116234365D01*
X149206692Y-116234365D01*
X149206691Y-116234364D01*
X149206686Y-116234364D01*
X148980002Y-116214532D01*
X148979998Y-116214532D01*
X148753313Y-116234364D01*
X148753302Y-116234366D01*
X148533511Y-116293258D01*
X148533502Y-116293261D01*
X148327267Y-116389431D01*
X148327265Y-116389432D01*
X148140858Y-116519954D01*
X147979954Y-116680858D01*
X147849432Y-116867265D01*
X147849431Y-116867267D01*
X147822382Y-116925275D01*
X147776209Y-116977714D01*
X147709016Y-116996866D01*
X147642135Y-116976650D01*
X147597618Y-116925275D01*
X147579015Y-116885381D01*
X147570568Y-116867266D01*
X147440047Y-116680861D01*
X147440045Y-116680858D01*
X147279141Y-116519954D01*
X147092734Y-116389432D01*
X147092732Y-116389431D01*
X146886497Y-116293261D01*
X146886488Y-116293258D01*
X146666697Y-116234366D01*
X146666693Y-116234365D01*
X146666692Y-116234365D01*
X146666691Y-116234364D01*
X146666686Y-116234364D01*
X146440002Y-116214532D01*
X146439998Y-116214532D01*
X146213313Y-116234364D01*
X146213302Y-116234366D01*
X145993511Y-116293258D01*
X145993502Y-116293261D01*
X145787267Y-116389431D01*
X145787265Y-116389432D01*
X145600858Y-116519954D01*
X145439954Y-116680858D01*
X145309432Y-116867265D01*
X145309431Y-116867267D01*
X145282382Y-116925275D01*
X145236209Y-116977714D01*
X145169016Y-116996866D01*
X145102135Y-116976650D01*
X145057618Y-116925275D01*
X145039015Y-116885381D01*
X145030568Y-116867266D01*
X144900047Y-116680861D01*
X144900045Y-116680858D01*
X144739141Y-116519954D01*
X144552734Y-116389432D01*
X144552732Y-116389431D01*
X144346497Y-116293261D01*
X144346488Y-116293258D01*
X144126697Y-116234366D01*
X144126693Y-116234365D01*
X144126692Y-116234365D01*
X144126691Y-116234364D01*
X144126686Y-116234364D01*
X143900002Y-116214532D01*
X143899998Y-116214532D01*
X143673313Y-116234364D01*
X143673302Y-116234366D01*
X143453511Y-116293258D01*
X143453502Y-116293261D01*
X143247267Y-116389431D01*
X143247265Y-116389432D01*
X143060858Y-116519954D01*
X142899954Y-116680858D01*
X142769432Y-116867265D01*
X142769431Y-116867267D01*
X142742382Y-116925275D01*
X142696209Y-116977714D01*
X142629016Y-116996866D01*
X142562135Y-116976650D01*
X142517618Y-116925275D01*
X142499015Y-116885381D01*
X142490568Y-116867266D01*
X142360047Y-116680861D01*
X142360045Y-116680858D01*
X142199141Y-116519954D01*
X142012734Y-116389432D01*
X142012732Y-116389431D01*
X141806497Y-116293261D01*
X141806488Y-116293258D01*
X141586697Y-116234366D01*
X141586693Y-116234365D01*
X141586692Y-116234365D01*
X141586691Y-116234364D01*
X141586686Y-116234364D01*
X141360002Y-116214532D01*
X141359998Y-116214532D01*
X141133313Y-116234364D01*
X141133302Y-116234366D01*
X140913511Y-116293258D01*
X140913502Y-116293261D01*
X140707267Y-116389431D01*
X140707265Y-116389432D01*
X140520858Y-116519954D01*
X140359954Y-116680858D01*
X140229432Y-116867265D01*
X140229431Y-116867267D01*
X140136882Y-117065739D01*
X140090709Y-117118178D01*
X140023516Y-117137330D01*
X139956635Y-117117114D01*
X139911300Y-117063949D01*
X139900500Y-117013334D01*
X139900500Y-110406665D01*
X139920185Y-110339626D01*
X139972989Y-110293871D01*
X140042147Y-110283927D01*
X140105703Y-110312952D01*
X140136880Y-110354258D01*
X140178149Y-110442757D01*
X140229431Y-110552732D01*
X140229432Y-110552734D01*
X140359954Y-110739141D01*
X140520858Y-110900045D01*
X140520861Y-110900047D01*
X140707266Y-111030568D01*
X140913504Y-111126739D01*
X141133308Y-111185635D01*
X141295230Y-111199801D01*
X141359998Y-111205468D01*
X141360000Y-111205468D01*
X141360002Y-111205468D01*
X141416807Y-111200498D01*
X141586692Y-111185635D01*
X141806496Y-111126739D01*
X142012734Y-111030568D01*
X142199139Y-110900047D01*
X142360047Y-110739139D01*
X142490568Y-110552734D01*
X142517618Y-110494724D01*
X142563790Y-110442285D01*
X142630983Y-110423133D01*
X142697865Y-110443348D01*
X142742382Y-110494725D01*
X142769429Y-110552728D01*
X142769432Y-110552734D01*
X142899954Y-110739141D01*
X143060858Y-110900045D01*
X143060861Y-110900047D01*
X143247266Y-111030568D01*
X143453504Y-111126739D01*
X143673308Y-111185635D01*
X143835230Y-111199801D01*
X143899998Y-111205468D01*
X143900000Y-111205468D01*
X143900002Y-111205468D01*
X143956807Y-111200498D01*
X144126692Y-111185635D01*
X144346496Y-111126739D01*
X144552734Y-111030568D01*
X144739139Y-110900047D01*
X144900047Y-110739139D01*
X145030568Y-110552734D01*
X145057618Y-110494724D01*
X145103790Y-110442285D01*
X145170983Y-110423133D01*
X145237865Y-110443348D01*
X145282382Y-110494725D01*
X145309429Y-110552728D01*
X145309432Y-110552734D01*
X145439954Y-110739141D01*
X145600858Y-110900045D01*
X145600861Y-110900047D01*
X145787266Y-111030568D01*
X145993504Y-111126739D01*
X146213308Y-111185635D01*
X146375230Y-111199801D01*
X146439998Y-111205468D01*
X146440000Y-111205468D01*
X146440002Y-111205468D01*
X146496807Y-111200498D01*
X146666692Y-111185635D01*
X146886496Y-111126739D01*
X147092734Y-111030568D01*
X147279139Y-110900047D01*
X147440047Y-110739139D01*
X147570568Y-110552734D01*
X147597618Y-110494724D01*
X147643790Y-110442285D01*
X147710983Y-110423133D01*
X147777865Y-110443348D01*
X147822382Y-110494725D01*
X147849429Y-110552728D01*
X147849432Y-110552734D01*
X147979954Y-110739141D01*
X148140858Y-110900045D01*
X148140861Y-110900047D01*
X148327266Y-111030568D01*
X148533504Y-111126739D01*
X148753308Y-111185635D01*
X148915230Y-111199801D01*
X148979998Y-111205468D01*
X148980000Y-111205468D01*
X148980002Y-111205468D01*
X149036807Y-111200498D01*
X149206692Y-111185635D01*
X149426496Y-111126739D01*
X149632734Y-111030568D01*
X149819139Y-110900047D01*
X149980047Y-110739139D01*
X150110568Y-110552734D01*
X150137618Y-110494724D01*
X150183790Y-110442285D01*
X150250983Y-110423133D01*
X150317865Y-110443348D01*
X150362382Y-110494725D01*
X150389429Y-110552728D01*
X150389432Y-110552734D01*
X150519954Y-110739141D01*
X150680858Y-110900045D01*
X150680861Y-110900047D01*
X150867266Y-111030568D01*
X151073504Y-111126739D01*
X151293308Y-111185635D01*
X151455230Y-111199801D01*
X151519998Y-111205468D01*
X151520000Y-111205468D01*
X151520002Y-111205468D01*
X151576807Y-111200498D01*
X151746692Y-111185635D01*
X151966496Y-111126739D01*
X152172734Y-111030568D01*
X152359139Y-110900047D01*
X152520047Y-110739139D01*
X152650568Y-110552734D01*
X152677618Y-110494724D01*
X152723790Y-110442285D01*
X152790983Y-110423133D01*
X152857865Y-110443348D01*
X152902382Y-110494725D01*
X152929429Y-110552728D01*
X152929432Y-110552734D01*
X153059954Y-110739141D01*
X153220858Y-110900045D01*
X153220861Y-110900047D01*
X153407266Y-111030568D01*
X153613504Y-111126739D01*
X153833308Y-111185635D01*
X153995230Y-111199801D01*
X154059998Y-111205468D01*
X154060000Y-111205468D01*
X154060002Y-111205468D01*
X154116807Y-111200498D01*
X154286692Y-111185635D01*
X154506496Y-111126739D01*
X154712734Y-111030568D01*
X154899139Y-110900047D01*
X155060047Y-110739139D01*
X155190568Y-110552734D01*
X155217895Y-110494129D01*
X155264064Y-110441695D01*
X155331257Y-110422542D01*
X155398139Y-110442757D01*
X155442657Y-110494133D01*
X155469865Y-110552482D01*
X155600342Y-110738820D01*
X155761179Y-110899657D01*
X155947517Y-111030134D01*
X156153673Y-111126265D01*
X156153682Y-111126269D01*
X156349999Y-111178872D01*
X156350000Y-111178871D01*
X156350000Y-110215686D01*
X156354394Y-110220080D01*
X156445606Y-110272741D01*
X156547339Y-110300000D01*
X156652661Y-110300000D01*
X156754394Y-110272741D01*
X156845606Y-110220080D01*
X156850000Y-110215686D01*
X156850000Y-111178872D01*
G37*
%TD.AperFunction*%
%TA.AperFunction,Conductor*%
G36*
X178539303Y-97824102D02*
G01*
X178620648Y-97905447D01*
X178654133Y-97966770D01*
X178656967Y-97993128D01*
X178656967Y-98304816D01*
X178637282Y-98371855D01*
X178605401Y-98399479D01*
X178622028Y-98408904D01*
X178654536Y-98470751D01*
X178656967Y-98495183D01*
X178656967Y-100799075D01*
X178637282Y-100866114D01*
X178597390Y-100900679D01*
X178622028Y-100914645D01*
X178654536Y-100976492D01*
X178656967Y-101000924D01*
X178656967Y-103299075D01*
X178637282Y-103366114D01*
X178597390Y-103400679D01*
X178622028Y-103414645D01*
X178654536Y-103476492D01*
X178656967Y-103500924D01*
X178656967Y-112307080D01*
X178637282Y-112374119D01*
X178620648Y-112394761D01*
X174794822Y-116220586D01*
X174733499Y-116254071D01*
X174675049Y-116252680D01*
X174606699Y-116234367D01*
X174606702Y-116234367D01*
X174606692Y-116234365D01*
X174606689Y-116234364D01*
X174606686Y-116234364D01*
X174380001Y-116214532D01*
X174379998Y-116214532D01*
X174153313Y-116234364D01*
X174153302Y-116234366D01*
X173933511Y-116293258D01*
X173933502Y-116293261D01*
X173727267Y-116389431D01*
X173727265Y-116389432D01*
X173540858Y-116519954D01*
X173379954Y-116680858D01*
X173249432Y-116867265D01*
X173249431Y-116867267D01*
X173222382Y-116925275D01*
X173176209Y-116977714D01*
X173109016Y-116996866D01*
X173042135Y-116976650D01*
X172997618Y-116925275D01*
X172979015Y-116885381D01*
X172970568Y-116867266D01*
X172840047Y-116680861D01*
X172840045Y-116680858D01*
X172679141Y-116519954D01*
X172492734Y-116389432D01*
X172492732Y-116389431D01*
X172286497Y-116293261D01*
X172286488Y-116293258D01*
X172066697Y-116234366D01*
X172066693Y-116234365D01*
X172066692Y-116234365D01*
X172066691Y-116234364D01*
X172066686Y-116234364D01*
X171840002Y-116214532D01*
X171839998Y-116214532D01*
X171613313Y-116234364D01*
X171613302Y-116234366D01*
X171393511Y-116293258D01*
X171393502Y-116293261D01*
X171187267Y-116389431D01*
X171187265Y-116389432D01*
X171000858Y-116519954D01*
X170839954Y-116680858D01*
X170709432Y-116867265D01*
X170709431Y-116867267D01*
X170682382Y-116925275D01*
X170636209Y-116977714D01*
X170569016Y-116996866D01*
X170502135Y-116976650D01*
X170457618Y-116925275D01*
X170439015Y-116885381D01*
X170430568Y-116867266D01*
X170300047Y-116680861D01*
X170300045Y-116680858D01*
X170139141Y-116519954D01*
X169952734Y-116389432D01*
X169952732Y-116389431D01*
X169746497Y-116293261D01*
X169746488Y-116293258D01*
X169526697Y-116234366D01*
X169526693Y-116234365D01*
X169526692Y-116234365D01*
X169526691Y-116234364D01*
X169526686Y-116234364D01*
X169300002Y-116214532D01*
X169299998Y-116214532D01*
X169073313Y-116234364D01*
X169073302Y-116234366D01*
X168853511Y-116293258D01*
X168853502Y-116293261D01*
X168647267Y-116389431D01*
X168647265Y-116389432D01*
X168460858Y-116519954D01*
X168299954Y-116680858D01*
X168169432Y-116867265D01*
X168169431Y-116867267D01*
X168142382Y-116925275D01*
X168096209Y-116977714D01*
X168029016Y-116996866D01*
X167962135Y-116976650D01*
X167917618Y-116925275D01*
X167899015Y-116885381D01*
X167890568Y-116867266D01*
X167760047Y-116680861D01*
X167760045Y-116680858D01*
X167735064Y-116655877D01*
X167701579Y-116594554D01*
X167706563Y-116524862D01*
X167735062Y-116480517D01*
X173109638Y-111105941D01*
X173170959Y-111072458D01*
X173240651Y-111077442D01*
X173271626Y-111094356D01*
X173335056Y-111141840D01*
X173337668Y-111143795D01*
X173337671Y-111143797D01*
X173472517Y-111194091D01*
X173472516Y-111194091D01*
X173479444Y-111194835D01*
X173532127Y-111200500D01*
X175227872Y-111200499D01*
X175287483Y-111194091D01*
X175422331Y-111143796D01*
X175537546Y-111057546D01*
X175623796Y-110942331D01*
X175674091Y-110807483D01*
X175680500Y-110747873D01*
X175680499Y-109052128D01*
X175674091Y-108992517D01*
X175670335Y-108982447D01*
X175623797Y-108857671D01*
X175623793Y-108857664D01*
X175537547Y-108742455D01*
X175537544Y-108742452D01*
X175422335Y-108656206D01*
X175422328Y-108656202D01*
X175287482Y-108605908D01*
X175287483Y-108605908D01*
X175227883Y-108599501D01*
X175227881Y-108599500D01*
X175227873Y-108599500D01*
X175227865Y-108599500D01*
X173714500Y-108599500D01*
X173647461Y-108579815D01*
X173601706Y-108527011D01*
X173590500Y-108475500D01*
X173590500Y-107895451D01*
X173610185Y-107828412D01*
X173626814Y-107807775D01*
X176766204Y-104668384D01*
X176827525Y-104634901D01*
X176885976Y-104636292D01*
X176929932Y-104648070D01*
X177085887Y-104661714D01*
X177149998Y-104667323D01*
X177150000Y-104667323D01*
X177150002Y-104667323D01*
X177205017Y-104662509D01*
X177370068Y-104648070D01*
X177583450Y-104590894D01*
X177783662Y-104497534D01*
X177964620Y-104370826D01*
X178120826Y-104214620D01*
X178247534Y-104033662D01*
X178340894Y-103833450D01*
X178398070Y-103620068D01*
X178409439Y-103490117D01*
X178434891Y-103425048D01*
X178468736Y-103400539D01*
X178451764Y-103392788D01*
X178413990Y-103334010D01*
X178409439Y-103309882D01*
X178407040Y-103282465D01*
X178398070Y-103179932D01*
X178340894Y-102966550D01*
X178247534Y-102766339D01*
X178151940Y-102629815D01*
X178120827Y-102585381D01*
X178120823Y-102585377D01*
X177964620Y-102429174D01*
X177964616Y-102429171D01*
X177964615Y-102429170D01*
X177783666Y-102302468D01*
X177783658Y-102302464D01*
X177697701Y-102262382D01*
X177645261Y-102216210D01*
X177626109Y-102149017D01*
X177646324Y-102082136D01*
X177697701Y-102037618D01*
X177783662Y-101997534D01*
X177964620Y-101870826D01*
X178120826Y-101714620D01*
X178247534Y-101533662D01*
X178340894Y-101333450D01*
X178398070Y-101120068D01*
X178409439Y-100990117D01*
X178434891Y-100925048D01*
X178468736Y-100900539D01*
X178451764Y-100892788D01*
X178413990Y-100834010D01*
X178409439Y-100809882D01*
X178404200Y-100750000D01*
X178398070Y-100679932D01*
X178340894Y-100466550D01*
X178247534Y-100266339D01*
X178120826Y-100085380D01*
X177964620Y-99929174D01*
X177964616Y-99929171D01*
X177964615Y-99929170D01*
X177783666Y-99802468D01*
X177783663Y-99802466D01*
X177783662Y-99802466D01*
X177723744Y-99774526D01*
X177697108Y-99762105D01*
X177644669Y-99715932D01*
X177625517Y-99648739D01*
X177645733Y-99581858D01*
X177697110Y-99537340D01*
X177783412Y-99497097D01*
X177783417Y-99497094D01*
X177848188Y-99451741D01*
X177177448Y-98781000D01*
X177200160Y-98781000D01*
X177297061Y-98755036D01*
X177383940Y-98704876D01*
X177454876Y-98633940D01*
X177505036Y-98547061D01*
X177531000Y-98450160D01*
X177531000Y-98427446D01*
X178201741Y-99098188D01*
X178247094Y-99033417D01*
X178247100Y-99033407D01*
X178340419Y-98833284D01*
X178340424Y-98833270D01*
X178397573Y-98619986D01*
X178397575Y-98619975D01*
X178409439Y-98484376D01*
X178434891Y-98419307D01*
X178459013Y-98401839D01*
X178451764Y-98398529D01*
X178413990Y-98339751D01*
X178409439Y-98315624D01*
X178397575Y-98180023D01*
X178397573Y-98180013D01*
X178340424Y-97966729D01*
X178340421Y-97966720D01*
X178339241Y-97964190D01*
X178339055Y-97962969D01*
X178338572Y-97961641D01*
X178338839Y-97961543D01*
X178328748Y-97895113D01*
X178357266Y-97831328D01*
X178415742Y-97793088D01*
X178485609Y-97792532D01*
X178539303Y-97824102D01*
G37*
%TD.AperFunction*%
%TA.AperFunction,Conductor*%
G36*
X174179423Y-89753510D02*
G01*
X174205019Y-89762298D01*
X174420911Y-89798324D01*
X174483794Y-89828773D01*
X174520234Y-89888388D01*
X174524500Y-89920632D01*
X174524500Y-93611817D01*
X174529786Y-93638390D01*
X174529786Y-93638393D01*
X174529787Y-93638393D01*
X174529787Y-93638394D01*
X174542041Y-93700003D01*
X174548538Y-93732664D01*
X174548538Y-93732665D01*
X174557490Y-93754275D01*
X174557491Y-93754279D01*
X174595686Y-93846492D01*
X174595690Y-93846500D01*
X174622602Y-93886774D01*
X174622603Y-93886775D01*
X174664141Y-93948941D01*
X174664144Y-93948945D01*
X174755586Y-94040387D01*
X174755608Y-94040407D01*
X177725897Y-97010696D01*
X177759382Y-97072019D01*
X177754398Y-97141711D01*
X177712526Y-97197644D01*
X177647062Y-97222061D01*
X177588426Y-97211242D01*
X177588359Y-97211428D01*
X177587258Y-97211027D01*
X177585815Y-97210761D01*
X177583280Y-97209579D01*
X177583270Y-97209575D01*
X177369986Y-97152426D01*
X177369976Y-97152424D01*
X177150001Y-97133179D01*
X177149999Y-97133179D01*
X176930023Y-97152424D01*
X176930013Y-97152426D01*
X176716729Y-97209575D01*
X176716720Y-97209579D01*
X176516590Y-97302901D01*
X176451811Y-97348258D01*
X177122554Y-98019000D01*
X177099840Y-98019000D01*
X177002939Y-98044964D01*
X176916060Y-98095124D01*
X176845124Y-98166060D01*
X176794964Y-98252939D01*
X176769000Y-98349840D01*
X176769000Y-98372553D01*
X176098258Y-97701811D01*
X176052901Y-97766590D01*
X176012658Y-97852891D01*
X175966485Y-97905330D01*
X175899292Y-97924482D01*
X175832411Y-97904266D01*
X175787894Y-97852891D01*
X175747534Y-97766340D01*
X175747533Y-97766338D01*
X175620827Y-97585381D01*
X175562641Y-97527195D01*
X175464620Y-97429174D01*
X175464616Y-97429171D01*
X175464615Y-97429170D01*
X175283666Y-97302468D01*
X175283662Y-97302466D01*
X175283660Y-97302465D01*
X175083450Y-97209106D01*
X175083447Y-97209105D01*
X175083445Y-97209104D01*
X174870070Y-97151930D01*
X174870062Y-97151929D01*
X174650002Y-97132677D01*
X174649998Y-97132677D01*
X174429937Y-97151929D01*
X174429929Y-97151930D01*
X174216554Y-97209104D01*
X174216550Y-97209106D01*
X174200908Y-97216400D01*
X174016340Y-97302465D01*
X174016338Y-97302466D01*
X173835377Y-97429175D01*
X173679175Y-97585377D01*
X173552466Y-97766338D01*
X173552465Y-97766340D01*
X173487653Y-97905330D01*
X173460207Y-97964190D01*
X173459107Y-97966548D01*
X173459104Y-97966554D01*
X173401930Y-98179929D01*
X173401929Y-98179937D01*
X173382677Y-98399997D01*
X173382677Y-98400002D01*
X173401929Y-98620062D01*
X173401930Y-98620070D01*
X173459104Y-98833445D01*
X173459105Y-98833447D01*
X173459106Y-98833450D01*
X173507072Y-98936313D01*
X173552466Y-99033662D01*
X173552468Y-99033666D01*
X173679170Y-99214615D01*
X173679175Y-99214621D01*
X173835378Y-99370824D01*
X173835384Y-99370829D01*
X174016333Y-99497531D01*
X174016335Y-99497532D01*
X174016338Y-99497534D01*
X174084193Y-99529175D01*
X174102299Y-99537618D01*
X174154738Y-99583790D01*
X174173890Y-99650984D01*
X174153674Y-99717865D01*
X174102299Y-99762382D01*
X174016340Y-99802465D01*
X174016338Y-99802466D01*
X173835377Y-99929175D01*
X173679175Y-100085377D01*
X173552466Y-100266338D01*
X173552465Y-100266340D01*
X173459107Y-100466548D01*
X173459104Y-100466554D01*
X173401930Y-100679929D01*
X173401929Y-100679937D01*
X173382677Y-100899997D01*
X173382677Y-100900002D01*
X173394205Y-101031786D01*
X173380438Y-101100286D01*
X173358358Y-101130273D01*
X166625451Y-107863181D01*
X166564128Y-107896666D01*
X166537770Y-107899500D01*
X160316080Y-107899500D01*
X160171092Y-107928340D01*
X160171086Y-107928342D01*
X160034508Y-107984914D01*
X160034496Y-107984921D01*
X159985270Y-108017811D01*
X159985271Y-108017812D01*
X159911581Y-108067049D01*
X159405348Y-108573282D01*
X159344025Y-108606767D01*
X159306861Y-108609129D01*
X159140003Y-108594532D01*
X159139998Y-108594532D01*
X158913313Y-108614364D01*
X158913302Y-108614366D01*
X158693511Y-108673258D01*
X158693502Y-108673261D01*
X158487267Y-108769431D01*
X158487265Y-108769432D01*
X158300858Y-108899954D01*
X158139954Y-109060858D01*
X158009433Y-109247264D01*
X158009432Y-109247266D01*
X158009315Y-109247518D01*
X157982106Y-109305867D01*
X157935933Y-109358306D01*
X157868739Y-109377457D01*
X157801858Y-109357241D01*
X157757342Y-109305865D01*
X157730135Y-109247520D01*
X157730134Y-109247518D01*
X157599657Y-109061179D01*
X157438820Y-108900342D01*
X157252482Y-108769865D01*
X157046328Y-108673734D01*
X156850000Y-108621127D01*
X156850000Y-109584314D01*
X156845606Y-109579920D01*
X156754394Y-109527259D01*
X156652661Y-109500000D01*
X156547339Y-109500000D01*
X156445606Y-109527259D01*
X156354394Y-109579920D01*
X156350000Y-109584314D01*
X156350000Y-108621127D01*
X156153671Y-108673734D01*
X155947517Y-108769865D01*
X155761179Y-108900342D01*
X155600342Y-109061179D01*
X155469867Y-109247515D01*
X155442657Y-109305867D01*
X155396484Y-109358306D01*
X155329290Y-109377457D01*
X155262409Y-109357241D01*
X155217893Y-109305865D01*
X155193735Y-109254059D01*
X155190568Y-109247266D01*
X155060047Y-109060861D01*
X155060045Y-109060858D01*
X154899141Y-108899954D01*
X154712734Y-108769432D01*
X154712732Y-108769431D01*
X154506497Y-108673261D01*
X154506488Y-108673258D01*
X154286697Y-108614366D01*
X154286693Y-108614365D01*
X154286692Y-108614365D01*
X154286691Y-108614364D01*
X154286686Y-108614364D01*
X154060002Y-108594532D01*
X154059999Y-108594532D01*
X153833313Y-108614364D01*
X153833296Y-108614367D01*
X153764949Y-108632680D01*
X153695099Y-108631016D01*
X153645177Y-108600586D01*
X153561819Y-108517228D01*
X153528334Y-108455905D01*
X153525500Y-108429547D01*
X153525500Y-106667799D01*
X153545185Y-106600760D01*
X153578377Y-106566224D01*
X153594584Y-106554876D01*
X153714620Y-106470826D01*
X153870826Y-106314620D01*
X153966225Y-106178376D01*
X154020802Y-106134752D01*
X154067800Y-106125500D01*
X156435812Y-106125500D01*
X156502851Y-106145185D01*
X156537387Y-106178377D01*
X156649954Y-106339141D01*
X156810858Y-106500045D01*
X156855835Y-106531538D01*
X156997266Y-106630568D01*
X157203504Y-106726739D01*
X157423308Y-106785635D01*
X157585230Y-106799801D01*
X157649998Y-106805468D01*
X157650000Y-106805468D01*
X157650002Y-106805468D01*
X157706673Y-106800509D01*
X157876692Y-106785635D01*
X158096496Y-106726739D01*
X158302734Y-106630568D01*
X158489139Y-106500047D01*
X158650047Y-106339139D01*
X158780568Y-106152734D01*
X158876739Y-105946496D01*
X158935635Y-105726692D01*
X158955468Y-105500000D01*
X158955468Y-105499997D01*
X161345034Y-105499997D01*
X161345034Y-105500002D01*
X161364858Y-105726599D01*
X161364860Y-105726610D01*
X161423730Y-105946317D01*
X161423735Y-105946331D01*
X161519863Y-106152478D01*
X161570974Y-106225472D01*
X162250000Y-105546446D01*
X162250000Y-105552661D01*
X162277259Y-105654394D01*
X162329920Y-105745606D01*
X162404394Y-105820080D01*
X162495606Y-105872741D01*
X162597339Y-105900000D01*
X162603553Y-105900000D01*
X161924526Y-106579025D01*
X161997513Y-106630132D01*
X161997521Y-106630136D01*
X162203668Y-106726264D01*
X162203682Y-106726269D01*
X162423389Y-106785139D01*
X162423400Y-106785141D01*
X162649998Y-106804966D01*
X162650002Y-106804966D01*
X162876599Y-106785141D01*
X162876610Y-106785139D01*
X163096317Y-106726269D01*
X163096331Y-106726264D01*
X163302478Y-106630136D01*
X163375471Y-106579024D01*
X162696447Y-105900000D01*
X162702661Y-105900000D01*
X162804394Y-105872741D01*
X162895606Y-105820080D01*
X162970080Y-105745606D01*
X163022741Y-105654394D01*
X163050000Y-105552661D01*
X163050000Y-105546447D01*
X163729024Y-106225471D01*
X163780136Y-106152478D01*
X163876264Y-105946331D01*
X163876269Y-105946317D01*
X163935139Y-105726610D01*
X163935141Y-105726599D01*
X163954966Y-105500002D01*
X163954966Y-105499997D01*
X163935141Y-105273400D01*
X163935139Y-105273389D01*
X163876269Y-105053682D01*
X163876264Y-105053668D01*
X163780136Y-104847521D01*
X163780132Y-104847513D01*
X163729025Y-104774526D01*
X163050000Y-105453551D01*
X163050000Y-105447339D01*
X163022741Y-105345606D01*
X162970080Y-105254394D01*
X162895606Y-105179920D01*
X162804394Y-105127259D01*
X162702661Y-105100000D01*
X162696445Y-105100000D01*
X163375472Y-104420974D01*
X163302478Y-104369863D01*
X163096331Y-104273735D01*
X163096317Y-104273730D01*
X162876610Y-104214860D01*
X162876599Y-104214858D01*
X162650002Y-104195034D01*
X162649998Y-104195034D01*
X162423400Y-104214858D01*
X162423389Y-104214860D01*
X162203682Y-104273730D01*
X162203673Y-104273734D01*
X161997516Y-104369866D01*
X161997512Y-104369868D01*
X161924526Y-104420973D01*
X161924526Y-104420974D01*
X162603553Y-105100000D01*
X162597339Y-105100000D01*
X162495606Y-105127259D01*
X162404394Y-105179920D01*
X162329920Y-105254394D01*
X162277259Y-105345606D01*
X162250000Y-105447339D01*
X162250000Y-105453552D01*
X161570974Y-104774526D01*
X161570973Y-104774526D01*
X161519868Y-104847512D01*
X161519866Y-104847516D01*
X161423734Y-105053673D01*
X161423730Y-105053682D01*
X161364860Y-105273389D01*
X161364858Y-105273400D01*
X161345034Y-105499997D01*
X158955468Y-105499997D01*
X158953481Y-105477293D01*
X158948116Y-105415970D01*
X158935635Y-105273308D01*
X158876739Y-105053504D01*
X158780568Y-104847266D01*
X158675452Y-104697143D01*
X158650045Y-104660858D01*
X158489141Y-104499954D01*
X158302734Y-104369432D01*
X158302732Y-104369431D01*
X158096497Y-104273261D01*
X158096488Y-104273258D01*
X157876697Y-104214366D01*
X157876693Y-104214365D01*
X157876692Y-104214365D01*
X157876691Y-104214364D01*
X157876686Y-104214364D01*
X157650002Y-104194532D01*
X157649998Y-104194532D01*
X157423313Y-104214364D01*
X157423302Y-104214366D01*
X157203511Y-104273258D01*
X157203502Y-104273261D01*
X156997267Y-104369431D01*
X156997265Y-104369432D01*
X156810858Y-104499954D01*
X156649954Y-104660858D01*
X156537387Y-104821623D01*
X156482811Y-104865248D01*
X156435812Y-104874500D01*
X154067799Y-104874500D01*
X154000760Y-104854815D01*
X153966224Y-104821623D01*
X153870827Y-104685381D01*
X153803209Y-104617763D01*
X153714620Y-104529174D01*
X153714616Y-104529171D01*
X153714615Y-104529170D01*
X153533666Y-104402468D01*
X153533662Y-104402466D01*
X153465816Y-104370829D01*
X153333450Y-104309106D01*
X153333447Y-104309105D01*
X153333445Y-104309104D01*
X153120070Y-104251930D01*
X153120062Y-104251929D01*
X152900002Y-104232677D01*
X152899998Y-104232677D01*
X152679937Y-104251929D01*
X152679929Y-104251930D01*
X152466554Y-104309104D01*
X152466548Y-104309107D01*
X152321905Y-104376555D01*
X152252827Y-104387047D01*
X152189043Y-104358527D01*
X152150804Y-104300050D01*
X152145500Y-104264173D01*
X152145500Y-102190452D01*
X152165185Y-102123413D01*
X152181819Y-102102771D01*
X152287059Y-101997531D01*
X152516205Y-101768384D01*
X152577526Y-101734901D01*
X152635976Y-101736291D01*
X152679932Y-101748070D01*
X152837123Y-101761822D01*
X152899998Y-101767323D01*
X152900000Y-101767323D01*
X152900002Y-101767323D01*
X152959346Y-101762131D01*
X153120068Y-101748070D01*
X153333450Y-101690894D01*
X153533662Y-101597534D01*
X153714620Y-101470826D01*
X153870826Y-101314620D01*
X153966225Y-101178376D01*
X154020802Y-101134752D01*
X154067800Y-101125500D01*
X156385812Y-101125500D01*
X156452851Y-101145185D01*
X156487387Y-101178377D01*
X156599954Y-101339141D01*
X156760858Y-101500045D01*
X156760861Y-101500047D01*
X156947266Y-101630568D01*
X157153504Y-101726739D01*
X157373308Y-101785635D01*
X157535230Y-101799801D01*
X157599998Y-101805468D01*
X157600000Y-101805468D01*
X157600002Y-101805468D01*
X157656673Y-101800509D01*
X157826692Y-101785635D01*
X158046496Y-101726739D01*
X158252734Y-101630568D01*
X158439139Y-101500047D01*
X158600047Y-101339139D01*
X158730568Y-101152734D01*
X158826739Y-100946496D01*
X158885635Y-100726692D01*
X158905468Y-100500000D01*
X158905468Y-100499997D01*
X161295034Y-100499997D01*
X161295034Y-100500002D01*
X161314858Y-100726599D01*
X161314860Y-100726610D01*
X161373730Y-100946317D01*
X161373735Y-100946331D01*
X161469863Y-101152478D01*
X161520974Y-101225472D01*
X162200000Y-100546446D01*
X162200000Y-100552661D01*
X162227259Y-100654394D01*
X162279920Y-100745606D01*
X162354394Y-100820080D01*
X162445606Y-100872741D01*
X162547339Y-100900000D01*
X162553553Y-100900000D01*
X161874526Y-101579025D01*
X161947513Y-101630132D01*
X161947521Y-101630136D01*
X162153668Y-101726264D01*
X162153682Y-101726269D01*
X162373389Y-101785139D01*
X162373400Y-101785141D01*
X162599998Y-101804966D01*
X162600002Y-101804966D01*
X162826599Y-101785141D01*
X162826610Y-101785139D01*
X163046317Y-101726269D01*
X163046331Y-101726264D01*
X163252478Y-101630136D01*
X163325471Y-101579024D01*
X162646447Y-100900000D01*
X162652661Y-100900000D01*
X162754394Y-100872741D01*
X162845606Y-100820080D01*
X162920080Y-100745606D01*
X162972741Y-100654394D01*
X163000000Y-100552661D01*
X163000000Y-100546447D01*
X163679024Y-101225471D01*
X163730136Y-101152478D01*
X163826264Y-100946331D01*
X163826269Y-100946317D01*
X163885139Y-100726610D01*
X163885141Y-100726599D01*
X163904966Y-100500002D01*
X163904966Y-100499997D01*
X163885141Y-100273400D01*
X163885139Y-100273389D01*
X163826269Y-100053682D01*
X163826264Y-100053668D01*
X163730136Y-99847521D01*
X163730132Y-99847513D01*
X163679025Y-99774526D01*
X163000000Y-100453551D01*
X163000000Y-100447339D01*
X162972741Y-100345606D01*
X162920080Y-100254394D01*
X162845606Y-100179920D01*
X162754394Y-100127259D01*
X162652661Y-100100000D01*
X162646445Y-100100000D01*
X163325472Y-99420974D01*
X163252478Y-99369863D01*
X163046331Y-99273735D01*
X163046317Y-99273730D01*
X162826610Y-99214860D01*
X162826599Y-99214858D01*
X162600002Y-99195034D01*
X162599998Y-99195034D01*
X162373400Y-99214858D01*
X162373389Y-99214860D01*
X162153682Y-99273730D01*
X162153673Y-99273734D01*
X161947516Y-99369866D01*
X161947512Y-99369868D01*
X161874526Y-99420973D01*
X161874526Y-99420974D01*
X162553553Y-100100000D01*
X162547339Y-100100000D01*
X162445606Y-100127259D01*
X162354394Y-100179920D01*
X162279920Y-100254394D01*
X162227259Y-100345606D01*
X162200000Y-100447339D01*
X162200000Y-100453552D01*
X161520974Y-99774526D01*
X161520973Y-99774526D01*
X161469868Y-99847512D01*
X161469866Y-99847516D01*
X161373734Y-100053673D01*
X161373730Y-100053682D01*
X161314860Y-100273389D01*
X161314858Y-100273400D01*
X161295034Y-100499997D01*
X158905468Y-100499997D01*
X158905467Y-100499993D01*
X158897134Y-100404738D01*
X158885635Y-100273308D01*
X158830234Y-100066548D01*
X158826741Y-100053511D01*
X158826738Y-100053502D01*
X158768763Y-99929175D01*
X158730568Y-99847266D01*
X158600047Y-99660861D01*
X158600045Y-99660858D01*
X158439141Y-99499954D01*
X158252734Y-99369432D01*
X158252732Y-99369431D01*
X158046497Y-99273261D01*
X158046488Y-99273258D01*
X157826697Y-99214366D01*
X157826693Y-99214365D01*
X157826692Y-99214365D01*
X157826691Y-99214364D01*
X157826686Y-99214364D01*
X157600002Y-99194532D01*
X157599998Y-99194532D01*
X157373313Y-99214364D01*
X157373302Y-99214366D01*
X157153511Y-99273258D01*
X157153502Y-99273261D01*
X156947267Y-99369431D01*
X156947265Y-99369432D01*
X156760858Y-99499954D01*
X156599954Y-99660858D01*
X156487387Y-99821623D01*
X156432811Y-99865248D01*
X156385812Y-99874500D01*
X154067799Y-99874500D01*
X154000760Y-99854815D01*
X153966224Y-99821623D01*
X153870827Y-99685381D01*
X153818123Y-99632677D01*
X153714620Y-99529174D01*
X153714616Y-99529171D01*
X153714615Y-99529170D01*
X153533666Y-99402468D01*
X153533662Y-99402466D01*
X153465816Y-99370829D01*
X153333450Y-99309106D01*
X153333447Y-99309105D01*
X153333445Y-99309104D01*
X153120070Y-99251930D01*
X153120062Y-99251929D01*
X152900002Y-99232677D01*
X152899998Y-99232677D01*
X152679937Y-99251929D01*
X152679929Y-99251930D01*
X152466554Y-99309104D01*
X152466548Y-99309107D01*
X152266340Y-99402465D01*
X152266338Y-99402466D01*
X152085377Y-99529175D01*
X151929175Y-99685377D01*
X151802466Y-99866338D01*
X151802465Y-99866340D01*
X151709107Y-100066548D01*
X151709104Y-100066554D01*
X151651930Y-100279929D01*
X151651929Y-100279937D01*
X151632677Y-100499997D01*
X151632677Y-100500002D01*
X151636081Y-100538905D01*
X151651930Y-100720068D01*
X151659950Y-100750000D01*
X151663707Y-100764019D01*
X151662044Y-100833869D01*
X151631613Y-100883794D01*
X151121269Y-101394140D01*
X151034141Y-101481267D01*
X151026581Y-101492582D01*
X151021594Y-101500047D01*
X150965690Y-101583710D01*
X150965687Y-101583716D01*
X150946280Y-101630567D01*
X150946281Y-101630568D01*
X150918536Y-101697549D01*
X150918535Y-101697555D01*
X150894500Y-101818389D01*
X150894500Y-108685811D01*
X150874815Y-108752850D01*
X150841623Y-108787386D01*
X150680859Y-108899953D01*
X150519954Y-109060858D01*
X150389432Y-109247265D01*
X150389431Y-109247267D01*
X150362382Y-109305275D01*
X150316209Y-109357714D01*
X150249016Y-109376866D01*
X150182135Y-109356650D01*
X150137618Y-109305275D01*
X150113736Y-109254060D01*
X150110568Y-109247266D01*
X149980047Y-109060861D01*
X149980045Y-109060858D01*
X149819141Y-108899954D01*
X149632734Y-108769432D01*
X149632732Y-108769431D01*
X149426497Y-108673261D01*
X149426488Y-108673258D01*
X149206697Y-108614366D01*
X149206693Y-108614365D01*
X149206692Y-108614365D01*
X149206691Y-108614364D01*
X149206686Y-108614364D01*
X148980002Y-108594532D01*
X148979998Y-108594532D01*
X148753313Y-108614364D01*
X148753302Y-108614366D01*
X148533511Y-108673258D01*
X148533502Y-108673261D01*
X148327267Y-108769431D01*
X148327265Y-108769432D01*
X148140858Y-108899954D01*
X147979954Y-109060858D01*
X147849432Y-109247265D01*
X147849431Y-109247267D01*
X147822382Y-109305275D01*
X147776209Y-109357714D01*
X147709016Y-109376866D01*
X147642135Y-109356650D01*
X147597618Y-109305275D01*
X147573736Y-109254060D01*
X147570568Y-109247266D01*
X147440047Y-109060861D01*
X147440045Y-109060858D01*
X147279141Y-108899954D01*
X147092734Y-108769432D01*
X147092732Y-108769431D01*
X146886497Y-108673261D01*
X146886488Y-108673258D01*
X146666697Y-108614366D01*
X146666693Y-108614365D01*
X146666692Y-108614365D01*
X146666691Y-108614364D01*
X146666686Y-108614364D01*
X146440002Y-108594532D01*
X146439998Y-108594532D01*
X146213313Y-108614364D01*
X146213302Y-108614366D01*
X145993511Y-108673258D01*
X145993502Y-108673261D01*
X145787267Y-108769431D01*
X145787265Y-108769432D01*
X145600858Y-108899954D01*
X145439954Y-109060858D01*
X145309432Y-109247265D01*
X145309431Y-109247267D01*
X145282382Y-109305275D01*
X145236209Y-109357714D01*
X145169016Y-109376866D01*
X145102135Y-109356650D01*
X145057618Y-109305275D01*
X145033736Y-109254060D01*
X145030568Y-109247266D01*
X144900047Y-109060861D01*
X144900045Y-109060858D01*
X144739141Y-108899954D01*
X144552734Y-108769432D01*
X144552732Y-108769431D01*
X144346497Y-108673261D01*
X144346488Y-108673258D01*
X144126697Y-108614366D01*
X144126693Y-108614365D01*
X144126692Y-108614365D01*
X144126691Y-108614364D01*
X144126686Y-108614364D01*
X143900002Y-108594532D01*
X143899998Y-108594532D01*
X143673313Y-108614364D01*
X143673302Y-108614366D01*
X143453511Y-108673258D01*
X143453502Y-108673261D01*
X143247267Y-108769431D01*
X143247265Y-108769432D01*
X143060858Y-108899954D01*
X142899954Y-109060858D01*
X142769432Y-109247265D01*
X142769431Y-109247267D01*
X142742382Y-109305275D01*
X142696209Y-109357714D01*
X142629016Y-109376866D01*
X142562135Y-109356650D01*
X142517618Y-109305275D01*
X142493736Y-109254060D01*
X142490568Y-109247266D01*
X142360047Y-109060861D01*
X142360045Y-109060858D01*
X142199141Y-108899954D01*
X142012734Y-108769432D01*
X142012732Y-108769431D01*
X141806497Y-108673261D01*
X141806488Y-108673258D01*
X141586697Y-108614366D01*
X141586693Y-108614365D01*
X141586692Y-108614365D01*
X141586691Y-108614364D01*
X141586686Y-108614364D01*
X141360002Y-108594532D01*
X141359998Y-108594532D01*
X141133313Y-108614364D01*
X141133302Y-108614366D01*
X140913511Y-108673258D01*
X140913502Y-108673261D01*
X140707267Y-108769431D01*
X140707265Y-108769432D01*
X140520858Y-108899954D01*
X140359954Y-109060858D01*
X140229432Y-109247265D01*
X140229431Y-109247267D01*
X140136882Y-109445739D01*
X140090709Y-109498178D01*
X140023516Y-109517330D01*
X139956635Y-109497114D01*
X139911300Y-109443949D01*
X139900500Y-109393334D01*
X139900500Y-105016232D01*
X139900499Y-105016228D01*
X139867818Y-104851925D01*
X139867816Y-104851922D01*
X139867816Y-104851918D01*
X139846533Y-104800536D01*
X139843847Y-104794051D01*
X139803707Y-104697143D01*
X139803700Y-104697130D01*
X139710627Y-104557838D01*
X139710624Y-104557834D01*
X137992165Y-102839375D01*
X137992161Y-102839372D01*
X137852866Y-102746297D01*
X137852863Y-102746296D01*
X137743416Y-102700962D01*
X137743414Y-102700961D01*
X137698086Y-102682185D01*
X137698074Y-102682182D01*
X137533771Y-102649500D01*
X137533767Y-102649500D01*
X135033767Y-102649500D01*
X128333767Y-102649500D01*
X128253651Y-102649500D01*
X128186612Y-102629815D01*
X128165970Y-102613181D01*
X126153017Y-100600228D01*
X126119532Y-100538905D01*
X126117405Y-100505414D01*
X126117323Y-100505414D01*
X126117323Y-100504116D01*
X126117171Y-100501731D01*
X126117323Y-100500000D01*
X126117323Y-100499997D01*
X133582677Y-100499997D01*
X133582677Y-100500002D01*
X133601929Y-100720062D01*
X133601930Y-100720070D01*
X133659104Y-100933445D01*
X133659105Y-100933447D01*
X133659106Y-100933450D01*
X133690570Y-101000924D01*
X133752466Y-101133662D01*
X133752468Y-101133666D01*
X133879170Y-101314615D01*
X133879175Y-101314621D01*
X134035378Y-101470824D01*
X134035384Y-101470829D01*
X134216333Y-101597531D01*
X134216335Y-101597532D01*
X134216338Y-101597534D01*
X134416550Y-101690894D01*
X134629932Y-101748070D01*
X134787123Y-101761822D01*
X134849998Y-101767323D01*
X134850000Y-101767323D01*
X134850002Y-101767323D01*
X134909346Y-101762131D01*
X135070068Y-101748070D01*
X135283450Y-101690894D01*
X135483662Y-101597534D01*
X135664620Y-101470826D01*
X135820826Y-101314620D01*
X135821603Y-101313509D01*
X135828700Y-101303376D01*
X135883277Y-101259751D01*
X135930274Y-101250500D01*
X136460315Y-101250500D01*
X136527354Y-101270185D01*
X136564123Y-101306678D01*
X136601015Y-101363145D01*
X136601017Y-101363147D01*
X136601021Y-101363153D01*
X136758216Y-101533913D01*
X136758219Y-101533915D01*
X136758222Y-101533918D01*
X136941365Y-101676464D01*
X136941371Y-101676468D01*
X136941374Y-101676470D01*
X137145497Y-101786936D01*
X137237131Y-101818394D01*
X137365015Y-101862297D01*
X137365017Y-101862297D01*
X137365019Y-101862298D01*
X137593951Y-101900500D01*
X137593952Y-101900500D01*
X137826048Y-101900500D01*
X137826049Y-101900500D01*
X138054981Y-101862298D01*
X138274503Y-101786936D01*
X138478626Y-101676470D01*
X138661784Y-101533913D01*
X138670511Y-101524432D01*
X138730394Y-101488441D01*
X138800232Y-101490538D01*
X138857850Y-101530060D01*
X138877924Y-101565080D01*
X138906645Y-101642086D01*
X138906649Y-101642093D01*
X138992809Y-101757187D01*
X138992812Y-101757190D01*
X139107906Y-101843350D01*
X139107913Y-101843354D01*
X139242620Y-101893596D01*
X139242627Y-101893598D01*
X139302155Y-101899999D01*
X139302172Y-101900000D01*
X140000000Y-101900000D01*
X140000000Y-100875277D01*
X140076306Y-100919333D01*
X140190756Y-100950000D01*
X140309244Y-100950000D01*
X140423694Y-100919333D01*
X140500000Y-100875277D01*
X140500000Y-101900000D01*
X141197828Y-101900000D01*
X141197844Y-101899999D01*
X141257372Y-101893598D01*
X141257379Y-101893596D01*
X141392086Y-101843354D01*
X141392093Y-101843350D01*
X141507187Y-101757190D01*
X141507190Y-101757187D01*
X141593350Y-101642093D01*
X141593354Y-101642086D01*
X141643596Y-101507379D01*
X141643598Y-101507372D01*
X141649999Y-101447844D01*
X141650000Y-101447827D01*
X141650000Y-100750000D01*
X140625278Y-100750000D01*
X140669333Y-100673694D01*
X140700000Y-100559244D01*
X140700000Y-100440756D01*
X140669333Y-100326306D01*
X140625278Y-100250000D01*
X141650000Y-100250000D01*
X141650000Y-99552172D01*
X141649999Y-99552155D01*
X141643598Y-99492627D01*
X141643596Y-99492620D01*
X141593354Y-99357913D01*
X141593350Y-99357906D01*
X141507190Y-99242812D01*
X141507187Y-99242809D01*
X141392093Y-99156649D01*
X141392086Y-99156645D01*
X141257379Y-99106403D01*
X141257372Y-99106401D01*
X141197844Y-99100000D01*
X140500000Y-99100000D01*
X140500000Y-100124722D01*
X140423694Y-100080667D01*
X140309244Y-100050000D01*
X140190756Y-100050000D01*
X140076306Y-100080667D01*
X140000000Y-100124722D01*
X140000000Y-99100000D01*
X139302155Y-99100000D01*
X139242627Y-99106401D01*
X139242620Y-99106403D01*
X139107913Y-99156645D01*
X139107906Y-99156649D01*
X138992812Y-99242809D01*
X138992809Y-99242812D01*
X138906649Y-99357906D01*
X138906646Y-99357911D01*
X138877924Y-99434920D01*
X138836052Y-99490853D01*
X138770588Y-99515270D01*
X138702315Y-99500418D01*
X138670514Y-99475571D01*
X138661784Y-99466087D01*
X138661779Y-99466083D01*
X138661777Y-99466081D01*
X138478634Y-99323535D01*
X138478628Y-99323531D01*
X138274504Y-99213064D01*
X138274495Y-99213061D01*
X138054984Y-99137702D01*
X137867404Y-99106401D01*
X137826049Y-99099500D01*
X137593951Y-99099500D01*
X137552596Y-99106401D01*
X137365015Y-99137702D01*
X137145504Y-99213061D01*
X137145495Y-99213064D01*
X136941371Y-99323531D01*
X136941365Y-99323535D01*
X136758222Y-99466081D01*
X136758219Y-99466084D01*
X136758216Y-99466086D01*
X136758216Y-99466087D01*
X136645181Y-99588877D01*
X136601015Y-99636854D01*
X136564123Y-99693322D01*
X136510977Y-99738678D01*
X136460315Y-99749500D01*
X135930274Y-99749500D01*
X135863235Y-99729815D01*
X135828700Y-99696624D01*
X135820828Y-99685382D01*
X135768123Y-99632677D01*
X135664620Y-99529174D01*
X135664616Y-99529171D01*
X135664615Y-99529170D01*
X135483666Y-99402468D01*
X135483662Y-99402466D01*
X135415816Y-99370829D01*
X135283450Y-99309106D01*
X135283447Y-99309105D01*
X135283445Y-99309104D01*
X135070070Y-99251930D01*
X135070062Y-99251929D01*
X134850002Y-99232677D01*
X134849998Y-99232677D01*
X134629937Y-99251929D01*
X134629929Y-99251930D01*
X134416554Y-99309104D01*
X134416548Y-99309107D01*
X134216340Y-99402465D01*
X134216338Y-99402466D01*
X134035377Y-99529175D01*
X133879175Y-99685377D01*
X133752466Y-99866338D01*
X133752465Y-99866340D01*
X133659107Y-100066548D01*
X133659104Y-100066554D01*
X133601930Y-100279929D01*
X133601929Y-100279937D01*
X133582677Y-100499997D01*
X126117323Y-100499997D01*
X126098070Y-100279932D01*
X126040894Y-100066550D01*
X125947534Y-99866339D01*
X125867992Y-99752741D01*
X125820827Y-99685381D01*
X125768123Y-99632677D01*
X125664620Y-99529174D01*
X125528376Y-99433775D01*
X125484752Y-99379198D01*
X125475500Y-99332200D01*
X125475500Y-94760711D01*
X125495185Y-94693672D01*
X125511814Y-94673034D01*
X126440982Y-93743866D01*
X126502305Y-93710382D01*
X126571997Y-93715366D01*
X126627930Y-93757238D01*
X126651602Y-93815364D01*
X126663989Y-93909469D01*
X126666094Y-93917322D01*
X126662814Y-93918200D01*
X126668581Y-93972073D01*
X126665517Y-93982522D01*
X126666095Y-93982677D01*
X126663990Y-93990529D01*
X126649500Y-94100598D01*
X126649500Y-94299403D01*
X126663989Y-94409468D01*
X126666094Y-94417322D01*
X126662814Y-94418200D01*
X126668581Y-94472073D01*
X126665517Y-94482522D01*
X126666095Y-94482677D01*
X126663990Y-94490529D01*
X126649500Y-94600598D01*
X126649500Y-94799403D01*
X126663989Y-94909468D01*
X126666094Y-94917322D01*
X126662814Y-94918200D01*
X126668581Y-94972073D01*
X126665517Y-94982522D01*
X126666095Y-94982677D01*
X126663990Y-94990529D01*
X126649500Y-95100598D01*
X126649500Y-95299403D01*
X126663988Y-95409463D01*
X126663991Y-95409472D01*
X126714821Y-95532187D01*
X126720721Y-95546429D01*
X126810964Y-95664036D01*
X126928571Y-95754279D01*
X127065528Y-95811009D01*
X127175599Y-95825500D01*
X127750500Y-95825499D01*
X127817539Y-95845183D01*
X127863294Y-95897987D01*
X127874500Y-95949499D01*
X127874500Y-96524403D01*
X127888988Y-96634463D01*
X127888991Y-96634472D01*
X127929718Y-96732796D01*
X127945721Y-96771429D01*
X128035964Y-96889036D01*
X128153571Y-96979279D01*
X128290528Y-97036009D01*
X128400599Y-97050500D01*
X128599400Y-97050499D01*
X128599401Y-97050499D01*
X128616087Y-97048302D01*
X128709472Y-97036009D01*
X128709475Y-97036007D01*
X128717326Y-97033905D01*
X128718210Y-97037207D01*
X128771925Y-97031392D01*
X128782514Y-97034501D01*
X128782674Y-97033905D01*
X128790524Y-97036008D01*
X128790526Y-97036008D01*
X128790528Y-97036009D01*
X128900599Y-97050500D01*
X129099400Y-97050499D01*
X129099401Y-97050499D01*
X129116087Y-97048302D01*
X129209472Y-97036009D01*
X129209475Y-97036007D01*
X129217326Y-97033905D01*
X129218210Y-97037207D01*
X129271925Y-97031392D01*
X129282514Y-97034501D01*
X129282674Y-97033905D01*
X129290524Y-97036008D01*
X129290526Y-97036008D01*
X129290528Y-97036009D01*
X129400599Y-97050500D01*
X129599400Y-97050499D01*
X129599401Y-97050499D01*
X129616087Y-97048302D01*
X129709472Y-97036009D01*
X129709475Y-97036007D01*
X129717326Y-97033905D01*
X129718210Y-97037207D01*
X129771925Y-97031392D01*
X129782514Y-97034501D01*
X129782674Y-97033905D01*
X129790524Y-97036008D01*
X129790526Y-97036008D01*
X129790528Y-97036009D01*
X129900599Y-97050500D01*
X130099400Y-97050499D01*
X130099401Y-97050499D01*
X130116087Y-97048302D01*
X130209472Y-97036009D01*
X130209475Y-97036007D01*
X130217326Y-97033905D01*
X130218210Y-97037207D01*
X130271925Y-97031392D01*
X130282514Y-97034501D01*
X130282674Y-97033905D01*
X130290524Y-97036008D01*
X130290526Y-97036008D01*
X130290528Y-97036009D01*
X130400599Y-97050500D01*
X130599400Y-97050499D01*
X130599401Y-97050499D01*
X130616087Y-97048302D01*
X130709472Y-97036009D01*
X130709475Y-97036007D01*
X130717326Y-97033905D01*
X130718210Y-97037207D01*
X130771925Y-97031392D01*
X130782514Y-97034501D01*
X130782674Y-97033905D01*
X130790524Y-97036008D01*
X130790526Y-97036008D01*
X130790528Y-97036009D01*
X130900599Y-97050500D01*
X131099400Y-97050499D01*
X131099401Y-97050499D01*
X131116087Y-97048302D01*
X131209472Y-97036009D01*
X131209475Y-97036007D01*
X131217326Y-97033905D01*
X131218210Y-97037207D01*
X131271925Y-97031392D01*
X131282514Y-97034501D01*
X131282674Y-97033905D01*
X131290524Y-97036008D01*
X131290526Y-97036008D01*
X131290528Y-97036009D01*
X131400599Y-97050500D01*
X131599400Y-97050499D01*
X131599403Y-97050499D01*
X131709463Y-97036011D01*
X131709467Y-97036009D01*
X131709472Y-97036009D01*
X131846429Y-96979279D01*
X131964036Y-96889036D01*
X132054279Y-96771429D01*
X132111009Y-96634472D01*
X132125500Y-96524401D01*
X132125499Y-95949498D01*
X132145183Y-95882460D01*
X132197987Y-95836705D01*
X132249499Y-95825499D01*
X132824403Y-95825499D01*
X132934463Y-95811011D01*
X132934467Y-95811009D01*
X132934472Y-95811009D01*
X133071429Y-95754279D01*
X133189036Y-95664036D01*
X133279279Y-95546429D01*
X133336009Y-95409472D01*
X133348398Y-95315362D01*
X133376664Y-95251468D01*
X133434988Y-95212996D01*
X133504853Y-95212164D01*
X133559018Y-95243868D01*
X134310756Y-95995606D01*
X134310785Y-95995637D01*
X134401004Y-96085856D01*
X134401007Y-96085858D01*
X134477930Y-96137256D01*
X134503450Y-96154309D01*
X134503452Y-96154310D01*
X134503455Y-96154312D01*
X134570136Y-96181931D01*
X134570138Y-96181933D01*
X134617283Y-96201461D01*
X134617288Y-96201463D01*
X134646955Y-96207363D01*
X134673720Y-96212688D01*
X134673740Y-96212691D01*
X134673762Y-96212696D01*
X134738131Y-96225499D01*
X134738132Y-96225500D01*
X134738133Y-96225500D01*
X134738134Y-96225500D01*
X161605145Y-96225500D01*
X161671117Y-96244506D01*
X161795674Y-96322771D01*
X161800478Y-96325789D01*
X161895647Y-96359090D01*
X161970745Y-96385368D01*
X161970750Y-96385369D01*
X162149996Y-96405565D01*
X162150000Y-96405565D01*
X162150004Y-96405565D01*
X162329249Y-96385369D01*
X162329252Y-96385368D01*
X162329255Y-96385368D01*
X162499522Y-96325789D01*
X162652262Y-96229816D01*
X162779816Y-96102262D01*
X162875789Y-95949522D01*
X162935368Y-95779255D01*
X162938182Y-95754280D01*
X162948091Y-95666340D01*
X162975157Y-95601926D01*
X163032752Y-95562371D01*
X163071311Y-95556224D01*
X168080884Y-95556224D01*
X168080884Y-95556223D01*
X168170527Y-95538393D01*
X168170528Y-95538393D01*
X168181022Y-95536305D01*
X168201728Y-95532187D01*
X168201733Y-95532184D01*
X168201736Y-95532184D01*
X168235063Y-95518378D01*
X168235062Y-95518378D01*
X168235068Y-95518376D01*
X168315562Y-95485036D01*
X168378199Y-95443182D01*
X168418009Y-95416582D01*
X168505134Y-95329457D01*
X168505134Y-95329455D01*
X168515342Y-95319248D01*
X168515343Y-95319245D01*
X174051481Y-89783108D01*
X174112802Y-89749625D01*
X174179423Y-89753510D01*
G37*
%TD.AperFunction*%
%TA.AperFunction,Conductor*%
G36*
X176769000Y-98450160D02*
G01*
X176794964Y-98547061D01*
X176845124Y-98633940D01*
X176916060Y-98704876D01*
X177002939Y-98755036D01*
X177099840Y-98781000D01*
X177122553Y-98781000D01*
X176451810Y-99451740D01*
X176516589Y-99497098D01*
X176602891Y-99537342D01*
X176655330Y-99583514D01*
X176674482Y-99650708D01*
X176654266Y-99717589D01*
X176602891Y-99762106D01*
X176516340Y-99802465D01*
X176516338Y-99802466D01*
X176335377Y-99929175D01*
X176179175Y-100085377D01*
X176052466Y-100266338D01*
X176052465Y-100266340D01*
X176012382Y-100352299D01*
X175966209Y-100404738D01*
X175899016Y-100423890D01*
X175832135Y-100403674D01*
X175787618Y-100352299D01*
X175775497Y-100326306D01*
X175747534Y-100266339D01*
X175620826Y-100085380D01*
X175464620Y-99929174D01*
X175464616Y-99929171D01*
X175464615Y-99929170D01*
X175283666Y-99802468D01*
X175283658Y-99802464D01*
X175197701Y-99762382D01*
X175145261Y-99716210D01*
X175126109Y-99649017D01*
X175146324Y-99582136D01*
X175197701Y-99537618D01*
X175215807Y-99529175D01*
X175283662Y-99497534D01*
X175464620Y-99370826D01*
X175620826Y-99214620D01*
X175747534Y-99033662D01*
X175787894Y-98947108D01*
X175834066Y-98894669D01*
X175901259Y-98875517D01*
X175968140Y-98895732D01*
X176012658Y-98947109D01*
X176052898Y-99033405D01*
X176052901Y-99033411D01*
X176098258Y-99098187D01*
X176098258Y-99098188D01*
X176769000Y-98427446D01*
X176769000Y-98450160D01*
G37*
%TD.AperFunction*%
%TA.AperFunction,Conductor*%
G36*
X130558081Y-92008181D02*
G01*
X130575515Y-92019385D01*
X130576529Y-92020162D01*
X130617707Y-92076606D01*
X130625000Y-92118505D01*
X130625000Y-92146624D01*
X130709343Y-92135521D01*
X130717195Y-92133418D01*
X130718165Y-92137041D01*
X130770116Y-92130919D01*
X130782518Y-92134494D01*
X130782677Y-92133905D01*
X130790526Y-92136008D01*
X130790528Y-92136009D01*
X130900599Y-92150500D01*
X131099400Y-92150499D01*
X131099401Y-92150499D01*
X131128828Y-92146625D01*
X131209472Y-92136009D01*
X131209475Y-92136007D01*
X131217326Y-92133905D01*
X131218210Y-92137207D01*
X131271925Y-92131392D01*
X131282514Y-92134501D01*
X131282674Y-92133905D01*
X131290524Y-92136008D01*
X131290526Y-92136008D01*
X131290528Y-92136009D01*
X131400599Y-92150500D01*
X131425498Y-92150499D01*
X131492536Y-92170181D01*
X131538293Y-92222984D01*
X131549500Y-92274495D01*
X131549500Y-92299402D01*
X131563989Y-92409468D01*
X131566094Y-92417322D01*
X131562814Y-92418200D01*
X131568581Y-92472073D01*
X131565517Y-92482522D01*
X131566095Y-92482677D01*
X131563990Y-92490529D01*
X131549500Y-92600598D01*
X131549500Y-92799403D01*
X131563989Y-92909468D01*
X131566094Y-92917322D01*
X131562814Y-92918200D01*
X131568581Y-92972073D01*
X131565517Y-92982522D01*
X131566095Y-92982677D01*
X131563990Y-92990529D01*
X131549500Y-93100598D01*
X131549500Y-93299403D01*
X131563989Y-93409468D01*
X131566094Y-93417322D01*
X131562814Y-93418200D01*
X131568581Y-93472073D01*
X131565517Y-93482522D01*
X131566095Y-93482677D01*
X131563990Y-93490529D01*
X131549500Y-93600598D01*
X131549500Y-93799403D01*
X131563989Y-93909468D01*
X131566094Y-93917322D01*
X131562814Y-93918200D01*
X131568581Y-93972073D01*
X131565517Y-93982522D01*
X131566095Y-93982677D01*
X131563990Y-93990529D01*
X131549500Y-94100598D01*
X131549500Y-94299403D01*
X131563989Y-94409468D01*
X131566094Y-94417322D01*
X131562814Y-94418200D01*
X131568581Y-94472073D01*
X131565517Y-94482522D01*
X131566095Y-94482677D01*
X131563990Y-94490529D01*
X131549500Y-94600598D01*
X131549500Y-94799403D01*
X131563989Y-94909468D01*
X131566094Y-94917322D01*
X131562814Y-94918200D01*
X131568581Y-94972073D01*
X131565517Y-94982522D01*
X131566095Y-94982677D01*
X131563990Y-94990529D01*
X131549501Y-95100589D01*
X131549500Y-95100605D01*
X131549500Y-95125500D01*
X131529815Y-95192539D01*
X131477011Y-95238294D01*
X131425504Y-95249500D01*
X131400597Y-95249500D01*
X131290531Y-95263989D01*
X131282678Y-95266094D01*
X131281802Y-95262824D01*
X131227853Y-95268567D01*
X131217477Y-95265518D01*
X131217323Y-95266095D01*
X131209470Y-95263990D01*
X131099401Y-95249500D01*
X130900596Y-95249500D01*
X130790531Y-95263989D01*
X130782678Y-95266094D01*
X130781802Y-95262824D01*
X130727853Y-95268567D01*
X130717477Y-95265518D01*
X130717323Y-95266095D01*
X130709470Y-95263990D01*
X130599401Y-95249500D01*
X130400596Y-95249500D01*
X130290531Y-95263989D01*
X130282678Y-95266094D01*
X130281802Y-95262824D01*
X130227853Y-95268567D01*
X130217477Y-95265518D01*
X130217323Y-95266095D01*
X130209470Y-95263990D01*
X130099401Y-95249500D01*
X129900596Y-95249500D01*
X129790531Y-95263989D01*
X129782678Y-95266094D01*
X129781802Y-95262824D01*
X129727853Y-95268567D01*
X129717477Y-95265518D01*
X129717323Y-95266095D01*
X129709470Y-95263990D01*
X129599401Y-95249500D01*
X129400596Y-95249500D01*
X129290531Y-95263989D01*
X129282678Y-95266094D01*
X129281802Y-95262824D01*
X129227853Y-95268567D01*
X129217477Y-95265518D01*
X129217323Y-95266095D01*
X129209470Y-95263990D01*
X129099401Y-95249500D01*
X128900596Y-95249500D01*
X128790531Y-95263989D01*
X128782678Y-95266094D01*
X128781802Y-95262824D01*
X128727853Y-95268567D01*
X128717477Y-95265518D01*
X128717323Y-95266095D01*
X128709470Y-95263990D01*
X128599410Y-95249501D01*
X128599407Y-95249500D01*
X128599401Y-95249500D01*
X128599394Y-95249500D01*
X128574499Y-95249500D01*
X128507460Y-95229815D01*
X128461705Y-95177011D01*
X128450499Y-95125500D01*
X128450499Y-95100597D01*
X128436009Y-94990529D01*
X128436009Y-94990528D01*
X128436008Y-94990525D01*
X128433905Y-94982674D01*
X128437207Y-94981789D01*
X128431392Y-94928075D01*
X128434501Y-94917485D01*
X128433905Y-94917326D01*
X128436008Y-94909475D01*
X128436008Y-94909474D01*
X128436009Y-94909472D01*
X128450500Y-94799401D01*
X128450499Y-94600600D01*
X128436009Y-94490528D01*
X128436008Y-94490525D01*
X128433905Y-94482674D01*
X128437207Y-94481789D01*
X128431392Y-94428075D01*
X128434501Y-94417485D01*
X128433905Y-94417326D01*
X128436008Y-94409475D01*
X128436008Y-94409474D01*
X128436009Y-94409472D01*
X128450500Y-94299401D01*
X128450499Y-94100600D01*
X128449309Y-94091564D01*
X128441034Y-94028700D01*
X128436009Y-93990528D01*
X128436008Y-93990525D01*
X128433905Y-93982674D01*
X128437207Y-93981789D01*
X128431392Y-93928075D01*
X128434501Y-93917485D01*
X128433905Y-93917326D01*
X128436008Y-93909475D01*
X128436008Y-93909474D01*
X128436009Y-93909472D01*
X128450500Y-93799401D01*
X128450499Y-93600600D01*
X128450420Y-93600003D01*
X128442160Y-93537254D01*
X128436009Y-93490528D01*
X128436008Y-93490525D01*
X128433905Y-93482674D01*
X128437207Y-93481789D01*
X128431392Y-93428075D01*
X128434501Y-93417485D01*
X128433905Y-93417326D01*
X128436008Y-93409475D01*
X128436008Y-93409474D01*
X128436009Y-93409472D01*
X128450500Y-93299401D01*
X128450499Y-93100600D01*
X128450049Y-93097185D01*
X128436009Y-92990529D01*
X128436009Y-92990528D01*
X128436008Y-92990525D01*
X128433905Y-92982674D01*
X128437207Y-92981789D01*
X128431392Y-92928075D01*
X128434501Y-92917485D01*
X128433905Y-92917326D01*
X128436008Y-92909475D01*
X128436008Y-92909474D01*
X128436009Y-92909472D01*
X128450500Y-92799401D01*
X128450499Y-92600600D01*
X128436009Y-92490528D01*
X128436008Y-92490525D01*
X128433905Y-92482674D01*
X128437207Y-92481789D01*
X128431392Y-92428075D01*
X128434501Y-92417485D01*
X128433905Y-92417326D01*
X128436008Y-92409475D01*
X128436008Y-92409474D01*
X128436009Y-92409472D01*
X128450500Y-92299401D01*
X128450500Y-92274499D01*
X128470185Y-92207460D01*
X128522989Y-92161705D01*
X128574500Y-92150499D01*
X128599402Y-92150499D01*
X128628836Y-92146624D01*
X128709472Y-92136009D01*
X128709475Y-92136007D01*
X128717326Y-92133905D01*
X128718210Y-92137207D01*
X128771925Y-92131392D01*
X128782514Y-92134501D01*
X128782674Y-92133905D01*
X128790524Y-92136008D01*
X128790526Y-92136008D01*
X128790528Y-92136009D01*
X128900599Y-92150500D01*
X129099400Y-92150499D01*
X129099401Y-92150499D01*
X129128828Y-92146625D01*
X129209472Y-92136009D01*
X129209475Y-92136007D01*
X129217326Y-92133905D01*
X129218210Y-92137207D01*
X129271925Y-92131392D01*
X129282514Y-92134501D01*
X129282674Y-92133905D01*
X129290524Y-92136008D01*
X129290526Y-92136008D01*
X129290528Y-92136009D01*
X129400599Y-92150500D01*
X129599400Y-92150499D01*
X129599401Y-92150499D01*
X129628828Y-92146625D01*
X129709472Y-92136009D01*
X129709475Y-92136007D01*
X129717326Y-92133905D01*
X129718210Y-92137207D01*
X129771925Y-92131392D01*
X129782514Y-92134501D01*
X129782674Y-92133905D01*
X129790524Y-92136008D01*
X129790526Y-92136008D01*
X129790528Y-92136009D01*
X129900599Y-92150500D01*
X130099400Y-92150499D01*
X130099401Y-92150499D01*
X130128828Y-92146625D01*
X130209472Y-92136009D01*
X130209475Y-92136007D01*
X130217326Y-92133905D01*
X130218158Y-92137012D01*
X130272583Y-92131122D01*
X130282623Y-92134122D01*
X130282812Y-92133419D01*
X130290665Y-92135523D01*
X130374998Y-92146625D01*
X130375000Y-92146624D01*
X130375000Y-92118505D01*
X130394685Y-92051466D01*
X130423469Y-92020163D01*
X130424475Y-92019391D01*
X130489630Y-91994171D01*
X130558081Y-92008181D01*
G37*
%TD.AperFunction*%
%TA.AperFunction,Conductor*%
G36*
X158217864Y-77796324D02*
G01*
X158262382Y-77847701D01*
X158302464Y-77933658D01*
X158302468Y-77933666D01*
X158429170Y-78114615D01*
X158429175Y-78114621D01*
X158585378Y-78270824D01*
X158585384Y-78270829D01*
X158619633Y-78294810D01*
X158700937Y-78351740D01*
X158721623Y-78366224D01*
X158765248Y-78420801D01*
X158774500Y-78467799D01*
X158774500Y-80339547D01*
X158754815Y-80406586D01*
X158738181Y-80427228D01*
X146391621Y-92773787D01*
X146330298Y-92807272D01*
X146317825Y-92809326D01*
X146270750Y-92814630D01*
X146100478Y-92874210D01*
X145947737Y-92970184D01*
X145820184Y-93097737D01*
X145724211Y-93250476D01*
X145664631Y-93420745D01*
X145664630Y-93420750D01*
X145644435Y-93599996D01*
X145644435Y-93600003D01*
X145664630Y-93779249D01*
X145664631Y-93779254D01*
X145724211Y-93949523D01*
X145787045Y-94049522D01*
X145819138Y-94100598D01*
X145820186Y-94102265D01*
X145821501Y-94103914D01*
X145822017Y-94105180D01*
X145823889Y-94108158D01*
X145823367Y-94108485D01*
X145847908Y-94168601D01*
X145835150Y-94237296D01*
X145787278Y-94288189D01*
X145724552Y-94305224D01*
X144675448Y-94305224D01*
X144608409Y-94285539D01*
X144562654Y-94232735D01*
X144552710Y-94163577D01*
X144576546Y-94108431D01*
X144576111Y-94108158D01*
X144577884Y-94105335D01*
X144578499Y-94103914D01*
X144579813Y-94102265D01*
X144579816Y-94102262D01*
X144675789Y-93949522D01*
X144735368Y-93779255D01*
X144740672Y-93732173D01*
X144767737Y-93667763D01*
X144776201Y-93658387D01*
X157385858Y-81048733D01*
X157454312Y-80946285D01*
X157501463Y-80832451D01*
X157525501Y-80711606D01*
X157525501Y-80588393D01*
X157525501Y-80583283D01*
X157525500Y-80583257D01*
X157525500Y-78467799D01*
X157545185Y-78400760D01*
X157578377Y-78366224D01*
X157599061Y-78351741D01*
X157714620Y-78270826D01*
X157870826Y-78114620D01*
X157997534Y-77933662D01*
X158037618Y-77847700D01*
X158083790Y-77795261D01*
X158150983Y-77776109D01*
X158217864Y-77796324D01*
G37*
%TD.AperFunction*%
%TA.AperFunction,Conductor*%
G36*
X160717864Y-77796324D02*
G01*
X160762382Y-77847701D01*
X160802464Y-77933658D01*
X160802468Y-77933666D01*
X160929170Y-78114615D01*
X160929175Y-78114621D01*
X161085378Y-78270824D01*
X161085384Y-78270829D01*
X161119633Y-78294810D01*
X161200937Y-78351740D01*
X161221623Y-78366224D01*
X161265248Y-78420801D01*
X161274500Y-78467799D01*
X161274500Y-80439547D01*
X161254815Y-80506586D01*
X161238181Y-80527228D01*
X148891621Y-92873787D01*
X148830298Y-92907272D01*
X148817825Y-92909326D01*
X148770750Y-92914630D01*
X148600478Y-92974210D01*
X148447737Y-93070184D01*
X148320184Y-93197737D01*
X148224211Y-93350476D01*
X148164631Y-93520745D01*
X148164630Y-93520750D01*
X148144435Y-93699996D01*
X148144435Y-93700003D01*
X148164630Y-93879249D01*
X148164631Y-93879254D01*
X148224211Y-94049521D01*
X148224211Y-94049522D01*
X148261054Y-94108158D01*
X148265512Y-94115252D01*
X148284512Y-94182488D01*
X148264144Y-94249324D01*
X148210877Y-94294538D01*
X148160518Y-94305224D01*
X147175448Y-94305224D01*
X147108409Y-94285539D01*
X147062654Y-94232735D01*
X147052710Y-94163577D01*
X147076546Y-94108431D01*
X147076111Y-94108158D01*
X147077884Y-94105335D01*
X147078499Y-94103914D01*
X147079813Y-94102265D01*
X147079816Y-94102262D01*
X147175789Y-93949522D01*
X147235368Y-93779255D01*
X147240672Y-93732173D01*
X147267737Y-93667763D01*
X147276201Y-93658387D01*
X159885858Y-81048733D01*
X159954312Y-80946285D01*
X160001463Y-80832451D01*
X160025501Y-80711606D01*
X160025501Y-80588393D01*
X160025501Y-80583283D01*
X160025500Y-80583257D01*
X160025500Y-78467799D01*
X160045185Y-78400760D01*
X160078377Y-78366224D01*
X160099061Y-78351741D01*
X160214620Y-78270826D01*
X160370826Y-78114620D01*
X160497534Y-77933662D01*
X160537618Y-77847700D01*
X160583790Y-77795261D01*
X160650983Y-77776109D01*
X160717864Y-77796324D01*
G37*
%TD.AperFunction*%
%TA.AperFunction,Conductor*%
G36*
X168217864Y-77796324D02*
G01*
X168262382Y-77847701D01*
X168302464Y-77933658D01*
X168302468Y-77933666D01*
X168429170Y-78114615D01*
X168429175Y-78114621D01*
X168585378Y-78270824D01*
X168585384Y-78270829D01*
X168766333Y-78397531D01*
X168766335Y-78397532D01*
X168766338Y-78397534D01*
X168966550Y-78490894D01*
X169179932Y-78548070D01*
X169337123Y-78561822D01*
X169399998Y-78567323D01*
X169399999Y-78567323D01*
X169399999Y-78567322D01*
X169400000Y-78567323D01*
X169442069Y-78563642D01*
X169510567Y-78577408D01*
X169560751Y-78626022D01*
X169576685Y-78694051D01*
X169553311Y-78759895D01*
X169540557Y-78774851D01*
X168981270Y-79334139D01*
X168894144Y-79421264D01*
X168894138Y-79421272D01*
X168825690Y-79523708D01*
X168825688Y-79523713D01*
X168814001Y-79551929D01*
X168778538Y-79637544D01*
X168778535Y-79637556D01*
X168754500Y-79758389D01*
X168754500Y-86875500D01*
X168734815Y-86942539D01*
X168682011Y-86988294D01*
X168630501Y-86999500D01*
X168432130Y-86999500D01*
X168432123Y-86999501D01*
X168372516Y-87005908D01*
X168237671Y-87056202D01*
X168237664Y-87056206D01*
X168122455Y-87142452D01*
X168122452Y-87142455D01*
X168036206Y-87257664D01*
X168036203Y-87257670D01*
X168007544Y-87334508D01*
X167965672Y-87390441D01*
X167900208Y-87414858D01*
X167831935Y-87400006D01*
X167800135Y-87375158D01*
X167791784Y-87366087D01*
X167791778Y-87366082D01*
X167791777Y-87366081D01*
X167608634Y-87223535D01*
X167608628Y-87223531D01*
X167404504Y-87113064D01*
X167404495Y-87113061D01*
X167184984Y-87037702D01*
X166994450Y-87005908D01*
X166956049Y-86999500D01*
X166723951Y-86999500D01*
X166685550Y-87005908D01*
X166495015Y-87037702D01*
X166275504Y-87113061D01*
X166275495Y-87113064D01*
X166071371Y-87223531D01*
X166071365Y-87223535D01*
X165888222Y-87366081D01*
X165888219Y-87366084D01*
X165888216Y-87366086D01*
X165888216Y-87366087D01*
X165848669Y-87409047D01*
X165731016Y-87536852D01*
X165604075Y-87731151D01*
X165510842Y-87943699D01*
X165453866Y-88168691D01*
X165453864Y-88168702D01*
X165434700Y-88399993D01*
X165434700Y-88400006D01*
X165453864Y-88631297D01*
X165453866Y-88631308D01*
X165510842Y-88856300D01*
X165604075Y-89068848D01*
X165731016Y-89263147D01*
X165731019Y-89263151D01*
X165731021Y-89263153D01*
X165888216Y-89433913D01*
X165888219Y-89433915D01*
X165888222Y-89433918D01*
X166071365Y-89576464D01*
X166071371Y-89576468D01*
X166071374Y-89576470D01*
X166275497Y-89686936D01*
X166389487Y-89726068D01*
X166495015Y-89762297D01*
X166495017Y-89762297D01*
X166495019Y-89762298D01*
X166723951Y-89800500D01*
X166723952Y-89800500D01*
X166795547Y-89800500D01*
X166862586Y-89820185D01*
X166908341Y-89872989D01*
X166918285Y-89942147D01*
X166889260Y-90005703D01*
X166883228Y-90012181D01*
X163525430Y-93369978D01*
X163464107Y-93403463D01*
X163451633Y-93405517D01*
X163370750Y-93414630D01*
X163200478Y-93474210D01*
X163047737Y-93570184D01*
X162920184Y-93697737D01*
X162824211Y-93850476D01*
X162764631Y-94020745D01*
X162764630Y-94020750D01*
X162744986Y-94195107D01*
X162717920Y-94259521D01*
X162660325Y-94299076D01*
X162621766Y-94305224D01*
X149739482Y-94305224D01*
X149672443Y-94285539D01*
X149626688Y-94232735D01*
X149616744Y-94163577D01*
X149634488Y-94115252D01*
X149638774Y-94108431D01*
X149675789Y-94049522D01*
X149735368Y-93879255D01*
X149740672Y-93832173D01*
X149767737Y-93767763D01*
X149776201Y-93758387D01*
X162385858Y-81148733D01*
X162454312Y-81046285D01*
X162481932Y-80979603D01*
X162501463Y-80932452D01*
X162505451Y-80912402D01*
X162525501Y-80811606D01*
X162525501Y-80688393D01*
X162525501Y-80683283D01*
X162525500Y-80683257D01*
X162525500Y-78467799D01*
X162545185Y-78400760D01*
X162578377Y-78366224D01*
X162599061Y-78351741D01*
X162714620Y-78270826D01*
X162870826Y-78114620D01*
X162997534Y-77933662D01*
X163037618Y-77847700D01*
X163083790Y-77795261D01*
X163150983Y-77776109D01*
X163217864Y-77796324D01*
X163262382Y-77847701D01*
X163302464Y-77933658D01*
X163302468Y-77933666D01*
X163429170Y-78114615D01*
X163429175Y-78114621D01*
X163585378Y-78270824D01*
X163585384Y-78270829D01*
X163766333Y-78397531D01*
X163766335Y-78397532D01*
X163766338Y-78397534D01*
X163966550Y-78490894D01*
X164179932Y-78548070D01*
X164337123Y-78561822D01*
X164399998Y-78567323D01*
X164400000Y-78567323D01*
X164400002Y-78567323D01*
X164455017Y-78562509D01*
X164620068Y-78548070D01*
X164833450Y-78490894D01*
X165033662Y-78397534D01*
X165214620Y-78270826D01*
X165370826Y-78114620D01*
X165497534Y-77933662D01*
X165537618Y-77847700D01*
X165583790Y-77795261D01*
X165650983Y-77776109D01*
X165717864Y-77796324D01*
X165762382Y-77847701D01*
X165802464Y-77933658D01*
X165802468Y-77933666D01*
X165929170Y-78114615D01*
X165929175Y-78114621D01*
X166085378Y-78270824D01*
X166085384Y-78270829D01*
X166266333Y-78397531D01*
X166266335Y-78397532D01*
X166266338Y-78397534D01*
X166466550Y-78490894D01*
X166679932Y-78548070D01*
X166837123Y-78561822D01*
X166899998Y-78567323D01*
X166900000Y-78567323D01*
X166900002Y-78567323D01*
X166955017Y-78562509D01*
X167120068Y-78548070D01*
X167333450Y-78490894D01*
X167533662Y-78397534D01*
X167714620Y-78270826D01*
X167870826Y-78114620D01*
X167997534Y-77933662D01*
X168037618Y-77847700D01*
X168083790Y-77795261D01*
X168150983Y-77776109D01*
X168217864Y-77796324D01*
G37*
%TD.AperFunction*%
%TD*%
M02*
