%TF.GenerationSoftware,KiCad,Pcbnew,8.0.7*%
%TF.CreationDate,2025-08-15T01:52:06+02:00*%
%TF.ProjectId,Arduino,41726475-696e-46f2-9e6b-696361645f70,1*%
%TF.SameCoordinates,Original*%
%TF.FileFunction,Soldermask,Bot*%
%TF.FilePolarity,Negative*%
%FSLAX46Y46*%
G04 Gerber Fmt 4.6, Leading zero omitted, Abs format (unit mm)*
G04 Created by KiCad (PCBNEW 8.0.7) date 2025-08-15 01:52:06*
%MOMM*%
%LPD*%
G01*
G04 APERTURE LIST*
G04 Aperture macros list*
%AMRoundRect*
0 Rectangle with rounded corners*
0 $1 Rounding radius*
0 $2 $3 $4 $5 $6 $7 $8 $9 X,Y pos of 4 corners*
0 Add a 4 corners polygon primitive as box body*
4,1,4,$2,$3,$4,$5,$6,$7,$8,$9,$2,$3,0*
0 Add four circle primitives for the rounded corners*
1,1,$1+$1,$2,$3*
1,1,$1+$1,$4,$5*
1,1,$1+$1,$6,$7*
1,1,$1+$1,$8,$9*
0 Add four rect primitives between the rounded corners*
20,1,$1+$1,$2,$3,$4,$5,0*
20,1,$1+$1,$4,$5,$6,$7,0*
20,1,$1+$1,$6,$7,$8,$9,0*
20,1,$1+$1,$8,$9,$2,$3,0*%
G04 Aperture macros list end*
%ADD10C,1.524000*%
%ADD11R,1.800000X1.800000*%
%ADD12C,1.800000*%
%ADD13C,1.600000*%
%ADD14R,2.000000X1.905000*%
%ADD15O,2.000000X1.905000*%
%ADD16R,1.600000X1.600000*%
%ADD17O,1.600000X1.600000*%
%ADD18R,1.700000X1.700000*%
%ADD19C,1.700000*%
%ADD20C,3.500000*%
%ADD21R,3.500000X3.500000*%
%ADD22RoundRect,0.750000X-0.750000X-1.000000X0.750000X-1.000000X0.750000X1.000000X-0.750000X1.000000X0*%
%ADD23RoundRect,0.875000X-0.875000X-0.875000X0.875000X-0.875000X0.875000X0.875000X-0.875000X0.875000X0*%
G04 APERTURE END LIST*
D10*
%TO.C,SW1*%
X115850000Y-76300000D03*
X115850000Y-80800000D03*
X121350000Y-80800000D03*
X121350000Y-76300000D03*
%TD*%
D11*
%TO.C,D5*%
X138180000Y-83300000D03*
D12*
X140720000Y-83300000D03*
%TD*%
D13*
%TO.C,C1*%
X157650000Y-105500000D03*
X162650000Y-105500000D03*
%TD*%
D10*
%TO.C,J1*%
X161850000Y-125300000D03*
X164350000Y-125300000D03*
X166850000Y-125300000D03*
X169350000Y-125300000D03*
X171850000Y-125300000D03*
X174350000Y-125300000D03*
%TD*%
%TO.C,C4*%
X134050000Y-106250000D03*
X136050000Y-106250000D03*
%TD*%
%TO.C,D1*%
X126250000Y-117700000D03*
X136250000Y-117700000D03*
%TD*%
%TO.C,R3*%
X135350000Y-83300000D03*
X125350000Y-83300000D03*
%TD*%
%TO.C,C5*%
X134050000Y-112250000D03*
X136050000Y-112250000D03*
%TD*%
%TO.C,C6*%
X127950000Y-112250000D03*
X129950000Y-112250000D03*
%TD*%
D13*
%TO.C,C2*%
X157600000Y-100500000D03*
X162600000Y-100500000D03*
%TD*%
D10*
%TO.C,J3*%
X130850000Y-77300000D03*
X133350000Y-77300000D03*
X135850000Y-77300000D03*
X138350000Y-77300000D03*
X140850000Y-77300000D03*
X143350000Y-77300000D03*
X145850000Y-77300000D03*
X148350000Y-77300000D03*
X150850000Y-77300000D03*
X153350000Y-77300000D03*
%TD*%
%TO.C,R2*%
X124850000Y-100500000D03*
X134850000Y-100500000D03*
%TD*%
%TO.C,J6*%
X132350000Y-125300000D03*
X134850000Y-125300000D03*
X137350000Y-125300000D03*
%TD*%
D11*
%TO.C,D4*%
X169380000Y-88400000D03*
D12*
X166840000Y-88400000D03*
%TD*%
D10*
%TO.C,J2*%
X174400000Y-77300000D03*
X171900000Y-77300000D03*
X169400000Y-77300000D03*
X166900000Y-77300000D03*
X164400000Y-77300000D03*
X161900000Y-77300000D03*
X159400000Y-77300000D03*
X156900000Y-77300000D03*
%TD*%
%TO.C,J7*%
X140850000Y-125300000D03*
X143350000Y-125300000D03*
X145850000Y-125300000D03*
X148350000Y-125300000D03*
X150850000Y-125300000D03*
X153350000Y-125300000D03*
X155850000Y-125300000D03*
X158350000Y-125300000D03*
%TD*%
%TO.C,C3*%
X128000000Y-106250000D03*
X130000000Y-106250000D03*
%TD*%
D14*
%TO.C,U3*%
X116250000Y-110850000D03*
D15*
X116250000Y-108310000D03*
X116250000Y-105770000D03*
%TD*%
D10*
%TO.C,R1*%
X125350000Y-87000000D03*
X135350000Y-87000000D03*
%TD*%
D11*
%TO.C,D2*%
X140250000Y-100500000D03*
D12*
X137710000Y-100500000D03*
%TD*%
D10*
%TO.C,Y1*%
X152900000Y-100500000D03*
X152900000Y-105500000D03*
%TD*%
D16*
%TO.C,U1*%
X174380000Y-109900000D03*
D17*
X171840000Y-109900000D03*
X169300000Y-109900000D03*
X166760000Y-109900000D03*
X164220000Y-109900000D03*
X161680000Y-109900000D03*
X159140000Y-109900000D03*
X156600000Y-109900000D03*
X154060000Y-109900000D03*
X151520000Y-109900000D03*
X148980000Y-109900000D03*
X146440000Y-109900000D03*
X143900000Y-109900000D03*
X141360000Y-109900000D03*
X141360000Y-117520000D03*
X143900000Y-117520000D03*
X146440000Y-117520000D03*
X148980000Y-117520000D03*
X151520000Y-117520000D03*
X154060000Y-117520000D03*
X156600000Y-117520000D03*
X159140000Y-117520000D03*
X161680000Y-117520000D03*
X164220000Y-117520000D03*
X166760000Y-117520000D03*
X169300000Y-117520000D03*
X171840000Y-117520000D03*
X174380000Y-117520000D03*
%TD*%
D18*
%TO.C,J8*%
X120560000Y-93030000D03*
D19*
X120560000Y-90530000D03*
X118560000Y-90530000D03*
X118560000Y-93030000D03*
D20*
X115850000Y-97800000D03*
X115850000Y-85760000D03*
%TD*%
D10*
%TO.C,J4*%
X174650000Y-103400000D03*
X174650000Y-100900000D03*
X174650000Y-98400000D03*
X177150000Y-103400000D03*
X177150000Y-100900000D03*
X177150000Y-98400000D03*
%TD*%
D21*
%TO.C,J5*%
X122150000Y-120392500D03*
D22*
X116150000Y-120392500D03*
D23*
X119150000Y-125092500D03*
%TD*%
D11*
%TO.C,D3*%
X172010000Y-88400000D03*
D12*
X174550000Y-88400000D03*
%TD*%
M02*
